<?xml version="1.0" standalone="no"?>
<!DOCTYPE svg PUBLIC "-//W3C//DTD SVG 1.1//EN" "http://www.w3.org/Graphics/SVG/1.1/DTD/svg11.dtd" >
<svg xmlns="http://www.w3.org/2000/svg" xmlns:xlink="http://www.w3.org/1999/xlink" version="1.1">
<metadata>
Created by FontForge 20170910 at Fri Aug  5 17:37:07 2016
 By Jimmy Wärting
(c) 2013 Microsoft Corporation. All Rights Reserved.
</metadata>
<defs>
<font id="SitkaSmall-BoldItalic" horiz-adv-x="0" >
  <font-face 
    font-family="Sitka Small"
    font-weight="700"
    font-style="italic"
    font-variant="small-caps"
    font-stretch="normal"
    units-per-em="2200"
    panose-1="2 0 8 5 0 0 0 2 0 4"
    ascent="1665"
    descent="-535"
    x-height="1109"
    cap-height="1451"
    bbox="-1277 -643 3572 2578"
    underline-thickness="102"
    underline-position="-205"
    slope="-12"
    unicode-range="U+0020-FB04"
  />
<missing-glyph horiz-adv-x="1024" 
d="M0 1466h1024v-1466h-1024v1466zM83 80h858v1306h-858v-1306z" />
    <glyph glyph-name="f_b.liga" unicode="fb" horiz-adv-x="2332" 
d="M979 -20l80 230l247 1133q4 19 -6 29.5t-20 16.5l-99 61v-165h-76q-23 10 -57.5 22t-72 22.5t-73 17.5t-59.5 7q-26 0 -44 -7t-32 -24q-18 -24 -38 -95.5t-40 -180.5h269v-173h-309l-168 -847q-24 -126 -80.5 -222.5t-137.5 -165.5t-177 -104.5t-199 -35.5q-21 0 -52 1.5
t-64.5 4.5t-65.5 7t-55 8l1 269h76q23 -10 59.5 -22t75.5 -22.5t76 -17.5t61 -7q26 0 43.5 7t31.5 24q20 25 39 95.5t42 180.5l167 847h-186v173h227q38 134 97 233t134 165q74 66 165.5 98t194.5 32q19 0 44.5 -1.5t53.5 -4t56 -5.5t52 -7v1h519l-118 -533
q-4 -14 -9.5 -27.5t-9.5 -27.5q60 62 113 96t98 50t82 19t66 3q85 0 151 -33t111 -91t68 -137t23 -170q0 -92 -19 -181.5t-55.5 -170t-89.5 -149.5t-121 -119t-150 -78.5t-176 -28.5q-47 0 -88 9.5t-75 24.5t-61 34.5t-46 39.5l-52 -108h-342zM1586 165q60 0 107 24t82.5 64
t60.5 92t41 108t23 113t7 106q0 51 -8.5 100t-30.5 87.5t-61 62.5t-99 24q-54 0 -101.5 -26.5t-82.5 -59.5l-144 -656q42 -15 92 -27t114 -12z" />
    <glyph glyph-name="f_f_b.liga" unicode="ffb" horiz-adv-x="3259" 
d="M-113 -501q-21 0 -52 1.5t-64.5 4.5t-65.5 7t-55 8l1 269h76q23 -10 59.5 -22t75.5 -22.5t76 -17.5t61 -7q26 0 43.5 7t31.5 24q10 12 20 36t20 59t20 81t21 100l167 847h-186v173h227q25 84 57.5 154.5t72 127.5t86 101t99.5 74q30 18 63 31.5t67.5 22t71 13t74.5 4.5
q21 0 52 -1.5t64.5 -4.5t65.5 -7t55 -8v-269h-76q-23 10 -59.5 22t-75.5 22.5t-76 17.5t-61 7q-26 0 -44 -7t-32 -24q-9 -12 -18.5 -36t-19.5 -59.5t-20 -81t-20 -99.5h269v-173h-309l-168 -847q-24 -125 -81 -222.5t-137 -165.5q-40 -34 -84.5 -60t-92 -44t-98 -27
t-101.5 -9zM1906 -20l80 230l247 1133q4 19 -6 29.5t-20 16.5l-99 61v-165h-76q-23 10 -57.5 22t-72 22.5t-73 17.5t-59.5 7q-26 0 -44 -7t-32 -24q-18 -24 -38 -95.5t-40 -180.5h269v-173h-309l-168 -847q-24 -126 -80.5 -222.5t-137.5 -165.5t-177 -104.5t-199 -35.5
q-21 0 -52 1.5t-64.5 4.5t-65.5 7t-55 8l1 269h76q23 -10 59.5 -22t75.5 -22.5t76 -17.5t61 -7q26 0 43.5 7t31.5 24q20 25 39 95.5t42 180.5l167 847h-186v173h227q38 134 97 233t134 165q74 66 165.5 98t194.5 32q19 0 44.5 -1.5t53.5 -4t56 -5.5t52 -7v1h519l-118 -533
q-4 -14 -9.5 -27.5t-9.5 -27.5q60 62 113 96t98 50t82 19t66 3q85 0 151 -33t111 -91t68 -137t23 -170q0 -92 -19 -181.5t-55.5 -170t-89.5 -149.5t-121 -119t-150 -78.5t-176 -28.5q-47 0 -88 9.5t-75 24.5t-61 34.5t-46 39.5l-52 -108h-342zM2513 165q60 0 107 24t82.5 64
t60.5 92t41 108t23 113t7 106q0 51 -8.5 100t-30.5 87.5t-61 62.5t-99 24q-54 0 -101.5 -26.5t-82.5 -59.5l-144 -656q42 -15 92 -27t114 -12z" />
    <glyph glyph-name="uniFB00" unicode="ff" horiz-adv-x="1844" 
d="M-113 -501q-21 0 -52 1.5t-64.5 4.5t-65.5 7t-55 8l1 269h76q23 -10 59.5 -22t75.5 -22.5t76 -17.5t61 -7q26 0 43.5 7t31.5 24q10 12 20 36t20 59t20 81t21 100l167 847h-186v173h227q25 84 57.5 154.5t72 127.5t86 101t99.5 74q30 18 63 31.5t67.5 22t71 13t74.5 4.5
q21 0 52 -1.5t64.5 -4.5t65.5 -7t55 -8v-269h-76q-23 10 -59.5 22t-75.5 22.5t-76 17.5t-61 7q-26 0 -44 -7t-32 -24q-9 -12 -18.5 -36t-19.5 -59.5t-20 -81t-20 -99.5h269v-173h-309l-168 -847q-24 -125 -81 -222.5t-137 -165.5q-40 -34 -84.5 -60t-92 -44t-98 -27
t-101.5 -9zM814 -501q-21 0 -52 1.5t-64.5 4.5t-65.5 7t-55 8l1 269h76q23 -10 59.5 -22t75.5 -22.5t76 -17.5t61 -7q26 0 43.5 7t31.5 24q10 12 20 36t20 59t20 81t21 100l167 847h-186v173h227q25 84 57.5 154.5t72 127.5t86 101t99.5 74q30 18 63 31.5t67.5 22t71 13
t74.5 4.5q21 0 52 -1.5t64.5 -4.5t65.5 -7t55 -8v-269h-76q-23 10 -59.5 22t-75.5 22.5t-76 17.5t-61 7q-26 0 -44 -7t-32 -24q-9 -12 -18.5 -36t-19.5 -59.5t-20 -81t-20 -99.5h269v-173h-309l-168 -847q-24 -125 -81 -222.5t-137 -165.5q-40 -34 -84.5 -60t-92 -44
t-98 -27t-101.5 -9z" />
    <glyph glyph-name="f_h.liga" unicode="fh" horiz-adv-x="2398" 
d="M2000 -16q-51 0 -92 14.5t-69.5 40.5t-44 62t-15.5 80q0 26 5 65.5t16 84.5l84 355q8 33 11.5 62.5t3.5 50.5q0 58 -32.5 93t-111.5 35q-25 0 -53 -4t-56 -14t-55 -26t-50 -40l-140 -631v-212h-372l299 1343q5 20 -5.5 29.5t-21.5 16.5l-110 68v-172h-76q-23 10 -59.5 22
t-75.5 22.5t-76 17.5t-61 7q-26 0 -44 -7t-32 -24q-18 -24 -38 -95.5t-40 -180.5h269v-173h-309l-168 -847q-24 -126 -80.5 -222.5t-137.5 -165.5t-177 -104.5t-199 -35.5q-21 0 -52 1.5t-64.5 4.5t-65.5 7t-55 8l1 269h76q23 -10 59.5 -22t75.5 -22.5t76 -17.5t61 -7
q26 0 43.5 7t31.5 24q20 25 39 95.5t42 180.5l167 847h-186v173h227q50 168 129.5 282.5t185.5 174.5q61 36 130.5 53.5t145.5 17.5q20 0 49 -1.5t60.5 -4t62.5 -6t55 -7.5v2h519l-121 -546l-13 -57q40 40 83.5 73.5t92 57.5t102.5 37.5t115 13.5q60 0 111 -17t88 -51
t57.5 -84t20.5 -116q0 -25 -4 -56.5t-9 -54.5l-67 -285q-7 -30 -13.5 -62.5t-11.5 -61t-8 -51t-3 -32.5q0 -17 2.5 -35.5t12.5 -34.5t28.5 -26.5t50.5 -10.5q20 0 48 3t58 13h40v-120q-43 -24 -93 -38t-98.5 -21.5t-93 -9.5t-75.5 -2z" />
    <glyph glyph-name="f_f_h.liga" unicode="ffh" horiz-adv-x="3325" 
d="M-113 -501q-21 0 -52 1.5t-64.5 4.5t-65.5 7t-55 8l1 269h76q23 -10 59.5 -22t75.5 -22.5t76 -17.5t61 -7q26 0 43.5 7t31.5 24q10 12 20 36t20 59t20 81t21 100l167 847h-186v173h227q25 84 57.5 154.5t72 127.5t86 101t99.5 74q30 18 63 31.5t67.5 22t71 13t74.5 4.5
q21 0 52 -1.5t64.5 -4.5t65.5 -7t55 -8v-269h-76q-23 10 -59.5 22t-75.5 22.5t-76 17.5t-61 7q-26 0 -44 -7t-32 -24q-9 -12 -18.5 -36t-19.5 -59.5t-20 -81t-20 -99.5h269v-173h-309l-168 -847q-24 -125 -81 -222.5t-137 -165.5q-40 -34 -84.5 -60t-92 -44t-98 -27
t-101.5 -9zM2927 -16q-51 0 -92 14.5t-69.5 40.5t-44 62t-15.5 80q0 26 5 65.5t16 84.5l84 355q8 33 11.5 62.5t3.5 50.5q0 58 -32.5 93t-111.5 35q-25 0 -53 -4t-56 -14t-55 -26t-50 -40l-140 -631v-212h-372l299 1343q5 20 -5.5 29.5t-21.5 16.5l-110 68v-172h-76
q-23 10 -59.5 22t-75.5 22.5t-76 17.5t-61 7q-26 0 -44 -7t-32 -24q-18 -24 -38 -95.5t-40 -180.5h269v-173h-309l-168 -847q-24 -126 -80.5 -222.5t-137.5 -165.5t-177 -104.5t-199 -35.5q-21 0 -52 1.5t-64.5 4.5t-65.5 7t-55 8l1 269h76q23 -10 59.5 -22t75.5 -22.5
t76 -17.5t61 -7q26 0 43.5 7t31.5 24q20 25 39 95.5t42 180.5l167 847h-186v173h227q50 168 129.5 282.5t185.5 174.5q61 36 130.5 53.5t145.5 17.5q20 0 49 -1.5t60.5 -4t62.5 -6t55 -7.5v2h519l-121 -546l-13 -57q40 40 83.5 73.5t92 57.5t102.5 37.5t115 13.5
q60 0 111 -17t88 -51t57.5 -84t20.5 -116q0 -25 -4 -56.5t-9 -54.5l-67 -285q-7 -30 -13.5 -62.5t-11.5 -61t-8 -51t-3 -32.5q0 -17 2.5 -35.5t12.5 -34.5t28.5 -26.5t50.5 -10.5q20 0 48 3t58 13h40v-120q-43 -24 -93 -38t-98.5 -21.5t-93 -9.5t-75.5 -2z" />
    <glyph glyph-name="uniFB01" unicode="fi" horiz-adv-x="1777" 
d="M-113 -501q-21 0 -52 1.5t-64.5 4.5t-65.5 7t-55 8l1 269h76q23 -10 59.5 -22t75.5 -22.5t76 -17.5t61 -7q26 0 43.5 7t31.5 24q10 12 20 36t20 59t20 81t21 100l167 847h-186v173h227q19 67 43.5 125t54 107.5t62.5 91t71 74.5q37 33 79 57t87 40.5t93.5 24.5t100.5 8
q21 0 50.5 -1.5t61 -4.5t62 -7t53.5 -8v-269h-76q-23 10 -57.5 22t-72 22.5t-73 17.5t-59.5 7q-26 0 -44 -7t-32 -24q-9 -12 -18.5 -36t-19.5 -59.5t-20 -81t-20 -99.5h269v-173h-309l-168 -847q-24 -125 -81 -222.5t-137 -165.5q-40 -34 -84.5 -60t-92 -44t-98 -27
t-101.5 -9zM1347 -16q-51 0 -92.5 14.5t-71.5 40.5t-46 62t-16 80q0 26 5.5 65.5t15.5 84.5l113 516q5 20 -4.5 29.5t-22.5 16.5l-151 80v92l562 53l-146 -662q-7 -30 -13.5 -63t-12 -62.5t-8.5 -52t-3 -32.5q0 -16 3.5 -33t14 -31.5t29.5 -23.5t51 -9q10 0 23 1.5t28 4.5
t32 8t36 12h40v-120q-43 -24 -94 -38t-101 -21.5t-95 -9.5t-76 -2zM1492 1232q-37 0 -74.5 14t-68 38t-49.5 56.5t-19 70.5q0 40 17.5 71t46.5 51.5t67 31t80 10.5q49 0 89 -9.5t69 -28t45 -47t16 -66.5q0 -41 -18.5 -76t-49 -60.5t-70 -40.5t-81.5 -15z" />
    <glyph glyph-name="uniFB03" unicode="ffi" horiz-adv-x="2702" 
d="M-113 -501q-21 0 -52 1.5t-64.5 4.5t-65.5 7t-55 8l1 269h76q23 -10 59.5 -22t75.5 -22.5t76 -17.5t61 -7q26 0 43.5 7t31.5 24q10 12 20 36t20 59t20 81t21 100l167 847h-186v173h227q25 84 57.5 154.5t72 127.5t86 101t99.5 74q30 18 63 31.5t67.5 22t71 13t74.5 4.5
q21 0 52 -1.5t64.5 -4.5t65.5 -7t55 -8v-269h-76q-23 10 -59.5 22t-75.5 22.5t-76 17.5t-61 7q-26 0 -44 -7t-32 -24q-9 -12 -18.5 -36t-19.5 -59.5t-20 -81t-20 -99.5h269v-173h-309l-168 -847q-24 -125 -81 -222.5t-137 -165.5q-40 -34 -84.5 -60t-92 -44t-98 -27
t-101.5 -9zM812 -501q-21 0 -52 1.5t-64.5 4.5t-65.5 7t-55 8l1 269h76q23 -10 59.5 -22t75.5 -22.5t76 -17.5t61 -7q26 0 43.5 7t31.5 24q10 12 20 36t20 59t20 81t21 100l167 847h-186v173h227q19 67 43.5 125t54 107.5t62.5 91t71 74.5q37 33 79 57t87 40.5t93.5 24.5
t100.5 8q21 0 50.5 -1.5t61 -4.5t62 -7t53.5 -8v-269h-76q-23 10 -57.5 22t-72 22.5t-73 17.5t-59.5 7q-26 0 -44 -7t-32 -24q-9 -12 -18.5 -36t-19.5 -59.5t-20 -81t-20 -99.5h269v-173h-309l-168 -847q-24 -125 -81 -222.5t-137 -165.5q-40 -34 -84.5 -60t-92 -44t-98 -27
t-101.5 -9zM2272 -16q-51 0 -92.5 14.5t-71.5 40.5t-46 62t-16 80q0 26 5.5 65.5t15.5 84.5l113 516q5 20 -4.5 29.5t-22.5 16.5l-151 80v92l562 53l-146 -662q-7 -30 -13.5 -63t-12 -62.5t-8.5 -52t-3 -32.5q0 -16 3.5 -33t14 -31.5t29.5 -23.5t51 -9q10 0 23 1.5t28 4.5
t32 8t36 12h40v-120q-43 -24 -94 -38t-101 -21.5t-95 -9.5t-76 -2zM2417 1232q-37 0 -74.5 14t-68 38t-49.5 56.5t-19 70.5q0 40 17.5 71t46.5 51.5t67 31t80 10.5q49 0 89 -9.5t69 -28t45 -47t16 -66.5q0 -41 -18.5 -76t-49 -60.5t-70 -40.5t-81.5 -15z" />
    <glyph glyph-name="f_j.liga" unicode="fj" horiz-adv-x="1775" 
d="M-113 -501q-21 0 -52 1.5t-64.5 4.5t-65.5 7t-55 8l1 269h76q23 -10 59.5 -22t75.5 -22.5t76 -17.5t61 -7q26 0 43.5 7t31.5 24q10 12 20 36t20 59t20 81t21 100l167 847h-186v173h227q19 67 43.5 125t54 107.5t62.5 91t71 74.5q37 33 79 57t87 40.5t93.5 24.5t100.5 8
q21 0 50.5 -1.5t61 -4.5t62 -7t53.5 -8v-269h-76q-23 10 -57.5 22t-72 22.5t-73 17.5t-59.5 7q-26 0 -44 -7t-32 -24q-9 -12 -18.5 -36t-19.5 -59.5t-20 -81t-20 -99.5h269v-173h-309l-168 -847q-24 -125 -81 -222.5t-137 -165.5q-40 -34 -84.5 -60t-92 -44t-98 -27
t-101.5 -9zM860 -501q-21 0 -52 1.5t-64.5 4.5t-65.5 7t-55 8l1 269h76q23 -10 59.5 -22t75.5 -22.5t76 -17.5t61 -7q26 0 43.5 7t31.5 24q10 12 20 36t20.5 59t20.5 81t20 100l155 820q4 19 -5 31.5t-23 18.5l-180 76v92l589 53l-210 -1091q-24 -125 -80.5 -222.5
t-136.5 -165.5q-40 -34 -84.5 -60t-92 -44t-98 -27t-102.5 -9zM1492 1232q-37 0 -74.5 14t-68 38t-49.5 56.5t-19 70.5q0 40 17.5 71t46.5 51.5t67 31t80 10.5q49 0 89 -9.5t69 -28t45 -47t16 -66.5q0 -41 -18.5 -76t-49 -60.5t-70 -40.5t-81.5 -15z" />
    <glyph glyph-name="f_f_j.liga" unicode="ffj" horiz-adv-x="2700" 
d="M-113 -501q-21 0 -52 1.5t-64.5 4.5t-65.5 7t-55 8l1 269h76q23 -10 59.5 -22t75.5 -22.5t76 -17.5t61 -7q26 0 43.5 7t31.5 24q10 12 20 36t20 59t20 81t21 100l167 847h-186v173h227q25 84 57.5 154.5t72 127.5t86 101t99.5 74q30 18 63 31.5t67.5 22t71 13t74.5 4.5
q21 0 52 -1.5t64.5 -4.5t65.5 -7t55 -8v-269h-76q-23 10 -59.5 22t-75.5 22.5t-76 17.5t-61 7q-26 0 -44 -7t-32 -24q-9 -12 -18.5 -36t-19.5 -59.5t-20 -81t-20 -99.5h269v-173h-309l-168 -847q-24 -125 -81 -222.5t-137 -165.5q-40 -34 -84.5 -60t-92 -44t-98 -27
t-101.5 -9zM812 -501q-21 0 -52 1.5t-64.5 4.5t-65.5 7t-55 8l1 269h76q23 -10 59.5 -22t75.5 -22.5t76 -17.5t61 -7q26 0 43.5 7t31.5 24q10 12 20 36t20 59t20 81t21 100l167 847h-186v173h227q19 67 43.5 125t54 107.5t62.5 91t71 74.5q37 33 79 57t87 40.5t93.5 24.5
t100.5 8q21 0 50.5 -1.5t61 -4.5t62 -7t53.5 -8v-269h-76q-23 10 -57.5 22t-72 22.5t-73 17.5t-59.5 7q-26 0 -44 -7t-32 -24q-9 -12 -18.5 -36t-19.5 -59.5t-20 -81t-20 -99.5h269v-173h-309l-168 -847q-24 -125 -81 -222.5t-137 -165.5q-40 -34 -84.5 -60t-92 -44t-98 -27
t-101.5 -9zM1785 -501q-21 0 -52 1.5t-64.5 4.5t-65.5 7t-55 8l1 269h76q23 -10 59.5 -22t75.5 -22.5t76 -17.5t61 -7q26 0 43.5 7t31.5 24q10 12 20 36t20.5 59t20.5 81t20 100l155 820q4 19 -5 31.5t-23 18.5l-180 76v92l589 53l-210 -1091q-24 -125 -80.5 -222.5
t-136.5 -165.5q-40 -34 -84.5 -60t-92 -44t-98 -27t-102.5 -9zM2417 1232q-37 0 -74.5 14t-68 38t-49.5 56.5t-19 70.5q0 40 17.5 71t46.5 51.5t67 31t80 10.5q49 0 89 -9.5t69 -28t45 -47t16 -66.5q0 -41 -18.5 -76t-49 -60.5t-70 -40.5t-81.5 -15z" />
    <glyph glyph-name="f_k.liga" unicode="fk" horiz-adv-x="2329" 
d="M1918 -16q-51 0 -86 10t-59 30t-40.5 49t-30.5 68l-134 362l-121 -82l-46 -209v-212h-372l299 1343q4 18 -6 28.5t-21 17.5l-120 74v-178h-76q-23 10 -57.5 22t-72 22.5t-73 17.5t-59.5 7q-26 0 -44 -7t-32 -24q-18 -24 -38 -95.5t-40 -180.5h269v-173h-309l-168 -847
q-24 -126 -80.5 -222.5t-137.5 -165.5t-177 -104.5t-199 -35.5q-21 0 -52 1.5t-64.5 4.5t-65.5 7t-55 8l1 269h76q23 -10 59.5 -22t75.5 -22.5t76 -17.5t61 -7q26 0 43.5 7t31.5 24q20 25 39 95.5t42 180.5l167 847h-186v173h227q38 134 97 233t134 165q74 66 165.5 98
t194.5 32q21 0 50.5 -1.5t61 -4.5t62 -7t53.5 -8v4h519l-224 -1005q157 171 263.5 289.5t171.5 177.5q31 28 57.5 48t52.5 33t54.5 19t63.5 6q36 0 72 -5.5t81 -13.5v-296h-56q-24 3 -51 7t-54.5 8t-54 6.5t-48.5 2.5h-39t-51.5 -7t-62.5 -25t-71 -54l183 -486
q6 -17 16.5 -37t27.5 -37t40.5 -28.5t55.5 -11.5q21 0 50.5 6t67.5 20h40v-120q-43 -24 -94 -38t-101 -21.5t-95.5 -9.5t-76.5 -2z" />
    <glyph glyph-name="f_f_k.liga" unicode="ffk" horiz-adv-x="3256" 
d="M-113 -501q-21 0 -52 1.5t-64.5 4.5t-65.5 7t-55 8l1 269h76q23 -10 59.5 -22t75.5 -22.5t76 -17.5t61 -7q26 0 43.5 7t31.5 24q10 12 20 36t20 59t20 81t21 100l167 847h-186v173h227q25 84 57.5 154.5t72 127.5t86 101t99.5 74q30 18 63 31.5t67.5 22t71 13t74.5 4.5
q21 0 52 -1.5t64.5 -4.5t65.5 -7t55 -8v-269h-76q-23 10 -59.5 22t-75.5 22.5t-76 17.5t-61 7q-26 0 -44 -7t-32 -24q-9 -12 -18.5 -36t-19.5 -59.5t-20 -81t-20 -99.5h269v-173h-309l-168 -847q-24 -125 -81 -222.5t-137 -165.5q-40 -34 -84.5 -60t-92 -44t-98 -27
t-101.5 -9zM2845 -16q-51 0 -86 10t-59 30t-40.5 49t-30.5 68l-134 362l-121 -82l-46 -209v-212h-372l299 1343q4 18 -6 28.5t-21 17.5l-120 74v-178h-76q-23 10 -57.5 22t-72 22.5t-73 17.5t-59.5 7q-26 0 -44 -7t-32 -24q-18 -24 -38 -95.5t-40 -180.5h269v-173h-309
l-168 -847q-24 -126 -80.5 -222.5t-137.5 -165.5t-177 -104.5t-199 -35.5q-21 0 -52 1.5t-64.5 4.5t-65.5 7t-55 8l1 269h76q23 -10 59.5 -22t75.5 -22.5t76 -17.5t61 -7q26 0 43.5 7t31.5 24q20 25 39 95.5t42 180.5l167 847h-186v173h227q38 134 97 233t134 165
q74 66 165.5 98t194.5 32q21 0 50.5 -1.5t61 -4.5t62 -7t53.5 -8v4h519l-224 -1005q157 171 263.5 289.5t171.5 177.5q31 28 57.5 48t52.5 33t54.5 19t63.5 6q36 0 72 -5.5t81 -13.5v-296h-56q-24 3 -51 7t-54.5 8t-54 6.5t-48.5 2.5h-39t-51.5 -7t-62.5 -25t-71 -54
l183 -486q6 -17 16.5 -37t27.5 -37t40.5 -28.5t55.5 -11.5q21 0 50.5 6t67.5 20h40v-120q-43 -24 -94 -38t-101 -21.5t-95.5 -9.5t-76.5 -2z" />
    <glyph glyph-name="uniFB02" unicode="fl" horiz-adv-x="1763" 
d="M1332 -16q-51 0 -92.5 14.5t-71.5 40.5t-46 62t-16 80q0 26 5.5 65.5t15.5 84.5l224 1012q5 20 -6 30t-22 16l-142 74v-178h-76q-23 10 -57.5 22t-72 22.5t-73 17.5t-59.5 7q-26 0 -44 -7t-32 -24q-18 -24 -38 -95.5t-40 -180.5h269v-173h-309l-168 -847
q-24 -126 -80.5 -222.5t-137.5 -165.5t-177 -104.5t-199 -35.5q-21 0 -52 1.5t-64.5 4.5t-65.5 7t-55 8l1 269h76q23 -10 59.5 -22t75.5 -22.5t76 -17.5t61 -7q26 0 43.5 7t31.5 24q20 25 39 95.5t42 180.5l167 847h-186v173h227q38 134 97 233t134 165q74 66 165.5 98
t194.5 32q21 0 50.5 -1.5t61 -4.5t62 -7t53.5 -8l543 4l-245 -1102q-7 -30 -13.5 -63t-12 -62.5t-8.5 -52t-3 -32.5q0 -16 3 -33t13.5 -31.5t29.5 -23.5t51 -9q20 0 50.5 6t68.5 20h40v-120q-43 -24 -94 -38t-101 -21.5t-95 -9.5t-76 -2z" />
    <glyph glyph-name="uniFB04" unicode="ffl" horiz-adv-x="2688" 
d="M-113 -501q-21 0 -52 1.5t-64.5 4.5t-65.5 7t-55 8l1 269h76q23 -10 59.5 -22t75.5 -22.5t76 -17.5t61 -7q26 0 43.5 7t31.5 24q10 12 20 36t20 59t20 81t21 100l167 847h-186v173h227q25 84 57.5 154.5t72 127.5t86 101t99.5 74q30 18 63 31.5t67.5 22t71 13t74.5 4.5
q21 0 52 -1.5t64.5 -4.5t65.5 -7t55 -8v-269h-76q-23 10 -59.5 22t-75.5 22.5t-76 17.5t-61 7q-26 0 -44 -7t-32 -24q-9 -12 -18.5 -36t-19.5 -59.5t-20 -81t-20 -99.5h269v-173h-309l-168 -847q-24 -125 -81 -222.5t-137 -165.5q-40 -34 -84.5 -60t-92 -44t-98 -27
t-101.5 -9zM2228 -16q-51 0 -92.5 14.5t-71.5 40.5t-46 62t-16 80q0 26 5.5 65.5t15.5 84.5l224 1012q5 20 -6 30t-22 16l-142 74v-178h-76q-23 10 -57.5 22t-72 22.5t-73 17.5t-59.5 7q-26 0 -44 -7t-32 -24q-18 -24 -38 -95.5t-40 -180.5h269v-173h-309l-168 -847
q-24 -126 -80.5 -222.5t-137.5 -165.5t-177 -104.5t-199 -35.5q-21 0 -52 1.5t-64.5 4.5t-65.5 7t-55 8l1 269h76q23 -10 59.5 -22t75.5 -22.5t76 -17.5t61 -7q26 0 43.5 7t31.5 24q20 25 39 95.5t42 180.5l167 847h-186v173h227q38 134 97 233t134 165q74 66 165.5 98
t194.5 32q21 0 50.5 -1.5t61 -4.5t62 -7t53.5 -8l543 4l-245 -1102q-7 -30 -13.5 -63t-12 -62.5t-8.5 -52t-3 -32.5q0 -16 3 -33t13.5 -31.5t29.5 -23.5t51 -9q20 0 50.5 6t68.5 20h40v-120q-43 -24 -94 -38t-101 -21.5t-95 -9.5t-76 -2z" />
    <glyph glyph-name=".notdef" horiz-adv-x="1024" 
d="M0 1466h1024v-1466h-1024v1466zM83 80h858v1306h-858v-1306z" />
    <glyph glyph-name="glyph1" 
 />
    <glyph glyph-name="glyph2" 
 />
    <glyph glyph-name="space" unicode=" " horiz-adv-x="680" 
 />
    <glyph glyph-name="space" unicode="&#xa0;" horiz-adv-x="680" 
 />
    <glyph glyph-name="A" unicode="A" horiz-adv-x="1581" 
d="M-76 93l116 62q17 9 34.5 24t26.5 30l629 1022l170 242h242l221 -1269q3 -16 11 -31t22 -22l122 -58l-21 -93h-652l21 93l168 75l-54 306h-507l-176 -299l156 -82l-21 -93h-529zM950 645l-58 321l-12 145h-20l-281 -466h371z" />
    <glyph glyph-name="B" unicode="B" horiz-adv-x="1582" 
d="M25 93l164 66q17 7 29 16.5t17 31.5l231 1041q5 20 -3.5 29.5t-21.5 14.5l-160 68l21 91h719q143 0 236.5 -23.5t148 -62.5t76 -90t21.5 -106q0 -78 -29 -143t-80 -115.5t-120 -85t-150 -52.5l-1 -10q78 -5 144 -27t114.5 -60.5t76 -91.5t27.5 -120q0 -90 -26.5 -159
t-73.5 -120.5t-110.5 -87t-137 -57t-153.5 -31t-160 -9.5h-820zM822 180q151 0 221 75.5t70 227.5q0 60 -20.5 95t-55 54t-79.5 24.5t-94 5.5h-186l-108 -482h252zM824 826q73 0 129 14.5t94 46.5t57.5 84.5t19.5 129.5q0 49 -13 81.5t-38 52t-60 28t-79 8.5h-122l-100 -445
h112z" />
    <glyph glyph-name="C" unicode="C" horiz-adv-x="1475" 
d="M769 -31q-150 0 -269.5 41.5t-203 120t-128 192.5t-44.5 258q0 127 28.5 243t82 216t130.5 182t174 140t211.5 89.5t244.5 31.5q76 0 147.5 -9.5t136.5 -23.5t122.5 -30t105.5 -29l-92 -403l-153 -1l-8 207q-1 13 -12 26t-21 18q-21 12 -54 24.5t-73.5 23t-86.5 17.5
t-94 7q-91 0 -168 -55.5t-133.5 -150t-88 -219.5t-31.5 -263q0 -111 24 -194.5t73.5 -139.5t124 -84t175.5 -28q69 0 131 20.5t114.5 49.5t95.5 61t74 55h75l-40 -175q-51 -36 -111.5 -75t-131.5 -70.5t-152.5 -52t-174.5 -20.5z" />
    <glyph glyph-name="D" unicode="D" horiz-adv-x="1718" 
d="M25 93l164 66q16 6 28.5 16t17.5 32l231 1041q5 20 -3.5 29.5t-21.5 14.5l-160 68l21 91h732q68 0 142.5 -11.5t146 -39t136.5 -71.5t113.5 -109.5t77.5 -153.5t29 -203q0 -138 -28.5 -256t-82.5 -214t-131.5 -169.5t-174.5 -123t-212.5 -75t-245.5 -25.5h-800zM828 180
q90 0 161 27t124.5 74t90.5 111t60.5 136.5t34 151t10.5 155.5q0 88 -19 167t-61 139t-110 95t-165 35h-142l-242 -1091h258z" />
    <glyph glyph-name="E" unicode="E" horiz-adv-x="1562" 
d="M25 93l166 66q17 7 28 16.5t16 31.5l231 1041q5 20 -4.5 29.5t-22.5 14.5l-158 68l21 91h1270l-92 -412h-153l-8 192q-1 19 -9.5 28.5t-24.5 9.5h-474l-95 -429h258q21 0 31 9t21 29l85 156h126l-125 -560h-126l-16 155q-2 20 -8 29.5t-27 9.5h-257l-107 -486h572
q14 0 28.5 11t22.5 28l99 214h152l-97 -435h-1344z" />
    <glyph glyph-name="F" unicode="F" horiz-adv-x="1457" 
d="M25 93l166 66q17 7 28 16.5t16 31.5l231 1041q5 19 -5 29t-23 15l-157 68l20 91h1275l-91 -412h-153l-8 192q-1 19 -9.5 28.5t-24.5 9.5h-478l-100 -447h275q21 0 30.5 10t19.5 27l86 157h125l-125 -560h-125l-16 155q-2 19 -7.5 28.5t-26.5 9.5h-274l-98 -442
q-5 -21 4.5 -31.5t23.5 -16.5l165 -66l-20 -93h-744z" />
    <glyph glyph-name="G" unicode="G" horiz-adv-x="1675" 
d="M759 -33q-137 0 -253.5 39.5t-201 117t-132.5 191t-48 260.5q0 131 30 249t86.5 219t137 182.5t181 138.5t218.5 88t250 31q97 0 181.5 -10.5t156 -26t129 -32t99.5 -28.5l-93 -398l-152 -1l-9 208q-1 14 -13 24t-24 16q-29 15 -69.5 28.5t-87 24t-97.5 16.5t-102 6
q-91 0 -173 -51t-144.5 -143t-99 -220.5t-36.5 -282.5q0 -110 22.5 -198.5t66.5 -150.5t108 -96t148 -34q33 0 60.5 3.5t50 9t40.5 11.5t31 12l69 319q5 20 -4 29t-22 14l-199 69l19 91h752l-19 -91l-144 -69q-13 -6 -26.5 -14.5t-18.5 -28.5l-32 -147q-22 -100 -34 -166.5
t-18 -105.5q-64 -20 -133 -39t-142 -33t-150.5 -22.5t-158.5 -8.5z" />
    <glyph glyph-name="H" unicode="H" horiz-adv-x="1893" 
d="M25 93l166 66q15 6 27 16t17 32l231 1041q5 20 -4.5 29.5t-21.5 14.5l-158 68l21 91h736l-21 -91l-165 -68q-17 -7 -29 -15.5t-17 -28.5l-91 -408h597l91 408q5 20 -5 29t-24 15l-156 68l21 91h737l-21 -91l-164 -68q-18 -8 -30 -16t-17 -28l-231 -1041q-5 -22 4.5 -31.5
t24.5 -16.5l156 -66l-21 -93h-737l21 93l164 66q17 7 29.5 16.5t17.5 31.5l102 461h-597l-102 -461q-5 -22 4 -31.5t24 -16.5l157 -66l-21 -93h-736z" />
    <glyph glyph-name="I" unicode="I" horiz-adv-x="985" 
d="M25 93l175 66q18 7 29 16.5t16 31.5l231 1041q5 20 -4.5 29.5t-22.5 14.5l-167 68l20 91h756l-20 -91l-176 -68q-17 -7 -28.5 -15.5t-16.5 -28.5l-231 -1041q-5 -22 4 -32.5t23 -15.5l168 -66l-22 -93h-756z" />
    <glyph glyph-name="J" unicode="J" horiz-adv-x="976" 
d="M-27 -439q-81 0 -158.5 11.5t-152.5 28.5l58 284h71q24 -10 60 -27t76.5 -33t82.5 -28t78 -12q28 0 47 7t34 26q10 12 21 37.5t22.5 63t23 86t23.5 106.5l233 1137q4 20 -4 29.5t-23 14.5l-190 68l20 91h763l-20 -91l-161 -68q-17 -7 -28 -15.5t-15 -28.5l-230 -1127
q-26 -127 -89 -229.5t-150 -176.5q-43 -37 -90 -65.5t-97 -48t-102 -30t-103 -10.5z" />
    <glyph glyph-name="K" unicode="K" horiz-adv-x="1656" 
d="M25 93l164 66q17 7 29 16.5t17 31.5l231 1041q5 20 -3 29t-22 15l-160 68l21 91h736l-21 -91l-163 -68q-18 -8 -30 -16t-17 -28l-111 -489l606 529l-44 72l21 91h536l-21 -91l-193 -66q-17 -6 -41 -16.5t-49 -31.5l-468 -397l348 -639q8 -14 22 -32.5t30 -25.5l154 -64
l-20 -88h-602l20 88l60 62l-281 515l-109 -43l-89 -415q-5 -22 3 -32t23 -16l159 -66l-21 -93h-736z" />
    <glyph glyph-name="L" unicode="L" horiz-adv-x="1440" 
d="M25 93l166 66q14 5 26.5 15.5t17.5 32.5l231 1041q5 20 -4 29t-23 15l-157 68l19 91h736l-19 -91l-166 -68q-15 -6 -27.5 -15t-17.5 -29l-237 -1066h483q7 0 15 2.5t15 7t13 12t10 17.5l122 303h157l-118 -524h-1263z" />
    <glyph glyph-name="M" unicode="M" horiz-adv-x="2246" 
d="M25 93l166 74q16 7 28.5 15.5t17.5 30.5l228 1035q5 19 -3.5 28.5t-22.5 15.5l-157 68l20 91h664l109 -818l15 -165h23l548 983h658l-20 -91l-165 -68q-15 -6 -28.5 -15.5t-18.5 -28.5l-231 -1041q-5 -22 3.5 -31.5t23.5 -16.5l158 -66l-20 -93h-733l20 93l161 66
q17 7 30.5 16.5t18.5 31.5l220 992h-24l-79 -147l-472 -832l-140 -220h-190l-138 1059l-13 147h-23l-221 -993q-5 -22 2.5 -30.5t21.5 -15.5l155 -74l-20 -93h-592z" />
    <glyph glyph-name="N" unicode="N" horiz-adv-x="1818" 
d="M694 963l-43 125h-21l-192 -875q-5 -22 4 -31.5t20 -14.5l155 -74l-20 -93h-592l20 93l166 74q17 8 29 16t17 30l229 1035q5 19 -3.5 28.5t-22.5 15.5l-164 68l21 91h532l413 -889l43 -126h21l177 806q4 19 -5.5 28t-22.5 15l-155 75l19 91h595l-19 -91l-166 -75
q-14 -6 -27 -14.5t-18 -28.5l-226 -1022l-78 -230h-231z" />
    <glyph glyph-name="O" unicode="O" horiz-adv-x="1683" 
d="M806 143q88 0 157.5 38t122 100.5t89 143t59 166.5t33 170t10.5 153q0 80 -15.5 151.5t-52 125.5t-97 85.5t-150.5 31.5q-89 0 -158.5 -37.5t-122 -99.5t-88.5 -142.5t-58.5 -166t-32.5 -169.5t-10 -154q0 -80 15.5 -151.5t51.5 -126t96.5 -86.5t150.5 -32zM770 -34
q-145 0 -264 36t-204 110t-131.5 186t-46.5 264q0 128 28.5 246t81.5 220.5t130 186.5t174.5 144t213 93t247.5 33q144 0 263 -35.5t204 -108t132 -184t47 -262.5q0 -127 -28 -245.5t-81.5 -222t-130 -188.5t-174 -145.5t-213.5 -94t-248 -33.5z" />
    <glyph glyph-name="P" unicode="P" horiz-adv-x="1490" 
d="M25 93l164 66q15 6 28 16t18 32l231 1041q5 20 -3.5 29.5t-20.5 14.5l-160 68l21 91h699q109 0 203.5 -22t164 -68t109 -117.5t39.5 -169.5q0 -123 -44.5 -226t-122 -177t-183 -115t-226.5 -41q-42 0 -84 7t-80 17.5t-68.5 23.5t-49.5 25l-84 -381q-5 -22 3.5 -32.5
t22.5 -15.5l167 -66l-21 -93h-744zM855 702q71 0 126.5 29.5t93 77.5t57 110t19.5 127q0 58 -17.5 100.5t-49.5 70.5t-77.5 41t-100.5 13h-93l-123 -549q38 -11 80.5 -15.5t84.5 -4.5z" />
    <glyph glyph-name="Q" unicode="Q" horiz-adv-x="1685" 
d="M1060 -502q-52 0 -84.5 10.5t-53.5 28.5t-34.5 41.5t-27.5 49.5l-180 342q-126 10 -229 51.5t-175.5 115t-112 179.5t-39.5 246q0 128 28.5 246t81.5 220.5t130 186.5t174.5 144t213 93t247.5 33q144 0 263 -35.5t204 -108t132 -184t47 -262.5q0 -106 -20 -205t-58 -189
t-92 -168.5t-122 -142t-148.5 -110.5t-171.5 -74l159 -294q5 -9 11.5 -18.5t14 -18t16.5 -15.5t19 -10l184 -59l-21 -93h-356zM806 141q88 0 157.5 38t122 101t89 144t59 166.5t33 170t10.5 153.5q0 80 -15.5 151.5t-52 125.5t-97 85.5t-150.5 31.5q-89 0 -158.5 -37.5
t-122 -99.5t-88.5 -142.5t-58.5 -166t-32.5 -169.5t-10 -154q0 -80 15.5 -152t51.5 -126.5t96.5 -87t150.5 -32.5z" />
    <glyph glyph-name="R" unicode="R" horiz-adv-x="1659" 
d="M25 93l165 66q17 7 28.5 16.5t16.5 31.5l231 1041q5 20 -3.5 29.5t-21.5 14.5l-159 68l19 91h749q147 0 240 -28t146 -74t72.5 -104t19.5 -118q-1 -59 -16.5 -112t-42.5 -98.5t-65 -83.5t-83.5 -68.5t-97 -53t-106.5 -36.5l244 -458q11 -20 26.5 -37.5t35.5 -24.5
l185 -62l-21 -93h-358q-52 0 -81 7.5t-47 23t-30 40t-30 59.5l-254 482l-113 40l-98 -445q-5 -22 3.5 -32t23.5 -16l158 -66l-21 -93h-736zM884 779q67 0 117.5 25t84.5 67.5t51 99t17 120.5q0 52 -15 86.5t-43 55.5t-66.5 29.5t-84.5 8.5h-132l-107 -480q17 -3 40.5 -5.5
t48 -4t48 -2t41.5 -0.5z" />
    <glyph glyph-name="S" unicode="S" horiz-adv-x="1393" 
d="M555 -35q-65 0 -130.5 9t-130.5 24t-129.5 33t-128.5 36l94 421h153l9 -202q1 -12 8 -24t21 -21q36 -26 84.5 -44.5t97 -31.5t90 -19t62.5 -6q51 0 102.5 12t92 38.5t66 68.5t25.5 102q0 36 -14.5 65.5t-40.5 53.5t-61.5 43.5t-77.5 36.5q-57 23 -120 47t-124 50
q-51 22 -100 52t-88 70.5t-62.5 92.5t-23.5 119q0 85 29 154.5t78 124.5t115 95.5t139.5 67t151.5 39.5t152 13q63 0 123.5 -7.5t120.5 -19.5t120 -27t121 -30l-92 -410h-152l-11 192q-2 28 -39 51q-41 23 -84.5 38t-83 23.5t-71 11.5t-49.5 3q-42 0 -82.5 -14.5t-72 -41.5
t-50.5 -64t-19 -82q0 -37 15.5 -66.5t43.5 -54t66 -45t82 -38.5q51 -21 105.5 -43t108.5 -46q55 -24 110 -54t98.5 -70.5t70.5 -93t27 -120.5q0 -95 -33 -170t-89 -132t-130 -96.5t-157 -65t-169.5 -37t-166.5 -11.5z" />
    <glyph glyph-name="T" unicode="T" horiz-adv-x="1513" 
d="M291 93l173 66q18 7 29.5 16.5t16.5 31.5l236 1066h-282q-16 0 -29.5 -10.5t-21.5 -27.5l-98 -214h-152l96 430h1394l-96 -430h-153l-2 214q0 20 -10 29t-24 9h-281l-236 -1066q-5 -22 3.5 -32.5t22.5 -15.5l167 -66l-20 -93h-753z" />
    <glyph glyph-name="U" unicode="U" horiz-adv-x="1789" 
d="M797 -35q-137 0 -239 34t-170.5 89.5t-102.5 125t-34 140.5q0 20 2.5 43t6 45.5t8 43.5t8.5 37l160 725q5 20 -4.5 28.5t-23.5 15.5l-155 68l20 91h735l-18 -91l-165 -68q-14 -6 -27 -15t-18 -29l-146 -666q-2 -11 -5 -28t-6 -36.5t-5.5 -39.5t-2.5 -36q0 -46 11.5 -93.5
t43 -86t86 -63t140.5 -24.5q105 0 176.5 35.5t117.5 88t70.5 112t35.5 108.5l159 723q4 18 -4.5 27.5t-20.5 15.5l-155 75l20 91h593l-20 -91l-166 -75q-15 -7 -27.5 -15t-17.5 -28l-176 -800q-19 -85 -60 -153.5t-97 -121.5t-122 -91t-136 -63t-139 -36.5t-130 -11.5z" />
    <glyph glyph-name="V" unicode="V" horiz-adv-x="1587" 
d="M313 1250q-2 14 -11.5 28t-23.5 22l-116 60l21 91h654l-21 -91l-167 -77l137 -800l13 -136h22l558 929l-151 84l21 91h528l-21 -91l-118 -64q-17 -9 -33 -21.5t-26 -28.5l-630 -1026l-167 -240h-246z" />
    <glyph glyph-name="W" unicode="W" horiz-adv-x="2346" 
d="M319 1250q-3 33 -33 50l-110 60l20 91h641l-20 -91l-170 -77l67 -751l4 -139h23l389 761l165 267h231l95 -897l10 -137h21l484 889l-163 84l21 91h534l-21 -91l-111 -64q-16 -9 -33 -22t-25 -28l-560 -999l-161 -261h-273l-88 845l-3 135h-20l-365 -719l-164 -261h-272z
" />
    <glyph glyph-name="X" unicode="X" horiz-adv-x="1601" 
d="M-65 93l147 56q19 7 37.5 21.5t35.5 31.5l522 526l-266 524q-8 15 -20 29.5t-28 20.5l-142 58l22 91h645l-22 -91l-111 -77l140 -282l41 -117h11l367 394l-102 82l22 91h525l-22 -91l-138 -58q-13 -5 -32.5 -18.5t-36.5 -31.5l-504 -515l272 -535q10 -19 21.5 -33
t26.5 -20l141 -56l-22 -93h-646l22 93l113 76l-150 304l-41 104h-12l-382 -404l103 -80l-22 -93h-537z" />
    <glyph glyph-name="Y" unicode="Y" horiz-adv-x="1518" 
d="M301 93l171 66q18 7 30.5 16.5t17.5 31.5l76 339l-254 704q-5 14 -12.5 28.5t-22.5 21.5l-126 60l21 91h659l-21 -91l-154 -75l147 -403l34 -122h21l403 517l-147 83l21 91h530l-21 -91l-125 -64q-16 -8 -32 -21.5t-28 -28.5l-550 -688l-78 -351q-5 -22 2 -32.5t21 -15.5
l170 -66l-21 -93h-753z" />
    <glyph glyph-name="Z" unicode="Z" horiz-adv-x="1445" 
d="M-35 153l1056 1037l77 58l6 22h-565q-14 0 -28 -10.5t-22 -27.5l-107 -212h-153l96 431h1243l-33 -149l-1056 -1038l-78 -61l-5 -22h644q14 0 28 9t24 30l114 241h152l-103 -461h-1323z" />
    <glyph glyph-name="Agrave" unicode="&#xc0;" horiz-adv-x="1581" 
d="M-76 93l116 62q17 9 34.5 24t26.5 30l629 1022l170 242h242l221 -1269q3 -16 11 -31t22 -22l122 -58l-21 -93h-652l21 93l168 75l-54 306h-507l-176 -299l156 -82l-21 -93h-529zM950 645l-58 321l-12 145h-20l-281 -466h371zM1125 1573q-77 48 -131.5 81t-94.5 57
t-68.5 41.5t-53.5 34.5q-48 33 -68 60.5t-20 69.5q0 19 10.5 37.5t28.5 32.5t41.5 22.5t50.5 8.5q24 0 45 -3.5t41 -13t40.5 -27.5t41.5 -46q18 -24 35.5 -49t41 -59t55.5 -80.5t79 -113.5z" />
    <glyph glyph-name="Aacute" unicode="&#xc1;" horiz-adv-x="1581" 
d="M-76 93l116 62q17 9 34.5 24t26.5 30l629 1022l170 242h242l221 -1269q3 -16 11 -31t22 -22l122 -58l-21 -93h-652l21 93l168 75l-54 306h-507l-176 -299l156 -82l-21 -93h-529zM950 645l-58 321l-12 145h-20l-281 -466h371zM831 1626q55 75 109.5 152.5t114.5 149.5
q19 24 39 41t41.5 28t47 16t56.5 5q22 0 43 -7t37.5 -19.5t26.5 -31.5t10 -43t-8 -42.5t-20.5 -34t-29 -28.5t-34.5 -25q-87 -60 -179.5 -110t-181.5 -104z" />
    <glyph glyph-name="Acircumflex" unicode="&#xc2;" horiz-adv-x="1581" 
d="M-76 93l116 62q17 9 34.5 24t26.5 30l629 1022l170 242h242l221 -1269q3 -16 11 -31t22 -22l122 -58l-21 -93h-652l21 93l168 75l-54 306h-507l-176 -299l156 -82l-21 -93h-529zM950 645l-58 321l-12 145h-20l-281 -466h371zM623 1626l263 302q40 46 81 68t92 22
t86.5 -22t59.5 -68l160 -302l-83 -51l-248 231l-345 -233z" />
    <glyph glyph-name="uni1EA4" unicode="&#x1ea4;" horiz-adv-x="1581" 
d="M-76 93l116 62q17 9 34.5 24t26.5 30l629 1022l170 242h242l221 -1269q3 -16 11 -31t22 -22l122 -58l-21 -93h-652l21 93l168 75l-54 306h-507l-176 -299l156 -82l-21 -93h-529zM950 645l-58 321l-12 145h-20l-281 -466h371zM1359 1844l111 291q12 31 28.5 51.5t35 32
t38 16t38.5 4.5q27 0 49 -9t37.5 -24.5t24 -35.5t8.5 -42q0 -36 -15 -64.5t-52 -61.5l-226 -202zM624 1626l263 302q40 46 81 68t92 22t86.5 -22t59.5 -68l160 -302l-83 -51l-248 231l-345 -233z" />
    <glyph glyph-name="uni1EA6" unicode="&#x1ea6;" horiz-adv-x="1581" 
d="M-76 93l116 62q17 9 34.5 24t26.5 30l629 1022l170 242h242l221 -1269q3 -16 11 -31t22 -22l122 -58l-21 -93h-652l21 93l168 75l-54 306h-507l-176 -299l156 -82l-21 -93h-529zM950 645l-58 321l-12 145h-20l-281 -466h371zM608 1800l-226 202q-37 33 -52 61.5t-15 64.5
q0 22 8 42t22.5 35.5t34 24.5t42.5 9t45.5 -4.5t42 -16t36 -32t28.5 -51.5l111 -291zM623 1626l263 302q40 46 81 68t92 22t86.5 -22t59.5 -68l160 -302l-83 -51l-248 231l-345 -233z" />
    <glyph glyph-name="uni1EA8" unicode="&#x1ea8;" horiz-adv-x="1581" 
d="M-76 93l116 62q17 9 34.5 24t26.5 30l629 1022l170 242h242l221 -1269q3 -16 11 -31t22 -22l122 -58l-21 -93h-652l21 93l168 75l-54 306h-507l-176 -299l156 -82l-21 -93h-529zM950 645l-58 321l-12 145h-20l-281 -466h371zM1582 2181q37 0 69.5 -8t57 -23t38.5 -37
t14 -50q0 -32 -12 -54.5t-30 -41t-40 -34t-42.5 -33t-36.5 -39t-22 -51.5l-6 -25h-169l7 32q6 27 20.5 48t33 39t38.5 33.5t36.5 31t27.5 33t11 38.5q0 17 -9 27t-29 10q-35 0 -61 -16.5t-46 -30.5h-80l22 107q12 4 32.5 11.5t47.5 15t59.5 12.5t68.5 5zM624 1626l263 302
q40 46 81 68t92 22t86.5 -22t59.5 -68l160 -302l-83 -51l-248 231l-345 -233z" />
    <glyph glyph-name="uni1EAA" unicode="&#x1eaa;" horiz-adv-x="1581" 
d="M-76 93l116 62q17 9 34.5 24t26.5 30l629 1022l170 242h242l221 -1269q3 -16 11 -31t22 -22l122 -58l-21 -93h-652l21 93l168 75l-54 306h-507l-176 -299l156 -82l-21 -93h-529zM950 645l-58 321l-12 145h-20l-281 -466h371zM625 1626l261 287q40 46 81 68t92 22
t86.5 -22t59.5 -68l162 -287l-83 -51l-250 216l-343 -218zM715 2022q20 70 52 127.5t72 99t86.5 64t96.5 22.5q36 0 80 -18.5t89 -44.5q42 -25 68.5 -34.5t43.5 -9.5q45 0 72 34t46 88h118q-19 -69 -49.5 -126.5t-70 -99t-86.5 -64t-99 -22.5q-18 0 -35 3.5t-36 11.5
t-41.5 20.5t-49.5 29.5q-39 25 -68 35t-46 10q-41 0 -73.5 -36t-50.5 -90h-119z" />
    <glyph glyph-name="Atilde" unicode="&#xc3;" horiz-adv-x="1581" 
d="M-76 93l116 62q17 9 34.5 24t26.5 30l629 1022l170 242h242l221 -1269q3 -16 11 -31t22 -22l122 -58l-21 -93h-652l21 93l168 75l-54 306h-507l-176 -299l156 -82l-21 -93h-529zM950 645l-58 321l-12 145h-20l-281 -466h371zM605 1602q20 70 52 127.5t72.5 99t88 64
t98.5 22.5q33 0 76.5 -18.5t88.5 -44.5q42 -25 68.5 -34.5t43.5 -9.5q45 0 72 34t46 88h118q-19 -69 -49.5 -126.5t-70 -99t-86.5 -64t-99 -22.5q-18 0 -35 3.5t-36 11.5t-41.5 20.5t-49.5 29.5q-39 25 -68 35t-46 10q-41 0 -73.5 -36t-50.5 -90h-119z" />
    <glyph glyph-name="Adieresis" unicode="&#xc4;" horiz-adv-x="1581" 
d="M-76 93l116 62q17 9 34.5 24t26.5 30l629 1022l170 242h242l221 -1269q3 -16 11 -31t22 -22l122 -58l-21 -93h-652l21 93l168 75l-54 306h-507l-176 -299l156 -82l-21 -93h-529zM950 645l-58 321l-12 145h-20l-281 -466h371zM766 1612q-32 0 -60 9.5t-49.5 28t-34 45
t-12.5 60.5q0 37 12.5 64.5t34 46.5t49.5 28.5t60 9.5q36 0 66 -9t51.5 -26t33 -43.5t11.5 -60.5q0 -36 -12.5 -64.5t-34 -48t-51.5 -30t-64 -10.5zM1258 1612q-32 0 -60 9.5t-49.5 28t-34 45t-12.5 60.5q0 37 12.5 64.5t34 46.5t49.5 28.5t60 9.5q36 0 66 -9t51.5 -26
t33 -43.5t11.5 -60.5q0 -36 -12.5 -64.5t-34 -48t-51.5 -30t-64 -10.5z" />
    <glyph glyph-name="Amacron" unicode="&#x100;" horiz-adv-x="1581" 
d="M-76 93l116 62q17 9 34.5 24t26.5 30l629 1022l170 242h242l221 -1269q3 -16 11 -31t22 -22l122 -58l-21 -93h-652l21 93l168 75l-54 306h-507l-176 -299l156 -82l-21 -93h-529zM950 645l-58 321l-12 145h-20l-281 -466h371zM678 1868h743l-44 -192h-743z" />
    <glyph glyph-name="Abreve" unicode="&#x102;" horiz-adv-x="1581" 
d="M-76 93l116 62q17 9 34.5 24t26.5 30l629 1022l170 242h242l221 -1269q3 -16 11 -31t22 -22l122 -58l-21 -93h-652l21 93l168 75l-54 306h-507l-176 -299l156 -82l-21 -93h-529zM950 645l-58 321l-12 145h-20l-281 -466h371zM1028 1595q-79 0 -140 24.5t-101.5 74
t-59.5 125t-15 177.5l115 20q10 -51 25 -91.5t41 -69t66 -43.5t101 -15q58 0 102.5 14.5t80 42.5t64 68.5t55.5 93.5l109 -20q-29 -102 -71.5 -177.5t-99 -125t-125 -74t-147.5 -24.5z" />
    <glyph glyph-name="uni1EAE" unicode="&#x1eae;" horiz-adv-x="1581" 
d="M-76 93l116 62q17 9 34.5 24t26.5 30l629 1022l170 242h242l221 -1269q3 -16 11 -31t22 -22l122 -58l-21 -93h-652l21 93l168 75l-54 306h-507l-176 -299l156 -82l-21 -93h-529zM950 645l-58 321l-12 145h-20l-281 -466h371zM1004 1883l68 279q9 35 20 63.5t29 49
t44.5 31.5t64.5 11q16 0 37 -5t39 -17t30.5 -33t12.5 -53q0 -17 -5.5 -34.5t-17 -37.5t-30 -44.5t-45.5 -55.5l-162 -190zM1018 1555q-79 0 -140 24.5t-101.5 74t-59.5 125t-15 177.5l115 20q10 -51 25 -91.5t41 -69t66 -43.5t101 -15q58 0 102.5 14.5t80 42.5t64 68.5
t55.5 93.5l109 -20q-29 -102 -71.5 -177.5t-99 -125t-125 -74t-147.5 -24.5z" />
    <glyph glyph-name="uni1EB0" unicode="&#x1eb0;" horiz-adv-x="1581" 
d="M-76 93l116 62q17 9 34.5 24t26.5 30l629 1022l170 242h242l221 -1269q3 -16 11 -31t22 -22l122 -58l-21 -93h-652l21 93l168 75l-54 306h-507l-176 -299l156 -82l-21 -93h-529zM950 645l-58 321l-12 145h-20l-281 -466h371zM1078 1845l-162 190q-27 31 -45.5 55.5
t-30 44.5t-17 37.5t-5.5 34.5q0 32 12.5 53t30.5 33t38.5 17t37.5 5q38 0 64.5 -11t44.5 -31.5t29 -49t20 -63.5l68 -279zM1018 1553q-79 0 -140 24.5t-101.5 74t-59.5 125t-15 177.5l115 20q10 -51 25 -91.5t41 -69t66 -43.5t101 -15q58 0 102.5 14.5t80 42.5t64 68.5
t55.5 93.5l109 -20q-29 -102 -71.5 -177.5t-99 -125t-125 -74t-147.5 -24.5z" />
    <glyph glyph-name="uni1EB2" unicode="&#x1eb2;" horiz-adv-x="1581" 
d="M-76 93l116 62q17 9 34.5 24t26.5 30l629 1022l170 242h242l221 -1269q3 -16 11 -31t22 -22l122 -58l-21 -93h-652l21 93l168 75l-54 306h-507l-176 -299l156 -82l-21 -93h-529zM950 645l-58 321l-12 145h-20l-281 -466h371zM1146 2253q37 0 69.5 -8t57 -23t38.5 -37
t14 -50q0 -32 -12 -54.5t-30 -41t-40 -34t-42.5 -33t-36.5 -39t-22 -51.5l-6 -25h-169l7 32q6 27 20.5 48t33 39t38.5 33.5t36.5 31t27.5 33t11 38.5q0 17 -9 27t-29 10q-35 0 -61 -16.5t-46 -30.5h-80l22 107q12 4 32.5 11.5t47.5 15t59.5 12.5t68.5 5zM1018 1553
q-79 0 -140 24.5t-101.5 74t-59.5 125t-15 177.5l115 20q10 -51 25 -91.5t41 -69t66 -43.5t101 -15q58 0 102.5 14.5t80 42.5t64 68.5t55.5 93.5l109 -20q-29 -102 -71.5 -177.5t-99 -125t-125 -74t-147.5 -24.5z" />
    <glyph glyph-name="uni1EB4" unicode="&#x1eb4;" horiz-adv-x="1581" 
d="M-76 93l116 62q17 9 34.5 24t26.5 30l629 1022l170 242h242l221 -1269q3 -16 11 -31t22 -22l122 -58l-21 -93h-652l21 93l168 75l-54 306h-507l-176 -299l156 -82l-21 -93h-529zM950 645l-58 321l-12 145h-20l-281 -466h371zM1018 1553q-79 0 -140 24.5t-101.5 74
t-59.5 125t-15 177.5l115 20q10 -51 25 -91.5t41 -69t66 -43.5t101 -15q58 0 102.5 14.5t80 42.5t64 68.5t55.5 93.5l109 -20q-29 -102 -71.5 -177.5t-99 -125t-125 -74t-147.5 -24.5zM698 2049q20 70 52 127.5t72.5 99t88 64t98.5 22.5q33 0 76.5 -18.5t88.5 -44.5
q42 -25 68.5 -34.5t43.5 -9.5q45 0 72 34t46 88h118q-19 -69 -49.5 -126.5t-70 -99t-86.5 -64t-99 -22.5q-18 0 -35 3.5t-36 11.5t-41.5 20.5t-49.5 29.5q-39 25 -68 35t-46 10q-41 0 -73.5 -36t-50.5 -90h-119z" />
    <glyph glyph-name="Aring" unicode="&#xc5;" horiz-adv-x="1581" 
d="M-76 93l116 62q17 9 34.5 24t26.5 30l629 1022l170 242h242l221 -1269q3 -16 11 -31t22 -22l122 -58l-21 -93h-652l21 93l168 75l-54 306h-507l-176 -299l156 -82l-21 -93h-529zM950 645l-58 321l-12 145h-20l-281 -466h371zM1047 1669q37 0 63 17t42 44t23 60t7 65
q0 23 -5.5 45.5t-17.5 40t-30.5 28.5t-44.5 11q-38 0 -65 -17t-43.5 -43.5t-24 -59.5t-7.5 -66q0 -24 6 -47t18.5 -40t32 -27.5t46.5 -10.5zM1014 1573q-53 0 -99 12t-80.5 37.5t-54.5 65t-20 94.5q0 72 29 127t78.5 92t114 56t136.5 19q52 0 97 -12t78 -37t52 -64.5
t19 -93.5q0 -71 -28 -126.5t-75.5 -93t-111 -57t-135.5 -19.5z" />
    <glyph glyph-name="Aringacute" unicode="&#x1fa;" horiz-adv-x="1581" 
d="M-76 93l116 62q17 9 34.5 24t26.5 30l629 1022l170 242h242l221 -1269q3 -16 11 -31t22 -22l122 -58l-21 -93h-652l21 93l168 75l-54 306h-507l-176 -299l156 -82l-21 -93h-529zM950 645l-58 321l-12 145h-20l-281 -466h371zM1047 1655q37 0 63 17t42 44t23 60t7 65
q0 23 -5.5 45.5t-17.5 40t-30.5 28.5t-44.5 11q-38 0 -65 -17t-43.5 -43.5t-24 -59.5t-7.5 -66q0 -24 6 -47t18.5 -40t32 -27.5t46.5 -10.5zM1014 1559q-53 0 -99 12t-80.5 37.5t-54.5 65t-20 94.5q0 72 29 127t78.5 92t114 56t136.5 19q52 0 97 -12t78 -37t52 -64.5
t19 -93.5q0 -71 -28 -126.5t-75.5 -93t-111 -57t-135.5 -19.5zM857 2186q47 67 79 113.5t55.5 80.5t41 59t35.5 49q21 28 43 46t44 27.5t44.5 13t46.5 3.5q27 0 49 -8.5t38 -22.5t25 -32.5t9 -37.5q0 -21 -5 -37.5t-15.5 -31.5t-27 -29.5t-40.5 -31.5q-25 -17 -54 -34
t-68.5 -40.5t-94 -55.5t-131.5 -80z" />
    <glyph glyph-name="uni1EA2" unicode="&#x1ea2;" horiz-adv-x="1581" 
d="M-76 93l116 62q17 9 34.5 24t26.5 30l629 1022l170 242h242l221 -1269q3 -16 11 -31t22 -22l122 -58l-21 -93h-652l21 93l168 75l-54 306h-507l-176 -299l156 -82l-21 -93h-529zM950 645l-58 321l-12 145h-20l-281 -466h371zM1161 2053q42 0 80 -8.5t66 -25.5t44.5 -42.5
t16.5 -59.5q0 -39 -14.5 -67.5t-37 -50.5t-49.5 -41.5t-52 -41t-44.5 -48t-27.5 -63.5l-7 -31h-174l8 39q9 40 27.5 68t41.5 49t47.5 38t44.5 35t33 40.5t13 55.5q0 10 -3.5 18.5t-10 14t-16 8.5t-22.5 3q-22 0 -43 -6.5t-40 -16t-35.5 -20.5t-28.5 -21h-83l25 120
q14 6 38 15t55.5 17.5t69 15t78.5 6.5z" />
    <glyph glyph-name="uni1EA0" unicode="&#x1ea0;" horiz-adv-x="1581" 
d="M-76 93l116 62q17 9 34.5 24t26.5 30l629 1022l170 242h242l221 -1269q3 -16 11 -31t22 -22l122 -58l-21 -93h-652l21 93l168 75l-54 306h-507l-176 -299l156 -82l-21 -93h-529zM950 645l-58 321l-12 145h-20l-281 -466h371zM662 -498q-37 0 -74.5 12t-68 34.5
t-49.5 53.5t-19 69q0 40 17.5 71t46.5 51.5t67 31t80 10.5q49 0 89 -9.5t69 -28t45 -47t16 -66.5q0 -41 -18.5 -74.5t-49 -57.5t-70 -37t-81.5 -13z" />
    <glyph glyph-name="uni1EAC" unicode="&#x1eac;" horiz-adv-x="1581" 
d="M-76 93l116 62q17 9 34.5 24t26.5 30l629 1022l170 242h242l221 -1269q3 -16 11 -31t22 -22l122 -58l-21 -93h-652l21 93l168 75l-54 306h-507l-176 -299l156 -82l-21 -93h-529zM950 645l-58 321l-12 145h-20l-281 -466h371zM657 1626l263 302q40 46 81 68t92 22
t86.5 -22t59.5 -68l160 -302l-83 -51l-248 231l-345 -233zM662 -498q-37 0 -74.5 12t-68 34.5t-49.5 53.5t-19 69q0 40 17.5 71t46.5 51.5t67 31t80 10.5q49 0 89 -9.5t69 -28t45 -47t16 -66.5q0 -41 -18.5 -74.5t-49 -57.5t-70 -37t-81.5 -13z" />
    <glyph glyph-name="uni1EB6" unicode="&#x1eb6;" horiz-adv-x="1581" 
d="M-76 93l116 62q17 9 34.5 24t26.5 30l629 1022l170 242h242l221 -1269q3 -16 11 -31t22 -22l122 -58l-21 -93h-652l21 93l168 75l-54 306h-507l-176 -299l156 -82l-21 -93h-529zM950 645l-58 321l-12 145h-20l-281 -466h371zM1028 1595q-79 0 -140 24.5t-101.5 74
t-59.5 125t-15 177.5l115 20q10 -51 25 -91.5t41 -69t66 -43.5t101 -15q58 0 102.5 14.5t80 42.5t64 68.5t55.5 93.5l109 -20q-29 -102 -71.5 -177.5t-99 -125t-125 -74t-147.5 -24.5zM662 -498q-37 0 -74.5 12t-68 34.5t-49.5 53.5t-19 69q0 40 17.5 71t46.5 51.5t67 31
t80 10.5q49 0 89 -9.5t69 -28t45 -47t16 -66.5q0 -41 -18.5 -74.5t-49 -57.5t-70 -37t-81.5 -13z" />
    <glyph glyph-name="Aogonek" unicode="&#x104;" horiz-adv-x="1581" 
d="M1059 -462q-42 0 -83.5 8.5t-74.5 28.5t-54 53t-21 82t20.5 91.5t53.5 78t74.5 65.5t83.5 55h-213l21 93l168 75l-54 306h-507l-176 -299l156 -82l-21 -93h-529l21 93l116 62q17 9 34.5 24t26.5 30l629 1022l170 242h242l221 -1269q3 -16 11 -31t22 -22l122 -58l-21 -93
h-272q-31 -21 -62 -46.5t-56 -54.5t-40.5 -61.5t-15.5 -68.5q0 -37 22 -58.5t59 -21.5q26 0 56 11t54 22h48l-2 -132q-24 -12 -53.5 -21.5t-59.5 -16.5t-60 -10.5t-56 -3.5zM950 645l-58 321l-12 145h-20l-281 -466h371z" />
    <glyph glyph-name="AE" unicode="&#xc6;" horiz-adv-x="2360" 
d="M-109 93l128 62q18 8 37.5 23.5t31.5 30.5l780 969q6 7 14 17.5t15 22.5t12 23.5t5 21.5q0 6 -2 10t-5.5 7.5t-8 6t-10.5 5.5l-151 68l20 91h1613l-92 -412h-153l-8 192q-1 19 -9.5 28.5t-24.5 9.5h-474l-105 -472h258q21 0 31 9t21 29l85 156h126l-123 -554h-126
l-16 155q-2 20 -8 29.5t-27 9.5h-257l-99 -449h572q14 0 28.5 11t22.5 28l99 214h152l-97 -435h-1344l21 93l166 66q17 7 28 16.5t16 31.5l95 424h-482l-353 -456l150 -82l-21 -93h-552zM1164 797l108 486h-103l-387 -486h382z" />
    <glyph glyph-name="AEacute" unicode="&#x1fc;" horiz-adv-x="2360" 
d="M-109 93l128 62q18 8 37.5 23.5t31.5 30.5l780 969q6 7 14 17.5t15 22.5t12 23.5t5 21.5q0 6 -2 10t-5.5 7.5t-8 6t-10.5 5.5l-151 68l20 91h1613l-92 -412h-153l-8 192q-1 19 -9.5 28.5t-24.5 9.5h-474l-105 -472h258q21 0 31 9t21 29l85 156h126l-123 -554h-126
l-16 155q-2 20 -8 29.5t-27 9.5h-257l-99 -449h572q14 0 28.5 11t22.5 28l99 214h152l-97 -435h-1344l21 93l166 66q17 7 28 16.5t16 31.5l95 424h-482l-353 -456l150 -82l-21 -93h-552zM1164 797l108 486h-103l-387 -486h382zM1252 1626q55 75 109.5 152.5t114.5 149.5
q19 24 39 41t41.5 28t47 16t56.5 5q22 0 43 -7t37.5 -19.5t26.5 -31.5t10 -43t-8 -42.5t-20.5 -34t-29 -28.5t-34.5 -25q-87 -60 -179.5 -110t-181.5 -104z" />
    <glyph glyph-name="Cacute" unicode="&#x106;" horiz-adv-x="1475" 
d="M769 -31q-150 0 -269.5 41.5t-203 120t-128 192.5t-44.5 258q0 127 28.5 243t82 216t130.5 182t174 140t211.5 89.5t244.5 31.5q76 0 147.5 -9.5t136.5 -23.5t122.5 -30t105.5 -29l-92 -403l-153 -1l-8 207q-1 13 -12 26t-21 18q-21 12 -54 24.5t-73.5 23t-86.5 17.5
t-94 7q-91 0 -168 -55.5t-133.5 -150t-88 -219.5t-31.5 -263q0 -111 24 -194.5t73.5 -139.5t124 -84t175.5 -28q69 0 131 20.5t114.5 49.5t95.5 61t74 55h75l-40 -175q-51 -36 -111.5 -75t-131.5 -70.5t-152.5 -52t-174.5 -20.5zM773 1626q55 75 109.5 152.5t114.5 149.5
q19 24 39 41t41.5 28t47 16t56.5 5q22 0 43 -7t37.5 -19.5t26.5 -31.5t10 -43t-8 -42.5t-20.5 -34t-29 -28.5t-34.5 -25q-87 -60 -179.5 -110t-181.5 -104z" />
    <glyph glyph-name="Ccircumflex" unicode="&#x108;" horiz-adv-x="1475" 
d="M769 -31q-150 0 -269.5 41.5t-203 120t-128 192.5t-44.5 258q0 127 28.5 243t82 216t130.5 182t174 140t211.5 89.5t244.5 31.5q76 0 147.5 -9.5t136.5 -23.5t122.5 -30t105.5 -29l-92 -403l-153 -1l-8 207q-1 13 -12 26t-21 18q-21 12 -54 24.5t-73.5 23t-86.5 17.5
t-94 7q-91 0 -168 -55.5t-133.5 -150t-88 -219.5t-31.5 -263q0 -111 24 -194.5t73.5 -139.5t124 -84t175.5 -28q69 0 131 20.5t114.5 49.5t95.5 61t74 55h75l-40 -175q-51 -36 -111.5 -75t-131.5 -70.5t-152.5 -52t-174.5 -20.5zM664 1626l263 302q40 46 81 68t92 22
t86.5 -22t59.5 -68l160 -302l-83 -51l-248 231l-345 -233z" />
    <glyph glyph-name="Ccaron" unicode="&#x10c;" horiz-adv-x="1475" 
d="M769 -31q-150 0 -269.5 41.5t-203 120t-128 192.5t-44.5 258q0 127 28.5 243t82 216t130.5 182t174 140t211.5 89.5t244.5 31.5q76 0 147.5 -9.5t136.5 -23.5t122.5 -30t105.5 -29l-92 -403l-153 -1l-8 207q-1 13 -12 26t-21 18q-21 12 -54 24.5t-73.5 23t-86.5 17.5
t-94 7q-91 0 -168 -55.5t-133.5 -150t-88 -219.5t-31.5 -263q0 -111 24 -194.5t73.5 -139.5t124 -84t175.5 -28q69 0 131 20.5t114.5 49.5t95.5 61t74 55h75l-40 -175q-51 -36 -111.5 -75t-131.5 -70.5t-152.5 -52t-174.5 -20.5zM1035 1573q-51 0 -86.5 22t-59.5 68
l-159 302l83 51l246 -231l347 233l66 -53l-264 -302q-40 -46 -81 -68t-92 -22z" />
    <glyph glyph-name="Cdotaccent" unicode="&#x10a;" horiz-adv-x="1475" 
d="M769 -31q-150 0 -269.5 41.5t-203 120t-128 192.5t-44.5 258q0 127 28.5 243t82 216t130.5 182t174 140t211.5 89.5t244.5 31.5q76 0 147.5 -9.5t136.5 -23.5t122.5 -30t105.5 -29l-92 -403l-153 -1l-8 207q-1 13 -12 26t-21 18q-21 12 -54 24.5t-73.5 23t-86.5 17.5
t-94 7q-91 0 -168 -55.5t-133.5 -150t-88 -219.5t-31.5 -263q0 -111 24 -194.5t73.5 -139.5t124 -84t175.5 -28q69 0 131 20.5t114.5 49.5t95.5 61t74 55h75l-40 -175q-51 -36 -111.5 -75t-131.5 -70.5t-152.5 -52t-174.5 -20.5zM1031 1590q-37 0 -74.5 12t-68 34.5
t-49.5 53.5t-19 69q0 40 17.5 71t46.5 51.5t67 31t80 10.5q49 0 89 -9.5t69 -28t45 -47t16 -66.5q0 -41 -18.5 -74.5t-49 -57.5t-70 -37t-81.5 -13z" />
    <glyph glyph-name="Ccedilla" unicode="&#xc7;" horiz-adv-x="1475" 
d="M646 -502q-63 0 -117 13.5t-111 41.5l25 119h42q19 -13 40 -24t43 -19t45 -12.5t47 -4.5t47.5 4.5t42 15.5t30 30t11.5 48q0 27 -17.5 42t-42 21.5t-51 8t-45.5 1.5l45 190q-130 12 -233 58.5t-175 124.5t-110 185t-38 240q0 127 28.5 243t82 216t130.5 182t174 140
t211.5 89.5t244.5 31.5q76 0 147.5 -9.5t136.5 -23.5t122.5 -30t105.5 -29l-92 -403l-153 -1l-8 207q-1 13 -12 26t-21 18q-21 12 -54 24.5t-73.5 23t-86.5 17.5t-94 7q-91 0 -168 -55.5t-133.5 -150t-88 -219.5t-31.5 -263q0 -111 24 -194.5t73.5 -139.5t124 -84t175.5 -28
q69 0 131 20.5t114.5 49.5t95.5 61t74 55h75l-40 -175q-50 -35 -108 -72.5t-125.5 -69t-145 -52.5t-166.5 -24l-18 -65q36 -1 74 -10.5t69.5 -28.5t51.5 -49t20 -72q0 -71 -32 -118t-82.5 -75.5t-111.5 -40.5t-119 -12z" />
    <glyph glyph-name="Dcaron" unicode="&#x10e;" horiz-adv-x="1718" 
d="M25 93l164 66q16 6 28.5 16t17.5 32l231 1041q5 20 -3.5 29.5t-21.5 14.5l-160 68l21 91h732q68 0 142.5 -11.5t146 -39t136.5 -71.5t113.5 -109.5t77.5 -153.5t29 -203q0 -138 -28.5 -256t-82.5 -214t-131.5 -169.5t-174.5 -123t-212.5 -75t-245.5 -25.5h-800zM828 180
q90 0 161 27t124.5 74t90.5 111t60.5 136.5t34 151t10.5 155.5q0 88 -19 167t-61 139t-110 95t-165 35h-142l-242 -1091h258zM943 1573q-51 0 -86.5 22t-59.5 68l-159 302l83 51l246 -231l347 233l66 -53l-264 -302q-40 -46 -81 -68t-92 -22z" />
    <glyph glyph-name="Dcroat" unicode="&#x110;" horiz-adv-x="1718" 
d="M25 93l164 66q16 6 28.5 16t17.5 32l103 463h-189l38 168h188l91 410q5 20 -3.5 29.5t-21.5 14.5l-160 68l21 91h732q68 0 142.5 -11.5t146 -39t136.5 -71.5t113.5 -109.5t77.5 -153.5t29 -203q0 -138 -28.5 -256t-82.5 -214t-131.5 -169.5t-174.5 -123t-212.5 -75
t-245.5 -25.5h-800zM828 180q90 0 161 27t124.5 74t90.5 111t60.5 136.5t34 151t10.5 155.5q0 88 -19 167t-61 139t-110 95t-165 35h-142l-96 -433h308l-38 -168h-307l-109 -490h258z" />
    <glyph glyph-name="Egrave" unicode="&#xc8;" horiz-adv-x="1562" 
d="M25 93l166 66q17 7 28 16.5t16 31.5l231 1041q5 20 -4.5 29.5t-22.5 14.5l-158 68l21 91h1270l-92 -412h-153l-8 192q-1 19 -9.5 28.5t-24.5 9.5h-474l-95 -429h258q21 0 31 9t21 29l85 156h126l-125 -560h-126l-16 155q-2 20 -8 29.5t-27 9.5h-257l-107 -486h572
q14 0 28.5 11t22.5 28l99 214h152l-97 -435h-1344zM1117 1573q-77 48 -131.5 81t-94.5 57t-68.5 41.5t-53.5 34.5q-48 33 -68 60.5t-20 69.5q0 19 10.5 37.5t28.5 32.5t41.5 22.5t50.5 8.5q24 0 45 -3.5t41 -13t40.5 -27.5t41.5 -46q18 -24 35.5 -49t41 -59t55.5 -80.5
t79 -113.5z" />
    <glyph glyph-name="Eacute" unicode="&#xc9;" horiz-adv-x="1562" 
d="M25 93l166 66q17 7 28 16.5t16 31.5l231 1041q5 20 -4.5 29.5t-22.5 14.5l-158 68l21 91h1270l-92 -412h-153l-8 192q-1 19 -9.5 28.5t-24.5 9.5h-474l-95 -429h258q21 0 31 9t21 29l85 156h126l-125 -560h-126l-16 155q-2 20 -8 29.5t-27 9.5h-257l-107 -486h572
q14 0 28.5 11t22.5 28l99 214h152l-97 -435h-1344zM816 1626q55 75 109.5 152.5t114.5 149.5q19 24 39 41t41.5 28t47 16t56.5 5q22 0 43 -7t37.5 -19.5t26.5 -31.5t10 -43t-8 -42.5t-20.5 -34t-29 -28.5t-34.5 -25q-87 -60 -179.5 -110t-181.5 -104z" />
    <glyph glyph-name="Ecircumflex" unicode="&#xca;" horiz-adv-x="1562" 
d="M25 93l166 66q17 7 28 16.5t16 31.5l231 1041q5 20 -4.5 29.5t-22.5 14.5l-158 68l21 91h1270l-92 -412h-153l-8 192q-1 19 -9.5 28.5t-24.5 9.5h-474l-95 -429h258q21 0 31 9t21 29l85 156h126l-125 -560h-126l-16 155q-2 20 -8 29.5t-27 9.5h-257l-107 -486h572
q14 0 28.5 11t22.5 28l99 214h152l-97 -435h-1344zM626 1626l263 302q40 46 81 68t92 22t86.5 -22t59.5 -68l160 -302l-83 -51l-248 231l-345 -233z" />
    <glyph glyph-name="uni1EBE" unicode="&#x1ebe;" horiz-adv-x="1562" 
d="M25 93l166 66q17 7 28 16.5t16 31.5l231 1041q5 20 -4.5 29.5t-22.5 14.5l-158 68l21 91h1270l-92 -412h-153l-8 192q-1 19 -9.5 28.5t-24.5 9.5h-474l-95 -429h258q21 0 31 9t21 29l85 156h126l-125 -560h-126l-16 155q-2 20 -8 29.5t-27 9.5h-257l-107 -486h572
q14 0 28.5 11t22.5 28l99 214h152l-97 -435h-1344zM1360 1844l111 291q12 31 28.5 51.5t35 32t38 16t38.5 4.5q27 0 49 -9t37.5 -24.5t24 -35.5t8.5 -42q0 -36 -15 -64.5t-52 -61.5l-226 -202zM625 1626l263 302q40 46 81 68t92 22t86.5 -22t59.5 -68l160 -302l-83 -51
l-248 231l-345 -233z" />
    <glyph glyph-name="uni1EC0" unicode="&#x1ec0;" horiz-adv-x="1562" 
d="M25 93l166 66q17 7 28 16.5t16 31.5l231 1041q5 20 -4.5 29.5t-22.5 14.5l-158 68l21 91h1270l-92 -412h-153l-8 192q-1 19 -9.5 28.5t-24.5 9.5h-474l-95 -429h258q21 0 31 9t21 29l85 156h126l-125 -560h-126l-16 155q-2 20 -8 29.5t-27 9.5h-257l-107 -486h572
q14 0 28.5 11t22.5 28l99 214h152l-97 -435h-1344zM610 1800l-226 202q-37 33 -52 61.5t-15 64.5q0 22 8 42t22.5 35.5t34 24.5t42.5 9t45.5 -4.5t42 -16t36 -32t28.5 -51.5l111 -291zM625 1626l263 302q40 46 81 68t92 22t86.5 -22t59.5 -68l160 -302l-83 -51l-248 231
l-345 -233z" />
    <glyph glyph-name="uni1EC2" unicode="&#x1ec2;" horiz-adv-x="1562" 
d="M25 93l166 66q17 7 28 16.5t16 31.5l231 1041q5 20 -4.5 29.5t-22.5 14.5l-158 68l21 91h1270l-92 -412h-153l-8 192q-1 19 -9.5 28.5t-24.5 9.5h-474l-95 -429h258q21 0 31 9t21 29l85 156h126l-125 -560h-126l-16 155q-2 20 -8 29.5t-27 9.5h-257l-107 -486h572
q14 0 28.5 11t22.5 28l99 214h152l-97 -435h-1344zM1583 2181q37 0 69.5 -8t57 -23t38.5 -37t14 -50q0 -32 -12 -54.5t-30 -41t-40 -34t-42.5 -33t-36.5 -39t-22 -51.5l-6 -25h-169l7 32q6 27 20.5 48t33 39t38.5 33.5t36.5 31t27.5 33t11 38.5q0 17 -9 27t-29 10
q-35 0 -61 -16.5t-46 -30.5h-80l22 107q12 4 32.5 11.5t47.5 15t59.5 12.5t68.5 5zM625 1626l263 302q40 46 81 68t92 22t86.5 -22t59.5 -68l160 -302l-83 -51l-248 231l-345 -233z" />
    <glyph glyph-name="uni1EC4" unicode="&#x1ec4;" horiz-adv-x="1562" 
d="M25 93l166 66q17 7 28 16.5t16 31.5l231 1041q5 20 -4.5 29.5t-22.5 14.5l-158 68l21 91h1270l-92 -412h-153l-8 192q-1 19 -9.5 28.5t-24.5 9.5h-474l-95 -429h258q21 0 31 9t21 29l85 156h126l-125 -560h-126l-16 155q-2 20 -8 29.5t-27 9.5h-257l-107 -486h572
q14 0 28.5 11t22.5 28l99 214h152l-97 -435h-1344zM627 1626l261 287q40 46 81 68t92 22t86.5 -22t59.5 -68l162 -287l-83 -51l-250 216l-343 -218zM717 2022q20 70 52 127.5t72 99t86.5 64t96.5 22.5q36 0 80 -18.5t89 -44.5q42 -25 68.5 -34.5t43.5 -9.5q45 0 72 34t46 88
h118q-19 -69 -49.5 -126.5t-70 -99t-86.5 -64t-99 -22.5q-18 0 -35 3.5t-36 11.5t-41.5 20.5t-49.5 29.5q-39 25 -68 35t-46 10q-41 0 -73.5 -36t-50.5 -90h-119z" />
    <glyph glyph-name="Ecaron" unicode="&#x11a;" horiz-adv-x="1562" 
d="M25 93l166 66q17 7 28 16.5t16 31.5l231 1041q5 20 -4.5 29.5t-22.5 14.5l-158 68l21 91h1270l-92 -412h-153l-8 192q-1 19 -9.5 28.5t-24.5 9.5h-474l-95 -429h258q21 0 31 9t21 29l85 156h126l-125 -560h-126l-16 155q-2 20 -8 29.5t-27 9.5h-257l-107 -486h572
q14 0 28.5 11t22.5 28l99 214h152l-97 -435h-1344zM957 1573q-51 0 -86.5 22t-59.5 68l-159 302l83 51l246 -231l347 233l66 -53l-264 -302q-40 -46 -81 -68t-92 -22z" />
    <glyph glyph-name="uni1EBC" unicode="&#x1ebc;" horiz-adv-x="1562" 
d="M25 93l166 66q17 7 28 16.5t16 31.5l231 1041q5 20 -4.5 29.5t-22.5 14.5l-158 68l21 91h1270l-92 -412h-153l-8 192q-1 19 -9.5 28.5t-24.5 9.5h-474l-95 -429h258q21 0 31 9t21 29l85 156h126l-125 -560h-126l-16 155q-2 20 -8 29.5t-27 9.5h-257l-107 -486h572
q14 0 28.5 11t22.5 28l99 214h152l-97 -435h-1344zM545 1602q20 70 52 127.5t72.5 99t88 64t98.5 22.5q33 0 76.5 -18.5t88.5 -44.5q42 -25 68.5 -34.5t43.5 -9.5q45 0 72 34t46 88h118q-19 -69 -49.5 -126.5t-70 -99t-86.5 -64t-99 -22.5q-18 0 -35 3.5t-36 11.5
t-41.5 20.5t-49.5 29.5q-39 25 -68 35t-46 10q-41 0 -73.5 -36t-50.5 -90h-119z" />
    <glyph glyph-name="Edieresis" unicode="&#xcb;" horiz-adv-x="1562" 
d="M25 93l166 66q17 7 28 16.5t16 31.5l231 1041q5 20 -4.5 29.5t-22.5 14.5l-158 68l21 91h1270l-92 -412h-153l-8 192q-1 19 -9.5 28.5t-24.5 9.5h-474l-95 -429h258q21 0 31 9t21 29l85 156h126l-125 -560h-126l-16 155q-2 20 -8 29.5t-27 9.5h-257l-107 -486h572
q14 0 28.5 11t22.5 28l99 214h152l-97 -435h-1344zM753 1612q-32 0 -60 9.5t-49.5 28t-34 45t-12.5 60.5q0 37 12.5 64.5t34 46.5t49.5 28.5t60 9.5q36 0 66 -9t51.5 -26t33 -43.5t11.5 -60.5q0 -36 -12.5 -64.5t-34 -48t-51.5 -30t-64 -10.5zM1245 1612q-32 0 -60 9.5
t-49.5 28t-34 45t-12.5 60.5q0 37 12.5 64.5t34 46.5t49.5 28.5t60 9.5q36 0 66 -9t51.5 -26t33 -43.5t11.5 -60.5q0 -36 -12.5 -64.5t-34 -48t-51.5 -30t-64 -10.5z" />
    <glyph glyph-name="Emacron" unicode="&#x112;" horiz-adv-x="1562" 
d="M25 93l166 66q17 7 28 16.5t16 31.5l231 1041q5 20 -4.5 29.5t-22.5 14.5l-158 68l21 91h1270l-92 -412h-153l-8 192q-1 19 -9.5 28.5t-24.5 9.5h-474l-95 -429h258q21 0 31 9t21 29l85 156h126l-125 -560h-126l-16 155q-2 20 -8 29.5t-27 9.5h-257l-107 -486h572
q14 0 28.5 11t22.5 28l99 214h152l-97 -435h-1344zM607 1868h743l-44 -192h-743z" />
    <glyph glyph-name="Ebreve" unicode="&#x114;" horiz-adv-x="1562" 
d="M25 93l166 66q17 7 28 16.5t16 31.5l231 1041q5 20 -4.5 29.5t-22.5 14.5l-158 68l21 91h1270l-92 -412h-153l-8 192q-1 19 -9.5 28.5t-24.5 9.5h-474l-95 -429h258q21 0 31 9t21 29l85 156h126l-125 -560h-126l-16 155q-2 20 -8 29.5t-27 9.5h-257l-107 -486h572
q14 0 28.5 11t22.5 28l99 214h152l-97 -435h-1344zM957 1595q-79 0 -140 24.5t-101.5 74t-59.5 125t-15 177.5l115 20q10 -51 25 -91.5t41 -69t66 -43.5t101 -15q58 0 102.5 14.5t80 42.5t64 68.5t55.5 93.5l109 -20q-29 -102 -71.5 -177.5t-99 -125t-125 -74t-147.5 -24.5z
" />
    <glyph glyph-name="Edotaccent" unicode="&#x116;" horiz-adv-x="1562" 
d="M25 93l166 66q17 7 28 16.5t16 31.5l231 1041q5 20 -4.5 29.5t-22.5 14.5l-158 68l21 91h1270l-92 -412h-153l-8 192q-1 19 -9.5 28.5t-24.5 9.5h-474l-95 -429h258q21 0 31 9t21 29l85 156h126l-125 -560h-126l-16 155q-2 20 -8 29.5t-27 9.5h-257l-107 -486h572
q14 0 28.5 11t22.5 28l99 214h152l-97 -435h-1344zM953 1590q-37 0 -74.5 12t-68 34.5t-49.5 53.5t-19 69q0 40 17.5 71t46.5 51.5t67 31t80 10.5q49 0 89 -9.5t69 -28t45 -47t16 -66.5q0 -41 -18.5 -74.5t-49 -57.5t-70 -37t-81.5 -13z" />
    <glyph glyph-name="uni1EBA" unicode="&#x1eba;" horiz-adv-x="1562" 
d="M25 93l166 66q17 7 28 16.5t16 31.5l231 1041q5 20 -4.5 29.5t-22.5 14.5l-158 68l21 91h1270l-92 -412h-153l-8 192q-1 19 -9.5 28.5t-24.5 9.5h-474l-95 -429h258q21 0 31 9t21 29l85 156h126l-125 -560h-126l-16 155q-2 20 -8 29.5t-27 9.5h-257l-107 -486h572
q14 0 28.5 11t22.5 28l99 214h152l-97 -435h-1344zM1090 2053q42 0 80 -8.5t66 -25.5t44.5 -42.5t16.5 -59.5q0 -39 -14.5 -67.5t-37 -50.5t-49.5 -41.5t-52 -41t-44.5 -48t-27.5 -63.5l-7 -31h-174l8 39q9 40 27.5 68t41.5 49t47.5 38t44.5 35t33 40.5t13 55.5
q0 10 -3.5 18.5t-10 14t-16 8.5t-22.5 3q-22 0 -43 -6.5t-40 -16t-35.5 -20.5t-28.5 -21h-83l25 120q14 6 38 15t55.5 17.5t69 15t78.5 6.5z" />
    <glyph glyph-name="uni1EB8" unicode="&#x1eb8;" horiz-adv-x="1562" 
d="M25 93l166 66q17 7 28 16.5t16 31.5l231 1041q5 20 -4.5 29.5t-22.5 14.5l-158 68l21 91h1270l-92 -412h-153l-8 192q-1 19 -9.5 28.5t-24.5 9.5h-474l-95 -429h258q21 0 31 9t21 29l85 156h126l-125 -560h-126l-16 155q-2 20 -8 29.5t-27 9.5h-257l-107 -486h572
q14 0 28.5 11t22.5 28l99 214h152l-97 -435h-1344zM730 -498q-37 0 -74.5 12t-68 34.5t-49.5 53.5t-19 69q0 40 17.5 71t46.5 51.5t67 31t80 10.5q49 0 89 -9.5t69 -28t45 -47t16 -66.5q0 -41 -18.5 -74.5t-49 -57.5t-70 -37t-81.5 -13z" />
    <glyph glyph-name="uni1EC6" unicode="&#x1ec6;" horiz-adv-x="1562" 
d="M25 93l166 66q17 7 28 16.5t16 31.5l231 1041q5 20 -4.5 29.5t-22.5 14.5l-158 68l21 91h1270l-92 -412h-153l-8 192q-1 19 -9.5 28.5t-24.5 9.5h-474l-95 -429h258q21 0 31 9t21 29l85 156h126l-125 -560h-126l-16 155q-2 20 -8 29.5t-27 9.5h-257l-107 -486h572
q14 0 28.5 11t22.5 28l99 214h152l-97 -435h-1344zM586 1626l263 302q40 46 81 68t92 22t86.5 -22t59.5 -68l160 -302l-83 -51l-248 231l-345 -233zM730 -498q-37 0 -74.5 12t-68 34.5t-49.5 53.5t-19 69q0 40 17.5 71t46.5 51.5t67 31t80 10.5q49 0 89 -9.5t69 -28t45 -47
t16 -66.5q0 -41 -18.5 -74.5t-49 -57.5t-70 -37t-81.5 -13z" />
    <glyph glyph-name="Eogonek" unicode="&#x118;" horiz-adv-x="1562" 
d="M997 -462q-42 0 -83.5 8.5t-74.5 28.5t-54 53t-21 82t20.5 91.5t53.5 78t74.5 65.5t83.5 55h-992l21 93l166 66q17 7 28 16.5t16 31.5l231 1041q5 20 -4.5 29.5t-22.5 14.5l-158 68l21 91h1270l-92 -412h-153l-8 192q-1 19 -9.5 28.5t-24.5 9.5h-474l-95 -429h258
q21 0 31 9t21 29l85 156h126l-125 -560h-126l-16 155q-2 20 -8 29.5t-27 9.5h-257l-107 -486h572q14 0 28.5 11t22.5 28l99 214h152l-97 -435h-185q-31 -21 -62 -46.5t-56 -54.5t-40.5 -61.5t-15.5 -68.5q0 -37 22 -58.5t59 -21.5q26 0 56 11t54 22h48l-2 -132
q-24 -12 -53.5 -21.5t-59.5 -16.5t-60 -10.5t-56 -3.5z" />
    <glyph glyph-name="Gcircumflex" unicode="&#x11c;" horiz-adv-x="1675" 
d="M759 -33q-137 0 -253.5 39.5t-201 117t-132.5 191t-48 260.5q0 131 30 249t86.5 219t137 182.5t181 138.5t218.5 88t250 31q97 0 181.5 -10.5t156 -26t129 -32t99.5 -28.5l-93 -398l-152 -1l-9 208q-1 14 -13 24t-24 16q-29 15 -69.5 28.5t-87 24t-97.5 16.5t-102 6
q-91 0 -173 -51t-144.5 -143t-99 -220.5t-36.5 -282.5q0 -110 22.5 -198.5t66.5 -150.5t108 -96t148 -34q33 0 60.5 3.5t50 9t40.5 11.5t31 12l69 319q5 20 -4 29t-22 14l-199 69l19 91h752l-19 -91l-144 -69q-13 -6 -26.5 -14.5t-18.5 -28.5l-32 -147q-22 -100 -34 -166.5
t-18 -105.5q-64 -20 -133 -39t-142 -33t-150.5 -22.5t-158.5 -8.5zM699 1626l263 302q40 46 81 68t92 22t86.5 -22t59.5 -68l160 -302l-83 -51l-248 231l-345 -233z" />
    <glyph glyph-name="Gbreve" unicode="&#x11e;" horiz-adv-x="1675" 
d="M759 -33q-137 0 -253.5 39.5t-201 117t-132.5 191t-48 260.5q0 131 30 249t86.5 219t137 182.5t181 138.5t218.5 88t250 31q97 0 181.5 -10.5t156 -26t129 -32t99.5 -28.5l-93 -398l-152 -1l-9 208q-1 14 -13 24t-24 16q-29 15 -69.5 28.5t-87 24t-97.5 16.5t-102 6
q-91 0 -173 -51t-144.5 -143t-99 -220.5t-36.5 -282.5q0 -110 22.5 -198.5t66.5 -150.5t108 -96t148 -34q33 0 60.5 3.5t50 9t40.5 11.5t31 12l69 319q5 20 -4 29t-22 14l-199 69l19 91h752l-19 -91l-144 -69q-13 -6 -26.5 -14.5t-18.5 -28.5l-32 -147q-22 -100 -34 -166.5
t-18 -105.5q-64 -20 -133 -39t-142 -33t-150.5 -22.5t-158.5 -8.5zM1070 1595q-79 0 -140 24.5t-101.5 74t-59.5 125t-15 177.5l115 20q10 -51 25 -91.5t41 -69t66 -43.5t101 -15q58 0 102.5 14.5t80 42.5t64 68.5t55.5 93.5l109 -20q-29 -102 -71.5 -177.5t-99 -125
t-125 -74t-147.5 -24.5z" />
    <glyph glyph-name="Gdotaccent" unicode="&#x120;" horiz-adv-x="1675" 
d="M759 -33q-137 0 -253.5 39.5t-201 117t-132.5 191t-48 260.5q0 131 30 249t86.5 219t137 182.5t181 138.5t218.5 88t250 31q97 0 181.5 -10.5t156 -26t129 -32t99.5 -28.5l-93 -398l-152 -1l-9 208q-1 14 -13 24t-24 16q-29 15 -69.5 28.5t-87 24t-97.5 16.5t-102 6
q-91 0 -173 -51t-144.5 -143t-99 -220.5t-36.5 -282.5q0 -110 22.5 -198.5t66.5 -150.5t108 -96t148 -34q33 0 60.5 3.5t50 9t40.5 11.5t31 12l69 319q5 20 -4 29t-22 14l-199 69l19 91h752l-19 -91l-144 -69q-13 -6 -26.5 -14.5t-18.5 -28.5l-32 -147q-22 -100 -34 -166.5
t-18 -105.5q-64 -20 -133 -39t-142 -33t-150.5 -22.5t-158.5 -8.5zM1066 1590q-37 0 -74.5 12t-68 34.5t-49.5 53.5t-19 69q0 40 17.5 71t46.5 51.5t67 31t80 10.5q49 0 89 -9.5t69 -28t45 -47t16 -66.5q0 -41 -18.5 -74.5t-49 -57.5t-70 -37t-81.5 -13z" />
    <glyph glyph-name="uni0122" unicode="&#x122;" horiz-adv-x="1675" 
d="M759 -33q-137 0 -253.5 39.5t-201 117t-132.5 191t-48 260.5q0 131 30 249t86.5 219t137 182.5t181 138.5t218.5 88t250 31q97 0 181.5 -10.5t156 -26t129 -32t99.5 -28.5l-93 -398l-152 -1l-9 208q-1 14 -13 24t-24 16q-29 15 -69.5 28.5t-87 24t-97.5 16.5t-102 6
q-91 0 -173 -51t-144.5 -143t-99 -220.5t-36.5 -282.5q0 -110 22.5 -198.5t66.5 -150.5t108 -96t148 -34q33 0 60.5 3.5t50 9t40.5 11.5t31 12l69 319q5 20 -4 29t-22 14l-199 69l19 91h752l-19 -91l-144 -69q-13 -6 -26.5 -14.5t-18.5 -28.5l-32 -147q-22 -100 -34 -166.5
t-18 -105.5q-64 -20 -133 -39t-142 -33t-150.5 -22.5t-158.5 -8.5zM546 -564q38 27 64.5 48.5t45.5 41t31.5 39t22.5 42.5q-27 18 -45.5 33t-30.5 29.5t-17.5 29.5t-5.5 34q0 26 11.5 52t33.5 47t55 34t76 13q39 0 67 -10t45.5 -29t26 -45t8.5 -59q0 -79 -31.5 -137.5
t-80 -103t-106 -77.5t-109.5 -61z" />
    <glyph glyph-name="Hcircumflex" unicode="&#x124;" horiz-adv-x="1893" 
d="M25 93l166 66q15 6 27 16t17 32l231 1041q5 20 -4.5 29.5t-21.5 14.5l-158 68l21 91h736l-21 -91l-165 -68q-17 -7 -29 -15.5t-17 -28.5l-91 -408h597l91 408q5 20 -5 29t-24 15l-156 68l21 91h737l-21 -91l-164 -68q-18 -8 -30 -16t-17 -28l-231 -1041q-5 -22 4.5 -31.5
t24.5 -16.5l156 -66l-21 -93h-737l21 93l164 66q17 7 29.5 16.5t17.5 31.5l102 461h-597l-102 -461q-5 -22 4 -31.5t24 -16.5l157 -66l-21 -93h-736zM804 1626l263 302q40 46 81 68t92 22t86.5 -22t59.5 -68l160 -302l-83 -51l-248 231l-345 -233z" />
    <glyph glyph-name="Hbar" unicode="&#x126;" horiz-adv-x="1893" 
d="M25 93l166 66q15 6 27 16t17 32l169 764h-210l37 176h212l23 101q5 20 -4.5 29.5t-21.5 14.5l-158 68l21 91h736l-21 -91l-165 -68q-17 -7 -29 -15.5t-17 -28.5l-23 -101h597l23 101q5 20 -5 29t-24 15l-156 68l21 91h737l-21 -91l-164 -68q-18 -8 -30 -16t-17 -28
l-23 -101h203l-37 -176h-205l-169 -764q-5 -22 4.5 -31.5t24.5 -16.5l156 -66l-21 -93h-737l21 93l164 66q17 7 29.5 16.5t17.5 31.5l102 461h-597l-102 -461q-5 -22 4 -31.5t24 -16.5l157 -66l-21 -93h-736zM1313 840l29 131h-597l-29 -131h597z" />
    <glyph glyph-name="Igrave" unicode="&#xcc;" horiz-adv-x="985" 
d="M25 93l175 66q18 7 29 16.5t16 31.5l231 1041q5 20 -4.5 29.5t-22.5 14.5l-167 68l20 91h756l-20 -91l-176 -68q-17 -7 -28.5 -15.5t-16.5 -28.5l-231 -1041q-5 -22 4 -32.5t23 -15.5l168 -66l-22 -93h-756zM865 1573q-77 48 -131.5 81t-94.5 57t-68.5 41.5t-53.5 34.5
q-48 33 -68 60.5t-20 69.5q0 19 10.5 37.5t28.5 32.5t41.5 22.5t50.5 8.5q24 0 45 -3.5t41 -13t40.5 -27.5t41.5 -46q18 -24 35.5 -49t41 -59t55.5 -80.5t79 -113.5z" />
    <glyph glyph-name="Iacute" unicode="&#xcd;" horiz-adv-x="985" 
d="M25 93l175 66q18 7 29 16.5t16 31.5l231 1041q5 20 -4.5 29.5t-22.5 14.5l-167 68l20 91h756l-20 -91l-176 -68q-17 -7 -28.5 -15.5t-16.5 -28.5l-231 -1041q-5 -22 4 -32.5t23 -15.5l168 -66l-22 -93h-756zM496 1626q55 75 109.5 152.5t114.5 149.5q19 24 39 41t41.5 28
t47 16t56.5 5q22 0 43 -7t37.5 -19.5t26.5 -31.5t10 -43t-8 -42.5t-20.5 -34t-29 -28.5t-34.5 -25q-87 -60 -179.5 -110t-181.5 -104z" />
    <glyph glyph-name="Icircumflex" unicode="&#xce;" horiz-adv-x="985" 
d="M25 93l175 66q18 7 29 16.5t16 31.5l231 1041q5 20 -4.5 29.5t-22.5 14.5l-167 68l20 91h756l-20 -91l-176 -68q-17 -7 -28.5 -15.5t-16.5 -28.5l-231 -1041q-5 -22 4 -32.5t23 -15.5l168 -66l-22 -93h-756zM346 1626l263 302q40 46 81 68t92 22t86.5 -22t59.5 -68
l160 -302l-83 -51l-248 231l-345 -233z" />
    <glyph glyph-name="Itilde" unicode="&#x128;" horiz-adv-x="985" 
d="M25 93l175 66q18 7 29 16.5t16 31.5l231 1041q5 20 -4.5 29.5t-22.5 14.5l-167 68l20 91h756l-20 -91l-176 -68q-17 -7 -28.5 -15.5t-16.5 -28.5l-231 -1041q-5 -22 4 -32.5t23 -15.5l168 -66l-22 -93h-756zM284 1602q20 70 52 127.5t72.5 99t88 64t98.5 22.5
q33 0 76.5 -18.5t88.5 -44.5q42 -25 68.5 -34.5t43.5 -9.5q45 0 72 34t46 88h118q-19 -69 -49.5 -126.5t-70 -99t-86.5 -64t-99 -22.5q-18 0 -35 3.5t-36 11.5t-41.5 20.5t-49.5 29.5q-39 25 -68 35t-46 10q-41 0 -73.5 -36t-50.5 -90h-119z" />
    <glyph glyph-name="Idieresis" unicode="&#xcf;" horiz-adv-x="985" 
d="M25 93l175 66q18 7 29 16.5t16 31.5l231 1041q5 20 -4.5 29.5t-22.5 14.5l-167 68l20 91h756l-20 -91l-176 -68q-17 -7 -28.5 -15.5t-16.5 -28.5l-231 -1041q-5 -22 4 -32.5t23 -15.5l168 -66l-22 -93h-756zM479 1612q-32 0 -60 9.5t-49.5 28t-34 45t-12.5 60.5
q0 37 12.5 64.5t34 46.5t49.5 28.5t60 9.5q36 0 66 -9t51.5 -26t33 -43.5t11.5 -60.5q0 -36 -12.5 -64.5t-34 -48t-51.5 -30t-64 -10.5zM971 1612q-32 0 -60 9.5t-49.5 28t-34 45t-12.5 60.5q0 37 12.5 64.5t34 46.5t49.5 28.5t60 9.5q36 0 66 -9t51.5 -26t33 -43.5
t11.5 -60.5q0 -36 -12.5 -64.5t-34 -48t-51.5 -30t-64 -10.5z" />
    <glyph glyph-name="Imacron" unicode="&#x12a;" horiz-adv-x="985" 
d="M25 93l175 66q18 7 29 16.5t16 31.5l231 1041q5 20 -4.5 29.5t-22.5 14.5l-167 68l20 91h756l-20 -91l-176 -68q-17 -7 -28.5 -15.5t-16.5 -28.5l-231 -1041q-5 -22 4 -32.5t23 -15.5l168 -66l-22 -93h-756zM346 1868h743l-44 -192h-743z" />
    <glyph glyph-name="Ibreve" unicode="&#x12c;" horiz-adv-x="985" 
d="M25 93l175 66q18 7 29 16.5t16 31.5l231 1041q5 20 -4.5 29.5t-22.5 14.5l-167 68l20 91h756l-20 -91l-176 -68q-17 -7 -28.5 -15.5t-16.5 -28.5l-231 -1041q-5 -22 4 -32.5t23 -15.5l168 -66l-22 -93h-756zM696 1595q-79 0 -140 24.5t-101.5 74t-59.5 125t-15 177.5
l115 20q10 -51 25 -91.5t41 -69t66 -43.5t101 -15q58 0 102.5 14.5t80 42.5t64 68.5t55.5 93.5l109 -20q-29 -102 -71.5 -177.5t-99 -125t-125 -74t-147.5 -24.5z" />
    <glyph glyph-name="Idotaccent" unicode="&#x130;" horiz-adv-x="985" 
d="M25 93l175 66q18 7 29 16.5t16 31.5l231 1041q5 20 -4.5 29.5t-22.5 14.5l-167 68l20 91h756l-20 -91l-176 -68q-17 -7 -28.5 -15.5t-16.5 -28.5l-231 -1041q-5 -22 4 -32.5t23 -15.5l168 -66l-22 -93h-756zM692 1590q-37 0 -74.5 12t-68 34.5t-49.5 53.5t-19 69
q0 40 17.5 71t46.5 51.5t67 31t80 10.5q49 0 89 -9.5t69 -28t45 -47t16 -66.5q0 -41 -18.5 -74.5t-49 -57.5t-70 -37t-81.5 -13z" />
    <glyph glyph-name="uni1EC8" unicode="&#x1ec8;" horiz-adv-x="985" 
d="M25 93l175 66q18 7 29 16.5t16 31.5l231 1041q5 20 -4.5 29.5t-22.5 14.5l-167 68l20 91h756l-20 -91l-176 -68q-17 -7 -28.5 -15.5t-16.5 -28.5l-231 -1041q-5 -22 4 -32.5t23 -15.5l168 -66l-22 -93h-756zM829 2053q42 0 80 -8.5t66 -25.5t44.5 -42.5t16.5 -59.5
q0 -39 -14.5 -67.5t-37 -50.5t-49.5 -41.5t-52 -41t-44.5 -48t-27.5 -63.5l-7 -31h-174l8 39q9 40 27.5 68t41.5 49t47.5 38t44.5 35t33 40.5t13 55.5q0 10 -3.5 18.5t-10 14t-16 8.5t-22.5 3q-22 0 -43 -6.5t-40 -16t-35.5 -20.5t-28.5 -21h-83l25 120q14 6 38 15
t55.5 17.5t69 15t78.5 6.5z" />
    <glyph glyph-name="Iogonek" unicode="&#x12e;" horiz-adv-x="985" 
d="M344 -462q-42 0 -83.5 8.5t-74.5 28.5t-54 53t-21 82t20.5 91.5t53.5 78t74.5 65.5t83.5 55h-340l22 93l175 66q18 7 29 16.5t16 31.5l231 1041q5 20 -4.5 29.5t-22.5 14.5l-167 68l20 91h756l-20 -91l-176 -68q-17 -7 -28.5 -15.5t-16.5 -28.5l-231 -1041
q-5 -22 4 -32.5t23 -15.5l168 -66l-22 -93h-249q-31 -21 -62 -46.5t-56 -54.5t-40.5 -61.5t-15.5 -68.5q0 -37 22 -58.5t59 -21.5q26 0 56 11t54 22h48l-2 -132q-24 -12 -53.5 -21.5t-59.5 -16.5t-60 -10.5t-56 -3.5z" />
    <glyph glyph-name="uni1ECA" unicode="&#x1eca;" horiz-adv-x="985" 
d="M25 93l175 66q18 7 29 16.5t16 31.5l231 1041q5 20 -4.5 29.5t-22.5 14.5l-167 68l20 91h756l-20 -91l-176 -68q-17 -7 -28.5 -15.5t-16.5 -28.5l-231 -1041q-5 -22 4 -32.5t23 -15.5l168 -66l-22 -93h-756zM410 -498q-37 0 -74.5 12t-68 34.5t-49.5 53.5t-19 69
q0 40 17.5 71t46.5 51.5t67 31t80 10.5q49 0 89 -9.5t69 -28t45 -47t16 -66.5q0 -41 -18.5 -74.5t-49 -57.5t-70 -37t-81.5 -13z" />
    <glyph glyph-name="IJ" unicode="&#x132;" horiz-adv-x="1961" 
d="M25 93l175 66q18 7 29 16.5t16 31.5l231 1041q5 20 -4.5 29.5t-22.5 14.5l-167 68l20 91h756l-20 -91l-176 -68q-17 -7 -28.5 -15.5t-16.5 -28.5l-231 -1041q-5 -22 4 -32.5t23 -15.5l168 -66l-22 -93h-756zM958 -439q-81 0 -158.5 11.5t-152.5 28.5l58 284h71
q24 -10 60 -27t76.5 -33t82.5 -28t78 -12q28 0 47 7t34 26q10 12 21 37.5t22.5 63t23 86t23.5 106.5l233 1137q4 20 -4 29.5t-23 14.5l-190 68l20 91h763l-20 -91l-161 -68q-17 -7 -28 -15.5t-15 -28.5l-230 -1127q-26 -127 -89 -229.5t-150 -176.5q-43 -37 -90 -65.5
t-97 -48t-102 -30t-103 -10.5z" />
    <glyph glyph-name="Jcircumflex" unicode="&#x134;" horiz-adv-x="976" 
d="M-27 -439q-81 0 -158.5 11.5t-152.5 28.5l58 284h71q24 -10 60 -27t76.5 -33t82.5 -28t78 -12q28 0 47 7t34 26q10 12 21 37.5t22.5 63t23 86t23.5 106.5l233 1137q4 20 -4 29.5t-23 14.5l-190 68l20 91h763l-20 -91l-161 -68q-17 -7 -28 -15.5t-15 -28.5l-230 -1127
q-26 -127 -89 -229.5t-150 -176.5q-43 -37 -90 -65.5t-97 -48t-102 -30t-103 -10.5zM343 1626l263 302q40 46 81 68t92 22t86.5 -22t59.5 -68l160 -302l-83 -51l-248 231l-345 -233z" />
    <glyph glyph-name="uni0136" unicode="&#x136;" horiz-adv-x="1656" 
d="M25 93l164 66q17 7 29 16.5t17 31.5l231 1041q5 20 -3 29t-22 15l-160 68l21 91h736l-21 -91l-163 -68q-18 -8 -30 -16t-17 -28l-111 -489l606 529l-44 72l21 91h536l-21 -91l-193 -66q-17 -6 -41 -16.5t-49 -31.5l-468 -397l348 -639q8 -14 22 -32.5t30 -25.5l154 -64
l-20 -88h-602l20 88l60 62l-281 515l-109 -43l-89 -415q-5 -22 3 -32t23 -16l159 -66l-21 -93h-736zM634 -564q38 27 64.5 48.5t45.5 41t31.5 39t22.5 42.5q-27 18 -45.5 33t-30.5 29.5t-17.5 29.5t-5.5 34q0 26 11.5 52t33.5 47t55 34t76 13q39 0 67 -10t45.5 -29t26 -45
t8.5 -59q0 -79 -31.5 -137.5t-80 -103t-106 -77.5t-109.5 -61z" />
    <glyph glyph-name="Lacute" unicode="&#x139;" horiz-adv-x="1440" 
d="M25 93l166 66q14 5 26.5 15.5t17.5 32.5l231 1041q5 20 -4 29t-23 15l-157 68l19 91h736l-19 -91l-166 -68q-15 -6 -27.5 -15t-17.5 -29l-237 -1066h483q7 0 15 2.5t15 7t13 12t10 17.5l122 303h157l-118 -524h-1263zM450 1626q55 75 109.5 152.5t114.5 149.5
q19 24 39 41t41.5 28t47 16t56.5 5q22 0 43 -7t37.5 -19.5t26.5 -31.5t10 -43t-8 -42.5t-20.5 -34t-29 -28.5t-34.5 -25q-87 -60 -179.5 -110t-181.5 -104z" />
    <glyph glyph-name="Lcaron" unicode="&#x13d;" horiz-adv-x="1440" 
d="M25 93l166 66q14 5 26.5 15.5t17.5 32.5l231 1041q5 20 -4 29t-23 15l-157 68l19 91h736l-19 -91l-166 -68q-15 -6 -27.5 -15t-17.5 -29l-237 -1066h483q7 0 15 2.5t15 7t13 12t10 17.5l122 303h157l-118 -524h-1263zM1133 1025q24 16 50 38t49.5 47.5t44 52.5t34.5 54
q-26 19 -45 33.5t-31.5 29t-18.5 30t-6 36.5q0 31 13.5 58t37 47t55.5 31.5t70 11.5t65.5 -11t45.5 -31t27 -47t9 -58q0 -53 -17 -98.5t-45 -85t-64 -73t-74.5 -61t-76.5 -50t-69 -39.5z" />
    <glyph glyph-name="uni013B" unicode="&#x13b;" horiz-adv-x="1440" 
d="M25 93l166 66q14 5 26.5 15.5t17.5 32.5l231 1041q5 20 -4 29t-23 15l-157 68l19 91h736l-19 -91l-166 -68q-15 -6 -27.5 -15t-17.5 -29l-237 -1066h483q7 0 15 2.5t15 7t13 12t10 17.5l122 303h157l-118 -524h-1263zM526 -564q38 27 64.5 48.5t45.5 41t31.5 39
t22.5 42.5q-27 18 -45.5 33t-30.5 29.5t-17.5 29.5t-5.5 34q0 26 11.5 52t33.5 47t55 34t76 13q39 0 67 -10t45.5 -29t26 -45t8.5 -59q0 -79 -31.5 -137.5t-80 -103t-106 -77.5t-109.5 -61z" />
    <glyph glyph-name="Lslash" unicode="&#x141;" horiz-adv-x="1440" 
d="M25 93l166 66q14 5 26.5 15.5t17.5 32.5l107 484l-231 -78l38 171l231 79l86 385q5 20 -4 29t-23 15l-157 68l19 91h736l-19 -91l-166 -68q-15 -6 -27.5 -15t-17.5 -29l-58 -260l351 120l-38 -172l-351 -119l-141 -635h483q7 0 15 2.5t15 7t13 12t10 17.5l122 303h157
l-118 -524h-1263z" />
    <glyph glyph-name="Ldot" unicode="&#x13f;" horiz-adv-x="1440" 
d="M25 93l166 66q14 5 26.5 15.5t17.5 32.5l231 1041q5 20 -4 29t-23 15l-157 68l19 91h736l-19 -91l-166 -68q-15 -6 -27.5 -15t-17.5 -29l-237 -1066h483q7 0 15 2.5t15 7t13 12t10 17.5l122 303h157l-118 -524h-1263zM1191 703q-37 0 -74.5 12t-68 34.5t-49.5 53.5
t-19 69q0 40 17.5 71t46.5 51.5t67 31t80 10.5q49 0 89 -9.5t69 -28t45 -47t16 -66.5q0 -41 -18.5 -74.5t-49 -57.5t-70 -37t-81.5 -13z" />
    <glyph glyph-name="Nacute" unicode="&#x143;" horiz-adv-x="1818" 
d="M694 963l-43 125h-21l-192 -875q-5 -22 4 -31.5t20 -14.5l155 -74l-20 -93h-592l20 93l166 74q17 8 29 16t17 30l229 1035q5 19 -3.5 28.5t-22.5 15.5l-164 68l21 91h532l413 -889l43 -126h21l177 806q4 19 -5.5 28t-22.5 15l-155 75l19 91h595l-19 -91l-166 -75
q-14 -6 -27 -14.5t-18 -28.5l-226 -1022l-78 -230h-231zM880 1626q55 75 109.5 152.5t114.5 149.5q19 24 39 41t41.5 28t47 16t56.5 5q22 0 43 -7t37.5 -19.5t26.5 -31.5t10 -43t-8 -42.5t-20.5 -34t-29 -28.5t-34.5 -25q-87 -60 -179.5 -110t-181.5 -104z" />
    <glyph glyph-name="Ncaron" unicode="&#x147;" horiz-adv-x="1818" 
d="M694 963l-43 125h-21l-192 -875q-5 -22 4 -31.5t20 -14.5l155 -74l-20 -93h-592l20 93l166 74q17 8 29 16t17 30l229 1035q5 19 -3.5 28.5t-22.5 15.5l-164 68l21 91h532l413 -889l43 -126h21l177 806q4 19 -5.5 28t-22.5 15l-155 75l19 91h595l-19 -91l-166 -75
q-14 -6 -27 -14.5t-18 -28.5l-226 -1022l-78 -230h-231zM1142 1573q-51 0 -86.5 22t-59.5 68l-159 302l83 51l246 -231l347 233l66 -53l-264 -302q-40 -46 -81 -68t-92 -22z" />
    <glyph glyph-name="Ntilde" unicode="&#xd1;" horiz-adv-x="1818" 
d="M694 963l-43 125h-21l-192 -875q-5 -22 4 -31.5t20 -14.5l155 -74l-20 -93h-592l20 93l166 74q17 8 29 16t17 30l229 1035q5 19 -3.5 28.5t-22.5 15.5l-164 68l21 91h532l413 -889l43 -126h21l177 806q4 19 -5.5 28t-22.5 15l-155 75l19 91h595l-19 -91l-166 -75
q-14 -6 -27 -14.5t-18 -28.5l-226 -1022l-78 -230h-231zM738 1602q20 70 52 127.5t72.5 99t88 64t98.5 22.5q33 0 76.5 -18.5t88.5 -44.5q42 -25 68.5 -34.5t43.5 -9.5q45 0 72 34t46 88h118q-19 -69 -49.5 -126.5t-70 -99t-86.5 -64t-99 -22.5q-18 0 -35 3.5t-36 11.5
t-41.5 20.5t-49.5 29.5q-39 25 -68 35t-46 10q-41 0 -73.5 -36t-50.5 -90h-119z" />
    <glyph glyph-name="uni0145" unicode="&#x145;" horiz-adv-x="1818" 
d="M694 963l-43 125h-21l-192 -875q-5 -22 4 -31.5t20 -14.5l155 -74l-20 -93h-592l20 93l166 74q17 8 29 16t17 30l229 1035q5 19 -3.5 28.5t-22.5 15.5l-164 68l21 91h532l413 -889l43 -126h21l177 806q4 19 -5.5 28t-22.5 15l-155 75l19 91h595l-19 -91l-166 -75
q-14 -6 -27 -14.5t-18 -28.5l-226 -1022l-78 -230h-231zM623 -564q38 27 64.5 48.5t45.5 41t31.5 39t22.5 42.5q-27 18 -45.5 33t-30.5 29.5t-17.5 29.5t-5.5 34q0 26 11.5 52t33.5 47t55 34t76 13q39 0 67 -10t45.5 -29t26 -45t8.5 -59q0 -79 -31.5 -137.5t-80 -103
t-106 -77.5t-109.5 -61z" />
    <glyph glyph-name="Ograve" unicode="&#xd2;" horiz-adv-x="1683" 
d="M806 143q88 0 157.5 38t122 100.5t89 143t59 166.5t33 170t10.5 153q0 80 -15.5 151.5t-52 125.5t-97 85.5t-150.5 31.5q-89 0 -158.5 -37.5t-122 -99.5t-88.5 -142.5t-58.5 -166t-32.5 -169.5t-10 -154q0 -80 15.5 -151.5t51.5 -126t96.5 -86.5t150.5 -32zM770 -34
q-145 0 -264 36t-204 110t-131.5 186t-46.5 264q0 128 28.5 246t81.5 220.5t130 186.5t174.5 144t213 93t247.5 33q144 0 263 -35.5t204 -108t132 -184t47 -262.5q0 -127 -28 -245.5t-81.5 -222t-130 -188.5t-174 -145.5t-213.5 -94t-248 -33.5zM1105 1573q-77 48 -131.5 81
t-94.5 57t-68.5 41.5t-53.5 34.5q-48 33 -68 60.5t-20 69.5q0 19 10.5 37.5t28.5 32.5t41.5 22.5t50.5 8.5q24 0 45 -3.5t41 -13t40.5 -27.5t41.5 -46q18 -24 35.5 -49t41 -59t55.5 -80.5t79 -113.5z" />
    <glyph glyph-name="Oacute" unicode="&#xd3;" horiz-adv-x="1683" 
d="M806 143q88 0 157.5 38t122 100.5t89 143t59 166.5t33 170t10.5 153q0 80 -15.5 151.5t-52 125.5t-97 85.5t-150.5 31.5q-89 0 -158.5 -37.5t-122 -99.5t-88.5 -142.5t-58.5 -166t-32.5 -169.5t-10 -154q0 -80 15.5 -151.5t51.5 -126t96.5 -86.5t150.5 -32zM770 -34
q-145 0 -264 36t-204 110t-131.5 186t-46.5 264q0 128 28.5 246t81.5 220.5t130 186.5t174.5 144t213 93t247.5 33q144 0 263 -35.5t204 -108t132 -184t47 -262.5q0 -127 -28 -245.5t-81.5 -222t-130 -188.5t-174 -145.5t-213.5 -94t-248 -33.5zM766 1626q55 75 109.5 152.5
t114.5 149.5q19 24 39 41t41.5 28t47 16t56.5 5q22 0 43 -7t37.5 -19.5t26.5 -31.5t10 -43t-8 -42.5t-20.5 -34t-29 -28.5t-34.5 -25q-87 -60 -179.5 -110t-181.5 -104z" />
    <glyph glyph-name="Ocircumflex" unicode="&#xd4;" horiz-adv-x="1683" 
d="M806 143q88 0 157.5 38t122 100.5t89 143t59 166.5t33 170t10.5 153q0 80 -15.5 151.5t-52 125.5t-97 85.5t-150.5 31.5q-89 0 -158.5 -37.5t-122 -99.5t-88.5 -142.5t-58.5 -166t-32.5 -169.5t-10 -154q0 -80 15.5 -151.5t51.5 -126t96.5 -86.5t150.5 -32zM770 -34
q-145 0 -264 36t-204 110t-131.5 186t-46.5 264q0 128 28.5 246t81.5 220.5t130 186.5t174.5 144t213 93t247.5 33q144 0 263 -35.5t204 -108t132 -184t47 -262.5q0 -127 -28 -245.5t-81.5 -222t-130 -188.5t-174 -145.5t-213.5 -94t-248 -33.5zM636 1626l263 302
q40 46 81 68t92 22t86.5 -22t59.5 -68l160 -302l-83 -51l-248 231l-345 -233z" />
    <glyph glyph-name="uni1ED0" unicode="&#x1ed0;" horiz-adv-x="1683" 
d="M806 143q88 0 157.5 38t122 100.5t89 143t59 166.5t33 170t10.5 153q0 80 -15.5 151.5t-52 125.5t-97 85.5t-150.5 31.5q-89 0 -158.5 -37.5t-122 -99.5t-88.5 -142.5t-58.5 -166t-32.5 -169.5t-10 -154q0 -80 15.5 -151.5t51.5 -126t96.5 -86.5t150.5 -32zM770 -34
q-145 0 -264 36t-204 110t-131.5 186t-46.5 264q0 128 28.5 246t81.5 220.5t130 186.5t174.5 144t213 93t247.5 33q144 0 263 -35.5t204 -108t132 -184t47 -262.5q0 -127 -28 -245.5t-81.5 -222t-130 -188.5t-174 -145.5t-213.5 -94t-248 -33.5zM1371 1844l111 291
q12 31 28.5 51.5t35 32t38 16t38.5 4.5q27 0 49 -9t37.5 -24.5t24 -35.5t8.5 -42q0 -36 -15 -64.5t-52 -61.5l-226 -202zM636 1626l263 302q40 46 81 68t92 22t86.5 -22t59.5 -68l160 -302l-83 -51l-248 231l-345 -233z" />
    <glyph glyph-name="uni1ED2" unicode="&#x1ed2;" horiz-adv-x="1683" 
d="M806 143q88 0 157.5 38t122 100.5t89 143t59 166.5t33 170t10.5 153q0 80 -15.5 151.5t-52 125.5t-97 85.5t-150.5 31.5q-89 0 -158.5 -37.5t-122 -99.5t-88.5 -142.5t-58.5 -166t-32.5 -169.5t-10 -154q0 -80 15.5 -151.5t51.5 -126t96.5 -86.5t150.5 -32zM770 -34
q-145 0 -264 36t-204 110t-131.5 186t-46.5 264q0 128 28.5 246t81.5 220.5t130 186.5t174.5 144t213 93t247.5 33q144 0 263 -35.5t204 -108t132 -184t47 -262.5q0 -127 -28 -245.5t-81.5 -222t-130 -188.5t-174 -145.5t-213.5 -94t-248 -33.5zM622 1800l-226 202
q-37 33 -52 61.5t-15 64.5q0 22 8 42t22.5 35.5t34 24.5t42.5 9t45.5 -4.5t42 -16t36 -32t28.5 -51.5l111 -291zM637 1626l263 302q40 46 81 68t92 22t86.5 -22t59.5 -68l160 -302l-83 -51l-248 231l-345 -233z" />
    <glyph glyph-name="uni1ED4" unicode="&#x1ed4;" horiz-adv-x="1683" 
d="M806 143q88 0 157.5 38t122 100.5t89 143t59 166.5t33 170t10.5 153q0 80 -15.5 151.5t-52 125.5t-97 85.5t-150.5 31.5q-89 0 -158.5 -37.5t-122 -99.5t-88.5 -142.5t-58.5 -166t-32.5 -169.5t-10 -154q0 -80 15.5 -151.5t51.5 -126t96.5 -86.5t150.5 -32zM770 -34
q-145 0 -264 36t-204 110t-131.5 186t-46.5 264q0 128 28.5 246t81.5 220.5t130 186.5t174.5 144t213 93t247.5 33q144 0 263 -35.5t204 -108t132 -184t47 -262.5q0 -127 -28 -245.5t-81.5 -222t-130 -188.5t-174 -145.5t-213.5 -94t-248 -33.5zM1594 2181q37 0 69.5 -8
t57 -23t38.5 -37t14 -50q0 -32 -12 -54.5t-30 -41t-40 -34t-42.5 -33t-36.5 -39t-22 -51.5l-6 -25h-169l7 32q6 27 20.5 48t33 39t38.5 33.5t36.5 31t27.5 33t11 38.5q0 17 -9 27t-29 10q-35 0 -61 -16.5t-46 -30.5h-80l22 107q12 4 32.5 11.5t47.5 15t59.5 12.5t68.5 5z
M636 1626l263 302q40 46 81 68t92 22t86.5 -22t59.5 -68l160 -302l-83 -51l-248 231l-345 -233z" />
    <glyph glyph-name="uni1ED6" unicode="&#x1ed6;" horiz-adv-x="1683" 
d="M806 143q88 0 157.5 38t122 100.5t89 143t59 166.5t33 170t10.5 153q0 80 -15.5 151.5t-52 125.5t-97 85.5t-150.5 31.5q-89 0 -158.5 -37.5t-122 -99.5t-88.5 -142.5t-58.5 -166t-32.5 -169.5t-10 -154q0 -80 15.5 -151.5t51.5 -126t96.5 -86.5t150.5 -32zM770 -34
q-145 0 -264 36t-204 110t-131.5 186t-46.5 264q0 128 28.5 246t81.5 220.5t130 186.5t174.5 144t213 93t247.5 33q144 0 263 -35.5t204 -108t132 -184t47 -262.5q0 -127 -28 -245.5t-81.5 -222t-130 -188.5t-174 -145.5t-213.5 -94t-248 -33.5zM638 1626l261 287
q40 46 81 68t92 22t86.5 -22t59.5 -68l162 -287l-83 -51l-250 216l-343 -218zM728 2022q20 70 52 127.5t72 99t86.5 64t96.5 22.5q36 0 80 -18.5t89 -44.5q42 -25 68.5 -34.5t43.5 -9.5q45 0 72 34t46 88h118q-19 -69 -49.5 -126.5t-70 -99t-86.5 -64t-99 -22.5
q-18 0 -35 3.5t-36 11.5t-41.5 20.5t-49.5 29.5q-39 25 -68 35t-46 10q-41 0 -73.5 -36t-50.5 -90h-119z" />
    <glyph glyph-name="Otilde" unicode="&#xd5;" horiz-adv-x="1683" 
d="M806 143q88 0 157.5 38t122 100.5t89 143t59 166.5t33 170t10.5 153q0 80 -15.5 151.5t-52 125.5t-97 85.5t-150.5 31.5q-89 0 -158.5 -37.5t-122 -99.5t-88.5 -142.5t-58.5 -166t-32.5 -169.5t-10 -154q0 -80 15.5 -151.5t51.5 -126t96.5 -86.5t150.5 -32zM770 -34
q-145 0 -264 36t-204 110t-131.5 186t-46.5 264q0 128 28.5 246t81.5 220.5t130 186.5t174.5 144t213 93t247.5 33q144 0 263 -35.5t204 -108t132 -184t47 -262.5q0 -127 -28 -245.5t-81.5 -222t-130 -188.5t-174 -145.5t-213.5 -94t-248 -33.5zM590 1602q20 70 52 127.5
t72.5 99t88 64t98.5 22.5q33 0 76.5 -18.5t88.5 -44.5q42 -25 68.5 -34.5t43.5 -9.5q45 0 72 34t46 88h118q-19 -69 -49.5 -126.5t-70 -99t-86.5 -64t-99 -22.5q-18 0 -35 3.5t-36 11.5t-41.5 20.5t-49.5 29.5q-39 25 -68 35t-46 10q-41 0 -73.5 -36t-50.5 -90h-119z" />
    <glyph glyph-name="Odieresis" unicode="&#xd6;" horiz-adv-x="1683" 
d="M806 143q88 0 157.5 38t122 100.5t89 143t59 166.5t33 170t10.5 153q0 80 -15.5 151.5t-52 125.5t-97 85.5t-150.5 31.5q-89 0 -158.5 -37.5t-122 -99.5t-88.5 -142.5t-58.5 -166t-32.5 -169.5t-10 -154q0 -80 15.5 -151.5t51.5 -126t96.5 -86.5t150.5 -32zM770 -34
q-145 0 -264 36t-204 110t-131.5 186t-46.5 264q0 128 28.5 246t81.5 220.5t130 186.5t174.5 144t213 93t247.5 33q144 0 263 -35.5t204 -108t132 -184t47 -262.5q0 -127 -28 -245.5t-81.5 -222t-130 -188.5t-174 -145.5t-213.5 -94t-248 -33.5zM773 1612q-32 0 -60 9.5
t-49.5 28t-34 45t-12.5 60.5q0 37 12.5 64.5t34 46.5t49.5 28.5t60 9.5q36 0 66 -9t51.5 -26t33 -43.5t11.5 -60.5q0 -36 -12.5 -64.5t-34 -48t-51.5 -30t-64 -10.5zM1265 1612q-32 0 -60 9.5t-49.5 28t-34 45t-12.5 60.5q0 37 12.5 64.5t34 46.5t49.5 28.5t60 9.5
q36 0 66 -9t51.5 -26t33 -43.5t11.5 -60.5q0 -36 -12.5 -64.5t-34 -48t-51.5 -30t-64 -10.5z" />
    <glyph glyph-name="Omacron" unicode="&#x14c;" horiz-adv-x="1683" 
d="M806 143q88 0 157.5 38t122 100.5t89 143t59 166.5t33 170t10.5 153q0 80 -15.5 151.5t-52 125.5t-97 85.5t-150.5 31.5q-89 0 -158.5 -37.5t-122 -99.5t-88.5 -142.5t-58.5 -166t-32.5 -169.5t-10 -154q0 -80 15.5 -151.5t51.5 -126t96.5 -86.5t150.5 -32zM770 -34
q-145 0 -264 36t-204 110t-131.5 186t-46.5 264q0 128 28.5 246t81.5 220.5t130 186.5t174.5 144t213 93t247.5 33q144 0 263 -35.5t204 -108t132 -184t47 -262.5q0 -127 -28 -245.5t-81.5 -222t-130 -188.5t-174 -145.5t-213.5 -94t-248 -33.5zM691 1868h743l-44 -192h-743
z" />
    <glyph glyph-name="Obreve" unicode="&#x14e;" horiz-adv-x="1683" 
d="M806 143q88 0 157.5 38t122 100.5t89 143t59 166.5t33 170t10.5 153q0 80 -15.5 151.5t-52 125.5t-97 85.5t-150.5 31.5q-89 0 -158.5 -37.5t-122 -99.5t-88.5 -142.5t-58.5 -166t-32.5 -169.5t-10 -154q0 -80 15.5 -151.5t51.5 -126t96.5 -86.5t150.5 -32zM770 -34
q-145 0 -264 36t-204 110t-131.5 186t-46.5 264q0 128 28.5 246t81.5 220.5t130 186.5t174.5 144t213 93t247.5 33q144 0 263 -35.5t204 -108t132 -184t47 -262.5q0 -127 -28 -245.5t-81.5 -222t-130 -188.5t-174 -145.5t-213.5 -94t-248 -33.5zM1041 1595q-79 0 -140 24.5
t-101.5 74t-59.5 125t-15 177.5l115 20q10 -51 25 -91.5t41 -69t66 -43.5t101 -15q58 0 102.5 14.5t80 42.5t64 68.5t55.5 93.5l109 -20q-29 -102 -71.5 -177.5t-99 -125t-125 -74t-147.5 -24.5z" />
    <glyph glyph-name="Ohungarumlaut" unicode="&#x150;" horiz-adv-x="1683" 
d="M806 143q88 0 157.5 38t122 100.5t89 143t59 166.5t33 170t10.5 153q0 80 -15.5 151.5t-52 125.5t-97 85.5t-150.5 31.5q-89 0 -158.5 -37.5t-122 -99.5t-88.5 -142.5t-58.5 -166t-32.5 -169.5t-10 -154q0 -80 15.5 -151.5t51.5 -126t96.5 -86.5t150.5 -32zM770 -34
q-145 0 -264 36t-204 110t-131.5 186t-46.5 264q0 128 28.5 246t81.5 220.5t130 186.5t174.5 144t213 93t247.5 33q144 0 263 -35.5t204 -108t132 -184t47 -262.5q0 -127 -28 -245.5t-81.5 -222t-130 -188.5t-174 -145.5t-213.5 -94t-248 -33.5zM788 1626l158 302
q16 29 34.5 46.5t39 27.5t42.5 13t46 3q27 0 46.5 -8.5t32 -23t19 -32.5t6.5 -37q0 -21 -4 -38.5t-12 -33t-20 -29.5t-29 -29l-276 -214zM1183 1626l158 302q16 29 34.5 46.5t39 27.5t42.5 13t46 3q53 0 78.5 -30.5t25.5 -70.5q0 -21 -4 -38.5t-12.5 -33t-20.5 -29.5
t-28 -29l-276 -214z" />
    <glyph glyph-name="uni1ECE" unicode="&#x1ece;" horiz-adv-x="1683" 
d="M806 143q88 0 157.5 38t122 100.5t89 143t59 166.5t33 170t10.5 153q0 80 -15.5 151.5t-52 125.5t-97 85.5t-150.5 31.5q-89 0 -158.5 -37.5t-122 -99.5t-88.5 -142.5t-58.5 -166t-32.5 -169.5t-10 -154q0 -80 15.5 -151.5t51.5 -126t96.5 -86.5t150.5 -32zM770 -34
q-145 0 -264 36t-204 110t-131.5 186t-46.5 264q0 128 28.5 246t81.5 220.5t130 186.5t174.5 144t213 93t247.5 33q144 0 263 -35.5t204 -108t132 -184t47 -262.5q0 -127 -28 -245.5t-81.5 -222t-130 -188.5t-174 -145.5t-213.5 -94t-248 -33.5zM1174 2053q42 0 80 -8.5
t66 -25.5t44.5 -42.5t16.5 -59.5q0 -39 -14.5 -67.5t-37 -50.5t-49.5 -41.5t-52 -41t-44.5 -48t-27.5 -63.5l-7 -31h-174l8 39q9 40 27.5 68t41.5 49t47.5 38t44.5 35t33 40.5t13 55.5q0 10 -3.5 18.5t-10 14t-16 8.5t-22.5 3q-22 0 -43 -6.5t-40 -16t-35.5 -20.5t-28.5 -21
h-83l25 120q14 6 38 15t55.5 17.5t69 15t78.5 6.5z" />
    <glyph glyph-name="uni1ECC" unicode="&#x1ecc;" horiz-adv-x="1683" 
d="M806 143q88 0 157.5 38t122 100.5t89 143t59 166.5t33 170t10.5 153q0 80 -15.5 151.5t-52 125.5t-97 85.5t-150.5 31.5q-89 0 -158.5 -37.5t-122 -99.5t-88.5 -142.5t-58.5 -166t-32.5 -169.5t-10 -154q0 -80 15.5 -151.5t51.5 -126t96.5 -86.5t150.5 -32zM770 -34
q-145 0 -264 36t-204 110t-131.5 186t-46.5 264q0 128 28.5 246t81.5 220.5t130 186.5t174.5 144t213 93t247.5 33q144 0 263 -35.5t204 -108t132 -184t47 -262.5q0 -127 -28 -245.5t-81.5 -222t-130 -188.5t-174 -145.5t-213.5 -94t-248 -33.5zM738 -498q-37 0 -74.5 12
t-68 34.5t-49.5 53.5t-19 69q0 40 17.5 71t46.5 51.5t67 31t80 10.5q49 0 89 -9.5t69 -28t45 -47t16 -66.5q0 -41 -18.5 -74.5t-49 -57.5t-70 -37t-81.5 -13z" />
    <glyph glyph-name="uni1ED8" unicode="&#x1ed8;" horiz-adv-x="1683" 
d="M806 143q88 0 157.5 38t122 100.5t89 143t59 166.5t33 170t10.5 153q0 80 -15.5 151.5t-52 125.5t-97 85.5t-150.5 31.5q-89 0 -158.5 -37.5t-122 -99.5t-88.5 -142.5t-58.5 -166t-32.5 -169.5t-10 -154q0 -80 15.5 -151.5t51.5 -126t96.5 -86.5t150.5 -32zM770 -34
q-145 0 -264 36t-204 110t-131.5 186t-46.5 264q0 128 28.5 246t81.5 220.5t130 186.5t174.5 144t213 93t247.5 33q144 0 263 -35.5t204 -108t132 -184t47 -262.5q0 -127 -28 -245.5t-81.5 -222t-130 -188.5t-174 -145.5t-213.5 -94t-248 -33.5zM670 1626l263 302
q40 46 81 68t92 22t86.5 -22t59.5 -68l160 -302l-83 -51l-248 231l-345 -233zM738 -498q-37 0 -74.5 12t-68 34.5t-49.5 53.5t-19 69q0 40 17.5 71t46.5 51.5t67 31t80 10.5q49 0 89 -9.5t69 -28t45 -47t16 -66.5q0 -41 -18.5 -74.5t-49 -57.5t-70 -37t-81.5 -13z" />
    <glyph glyph-name="Ohorn" unicode="&#x1a0;" horiz-adv-x="1912" 
d="M1775 1451h240q6 -23 9 -49.5t3 -46.5q0 -86 -34.5 -144.5t-90 -97.5t-125.5 -60.5t-141 -33.5q5 -29 7 -60t2 -64q0 -127 -28 -245.5t-81.5 -222t-130 -188.5t-174 -145.5t-213.5 -94t-248 -33.5q-145 0 -264 36t-204 110t-131.5 186t-46.5 264q0 128 28.5 246
t81.5 220.5t130 186.5t174.5 144t213 93t247.5 33q110 0 205.5 -20.5t173 -62.5t135 -106t90.5 -151q52 13 86 29.5t54 39t27.5 51.5t7.5 66q0 18 -3.5 37t-8.5 35zM806 143q88 0 157.5 38t122 100.5t89 143t59 166.5t33 170t10.5 153q0 80 -15.5 151.5t-52 125.5t-97 85.5
t-150.5 31.5q-89 0 -158.5 -37.5t-122 -99.5t-88.5 -142.5t-58.5 -166t-32.5 -169.5t-10 -154q0 -80 15.5 -151.5t51.5 -126t96.5 -86.5t150.5 -32z" />
    <glyph glyph-name="uni1EDA" unicode="&#x1eda;" horiz-adv-x="1912" 
d="M1775 1451h240q6 -23 9 -49.5t3 -46.5q0 -86 -34.5 -144.5t-90 -97.5t-125.5 -60.5t-141 -33.5q5 -29 7 -60t2 -64q0 -127 -28 -245.5t-81.5 -222t-130 -188.5t-174 -145.5t-213.5 -94t-248 -33.5q-145 0 -264 36t-204 110t-131.5 186t-46.5 264q0 128 28.5 246
t81.5 220.5t130 186.5t174.5 144t213 93t247.5 33q110 0 205.5 -20.5t173 -62.5t135 -106t90.5 -151q52 13 86 29.5t54 39t27.5 51.5t7.5 66q0 18 -3.5 37t-8.5 35zM806 143q88 0 157.5 38t122 100.5t89 143t59 166.5t33 170t10.5 153q0 80 -15.5 151.5t-52 125.5t-97 85.5
t-150.5 31.5q-89 0 -158.5 -37.5t-122 -99.5t-88.5 -142.5t-58.5 -166t-32.5 -169.5t-10 -154q0 -80 15.5 -151.5t51.5 -126t96.5 -86.5t150.5 -32zM766 1626q55 75 109.5 152.5t114.5 149.5q19 24 39 41t41.5 28t47 16t56.5 5q22 0 43 -7t37.5 -19.5t26.5 -31.5t10 -43
t-8 -42.5t-20.5 -34t-29 -28.5t-34.5 -25q-87 -60 -179.5 -110t-181.5 -104z" />
    <glyph glyph-name="uni1EDC" unicode="&#x1edc;" horiz-adv-x="1912" 
d="M1775 1451h240q6 -23 9 -49.5t3 -46.5q0 -86 -34.5 -144.5t-90 -97.5t-125.5 -60.5t-141 -33.5q5 -29 7 -60t2 -64q0 -127 -28 -245.5t-81.5 -222t-130 -188.5t-174 -145.5t-213.5 -94t-248 -33.5q-145 0 -264 36t-204 110t-131.5 186t-46.5 264q0 128 28.5 246
t81.5 220.5t130 186.5t174.5 144t213 93t247.5 33q110 0 205.5 -20.5t173 -62.5t135 -106t90.5 -151q52 13 86 29.5t54 39t27.5 51.5t7.5 66q0 18 -3.5 37t-8.5 35zM806 143q88 0 157.5 38t122 100.5t89 143t59 166.5t33 170t10.5 153q0 80 -15.5 151.5t-52 125.5t-97 85.5
t-150.5 31.5q-89 0 -158.5 -37.5t-122 -99.5t-88.5 -142.5t-58.5 -166t-32.5 -169.5t-10 -154q0 -80 15.5 -151.5t51.5 -126t96.5 -86.5t150.5 -32zM1105 1573q-77 48 -131.5 81t-94.5 57t-68.5 41.5t-53.5 34.5q-48 33 -68 60.5t-20 69.5q0 19 10.5 37.5t28.5 32.5
t41.5 22.5t50.5 8.5q24 0 45 -3.5t41 -13t40.5 -27.5t41.5 -46q18 -24 35.5 -49t41 -59t55.5 -80.5t79 -113.5z" />
    <glyph glyph-name="uni1EDE" unicode="&#x1ede;" horiz-adv-x="1912" 
d="M1775 1451h240q6 -23 9 -49.5t3 -46.5q0 -86 -34.5 -144.5t-90 -97.5t-125.5 -60.5t-141 -33.5q5 -29 7 -60t2 -64q0 -127 -28 -245.5t-81.5 -222t-130 -188.5t-174 -145.5t-213.5 -94t-248 -33.5q-145 0 -264 36t-204 110t-131.5 186t-46.5 264q0 128 28.5 246
t81.5 220.5t130 186.5t174.5 144t213 93t247.5 33q110 0 205.5 -20.5t173 -62.5t135 -106t90.5 -151q52 13 86 29.5t54 39t27.5 51.5t7.5 66q0 18 -3.5 37t-8.5 35zM806 143q88 0 157.5 38t122 100.5t89 143t59 166.5t33 170t10.5 153q0 80 -15.5 151.5t-52 125.5t-97 85.5
t-150.5 31.5q-89 0 -158.5 -37.5t-122 -99.5t-88.5 -142.5t-58.5 -166t-32.5 -169.5t-10 -154q0 -80 15.5 -151.5t51.5 -126t96.5 -86.5t150.5 -32zM1115 2052q42 0 80 -8.5t66 -25.5t44.5 -42.5t16.5 -59.5q0 -39 -14.5 -67.5t-37 -50.5t-49.5 -41.5t-52 -41t-44.5 -48
t-27.5 -63.5l-7 -31h-174l8 39q9 40 27.5 68t41.5 49t47.5 38t44.5 35t33 40.5t13 55.5q0 10 -3.5 18.5t-10 14t-16 8.5t-22.5 3q-22 0 -43 -6.5t-40 -16t-35.5 -20.5t-28.5 -21h-83l25 120q14 6 38 15t55.5 17.5t69 15t78.5 6.5z" />
    <glyph glyph-name="uni1EE0" unicode="&#x1ee0;" horiz-adv-x="1912" 
d="M1775 1451h240q6 -23 9 -49.5t3 -46.5q0 -86 -34.5 -144.5t-90 -97.5t-125.5 -60.5t-141 -33.5q5 -29 7 -60t2 -64q0 -127 -28 -245.5t-81.5 -222t-130 -188.5t-174 -145.5t-213.5 -94t-248 -33.5q-145 0 -264 36t-204 110t-131.5 186t-46.5 264q0 128 28.5 246
t81.5 220.5t130 186.5t174.5 144t213 93t247.5 33q110 0 205.5 -20.5t173 -62.5t135 -106t90.5 -151q52 13 86 29.5t54 39t27.5 51.5t7.5 66q0 18 -3.5 37t-8.5 35zM806 143q88 0 157.5 38t122 100.5t89 143t59 166.5t33 170t10.5 153q0 80 -15.5 151.5t-52 125.5t-97 85.5
t-150.5 31.5q-89 0 -158.5 -37.5t-122 -99.5t-88.5 -142.5t-58.5 -166t-32.5 -169.5t-10 -154q0 -80 15.5 -151.5t51.5 -126t96.5 -86.5t150.5 -32zM570 1602q20 70 52 127.5t72.5 99t88 64t98.5 22.5q33 0 76.5 -18.5t88.5 -44.5q42 -25 68.5 -34.5t43.5 -9.5q45 0 72 34
t46 88h118q-19 -69 -49.5 -126.5t-70 -99t-86.5 -64t-99 -22.5q-18 0 -35 3.5t-36 11.5t-41.5 20.5t-49.5 29.5q-39 25 -68 35t-46 10q-41 0 -73.5 -36t-50.5 -90h-119z" />
    <glyph glyph-name="uni1EE2" unicode="&#x1ee2;" horiz-adv-x="1912" 
d="M1775 1451h240q6 -23 9 -49.5t3 -46.5q0 -86 -34.5 -144.5t-90 -97.5t-125.5 -60.5t-141 -33.5q5 -29 7 -60t2 -64q0 -127 -28 -245.5t-81.5 -222t-130 -188.5t-174 -145.5t-213.5 -94t-248 -33.5q-145 0 -264 36t-204 110t-131.5 186t-46.5 264q0 128 28.5 246
t81.5 220.5t130 186.5t174.5 144t213 93t247.5 33q110 0 205.5 -20.5t173 -62.5t135 -106t90.5 -151q52 13 86 29.5t54 39t27.5 51.5t7.5 66q0 18 -3.5 37t-8.5 35zM806 143q88 0 157.5 38t122 100.5t89 143t59 166.5t33 170t10.5 153q0 80 -15.5 151.5t-52 125.5t-97 85.5
t-150.5 31.5q-89 0 -158.5 -37.5t-122 -99.5t-88.5 -142.5t-58.5 -166t-32.5 -169.5t-10 -154q0 -80 15.5 -151.5t51.5 -126t96.5 -86.5t150.5 -32zM747 -498q-37 0 -74.5 12t-68 34.5t-49.5 53.5t-19 69q0 40 17.5 71t46.5 51.5t67 31t80 10.5q49 0 89 -9.5t69 -28t45 -47
t16 -66.5q0 -41 -18.5 -74.5t-49 -57.5t-70 -37t-81.5 -13z" />
    <glyph glyph-name="Oslash" unicode="&#xd8;" horiz-adv-x="1683" 
d="M302 125q-85 75 -131.5 183.5t-46.5 253.5q0 128 28.5 246t81.5 220.5t130 186.5t174.5 144t213 93t247.5 33q111 0 204.5 -22t171.5 -67l117 138h150l-174 -206q85 -75 131 -182t46 -251q0 -127 -28 -245.5t-81.5 -222t-130 -188.5t-174 -145.5t-213.5 -94t-248 -33.5
q-109 0 -202.5 22t-171.5 68l-145 -170h-150zM806 143q88 0 158 36.5t123 97t90 140t60.5 165t34 171.5t10.5 161q0 48 -4 91.5t-15 81.5l-705 -837q34 -48 95.5 -77.5t152.5 -29.5zM1209 1201q-38 52 -97 79.5t-150 27.5q-89 0 -159 -36t-123 -96.5t-89.5 -139t-59.5 -164
t-33.5 -172t-10.5 -161.5q0 -49 4.5 -92t15.5 -82z" />
    <glyph glyph-name="Oslashacute" unicode="&#x1fe;" horiz-adv-x="1683" 
d="M302 125q-85 75 -131.5 183.5t-46.5 253.5q0 128 28.5 246t81.5 220.5t130 186.5t174.5 144t213 93t247.5 33q111 0 204.5 -22t171.5 -67l117 138h150l-174 -206q85 -75 131 -182t46 -251q0 -127 -28 -245.5t-81.5 -222t-130 -188.5t-174 -145.5t-213.5 -94t-248 -33.5
q-109 0 -202.5 22t-171.5 68l-145 -170h-150zM806 143q88 0 158 36.5t123 97t90 140t60.5 165t34 171.5t10.5 161q0 48 -4 91.5t-15 81.5l-705 -837q34 -48 95.5 -77.5t152.5 -29.5zM1209 1201q-38 52 -97 79.5t-150 27.5q-89 0 -159 -36t-123 -96.5t-89.5 -139t-59.5 -164
t-33.5 -172t-10.5 -161.5q0 -49 4.5 -92t15.5 -82zM734 1626q55 75 109.5 152.5t114.5 149.5q19 24 39 41t41.5 28t47 16t56.5 5q22 0 43 -7t37.5 -19.5t26.5 -31.5t10 -43t-8 -42.5t-20.5 -34t-29 -28.5t-34.5 -25q-87 -60 -179.5 -110t-181.5 -104z" />
    <glyph glyph-name="OE" unicode="&#x152;" horiz-adv-x="2315" 
d="M769 -1q-68 0 -142.5 12t-146 39.5t-136.5 72.5t-113.5 111t-77.5 154.5t-29 203.5q0 139 30.5 256.5t87 212.5t137.5 168t181 122t217 74t247 25h162.5h163h162.5t162.5 0.5t162.5 0.5h162.5h163h162.5l-92 -412h-153l-8 192q-1 19 -9.5 28.5t-24.5 9.5h-474l-95 -429
h258q21 0 31 9t21 29l85 156h126l-125 -560h-126l-16 155q-2 20 -8 29.5t-27 9.5h-257l-107 -486h572q14 0 28.5 11t22.5 28l99 214h152l-97 -435h-166.5h-166.5h-166.5t-166.5 -0.5t-166.5 -0.5h-166.5h-166.5h-166.5zM981 179l242 1091h-213q-95 0 -170.5 -27t-133 -75
t-98 -112.5t-66 -140t-37.5 -157.5t-12 -164q0 -88 21.5 -164t66 -131.5t113.5 -87.5t165 -32h122z" />
    <glyph glyph-name="Racute" unicode="&#x154;" horiz-adv-x="1659" 
d="M25 93l165 66q17 7 28.5 16.5t16.5 31.5l231 1041q5 20 -3.5 29.5t-21.5 14.5l-159 68l19 91h749q147 0 240 -28t146 -74t72.5 -104t19.5 -118q-1 -59 -16.5 -112t-42.5 -98.5t-65 -83.5t-83.5 -68.5t-97 -53t-106.5 -36.5l244 -458q11 -20 26.5 -37.5t35.5 -24.5
l185 -62l-21 -93h-358q-52 0 -81 7.5t-47 23t-30 40t-30 59.5l-254 482l-113 40l-98 -445q-5 -22 3.5 -32t23.5 -16l158 -66l-21 -93h-736zM884 779q67 0 117.5 25t84.5 67.5t51 99t17 120.5q0 52 -15 86.5t-43 55.5t-66.5 29.5t-84.5 8.5h-132l-107 -480q17 -3 40.5 -5.5
t48 -4t48 -2t41.5 -0.5zM724 1626q55 75 109.5 152.5t114.5 149.5q19 24 39 41t41.5 28t47 16t56.5 5q22 0 43 -7t37.5 -19.5t26.5 -31.5t10 -43t-8 -42.5t-20.5 -34t-29 -28.5t-34.5 -25q-87 -60 -179.5 -110t-181.5 -104z" />
    <glyph glyph-name="Rcaron" unicode="&#x158;" horiz-adv-x="1659" 
d="M25 93l165 66q17 7 28.5 16.5t16.5 31.5l231 1041q5 20 -3.5 29.5t-21.5 14.5l-159 68l19 91h749q147 0 240 -28t146 -74t72.5 -104t19.5 -118q-1 -59 -16.5 -112t-42.5 -98.5t-65 -83.5t-83.5 -68.5t-97 -53t-106.5 -36.5l244 -458q11 -20 26.5 -37.5t35.5 -24.5
l185 -62l-21 -93h-358q-52 0 -81 7.5t-47 23t-30 40t-30 59.5l-254 482l-113 40l-98 -445q-5 -22 3.5 -32t23.5 -16l158 -66l-21 -93h-736zM884 779q67 0 117.5 25t84.5 67.5t51 99t17 120.5q0 52 -15 86.5t-43 55.5t-66.5 29.5t-84.5 8.5h-132l-107 -480q17 -3 40.5 -5.5
t48 -4t48 -2t41.5 -0.5zM986 1573q-51 0 -86.5 22t-59.5 68l-159 302l83 51l246 -231l347 233l66 -53l-264 -302q-40 -46 -81 -68t-92 -22z" />
    <glyph glyph-name="uni0156" unicode="&#x156;" horiz-adv-x="1659" 
d="M25 93l165 66q17 7 28.5 16.5t16.5 31.5l231 1041q5 20 -3.5 29.5t-21.5 14.5l-159 68l19 91h749q147 0 240 -28t146 -74t72.5 -104t19.5 -118q-1 -59 -16.5 -112t-42.5 -98.5t-65 -83.5t-83.5 -68.5t-97 -53t-106.5 -36.5l244 -458q11 -20 26.5 -37.5t35.5 -24.5
l185 -62l-21 -93h-358q-52 0 -81 7.5t-47 23t-30 40t-30 59.5l-254 482l-113 40l-98 -445q-5 -22 3.5 -32t23.5 -16l158 -66l-21 -93h-736zM884 779q67 0 117.5 25t84.5 67.5t51 99t17 120.5q0 52 -15 86.5t-43 55.5t-66.5 29.5t-84.5 8.5h-132l-107 -480q17 -3 40.5 -5.5
t48 -4t48 -2t41.5 -0.5zM635 -564q38 27 64.5 48.5t45.5 41t31.5 39t22.5 42.5q-27 18 -45.5 33t-30.5 29.5t-17.5 29.5t-5.5 34q0 26 11.5 52t33.5 47t55 34t76 13q39 0 67 -10t45.5 -29t26 -45t8.5 -59q0 -79 -31.5 -137.5t-80 -103t-106 -77.5t-109.5 -61z" />
    <glyph glyph-name="Sacute" unicode="&#x15a;" horiz-adv-x="1393" 
d="M555 -35q-65 0 -130.5 9t-130.5 24t-129.5 33t-128.5 36l94 421h153l9 -202q1 -12 8 -24t21 -21q36 -26 84.5 -44.5t97 -31.5t90 -19t62.5 -6q51 0 102.5 12t92 38.5t66 68.5t25.5 102q0 36 -14.5 65.5t-40.5 53.5t-61.5 43.5t-77.5 36.5q-57 23 -120 47t-124 50
q-51 22 -100 52t-88 70.5t-62.5 92.5t-23.5 119q0 85 29 154.5t78 124.5t115 95.5t139.5 67t151.5 39.5t152 13q63 0 123.5 -7.5t120.5 -19.5t120 -27t121 -30l-92 -410h-152l-11 192q-2 28 -39 51q-41 23 -84.5 38t-83 23.5t-71 11.5t-49.5 3q-42 0 -82.5 -14.5t-72 -41.5
t-50.5 -64t-19 -82q0 -37 15.5 -66.5t43.5 -54t66 -45t82 -38.5q51 -21 105.5 -43t108.5 -46q55 -24 110 -54t98.5 -70.5t70.5 -93t27 -120.5q0 -95 -33 -170t-89 -132t-130 -96.5t-157 -65t-169.5 -37t-166.5 -11.5zM657 1626q55 75 109.5 152.5t114.5 149.5q19 24 39 41
t41.5 28t47 16t56.5 5q22 0 43 -7t37.5 -19.5t26.5 -31.5t10 -43t-8 -42.5t-20.5 -34t-29 -28.5t-34.5 -25q-87 -60 -179.5 -110t-181.5 -104z" />
    <glyph glyph-name="Scircumflex" unicode="&#x15c;" horiz-adv-x="1393" 
d="M555 -35q-65 0 -130.5 9t-130.5 24t-129.5 33t-128.5 36l94 421h153l9 -202q1 -12 8 -24t21 -21q36 -26 84.5 -44.5t97 -31.5t90 -19t62.5 -6q51 0 102.5 12t92 38.5t66 68.5t25.5 102q0 36 -14.5 65.5t-40.5 53.5t-61.5 43.5t-77.5 36.5q-57 23 -120 47t-124 50
q-51 22 -100 52t-88 70.5t-62.5 92.5t-23.5 119q0 85 29 154.5t78 124.5t115 95.5t139.5 67t151.5 39.5t152 13q63 0 123.5 -7.5t120.5 -19.5t120 -27t121 -30l-92 -410h-152l-11 192q-2 28 -39 51q-41 23 -84.5 38t-83 23.5t-71 11.5t-49.5 3q-42 0 -82.5 -14.5t-72 -41.5
t-50.5 -64t-19 -82q0 -37 15.5 -66.5t43.5 -54t66 -45t82 -38.5q51 -21 105.5 -43t108.5 -46q55 -24 110 -54t98.5 -70.5t70.5 -93t27 -120.5q0 -95 -33 -170t-89 -132t-130 -96.5t-157 -65t-169.5 -37t-166.5 -11.5zM548 1626l263 302q40 46 81 68t92 22t86.5 -22t59.5 -68
l160 -302l-83 -51l-248 231l-345 -233z" />
    <glyph glyph-name="Scaron" unicode="&#x160;" horiz-adv-x="1393" 
d="M555 -35q-65 0 -130.5 9t-130.5 24t-129.5 33t-128.5 36l94 421h153l9 -202q1 -12 8 -24t21 -21q36 -26 84.5 -44.5t97 -31.5t90 -19t62.5 -6q51 0 102.5 12t92 38.5t66 68.5t25.5 102q0 36 -14.5 65.5t-40.5 53.5t-61.5 43.5t-77.5 36.5q-57 23 -120 47t-124 50
q-51 22 -100 52t-88 70.5t-62.5 92.5t-23.5 119q0 85 29 154.5t78 124.5t115 95.5t139.5 67t151.5 39.5t152 13q63 0 123.5 -7.5t120.5 -19.5t120 -27t121 -30l-92 -410h-152l-11 192q-2 28 -39 51q-41 23 -84.5 38t-83 23.5t-71 11.5t-49.5 3q-42 0 -82.5 -14.5t-72 -41.5
t-50.5 -64t-19 -82q0 -37 15.5 -66.5t43.5 -54t66 -45t82 -38.5q51 -21 105.5 -43t108.5 -46q55 -24 110 -54t98.5 -70.5t70.5 -93t27 -120.5q0 -95 -33 -170t-89 -132t-130 -96.5t-157 -65t-169.5 -37t-166.5 -11.5zM874 1573q-51 0 -86.5 22t-59.5 68l-159 302l83 51
l246 -231l347 233l66 -53l-264 -302q-40 -46 -81 -68t-92 -22z" />
    <glyph glyph-name="Scedilla" unicode="&#x15e;" horiz-adv-x="1393" 
d="M496 -502q-63 0 -117 13.5t-111 41.5l25 119h42q38 -26 82.5 -43t92.5 -17q24 0 47.5 4.5t42 15.5t30 30t11.5 48q0 27 -17.5 42t-42 21.5t-51 8t-45.5 1.5l35 183q-61 3 -122 12.5t-122 23.5t-121 31t-119 34l94 421h153l9 -202q1 -12 8 -24t21 -21q36 -26 84.5 -44.5
t97 -31.5t90 -19t62.5 -6q51 0 102.5 12t92 38.5t66 68.5t25.5 102q0 36 -14.5 65.5t-40.5 53.5t-61.5 43.5t-77.5 36.5q-57 23 -120 47t-124 50q-51 22 -100 52t-88 70.5t-62.5 92.5t-23.5 119q0 85 29 154.5t78 124.5t115 95.5t139.5 67t151.5 39.5t152 13
q63 0 123.5 -7.5t120.5 -19.5t120 -27t121 -30l-92 -410h-152l-11 192q-2 28 -39 51q-41 23 -84.5 38t-82.5 23.5t-71 11.5t-50 3q-42 0 -82.5 -14.5t-72 -41.5t-50.5 -64t-19 -82q0 -37 15.5 -66.5t43.5 -54t66 -45t82 -38.5q51 -21 105.5 -43t108.5 -46q55 -24 110 -54
t98.5 -70.5t70.5 -92.5t27 -121q0 -87 -28 -157.5t-76 -125t-113 -95t-138.5 -68t-152.5 -43t-156 -20.5l-10 -64q36 -1 74 -10.5t69.5 -28.5t51.5 -49t20 -72q0 -71 -32 -118t-82.5 -75.5t-111.5 -40.5t-119 -12z" />
    <glyph glyph-name="uni0218" unicode="&#x218;" horiz-adv-x="1393" 
d="M555 -35q-65 0 -130.5 9t-130.5 24t-129.5 33t-128.5 36l94 421h153l9 -202q1 -12 8 -24t21 -21q36 -26 84.5 -44.5t97 -31.5t90 -19t62.5 -6q51 0 102.5 12t92 38.5t66 68.5t25.5 102q0 36 -14.5 65.5t-40.5 53.5t-61.5 43.5t-77.5 36.5q-57 23 -120 47t-124 50
q-51 22 -100 52t-88 70.5t-62.5 92.5t-23.5 119q0 85 29 154.5t78 124.5t115 95.5t139.5 67t151.5 39.5t152 13q63 0 123.5 -7.5t120.5 -19.5t120 -27t121 -30l-92 -410h-152l-11 192q-2 28 -39 51q-41 23 -84.5 38t-83 23.5t-71 11.5t-49.5 3q-42 0 -82.5 -14.5t-72 -41.5
t-50.5 -64t-19 -82q0 -37 15.5 -66.5t43.5 -54t66 -45t82 -38.5q51 -21 105.5 -43t108.5 -46q55 -24 110 -54t98.5 -70.5t70.5 -93t27 -120.5q0 -95 -33 -170t-89 -132t-130 -96.5t-157 -65t-169.5 -37t-166.5 -11.5zM357 -564q38 27 64.5 48.5t45.5 41t31.5 39t22.5 42.5
q-27 18 -45.5 33t-30.5 29.5t-17.5 29.5t-5.5 34q0 26 11.5 52t33.5 47t55 34t76 13q39 0 67 -10t45.5 -29t26 -45t8.5 -59q0 -79 -31.5 -137.5t-80 -103t-106 -77.5t-109.5 -61z" />
    <glyph glyph-name="Tcaron" unicode="&#x164;" horiz-adv-x="1513" 
d="M291 93l173 66q18 7 29.5 16.5t16.5 31.5l236 1066h-282q-16 0 -29.5 -10.5t-21.5 -27.5l-98 -214h-152l96 430h1394l-96 -430h-153l-2 214q0 20 -10 29t-24 9h-281l-236 -1066q-5 -22 3.5 -32.5t22.5 -15.5l167 -66l-20 -93h-753zM974 1573q-51 0 -86.5 22t-59.5 68
l-159 302l83 51l246 -231l347 233l66 -53l-264 -302q-40 -46 -81 -68t-92 -22z" />
    <glyph glyph-name="uni0162" unicode="&#x162;" horiz-adv-x="1513" 
d="M555 -502q-63 0 -117 13.5t-111 41.5l25 119h42q38 -26 82.5 -43t92.5 -17q24 0 47.5 4.5t42 15.5t30 30t11.5 48q0 27 -17.5 42t-42 21.5t-51 8t-45.5 1.5l41 217h-314l20 93l173 66q18 7 29.5 16.5t16.5 31.5l236 1066h-282q-16 0 -29.5 -10.5t-21.5 -27.5l-98 -214
h-152l96 430h1394l-96 -430h-153l-2 214q0 20 -10 29t-24 9h-281l-236 -1066q-5 -22 3.5 -32.5t22.5 -15.5l167 -66l-20 -93h-324l-15 -96q36 -1 74 -10.5t69.5 -28.5t51.5 -49t20 -72q0 -71 -32 -118t-82.5 -75.5t-111.5 -40.5t-119 -12z" />
    <glyph glyph-name="uni021A" unicode="&#x21a;" horiz-adv-x="1513" 
d="M291 93l173 66q18 7 29.5 16.5t16.5 31.5l236 1066h-282q-16 0 -29.5 -10.5t-21.5 -27.5l-98 -214h-152l96 430h1394l-96 -430h-153l-2 214q0 20 -10 29t-24 9h-281l-236 -1066q-5 -22 3.5 -32.5t22.5 -15.5l167 -66l-20 -93h-753zM405 -564q38 27 64.5 48.5t45.5 41
t31.5 39t22.5 42.5q-27 18 -45.5 33t-30.5 29.5t-17.5 29.5t-5.5 34q0 26 11.5 52t33.5 47t55 34t76 13q39 0 67 -10t45.5 -29t26 -45t8.5 -59q0 -79 -31.5 -137.5t-80 -103t-106 -77.5t-109.5 -61z" />
    <glyph glyph-name="Tbar" unicode="&#x166;" horiz-adv-x="1513" 
d="M291 93l173 66q18 7 29.5 16.5t16.5 31.5l101 459h-258l36 168h260l97 439h-282q-16 0 -29.5 -10.5t-21.5 -27.5l-98 -214h-152l96 430h1394l-96 -430h-153l-2 214q0 20 -10 29t-24 9h-281l-97 -439h272l-36 -168h-274l-101 -459q-5 -22 3.5 -32.5t22.5 -15.5l167 -66
l-20 -93h-753z" />
    <glyph glyph-name="Ugrave" unicode="&#xd9;" horiz-adv-x="1789" 
d="M797 -35q-137 0 -239 34t-170.5 89.5t-102.5 125t-34 140.5q0 20 2.5 43t6 45.5t8 43.5t8.5 37l160 725q5 20 -4.5 28.5t-23.5 15.5l-155 68l20 91h735l-18 -91l-165 -68q-14 -6 -27 -15t-18 -29l-146 -666q-2 -11 -5 -28t-6 -36.5t-5.5 -39.5t-2.5 -36q0 -46 11.5 -93.5
t43 -86t86 -63t140.5 -24.5q105 0 176.5 35.5t117.5 88t70.5 112t35.5 108.5l159 723q4 18 -4.5 27.5t-20.5 15.5l-155 75l20 91h593l-20 -91l-166 -75q-15 -7 -27.5 -15t-17.5 -28l-176 -800q-19 -85 -60 -153.5t-97 -121.5t-122 -91t-136 -63t-139 -36.5t-130 -11.5z
M1205 1573q-77 48 -131.5 81t-94.5 57t-68.5 41.5t-53.5 34.5q-48 33 -68 60.5t-20 69.5q0 19 10.5 37.5t28.5 32.5t41.5 22.5t50.5 8.5q24 0 45 -3.5t41 -13t40.5 -27.5t41.5 -46q18 -24 35.5 -49t41 -59t55.5 -80.5t79 -113.5z" />
    <glyph glyph-name="Uacute" unicode="&#xda;" horiz-adv-x="1789" 
d="M797 -35q-137 0 -239 34t-170.5 89.5t-102.5 125t-34 140.5q0 20 2.5 43t6 45.5t8 43.5t8.5 37l160 725q5 20 -4.5 28.5t-23.5 15.5l-155 68l20 91h735l-18 -91l-165 -68q-14 -6 -27 -15t-18 -29l-146 -666q-2 -11 -5 -28t-6 -36.5t-5.5 -39.5t-2.5 -36q0 -46 11.5 -93.5
t43 -86t86 -63t140.5 -24.5q105 0 176.5 35.5t117.5 88t70.5 112t35.5 108.5l159 723q4 18 -4.5 27.5t-20.5 15.5l-155 75l20 91h593l-20 -91l-166 -75q-15 -7 -27.5 -15t-17.5 -28l-176 -800q-19 -85 -60 -153.5t-97 -121.5t-122 -91t-136 -63t-139 -36.5t-130 -11.5z
M886 1626q55 75 109.5 152.5t114.5 149.5q19 24 39 41t41.5 28t47 16t56.5 5q22 0 43 -7t37.5 -19.5t26.5 -31.5t10 -43t-8 -42.5t-20.5 -34t-29 -28.5t-34.5 -25q-87 -60 -179.5 -110t-181.5 -104z" />
    <glyph glyph-name="Ucircumflex" unicode="&#xdb;" horiz-adv-x="1789" 
d="M797 -35q-137 0 -239 34t-170.5 89.5t-102.5 125t-34 140.5q0 20 2.5 43t6 45.5t8 43.5t8.5 37l160 725q5 20 -4.5 28.5t-23.5 15.5l-155 68l20 91h735l-18 -91l-165 -68q-14 -6 -27 -15t-18 -29l-146 -666q-2 -11 -5 -28t-6 -36.5t-5.5 -39.5t-2.5 -36q0 -46 11.5 -93.5
t43 -86t86 -63t140.5 -24.5q105 0 176.5 35.5t117.5 88t70.5 112t35.5 108.5l159 723q4 18 -4.5 27.5t-20.5 15.5l-155 75l20 91h593l-20 -91l-166 -75q-15 -7 -27.5 -15t-17.5 -28l-176 -800q-19 -85 -60 -153.5t-97 -121.5t-122 -91t-136 -63t-139 -36.5t-130 -11.5z
M766 1626l263 302q40 46 81 68t92 22t86.5 -22t59.5 -68l160 -302l-83 -51l-248 231l-345 -233z" />
    <glyph glyph-name="Utilde" unicode="&#x168;" horiz-adv-x="1789" 
d="M797 -35q-137 0 -239 34t-170.5 89.5t-102.5 125t-34 140.5q0 20 2.5 43t6 45.5t8 43.5t8.5 37l160 725q5 20 -4.5 28.5t-23.5 15.5l-155 68l20 91h735l-18 -91l-165 -68q-14 -6 -27 -15t-18 -29l-146 -666q-2 -11 -5 -28t-6 -36.5t-5.5 -39.5t-2.5 -36q0 -46 11.5 -93.5
t43 -86t86 -63t140.5 -24.5q105 0 176.5 35.5t117.5 88t70.5 112t35.5 108.5l159 723q4 18 -4.5 27.5t-20.5 15.5l-155 75l20 91h593l-20 -91l-166 -75q-15 -7 -27.5 -15t-17.5 -28l-176 -800q-19 -85 -60 -153.5t-97 -121.5t-122 -91t-136 -63t-139 -36.5t-130 -11.5z
M762 1602q20 70 52 127.5t72.5 99t88 64t98.5 22.5q33 0 76.5 -18.5t88.5 -44.5q42 -25 68.5 -34.5t43.5 -9.5q45 0 72 34t46 88h118q-19 -69 -49.5 -126.5t-70 -99t-86.5 -64t-99 -22.5q-18 0 -35 3.5t-36 11.5t-41.5 20.5t-49.5 29.5q-39 25 -68 35t-46 10
q-41 0 -73.5 -36t-50.5 -90h-119z" />
    <glyph glyph-name="Udieresis" unicode="&#xdc;" horiz-adv-x="1789" 
d="M797 -35q-137 0 -239 34t-170.5 89.5t-102.5 125t-34 140.5q0 20 2.5 43t6 45.5t8 43.5t8.5 37l160 725q5 20 -4.5 28.5t-23.5 15.5l-155 68l20 91h735l-18 -91l-165 -68q-14 -6 -27 -15t-18 -29l-146 -666q-2 -11 -5 -28t-6 -36.5t-5.5 -39.5t-2.5 -36q0 -46 11.5 -93.5
t43 -86t86 -63t140.5 -24.5q105 0 176.5 35.5t117.5 88t70.5 112t35.5 108.5l159 723q4 18 -4.5 27.5t-20.5 15.5l-155 75l20 91h593l-20 -91l-166 -75q-15 -7 -27.5 -15t-17.5 -28l-176 -800q-19 -85 -60 -153.5t-97 -121.5t-122 -91t-136 -63t-139 -36.5t-130 -11.5z
M888 1612q-32 0 -60 9.5t-49.5 28t-34 45t-12.5 60.5q0 37 12.5 64.5t34 46.5t49.5 28.5t60 9.5q36 0 66 -9t51.5 -26t33 -43.5t11.5 -60.5q0 -36 -12.5 -64.5t-34 -48t-51.5 -30t-64 -10.5zM1380 1612q-32 0 -60 9.5t-49.5 28t-34 45t-12.5 60.5q0 37 12.5 64.5t34 46.5
t49.5 28.5t60 9.5q36 0 66 -9t51.5 -26t33 -43.5t11.5 -60.5q0 -36 -12.5 -64.5t-34 -48t-51.5 -30t-64 -10.5z" />
    <glyph glyph-name="Umacron" unicode="&#x16a;" horiz-adv-x="1789" 
d="M797 -35q-137 0 -239 34t-170.5 89.5t-102.5 125t-34 140.5q0 20 2.5 43t6 45.5t8 43.5t8.5 37l160 725q5 20 -4.5 28.5t-23.5 15.5l-155 68l20 91h735l-18 -91l-165 -68q-14 -6 -27 -15t-18 -29l-146 -666q-2 -11 -5 -28t-6 -36.5t-5.5 -39.5t-2.5 -36q0 -46 11.5 -93.5
t43 -86t86 -63t140.5 -24.5q105 0 176.5 35.5t117.5 88t70.5 112t35.5 108.5l159 723q4 18 -4.5 27.5t-20.5 15.5l-155 75l20 91h593l-20 -91l-166 -75q-15 -7 -27.5 -15t-17.5 -28l-176 -800q-19 -85 -60 -153.5t-97 -121.5t-122 -91t-136 -63t-139 -36.5t-130 -11.5z
M824 1868h743l-44 -192h-743z" />
    <glyph glyph-name="Ubreve" unicode="&#x16c;" horiz-adv-x="1789" 
d="M797 -35q-137 0 -239 34t-170.5 89.5t-102.5 125t-34 140.5q0 20 2.5 43t6 45.5t8 43.5t8.5 37l160 725q5 20 -4.5 28.5t-23.5 15.5l-155 68l20 91h735l-18 -91l-165 -68q-14 -6 -27 -15t-18 -29l-146 -666q-2 -11 -5 -28t-6 -36.5t-5.5 -39.5t-2.5 -36q0 -46 11.5 -93.5
t43 -86t86 -63t140.5 -24.5q105 0 176.5 35.5t117.5 88t70.5 112t35.5 108.5l159 723q4 18 -4.5 27.5t-20.5 15.5l-155 75l20 91h593l-20 -91l-166 -75q-15 -7 -27.5 -15t-17.5 -28l-176 -800q-19 -85 -60 -153.5t-97 -121.5t-122 -91t-136 -63t-139 -36.5t-130 -11.5z
M1174 1595q-79 0 -140 24.5t-101.5 74t-59.5 125t-15 177.5l115 20q10 -51 25 -91.5t41 -69t66 -43.5t101 -15q58 0 102.5 14.5t80 42.5t64 68.5t55.5 93.5l109 -20q-29 -102 -71.5 -177.5t-99 -125t-125 -74t-147.5 -24.5z" />
    <glyph glyph-name="Uring" unicode="&#x16e;" horiz-adv-x="1789" 
d="M797 -35q-137 0 -239 34t-170.5 89.5t-102.5 125t-34 140.5q0 20 2.5 43t6 45.5t8 43.5t8.5 37l160 725q5 20 -4.5 28.5t-23.5 15.5l-155 68l20 91h735l-18 -91l-165 -68q-14 -6 -27 -15t-18 -29l-146 -666q-2 -11 -5 -28t-6 -36.5t-5.5 -39.5t-2.5 -36q0 -46 11.5 -93.5
t43 -86t86 -63t140.5 -24.5q105 0 176.5 35.5t117.5 88t70.5 112t35.5 108.5l159 723q4 18 -4.5 27.5t-20.5 15.5l-155 75l20 91h593l-20 -91l-166 -75q-15 -7 -27.5 -15t-17.5 -28l-176 -800q-19 -85 -60 -153.5t-97 -121.5t-122 -91t-136 -63t-139 -36.5t-130 -11.5z
M1160 1669q37 0 63 17t42 44t23 60t7 65q0 23 -5.5 45.5t-17.5 40t-30.5 28.5t-44.5 11q-38 0 -65 -17t-43.5 -43.5t-24 -59.5t-7.5 -66q0 -24 6 -47t18.5 -40t32 -27.5t46.5 -10.5zM1127 1573q-53 0 -99 12t-80.5 37.5t-54.5 65t-20 94.5q0 72 29 127t78.5 92t114 56
t136.5 19q52 0 97 -12t78 -37t52 -64.5t19 -93.5q0 -71 -28 -126.5t-75.5 -93t-111 -57t-135.5 -19.5z" />
    <glyph glyph-name="Uhungarumlaut" unicode="&#x170;" horiz-adv-x="1789" 
d="M797 -35q-137 0 -239 34t-170.5 89.5t-102.5 125t-34 140.5q0 20 2.5 43t6 45.5t8 43.5t8.5 37l160 725q5 20 -4.5 28.5t-23.5 15.5l-155 68l20 91h735l-18 -91l-165 -68q-14 -6 -27 -15t-18 -29l-146 -666q-2 -11 -5 -28t-6 -36.5t-5.5 -39.5t-2.5 -36q0 -46 11.5 -93.5
t43 -86t86 -63t140.5 -24.5q105 0 176.5 35.5t117.5 88t70.5 112t35.5 108.5l159 723q4 18 -4.5 27.5t-20.5 15.5l-155 75l20 91h593l-20 -91l-166 -75q-15 -7 -27.5 -15t-17.5 -28l-176 -800q-19 -85 -60 -153.5t-97 -121.5t-122 -91t-136 -63t-139 -36.5t-130 -11.5z
M895 1626l158 302q16 29 34.5 46.5t39 27.5t42.5 13t46 3q27 0 46.5 -8.5t32 -23t19 -32.5t6.5 -37q0 -21 -4 -38.5t-12 -33t-20 -29.5t-29 -29l-276 -214zM1290 1626l158 302q16 29 34.5 46.5t39 27.5t42.5 13t46 3q53 0 78.5 -30.5t25.5 -70.5q0 -21 -4 -38.5t-12.5 -33
t-20.5 -29.5t-28 -29l-276 -214z" />
    <glyph glyph-name="uni1EE6" unicode="&#x1ee6;" horiz-adv-x="1789" 
d="M797 -35q-137 0 -239 34t-170.5 89.5t-102.5 125t-34 140.5q0 20 2.5 43t6 45.5t8 43.5t8.5 37l160 725q5 20 -4.5 28.5t-23.5 15.5l-155 68l20 91h735l-18 -91l-165 -68q-14 -6 -27 -15t-18 -29l-146 -666q-2 -11 -5 -28t-6 -36.5t-5.5 -39.5t-2.5 -36q0 -46 11.5 -93.5
t43 -86t86 -63t140.5 -24.5q105 0 176.5 35.5t117.5 88t70.5 112t35.5 108.5l159 723q4 18 -4.5 27.5t-20.5 15.5l-155 75l20 91h593l-20 -91l-166 -75q-15 -7 -27.5 -15t-17.5 -28l-176 -800q-19 -85 -60 -153.5t-97 -121.5t-122 -91t-136 -63t-139 -36.5t-130 -11.5z
M1307 2053q42 0 80 -8.5t66 -25.5t44.5 -42.5t16.5 -59.5q0 -39 -14.5 -67.5t-37 -50.5t-49.5 -41.5t-52 -41t-44.5 -48t-27.5 -63.5l-7 -31h-174l8 39q9 40 27.5 68t41.5 49t47.5 38t44.5 35t33 40.5t13 55.5q0 10 -3.5 18.5t-10 14t-16 8.5t-22.5 3q-22 0 -43 -6.5
t-40 -16t-35.5 -20.5t-28.5 -21h-83l25 120q14 6 38 15t55.5 17.5t69 15t78.5 6.5z" />
    <glyph glyph-name="Uogonek" unicode="&#x172;" horiz-adv-x="1789" 
d="M913 -462q-42 0 -83.5 8.5t-74.5 28.5t-54 53t-21 82q0 42 14.5 78.5t38.5 68.5t56 59.5t67 51.5q-30 -3 -59 -3q-137 0 -239 34t-170.5 89.5t-102.5 125t-34 140.5q0 20 2.5 43t6 45.5t8 43.5t8.5 37l160 725q5 20 -4.5 28.5t-23.5 15.5l-155 68l20 91h735l-18 -91
l-165 -68q-14 -6 -27 -15t-18 -29l-146 -666q-2 -11 -5 -28t-6 -36.5t-5.5 -39.5t-2.5 -36q0 -46 11.5 -93.5t43 -86t86 -63t140.5 -24.5q105 0 176.5 35.5t117.5 88t70.5 112t35.5 108.5l159 723q4 18 -4.5 27.5t-20.5 15.5l-155 75l20 91h593l-20 -91l-166 -75
q-15 -7 -27.5 -15t-17.5 -28l-176 -800q-16 -72 -48.5 -131.5t-76.5 -108t-96.5 -86.5t-109.5 -68q-35 -18 -78 -47t-80 -65t-62 -78.5t-25 -88.5q0 -37 22 -58.5t59 -21.5q26 0 56 11t54 22h48l-2 -132q-24 -12 -53.5 -21.5t-59.5 -16.5t-60 -10.5t-56 -3.5z" />
    <glyph glyph-name="uni1EE4" unicode="&#x1ee4;" horiz-adv-x="1789" 
d="M797 -35q-137 0 -239 34t-170.5 89.5t-102.5 125t-34 140.5q0 20 2.5 43t6 45.5t8 43.5t8.5 37l160 725q5 20 -4.5 28.5t-23.5 15.5l-155 68l20 91h735l-18 -91l-165 -68q-14 -6 -27 -15t-18 -29l-146 -666q-2 -11 -5 -28t-6 -36.5t-5.5 -39.5t-2.5 -36q0 -46 11.5 -93.5
t43 -86t86 -63t140.5 -24.5q105 0 176.5 35.5t117.5 88t70.5 112t35.5 108.5l159 723q4 18 -4.5 27.5t-20.5 15.5l-155 75l20 91h593l-20 -91l-166 -75q-15 -7 -27.5 -15t-17.5 -28l-176 -800q-19 -85 -60 -153.5t-97 -121.5t-122 -91t-136 -63t-139 -36.5t-130 -11.5z
M775 -498q-37 0 -74.5 12t-68 34.5t-49.5 53.5t-19 69q0 40 17.5 71t46.5 51.5t67 31t80 10.5q49 0 89 -9.5t69 -28t45 -47t16 -66.5q0 -41 -18.5 -74.5t-49 -57.5t-70 -37t-81.5 -13z" />
    <glyph glyph-name="Uhorn" unicode="&#x1af;" horiz-adv-x="2091" 
d="M1961 1451h240q6 -23 9 -48.5t3 -45.5q0 -72 -28.5 -125t-76 -90.5t-109.5 -62t-129.5 -40t-136.5 -23.5t-129 -13l-123 -561q-19 -85 -60 -153.5t-97 -121.5t-122 -91t-136 -63t-139 -36.5t-130 -11.5q-137 0 -239 34t-170.5 89.5t-102.5 125t-34 140.5q0 20 2.5 43
t6 45.5t8 43.5t8.5 37l160 725q5 20 -4.5 28.5t-23.5 15.5l-155 68l20 91h735l-18 -91l-165 -68q-14 -6 -27 -15t-18 -29l-146 -666q-2 -11 -5 -28t-6 -36.5t-5.5 -39.5t-2.5 -36q0 -46 11.5 -93.5t43 -86t86 -63t140.5 -24.5q105 0 176.5 35.5t117.5 88t70.5 112
t35.5 108.5l159 723q4 18 -4.5 27.5t-20.5 15.5l-155 75l20 91h544l-20 -91l-120 -66q-15 -8 -26 -20.5t-16 -31.5l-25 -112q104 7 169 23.5t101 42t49 59.5t13 78q0 18 -3.5 36t-8.5 34z" />
    <glyph glyph-name="uni1EE8" unicode="&#x1ee8;" horiz-adv-x="2091" 
d="M1961 1451h240q6 -23 9 -48.5t3 -45.5q0 -72 -28.5 -125t-76 -90.5t-109.5 -62t-129.5 -40t-136.5 -23.5t-129 -13l-123 -561q-19 -85 -60 -153.5t-97 -121.5t-122 -91t-136 -63t-139 -36.5t-130 -11.5q-137 0 -239 34t-170.5 89.5t-102.5 125t-34 140.5q0 20 2.5 43
t6 45.5t8 43.5t8.5 37l160 725q5 20 -4.5 28.5t-23.5 15.5l-155 68l20 91h735l-18 -91l-165 -68q-14 -6 -27 -15t-18 -29l-146 -666q-2 -11 -5 -28t-6 -36.5t-5.5 -39.5t-2.5 -36q0 -46 11.5 -93.5t43 -86t86 -63t140.5 -24.5q105 0 176.5 35.5t117.5 88t70.5 112
t35.5 108.5l159 723q4 18 -4.5 27.5t-20.5 15.5l-155 75l20 91h544l-20 -91l-120 -66q-15 -8 -26 -20.5t-16 -31.5l-25 -112q104 7 169 23.5t101 42t49 59.5t13 78q0 18 -3.5 36t-8.5 34zM884 1626q55 75 109.5 152.5t114.5 149.5q19 24 39 41t41.5 28t47 16t56.5 5
q22 0 43 -7t37.5 -19.5t26.5 -31.5t10 -43t-8 -42.5t-20.5 -34t-29 -28.5t-34.5 -25q-87 -60 -179.5 -110t-181.5 -104z" />
    <glyph glyph-name="uni1EEA" unicode="&#x1eea;" horiz-adv-x="2091" 
d="M1961 1451h240q6 -23 9 -48.5t3 -45.5q0 -72 -28.5 -125t-76 -90.5t-109.5 -62t-129.5 -40t-136.5 -23.5t-129 -13l-123 -561q-19 -85 -60 -153.5t-97 -121.5t-122 -91t-136 -63t-139 -36.5t-130 -11.5q-137 0 -239 34t-170.5 89.5t-102.5 125t-34 140.5q0 20 2.5 43
t6 45.5t8 43.5t8.5 37l160 725q5 20 -4.5 28.5t-23.5 15.5l-155 68l20 91h735l-18 -91l-165 -68q-14 -6 -27 -15t-18 -29l-146 -666q-2 -11 -5 -28t-6 -36.5t-5.5 -39.5t-2.5 -36q0 -46 11.5 -93.5t43 -86t86 -63t140.5 -24.5q105 0 176.5 35.5t117.5 88t70.5 112
t35.5 108.5l159 723q4 18 -4.5 27.5t-20.5 15.5l-155 75l20 91h544l-20 -91l-120 -66q-15 -8 -26 -20.5t-16 -31.5l-25 -112q104 7 169 23.5t101 42t49 59.5t13 78q0 18 -3.5 36t-8.5 34zM1327 1573q-77 48 -131.5 81t-94.5 57t-68.5 41.5t-53.5 34.5q-48 33 -68 60.5
t-20 69.5q0 19 10.5 37.5t28.5 32.5t41.5 22.5t50.5 8.5q24 0 45 -3.5t41 -13t40.5 -27.5t41.5 -46q18 -24 35.5 -49t41 -59t55.5 -80.5t79 -113.5z" />
    <glyph glyph-name="uni1EEC" unicode="&#x1eec;" horiz-adv-x="2091" 
d="M1961 1451h240q6 -23 9 -48.5t3 -45.5q0 -72 -28.5 -125t-76 -90.5t-109.5 -62t-129.5 -40t-136.5 -23.5t-129 -13l-123 -561q-19 -85 -60 -153.5t-97 -121.5t-122 -91t-136 -63t-139 -36.5t-130 -11.5q-137 0 -239 34t-170.5 89.5t-102.5 125t-34 140.5q0 20 2.5 43
t6 45.5t8 43.5t8.5 37l160 725q5 20 -4.5 28.5t-23.5 15.5l-155 68l20 91h735l-18 -91l-165 -68q-14 -6 -27 -15t-18 -29l-146 -666q-2 -11 -5 -28t-6 -36.5t-5.5 -39.5t-2.5 -36q0 -46 11.5 -93.5t43 -86t86 -63t140.5 -24.5q105 0 176.5 35.5t117.5 88t70.5 112
t35.5 108.5l159 723q4 18 -4.5 27.5t-20.5 15.5l-155 75l20 91h544l-20 -91l-120 -66q-15 -8 -26 -20.5t-16 -31.5l-25 -112q104 7 169 23.5t101 42t49 59.5t13 78q0 18 -3.5 36t-8.5 34zM1279 2053q42 0 80 -8.5t66 -25.5t44.5 -42.5t16.5 -59.5q0 -39 -14.5 -67.5
t-37 -50.5t-49.5 -41.5t-52 -41t-44.5 -48t-27.5 -63.5l-7 -31h-174l8 39q9 40 27.5 68t41.5 49t47.5 38t44.5 35t33 40.5t13 55.5q0 10 -3.5 18.5t-10 14t-16 8.5t-22.5 3q-22 0 -43 -6.5t-40 -16t-35.5 -20.5t-28.5 -21h-83l25 120q14 6 38 15t55.5 17.5t69 15t78.5 6.5z
" />
    <glyph glyph-name="uni1EEE" unicode="&#x1eee;" horiz-adv-x="2091" 
d="M1961 1451h240q6 -23 9 -48.5t3 -45.5q0 -72 -28.5 -125t-76 -90.5t-109.5 -62t-129.5 -40t-136.5 -23.5t-129 -13l-123 -561q-19 -85 -60 -153.5t-97 -121.5t-122 -91t-136 -63t-139 -36.5t-130 -11.5q-137 0 -239 34t-170.5 89.5t-102.5 125t-34 140.5q0 20 2.5 43
t6 45.5t8 43.5t8.5 37l160 725q5 20 -4.5 28.5t-23.5 15.5l-155 68l20 91h735l-18 -91l-165 -68q-14 -6 -27 -15t-18 -29l-146 -666q-2 -11 -5 -28t-6 -36.5t-5.5 -39.5t-2.5 -36q0 -46 11.5 -93.5t43 -86t86 -63t140.5 -24.5q105 0 176.5 35.5t117.5 88t70.5 112
t35.5 108.5l159 723q4 18 -4.5 27.5t-20.5 15.5l-155 75l20 91h544l-20 -91l-120 -66q-15 -8 -26 -20.5t-16 -31.5l-25 -112q104 7 169 23.5t101 42t49 59.5t13 78q0 18 -3.5 36t-8.5 34zM734 1602q20 70 52 127.5t72.5 99t88 64t98.5 22.5q33 0 76.5 -18.5t88.5 -44.5
q42 -25 68.5 -34.5t43.5 -9.5q45 0 72 34t46 88h118q-19 -69 -49.5 -126.5t-70 -99t-86.5 -64t-99 -22.5q-18 0 -35 3.5t-36 11.5t-41.5 20.5t-49.5 29.5q-39 25 -68 35t-46 10q-41 0 -73.5 -36t-50.5 -90h-119z" />
    <glyph glyph-name="uni1EF0" unicode="&#x1ef0;" horiz-adv-x="2091" 
d="M1961 1451h240q6 -23 9 -48.5t3 -45.5q0 -72 -28.5 -125t-76 -90.5t-109.5 -62t-129.5 -40t-136.5 -23.5t-129 -13l-123 -561q-19 -85 -60 -153.5t-97 -121.5t-122 -91t-136 -63t-139 -36.5t-130 -11.5q-137 0 -239 34t-170.5 89.5t-102.5 125t-34 140.5q0 20 2.5 43
t6 45.5t8 43.5t8.5 37l160 725q5 20 -4.5 28.5t-23.5 15.5l-155 68l20 91h735l-18 -91l-165 -68q-14 -6 -27 -15t-18 -29l-146 -666q-2 -11 -5 -28t-6 -36.5t-5.5 -39.5t-2.5 -36q0 -46 11.5 -93.5t43 -86t86 -63t140.5 -24.5q105 0 176.5 35.5t117.5 88t70.5 112
t35.5 108.5l159 723q4 18 -4.5 27.5t-20.5 15.5l-155 75l20 91h544l-20 -91l-120 -66q-15 -8 -26 -20.5t-16 -31.5l-25 -112q104 7 169 23.5t101 42t49 59.5t13 78q0 18 -3.5 36t-8.5 34zM775 -498q-37 0 -74.5 12t-68 34.5t-49.5 53.5t-19 69q0 40 17.5 71t46.5 51.5t67 31
t80 10.5q49 0 89 -9.5t69 -28t45 -47t16 -66.5q0 -41 -18.5 -74.5t-49 -57.5t-70 -37t-81.5 -13z" />
    <glyph glyph-name="Wgrave" unicode="&#x1e80;" horiz-adv-x="2346" 
d="M319 1250q-3 33 -33 50l-110 60l20 91h641l-20 -91l-170 -77l67 -751l4 -139h23l389 761l165 267h231l95 -897l10 -137h21l484 889l-163 84l21 91h534l-21 -91l-111 -64q-16 -9 -33 -22t-25 -28l-560 -999l-161 -261h-273l-88 845l-3 135h-20l-365 -719l-164 -261h-272z
M1625 1573q-77 48 -131.5 81t-94.5 57t-68.5 41.5t-53.5 34.5q-48 33 -68 60.5t-20 69.5q0 19 10.5 37.5t28.5 32.5t41.5 22.5t50.5 8.5q24 0 45 -3.5t41 -13t40.5 -27.5t41.5 -46q18 -24 35.5 -49t41 -59t55.5 -80.5t79 -113.5z" />
    <glyph glyph-name="Wacute" unicode="&#x1e82;" horiz-adv-x="2346" 
d="M319 1250q-3 33 -33 50l-110 60l20 91h641l-20 -91l-170 -77l67 -751l4 -139h23l389 761l165 267h231l95 -897l10 -137h21l484 889l-163 84l21 91h534l-21 -91l-111 -64q-16 -9 -33 -22t-25 -28l-560 -999l-161 -261h-273l-88 845l-3 135h-20l-365 -719l-164 -261h-272z
M1182 1626q55 75 109.5 152.5t114.5 149.5q19 24 39 41t41.5 28t47 16t56.5 5q22 0 43 -7t37.5 -19.5t26.5 -31.5t10 -43t-8 -42.5t-20.5 -34t-29 -28.5t-34.5 -25q-87 -60 -179.5 -110t-181.5 -104z" />
    <glyph glyph-name="Wcircumflex" unicode="&#x174;" horiz-adv-x="2346" 
d="M319 1250q-3 33 -33 50l-110 60l20 91h641l-20 -91l-170 -77l67 -751l4 -139h23l389 761l165 267h231l95 -897l10 -137h21l484 889l-163 84l21 91h534l-21 -91l-111 -64q-16 -9 -33 -22t-25 -28l-560 -999l-161 -261h-273l-88 845l-3 135h-20l-365 -719l-164 -261h-272z
M1073 1626l263 302q40 46 81 68t92 22t86.5 -22t59.5 -68l160 -302l-83 -51l-248 231l-345 -233z" />
    <glyph glyph-name="Wdieresis" unicode="&#x1e84;" horiz-adv-x="2346" 
d="M319 1250q-3 33 -33 50l-110 60l20 91h641l-20 -91l-170 -77l67 -751l4 -139h23l389 761l165 267h231l95 -897l10 -137h21l484 889l-163 84l21 91h534l-21 -91l-111 -64q-16 -9 -33 -22t-25 -28l-560 -999l-161 -261h-273l-88 845l-3 135h-20l-365 -719l-164 -261h-272z
M1195 1612q-32 0 -60 9.5t-49.5 28t-34 45t-12.5 60.5q0 37 12.5 64.5t34 46.5t49.5 28.5t60 9.5q36 0 66 -9t51.5 -26t33 -43.5t11.5 -60.5q0 -36 -12.5 -64.5t-34 -48t-51.5 -30t-64 -10.5zM1687 1612q-32 0 -60 9.5t-49.5 28t-34 45t-12.5 60.5q0 37 12.5 64.5t34 46.5
t49.5 28.5t60 9.5q36 0 66 -9t51.5 -26t33 -43.5t11.5 -60.5q0 -36 -12.5 -64.5t-34 -48t-51.5 -30t-64 -10.5z" />
    <glyph glyph-name="Ygrave" unicode="&#x1ef2;" horiz-adv-x="1518" 
d="M301 93l171 66q18 7 30.5 16.5t17.5 31.5l76 339l-254 704q-5 14 -12.5 28.5t-22.5 21.5l-126 60l21 91h659l-21 -91l-154 -75l147 -403l34 -122h21l403 517l-147 83l21 91h530l-21 -91l-125 -64q-16 -8 -32 -21.5t-28 -28.5l-550 -688l-78 -351q-5 -22 2 -32.5t21 -15.5
l170 -66l-21 -93h-753zM1209 1573q-77 48 -131.5 81t-94.5 57t-68.5 41.5t-53.5 34.5q-48 33 -68 60.5t-20 69.5q0 19 10.5 37.5t28.5 32.5t41.5 22.5t50.5 8.5q24 0 45 -3.5t41 -13t40.5 -27.5t41.5 -46q18 -24 35.5 -49t41 -59t55.5 -80.5t79 -113.5z" />
    <glyph glyph-name="Yacute" unicode="&#xdd;" horiz-adv-x="1518" 
d="M301 93l171 66q18 7 30.5 16.5t17.5 31.5l76 339l-254 704q-5 14 -12.5 28.5t-22.5 21.5l-126 60l21 91h659l-21 -91l-154 -75l147 -403l34 -122h21l403 517l-147 83l21 91h530l-21 -91l-125 -64q-16 -8 -32 -21.5t-28 -28.5l-550 -688l-78 -351q-5 -22 2 -32.5t21 -15.5
l170 -66l-21 -93h-753zM766 1626q55 75 109.5 152.5t114.5 149.5q19 24 39 41t41.5 28t47 16t56.5 5q22 0 43 -7t37.5 -19.5t26.5 -31.5t10 -43t-8 -42.5t-20.5 -34t-29 -28.5t-34.5 -25q-87 -60 -179.5 -110t-181.5 -104z" />
    <glyph glyph-name="Ycircumflex" unicode="&#x176;" horiz-adv-x="1518" 
d="M301 93l171 66q18 7 30.5 16.5t17.5 31.5l76 339l-254 704q-5 14 -12.5 28.5t-22.5 21.5l-126 60l21 91h659l-21 -91l-154 -75l147 -403l34 -122h21l403 517l-147 83l21 91h530l-21 -91l-125 -64q-16 -8 -32 -21.5t-28 -28.5l-550 -688l-78 -351q-5 -22 2 -32.5t21 -15.5
l170 -66l-21 -93h-753zM657 1626l263 302q40 46 81 68t92 22t86.5 -22t59.5 -68l160 -302l-83 -51l-248 231l-345 -233z" />
    <glyph glyph-name="uni1EF8" unicode="&#x1ef8;" horiz-adv-x="1518" 
d="M301 93l171 66q18 7 30.5 16.5t17.5 31.5l76 339l-254 704q-5 14 -12.5 28.5t-22.5 21.5l-126 60l21 91h659l-21 -91l-154 -75l147 -403l34 -122h21l403 517l-147 83l21 91h530l-21 -91l-125 -64q-16 -8 -32 -21.5t-28 -28.5l-550 -688l-78 -351q-5 -22 2 -32.5t21 -15.5
l170 -66l-21 -93h-753zM616 1602q20 70 52 127.5t72.5 99t88 64t98.5 22.5q33 0 76.5 -18.5t88.5 -44.5q42 -25 68.5 -34.5t43.5 -9.5q45 0 72 34t46 88h118q-19 -69 -49.5 -126.5t-70 -99t-86.5 -64t-99 -22.5q-18 0 -35 3.5t-36 11.5t-41.5 20.5t-49.5 29.5q-39 25 -68 35
t-46 10q-41 0 -73.5 -36t-50.5 -90h-119z" />
    <glyph glyph-name="Ydieresis" unicode="&#x178;" horiz-adv-x="1518" 
d="M301 93l171 66q18 7 30.5 16.5t17.5 31.5l76 339l-254 704q-5 14 -12.5 28.5t-22.5 21.5l-126 60l21 91h659l-21 -91l-154 -75l147 -403l34 -122h21l403 517l-147 83l21 91h530l-21 -91l-125 -64q-16 -8 -32 -21.5t-28 -28.5l-550 -688l-78 -351q-5 -22 2 -32.5t21 -15.5
l170 -66l-21 -93h-753zM743 1612q-32 0 -60 9.5t-49.5 28t-34 45t-12.5 60.5q0 37 12.5 64.5t34 46.5t49.5 28.5t60 9.5q36 0 66 -9t51.5 -26t33 -43.5t11.5 -60.5q0 -36 -12.5 -64.5t-34 -48t-51.5 -30t-64 -10.5zM1235 1612q-32 0 -60 9.5t-49.5 28t-34 45t-12.5 60.5
q0 37 12.5 64.5t34 46.5t49.5 28.5t60 9.5q36 0 66 -9t51.5 -26t33 -43.5t11.5 -60.5q0 -36 -12.5 -64.5t-34 -48t-51.5 -30t-64 -10.5z" />
    <glyph glyph-name="uni1EF6" unicode="&#x1ef6;" horiz-adv-x="1518" 
d="M301 93l171 66q18 7 30.5 16.5t17.5 31.5l76 339l-254 704q-5 14 -12.5 28.5t-22.5 21.5l-126 60l21 91h659l-21 -91l-154 -75l147 -403l34 -122h21l403 517l-147 83l21 91h530l-21 -91l-125 -64q-16 -8 -32 -21.5t-28 -28.5l-550 -688l-78 -351q-5 -22 2 -32.5t21 -15.5
l170 -66l-21 -93h-753zM1161 2053q42 0 80 -8.5t66 -25.5t44.5 -42.5t16.5 -59.5q0 -39 -14.5 -67.5t-37 -50.5t-49.5 -41.5t-52 -41t-44.5 -48t-27.5 -63.5l-7 -31h-174l8 39q9 40 27.5 68t41.5 49t47.5 38t44.5 35t33 40.5t13 55.5q0 10 -3.5 18.5t-10 14t-16 8.5t-22.5 3
q-22 0 -43 -6.5t-40 -16t-35.5 -20.5t-28.5 -21h-83l25 120q14 6 38 15t55.5 17.5t69 15t78.5 6.5z" />
    <glyph glyph-name="uni1EF4" unicode="&#x1ef4;" horiz-adv-x="1518" 
d="M301 93l171 66q18 7 30.5 16.5t17.5 31.5l76 339l-254 704q-5 14 -12.5 28.5t-22.5 21.5l-126 60l21 91h659l-21 -91l-154 -75l147 -403l34 -122h21l403 517l-147 83l21 91h530l-21 -91l-125 -64q-16 -8 -32 -21.5t-28 -28.5l-550 -688l-78 -351q-5 -22 2 -32.5t21 -15.5
l170 -66l-21 -93h-753zM649 -498q-37 0 -74.5 12t-68 34.5t-49.5 53.5t-19 69q0 40 17.5 71t46.5 51.5t67 31t80 10.5q49 0 89 -9.5t69 -28t45 -47t16 -66.5q0 -41 -18.5 -74.5t-49 -57.5t-70 -37t-81.5 -13z" />
    <glyph glyph-name="Zacute" unicode="&#x179;" horiz-adv-x="1445" 
d="M-35 153l1056 1037l77 58l6 22h-565q-14 0 -28 -10.5t-22 -27.5l-107 -212h-153l96 431h1243l-33 -149l-1056 -1038l-78 -61l-5 -22h644q14 0 28 9t24 30l114 241h152l-103 -461h-1323zM700 1626q55 75 109.5 152.5t114.5 149.5q19 24 39 41t41.5 28t47 16t56.5 5
q22 0 43 -7t37.5 -19.5t26.5 -31.5t10 -43t-8 -42.5t-20.5 -34t-29 -28.5t-34.5 -25q-87 -60 -179.5 -110t-181.5 -104z" />
    <glyph glyph-name="Zcaron" unicode="&#x17d;" horiz-adv-x="1445" 
d="M-35 153l1056 1037l77 58l6 22h-565q-14 0 -28 -10.5t-22 -27.5l-107 -212h-153l96 431h1243l-33 -149l-1056 -1038l-78 -61l-5 -22h644q14 0 28 9t24 30l114 241h152l-103 -461h-1323zM886 1573q-51 0 -86.5 22t-59.5 68l-159 302l83 51l246 -231l347 233l66 -53
l-264 -302q-40 -46 -81 -68t-92 -22z" />
    <glyph glyph-name="Zdotaccent" unicode="&#x17b;" horiz-adv-x="1445" 
d="M-35 153l1056 1037l77 58l6 22h-565q-14 0 -28 -10.5t-22 -27.5l-107 -212h-153l96 431h1243l-33 -149l-1056 -1038l-78 -61l-5 -22h644q14 0 28 9t24 30l114 241h152l-103 -461h-1323zM958 1590q-37 0 -74.5 12t-68 34.5t-49.5 53.5t-19 69q0 40 17.5 71t46.5 51.5
t67 31t80 10.5q49 0 89 -9.5t69 -28t45 -47t16 -66.5q0 -41 -18.5 -74.5t-49 -57.5t-70 -37t-81.5 -13z" />
    <glyph glyph-name="Eng" unicode="&#x14a;" horiz-adv-x="1818" 
d="M797 -501q-21 0 -52 2.5t-64 6.5t-65 8.5t-55 8.5l60 269h76q22 -10 62 -22.5t84 -24t85 -19.5t65 -8q11 0 21 1.5t20 5.5t18.5 9.5t16.5 14.5q18 18 31.5 42t25 52.5t20.5 60.5t17 67l-469 990l-43 125h-21l-192 -875q-5 -22 4 -31.5t20 -14.5l155 -74l-20 -93h-592
l20 93l166 74q17 8 29 16t17 30l229 1035q5 19 -3.5 28.5t-22.5 15.5l-164 68l21 91h532l415 -879l43 -126h21l175 796q4 19 -5.5 28t-22.5 15l-155 75l19 91h595l-19 -91l-166 -75q-14 -6 -27 -14.5t-18 -28.5q-63 -285 -116 -519q-23 -100 -45 -199t-40.5 -181.5t-32 -142
t-18.5 -80.5q-36 -155 -97.5 -271t-143 -194t-181.5 -117t-213 -39z" />
    <glyph glyph-name="Eth" unicode="&#xd0;" horiz-adv-x="1718" 
d="M25 93l164 66q16 6 28.5 16t17.5 32l103 463h-189l38 168h188l91 410q5 20 -3.5 29.5t-21.5 14.5l-160 68l21 91h732q68 0 142.5 -11.5t146 -39t136.5 -71.5t113.5 -109.5t77.5 -153.5t29 -203q0 -138 -28.5 -256t-82.5 -214t-131.5 -169.5t-174.5 -123t-212.5 -75
t-245.5 -25.5h-800zM828 180q90 0 161 27t124.5 74t90.5 111t60.5 136.5t34 151t10.5 155.5q0 88 -19 167t-61 139t-110 95t-165 35h-142l-96 -433h308l-38 -168h-307l-109 -490h258z" />
    <glyph glyph-name="Thorn" unicode="&#xde;" horiz-adv-x="1501" 
d="M25 93l164 66q15 6 28 16t18 32l231 1041q5 20 -3.5 29.5t-20.5 14.5l-160 68l21 91h739l-21 -93l-168 -66q-19 -8 -30 -17t-16 -31l-13 -55h151q109 0 203.5 -21.5t164 -67t109.5 -116t40 -168.5q0 -123 -44.5 -226t-122 -177t-183 -115t-226.5 -41q-42 0 -84 7
t-80 17.5t-68.5 23.5t-49.5 25l-28 -123q-5 -22 3.5 -32.5t22.5 -15.5l167 -66l-21 -93h-744zM799 444q71 0 126.5 29.5t93 77.5t57 110t19.5 127q0 58 -17.5 100.5t-49.5 70.5t-77.5 41t-100.5 13h-93l-123 -549q38 -11 81.5 -15.5t83.5 -4.5z" />
    <glyph glyph-name="a" unicode="a" horiz-adv-x="1356" 
d="M334 -21q-70 0 -125 24.5t-92.5 65t-57.5 93t-20 108.5q0 84 28.5 148.5t76 112t109 80t127.5 52t132 28t122 8.5q11 0 40.5 -2t62 -5t61 -5.5t38.5 -3.5l2.5 18.5t6 43.5t6 49.5t2.5 36.5q0 82 -46.5 117.5t-127.5 35.5q-42 0 -94.5 -22.5t-105 -54t-100 -65
t-79.5 -55.5h-76v263q55 16 111 31.5t116.5 28t127 20t143.5 7.5q76 0 157 -14t148 -46.5t110 -86.5t43 -134q0 -18 -1.5 -40t-4 -45t-6 -44.5t-7.5 -38.5l-54 -232q-6 -28 -12.5 -60.5t-12 -62.5t-9 -53.5t-3.5 -33.5q0 -16 3 -33t13.5 -31.5t29.5 -23.5t51 -9
q10 0 21.5 1.5t24 4.5t28 8t34.5 12h40v-120q-43 -24 -91.5 -38t-95.5 -21.5t-90 -9.5t-74 -2q-56 0 -95 15t-65 40t-40.5 58t-20.5 70h-16q-56 -62 -109.5 -99.5t-103 -57t-95 -25.5t-85.5 -6zM524 173q54 0 113.5 26t107.5 80l62 276q-91 0 -167 -9t-131.5 -35t-88 -73.5
t-35.5 -123.5q-2 -40 10.5 -67t33 -43.5t46 -23.5t49.5 -7z" />
    <glyph glyph-name="b" unicode="b" horiz-adv-x="1405" 
d="M51 -20q20 58 40 115t40 115l247 1133q4 19 -6 29.5t-20 16.5l-120 74v95h519l-118 -533q-2 -7 -4.5 -14t-5 -13.5t-5 -13.5t-4.5 -14q60 62 113 96t98 50t82 19t66 3q85 0 151 -33t111 -91t68 -137t23 -170q0 -92 -19 -181.5t-55.5 -170t-89.5 -149.5t-121 -119
t-150 -78.5t-176 -28.5q-47 0 -88 9.5t-75 24.5t-61 34.5t-46 39.5l-52 -108h-342zM658 165q60 0 107 24t82.5 64t60.5 92t41 108t23 113t7 106q0 51 -8.5 100t-30.5 87.5t-61 62.5t-99 24q-54 0 -101.5 -26.5t-82.5 -59.5l-144 -656q42 -15 92 -27t114 -12z" />
    <glyph glyph-name="c" unicode="c" horiz-adv-x="1161" 
d="M587 -24q-119 0 -211.5 36.5t-156 101t-96.5 153t-33 192.5q0 109 28 202t77 168t116.5 132.5t145.5 96.5q80 40 167 60t177 20q60 0 108 -10t86 -24t66.5 -28.5t49.5 -23.5v-277h-76q-42 28 -89.5 59.5t-96.5 58.5t-98.5 44.5t-95.5 17.5q-12 0 -24.5 -2.5t-24.5 -8
t-23.5 -13t-21.5 -17.5q-35 -33 -59.5 -82t-39.5 -103t-22 -108.5t-7 -98.5q0 -80 16 -144t50 -108.5t86.5 -68.5t124.5 -24q43 0 85 11.5t80.5 29t71.5 38.5t59 41h55v-152q-42 -31 -97 -61t-117 -54t-128.5 -39t-131.5 -15z" />
    <glyph glyph-name="d" unicode="d" horiz-adv-x="1443" 
d="M437 -21q-86 0 -151.5 33t-110.5 91t-68 136.5t-23 170.5t19 181.5t55.5 170t89.5 149.5t121 119t150 78.5t176 28.5q48 0 91.5 -9.5t81 -24.5t67 -34.5t49.5 -39.5l9 48l58 266q5 20 -3.5 29.5t-22.5 16.5l-147 74v95h545l-242 -1101q-7 -30 -13.5 -63t-12 -62.5
t-8.5 -52.5t-3 -33q0 -16 3 -33t13.5 -31.5t29.5 -23.5t51 -9q10 0 21.5 1.5t24 4.5t28 8t34.5 12h40v-120q-43 -24 -91.5 -38t-95.5 -21.5t-90 -9.5t-74 -2q-51 0 -91.5 15t-69 40t-44.5 58t-18 70h-17q-60 -67 -113 -105t-99 -56.5t-83.5 -22.5t-65.5 -4zM630 171
q27 0 53.5 9t51 23.5t45.5 33.5t37 40l141 636q-42 15 -92 27t-114 12q-60 0 -107 -24t-82.5 -64t-60.5 -92t-41 -108t-23 -113t-7 -106q0 -51 8.5 -100t30.5 -87.5t61 -62.5t99 -24z" />
    <glyph glyph-name="e" unicode="e" horiz-adv-x="1224" 
d="M561 -24q-40 0 -91 9.5t-104 31t-103 56.5t-89 87.5t-63 123t-24 162.5q0 91 22.5 177.5t65.5 163.5t104.5 142t139 111.5t170.5 72.5t198 26q66 0 135.5 -14.5t127 -46.5t94 -83.5t36.5 -125.5q0 -69 -25 -123.5t-68.5 -96t-102 -70.5t-125.5 -47t-139.5 -26.5
t-143.5 -8.5q-48 0 -86.5 2t-66.5 6q0 -8 -0.5 -14.5t-0.5 -14.5q-2 -72 15.5 -127.5t53.5 -93.5t89 -58t124 -20q66 0 122 12t101.5 29.5t81.5 37t62 34.5h55v-143q-45 -31 -105.5 -61.5t-133.5 -55t-155.5 -39.5t-170.5 -15zM560 622q61 0 113.5 13t90.5 42t60 76t22 115
q0 60 -34 91t-85 31q-29 0 -56.5 -10t-53.5 -28q-30 -22 -57.5 -54.5t-50 -73.5t-40 -91t-27.5 -106q26 -2 58 -3.5t60 -1.5z" />
    <glyph glyph-name="f" unicode="f" horiz-adv-x="917" 
d="M-113 -501q-21 0 -52 1.5t-64.5 4.5t-65.5 7t-55 8l1 269h76q23 -10 59.5 -22t75.5 -22.5t76 -17.5t61 -7q26 0 43.5 7t31.5 24q10 12 20 36t20 59t20 81t21 100l167 847h-186v173h227q25 84 57.5 154.5t72 127.5t86 101t99.5 74q30 18 63 31.5t67.5 22t71 13t74.5 4.5
q21 0 52 -1.5t64.5 -4.5t65.5 -7t55 -8v-269h-76q-23 10 -59.5 22t-75.5 22.5t-76 17.5t-61 7q-26 0 -44 -7t-32 -24q-9 -12 -18.5 -36t-19.5 -59.5t-20 -81t-20 -99.5h269v-173h-309l-168 -847q-24 -125 -81 -222.5t-137 -165.5q-40 -34 -84.5 -60t-92 -44t-98 -27
t-101.5 -9z" />
    <glyph glyph-name="g" unicode="g" horiz-adv-x="1404" 
d="M393 -501q-114 0 -192.5 11.5t-113.5 18.5v277h47q24 -10 63 -23.5t85.5 -26t98 -21t101.5 -8.5q49 0 84.5 3.5t60 10.5t41.5 17.5t29 23.5q17 19 30.5 55.5t24.5 82.5t21 97.5t21 101.5l12 49q-60 -62 -114 -96t-100.5 -50t-85 -19t-66.5 -3q-86 0 -152 31.5t-111.5 88
t-69 133.5t-23.5 167q0 88 19 175.5t55.5 167t89.5 148t121 119t150 79t176 28.5q48 0 88.5 -9.5t74.5 -24.5t60.5 -34.5t46.5 -39.5l57 99h334q-20 -58 -40 -115t-40 -115l-160 -831q-14 -70 -37.5 -127.5t-55 -105t-71 -87t-84.5 -72.5q-54 -39 -109.5 -71.5t-113.5 -55.5
t-120.5 -36t-131.5 -13zM633 192q27 0 53.5 7t51.5 19t47 27.5t39 32.5l132 635q-42 15 -91 27t-113 12q-60 0 -107 -24t-82.5 -63.5t-60.5 -90.5t-41 -106.5t-23 -110.5t-7 -102q0 -51 9 -98t31.5 -84t62 -59t99.5 -22z" />
    <glyph glyph-name="h" unicode="h" horiz-adv-x="1451" 
d="M1053 -16q-51 0 -92 14.5t-69.5 40.5t-44 62t-15.5 80q0 26 5 65.5t16 84.5l84 355q4 16 7 32t4.5 30.5t2.5 27t1 23.5q0 29 -7.5 52.5t-25 40.5t-45 26t-66.5 9q-25 0 -53 -4t-56 -14t-55 -26t-50 -40l-140 -631v-53.5v-52.5v-52.5v-53.5h-372l299 1343q5 20 -5.5 29.5
t-21.5 16.5l-120 74v95h519l-121 -546l-13 -57q40 40 83.5 73.5t92 57.5t102.5 37.5t115 13.5q60 0 111 -17t88 -51t57.5 -84t20.5 -116q0 -25 -4 -56.5t-9 -54.5l-67 -285q-7 -30 -13.5 -62.5t-11.5 -61t-8 -51t-3 -32.5q0 -17 2.5 -35.5t12.5 -34.5t28.5 -26.5t50.5 -10.5
q10 0 22.5 0.5t26 2.5t28 5t29.5 8h40v-120q-43 -24 -93 -38t-98.5 -21.5t-93 -9.5t-75.5 -2z" />
    <glyph glyph-name="i" unicode="i" horiz-adv-x="840" 
d="M410 -16q-51 0 -92.5 14.5t-71.5 40.5t-46 62t-16 80q0 26 5.5 65.5t15.5 84.5l113 516q5 20 -4.5 29.5t-22.5 16.5l-151 80v92l562 53l-146 -662q-7 -30 -13.5 -63t-12 -62.5t-8.5 -52t-3 -32.5q0 -16 3.5 -33t14 -31.5t29.5 -23.5t51 -9q10 0 23 1.5t28 4.5t32 8t36 12
h40v-120q-43 -24 -94 -38t-101 -21.5t-95 -9.5t-76 -2zM548 1232q-37 0 -74.5 14t-68 38t-49.5 56.5t-19 70.5q0 40 17.5 71t46.5 51.5t67 31t80 10.5q49 0 89 -9.5t69 -28t45 -47t16 -66.5q0 -41 -18.5 -76t-49 -60.5t-70 -40.5t-81.5 -15z" />
    <glyph glyph-name="j" unicode="j" horiz-adv-x="864" 
d="M-38 -501q-21 0 -52 1.5t-64.5 4.5t-65.5 7t-55 8l1 269h76q23 -10 59.5 -22t75.5 -22.5t76 -17.5t61 -7q26 0 43.5 7t31.5 24q10 12 20 36t20.5 59t20.5 81t20 100l155 820q4 19 -5 31.5t-23 18.5l-180 76v92l589 53l-210 -1091q-24 -125 -80.5 -222.5t-136.5 -165.5
q-40 -34 -84.5 -60t-92 -44t-98 -27t-102.5 -9zM594 1232q-37 0 -74.5 14t-68 38t-49.5 56.5t-19 70.5q0 40 17.5 71t46.5 51.5t67 31t80 10.5q49 0 89 -9.5t69 -28t45 -47t16 -66.5q0 -41 -18.5 -76t-49 -60.5t-70 -40.5t-81.5 -15z" />
    <glyph glyph-name="k" unicode="k" horiz-adv-x="1382" 
d="M971 -16q-51 0 -86 10t-59 30t-40.5 49t-30.5 68l-134 362l-121 -82l-46 -209v-53.5v-52.5v-52.5v-53.5h-372l299 1343q4 18 -6 28.5t-21 17.5l-120 74v95h519l-224 -1005q78 85 143.5 158t119.5 132t97 103.5t75 73.5q31 28 57.5 48t52.5 33t54.5 19t63.5 6
q36 0 72 -5.5t81 -13.5v-296h-56q-48 6 -105.5 15t-102.5 9h-39t-51.5 -7t-62.5 -25t-71 -54l183 -486q6 -17 16.5 -37t27.5 -37t40.5 -28.5t55.5 -11.5q21 0 50.5 6t67.5 20h40v-120q-43 -24 -94 -38t-101 -21.5t-95.5 -9.5t-76.5 -2z" />
    <glyph glyph-name="l" unicode="l" horiz-adv-x="814" 
d="M383 -16q-51 0 -92.5 14.5t-71.5 40.5t-46 62t-16 80q0 26 5.5 65.5t15.5 84.5l224 1012q5 20 -5.5 30t-22.5 16l-152 74v95h553l-245 -1102q-7 -30 -13.5 -63t-12 -62.5t-8.5 -52t-3 -32.5q0 -16 3 -33t13.5 -31.5t29.5 -23.5t51 -9q10 0 23 1.5t28 4.5t32 8t36 12h40
v-120q-43 -24 -94 -38t-101 -21.5t-95 -9.5t-76 -2z" />
    <glyph glyph-name="m" unicode="m" horiz-adv-x="2148" 
d="M1751 -16q-51 0 -92 14.5t-69.5 40.5t-44 62t-15.5 80q0 26 5 65.5t16 84.5l86 366q7 30 11.5 61t4.5 55q0 57 -29.5 85.5t-105.5 28.5q-24 0 -51.5 -4.5t-55.5 -14t-54 -25.5t-48 -39l-140 -632v-53.5v-52.5v-52.5v-53.5h-372l155 697q3 15 6 30.5t5.5 30.5t3.5 29t1 26
q0 28 -7 49.5t-22.5 35.5t-41.5 21.5t-64 7.5q-24 0 -52 -4.5t-55.5 -14t-54 -25.5t-48.5 -39l-140 -632v-53.5v-52.5v-52.5v-53.5h-372l194 873q5 20 -5 29.5t-22 16.5l-119 64v92l496 53l-28 -173h15q58 60 110 96t98.5 55t89 25t81.5 6q51 0 99 -11t86.5 -35.5t65 -63
t35.5 -93.5q70 73 128 114t106.5 60.5t90 24t78.5 4.5q60 0 111 -17t88 -51t57.5 -84t20.5 -116q0 -25 -4 -56.5t-9 -54.5l-71 -302q-7 -30 -13.5 -63t-12 -62.5t-8.5 -52t-3 -32.5q0 -16 3 -33t13.5 -31.5t29.5 -23.5t51 -9q10 0 21.5 1.5t24 4.5t28 8t34.5 12h40v-120
q-43 -24 -93 -38t-98.5 -21.5t-93 -9.5t-75.5 -2z" />
    <glyph glyph-name="n" unicode="n" horiz-adv-x="1476" 
d="M1078 -16q-51 0 -92 14.5t-69.5 40.5t-44 62t-15.5 80q0 26 5 65.5t16 84.5l84 355q8 33 11.5 62.5t3.5 50.5q0 29 -7.5 52.5t-24.5 40.5t-44.5 26t-67.5 9q-26 0 -53.5 -4t-55 -14t-54.5 -26t-51 -40l-139 -631v-53.5v-52.5v-52.5v-53.5h-373l193 873q5 20 -4 29.5
t-22 16.5l-119 64v92l515 53l-28 -173h15q60 60 111 96t96.5 55t88 25t84.5 6q61 0 111.5 -17t87.5 -51t57.5 -84t20.5 -116q0 -25 -4 -56.5t-9 -54.5l-71 -302q-7 -30 -13.5 -63t-12 -62.5t-8.5 -52t-3 -32.5q0 -16 3 -33t13.5 -31.5t29.5 -23.5t51 -9q10 0 21.5 1.5
t24 4.5t28 8t34.5 12h40v-120q-43 -24 -93 -38t-98.5 -21.5t-93 -9.5t-75.5 -2z" />
    <glyph glyph-name="o" unicode="o" horiz-adv-x="1365" 
d="M625 123q57 0 102 31t79 80.5t57.5 112.5t38.5 127.5t21.5 123.5t6.5 102q0 32 -3.5 65.5t-11.5 65t-22 59.5t-35 49t-50.5 33t-68.5 12q-58 0 -103 -30.5t-79 -80.5t-57.5 -112.5t-38 -127t-21 -124t-6.5 -102.5q0 -48 8 -98t29 -91.5t58 -68t96 -26.5zM608 -31
q-110 0 -204.5 31t-164.5 91.5t-110 149t-40 203.5q0 95 22.5 183.5t64.5 165.5t102 141t134 109.5t161.5 70.5t184.5 25q112 0 207 -31.5t164 -92t107.5 -150t38.5 -205.5q0 -94 -22.5 -181.5t-65 -164.5t-102 -140.5t-134 -109t-161 -70.5t-182.5 -25z" />
    <glyph glyph-name="p" unicode="p" horiz-adv-x="1438" 
d="M-146 -410l142 57q17 7 30 15.5t18 28.5l259 1182q5 20 -4.5 29.5t-21.5 16.5l-121 64v91l497 54l-29 -179h17q60 67 113.5 105t98.5 56.5t82.5 22.5t66.5 4q85 0 151 -33t111 -91t68 -137t23 -170q0 -92 -19 -181.5t-55.5 -170t-89.5 -149.5t-121 -119t-150 -78.5
t-176 -28.5q-47 0 -91.5 9.5t-82.5 25t-68 35.5t-49 40l-81 -387q-4 -18 5.5 -29.5t20.5 -16.5l138 -62l-20 -95h-681zM687 164q60 0 107 24t82.5 64t60.5 92t41 108t23 113t7 106q0 51 -8.5 100t-30.5 87.5t-61 62.5t-99 24q-27 0 -53.5 -9t-51 -23.5t-45.5 -33.5t-37 -40
l-141 -636q42 -15 92 -27t114 -12z" />
    <glyph glyph-name="q" unicode="q" horiz-adv-x="1404" 
d="M796 147q-60 -62 -113 -96t-98 -50t-82.5 -19t-65.5 -3q-86 0 -151.5 33t-110.5 91t-68 136.5t-23 170.5t19 181.5t55.5 170t89.5 149.5t121 119t150 78.5t176 28.5q48 0 88.5 -9.5t74.5 -24.5t60.5 -34.5t46.5 -39.5l57 99h336q-20 -58 -40 -115t-40 -115l-265 -1196
q-4 -18 5 -29t21 -17l124 -62v-95h-519zM630 171q54 0 101.5 26.5t82.5 59.5l144 656q-42 15 -92 27t-114 12q-60 0 -107 -24t-82.5 -64t-60.5 -92t-41 -108t-23 -113t-7 -106q0 -51 8.5 -100t30.5 -87.5t61 -62.5t99 -24z" />
    <glyph glyph-name="r" unicode="r" horiz-adv-x="1140" 
d="M279 785q3 16 7 36.5t4 39.5t-6 35t-21 24l-121 65v95l502 49l-33 -237h13q48 77 93.5 125t88.5 74.5t84 36t79 9.5q24 0 46.5 -2.5t45 -9t44 -17.5t44.5 -27v-343h-235l-29 74q-5 12 -13.5 23t-20.5 19.5t-27 13t-31 4.5q-24 0 -48.5 -5.5t-49 -17t-48.5 -28.5t-46 -41
l-118 -567v-53.5v-53v-53v-53.5h-370z" />
    <glyph glyph-name="s" unicode="s" horiz-adv-x="1174" 
d="M490 -27q-66 0 -128.5 7.5t-118 19t-103.5 25.5t-86 27v302h169l19 -90q3 -16 12 -30t20 -22q19 -15 46 -30.5t60 -28t71.5 -20t81.5 -7.5q33 0 70 7.5t68 25t51 45.5t20 69q0 24 -7 43.5t-23 35.5t-42 30t-63 27q-24 8 -50 17t-53 18t-53 17.5t-48 15.5
q-63 19 -108.5 47t-75.5 63t-44 76.5t-14 87.5q1 71 27 127.5t69 99.5t99.5 73.5t119.5 50t128 28.5t125 9q63 0 115 -4.5t97 -12t84 -17t77 -20.5v-306h-168l-18 98q-2 14 -12.5 25t-21.5 19q-15 11 -39.5 22.5t-53.5 21t-61.5 15.5t-63.5 6q-29 0 -59 -7.5t-54.5 -23.5
t-40 -41t-15.5 -59q0 -26 8.5 -46.5t26.5 -38.5t47 -33t69 -30q48 -17 101 -36t98 -34q59 -21 102.5 -46.5t72.5 -57.5t43 -70.5t14 -84.5q0 -79 -26 -139.5t-70.5 -105.5t-103 -75.5t-123.5 -49.5t-133 -27t-131 -8z" />
    <glyph glyph-name="t" unicode="t" horiz-adv-x="1007" 
d="M437 -18q-61 0 -111 15t-85 41t-54.5 62.5t-19.5 80.5q0 13 1.5 29.5t4.5 36t7 40.5t9 44l129 604h-165v151q54 6 95 13t71 23.5t50.5 46.5t34.5 83l41 155l309 32l-73 -330h355v-174h-393l-98 -459q-6 -30 -11.5 -60t-9.5 -57t-6.5 -51t-2.5 -42q0 -16 10 -33
t29.5 -31.5t48 -23.5t66.5 -9q13 0 31 1.5t38.5 4.5t42.5 7t45 10h48v-120q-51 -24 -111.5 -41t-120.5 -28t-114 -16t-91 -5z" />
    <glyph glyph-name="u" unicode="u" horiz-adv-x="1475" 
d="M432 -21q-60 0 -110.5 17t-87 50.5t-57 83.5t-20.5 116q0 25 4 56.5t9 54.5l117 516q5 20 -4 29.5t-22 16.5l-119 64v92l525 53l-155 -698q-3 -12 -5.5 -27.5l-5 -31t-3.5 -30t-1 -24.5q0 -29 7 -52.5t23 -40.5t42.5 -26t66.5 -9q25 0 53 4.5t56 14t55 25.5t50 40
l137 624v53.5v52.5v52.5v53.5h373l-144 -653q-7 -30 -13.5 -63t-12 -62.5t-8.5 -52t-3 -32.5q0 -16 3 -33t13.5 -31.5t29.5 -23.5t51 -9q10 0 21.5 1.5t24 4.5t28 8t34.5 12h40v-120q-43 -24 -91.5 -38t-95.5 -21.5t-90 -9.5t-74 -2q-51 0 -92.5 14t-71 38t-46.5 56t-19 69
h-15q-60 -60 -113.5 -96t-102.5 -55t-93.5 -25t-87.5 -6z" />
    <glyph glyph-name="v" unicode="v" horiz-adv-x="1308" 
d="M246 872q-2 9 -5.5 16.5t-8 12.5t-10 9t-11.5 7l-140 66v92l453 53l120 -662l14 -127h18l211 349q40 66 62.5 127.5t33.5 113t14 91t3 61.5v28h366v-70q-28 -33 -57.5 -64t-58 -62.5t-55.5 -64.5t-50 -69l-353 -563l-155 -226h-232z" />
    <glyph glyph-name="w" unicode="w" horiz-adv-x="1955" 
d="M250 872q-1 9 -4.5 16.5t-8 12.5t-10.5 9t-12 7l-140 66v92l460 53l78 -590l5 -174h19l259 519l141 226h205l97 -578l8 -180h19l191 359q31 60 48 115t24.5 102t8.5 84t1 60v38h376v-70q-26 -32 -52 -64.5t-52.5 -65t-52.5 -65t-52 -64.5l-317 -564l-153 -226h-219
l-95 574l-10 151h-19l-245 -499l-151 -226h-224z" />
    <glyph glyph-name="x" unicode="x" horiz-adv-x="1337" 
d="M94 -16q-17 0 -38.5 1.5t-44.5 6.5v327h50q10 -2 28 -4t37.5 -3.5t36 -2.5t23.5 -1q9 0 19 0.5t19 2t17.5 4t16.5 5.5q27 11 54 26t56 40.5t60.5 65t67.5 99.5l-140 321q-8 17 -15 28.5t-19 16.5l-158 66v92l426 53l137 -336l25 -107h12q37 54 64.5 96t51.5 78t47.5 69
t52.5 69q31 39 58 63.5t55 38.5t59.5 19.5t70.5 5.5q17 0 38.5 -1.5t44.5 -6.5v-328h-50q-10 1 -28 3t-37.5 3.5t-36 3t-23.5 1.5q-9 0 -18.5 -0.5t-18.5 -2t-18 -3.5t-17 -6q-17 -8 -41.5 -21t-54.5 -37t-64 -61.5t-70 -95.5l136 -313q4 -11 13.5 -29.5t24.5 -36.5
t36.5 -31t50.5 -13q21 0 48.5 6t65.5 20h40v-120q-43 -24 -92.5 -38t-97.5 -21.5t-92 -9.5t-75 -2q-51 0 -85 9.5t-57.5 29t-39.5 49t-32 69.5l-77 196l-24 100h-10q-36 -57 -65.5 -102t-56 -83.5t-51.5 -72.5t-52 -68q-32 -39 -59 -63.5t-54.5 -38.5t-58.5 -19.5t-71 -5.5z
" />
    <glyph glyph-name="y" unicode="y" horiz-adv-x="1453" 
d="M436 -501q-57 0 -108 3.5t-93.5 8.5t-74 10t-49.5 8v277h47q24 -10 66 -23.5t92.5 -26t105 -21t104.5 -8.5q49 0 84.5 3.5t60 10.5t41.5 17.5t29 23.5q17 19 31 55.5t26 82.5t22.5 97.5t21.5 101.5l18 64h-14q-59 -62 -114.5 -98.5t-107 -55t-99 -24t-89.5 -5.5
q-60 0 -110.5 17t-87 50.5t-57 83.5t-20.5 116q0 25 4 56.5t9 54.5l112 495q5 20 -4 29.5t-22 16.5l-119 64v92l525 53l-150 -677q-3 -12 -5.5 -27.5t-4.5 -31t-3.5 -30t-1.5 -24.5q0 -29 7 -52.5t23.5 -40.5t43.5 -26t67 -9q25 0 55 4.5t61 14.5t60 26t52 40l123 602v53.5
v52.5v52.5v53.5h370l-204 -1042q-14 -70 -37.5 -127.5t-55 -105t-71 -87t-84.5 -72.5q-54 -39 -109.5 -71.5t-113.5 -55.5t-120.5 -36t-131.5 -13z" />
    <glyph glyph-name="z" unicode="z" horiz-adv-x="1251" 
d="M14 145l715 721l66 54v20h-350q-20 0 -29.5 -13t-13.5 -28l-30 -121h-168v331h1039v-130l-731 -737l-64 -53v-21h399q20 0 29.5 11.5t13.5 28.5l29 144h171v-352h-1076v145z" />
    <glyph glyph-name="agrave" unicode="&#xe0;" horiz-adv-x="1356" 
d="M334 -21q-70 0 -125 24.5t-92.5 65t-57.5 93t-20 108.5q0 84 28.5 148.5t76 112t109 80t127.5 52t132 28t122 8.5q11 0 40.5 -2t62 -5t61 -5.5t38.5 -3.5l2.5 18.5t6 43.5t6 49.5t2.5 36.5q0 82 -46.5 117.5t-127.5 35.5q-42 0 -94.5 -22.5t-105 -54t-100 -65
t-79.5 -55.5h-76v263q55 16 111 31.5t116.5 28t127 20t143.5 7.5q76 0 157 -14t148 -46.5t110 -86.5t43 -134q0 -18 -1.5 -40t-4 -45t-6 -44.5t-7.5 -38.5l-54 -232q-6 -28 -12.5 -60.5t-12 -62.5t-9 -53.5t-3.5 -33.5q0 -16 3 -33t13.5 -31.5t29.5 -23.5t51 -9
q10 0 21.5 1.5t24 4.5t28 8t34.5 12h40v-120q-43 -24 -91.5 -38t-95.5 -21.5t-90 -9.5t-74 -2q-56 0 -95 15t-65 40t-40.5 58t-20.5 70h-16q-56 -62 -109.5 -99.5t-103 -57t-95 -25.5t-85.5 -6zM524 173q54 0 113.5 26t107.5 80l62 276q-91 0 -167 -9t-131.5 -35t-88 -73.5
t-35.5 -123.5q-2 -40 10.5 -67t33 -43.5t46 -23.5t49.5 -7zM865 1225q-77 48 -131.5 81t-94.5 57t-68.5 41.5t-53.5 34.5q-48 33 -68 60.5t-20 69.5q0 19 10.5 37.5t28.5 32.5t41.5 22.5t50.5 8.5q24 0 45 -3.5t41 -13t40.5 -27.5t41.5 -46q18 -24 35.5 -49t41 -59
t55.5 -80.5t79 -113.5z" />
    <glyph glyph-name="aacute" unicode="&#xe1;" horiz-adv-x="1356" 
d="M334 -21q-70 0 -125 24.5t-92.5 65t-57.5 93t-20 108.5q0 84 28.5 148.5t76 112t109 80t127.5 52t132 28t122 8.5q11 0 40.5 -2t62 -5t61 -5.5t38.5 -3.5l2.5 18.5t6 43.5t6 49.5t2.5 36.5q0 82 -46.5 117.5t-127.5 35.5q-42 0 -94.5 -22.5t-105 -54t-100 -65
t-79.5 -55.5h-76v263q55 16 111 31.5t116.5 28t127 20t143.5 7.5q76 0 157 -14t148 -46.5t110 -86.5t43 -134q0 -18 -1.5 -40t-4 -45t-6 -44.5t-7.5 -38.5l-54 -232q-6 -28 -12.5 -60.5t-12 -62.5t-9 -53.5t-3.5 -33.5q0 -16 3 -33t13.5 -31.5t29.5 -23.5t51 -9
q10 0 21.5 1.5t24 4.5t28 8t34.5 12h40v-120q-43 -24 -91.5 -38t-95.5 -21.5t-90 -9.5t-74 -2q-56 0 -95 15t-65 40t-40.5 58t-20.5 70h-16q-56 -62 -109.5 -99.5t-103 -57t-95 -25.5t-85.5 -6zM524 173q54 0 113.5 26t107.5 80l62 276q-91 0 -167 -9t-131.5 -35t-88 -73.5
t-35.5 -123.5q-2 -40 10.5 -67t33 -43.5t46 -23.5t49.5 -7zM496 1278q55 75 109.5 152.5t114.5 149.5q19 24 39 41t41.5 28t47 16t56.5 5q22 0 43 -7t37.5 -19.5t26.5 -31.5t10 -43t-8 -42.5t-20.5 -34t-29 -28.5t-34.5 -25q-87 -60 -179.5 -110t-181.5 -104z" />
    <glyph glyph-name="acircumflex" unicode="&#xe2;" horiz-adv-x="1356" 
d="M334 -21q-70 0 -125 24.5t-92.5 65t-57.5 93t-20 108.5q0 84 28.5 148.5t76 112t109 80t127.5 52t132 28t122 8.5q11 0 40.5 -2t62 -5t61 -5.5t38.5 -3.5l2.5 18.5t6 43.5t6 49.5t2.5 36.5q0 82 -46.5 117.5t-127.5 35.5q-42 0 -94.5 -22.5t-105 -54t-100 -65
t-79.5 -55.5h-76v263q55 16 111 31.5t116.5 28t127 20t143.5 7.5q76 0 157 -14t148 -46.5t110 -86.5t43 -134q0 -18 -1.5 -40t-4 -45t-6 -44.5t-7.5 -38.5l-54 -232q-6 -28 -12.5 -60.5t-12 -62.5t-9 -53.5t-3.5 -33.5q0 -16 3 -33t13.5 -31.5t29.5 -23.5t51 -9
q10 0 21.5 1.5t24 4.5t28 8t34.5 12h40v-120q-43 -24 -91.5 -38t-95.5 -21.5t-90 -9.5t-74 -2q-56 0 -95 15t-65 40t-40.5 58t-20.5 70h-16q-56 -62 -109.5 -99.5t-103 -57t-95 -25.5t-85.5 -6zM524 173q54 0 113.5 26t107.5 80l62 276q-91 0 -167 -9t-131.5 -35t-88 -73.5
t-35.5 -123.5q-2 -40 10.5 -67t33 -43.5t46 -23.5t49.5 -7zM345 1278l263 302q40 46 81 68t92 22t86.5 -22t59.5 -68l160 -302l-83 -51l-248 231l-345 -233z" />
    <glyph glyph-name="uni1EA5" unicode="&#x1ea5;" horiz-adv-x="1356" 
d="M334 -21q-70 0 -125 24.5t-92.5 65t-57.5 93t-20 108.5q0 84 28.5 148.5t76 112t109 80t127.5 52t132 28t122 8.5q11 0 40.5 -2t62 -5t61 -5.5t38.5 -3.5l2.5 18.5t6 43.5t6 49.5t2.5 36.5q0 82 -46.5 117.5t-127.5 35.5q-42 0 -94.5 -22.5t-105 -54t-100 -65
t-79.5 -55.5h-76v263q55 16 111 31.5t116.5 28t127 20t143.5 7.5q76 0 157 -14t148 -46.5t110 -86.5t43 -134q0 -18 -1.5 -40t-4 -45t-6 -44.5t-7.5 -38.5l-54 -232q-6 -28 -12.5 -60.5t-12 -62.5t-9 -53.5t-3.5 -33.5q0 -16 3 -33t13.5 -31.5t29.5 -23.5t51 -9
q10 0 21.5 1.5t24 4.5t28 8t34.5 12h40v-120q-43 -24 -91.5 -38t-95.5 -21.5t-90 -9.5t-74 -2q-56 0 -95 15t-65 40t-40.5 58t-20.5 70h-16q-56 -62 -109.5 -99.5t-103 -57t-95 -25.5t-85.5 -6zM524 173q54 0 113.5 26t107.5 80l62 276q-91 0 -167 -9t-131.5 -35t-88 -73.5
t-35.5 -123.5q-2 -40 10.5 -67t33 -43.5t46 -23.5t49.5 -7zM1080 1496l111 291q12 31 28.5 51.5t35 32t38 16t38.5 4.5q27 0 49 -9t37.5 -24.5t24 -35.5t8.5 -42q0 -36 -15 -64.5t-52 -61.5l-226 -202zM345 1278l263 302q40 46 81 68t92 22t86.5 -22t59.5 -68l160 -302
l-83 -51l-248 231l-345 -233z" />
    <glyph glyph-name="uni1EA7" unicode="&#x1ea7;" horiz-adv-x="1356" 
d="M334 -21q-70 0 -125 24.5t-92.5 65t-57.5 93t-20 108.5q0 84 28.5 148.5t76 112t109 80t127.5 52t132 28t122 8.5q11 0 40.5 -2t62 -5t61 -5.5t38.5 -3.5l2.5 18.5t6 43.5t6 49.5t2.5 36.5q0 82 -46.5 117.5t-127.5 35.5q-42 0 -94.5 -22.5t-105 -54t-100 -65
t-79.5 -55.5h-76v263q55 16 111 31.5t116.5 28t127 20t143.5 7.5q76 0 157 -14t148 -46.5t110 -86.5t43 -134q0 -18 -1.5 -40t-4 -45t-6 -44.5t-7.5 -38.5l-54 -232q-6 -28 -12.5 -60.5t-12 -62.5t-9 -53.5t-3.5 -33.5q0 -16 3 -33t13.5 -31.5t29.5 -23.5t51 -9
q10 0 21.5 1.5t24 4.5t28 8t34.5 12h40v-120q-43 -24 -91.5 -38t-95.5 -21.5t-90 -9.5t-74 -2q-56 0 -95 15t-65 40t-40.5 58t-20.5 70h-16q-56 -62 -109.5 -99.5t-103 -57t-95 -25.5t-85.5 -6zM524 173q54 0 113.5 26t107.5 80l62 276q-91 0 -167 -9t-131.5 -35t-88 -73.5
t-35.5 -123.5q-2 -40 10.5 -67t33 -43.5t46 -23.5t49.5 -7zM329 1452l-226 202q-37 33 -52 61.5t-15 64.5q0 22 8 42t22.5 35.5t34 24.5t42.5 9t45.5 -4.5t42 -16t36 -32t28.5 -51.5l111 -291zM344 1278l263 302q40 46 81 68t92 22t86.5 -22t59.5 -68l160 -302l-83 -51
l-248 231l-345 -233z" />
    <glyph glyph-name="uni1EA9" unicode="&#x1ea9;" horiz-adv-x="1356" 
d="M334 -21q-70 0 -125 24.5t-92.5 65t-57.5 93t-20 108.5q0 84 28.5 148.5t76 112t109 80t127.5 52t132 28t122 8.5q11 0 40.5 -2t62 -5t61 -5.5t38.5 -3.5l2.5 18.5t6 43.5t6 49.5t2.5 36.5q0 82 -46.5 117.5t-127.5 35.5q-42 0 -94.5 -22.5t-105 -54t-100 -65
t-79.5 -55.5h-76v263q55 16 111 31.5t116.5 28t127 20t143.5 7.5q76 0 157 -14t148 -46.5t110 -86.5t43 -134q0 -18 -1.5 -40t-4 -45t-6 -44.5t-7.5 -38.5l-54 -232q-6 -28 -12.5 -60.5t-12 -62.5t-9 -53.5t-3.5 -33.5q0 -16 3 -33t13.5 -31.5t29.5 -23.5t51 -9
q10 0 21.5 1.5t24 4.5t28 8t34.5 12h40v-120q-43 -24 -91.5 -38t-95.5 -21.5t-90 -9.5t-74 -2q-56 0 -95 15t-65 40t-40.5 58t-20.5 70h-16q-56 -62 -109.5 -99.5t-103 -57t-95 -25.5t-85.5 -6zM524 173q54 0 113.5 26t107.5 80l62 276q-91 0 -167 -9t-131.5 -35t-88 -73.5
t-35.5 -123.5q-2 -40 10.5 -67t33 -43.5t46 -23.5t49.5 -7zM1302 1833q37 0 69.5 -8t57 -23t38.5 -37t14 -50q0 -32 -12 -54.5t-30 -41t-40 -34t-42.5 -33t-36.5 -39t-22 -51.5l-6 -25h-169l7 32q6 27 20.5 48t33 39t38.5 33.5t36.5 31t27.5 33t11 38.5q0 17 -9 27t-29 10
q-35 0 -61 -16.5t-46 -30.5h-80l22 107q12 4 32.5 11.5t47.5 15t59.5 12.5t68.5 5zM344 1278l263 302q40 46 81 68t92 22t86.5 -22t59.5 -68l160 -302l-83 -51l-248 231l-345 -233z" />
    <glyph glyph-name="uni1EAB" unicode="&#x1eab;" horiz-adv-x="1356" 
d="M334 -21q-70 0 -125 24.5t-92.5 65t-57.5 93t-20 108.5q0 84 28.5 148.5t76 112t109 80t127.5 52t132 28t122 8.5q11 0 40.5 -2t62 -5t61 -5.5t38.5 -3.5l2.5 18.5t6 43.5t6 49.5t2.5 36.5q0 82 -46.5 117.5t-127.5 35.5q-42 0 -94.5 -22.5t-105 -54t-100 -65
t-79.5 -55.5h-76v263q55 16 111 31.5t116.5 28t127 20t143.5 7.5q76 0 157 -14t148 -46.5t110 -86.5t43 -134q0 -18 -1.5 -40t-4 -45t-6 -44.5t-7.5 -38.5l-54 -232q-6 -28 -12.5 -60.5t-12 -62.5t-9 -53.5t-3.5 -33.5q0 -16 3 -33t13.5 -31.5t29.5 -23.5t51 -9
q10 0 21.5 1.5t24 4.5t28 8t34.5 12h40v-120q-43 -24 -91.5 -38t-95.5 -21.5t-90 -9.5t-74 -2q-56 0 -95 15t-65 40t-40.5 58t-20.5 70h-16q-56 -62 -109.5 -99.5t-103 -57t-95 -25.5t-85.5 -6zM524 173q54 0 113.5 26t107.5 80l62 276q-91 0 -167 -9t-131.5 -35t-88 -73.5
t-35.5 -123.5q-2 -40 10.5 -67t33 -43.5t46 -23.5t49.5 -7zM347 1278l261 287q40 46 81 68t92 22t86.5 -22t59.5 -68l162 -287l-83 -51l-250 216l-343 -218zM437 1674q20 70 52 127.5t72 99t86.5 64t96.5 22.5q36 0 80 -18.5t89 -44.5q42 -25 68.5 -34.5t43.5 -9.5
q45 0 72 34t46 88h118q-19 -69 -49.5 -126.5t-70 -99t-86.5 -64t-99 -22.5q-18 0 -35 3.5t-36 11.5t-41.5 20.5t-49.5 29.5q-39 25 -68 35t-46 10q-41 0 -73.5 -36t-50.5 -90h-119z" />
    <glyph glyph-name="atilde" unicode="&#xe3;" horiz-adv-x="1356" 
d="M334 -21q-70 0 -125 24.5t-92.5 65t-57.5 93t-20 108.5q0 84 28.5 148.5t76 112t109 80t127.5 52t132 28t122 8.5q11 0 40.5 -2t62 -5t61 -5.5t38.5 -3.5l2.5 18.5t6 43.5t6 49.5t2.5 36.5q0 82 -46.5 117.5t-127.5 35.5q-42 0 -94.5 -22.5t-105 -54t-100 -65
t-79.5 -55.5h-76v263q55 16 111 31.5t116.5 28t127 20t143.5 7.5q76 0 157 -14t148 -46.5t110 -86.5t43 -134q0 -18 -1.5 -40t-4 -45t-6 -44.5t-7.5 -38.5l-54 -232q-6 -28 -12.5 -60.5t-12 -62.5t-9 -53.5t-3.5 -33.5q0 -16 3 -33t13.5 -31.5t29.5 -23.5t51 -9
q10 0 21.5 1.5t24 4.5t28 8t34.5 12h40v-120q-43 -24 -91.5 -38t-95.5 -21.5t-90 -9.5t-74 -2q-56 0 -95 15t-65 40t-40.5 58t-20.5 70h-16q-56 -62 -109.5 -99.5t-103 -57t-95 -25.5t-85.5 -6zM524 173q54 0 113.5 26t107.5 80l62 276q-91 0 -167 -9t-131.5 -35t-88 -73.5
t-35.5 -123.5q-2 -40 10.5 -67t33 -43.5t46 -23.5t49.5 -7zM343 1254q20 70 52 127.5t72.5 99t88 64t98.5 22.5q33 0 76.5 -18.5t88.5 -44.5q42 -25 68.5 -34.5t43.5 -9.5q45 0 72 34t46 88h118q-19 -69 -49.5 -126.5t-70 -99t-86.5 -64t-99 -22.5q-18 0 -35 3.5t-36 11.5
t-41.5 20.5t-49.5 29.5q-39 25 -68 35t-46 10q-41 0 -73.5 -36t-50.5 -90h-119z" />
    <glyph glyph-name="adieresis" unicode="&#xe4;" horiz-adv-x="1356" 
d="M334 -21q-70 0 -125 24.5t-92.5 65t-57.5 93t-20 108.5q0 84 28.5 148.5t76 112t109 80t127.5 52t132 28t122 8.5q11 0 40.5 -2t62 -5t61 -5.5t38.5 -3.5l2.5 18.5t6 43.5t6 49.5t2.5 36.5q0 82 -46.5 117.5t-127.5 35.5q-42 0 -94.5 -22.5t-105 -54t-100 -65
t-79.5 -55.5h-76v263q55 16 111 31.5t116.5 28t127 20t143.5 7.5q76 0 157 -14t148 -46.5t110 -86.5t43 -134q0 -18 -1.5 -40t-4 -45t-6 -44.5t-7.5 -38.5l-54 -232q-6 -28 -12.5 -60.5t-12 -62.5t-9 -53.5t-3.5 -33.5q0 -16 3 -33t13.5 -31.5t29.5 -23.5t51 -9
q10 0 21.5 1.5t24 4.5t28 8t34.5 12h40v-120q-43 -24 -91.5 -38t-95.5 -21.5t-90 -9.5t-74 -2q-56 0 -95 15t-65 40t-40.5 58t-20.5 70h-16q-56 -62 -109.5 -99.5t-103 -57t-95 -25.5t-85.5 -6zM524 173q54 0 113.5 26t107.5 80l62 276q-91 0 -167 -9t-131.5 -35t-88 -73.5
t-35.5 -123.5q-2 -40 10.5 -67t33 -43.5t46 -23.5t49.5 -7zM496 1264q-32 0 -60 9.5t-49.5 28t-34 45t-12.5 60.5q0 37 12.5 64.5t34 46.5t49.5 28.5t60 9.5q36 0 66 -9t51.5 -26t33 -43.5t11.5 -60.5q0 -36 -12.5 -64.5t-34 -48t-51.5 -30t-64 -10.5zM988 1264
q-32 0 -60 9.5t-49.5 28t-34 45t-12.5 60.5q0 37 12.5 64.5t34 46.5t49.5 28.5t60 9.5q36 0 66 -9t51.5 -26t33 -43.5t11.5 -60.5q0 -36 -12.5 -64.5t-34 -48t-51.5 -30t-64 -10.5z" />
    <glyph glyph-name="amacron" unicode="&#x101;" horiz-adv-x="1356" 
d="M334 -21q-70 0 -125 24.5t-92.5 65t-57.5 93t-20 108.5q0 84 28.5 148.5t76 112t109 80t127.5 52t132 28t122 8.5q11 0 40.5 -2t62 -5t61 -5.5t38.5 -3.5l2.5 18.5t6 43.5t6 49.5t2.5 36.5q0 82 -46.5 117.5t-127.5 35.5q-42 0 -94.5 -22.5t-105 -54t-100 -65
t-79.5 -55.5h-76v263q55 16 111 31.5t116.5 28t127 20t143.5 7.5q76 0 157 -14t148 -46.5t110 -86.5t43 -134q0 -18 -1.5 -40t-4 -45t-6 -44.5t-7.5 -38.5l-54 -232q-6 -28 -12.5 -60.5t-12 -62.5t-9 -53.5t-3.5 -33.5q0 -16 3 -33t13.5 -31.5t29.5 -23.5t51 -9
q10 0 21.5 1.5t24 4.5t28 8t34.5 12h40v-120q-43 -24 -91.5 -38t-95.5 -21.5t-90 -9.5t-74 -2q-56 0 -95 15t-65 40t-40.5 58t-20.5 70h-16q-56 -62 -109.5 -99.5t-103 -57t-95 -25.5t-85.5 -6zM524 173q54 0 113.5 26t107.5 80l62 276q-91 0 -167 -9t-131.5 -35t-88 -73.5
t-35.5 -123.5q-2 -40 10.5 -67t33 -43.5t46 -23.5t49.5 -7zM424 1520h743l-44 -192h-743z" />
    <glyph glyph-name="abreve" unicode="&#x103;" horiz-adv-x="1356" 
d="M334 -21q-70 0 -125 24.5t-92.5 65t-57.5 93t-20 108.5q0 84 28.5 148.5t76 112t109 80t127.5 52t132 28t122 8.5q11 0 40.5 -2t62 -5t61 -5.5t38.5 -3.5l2.5 18.5t6 43.5t6 49.5t2.5 36.5q0 82 -46.5 117.5t-127.5 35.5q-42 0 -94.5 -22.5t-105 -54t-100 -65
t-79.5 -55.5h-76v263q55 16 111 31.5t116.5 28t127 20t143.5 7.5q76 0 157 -14t148 -46.5t110 -86.5t43 -134q0 -18 -1.5 -40t-4 -45t-6 -44.5t-7.5 -38.5l-54 -232q-6 -28 -12.5 -60.5t-12 -62.5t-9 -53.5t-3.5 -33.5q0 -16 3 -33t13.5 -31.5t29.5 -23.5t51 -9
q10 0 21.5 1.5t24 4.5t28 8t34.5 12h40v-120q-43 -24 -91.5 -38t-95.5 -21.5t-90 -9.5t-74 -2q-56 0 -95 15t-65 40t-40.5 58t-20.5 70h-16q-56 -62 -109.5 -99.5t-103 -57t-95 -25.5t-85.5 -6zM524 173q54 0 113.5 26t107.5 80l62 276q-91 0 -167 -9t-131.5 -35t-88 -73.5
t-35.5 -123.5q-2 -40 10.5 -67t33 -43.5t46 -23.5t49.5 -7zM773 1247q-79 0 -140 24.5t-101.5 74t-59.5 125t-15 177.5l115 20q10 -51 25 -91.5t41 -69t66 -43.5t101 -15q58 0 102.5 14.5t80 42.5t64 68.5t55.5 93.5l109 -20q-29 -102 -71.5 -177.5t-99 -125t-125 -74
t-147.5 -24.5z" />
    <glyph glyph-name="uni1EAF" unicode="&#x1eaf;" horiz-adv-x="1356" 
d="M334 -21q-70 0 -125 24.5t-92.5 65t-57.5 93t-20 108.5q0 84 28.5 148.5t76 112t109 80t127.5 52t132 28t122 8.5q11 0 40.5 -2t62 -5t61 -5.5t38.5 -3.5l2.5 18.5t6 43.5t6 49.5t2.5 36.5q0 82 -46.5 117.5t-127.5 35.5q-42 0 -94.5 -22.5t-105 -54t-100 -65
t-79.5 -55.5h-76v263q55 16 111 31.5t116.5 28t127 20t143.5 7.5q76 0 157 -14t148 -46.5t110 -86.5t43 -134q0 -18 -1.5 -40t-4 -45t-6 -44.5t-7.5 -38.5l-54 -232q-6 -28 -12.5 -60.5t-12 -62.5t-9 -53.5t-3.5 -33.5q0 -16 3 -33t13.5 -31.5t29.5 -23.5t51 -9
q10 0 21.5 1.5t24 4.5t28 8t34.5 12h40v-120q-43 -24 -91.5 -38t-95.5 -21.5t-90 -9.5t-74 -2q-56 0 -95 15t-65 40t-40.5 58t-20.5 70h-16q-56 -62 -109.5 -99.5t-103 -57t-95 -25.5t-85.5 -6zM524 173q54 0 113.5 26t107.5 80l62 276q-91 0 -167 -9t-131.5 -35t-88 -73.5
t-35.5 -123.5q-2 -40 10.5 -67t33 -43.5t46 -23.5t49.5 -7zM749 1575l68 279q9 35 20 63.5t29 49t44.5 31.5t64.5 11q16 0 37 -5t39 -17t30.5 -33t12.5 -53q0 -17 -5.5 -34.5t-17 -37.5t-30 -44.5t-45.5 -55.5l-162 -190zM763 1247q-79 0 -140 24.5t-101.5 74t-59.5 125
t-15 177.5l115 20q10 -51 25 -91.5t41 -69t66 -43.5t101 -15q58 0 102.5 14.5t80 42.5t64 68.5t55.5 93.5l109 -20q-29 -102 -71.5 -177.5t-99 -125t-125 -74t-147.5 -24.5z" />
    <glyph glyph-name="uni1EB1" unicode="&#x1eb1;" horiz-adv-x="1356" 
d="M334 -21q-70 0 -125 24.5t-92.5 65t-57.5 93t-20 108.5q0 84 28.5 148.5t76 112t109 80t127.5 52t132 28t122 8.5q11 0 40.5 -2t62 -5t61 -5.5t38.5 -3.5l2.5 18.5t6 43.5t6 49.5t2.5 36.5q0 82 -46.5 117.5t-127.5 35.5q-42 0 -94.5 -22.5t-105 -54t-100 -65
t-79.5 -55.5h-76v263q55 16 111 31.5t116.5 28t127 20t143.5 7.5q76 0 157 -14t148 -46.5t110 -86.5t43 -134q0 -18 -1.5 -40t-4 -45t-6 -44.5t-7.5 -38.5l-54 -232q-6 -28 -12.5 -60.5t-12 -62.5t-9 -53.5t-3.5 -33.5q0 -16 3 -33t13.5 -31.5t29.5 -23.5t51 -9
q10 0 21.5 1.5t24 4.5t28 8t34.5 12h40v-120q-43 -24 -91.5 -38t-95.5 -21.5t-90 -9.5t-74 -2q-56 0 -95 15t-65 40t-40.5 58t-20.5 70h-16q-56 -62 -109.5 -99.5t-103 -57t-95 -25.5t-85.5 -6zM524 173q54 0 113.5 26t107.5 80l62 276q-91 0 -167 -9t-131.5 -35t-88 -73.5
t-35.5 -123.5q-2 -40 10.5 -67t33 -43.5t46 -23.5t49.5 -7zM812 1539l-162 190q-27 31 -45.5 55.5t-30 44.5t-17 37.5t-5.5 34.5q0 32 12.5 53t30.5 33t38.5 17t37.5 5q38 0 64.5 -11t44.5 -31.5t29 -49t20 -63.5l68 -279zM752 1247q-79 0 -140 24.5t-101.5 74t-59.5 125
t-15 177.5l115 20q10 -51 25 -91.5t41 -69t66 -43.5t101 -15q58 0 102.5 14.5t80 42.5t64 68.5t55.5 93.5l109 -20q-29 -102 -71.5 -177.5t-99 -125t-125 -74t-147.5 -24.5z" />
    <glyph glyph-name="uni1EB3" unicode="&#x1eb3;" horiz-adv-x="1356" 
d="M334 -21q-70 0 -125 24.5t-92.5 65t-57.5 93t-20 108.5q0 84 28.5 148.5t76 112t109 80t127.5 52t132 28t122 8.5q11 0 40.5 -2t62 -5t61 -5.5t38.5 -3.5l2.5 18.5t6 43.5t6 49.5t2.5 36.5q0 82 -46.5 117.5t-127.5 35.5q-42 0 -94.5 -22.5t-105 -54t-100 -65
t-79.5 -55.5h-76v263q55 16 111 31.5t116.5 28t127 20t143.5 7.5q76 0 157 -14t148 -46.5t110 -86.5t43 -134q0 -18 -1.5 -40t-4 -45t-6 -44.5t-7.5 -38.5l-54 -232q-6 -28 -12.5 -60.5t-12 -62.5t-9 -53.5t-3.5 -33.5q0 -16 3 -33t13.5 -31.5t29.5 -23.5t51 -9
q10 0 21.5 1.5t24 4.5t28 8t34.5 12h40v-120q-43 -24 -91.5 -38t-95.5 -21.5t-90 -9.5t-74 -2q-56 0 -95 15t-65 40t-40.5 58t-20.5 70h-16q-56 -62 -109.5 -99.5t-103 -57t-95 -25.5t-85.5 -6zM524 173q54 0 113.5 26t107.5 80l62 276q-91 0 -167 -9t-131.5 -35t-88 -73.5
t-35.5 -123.5q-2 -40 10.5 -67t33 -43.5t46 -23.5t49.5 -7zM891 1947q37 0 69.5 -8t57 -23t38.5 -37t14 -50q0 -32 -12 -54.5t-30 -41t-40 -34t-42.5 -33t-36.5 -39t-22 -51.5l-6 -25h-169l7 32q6 27 20.5 48t33 39t38.5 33.5t36.5 31t27.5 33t11 38.5q0 17 -9 27t-29 10
q-35 0 -61 -16.5t-46 -30.5h-80l22 107q12 4 32.5 11.5t47.5 15t59.5 12.5t68.5 5zM763 1247q-79 0 -140 24.5t-101.5 74t-59.5 125t-15 177.5l115 20q10 -51 25 -91.5t41 -69t66 -43.5t101 -15q58 0 102.5 14.5t80 42.5t64 68.5t55.5 93.5l109 -20q-29 -102 -71.5 -177.5
t-99 -125t-125 -74t-147.5 -24.5z" />
    <glyph glyph-name="uni1EB5" unicode="&#x1eb5;" horiz-adv-x="1356" 
d="M334 -21q-70 0 -125 24.5t-92.5 65t-57.5 93t-20 108.5q0 84 28.5 148.5t76 112t109 80t127.5 52t132 28t122 8.5q11 0 40.5 -2t62 -5t61 -5.5t38.5 -3.5l2.5 18.5t6 43.5t6 49.5t2.5 36.5q0 82 -46.5 117.5t-127.5 35.5q-42 0 -94.5 -22.5t-105 -54t-100 -65
t-79.5 -55.5h-76v263q55 16 111 31.5t116.5 28t127 20t143.5 7.5q76 0 157 -14t148 -46.5t110 -86.5t43 -134q0 -18 -1.5 -40t-4 -45t-6 -44.5t-7.5 -38.5l-54 -232q-6 -28 -12.5 -60.5t-12 -62.5t-9 -53.5t-3.5 -33.5q0 -16 3 -33t13.5 -31.5t29.5 -23.5t51 -9
q10 0 21.5 1.5t24 4.5t28 8t34.5 12h40v-120q-43 -24 -91.5 -38t-95.5 -21.5t-90 -9.5t-74 -2q-56 0 -95 15t-65 40t-40.5 58t-20.5 70h-16q-56 -62 -109.5 -99.5t-103 -57t-95 -25.5t-85.5 -6zM524 173q54 0 113.5 26t107.5 80l62 276q-91 0 -167 -9t-131.5 -35t-88 -73.5
t-35.5 -123.5q-2 -40 10.5 -67t33 -43.5t46 -23.5t49.5 -7zM763 1247q-79 0 -140 24.5t-101.5 74t-59.5 125t-15 177.5l115 20q10 -51 25 -91.5t41 -69t66 -43.5t101 -15q58 0 102.5 14.5t80 42.5t64 68.5t55.5 93.5l109 -20q-29 -102 -71.5 -177.5t-99 -125t-125 -74
t-147.5 -24.5zM443 1743q20 70 52 127.5t72.5 99t88 64t98.5 22.5q33 0 76.5 -18.5t88.5 -44.5q42 -25 68.5 -34.5t43.5 -9.5q45 0 72 34t46 88h118q-19 -69 -49.5 -126.5t-70 -99t-86.5 -64t-99 -22.5q-18 0 -35 3.5t-36 11.5t-41.5 20.5t-49.5 29.5q-39 25 -68 35t-46 10
q-41 0 -73.5 -36t-50.5 -90h-119z" />
    <glyph glyph-name="aring" unicode="&#xe5;" horiz-adv-x="1356" 
d="M334 -21q-70 0 -125 24.5t-92.5 65t-57.5 93t-20 108.5q0 84 28.5 148.5t76 112t109 80t127.5 52t132 28t122 8.5q11 0 40.5 -2t62 -5t61 -5.5t38.5 -3.5l2.5 18.5t6 43.5t6 49.5t2.5 36.5q0 82 -46.5 117.5t-127.5 35.5q-42 0 -94.5 -22.5t-105 -54t-100 -65
t-79.5 -55.5h-76v263q55 16 111 31.5t116.5 28t127 20t143.5 7.5q76 0 157 -14t148 -46.5t110 -86.5t43 -134q0 -18 -1.5 -40t-4 -45t-6 -44.5t-7.5 -38.5l-54 -232q-6 -28 -12.5 -60.5t-12 -62.5t-9 -53.5t-3.5 -33.5q0 -16 3 -33t13.5 -31.5t29.5 -23.5t51 -9
q10 0 21.5 1.5t24 4.5t28 8t34.5 12h40v-120q-43 -24 -91.5 -38t-95.5 -21.5t-90 -9.5t-74 -2q-56 0 -95 15t-65 40t-40.5 58t-20.5 70h-16q-56 -62 -109.5 -99.5t-103 -57t-95 -25.5t-85.5 -6zM524 173q54 0 113.5 26t107.5 80l62 276q-91 0 -167 -9t-131.5 -35t-88 -73.5
t-35.5 -123.5q-2 -40 10.5 -67t33 -43.5t46 -23.5t49.5 -7zM758 1321q37 0 63 17t42 44t23 60t7 65q0 23 -5.5 45.5t-17.5 40t-30.5 28.5t-44.5 11q-38 0 -65 -17t-43.5 -43.5t-24 -59.5t-7.5 -66q0 -24 6 -47t18.5 -40t32 -27.5t46.5 -10.5zM725 1225q-53 0 -99 12
t-80.5 37.5t-54.5 65t-20 94.5q0 72 29 127t78.5 92t114 56t136.5 19q52 0 97 -12t78 -37t52 -64.5t19 -93.5q0 -71 -28 -126.5t-75.5 -93t-111 -57t-135.5 -19.5z" />
    <glyph glyph-name="aringacute" unicode="&#x1fb;" horiz-adv-x="1356" 
d="M334 -21q-70 0 -125 24.5t-92.5 65t-57.5 93t-20 108.5q0 84 28.5 148.5t76 112t109 80t127.5 52t132 28t122 8.5q11 0 40.5 -2t62 -5t61 -5.5t38.5 -3.5l2.5 18.5t6 43.5t6 49.5t2.5 36.5q0 82 -46.5 117.5t-127.5 35.5q-42 0 -94.5 -22.5t-105 -54t-100 -65
t-79.5 -55.5h-76v263q55 16 111 31.5t116.5 28t127 20t143.5 7.5q76 0 157 -14t148 -46.5t110 -86.5t43 -134q0 -18 -1.5 -40t-4 -45t-6 -44.5t-7.5 -38.5l-54 -232q-6 -28 -12.5 -60.5t-12 -62.5t-9 -53.5t-3.5 -33.5q0 -16 3 -33t13.5 -31.5t29.5 -23.5t51 -9
q10 0 21.5 1.5t24 4.5t28 8t34.5 12h40v-120q-43 -24 -91.5 -38t-95.5 -21.5t-90 -9.5t-74 -2q-56 0 -95 15t-65 40t-40.5 58t-20.5 70h-16q-56 -62 -109.5 -99.5t-103 -57t-95 -25.5t-85.5 -6zM524 173q54 0 113.5 26t107.5 80l62 276q-91 0 -167 -9t-131.5 -35t-88 -73.5
t-35.5 -123.5q-2 -40 10.5 -67t33 -43.5t46 -23.5t49.5 -7zM758 1321q37 0 63 17t42 44t23 60t7 65q0 23 -5.5 45.5t-17.5 40t-30.5 28.5t-44.5 11q-38 0 -65 -17t-43.5 -43.5t-24 -59.5t-7.5 -66q0 -24 6 -47t18.5 -40t32 -27.5t46.5 -10.5zM725 1225q-53 0 -99 12
t-80.5 37.5t-54.5 65t-20 94.5q0 72 29 127t78.5 92t114 56t136.5 19q52 0 97 -12t78 -37t52 -64.5t19 -93.5q0 -71 -28 -126.5t-75.5 -93t-111 -57t-135.5 -19.5zM511 1806q55 75 109.5 152.5t114.5 149.5q19 24 39 41t41.5 28t47 16t56.5 5q22 0 43 -7t37.5 -19.5
t26.5 -31.5t10 -43t-8 -42.5t-20.5 -34t-29 -28.5t-34.5 -25q-87 -60 -179.5 -110t-181.5 -104z" />
    <glyph glyph-name="uni1EA3" unicode="&#x1ea3;" horiz-adv-x="1356" 
d="M334 -21q-70 0 -125 24.5t-92.5 65t-57.5 93t-20 108.5q0 84 28.5 148.5t76 112t109 80t127.5 52t132 28t122 8.5q11 0 40.5 -2t62 -5t61 -5.5t38.5 -3.5l2.5 18.5t6 43.5t6 49.5t2.5 36.5q0 82 -46.5 117.5t-127.5 35.5q-42 0 -94.5 -22.5t-105 -54t-100 -65
t-79.5 -55.5h-76v263q55 16 111 31.5t116.5 28t127 20t143.5 7.5q76 0 157 -14t148 -46.5t110 -86.5t43 -134q0 -18 -1.5 -40t-4 -45t-6 -44.5t-7.5 -38.5l-54 -232q-6 -28 -12.5 -60.5t-12 -62.5t-9 -53.5t-3.5 -33.5q0 -16 3 -33t13.5 -31.5t29.5 -23.5t51 -9
q10 0 21.5 1.5t24 4.5t28 8t34.5 12h40v-120q-43 -24 -91.5 -38t-95.5 -21.5t-90 -9.5t-74 -2q-56 0 -95 15t-65 40t-40.5 58t-20.5 70h-16q-56 -62 -109.5 -99.5t-103 -57t-95 -25.5t-85.5 -6zM524 173q54 0 113.5 26t107.5 80l62 276q-91 0 -167 -9t-131.5 -35t-88 -73.5
t-35.5 -123.5q-2 -40 10.5 -67t33 -43.5t46 -23.5t49.5 -7zM885 1707q42 0 80 -8.5t66 -25.5t44.5 -42.5t16.5 -59.5q0 -39 -14.5 -67.5t-37 -50.5t-49.5 -41.5t-52 -41t-44.5 -48t-27.5 -63.5l-7 -31h-174l8 39q9 40 27.5 68t41.5 49t47.5 38t44.5 35t33 40.5t13 55.5
q0 10 -3.5 18.5t-10 14t-16 8.5t-22.5 3q-22 0 -43 -6.5t-40 -16t-35.5 -20.5t-28.5 -21h-83l25 120q14 6 38 15t55.5 17.5t69 15t78.5 6.5z" />
    <glyph glyph-name="uni1EA1" unicode="&#x1ea1;" horiz-adv-x="1356" 
d="M334 -21q-70 0 -125 24.5t-92.5 65t-57.5 93t-20 108.5q0 84 28.5 148.5t76 112t109 80t127.5 52t132 28t122 8.5q11 0 40.5 -2t62 -5t61 -5.5t38.5 -3.5l2.5 18.5t6 43.5t6 49.5t2.5 36.5q0 82 -46.5 117.5t-127.5 35.5q-42 0 -94.5 -22.5t-105 -54t-100 -65
t-79.5 -55.5h-76v263q55 16 111 31.5t116.5 28t127 20t143.5 7.5q76 0 157 -14t148 -46.5t110 -86.5t43 -134q0 -18 -1.5 -40t-4 -45t-6 -44.5t-7.5 -38.5l-54 -232q-6 -28 -12.5 -60.5t-12 -62.5t-9 -53.5t-3.5 -33.5q0 -16 3 -33t13.5 -31.5t29.5 -23.5t51 -9
q10 0 21.5 1.5t24 4.5t28 8t34.5 12h40v-120q-43 -24 -91.5 -38t-95.5 -21.5t-90 -9.5t-74 -2q-56 0 -95 15t-65 40t-40.5 58t-20.5 70h-16q-56 -62 -109.5 -99.5t-103 -57t-95 -25.5t-85.5 -6zM524 173q54 0 113.5 26t107.5 80l62 276q-91 0 -167 -9t-131.5 -35t-88 -73.5
t-35.5 -123.5q-2 -40 10.5 -67t33 -43.5t46 -23.5t49.5 -7zM674 -498q-37 0 -74.5 12t-68 34.5t-49.5 53.5t-19 69q0 40 17.5 71t46.5 51.5t67 31t80 10.5q49 0 89 -9.5t69 -28t45 -47t16 -66.5q0 -41 -18.5 -74.5t-49 -57.5t-70 -37t-81.5 -13z" />
    <glyph glyph-name="uni1EAD" unicode="&#x1ead;" horiz-adv-x="1356" 
d="M334 -21q-70 0 -125 24.5t-92.5 65t-57.5 93t-20 108.5q0 84 28.5 148.5t76 112t109 80t127.5 52t132 28t122 8.5q11 0 40.5 -2t62 -5t61 -5.5t38.5 -3.5l2.5 18.5t6 43.5t6 49.5t2.5 36.5q0 82 -46.5 117.5t-127.5 35.5q-42 0 -94.5 -22.5t-105 -54t-100 -65
t-79.5 -55.5h-76v263q55 16 111 31.5t116.5 28t127 20t143.5 7.5q76 0 157 -14t148 -46.5t110 -86.5t43 -134q0 -18 -1.5 -40t-4 -45t-6 -44.5t-7.5 -38.5l-54 -232q-6 -28 -12.5 -60.5t-12 -62.5t-9 -53.5t-3.5 -33.5q0 -16 3 -33t13.5 -31.5t29.5 -23.5t51 -9
q10 0 21.5 1.5t24 4.5t28 8t34.5 12h40v-120q-43 -24 -91.5 -38t-95.5 -21.5t-90 -9.5t-74 -2q-56 0 -95 15t-65 40t-40.5 58t-20.5 70h-16q-56 -62 -109.5 -99.5t-103 -57t-95 -25.5t-85.5 -6zM524 173q54 0 113.5 26t107.5 80l62 276q-91 0 -167 -9t-131.5 -35t-88 -73.5
t-35.5 -123.5q-2 -40 10.5 -67t33 -43.5t46 -23.5t49.5 -7zM344 1278l263 302q40 46 81 68t92 22t86.5 -22t59.5 -68l160 -302l-83 -51l-248 231l-345 -233zM674 -498q-37 0 -74.5 12t-68 34.5t-49.5 53.5t-19 69q0 40 17.5 71t46.5 51.5t67 31t80 10.5q49 0 89 -9.5t69 -28
t45 -47t16 -66.5q0 -41 -18.5 -74.5t-49 -57.5t-70 -37t-81.5 -13z" />
    <glyph glyph-name="uni1EB7" unicode="&#x1eb7;" horiz-adv-x="1356" 
d="M334 -21q-70 0 -125 24.5t-92.5 65t-57.5 93t-20 108.5q0 84 28.5 148.5t76 112t109 80t127.5 52t132 28t122 8.5q11 0 40.5 -2t62 -5t61 -5.5t38.5 -3.5l2.5 18.5t6 43.5t6 49.5t2.5 36.5q0 82 -46.5 117.5t-127.5 35.5q-42 0 -94.5 -22.5t-105 -54t-100 -65
t-79.5 -55.5h-76v263q55 16 111 31.5t116.5 28t127 20t143.5 7.5q76 0 157 -14t148 -46.5t110 -86.5t43 -134q0 -18 -1.5 -40t-4 -45t-6 -44.5t-7.5 -38.5l-54 -232q-6 -28 -12.5 -60.5t-12 -62.5t-9 -53.5t-3.5 -33.5q0 -16 3 -33t13.5 -31.5t29.5 -23.5t51 -9
q10 0 21.5 1.5t24 4.5t28 8t34.5 12h40v-120q-43 -24 -91.5 -38t-95.5 -21.5t-90 -9.5t-74 -2q-56 0 -95 15t-65 40t-40.5 58t-20.5 70h-16q-56 -62 -109.5 -99.5t-103 -57t-95 -25.5t-85.5 -6zM524 173q54 0 113.5 26t107.5 80l62 276q-91 0 -167 -9t-131.5 -35t-88 -73.5
t-35.5 -123.5q-2 -40 10.5 -67t33 -43.5t46 -23.5t49.5 -7zM773 1247q-79 0 -140 24.5t-101.5 74t-59.5 125t-15 177.5l115 20q10 -51 25 -91.5t41 -69t66 -43.5t101 -15q58 0 102.5 14.5t80 42.5t64 68.5t55.5 93.5l109 -20q-29 -102 -71.5 -177.5t-99 -125t-125 -74
t-147.5 -24.5zM674 -498q-37 0 -74.5 12t-68 34.5t-49.5 53.5t-19 69q0 40 17.5 71t46.5 51.5t67 31t80 10.5q49 0 89 -9.5t69 -28t45 -47t16 -66.5q0 -41 -18.5 -74.5t-49 -57.5t-70 -37t-81.5 -13z" />
    <glyph glyph-name="aogonek" unicode="&#x105;" horiz-adv-x="1356" 
d="M867 -462q-42 0 -83.5 8.5t-74.5 28.5t-54 53t-21 82t20.5 91.5t53.5 78t74.5 65.5t83.5 55q-58 22 -85.5 67t-37.5 100h-16q-56 -62 -109.5 -99.5t-103 -57t-95 -25.5t-85.5 -6q-70 0 -125 24.5t-92.5 65t-57.5 93t-20 108.5q0 84 28.5 148.5t76 112t109 80t127.5 52
t132 28t122 8.5q11 0 40.5 -2t62 -5t61 -5.5t38.5 -3.5l2.5 18.5t6 43.5t6 49.5t2.5 36.5q0 82 -46.5 117.5t-127.5 35.5q-42 0 -94.5 -22.5t-105 -54t-100 -65t-79.5 -55.5h-76v263q55 16 111 31.5t116.5 28t127 20t143.5 7.5q76 0 157 -14t148 -46.5t110 -86.5t43 -134
q0 -18 -1.5 -40t-4 -45t-6 -44.5t-7.5 -38.5l-54 -232q-6 -28 -12.5 -60.5t-12 -62.5t-9 -53.5t-3.5 -33.5q0 -16 3 -33t13.5 -31.5t29.5 -23.5t51 -9q10 0 21.5 1.5t24 4.5t28 8t34.5 12h40v-120q-36 -20 -76 -33t-79.5 -21t-77.5 -11.5t-71 -4.5q-29 -21 -56 -45
t-48.5 -51.5t-34.5 -57.5t-13 -62q0 -37 22 -58.5t59 -21.5q26 0 56 11t54 22h48l-2 -132q-24 -12 -53.5 -21.5t-59.5 -16.5t-60 -10.5t-56 -3.5zM524 173q54 0 113.5 26t107.5 80l62 276q-91 0 -167 -9t-131.5 -35t-88 -73.5t-35.5 -123.5q-2 -40 10.5 -67t33 -43.5
t46 -23.5t49.5 -7z" />
    <glyph glyph-name="ae" unicode="&#xe6;" horiz-adv-x="1904" 
d="M1241 -24q-44 0 -101 11t-116 38.5t-112.5 73.5t-89.5 115h-16q-56 -70 -111 -115.5t-111.5 -72t-115.5 -37t-122 -10.5q-74 0 -131 24.5t-96 65t-59.5 93t-20.5 108.5q0 84 28.5 148t76 111.5t109 79t127.5 51t132 27.5t122 8q11 0 39.5 -2t60.5 -4.5t60 -5t38 -3.5
l2.5 19t6 44.5t6 50.5t2.5 37q0 82 -44.5 117.5t-125.5 35.5q-42 0 -94.5 -22.5t-105 -54t-100 -65t-79.5 -55.5h-76v263q55 16 111 31.5t116.5 28t127 20t143.5 7.5q49 0 99.5 -7t98.5 -22t91 -38t77 -54q81 57 176 90t207 33q66 0 135 -14.5t125.5 -46.5t92.5 -83.5
t36 -125.5q0 -69 -25 -123.5t-68.5 -95.5t-102 -70t-125.5 -47t-139.5 -26t-143.5 -8q-48 0 -83.5 2t-69.5 4q0 -8 -0.5 -14.5t-0.5 -14.5q-1 -72 16.5 -127.5t53 -93.5t88.5 -58t124 -20q66 0 122 12t101.5 29.5t81.5 37t62 34.5h55v-143q-45 -31 -105.5 -61.5t-133.5 -55
t-155.5 -39.5t-170.5 -15zM1241 628q61 0 113 12t90 40t59.5 74t21.5 114q0 29 -10.5 51.5t-27 37.5t-37.5 23t-43 8q-47 0 -92 -26t-83 -74q-19 -24 -36 -52.5t-30.5 -61t-24.5 -68.5t-18 -75q23 -2 56.5 -2.5t61.5 -0.5zM524 173q54 0 111.5 26t105.5 80l62 275
q-91 0 -166.5 -8.5t-130.5 -34.5t-86.5 -73t-34.5 -124q-2 -40 10.5 -67t33 -43.5t46 -23.5t49.5 -7z" />
    <glyph glyph-name="aeacute" unicode="&#x1fd;" horiz-adv-x="1904" 
d="M1241 -24q-44 0 -101 11t-116 38.5t-112.5 73.5t-89.5 115h-16q-56 -70 -111 -115.5t-111.5 -72t-115.5 -37t-122 -10.5q-74 0 -131 24.5t-96 65t-59.5 93t-20.5 108.5q0 84 28.5 148t76 111.5t109 79t127.5 51t132 27.5t122 8q11 0 39.5 -2t60.5 -4.5t60 -5t38 -3.5
l2.5 19t6 44.5t6 50.5t2.5 37q0 82 -44.5 117.5t-125.5 35.5q-42 0 -94.5 -22.5t-105 -54t-100 -65t-79.5 -55.5h-76v263q55 16 111 31.5t116.5 28t127 20t143.5 7.5q49 0 99.5 -7t98.5 -22t91 -38t77 -54q81 57 176 90t207 33q66 0 135 -14.5t125.5 -46.5t92.5 -83.5
t36 -125.5q0 -69 -25 -123.5t-68.5 -95.5t-102 -70t-125.5 -47t-139.5 -26t-143.5 -8q-48 0 -83.5 2t-69.5 4q0 -8 -0.5 -14.5t-0.5 -14.5q-1 -72 16.5 -127.5t53 -93.5t88.5 -58t124 -20q66 0 122 12t101.5 29.5t81.5 37t62 34.5h55v-143q-45 -31 -105.5 -61.5t-133.5 -55
t-155.5 -39.5t-170.5 -15zM1241 628q61 0 113 12t90 40t59.5 74t21.5 114q0 29 -10.5 51.5t-27 37.5t-37.5 23t-43 8q-47 0 -92 -26t-83 -74q-19 -24 -36 -52.5t-30.5 -61t-24.5 -68.5t-18 -75q23 -2 56.5 -2.5t61.5 -0.5zM524 173q54 0 111.5 26t105.5 80l62 275
q-91 0 -166.5 -8.5t-130.5 -34.5t-86.5 -73t-34.5 -124q-2 -40 10.5 -67t33 -43.5t46 -23.5t49.5 -7zM834 1278q55 75 109.5 152.5t114.5 149.5q19 24 39 41t41.5 28t47 16t56.5 5q22 0 43 -7t37.5 -19.5t26.5 -31.5t10 -43t-8 -42.5t-20.5 -34t-29 -28.5t-34.5 -25
q-87 -60 -179.5 -110t-181.5 -104z" />
    <glyph glyph-name="cacute" unicode="&#x107;" horiz-adv-x="1161" 
d="M587 -24q-119 0 -211.5 36.5t-156 101t-96.5 153t-33 192.5q0 109 28 202t77 168t116.5 132.5t145.5 96.5q80 40 167 60t177 20q60 0 108 -10t86 -24t66.5 -28.5t49.5 -23.5v-277h-76q-42 28 -89.5 59.5t-96.5 58.5t-98.5 44.5t-95.5 17.5q-12 0 -24.5 -2.5t-24.5 -8
t-23.5 -13t-21.5 -17.5q-35 -33 -59.5 -82t-39.5 -103t-22 -108.5t-7 -98.5q0 -80 16 -144t50 -108.5t86.5 -68.5t124.5 -24q43 0 85 11.5t80.5 29t71.5 38.5t59 41h55v-152q-42 -31 -97 -61t-117 -54t-128.5 -39t-131.5 -15zM560 1278q55 75 109.5 152.5t114.5 149.5
q19 24 39 41t41.5 28t47 16t56.5 5q22 0 43 -7t37.5 -19.5t26.5 -31.5t10 -43t-8 -42.5t-20.5 -34t-29 -28.5t-34.5 -25q-87 -60 -179.5 -110t-181.5 -104z" />
    <glyph glyph-name="ccircumflex" unicode="&#x109;" horiz-adv-x="1161" 
d="M587 -24q-119 0 -211.5 36.5t-156 101t-96.5 153t-33 192.5q0 109 28 202t77 168t116.5 132.5t145.5 96.5q80 40 167 60t177 20q60 0 108 -10t86 -24t66.5 -28.5t49.5 -23.5v-277h-76q-42 28 -89.5 59.5t-96.5 58.5t-98.5 44.5t-95.5 17.5q-12 0 -24.5 -2.5t-24.5 -8
t-23.5 -13t-21.5 -17.5q-35 -33 -59.5 -82t-39.5 -103t-22 -108.5t-7 -98.5q0 -80 16 -144t50 -108.5t86.5 -68.5t124.5 -24q43 0 85 11.5t80.5 29t71.5 38.5t59 41h55v-152q-42 -31 -97 -61t-117 -54t-128.5 -39t-131.5 -15zM422 1278l263 302q40 46 81 68t92 22t86.5 -22
t59.5 -68l160 -302l-83 -51l-248 231l-345 -233z" />
    <glyph glyph-name="ccaron" unicode="&#x10d;" horiz-adv-x="1161" 
d="M587 -24q-119 0 -211.5 36.5t-156 101t-96.5 153t-33 192.5q0 109 28 202t77 168t116.5 132.5t145.5 96.5q80 40 167 60t177 20q60 0 108 -10t86 -24t66.5 -28.5t49.5 -23.5v-277h-76q-42 28 -89.5 59.5t-96.5 58.5t-98.5 44.5t-95.5 17.5q-12 0 -24.5 -2.5t-24.5 -8
t-23.5 -13t-21.5 -17.5q-35 -33 -59.5 -82t-39.5 -103t-22 -108.5t-7 -98.5q0 -80 16 -144t50 -108.5t86.5 -68.5t124.5 -24q43 0 85 11.5t80.5 29t71.5 38.5t59 41h55v-152q-42 -31 -97 -61t-117 -54t-128.5 -39t-131.5 -15zM821 1225q-51 0 -86.5 22t-59.5 68l-159 302
l83 51l246 -231l347 233l66 -53l-264 -302q-40 -46 -81 -68t-92 -22z" />
    <glyph glyph-name="cdotaccent" unicode="&#x10b;" horiz-adv-x="1161" 
d="M587 -24q-119 0 -211.5 36.5t-156 101t-96.5 153t-33 192.5q0 109 28 202t77 168t116.5 132.5t145.5 96.5q80 40 167 60t177 20q60 0 108 -10t86 -24t66.5 -28.5t49.5 -23.5v-277h-76q-42 28 -89.5 59.5t-96.5 58.5t-98.5 44.5t-95.5 17.5q-12 0 -24.5 -2.5t-24.5 -8
t-23.5 -13t-21.5 -17.5q-35 -33 -59.5 -82t-39.5 -103t-22 -108.5t-7 -98.5q0 -80 16 -144t50 -108.5t86.5 -68.5t124.5 -24q43 0 85 11.5t80.5 29t71.5 38.5t59 41h55v-152q-42 -31 -97 -61t-117 -54t-128.5 -39t-131.5 -15zM818 1242q-37 0 -74.5 12t-68 34.5t-49.5 53.5
t-19 69q0 40 17.5 71t46.5 51.5t67 31t80 10.5q49 0 89 -9.5t69 -28t45 -47t16 -66.5q0 -41 -18.5 -74.5t-49 -57.5t-70 -37t-81.5 -13z" />
    <glyph glyph-name="ccedilla" unicode="&#xe7;" horiz-adv-x="1161" 
d="M499 -502q-63 0 -117 13.5t-111 41.5l25 119h42q38 -26 82.5 -43t92.5 -17q24 0 47.5 4.5t42 15.5t30 30t11.5 48q0 27 -17.5 42t-42 21.5t-51 8t-45.5 1.5l40 195q-105 9 -186.5 49t-137.5 103.5t-85 147.5t-29 181q0 119 33 218.5t90 178t134.5 136t166.5 92.5
q69 27 141 40.5t146 13.5q60 0 108 -10t86 -24t66.5 -28.5t49.5 -23.5v-277h-76q-42 28 -89.5 59.5t-96.5 58.5t-98.5 44.5t-95.5 17.5q-12 0 -24.5 -2.5t-24.5 -8t-23.5 -13t-21.5 -17.5q-35 -33 -59.5 -82t-39.5 -103t-22 -108.5t-7 -98.5q0 -80 16 -144t50 -108.5
t86.5 -68.5t124.5 -24q43 0 85 11.5t80.5 29t71.5 38.5t59 41h55v-152q-38 -27 -86 -54t-102 -50t-112 -39.5t-117 -22.5l-15 -75q36 -1 74 -10.5t69.5 -28.5t51.5 -49t20 -72q0 -71 -32 -118t-82.5 -75.5t-111.5 -40.5t-119 -12z" />
    <glyph glyph-name="dcaron" unicode="&#x10f;" horiz-adv-x="1443" 
d="M437 -21q-86 0 -151.5 33t-110.5 91t-68 136.5t-23 170.5t19 181.5t55.5 170t89.5 149.5t121 119t150 78.5t176 28.5q48 0 91.5 -9.5t81 -24.5t67 -34.5t49.5 -39.5l9 48l58 266q5 20 -3.5 29.5t-22.5 16.5l-147 74v95h545l-242 -1101q-7 -30 -13.5 -63t-12 -62.5
t-8.5 -52.5t-3 -33q0 -16 3 -33t13.5 -31.5t29.5 -23.5t51 -9q10 0 21.5 1.5t24 4.5t28 8t34.5 12h40v-120q-43 -24 -91.5 -38t-95.5 -21.5t-90 -9.5t-74 -2q-51 0 -91.5 15t-69 40t-44.5 58t-18 70h-17q-60 -67 -113 -105t-99 -56.5t-83.5 -22.5t-65.5 -4zM630 171
q27 0 53.5 9t51 23.5t45.5 33.5t37 40l141 636q-42 15 -92 27t-114 12q-60 0 -107 -24t-82.5 -64t-60.5 -92t-41 -108t-23 -113t-7 -106q0 -51 8.5 -100t30.5 -87.5t61 -62.5t99 -24zM1446 1160q24 16 50 38t49.5 47.5t44 52.5t34.5 54q-26 19 -45 33.5t-31.5 29t-18.5 30
t-6 36.5q0 31 13.5 58t37 47t55.5 31.5t70 11.5t65.5 -11t45.5 -31t27 -47t9 -58q0 -53 -17 -98.5t-45 -85t-64 -73t-74.5 -61t-76.5 -50t-69 -39.5z" />
    <glyph glyph-name="dcroat" unicode="&#x111;" horiz-adv-x="1443" 
d="M1356 1213l-175 -756q-7 -31 -13.5 -64t-12 -62t-8.5 -52t-3 -33q0 -16 3 -33t13.5 -31.5t29.5 -23.5t51 -9q10 0 21.5 1.5t24 4.5t28 8t34.5 12h40v-120q-43 -24 -91.5 -38t-95.5 -21.5t-90 -9.5t-74 -2q-51 0 -91.5 15t-69 40t-44.5 58t-18 70h-17q-59 -66 -112 -104
t-98.5 -56.5t-84 -23t-66.5 -4.5q-86 0 -151.5 32.5t-110.5 89.5t-68 134t-23 167t19 178.5t55.5 168t89.5 147t121 116.5t150 77t176 28q48 0 91.5 -9.5t81 -24.5t67 -34.5t49.5 -39.5l47 204h-361l26 125h356l8 34q5 20 -5 30.5t-24 15.5l-153 45v95h545l-46 -220h164
l-26 -125h-159zM630 171q27 0 53.5 8.5t51 23t45.5 33t37 38.5l141 620q-42 14 -92 26t-114 12q-60 0 -107 -23.5t-82.5 -62t-60.5 -89.5t-41 -105.5t-23 -110t-7 -103.5q0 -50 8.5 -97.5t30.5 -85.5t61 -61t99 -23z" />
    <glyph glyph-name="egrave" unicode="&#xe8;" horiz-adv-x="1224" 
d="M561 -24q-40 0 -91 9.5t-104 31t-103 56.5t-89 87.5t-63 123t-24 162.5q0 91 22.5 177.5t65.5 163.5t104.5 142t139 111.5t170.5 72.5t198 26q66 0 135.5 -14.5t127 -46.5t94 -83.5t36.5 -125.5q0 -69 -25 -123.5t-68.5 -96t-102 -70.5t-125.5 -47t-139.5 -26.5
t-143.5 -8.5q-48 0 -86.5 2t-66.5 6q0 -8 -0.5 -14.5t-0.5 -14.5q-2 -72 15.5 -127.5t53.5 -93.5t89 -58t124 -20q66 0 122 12t101.5 29.5t81.5 37t62 34.5h55v-143q-45 -31 -105.5 -61.5t-133.5 -55t-155.5 -39.5t-170.5 -15zM560 622q61 0 113.5 13t90.5 42t60 76t22 115
q0 60 -34 91t-85 31q-29 0 -56.5 -10t-53.5 -28q-30 -22 -57.5 -54.5t-50 -73.5t-40 -91t-27.5 -106q26 -2 58 -3.5t60 -1.5zM885 1225q-77 48 -131.5 81t-94.5 57t-68.5 41.5t-53.5 34.5q-48 33 -68 60.5t-20 69.5q0 19 10.5 37.5t28.5 32.5t41.5 22.5t50.5 8.5
q24 0 45 -3.5t41 -13t40.5 -27.5t41.5 -46q18 -24 35.5 -49t41 -59t55.5 -80.5t79 -113.5z" />
    <glyph glyph-name="eacute" unicode="&#xe9;" horiz-adv-x="1224" 
d="M561 -24q-40 0 -91 9.5t-104 31t-103 56.5t-89 87.5t-63 123t-24 162.5q0 91 22.5 177.5t65.5 163.5t104.5 142t139 111.5t170.5 72.5t198 26q66 0 135.5 -14.5t127 -46.5t94 -83.5t36.5 -125.5q0 -69 -25 -123.5t-68.5 -96t-102 -70.5t-125.5 -47t-139.5 -26.5
t-143.5 -8.5q-48 0 -86.5 2t-66.5 6q0 -8 -0.5 -14.5t-0.5 -14.5q-2 -72 15.5 -127.5t53.5 -93.5t89 -58t124 -20q66 0 122 12t101.5 29.5t81.5 37t62 34.5h55v-143q-45 -31 -105.5 -61.5t-133.5 -55t-155.5 -39.5t-170.5 -15zM560 622q61 0 113.5 13t90.5 42t60 76t22 115
q0 60 -34 91t-85 31q-29 0 -56.5 -10t-53.5 -28q-30 -22 -57.5 -54.5t-50 -73.5t-40 -91t-27.5 -106q26 -2 58 -3.5t60 -1.5zM576 1278q55 75 109.5 152.5t114.5 149.5q19 24 39 41t41.5 28t47 16t56.5 5q22 0 43 -7t37.5 -19.5t26.5 -31.5t10 -43t-8 -42.5t-20.5 -34
t-29 -28.5t-34.5 -25q-87 -60 -179.5 -110t-181.5 -104z" />
    <glyph glyph-name="ecircumflex" unicode="&#xea;" horiz-adv-x="1224" 
d="M561 -24q-40 0 -91 9.5t-104 31t-103 56.5t-89 87.5t-63 123t-24 162.5q0 91 22.5 177.5t65.5 163.5t104.5 142t139 111.5t170.5 72.5t198 26q66 0 135.5 -14.5t127 -46.5t94 -83.5t36.5 -125.5q0 -69 -25 -123.5t-68.5 -96t-102 -70.5t-125.5 -47t-139.5 -26.5
t-143.5 -8.5q-48 0 -86.5 2t-66.5 6q0 -8 -0.5 -14.5t-0.5 -14.5q-2 -72 15.5 -127.5t53.5 -93.5t89 -58t124 -20q66 0 122 12t101.5 29.5t81.5 37t62 34.5h55v-143q-45 -31 -105.5 -61.5t-133.5 -55t-155.5 -39.5t-170.5 -15zM560 622q61 0 113.5 13t90.5 42t60 76t22 115
q0 60 -34 91t-85 31q-29 0 -56.5 -10t-53.5 -28q-30 -22 -57.5 -54.5t-50 -73.5t-40 -91t-27.5 -106q26 -2 58 -3.5t60 -1.5zM392 1278l263 302q40 46 81 68t92 22t86.5 -22t59.5 -68l160 -302l-83 -51l-248 231l-345 -233z" />
    <glyph glyph-name="uni1EBF" unicode="&#x1ebf;" horiz-adv-x="1224" 
d="M561 -24q-40 0 -91 9.5t-104 31t-103 56.5t-89 87.5t-63 123t-24 162.5q0 91 22.5 177.5t65.5 163.5t104.5 142t139 111.5t170.5 72.5t198 26q66 0 135.5 -14.5t127 -46.5t94 -83.5t36.5 -125.5q0 -69 -25 -123.5t-68.5 -96t-102 -70.5t-125.5 -47t-139.5 -26.5
t-143.5 -8.5q-48 0 -86.5 2t-66.5 6q0 -8 -0.5 -14.5t-0.5 -14.5q-2 -72 15.5 -127.5t53.5 -93.5t89 -58t124 -20q66 0 122 12t101.5 29.5t81.5 37t62 34.5h55v-143q-45 -31 -105.5 -61.5t-133.5 -55t-155.5 -39.5t-170.5 -15zM560 622q61 0 113.5 13t90.5 42t60 76t22 115
q0 60 -34 91t-85 31q-29 0 -56.5 -10t-53.5 -28q-30 -22 -57.5 -54.5t-50 -73.5t-40 -91t-27.5 -106q26 -2 58 -3.5t60 -1.5zM1127 1496l111 291q12 31 28.5 51.5t35 32t38 16t38.5 4.5q27 0 49 -9t37.5 -24.5t24 -35.5t8.5 -42q0 -36 -15 -64.5t-52 -61.5l-226 -202z
M392 1278l263 302q40 46 81 68t92 22t86.5 -22t59.5 -68l160 -302l-83 -51l-248 231l-345 -233z" />
    <glyph glyph-name="uni1EC1" unicode="&#x1ec1;" horiz-adv-x="1224" 
d="M561 -24q-40 0 -91 9.5t-104 31t-103 56.5t-89 87.5t-63 123t-24 162.5q0 91 22.5 177.5t65.5 163.5t104.5 142t139 111.5t170.5 72.5t198 26q66 0 135.5 -14.5t127 -46.5t94 -83.5t36.5 -125.5q0 -69 -25 -123.5t-68.5 -96t-102 -70.5t-125.5 -47t-139.5 -26.5
t-143.5 -8.5q-48 0 -86.5 2t-66.5 6q0 -8 -0.5 -14.5t-0.5 -14.5q-2 -72 15.5 -127.5t53.5 -93.5t89 -58t124 -20q66 0 122 12t101.5 29.5t81.5 37t62 34.5h55v-143q-45 -31 -105.5 -61.5t-133.5 -55t-155.5 -39.5t-170.5 -15zM560 622q61 0 113.5 13t90.5 42t60 76t22 115
q0 60 -34 91t-85 31q-29 0 -56.5 -10t-53.5 -28q-30 -22 -57.5 -54.5t-50 -73.5t-40 -91t-27.5 -106q26 -2 58 -3.5t60 -1.5zM377 1452l-226 202q-37 33 -52 61.5t-15 64.5q0 22 8 42t22.5 35.5t34 24.5t42.5 9t45.5 -4.5t42 -16t36 -32t28.5 -51.5l111 -291zM392 1278
l263 302q40 46 81 68t92 22t86.5 -22t59.5 -68l160 -302l-83 -51l-248 231l-345 -233z" />
    <glyph glyph-name="uni1EC3" unicode="&#x1ec3;" horiz-adv-x="1224" 
d="M561 -24q-40 0 -91 9.5t-104 31t-103 56.5t-89 87.5t-63 123t-24 162.5q0 91 22.5 177.5t65.5 163.5t104.5 142t139 111.5t170.5 72.5t198 26q66 0 135.5 -14.5t127 -46.5t94 -83.5t36.5 -125.5q0 -69 -25 -123.5t-68.5 -96t-102 -70.5t-125.5 -47t-139.5 -26.5
t-143.5 -8.5q-48 0 -86.5 2t-66.5 6q0 -8 -0.5 -14.5t-0.5 -14.5q-2 -72 15.5 -127.5t53.5 -93.5t89 -58t124 -20q66 0 122 12t101.5 29.5t81.5 37t62 34.5h55v-143q-45 -31 -105.5 -61.5t-133.5 -55t-155.5 -39.5t-170.5 -15zM560 622q61 0 113.5 13t90.5 42t60 76t22 115
q0 60 -34 91t-85 31q-29 0 -56.5 -10t-53.5 -28q-30 -22 -57.5 -54.5t-50 -73.5t-40 -91t-27.5 -106q26 -2 58 -3.5t60 -1.5zM1350 1833q37 0 69.5 -8t57 -23t38.5 -37t14 -50q0 -32 -12 -54.5t-30 -41t-40 -34t-42.5 -33t-36.5 -39t-22 -51.5l-6 -25h-169l7 32
q6 27 20.5 48t33 39t38.5 33.5t36.5 31t27.5 33t11 38.5q0 17 -9 27t-29 10q-35 0 -61 -16.5t-46 -30.5h-80l22 107q12 4 32.5 11.5t47.5 15t59.5 12.5t68.5 5zM392 1278l263 302q40 46 81 68t92 22t86.5 -22t59.5 -68l160 -302l-83 -51l-248 231l-345 -233z" />
    <glyph glyph-name="uni1EC5" unicode="&#x1ec5;" horiz-adv-x="1224" 
d="M561 -24q-40 0 -91 9.5t-104 31t-103 56.5t-89 87.5t-63 123t-24 162.5q0 91 22.5 177.5t65.5 163.5t104.5 142t139 111.5t170.5 72.5t198 26q66 0 135.5 -14.5t127 -46.5t94 -83.5t36.5 -125.5q0 -69 -25 -123.5t-68.5 -96t-102 -70.5t-125.5 -47t-139.5 -26.5
t-143.5 -8.5q-48 0 -86.5 2t-66.5 6q0 -8 -0.5 -14.5t-0.5 -14.5q-2 -72 15.5 -127.5t53.5 -93.5t89 -58t124 -20q66 0 122 12t101.5 29.5t81.5 37t62 34.5h55v-143q-45 -31 -105.5 -61.5t-133.5 -55t-155.5 -39.5t-170.5 -15zM560 622q61 0 113.5 13t90.5 42t60 76t22 115
q0 60 -34 91t-85 31q-29 0 -56.5 -10t-53.5 -28q-30 -22 -57.5 -54.5t-50 -73.5t-40 -91t-27.5 -106q26 -2 58 -3.5t60 -1.5zM394 1278l261 287q40 46 81 68t92 22t86.5 -22t59.5 -68l162 -287l-83 -51l-250 216l-343 -218zM484 1674q20 70 52 127.5t72 99t86.5 64
t96.5 22.5q36 0 80 -18.5t89 -44.5q42 -25 68.5 -34.5t43.5 -9.5q45 0 72 34t46 88h118q-19 -69 -49.5 -126.5t-70 -99t-86.5 -64t-99 -22.5q-18 0 -35 3.5t-36 11.5t-41.5 20.5t-49.5 29.5q-39 25 -68 35t-46 10q-41 0 -73.5 -36t-50.5 -90h-119z" />
    <glyph glyph-name="ecaron" unicode="&#x11b;" horiz-adv-x="1224" 
d="M561 -24q-40 0 -91 9.5t-104 31t-103 56.5t-89 87.5t-63 123t-24 162.5q0 91 22.5 177.5t65.5 163.5t104.5 142t139 111.5t170.5 72.5t198 26q66 0 135.5 -14.5t127 -46.5t94 -83.5t36.5 -125.5q0 -69 -25 -123.5t-68.5 -96t-102 -70.5t-125.5 -47t-139.5 -26.5
t-143.5 -8.5q-48 0 -86.5 2t-66.5 6q0 -8 -0.5 -14.5t-0.5 -14.5q-2 -72 15.5 -127.5t53.5 -93.5t89 -58t124 -20q66 0 122 12t101.5 29.5t81.5 37t62 34.5h55v-143q-45 -31 -105.5 -61.5t-133.5 -55t-155.5 -39.5t-170.5 -15zM560 622q61 0 113.5 13t90.5 42t60 76t22 115
q0 60 -34 91t-85 31q-29 0 -56.5 -10t-53.5 -28q-30 -22 -57.5 -54.5t-50 -73.5t-40 -91t-27.5 -106q26 -2 58 -3.5t60 -1.5zM761 1225q-51 0 -86.5 22t-59.5 68l-159 302l83 51l246 -231l347 233l66 -53l-264 -302q-40 -46 -81 -68t-92 -22z" />
    <glyph glyph-name="uni1EBD" unicode="&#x1ebd;" horiz-adv-x="1224" 
d="M561 -24q-40 0 -91 9.5t-104 31t-103 56.5t-89 87.5t-63 123t-24 162.5q0 91 22.5 177.5t65.5 163.5t104.5 142t139 111.5t170.5 72.5t198 26q66 0 135.5 -14.5t127 -46.5t94 -83.5t36.5 -125.5q0 -69 -25 -123.5t-68.5 -96t-102 -70.5t-125.5 -47t-139.5 -26.5
t-143.5 -8.5q-48 0 -86.5 2t-66.5 6q0 -8 -0.5 -14.5t-0.5 -14.5q-2 -72 15.5 -127.5t53.5 -93.5t89 -58t124 -20q66 0 122 12t101.5 29.5t81.5 37t62 34.5h55v-143q-45 -31 -105.5 -61.5t-133.5 -55t-155.5 -39.5t-170.5 -15zM560 622q61 0 113.5 13t90.5 42t60 76t22 115
q0 60 -34 91t-85 31q-29 0 -56.5 -10t-53.5 -28q-30 -22 -57.5 -54.5t-50 -73.5t-40 -91t-27.5 -106q26 -2 58 -3.5t60 -1.5zM350 1254q20 70 52 127.5t72.5 99t88 64t98.5 22.5q33 0 76.5 -18.5t88.5 -44.5q42 -25 68.5 -34.5t43.5 -9.5q45 0 72 34t46 88h118
q-19 -69 -49.5 -126.5t-70 -99t-86.5 -64t-99 -22.5q-18 0 -35 3.5t-36 11.5t-41.5 20.5t-49.5 29.5q-39 25 -68 35t-46 10q-41 0 -73.5 -36t-50.5 -90h-119z" />
    <glyph glyph-name="edieresis" unicode="&#xeb;" horiz-adv-x="1224" 
d="M561 -24q-40 0 -91 9.5t-104 31t-103 56.5t-89 87.5t-63 123t-24 162.5q0 91 22.5 177.5t65.5 163.5t104.5 142t139 111.5t170.5 72.5t198 26q66 0 135.5 -14.5t127 -46.5t94 -83.5t36.5 -125.5q0 -69 -25 -123.5t-68.5 -96t-102 -70.5t-125.5 -47t-139.5 -26.5
t-143.5 -8.5q-48 0 -86.5 2t-66.5 6q0 -8 -0.5 -14.5t-0.5 -14.5q-2 -72 15.5 -127.5t53.5 -93.5t89 -58t124 -20q66 0 122 12t101.5 29.5t81.5 37t62 34.5h55v-143q-45 -31 -105.5 -61.5t-133.5 -55t-155.5 -39.5t-170.5 -15zM560 622q61 0 113.5 13t90.5 42t60 76t22 115
q0 60 -34 91t-85 31q-29 0 -56.5 -10t-53.5 -28q-30 -22 -57.5 -54.5t-50 -73.5t-40 -91t-27.5 -106q26 -2 58 -3.5t60 -1.5zM530 1264q-32 0 -60 9.5t-49.5 28t-34 45t-12.5 60.5q0 37 12.5 64.5t34 46.5t49.5 28.5t60 9.5q36 0 66 -9t51.5 -26t33 -43.5t11.5 -60.5
q0 -36 -12.5 -64.5t-34 -48t-51.5 -30t-64 -10.5zM1022 1264q-32 0 -60 9.5t-49.5 28t-34 45t-12.5 60.5q0 37 12.5 64.5t34 46.5t49.5 28.5t60 9.5q36 0 66 -9t51.5 -26t33 -43.5t11.5 -60.5q0 -36 -12.5 -64.5t-34 -48t-51.5 -30t-64 -10.5z" />
    <glyph glyph-name="emacron" unicode="&#x113;" horiz-adv-x="1224" 
d="M561 -24q-40 0 -91 9.5t-104 31t-103 56.5t-89 87.5t-63 123t-24 162.5q0 91 22.5 177.5t65.5 163.5t104.5 142t139 111.5t170.5 72.5t198 26q66 0 135.5 -14.5t127 -46.5t94 -83.5t36.5 -125.5q0 -69 -25 -123.5t-68.5 -96t-102 -70.5t-125.5 -47t-139.5 -26.5
t-143.5 -8.5q-48 0 -86.5 2t-66.5 6q0 -8 -0.5 -14.5t-0.5 -14.5q-2 -72 15.5 -127.5t53.5 -93.5t89 -58t124 -20q66 0 122 12t101.5 29.5t81.5 37t62 34.5h55v-143q-45 -31 -105.5 -61.5t-133.5 -55t-155.5 -39.5t-170.5 -15zM560 622q61 0 113.5 13t90.5 42t60 76t22 115
q0 60 -34 91t-85 31q-29 0 -56.5 -10t-53.5 -28q-30 -22 -57.5 -54.5t-50 -73.5t-40 -91t-27.5 -106q26 -2 58 -3.5t60 -1.5zM413 1520h743l-44 -192h-743z" />
    <glyph glyph-name="ebreve" unicode="&#x115;" horiz-adv-x="1224" 
d="M561 -24q-40 0 -91 9.5t-104 31t-103 56.5t-89 87.5t-63 123t-24 162.5q0 91 22.5 177.5t65.5 163.5t104.5 142t139 111.5t170.5 72.5t198 26q66 0 135.5 -14.5t127 -46.5t94 -83.5t36.5 -125.5q0 -69 -25 -123.5t-68.5 -96t-102 -70.5t-125.5 -47t-139.5 -26.5
t-143.5 -8.5q-48 0 -86.5 2t-66.5 6q0 -8 -0.5 -14.5t-0.5 -14.5q-2 -72 15.5 -127.5t53.5 -93.5t89 -58t124 -20q66 0 122 12t101.5 29.5t81.5 37t62 34.5h55v-143q-45 -31 -105.5 -61.5t-133.5 -55t-155.5 -39.5t-170.5 -15zM560 622q61 0 113.5 13t90.5 42t60 76t22 115
q0 60 -34 91t-85 31q-29 0 -56.5 -10t-53.5 -28q-30 -22 -57.5 -54.5t-50 -73.5t-40 -91t-27.5 -106q26 -2 58 -3.5t60 -1.5zM762 1247q-79 0 -140 24.5t-101.5 74t-59.5 125t-15 177.5l115 20q10 -51 25 -91.5t41 -69t66 -43.5t101 -15q58 0 102.5 14.5t80 42.5t64 68.5
t55.5 93.5l109 -20q-29 -102 -71.5 -177.5t-99 -125t-125 -74t-147.5 -24.5z" />
    <glyph glyph-name="edotaccent" unicode="&#x117;" horiz-adv-x="1224" 
d="M561 -24q-40 0 -91 9.5t-104 31t-103 56.5t-89 87.5t-63 123t-24 162.5q0 91 22.5 177.5t65.5 163.5t104.5 142t139 111.5t170.5 72.5t198 26q66 0 135.5 -14.5t127 -46.5t94 -83.5t36.5 -125.5q0 -69 -25 -123.5t-68.5 -96t-102 -70.5t-125.5 -47t-139.5 -26.5
t-143.5 -8.5q-48 0 -86.5 2t-66.5 6q0 -8 -0.5 -14.5t-0.5 -14.5q-2 -72 15.5 -127.5t53.5 -93.5t89 -58t124 -20q66 0 122 12t101.5 29.5t81.5 37t62 34.5h55v-143q-45 -31 -105.5 -61.5t-133.5 -55t-155.5 -39.5t-170.5 -15zM560 622q61 0 113.5 13t90.5 42t60 76t22 115
q0 60 -34 91t-85 31q-29 0 -56.5 -10t-53.5 -28q-30 -22 -57.5 -54.5t-50 -73.5t-40 -91t-27.5 -106q26 -2 58 -3.5t60 -1.5zM758 1242q-37 0 -74.5 12t-68 34.5t-49.5 53.5t-19 69q0 40 17.5 71t46.5 51.5t67 31t80 10.5q49 0 89 -9.5t69 -28t45 -47t16 -66.5
q0 -41 -18.5 -74.5t-49 -57.5t-70 -37t-81.5 -13z" />
    <glyph glyph-name="uni1EBB" unicode="&#x1ebb;" horiz-adv-x="1224" 
d="M561 -24q-40 0 -91 9.5t-104 31t-103 56.5t-89 87.5t-63 123t-24 162.5q0 91 22.5 177.5t65.5 163.5t104.5 142t139 111.5t170.5 72.5t198 26q66 0 135.5 -14.5t127 -46.5t94 -83.5t36.5 -125.5q0 -69 -25 -123.5t-68.5 -96t-102 -70.5t-125.5 -47t-139.5 -26.5
t-143.5 -8.5q-48 0 -86.5 2t-66.5 6q0 -8 -0.5 -14.5t-0.5 -14.5q-2 -72 15.5 -127.5t53.5 -93.5t89 -58t124 -20q66 0 122 12t101.5 29.5t81.5 37t62 34.5h55v-143q-45 -31 -105.5 -61.5t-133.5 -55t-155.5 -39.5t-170.5 -15zM560 622q61 0 113.5 13t90.5 42t60 76t22 115
q0 60 -34 91t-85 31q-29 0 -56.5 -10t-53.5 -28q-30 -22 -57.5 -54.5t-50 -73.5t-40 -91t-27.5 -106q26 -2 58 -3.5t60 -1.5zM874 1707q42 0 80 -8.5t66 -25.5t44.5 -42.5t16.5 -59.5q0 -39 -14.5 -67.5t-37 -50.5t-49.5 -41.5t-52 -41t-44.5 -48t-27.5 -63.5l-7 -31h-174
l8 39q9 40 27.5 68t41.5 49t47.5 38t44.5 35t33 40.5t13 55.5q0 10 -3.5 18.5t-10 14t-16 8.5t-22.5 3q-22 0 -43 -6.5t-40 -16t-35.5 -20.5t-28.5 -21h-83l25 120q14 6 38 15t55.5 17.5t69 15t78.5 6.5z" />
    <glyph glyph-name="uni1EB9" unicode="&#x1eb9;" horiz-adv-x="1224" 
d="M561 -24q-40 0 -91 9.5t-104 31t-103 56.5t-89 87.5t-63 123t-24 162.5q0 91 22.5 177.5t65.5 163.5t104.5 142t139 111.5t170.5 72.5t198 26q66 0 135.5 -14.5t127 -46.5t94 -83.5t36.5 -125.5q0 -69 -25 -123.5t-68.5 -96t-102 -70.5t-125.5 -47t-139.5 -26.5
t-143.5 -8.5q-48 0 -86.5 2t-66.5 6q0 -8 -0.5 -14.5t-0.5 -14.5q-2 -72 15.5 -127.5t53.5 -93.5t89 -58t124 -20q66 0 122 12t101.5 29.5t81.5 37t62 34.5h55v-143q-45 -31 -105.5 -61.5t-133.5 -55t-155.5 -39.5t-170.5 -15zM560 622q61 0 113.5 13t90.5 42t60 76t22 115
q0 60 -34 91t-85 31q-29 0 -56.5 -10t-53.5 -28q-30 -22 -57.5 -54.5t-50 -73.5t-40 -91t-27.5 -106q26 -2 58 -3.5t60 -1.5zM593 -498q-37 0 -74.5 12t-68 34.5t-49.5 53.5t-19 69q0 40 17.5 71t46.5 51.5t67 31t80 10.5q49 0 89 -9.5t69 -28t45 -47t16 -66.5
q0 -41 -18.5 -74.5t-49 -57.5t-70 -37t-81.5 -13z" />
    <glyph glyph-name="uni1EC7" unicode="&#x1ec7;" horiz-adv-x="1224" 
d="M561 -24q-40 0 -91 9.5t-104 31t-103 56.5t-89 87.5t-63 123t-24 162.5q0 91 22.5 177.5t65.5 163.5t104.5 142t139 111.5t170.5 72.5t198 26q66 0 135.5 -14.5t127 -46.5t94 -83.5t36.5 -125.5q0 -69 -25 -123.5t-68.5 -96t-102 -70.5t-125.5 -47t-139.5 -26.5
t-143.5 -8.5q-48 0 -86.5 2t-66.5 6q0 -8 -0.5 -14.5t-0.5 -14.5q-2 -72 15.5 -127.5t53.5 -93.5t89 -58t124 -20q66 0 122 12t101.5 29.5t81.5 37t62 34.5h55v-143q-45 -31 -105.5 -61.5t-133.5 -55t-155.5 -39.5t-170.5 -15zM560 622q61 0 113.5 13t90.5 42t60 76t22 115
q0 60 -34 91t-85 31q-29 0 -56.5 -10t-53.5 -28q-30 -22 -57.5 -54.5t-50 -73.5t-40 -91t-27.5 -106q26 -2 58 -3.5t60 -1.5zM393 1278l263 302q40 46 81 68t92 22t86.5 -22t59.5 -68l160 -302l-83 -51l-248 231l-345 -233zM593 -498q-37 0 -74.5 12t-68 34.5t-49.5 53.5
t-19 69q0 40 17.5 71t46.5 51.5t67 31t80 10.5q49 0 89 -9.5t69 -28t45 -47t16 -66.5q0 -41 -18.5 -74.5t-49 -57.5t-70 -37t-81.5 -13z" />
    <glyph glyph-name="eogonek" unicode="&#x119;" horiz-adv-x="1224" 
d="M703 -462q-42 0 -83.5 8.5t-74.5 28.5t-54 53t-21 82q0 45 16.5 84t44.5 72.5t63.5 62t73.5 53.5q-26 -3 -53 -4.5t-54 -1.5q-40 0 -91 9.5t-104 31t-103 56.5t-89 87.5t-63 123t-24 162.5q0 91 22.5 177.5t65.5 163.5t104.5 142t139 111.5t170.5 72.5t198 26
q66 0 135.5 -14.5t127 -46.5t94 -83.5t36.5 -125.5q0 -69 -25 -123.5t-68.5 -96t-102 -70.5t-125.5 -47t-139.5 -26.5t-143.5 -8.5q-48 0 -86.5 2t-66.5 6q0 -8 -0.5 -14.5t-0.5 -14.5q-2 -71 15.5 -126.5t53.5 -94t89 -58.5t124 -20q66 0 122 12t101.5 29.5t81.5 37
t62 34.5h55v-143q-35 -24 -79.5 -47t-95.5 -46q-33 -20 -77.5 -49t-84 -65.5t-67 -79.5t-27.5 -91q0 -37 22 -58.5t59 -21.5q26 0 56 11t54 22h48l-2 -132q-24 -12 -53.5 -21.5t-59.5 -16.5t-60 -10.5t-56 -3.5zM560 622q61 0 113.5 13t90.5 42t60 76t22 115q0 60 -34 91
t-85 31q-31 0 -60.5 -11.5t-57.5 -32.5q-29 -22 -55 -54.5t-47.5 -73t-38 -89t-26.5 -102.5q26 -2 58 -3.5t60 -1.5z" />
    <glyph glyph-name="gcircumflex" unicode="&#x11d;" horiz-adv-x="1404" 
d="M393 -501q-114 0 -192.5 11.5t-113.5 18.5v277h47q24 -10 63 -23.5t85.5 -26t98 -21t101.5 -8.5q49 0 84.5 3.5t60 10.5t41.5 17.5t29 23.5q17 19 30.5 55.5t24.5 82.5t21 97.5t21 101.5l12 49q-60 -62 -114 -96t-100.5 -50t-85 -19t-66.5 -3q-86 0 -152 31.5t-111.5 88
t-69 133.5t-23.5 167q0 88 19 175.5t55.5 167t89.5 148t121 119t150 79t176 28.5q48 0 88.5 -9.5t74.5 -24.5t60.5 -34.5t46.5 -39.5l57 99h334q-20 -58 -40 -115t-40 -115l-160 -831q-14 -70 -37.5 -127.5t-55 -105t-71 -87t-84.5 -72.5q-54 -39 -109.5 -71.5t-113.5 -55.5
t-120.5 -36t-131.5 -13zM633 192q27 0 53.5 7t51.5 19t47 27.5t39 32.5l132 635q-42 15 -91 27t-113 12q-60 0 -107 -24t-82.5 -63.5t-60.5 -90.5t-41 -106.5t-23 -110.5t-7 -102q0 -51 9 -98t31.5 -84t62 -59t99.5 -22zM407 1278l263 302q40 46 81 68t92 22t86.5 -22
t59.5 -68l160 -302l-83 -51l-248 231l-345 -233z" />
    <glyph glyph-name="gbreve" unicode="&#x11f;" horiz-adv-x="1404" 
d="M393 -501q-114 0 -192.5 11.5t-113.5 18.5v277h47q24 -10 63 -23.5t85.5 -26t98 -21t101.5 -8.5q49 0 84.5 3.5t60 10.5t41.5 17.5t29 23.5q17 19 30.5 55.5t24.5 82.5t21 97.5t21 101.5l12 49q-60 -62 -114 -96t-100.5 -50t-85 -19t-66.5 -3q-86 0 -152 31.5t-111.5 88
t-69 133.5t-23.5 167q0 88 19 175.5t55.5 167t89.5 148t121 119t150 79t176 28.5q48 0 88.5 -9.5t74.5 -24.5t60.5 -34.5t46.5 -39.5l57 99h334q-20 -58 -40 -115t-40 -115l-160 -831q-14 -70 -37.5 -127.5t-55 -105t-71 -87t-84.5 -72.5q-54 -39 -109.5 -71.5t-113.5 -55.5
t-120.5 -36t-131.5 -13zM633 192q27 0 53.5 7t51.5 19t47 27.5t39 32.5l132 635q-42 15 -91 27t-113 12q-60 0 -107 -24t-82.5 -63.5t-60.5 -90.5t-41 -106.5t-23 -110.5t-7 -102q0 -51 9 -98t31.5 -84t62 -59t99.5 -22zM787 1247q-79 0 -140 24.5t-101.5 74t-59.5 125
t-15 177.5l115 20q10 -51 25 -91.5t41 -69t66 -43.5t101 -15q58 0 102.5 14.5t80 42.5t64 68.5t55.5 93.5l109 -20q-29 -102 -71.5 -177.5t-99 -125t-125 -74t-147.5 -24.5z" />
    <glyph glyph-name="gdotaccent" unicode="&#x121;" horiz-adv-x="1404" 
d="M393 -501q-114 0 -192.5 11.5t-113.5 18.5v277h47q24 -10 63 -23.5t85.5 -26t98 -21t101.5 -8.5q49 0 84.5 3.5t60 10.5t41.5 17.5t29 23.5q17 19 30.5 55.5t24.5 82.5t21 97.5t21 101.5l12 49q-60 -62 -114 -96t-100.5 -50t-85 -19t-66.5 -3q-86 0 -152 31.5t-111.5 88
t-69 133.5t-23.5 167q0 88 19 175.5t55.5 167t89.5 148t121 119t150 79t176 28.5q48 0 88.5 -9.5t74.5 -24.5t60.5 -34.5t46.5 -39.5l57 99h334q-20 -58 -40 -115t-40 -115l-160 -831q-14 -70 -37.5 -127.5t-55 -105t-71 -87t-84.5 -72.5q-54 -39 -109.5 -71.5t-113.5 -55.5
t-120.5 -36t-131.5 -13zM633 192q27 0 53.5 7t51.5 19t47 27.5t39 32.5l132 635q-42 15 -91 27t-113 12q-60 0 -107 -24t-82.5 -63.5t-60.5 -90.5t-41 -106.5t-23 -110.5t-7 -102q0 -51 9 -98t31.5 -84t62 -59t99.5 -22zM783 1242q-37 0 -74.5 12t-68 34.5t-49.5 53.5
t-19 69q0 40 17.5 71t46.5 51.5t67 31t80 10.5q49 0 89 -9.5t69 -28t45 -47t16 -66.5q0 -41 -18.5 -74.5t-49 -57.5t-70 -37t-81.5 -13z" />
    <glyph glyph-name="uni0123" unicode="&#x123;" horiz-adv-x="1404" 
d="M393 -501q-114 0 -192.5 11.5t-113.5 18.5v277h47q24 -10 63 -23.5t85.5 -26t98 -21t101.5 -8.5q49 0 84.5 3.5t60 10.5t41.5 17.5t29 23.5q17 19 30.5 55.5t24.5 82.5t21 97.5t21 101.5l12 49q-60 -62 -114 -96t-100.5 -50t-85 -19t-66.5 -3q-86 0 -152 31.5t-111.5 88
t-69 133.5t-23.5 167q0 88 19 175.5t55.5 167t89.5 148t121 119t150 79t176 28.5q48 0 88.5 -9.5t74.5 -24.5t60.5 -34.5t46.5 -39.5l57 99h334q-20 -58 -40 -115t-40 -115l-160 -831q-14 -70 -37.5 -127.5t-55 -105t-71 -87t-84.5 -72.5q-54 -39 -109.5 -71.5t-113.5 -55.5
t-120.5 -36t-131.5 -13zM633 192q27 0 53.5 7t51.5 19t47 27.5t39 32.5l132 635q-42 15 -91 27t-113 12q-60 0 -107 -24t-82.5 -63.5t-60.5 -90.5t-41 -106.5t-23 -110.5t-7 -102q0 -51 9 -98t31.5 -84t62 -59t99.5 -22zM1023 1691q-38 -27 -64.5 -48.5t-45.5 -41t-31.5 -39
t-22.5 -42.5q27 -18 45.5 -33t30.5 -29.5t17.5 -29.5t5.5 -34q0 -26 -11.5 -52t-33.5 -47t-55 -34t-76 -13q-39 0 -67 10t-45.5 29t-26 45t-8.5 59q0 79 31.5 137.5t80 103t106 77.5t109.5 61z" />
    <glyph glyph-name="hcircumflex" unicode="&#x125;" horiz-adv-x="1451" 
d="M1053 -16q-51 0 -92 14.5t-69.5 40.5t-44 62t-15.5 80q0 26 5 65.5t16 84.5l84 355q4 16 7 32t4.5 30.5t2.5 27t1 23.5q0 29 -7.5 52.5t-25 40.5t-45 26t-66.5 9q-25 0 -53 -4t-56 -14t-55 -26t-50 -40l-140 -631v-53.5v-52.5v-52.5v-53.5h-372l299 1343q5 20 -5.5 29.5
t-21.5 16.5l-120 74v95h519l-121 -546l-13 -57q40 40 83.5 73.5t92 57.5t102.5 37.5t115 13.5q60 0 111 -17t88 -51t57.5 -84t20.5 -116q0 -25 -4 -56.5t-9 -54.5l-67 -285q-7 -30 -13.5 -62.5t-11.5 -61t-8 -51t-3 -32.5q0 -17 2.5 -35.5t12.5 -34.5t28.5 -26.5t50.5 -10.5
q10 0 22.5 0.5t26 2.5t28 5t29.5 8h40v-120q-43 -24 -93 -38t-98.5 -21.5t-93 -9.5t-75.5 -2zM166 1713l263 302q40 46 81 68t92 22t86.5 -22t59.5 -68l160 -302l-83 -51l-248 231l-345 -233z" />
    <glyph glyph-name="hbar" unicode="&#x127;" horiz-adv-x="1451" 
d="M1053 -16q-51 0 -92 14t-69.5 39.5t-44 61t-15.5 78.5q0 26 5 64t16 83l67 278q6 25 11.5 50t10 48.5t7.5 44.5t3 37q0 28 -7.5 51t-25 39.5t-45 25.5t-66.5 9q-25 0 -53 -4t-56 -13.5t-55 -25.5t-50 -39l-140 -618v-52v-51.5v-51.5v-52h-372l270 1213h-174l24 125h182
l6 27q4 20 -7 34.5t-24 19.5l-125 44v95h519l-52 -220h435l-24 -125h-436l-57 -278q40 40 83.5 73.5t92 57.5t102.5 37.5t115 13.5q60 0 111 -17t88 -50t57.5 -82t20.5 -114q0 -24 -4 -54.5t-9 -53.5l-67 -279q-7 -30 -13.5 -61.5t-11.5 -59.5t-8 -50t-3 -32
q0 -16 2.5 -34.5t12.5 -34t28.5 -26t50.5 -10.5q10 0 22.5 0.5t26 2.5t28 5t29.5 8h40v-120q-43 -24 -93 -38t-98.5 -21.5t-93 -9.5t-75.5 -2z" />
    <glyph glyph-name="igrave" unicode="&#xec;" horiz-adv-x="840" 
d="M410 -16q-51 0 -92.5 14.5t-71.5 40.5t-46 62t-16 80q0 26 5.5 65.5t15.5 84.5l113 516q5 20 -4.5 29.5t-22.5 16.5l-151 80v92l562 53l-146 -662q-7 -30 -13.5 -63t-12 -62.5t-8.5 -52t-3 -32.5q0 -16 3.5 -33t14 -31.5t29.5 -23.5t51 -9q10 0 23 1.5t28 4.5t32 8t36 12
h40v-120q-43 -24 -94 -38t-101 -21.5t-95 -9.5t-76 -2zM656 1225q-77 48 -131.5 81t-94.5 57t-68.5 41.5t-53.5 34.5q-48 33 -68 60.5t-20 69.5q0 19 10.5 37.5t28.5 32.5t41.5 22.5t50.5 8.5q24 0 45 -3.5t41 -13t40.5 -27.5t41.5 -46q18 -24 35.5 -49t41 -59t55.5 -80.5
t79 -113.5z" />
    <glyph glyph-name="iacute" unicode="&#xed;" horiz-adv-x="840" 
d="M410 -16q-51 0 -92.5 14.5t-71.5 40.5t-46 62t-16 80q0 26 5.5 65.5t15.5 84.5l113 516q5 20 -4.5 29.5t-22.5 16.5l-151 80v92l562 53l-146 -662q-7 -30 -13.5 -63t-12 -62.5t-8.5 -52t-3 -32.5q0 -16 3.5 -33t14 -31.5t29.5 -23.5t51 -9q10 0 23 1.5t28 4.5t32 8t36 12
h40v-120q-43 -24 -94 -38t-101 -21.5t-95 -9.5t-76 -2zM338 1278q55 75 109.5 152.5t114.5 149.5q19 24 39 41t41.5 28t47 16t56.5 5q22 0 43 -7t37.5 -19.5t26.5 -31.5t10 -43t-8 -42.5t-20.5 -34t-29 -28.5t-34.5 -25q-87 -60 -179.5 -110t-181.5 -104z" />
    <glyph glyph-name="icircumflex" unicode="&#xee;" horiz-adv-x="844" 
d="M412 -16q-51 0 -92.5 14.5t-71.5 40.5t-46 62t-16 80q0 26 5.5 65.5t15.5 84.5l113 516q5 20 -4.5 29.5t-22.5 16.5l-151 80v92l562 53l-146 -662q-7 -30 -13.5 -63t-12 -62.5t-8.5 -52t-3 -32.5q0 -16 3.5 -33t14 -31.5t29.5 -23.5t51 -9q10 0 23 1.5t28 4.5t32 8t36 12
h40v-120q-43 -24 -94 -38t-101 -21.5t-95 -9.5t-76 -2zM145 1278l258 302q39 46 80.5 68t92.5 22t87 -22.5t59 -67.5l154 -302l-83 -51l-242 231l-340 -233z" />
    <glyph glyph-name="itilde" unicode="&#x129;" horiz-adv-x="840" 
d="M410 -16q-51 0 -92.5 14.5t-71.5 40.5t-46 62t-16 80q0 26 5.5 65.5t15.5 84.5l113 516q5 20 -4.5 29.5t-22.5 16.5l-151 80v92l562 53l-146 -662q-7 -30 -13.5 -63t-12 -62.5t-8.5 -52t-3 -32.5q0 -16 3.5 -33t14 -31.5t29.5 -23.5t51 -9q10 0 23 1.5t28 4.5t32 8t36 12
h40v-120q-43 -24 -94 -38t-101 -21.5t-95 -9.5t-76 -2zM107 1254q20 70 52 127.5t72.5 99t88 64t98.5 22.5q33 0 76.5 -18.5t88.5 -44.5q42 -25 68.5 -34.5t43.5 -9.5q45 0 72 34t46 88h118q-19 -69 -49.5 -126.5t-70 -99t-86.5 -64t-99 -22.5q-18 0 -35 3.5t-36 11.5
t-41.5 20.5t-49.5 29.5q-39 25 -68 35t-46 10q-41 0 -73.5 -36t-50.5 -90h-119z" />
    <glyph glyph-name="idieresis" unicode="&#xef;" horiz-adv-x="844" 
d="M412 -16q-51 0 -92.5 14.5t-71.5 40.5t-46 62t-16 80q0 26 5.5 65.5t15.5 84.5l113 516q5 20 -4.5 29.5t-22.5 16.5l-151 80v92l562 53l-146 -662q-7 -30 -13.5 -63t-12 -62.5t-8.5 -52t-3 -32.5q0 -16 3.5 -33t14 -31.5t29.5 -23.5t51 -9q10 0 23 1.5t28 4.5t32 8t36 12
h40v-120q-43 -24 -94 -38t-101 -21.5t-95 -9.5t-76 -2zM279 1264q-32 0 -60 9.5t-49.5 28t-34 45t-12.5 60.5q0 37 12.5 64.5t34 46.5t49.5 28.5t60 9.5q36 0 66 -9t51.5 -26t33 -43.5t11.5 -60.5q0 -36 -12.5 -64.5t-34 -48t-51.5 -30t-64 -10.5zM759 1264q-32 0 -60 9.5
t-49.5 28t-34 45t-12.5 60.5q0 37 12.5 64.5t34 46.5t49.5 28.5t60 9.5q36 0 66 -9t51.5 -26t33 -43.5t11.5 -60.5q0 -36 -12.5 -64.5t-34 -48t-51.5 -30t-64 -10.5z" />
    <glyph glyph-name="imacron" unicode="&#x12b;" horiz-adv-x="840" 
d="M410 -16q-51 0 -92.5 14.5t-71.5 40.5t-46 62t-16 80q0 26 5.5 65.5t15.5 84.5l113 516q5 20 -4.5 29.5t-22.5 16.5l-151 80v92l562 53l-146 -662q-7 -30 -13.5 -63t-12 -62.5t-8.5 -52t-3 -32.5q0 -16 3.5 -33t14 -31.5t29.5 -23.5t51 -9q10 0 23 1.5t28 4.5t32 8t36 12
h40v-120q-43 -24 -94 -38t-101 -21.5t-95 -9.5t-76 -2zM170 1520h743l-44 -192h-743z" />
    <glyph glyph-name="ibreve" unicode="&#x12d;" horiz-adv-x="840" 
d="M410 -16q-51 0 -92.5 14.5t-71.5 40.5t-46 62t-16 80q0 26 5.5 65.5t15.5 84.5l113 516q5 20 -4.5 29.5t-22.5 16.5l-151 80v92l562 53l-146 -662q-7 -30 -13.5 -63t-12 -62.5t-8.5 -52t-3 -32.5q0 -16 3.5 -33t14 -31.5t29.5 -23.5t51 -9q10 0 23 1.5t28 4.5t32 8t36 12
h40v-120q-43 -24 -94 -38t-101 -21.5t-95 -9.5t-76 -2zM519 1247q-79 0 -140 24.5t-101.5 74t-59.5 125t-15 177.5l115 20q10 -51 25 -91.5t41 -69t66 -43.5t101 -15q58 0 102.5 14.5t80 42.5t64 68.5t55.5 93.5l109 -20q-29 -102 -71.5 -177.5t-99 -125t-125 -74
t-147.5 -24.5z" />
    <glyph glyph-name="uni1EC9" unicode="&#x1ec9;" horiz-adv-x="840" 
d="M410 -16q-51 0 -92.5 14.5t-71.5 40.5t-46 62t-16 80q0 26 5.5 65.5t15.5 84.5l113 516q5 20 -4.5 29.5t-22.5 16.5l-151 80v92l562 53l-146 -662q-7 -30 -13.5 -63t-12 -62.5t-8.5 -52t-3 -32.5q0 -16 3.5 -33t14 -31.5t29.5 -23.5t51 -9q10 0 23 1.5t28 4.5t32 8t36 12
h40v-120q-43 -24 -94 -38t-101 -21.5t-95 -9.5t-76 -2zM630 1707q42 0 80 -8.5t66 -25.5t44.5 -42.5t16.5 -59.5q0 -39 -14.5 -67.5t-37 -50.5t-49.5 -41.5t-52 -41t-44.5 -48t-27.5 -63.5l-7 -31h-174l8 39q9 40 27.5 68t41.5 49t47.5 38t44.5 35t33 40.5t13 55.5
q0 10 -3.5 18.5t-10 14t-16 8.5t-22.5 3q-22 0 -43 -6.5t-40 -16t-35.5 -20.5t-28.5 -21h-83l25 120q14 6 38 15t55.5 17.5t69 15t78.5 6.5z" />
    </font>
</defs>
</svg>
