<?xml version="1.0" standalone="no"?>
<!DOCTYPE svg PUBLIC "-//W3C//DTD SVG 1.1//EN" "http://www.w3.org/Graphics/SVG/1.1/DTD/svg11.dtd" >
<svg xmlns="http://www.w3.org/2000/svg" xmlns:xlink="http://www.w3.org/1999/xlink" version="1.1">
<metadata>
Created by FontForge 20170910 at Fri Aug  5 17:37:33 2016
 By Jimmy Wärting
(c) 2013 Microsoft Corporation. All Rights Reserved.
</metadata>
<defs>
<font id="SitkaBanner-BoldItalic" horiz-adv-x="0" >
  <font-face 
    font-family="Sitka Banner"
    font-weight="700"
    font-style="italic"
    font-stretch="normal"
    units-per-em="2250"
    panose-1="2 0 8 5 0 0 0 2 0 4"
    ascent="1703"
    descent="-547"
    x-height="971"
    cap-height="1378"
    bbox="-1037 -673 2933 2303"
    underline-thickness="102"
    underline-position="-205"
    slope="-12"
    unicode-range="U+0020-FB04"
  />
<missing-glyph horiz-adv-x="1024" 
d="M0 1466h1024v-1466h-1024v1466zM83 80h858v1306h-858v-1306z" />
    <glyph glyph-name="f_b.liga" unicode="fb" horiz-adv-x="1877" 
d="M763 -10q14 29 33.5 77.5t36.5 124.5l232 1080q5 26 -5 44t-40 30l-44 17l-28 -78h-27q-34 11 -61 18.5t-51 12t-46.5 6.5t-46.5 2t-42 -5.5t-39 -25.5q-6 -6 -17 -39.5t-23.5 -81t-25 -103t-22.5 -106.5h261l-29 -105h-252l-151 -784q-19 -100 -67 -188t-129 -163
q-54 -50 -104.5 -86.5t-103 -60.5t-109 -35.5t-121.5 -11.5q-36 0 -78.5 8t-94.5 26l80 222h27q33 -12 68 -22t69 -17t64.5 -11t54.5 -4q23 0 46 5.5t44 25.5q6 6 16 35.5t21 71t22 88.5t20 88l159 813h-164l24 105h164q17 60 34 111t39 96t50.5 85t69.5 77q54 49 103 85.5
t99.5 60.5t105.5 36t120 12q18 0 50.5 -3.5t72.5 -15.5l-26 -71l380 75l-136 -624l-1.5 -6.5t-3 -14t-2.5 -13.5l-1 -6q48 53 89 83t77 45t68 18.5t62 3.5q73 0 129 -27.5t94 -76.5t58 -117t20 -148q0 -79 -16.5 -157.5t-48 -150.5t-77.5 -133.5t-104.5 -107t-128.5 -71.5
t-150 -26q-36 0 -69 8t-61.5 20.5t-51 29t-37.5 33.5l-49 -83h-279zM1253 105q55 0 98 25t75.5 66t55.5 93.5t37 107.5t20.5 108.5t6.5 96.5q0 39 -7 80t-25 74.5t-49 55t-79 21.5t-91 -19t-74 -57l-134 -607q34 -23 79 -34t87 -11z" />
    <glyph glyph-name="f_f_b.liga" unicode="ffb" horiz-adv-x="2582" 
d="M-258 -471q-18 0 -37.5 2t-41 6t-45 10.5t-49.5 15.5l80 222h27q33 -12 68 -22t69 -17t64.5 -11t54.5 -4q23 0 46 5.5t44 25.5q6 6 16 35.5t21 71t22 88.5t20 88l159 813h-164l24 105h164q17 60 34 111t39 96t50.5 85t69.5 77q54 49 104.5 85.5t103 60.5t109 36t121.5 12
q18 0 38 -2.5t41.5 -6.5t42.5 -9.5t41 -11.5l-80 -222h-27q-34 12 -67.5 21t-65 15.5t-60 10t-52.5 3.5t-47 -5.5t-44 -25.5q-6 -6 -17 -39.5t-23.5 -81t-25 -103t-22.5 -106.5h261l-29 -105h-252l-151 -784q-19 -100 -67 -188t-129 -163q-54 -50 -104.5 -86.5t-103 -60.5
t-109 -35.5t-121.5 -11.5zM1468 -10q14 29 33.5 77.5t36.5 124.5l232 1080q5 26 -5 44t-40 30l-44 17l-28 -78h-27q-34 11 -61 18.5t-51 12t-46.5 6.5t-46.5 2t-42 -5.5t-39 -25.5q-6 -6 -17 -39.5t-23.5 -81t-25 -103t-22.5 -106.5h261l-29 -105h-252l-151 -784
q-19 -100 -67 -188t-129 -163q-54 -50 -104.5 -86.5t-103 -60.5t-109 -35.5t-121.5 -11.5q-36 0 -78.5 8t-94.5 26l80 222h27q33 -12 68 -22t69 -17t64.5 -11t54.5 -4q23 0 46 5.5t44 25.5q6 6 16 35.5t21 71t22 88.5t20 88l159 813h-164l24 105h164q17 60 34 111t39 96
t50.5 85t69.5 77q54 49 103 85.5t99.5 60.5t105.5 36t120 12q18 0 50.5 -3.5t72.5 -15.5l-26 -71l380 75l-136 -624l-1.5 -6.5t-3 -14t-2.5 -13.5l-1 -6q48 53 89 83t77 45t68 18.5t62 3.5q73 0 129 -27.5t94 -76.5t58 -117t20 -148q0 -79 -16.5 -157.5t-48 -150.5
t-77.5 -133.5t-104.5 -107t-128.5 -71.5t-150 -26q-36 0 -69 8t-61.5 20.5t-51 29t-37.5 33.5l-49 -83h-279zM1958 105q55 0 98 25t75.5 66t55.5 93.5t37 107.5t20.5 108.5t6.5 96.5q0 39 -7 80t-25 74.5t-49 55t-79 21.5t-91 -19t-74 -57l-134 -607q34 -23 79 -34t87 -11z
" />
    <glyph glyph-name="uniFB00" unicode="ff" horiz-adv-x="1400" 
d="M-258 -471q-18 0 -37.5 2t-41 6t-45 10.5t-49.5 15.5l80 222h27q33 -12 68 -22t69 -17t64.5 -11t54.5 -4q23 0 46 5.5t44 25.5q6 6 16 35.5t21 71t22 88.5t20 88l159 813h-164l24 105h164q17 60 34 111t39 96t50.5 85t69.5 77q54 49 104.5 85.5t103 60.5t109 36t121.5 12
q18 0 38 -2.5t41.5 -6.5t42.5 -9.5t41 -11.5l-80 -222h-27q-34 12 -67.5 21t-65 15.5t-60 10t-52.5 3.5t-47 -5.5t-44 -25.5q-6 -6 -17 -39.5t-23.5 -81t-25 -103t-22.5 -106.5h261l-29 -105h-252l-151 -784q-19 -100 -67 -188t-129 -163q-54 -50 -104.5 -86.5t-103 -60.5
t-109 -35.5t-121.5 -11.5zM447 -471q-18 0 -37.5 2t-41 6t-45 10.5t-49.5 15.5l80 222h27q33 -12 68 -22t69 -17t64.5 -11t54.5 -4q23 0 46 5.5t44 25.5q6 6 16 35.5t21 71t22 88.5t20 88l159 813h-164l24 105h164q17 60 34 111t39 96t50.5 85t69.5 77q54 49 104.5 85.5
t103 60.5t109 36t121.5 12q18 0 38 -2.5t41.5 -6.5t42.5 -9.5t41 -11.5l-80 -222h-27q-34 12 -67.5 21t-65 15.5t-60 10t-52.5 3.5t-47 -5.5t-44 -25.5q-6 -6 -17 -39.5t-23.5 -81t-25 -103t-22.5 -106.5h261l-29 -105h-252l-151 -784q-19 -100 -67 -188t-129 -163
q-54 -50 -104.5 -86.5t-103 -60.5t-109 -35.5t-121.5 -11.5z" />
    <glyph glyph-name="f_h.liga" unicode="fh" horiz-adv-x="1889" 
d="M1585 -14q-41 0 -76 11t-61 30.5t-41 47t-15 60.5q0 45 5.5 78.5t12.5 63.5l68 290q4 16 8 35.5t7 40t5 39.5t2 34q0 25 -6 46.5t-20.5 37.5t-38 25.5t-57.5 9.5q-21 0 -44.5 -3.5t-47.5 -12.5t-48 -25.5t-45 -41.5l-125 -566q-5 -23 -7.5 -49.5t-3.5 -52.5t-1 -48v-36
h-294l283 1272q4 21 -1.5 37t-23.5 27l-22 -62h-27q-68 24 -132.5 37t-112.5 13q-24 0 -47 -5.5t-44 -25.5q-6 -6 -17 -39.5t-23.5 -81t-25 -103t-22.5 -106.5h261l-29 -105h-252l-151 -784q-19 -100 -67 -188t-129 -163q-54 -50 -104.5 -86.5t-103 -60.5t-109 -35.5
t-121.5 -11.5q-36 0 -78.5 8t-94.5 26l80 222h27q33 -12 68 -22t69 -17t64.5 -11t54.5 -4q23 0 46 5.5t44 25.5q6 6 16 35.5t21 71t22 88.5t20 88l159 813h-164l24 105h164q17 60 34 111t39 96t50.5 85t69.5 77q54 49 104.5 85.5t103 60.5t109 36t121.5 12q35 0 79 -9
t84 -21l-16 -45l300 60l-138 -624l-11 -50q37 39 72 69t74 50.5t84.5 30.5t103.5 10q49 0 92 -13t74.5 -40t49.5 -68.5t18 -98.5q0 -24 -3.5 -51.5t-9.5 -52.5l-73 -311q-7 -29 -12.5 -58t-9.5 -54.5t-6.5 -46t-2.5 -31.5q0 -10 5 -23t15.5 -25t27.5 -20t41 -8q6 0 17 2
t24.5 6t27.5 9t26 11h25v-66q-47 -29 -116.5 -50.5t-171.5 -21.5z" />
    <glyph glyph-name="f_f_h.liga" unicode="ffh" horiz-adv-x="2594" 
d="M-258 -471q-18 0 -37.5 2t-41 6t-45 10.5t-49.5 15.5l80 222h27q33 -12 68 -22t69 -17t64.5 -11t54.5 -4q23 0 46 5.5t44 25.5q6 6 16 35.5t21 71t22 88.5t20 88l159 813h-164l24 105h164q17 60 34 111t39 96t50.5 85t69.5 77q54 49 104.5 85.5t103 60.5t109 36t121.5 12
q18 0 38 -2.5t41.5 -6.5t42.5 -9.5t41 -11.5l-80 -222h-27q-34 12 -67.5 21t-65 15.5t-60 10t-52.5 3.5t-47 -5.5t-44 -25.5q-6 -6 -17 -39.5t-23.5 -81t-25 -103t-22.5 -106.5h261l-29 -105h-252l-151 -784q-19 -100 -67 -188t-129 -163q-54 -50 -104.5 -86.5t-103 -60.5
t-109 -35.5t-121.5 -11.5zM2290 -14q-41 0 -76 11t-61 30.5t-41 47t-15 60.5q0 45 5.5 78.5t12.5 63.5l68 290q4 16 8 35.5t7 40t5 39.5t2 34q0 25 -6 46.5t-20.5 37.5t-38 25.5t-57.5 9.5q-21 0 -44.5 -3.5t-47.5 -12.5t-48 -25.5t-45 -41.5l-125 -566q-5 -23 -7.5 -49.5
t-3.5 -52.5t-1 -48v-36h-294l283 1272q4 21 -1.5 37t-23.5 27l-22 -62h-27q-68 24 -132.5 37t-112.5 13q-24 0 -47 -5.5t-44 -25.5q-6 -6 -17 -39.5t-23.5 -81t-25 -103t-22.5 -106.5h261l-29 -105h-252l-151 -784q-19 -100 -67 -188t-129 -163q-54 -50 -104.5 -86.5
t-103 -60.5t-109 -35.5t-121.5 -11.5q-36 0 -78.5 8t-94.5 26l80 222h27q33 -12 68 -22t69 -17t64.5 -11t54.5 -4q23 0 46 5.5t44 25.5q6 6 16 35.5t21 71t22 88.5t20 88l159 813h-164l24 105h164q17 60 34 111t39 96t50.5 85t69.5 77q54 49 104.5 85.5t103 60.5t109 36
t121.5 12q35 0 79 -9t84 -21l-16 -45l300 60l-138 -624l-11 -50q37 39 72 69t74 50.5t84.5 30.5t103.5 10q49 0 92 -13t74.5 -40t49.5 -68.5t18 -98.5q0 -24 -3.5 -51.5t-9.5 -52.5l-73 -311q-7 -29 -12.5 -58t-9.5 -54.5t-6.5 -46t-2.5 -31.5q0 -10 5 -23t15.5 -25
t27.5 -20t41 -8q6 0 17 2t24.5 6t27.5 9t26 11h25v-66q-47 -29 -116.5 -50.5t-171.5 -21.5z" />
    <glyph glyph-name="uniFB01" unicode="fi" horiz-adv-x="1334" 
d="M-258 -471q-18 0 -37.5 2t-41 6t-45 10.5t-49.5 15.5l80 222h27q33 -12 68 -22t69 -17t64.5 -11t54.5 -4q23 0 46 5.5t44 25.5q6 6 16 35.5t21 71t22 88.5t20 88l159 813h-164l24 105h164q17 60 34 111t39 96t50.5 85t69.5 77q54 49 103 85.5t99.5 60.5t105.5 36t120 12
q9 0 22 -0.5t29 -3t34 -6t38 -9.5l-80 -222h-27q-34 11 -61 18.5t-51 12t-46.5 6.5t-46.5 2t-42 -5.5t-39 -25.5q-6 -6 -17 -39.5t-23.5 -81t-25 -103t-22.5 -106.5h251l-29 -105h-242l-151 -784q-19 -100 -67 -188t-129 -163q-54 -50 -104.5 -86.5t-103 -60.5t-109 -35.5
t-121.5 -11.5zM1010 -14q-41 0 -76 11t-61 30.5t-41 47t-15 60.5q0 45 5.5 78t12.5 64l108 481q5 27 -5 45t-41 29l-83 30l-1 48l445 79l-138 -627q-6 -29 -11.5 -58t-9.5 -54.5t-6.5 -46t-2.5 -31.5q0 -10 4.5 -23t15 -25t27.5 -20t41 -8q6 0 20 3t31 7.5t33.5 10.5
t28.5 12h25v-66q-24 -15 -55.5 -28.5t-70 -24.5t-84 -17.5t-96.5 -6.5zM1185 1189q-35 0 -64.5 12t-51.5 33.5t-34.5 50.5t-12.5 63q0 33 12.5 61.5t34.5 50t51.5 34t64.5 12.5q34 0 64.5 -12.5t53.5 -34t36 -50t13 -61.5q0 -34 -13 -63t-36 -50.5t-53.5 -33.5t-64.5 -12z
" />
    <glyph glyph-name="uniFB03" unicode="ffi" horiz-adv-x="2043" 
d="M-258 -471q-18 0 -37.5 2t-41 6t-45 10.5t-49.5 15.5l80 222h27q33 -12 68 -22t69 -17t64.5 -11t54.5 -4q23 0 46 5.5t44 25.5q6 6 16 35.5t21 71t22 88.5t20 88l159 813h-164l24 105h164q17 60 34 111t39 96t50.5 85t69.5 77q54 49 104.5 85.5t103 60.5t109 36t121.5 12
q18 0 38 -2.5t41.5 -6.5t42.5 -9.5t41 -11.5l-80 -222h-27q-34 12 -67.5 21t-65 15.5t-60 10t-52.5 3.5t-47 -5.5t-44 -25.5q-6 -6 -17 -39.5t-23.5 -81t-25 -103t-22.5 -106.5h261l-29 -105h-252l-151 -784q-19 -100 -67 -188t-129 -163q-54 -50 -104.5 -86.5t-103 -60.5
t-109 -35.5t-121.5 -11.5zM451 -471q-18 0 -37.5 2t-41 6t-45 10.5t-49.5 15.5l80 222h27q33 -12 68 -22t69 -17t64.5 -11t54.5 -4q23 0 46 5.5t44 25.5q6 6 16 35.5t21 71t22 88.5t20 88l159 813h-164l24 105h164q17 60 34 111t39 96t50.5 85t69.5 77q54 49 103 85.5
t99.5 60.5t105.5 36t120 12q9 0 22 -0.5t29 -3t34 -6t38 -9.5l-80 -222h-27q-34 11 -61 18.5t-51 12t-46.5 6.5t-46.5 2t-42 -5.5t-39 -25.5q-6 -6 -17 -39.5t-23.5 -81t-25 -103t-22.5 -106.5h251l-29 -105h-242l-151 -784q-19 -100 -67 -188t-129 -163
q-54 -50 -104.5 -86.5t-103 -60.5t-109 -35.5t-121.5 -11.5zM1719 -14q-41 0 -76 11t-61 30.5t-41 47t-15 60.5q0 45 5.5 78t12.5 64l108 481q5 27 -5 45t-41 29l-83 30l-1 48l445 79l-138 -627q-6 -29 -11.5 -58t-9.5 -54.5t-6.5 -46t-2.5 -31.5q0 -10 4.5 -23t15 -25
t27.5 -20t41 -8q6 0 20 3t31 7.5t33.5 10.5t28.5 12h25v-66q-24 -15 -55.5 -28.5t-70 -24.5t-84 -17.5t-96.5 -6.5zM1894 1189q-35 0 -64.5 12t-51.5 33.5t-34.5 50.5t-12.5 63q0 33 12.5 61.5t34.5 50t51.5 34t64.5 12.5q34 0 64.5 -12.5t53.5 -34t36 -50t13 -61.5
q0 -34 -13 -63t-36 -50.5t-53.5 -33.5t-64.5 -12z" />
    <glyph glyph-name="f_j.liga" unicode="fj" horiz-adv-x="1334" 
d="M-258 -471q-18 0 -37.5 2t-41 6t-45 10.5t-49.5 15.5l80 222h27q33 -12 68 -22t69 -17t64.5 -11t54.5 -4q23 0 46 5.5t44 25.5q6 6 16 35.5t21 71t22 88.5t20 88l159 813h-164l24 105h164q17 60 34 111t39 96t50.5 85t69.5 77q54 49 103 85.5t99.5 60.5t105.5 36t120 12
q9 0 22 -0.5t29 -3t34 -6t38 -9.5l-80 -222h-27q-34 11 -61 18.5t-51 12t-46.5 6.5t-46.5 2t-42 -5.5t-39 -25.5q-6 -6 -17 -39.5t-23.5 -81t-25 -103t-22.5 -106.5h251l-29 -105h-242l-151 -784q-19 -100 -67 -188t-129 -163q-54 -50 -104.5 -86.5t-103 -60.5t-109 -35.5
t-121.5 -11.5zM489 -471q-18 0 -37.5 2t-41 6t-45 10.5t-49.5 15.5l80 222h27q33 -12 68 -22t69 -17t64.5 -11t54.5 -4q23 0 46 5.5t44 25.5q6 6 16.5 35.5t21.5 71t22 88.5t19 88l134 713q5 27 -4.5 46t-41.5 28l-101 30l-1 48l460 79l-171 -915q-18 -100 -66.5 -188
t-129.5 -163q-54 -50 -104.5 -86.5t-103 -60.5t-109 -35.5t-121.5 -11.5zM1185 1189q-35 0 -64.5 12t-51.5 33.5t-34.5 50.5t-12.5 63q0 33 12.5 61.5t34.5 50t51.5 34t64.5 12.5q34 0 64.5 -12.5t53.5 -34t36 -50t13 -61.5q0 -34 -13 -63t-36 -50.5t-53.5 -33.5t-64.5 -12z
" />
    <glyph glyph-name="f_f_j.liga" unicode="ffj" horiz-adv-x="2043" 
d="M-258 -471q-18 0 -37.5 2t-41 6t-45 10.5t-49.5 15.5l80 222h27q33 -12 68 -22t69 -17t64.5 -11t54.5 -4q23 0 46 5.5t44 25.5q6 6 16 35.5t21 71t22 88.5t20 88l159 813h-164l24 105h164q17 60 34 111t39 96t50.5 85t69.5 77q54 49 104.5 85.5t103 60.5t109 36t121.5 12
q18 0 38 -2.5t41.5 -6.5t42.5 -9.5t41 -11.5l-80 -222h-27q-34 12 -67.5 21t-65 15.5t-60 10t-52.5 3.5t-47 -5.5t-44 -25.5q-6 -6 -17 -39.5t-23.5 -81t-25 -103t-22.5 -106.5h261l-29 -105h-252l-151 -784q-19 -100 -67 -188t-129 -163q-54 -50 -104.5 -86.5t-103 -60.5
t-109 -35.5t-121.5 -11.5zM451 -471q-18 0 -37.5 2t-41 6t-45 10.5t-49.5 15.5l80 222h27q33 -12 68 -22t69 -17t64.5 -11t54.5 -4q23 0 46 5.5t44 25.5q6 6 16 35.5t21 71t22 88.5t20 88l159 813h-164l24 105h164q17 60 34 111t39 96t50.5 85t69.5 77q54 49 103 85.5
t99.5 60.5t105.5 36t120 12q9 0 22 -0.5t29 -3t34 -6t38 -9.5l-80 -222h-27q-34 11 -61 18.5t-51 12t-46.5 6.5t-46.5 2t-42 -5.5t-39 -25.5q-6 -6 -17 -39.5t-23.5 -81t-25 -103t-22.5 -106.5h251l-29 -105h-242l-151 -784q-19 -100 -67 -188t-129 -163
q-54 -50 -104.5 -86.5t-103 -60.5t-109 -35.5t-121.5 -11.5zM1198 -471q-18 0 -37.5 2t-41 6t-45 10.5t-49.5 15.5l80 222h27q33 -12 68 -22t69 -17t64.5 -11t54.5 -4q23 0 46 5.5t44 25.5q6 6 16.5 35.5t21.5 71t22 88.5t19 88l134 713q5 27 -4.5 46t-41.5 28l-101 30
l-1 48l460 79l-171 -915q-18 -100 -66.5 -188t-129.5 -163q-54 -50 -104.5 -86.5t-103 -60.5t-109 -35.5t-121.5 -11.5zM1894 1189q-35 0 -64.5 12t-51.5 33.5t-34.5 50.5t-12.5 63q0 33 12.5 61.5t34.5 50t51.5 34t64.5 12.5q34 0 64.5 -12.5t53.5 -34t36 -50t13 -61.5
q0 -34 -13 -63t-36 -50.5t-53.5 -33.5t-64.5 -12z" />
    <glyph glyph-name="f_k.liga" unicode="fk" horiz-adv-x="1814" 
d="M1508 -14q-45 0 -78 10t-57 29t-40 47t-28 63l-98 300l-108 -98l-31 -151q-5 -24 -7.5 -50.5t-3.5 -52t-1 -47.5v-36h-294l283 1272q5 26 -5 44t-40 30l-27 10l-25 -71h-27q-34 11 -61 18.5t-51 12t-46.5 6.5t-46.5 2t-42 -5.5t-39 -25.5q-6 -6 -17 -39.5t-23.5 -81
t-25 -103t-22.5 -106.5h261l-29 -105h-252l-151 -784q-19 -100 -67 -188t-129 -163q-54 -50 -104.5 -86.5t-103 -60.5t-109 -35.5t-121.5 -11.5q-36 0 -78.5 8t-94.5 26l80 222h27q33 -12 68 -22t69 -17t64.5 -11t54.5 -4q23 0 46 5.5t44 25.5q6 6 16 35.5t21 71t22 88.5
t20 88l159 813h-164l24 105h164q17 60 34 111t39 96t50.5 85t69.5 77q54 49 103 85.5t99.5 60.5t105.5 36t120 12q18 0 50.5 -3.5t72.5 -15.5l-24 -67l358 71l-232 -1048q147 157 243.5 268t154.5 163q27 24 48.5 41.5t43 29t45 17t54.5 5.5q25 0 56 -2.5t55 -6.5l-61 -253
h-30q-32 8 -59.5 11t-49.5 3q-23 0 -48.5 -1.5t-54 -11t-59.5 -29.5t-65 -56l153 -432q7 -19 18 -38.5t26 -35.5t35.5 -26t46.5 -10q18 0 46 8t51 20h25v-66q-48 -30 -120.5 -52.5t-175.5 -22.5z" />
    <glyph glyph-name="f_f_k.liga" unicode="ffk" horiz-adv-x="2519" 
d="M-258 -471q-18 0 -37.5 2t-41 6t-45 10.5t-49.5 15.5l80 222h27q33 -12 68 -22t69 -17t64.5 -11t54.5 -4q23 0 46 5.5t44 25.5q6 6 16 35.5t21 71t22 88.5t20 88l159 813h-164l24 105h164q17 60 34 111t39 96t50.5 85t69.5 77q54 49 104.5 85.5t103 60.5t109 36t121.5 12
q18 0 38 -2.5t41.5 -6.5t42.5 -9.5t41 -11.5l-80 -222h-27q-34 12 -67.5 21t-65 15.5t-60 10t-52.5 3.5t-47 -5.5t-44 -25.5q-6 -6 -17 -39.5t-23.5 -81t-25 -103t-22.5 -106.5h261l-29 -105h-252l-151 -784q-19 -100 -67 -188t-129 -163q-54 -50 -104.5 -86.5t-103 -60.5
t-109 -35.5t-121.5 -11.5zM2213 -14q-45 0 -78 10t-57 29t-40 47t-28 63l-98 300l-108 -98l-31 -151q-5 -24 -7.5 -50.5t-3.5 -52t-1 -47.5v-36h-294l283 1272q5 26 -5 44t-40 30l-27 10l-25 -71h-27q-34 11 -61 18.5t-51 12t-46.5 6.5t-46.5 2t-42 -5.5t-39 -25.5
q-6 -6 -17 -39.5t-23.5 -81t-25 -103t-22.5 -106.5h261l-29 -105h-252l-151 -784q-19 -100 -67 -188t-129 -163q-54 -50 -104.5 -86.5t-103 -60.5t-109 -35.5t-121.5 -11.5q-36 0 -78.5 8t-94.5 26l80 222h27q33 -12 68 -22t69 -17t64.5 -11t54.5 -4q23 0 46 5.5t44 25.5
q6 6 16 35.5t21 71t22 88.5t20 88l159 813h-164l24 105h164q17 60 34 111t39 96t50.5 85t69.5 77q54 49 103 85.5t99.5 60.5t105.5 36t120 12q18 0 50.5 -3.5t72.5 -15.5l-24 -67l358 71l-232 -1048q147 157 243.5 268t154.5 163q27 24 48.5 41.5t43 29t45 17t54.5 5.5
q25 0 56 -2.5t55 -6.5l-61 -253h-30q-32 8 -59.5 11t-49.5 3q-23 0 -48.5 -1.5t-54 -11t-59.5 -29.5t-65 -56l153 -432q7 -19 18 -38.5t26 -35.5t35.5 -26t46.5 -10q18 0 46 8t51 20h25v-66q-48 -30 -120.5 -52.5t-175.5 -22.5z" />
    <glyph glyph-name="uniFB02" unicode="fl" horiz-adv-x="1325" 
d="M1002 -14q-41 0 -76 11t-61 30.5t-41 47t-15 60.5q0 45 4.5 78t11.5 64l221 995q5 26 -5 44t-40 30l-27 10l-26 -71h-27q-34 11 -61 18.5t-51 12t-46.5 6.5t-46.5 2t-42 -5.5t-39 -25.5q-6 -6 -17 -39.5t-23.5 -81t-25 -103t-22.5 -106.5h261l-29 -105h-252l-151 -784
q-19 -100 -67 -188t-129 -163q-54 -50 -104.5 -86.5t-103 -60.5t-109 -35.5t-121.5 -11.5q-36 0 -78.5 8t-94.5 26l80 222h27q33 -12 68 -22t69 -17t64.5 -11t54.5 -4q23 0 46 5.5t44 25.5q6 6 16 35.5t21 71t22 88.5t20 88l159 813h-164l24 105h164q17 60 34 111t39 96
t50.5 85t69.5 77q54 49 103 85.5t99.5 60.5t105.5 36t120 12q18 0 50.5 -3.5t72.5 -15.5l-24 -67l359 71l-254 -1149q-6 -29 -11 -58t-8.5 -54.5t-5.5 -46t-2 -31.5q0 -10 4.5 -23t15 -25t27.5 -20t41 -8q6 0 20 3t31 7.5t33.5 10.5t28.5 12h25v-66q-48 -29 -125.5 -53
t-180.5 -24z" />
    <glyph glyph-name="uniFB04" unicode="ffl" horiz-adv-x="2044" 
d="M-258 -471q-18 0 -37.5 2t-41 6t-45 10.5t-49.5 15.5l80 222h27q33 -12 68 -22t69 -17t64.5 -11t54.5 -4q23 0 46 5.5t44 25.5q6 6 16 35.5t21 71t22 88.5t20 88l159 813h-164l24 105h164q17 60 34 111t39 96t50.5 85t69.5 77q54 49 104.5 85.5t103 60.5t109 36t121.5 12
q18 0 38 -2.5t41.5 -6.5t42.5 -9.5t41 -11.5l-80 -222h-27q-34 12 -67.5 21t-65 15.5t-60 10t-52.5 3.5t-47 -5.5t-44 -25.5q-6 -6 -17 -39.5t-23.5 -81t-25 -103t-22.5 -106.5h261l-29 -105h-252l-151 -784q-19 -100 -67 -188t-129 -163q-54 -50 -104.5 -86.5t-103 -60.5
t-109 -35.5t-121.5 -11.5zM1724 -14q-41 0 -76 11t-61 30.5t-41 47t-15 60.5q0 45 4.5 78t11.5 64l221 995q5 26 -5 44t-40 30l-27 10l-26 -71h-27q-34 11 -61 18.5t-51 12t-46.5 6.5t-46.5 2t-42 -5.5t-39 -25.5q-6 -6 -17 -39.5t-23.5 -81t-25 -103t-22.5 -106.5h261
l-29 -105h-252l-151 -784q-19 -100 -67 -188t-129 -163q-54 -50 -104.5 -86.5t-103 -60.5t-109 -35.5t-121.5 -11.5q-36 0 -78.5 8t-94.5 26l80 222h27q33 -12 68 -22t69 -17t64.5 -11t54.5 -4q23 0 46 5.5t44 25.5q6 6 16 35.5t21 71t22 88.5t20 88l159 813h-164l24 105
h164q17 60 34 111t39 96t50.5 85t69.5 77q54 49 103 85.5t99.5 60.5t105.5 36t120 12q18 0 50.5 -3.5t72.5 -15.5l-24 -67l359 71l-254 -1149q-6 -29 -11 -58t-8.5 -54.5t-5.5 -46t-2 -31.5q0 -10 4.5 -23t15 -25t27.5 -20t41 -8q6 0 20 3t31 7.5t33.5 10.5t28.5 12h25v-66
q-48 -29 -125.5 -53t-180.5 -24z" />
    <glyph glyph-name=".notdef" horiz-adv-x="1024" 
d="M0 1466h1024v-1466h-1024v1466zM83 80h858v1306h-858v-1306z" />
    <glyph glyph-name="glyph1" 
 />
    <glyph glyph-name="glyph2" 
 />
    <glyph glyph-name="space" unicode=" " horiz-adv-x="512" 
 />
    <glyph glyph-name="space" unicode="&#xa0;" horiz-adv-x="512" 
 />
    <glyph glyph-name="A" unicode="A" horiz-adv-x="1309" 
d="M-165 61l106 41q17 7 33.5 23.5t27.5 35.5l609 1008l172 230h141l205 -1242q4 -23 18 -40t38 -25l97 -31l-13 -61h-586l13 61l161 45l-63 385h-448l-227 -386l164 -44l-14 -61h-448zM775 601l-57 337l-23 144v0l-284 -481h364z" />
    <glyph glyph-name="B" unicode="B" horiz-adv-x="1301" 
d="M-60 61l125 37q21 6 38 21.5t22 37.5l236 1064q5 23 -4.5 39t-29.5 21l-129 36l13 61h602q133 0 218.5 -22.5t134.5 -59.5t68 -85.5t19 -99.5q0 -74 -28.5 -135.5t-78.5 -109.5t-118 -82.5t-146 -54.5v0q81 -8 146.5 -30t111 -58.5t70 -86.5t24.5 -113q0 -84 -25.5 -149
t-69.5 -114t-103.5 -83t-127 -55t-140 -30.5t-142.5 -9.5h-700zM566 109q174 0 264.5 81.5t90.5 263.5q0 70 -30 111t-76.5 61t-103.5 25.5t-111 5.5h-85l-121 -548h172zM581 754q83 0 151.5 15.5t117 53t75 100t26.5 155.5q0 60 -21.5 97.5t-57.5 58.5t-83 28.5t-98 7.5
h-39l-115 -516h44z" />
    <glyph glyph-name="C" unicode="C" horiz-adv-x="1216" 
d="M617 -28q-131 0 -233 42.5t-172.5 120t-107 186t-36.5 240.5q0 115 26 223t75 202t119 171.5t157 133t190 86t218 30.5q48 0 107 -7t117 -18t109.5 -25t85.5 -28l-62 -337h-66l-43 175q-4 17 -11.5 26.5t-19.5 16.5q-28 16 -63 30.5t-72 25.5t-73 17.5t-65 6.5
q-85 0 -162 -54t-135.5 -148.5t-93.5 -222t-35 -273.5q0 -105 18.5 -191t60.5 -147t110.5 -94t168.5 -33q54 0 110 16.5t109.5 41t101 54t83.5 55.5h44l-24 -109q-46 -35 -101.5 -72.5t-121.5 -69t-144 -51.5t-169 -20z" />
    <glyph glyph-name="D" unicode="D" horiz-adv-x="1426" 
d="M-64 61l128 37q23 7 39 22t21 37l236 1064q5 23 -4 38.5t-30 21.5l-129 36l13 61h611q61 0 129 -10.5t134.5 -35.5t127 -65.5t106.5 -101t73.5 -142t27.5 -187.5q0 -142 -33 -259t-91 -210t-137 -162t-172 -114.5t-195.5 -68t-206.5 -22.5h-660zM592 109q75 0 143.5 23.5
t126.5 67t104.5 106t79.5 140t50.5 168.5t17.5 192q0 108 -25 194t-72.5 146t-116 92t-154.5 32h-96l-257 -1161h199z" />
    <glyph glyph-name="E" unicode="E" horiz-adv-x="1252" 
d="M-64 61l128 37q22 6 38.5 21.5t21.5 37.5l236 1064q5 23 -4.5 39t-29.5 21l-132 36l14 61h1100l-80 -358h-70l-33 213q-3 15 -9.5 25t-24.5 10h-440l-111 -495h283q20 0 31.5 9t20.5 23l103 164h63l-111 -503h-63l-32 162q-2 15 -8.5 25t-26.5 10h-284l-122 -552h546
q18 0 29 9.5t20 25.5l130 241h70l-86 -387h-1181z" />
    <glyph glyph-name="F" unicode="F" horiz-adv-x="1163" 
d="M-60 61l125 37q20 6 37.5 21.5t22.5 37.5l236 1064q5 23 -4.5 39t-29.5 21l-129 36l14 61h1099l-79 -356h-68l-34 211q-2 14 -9 24.5t-25 10.5h-445l-113 -510h294q20 0 31 9.5t20 23.5l104 170h61l-114 -515h-61l-30 168q-2 16 -8.5 25.5t-26.5 9.5h-294l-109 -492
q-5 -23 5 -38.5t30 -20.5l145 -37l-14 -61h-645z" />
    <glyph glyph-name="G" unicode="G" horiz-adv-x="1429" 
d="M608 -30q-116 0 -214.5 37.5t-171 109.5t-113.5 177t-41 240q0 119 27 230t77 208t122.5 177.5t163.5 138t199.5 89t230.5 31.5q82 0 155 -7t136 -18.5t115.5 -25t91.5 -26.5l-68 -339h-69l-34 179q-3 15 -11.5 25.5t-22.5 15.5q-32 12 -67 26t-75 25.5t-85.5 19
t-97.5 7.5q-98 0 -186 -54t-154.5 -153t-105.5 -237.5t-39 -306.5q0 -89 20 -170.5t59.5 -144t97 -100t132.5 -37.5q40 0 72.5 6t58.5 15t46 19.5t34 18.5l69 315q5 23 -3 38t-31 21l-136 37l14 61h638l-14 -61l-130 -37q-23 -7 -39 -22t-21 -37l-34 -154
q-18 -81 -30.5 -139t-18.5 -96q-56 -21 -121 -39.5t-136 -32.5t-144.5 -22t-145.5 -8z" />
    <glyph glyph-name="H" unicode="H" horiz-adv-x="1566" 
d="M-61 61l125 37q21 6 38 21.5t22 37.5l236 1064q5 23 -4.5 39t-29.5 21l-129 36l13 61h628l-13 -61l-124 -36q-22 -6 -39 -22t-22 -38l-100 -448h570l100 448q5 23 -4.5 39t-29.5 21l-129 36l13 61h628l-13 -61l-125 -36q-21 -6 -38 -22t-22 -38l-236 -1064
q-5 -23 4.5 -38.5t29.5 -20.5l129 -37l-14 -61h-628l14 61l125 37q21 6 38 21.5t22 37.5l112 504h-570l-112 -504q-5 -23 5 -38.5t30 -20.5l128 -37l-14 -61h-628z" />
    <glyph glyph-name="I" unicode="I" horiz-adv-x="713" 
d="M-57 61l125 37q23 7 39 22t21 37l236 1064q5 23 -5.5 39t-28.5 21l-129 36l14 61h628l-14 -61l-124 -36q-20 -6 -38 -22t-23 -38l-236 -1064q-5 -23 5 -38t30 -21l128 -37l-14 -61h-628z" />
    <glyph glyph-name="J" unicode="J" horiz-adv-x="698" 
d="M-214 -381q-35 0 -73 9.5t-95 30.5l84 231h32q34 -12 67 -22t63.5 -18t58 -12.5t51.5 -4.5q23 0 44.5 5t41.5 24q6 6 15.5 35.5t20 70.5t21.5 88t20 89l221 1076q5 23 -5.5 39t-28.5 21l-148 36l14 61h644l-14 -61l-121 -36q-20 -6 -38 -22t-23 -38l-212 -1052
q-20 -100 -68 -189.5t-130 -165.5q-54 -50 -105 -86.5t-104 -60.5t-110 -36t-123 -12z" />
    <glyph glyph-name="K" unicode="K" horiz-adv-x="1368" 
d="M-61 61l125 37q21 6 38 21.5t22 37.5l236 1064q5 23 -4.5 39t-29.5 21l-129 36l13 61h628l-13 -61l-124 -36q-22 -6 -39 -22t-22 -38l-117 -522l644 582l-137 36l14 61h469l-14 -61l-124 -36q-21 -6 -50.5 -22.5t-51.5 -36.5l-473 -423l323 -634q11 -21 24.5 -41.5
t33.5 -25.5l127 -37l-14 -61h-584l14 61l131 37l-280 546l-78 -64l-93 -423q-5 -23 5 -38.5t30 -20.5l128 -37l-14 -61h-628z" />
    <glyph glyph-name="L" unicode="L" horiz-adv-x="1152" 
d="M-60 61l125 37q23 7 39 22t21 37l236 1064q5 23 -4.5 39t-29.5 21l-129 36l14 61h639l-14 -61l-131 -36q-22 -6 -39 -22t-22 -38l-246 -1110h470q9 0 17.5 5.5t15.5 13.5t12.5 17t9.5 17l144 264h67l-95 -428h-1114z" />
    <glyph glyph-name="M" unicode="M" horiz-adv-x="1813" 
d="M-60 61l126 43q22 8 38.5 23t21.5 36l235 1058q5 23 -5.5 39t-28.5 21l-129 36l14 61h502l118 -783l25 -204v0l585 987h494l-14 -61l-125 -36q-22 -7 -38.5 -22.5t-21.5 -37.5l-236 -1064q-5 -23 4.5 -38t29.5 -21l129 -37l-14 -61h-629l14 61l125 37q23 7 39 22t21 37
l226 1018v0l-102 -184l-455 -762l-149 -229h-93l-148 990l-22 188v0l-225 -1015q-5 -23 4.5 -37.5t29.5 -21.5l130 -43l-14 -61h-476z" />
    <glyph glyph-name="N" unicode="N" horiz-adv-x="1478" 
d="M539 931l-72 154v0l-205 -922q-5 -22 3.5 -36.5t30.5 -22.5l130 -43l-14 -61h-486l14 61l126 43q22 8 38.5 23t21.5 36l233 1054q5 23 -5.5 38.5t-28.5 20.5l-138 41l14 61h425l409 -864l64 -137v0l186 838q5 23 -3.5 37.5t-30.5 21.5l-135 43l14 61h487l-14 -61
l-121 -43q-23 -8 -39.5 -22.5t-21.5 -36.5l-219 -986l-83 -239h-134z" />
    <glyph glyph-name="O" unicode="O" horiz-adv-x="1433" 
d="M651 76q76 0 141 35t117 96t92 142t67 173t40.5 190t13.5 193q0 94 -17 168t-52 125t-88 77.5t-125 26.5q-78 0 -143.5 -37t-117.5 -99.5t-91 -144.5t-65 -172t-39 -182.5t-13 -175.5q0 -92 15 -168t48.5 -131t87 -85.5t129.5 -30.5zM623 -30q-136 0 -239.5 39
t-173.5 110t-106 171t-37 222q-1 106 22.5 214t69.5 207.5t114.5 186t157.5 150.5t198 101t237 37q143 0 247.5 -41.5t173 -114.5t102.5 -171.5t35 -213.5q1 -95 -20 -198.5t-64 -203.5t-109.5 -189.5t-155.5 -157.5t-202 -108t-250 -40z" />
    <glyph glyph-name="P" unicode="P" horiz-adv-x="1198" 
d="M-61 61l125 37q20 6 37.5 21.5t22.5 37.5l236 1064q5 23 -4.5 39t-29.5 21l-130 36l14 61h607q99 0 180 -21t138.5 -63t89.5 -105t32 -146q0 -110 -41 -200.5t-111.5 -155t-163.5 -100.5t-197 -36q-26 0 -54.5 4.5t-59 13t-62.5 21t-63 28.5l-101 -461q-5 -23 5 -38.5
t30 -20.5l145 -37l-14 -61h-645zM635 670q85 0 145 32t98 82.5t55.5 113.5t17.5 125q0 50 -11.5 95t-41.5 78.5t-83 53.5t-135 20h-29l-130 -584q29 -8 58 -12t56 -4z" />
    <glyph glyph-name="Q" unicode="Q" horiz-adv-x="1435" 
d="M889 -410q-42 0 -69.5 6t-47 20.5t-34.5 38.5t-33 60l-130 258q-124 7 -218.5 48.5t-158.5 112t-97 166.5t-34 212q-1 106 22.5 214t69.5 207.5t114.5 186t157.5 150.5t198 101t237 37q143 0 247.5 -41.5t173 -114.5t102.5 -171.5t35 -213.5q1 -81 -13.5 -167.5
t-45.5 -171.5t-78 -166t-110 -149.5t-143 -121.5t-176 -84l139 -250q6 -11 14.5 -22t18.5 -21t21 -17t21 -9l156 -37l-13 -61h-326zM651 76q77 0 142 36t117 97t91.5 142t66 171.5t40 184.5t13.5 182q0 103 -17 180t-51.5 129t-87.5 78t-125 26q-78 0 -143.5 -37
t-117.5 -99.5t-91 -144.5t-65 -171t-39 -179t-13 -169q0 -97 15 -176t48.5 -134.5t87 -85.5t129.5 -30z" />
    <glyph glyph-name="R" unicode="R" horiz-adv-x="1370" 
d="M-61 61l125 37q20 6 37.5 21.5t22.5 37.5l236 1064q5 23 -4.5 39t-29.5 21l-129 36l12 61h614q136 0 224 -28t138.5 -73t70 -101.5t19.5 -113.5q0 -62 -17 -114t-46 -94.5t-67.5 -75t-82 -57t-89.5 -40t-90 -23.5l264 -491q11 -21 33 -42t42 -27l129 -37l-13 -61h-299
q-42 0 -69.5 6t-47 20.5t-34.5 38.5t-33 60l-231 459l-120 32l-100 -459q-5 -23 5 -38.5t30 -20.5l135 -37l-14 -61h-635zM631 703q86 0 149.5 27.5t105.5 74t62.5 107.5t20.5 129q0 57 -16 100t-49 71.5t-83.5 43t-119.5 14.5h-50l-124 -557q7 -2 21.5 -3.5t31 -3t31 -2.5
t20.5 -1z" />
    <glyph glyph-name="S" unicode="S" horiz-adv-x="1175" 
d="M464 -31q-57 0 -119 7t-124.5 19t-123 28.5t-114.5 35.5l63 390h67l45 -199q3 -14 11.5 -26.5t22.5 -23.5q30 -25 76.5 -45.5t95.5 -35.5t93.5 -23t71.5 -8q54 0 105.5 16t91 47.5t64 77t24.5 105.5q0 42 -14 73t-37.5 55t-54.5 42.5t-64 35.5q-57 29 -114.5 56
t-115.5 55q-53 25 -94 56.5t-69.5 71.5t-43.5 89t-15 109q0 71 23 131t63 107.5t93 83.5t114 60.5t125.5 36.5t127.5 12q58 0 115 -5.5t113 -15.5t111.5 -24t111.5 -30l-72 -357h-67l-38 185q-6 26 -33 47q-25 19 -61.5 34.5t-75 26t-74 16t-56.5 5.5q-51 0 -95.5 -18.5
t-77 -51t-51 -76.5t-18.5 -96q0 -42 15 -73t40 -54t57 -41t66 -34q57 -28 115 -54.5t115 -55.5q52 -27 93 -58t69 -70t42.5 -87.5t14.5 -109.5q0 -82 -28 -146.5t-75 -113.5t-110 -83.5t-133.5 -56.5t-144 -32t-142.5 -10z" />
    <glyph glyph-name="T" unicode="T" horiz-adv-x="1273" 
d="M203 60l145 37q23 6 39 21.5t21 37.5l246 1112h-288q-20 0 -30.5 -10t-19.5 -25l-133 -221h-67l83 366h1223l-83 -366h-67l-31 221q-2 15 -8.5 25t-25.5 10h-273l-246 -1112q-5 -23 6 -38.5t29 -20.5l149 -37l-14 -60h-669z" />
    <glyph glyph-name="U" unicode="U" horiz-adv-x="1419" 
d="M604 -31q-115 0 -201 28t-143.5 75t-86 110t-28.5 133q0 9 1 25t3.5 34t5 35.5t5.5 29.5l173 782q5 23 -4.5 39t-29.5 21l-129 36l13 61h628l-13 -61l-124 -36q-22 -6 -39 -21t-22 -39l-168 -765q-3 -14 -5.5 -31.5t-4.5 -34.5t-3 -32.5t-1 -25.5q0 -41 11 -81t40 -72
t79 -52t128 -20q97 0 165.5 33.5t114 85.5t71.5 115t39 122l167 752q5 22 -3.5 36.5t-30.5 22.5l-128 43l14 61h485l-14 -61l-126 -43q-23 -8 -39.5 -22.5t-21.5 -36.5l-169 -759q-22 -97 -60.5 -171t-88.5 -128.5t-107.5 -90.5t-118 -57.5t-120.5 -30.5t-114 -9z" />
    <glyph glyph-name="V" unicode="V" horiz-adv-x="1317" 
d="M249 1221q-4 23 -18 40t-38 25l-97 31l13 61h585l-13 -61l-160 -45l136 -838l21 -137v0l569 976l-164 44l14 61h448l-14 -61l-106 -41q-17 -7 -33.5 -23.5t-27.5 -35.5l-605 -1010l-164 -227h-143z" />
    <glyph glyph-name="W" unicode="W" horiz-adv-x="1906" 
d="M248 1225q-4 41 -47 58l-91 34l13 61h579l-13 -61l-169 -43l65 -815l7 -91v0l395 763l148 247h125l92 -920l10 -97v0l466 899l-152 57l13 61h448l-13 -61l-101 -44q-19 -8 -41 -25t-33 -37l-513 -976l-172 -247h-139l-79 784l-18 169v0l-363 -706l-174 -247h-144z" />
    <glyph glyph-name="X" unicode="X" horiz-adv-x="1328" 
d="M-97 61l91 43q29 14 54 32t43 37l472 495l-240 555q-8 17 -22 36t-31 24l-98 34l13 61h594l-12 -61l-171 -43l135 -329l46 -116v0l387 431l-153 57l13 61h457l-13 -61l-88 -42q-26 -12 -53 -31.5t-45 -38.5l-454 -484l245 -566q8 -17 21.5 -35t30.5 -24l99 -35l-14 -61
h-595l14 61l171 43l-140 341l-46 116v0l-403 -443l149 -57l-14 -61h-457z" />
    <glyph glyph-name="Y" unicode="Y" horiz-adv-x="1284" 
d="M214 60l145 37q23 6 39 21.5t21 37.5l89 401l-222 664q-8 23 -20 40.5t-36 24.5l-107 31l13 61h590l-13 -61l-155 -45l151 -451l41 -130v0l449 582l-156 44l14 61h441l-14 -61l-114 -41q-17 -6 -32 -24t-29 -35l-519 -652l-91 -409q-5 -23 6 -38.5t29 -20.5l149 -37
l-14 -60h-669z" />
    <glyph glyph-name="Z" unicode="Z" horiz-adv-x="1215" 
d="M-75 82l954 1091l91 95v0h-539q-20 0 -31 -10t-20 -25l-131 -221h-67l81 366h1073l-16 -76l-960 -1097l-88 -94v0h623q19 0 29.5 9.5t18.5 25.5l136 241h69l-86 -387h-1155z" />
    <glyph glyph-name="Agrave" unicode="&#xc0;" horiz-adv-x="1309" 
d="M-165 61l106 41q17 7 33.5 23.5t27.5 35.5l609 1008l172 230h141l205 -1242q4 -23 18 -40t38 -25l97 -31l-13 -61h-586l13 61l161 45l-63 385h-448l-227 -386l164 -44l-14 -61h-448zM775 601l-57 337l-23 144v0l-284 -481h364zM926 1486q-39 25 -78.5 49.5t-78.5 49
t-77.5 50t-76.5 54.5q-30 22 -54 47.5t-24 64.5q0 23 9.5 41t25 30.5t36 19t41.5 6.5q28 0 49 -4.5t37.5 -14.5t31 -26t29.5 -39q23 -36 45.5 -71.5t45 -71.5t46 -72.5t48.5 -74.5l-55 -38v0z" />
    <glyph glyph-name="Aacute" unicode="&#xc1;" horiz-adv-x="1309" 
d="M-165 61l106 41q17 7 33.5 23.5t27.5 35.5l609 1008l172 230h141l205 -1242q4 -23 18 -40t38 -25l97 -31l-13 -61h-586l13 61l161 45l-63 385h-448l-227 -386l164 -44l-14 -61h-448zM775 601l-57 337l-23 144v0l-284 -481h364zM664 1524q54 72 106 143t106 143
q17 22 33.5 39t34.5 27.5t40 16t51 5.5q19 0 37.5 -5.5t33 -16.5t23.5 -27t9 -37q0 -22 -7.5 -39.5t-19.5 -31.5t-28 -26t-32 -22q-85 -53 -168 -104.5t-167 -102.5z" />
    <glyph glyph-name="Acircumflex" unicode="&#xc2;" horiz-adv-x="1309" 
d="M-165 61l106 41q17 7 33.5 23.5t27.5 35.5l609 1008l172 230h141l205 -1242q4 -23 18 -40t38 -25l97 -31l-13 -61h-586l13 61l161 45l-63 385h-448l-227 -386l164 -44l-14 -61h-448zM775 601l-57 337l-23 144v0l-284 -481h364zM483 1518l246 289q34 39 71.5 59.5
t82.5 20.5t77 -20t52 -60l143 -288l-52 -35l-240 230l-329 -232z" />
    <glyph glyph-name="uni1EA4" unicode="&#x1ea4;" horiz-adv-x="1309" 
d="M-165 61l106 41q17 7 33.5 23.5t27.5 35.5l609 1008l172 230h141l205 -1242q4 -23 18 -40t38 -25l97 -31l-13 -61h-586l13 61l161 45l-63 385h-448l-227 -386l164 -44l-14 -61h-448zM775 601l-57 337l-23 144v0l-284 -481h364zM1118 1770l88 231q11 29 24 48.5t29.5 31
t36.5 16.5t45 5q21 0 39 -6t31.5 -18t21.5 -29.5t8 -40.5t-14.5 -49t-50.5 -55l-206 -168zM481 1519l246 289q34 39 71.5 59.5t82.5 20.5t77 -20t52 -60l143 -288l-52 -35l-240 230l-329 -232z" />
    <glyph glyph-name="uni1EA6" unicode="&#x1ea6;" horiz-adv-x="1309" 
d="M-165 61l106 41q17 7 33.5 23.5t27.5 35.5l609 1008l172 230h141l205 -1242q4 -23 18 -40t38 -25l97 -31l-13 -61h-586l13 61l161 45l-63 385h-448l-227 -386l164 -44l-14 -61h-448zM775 601l-57 337l-23 144v0l-284 -481h364zM515 1736l-206 168q-36 29 -50.5 55
t-14.5 49t8 40.5t21.5 29.5t31.5 18t39 6q25 0 45 -5t36.5 -16.5t29.5 -31t24 -48.5l88 -231zM483 1519l246 289q34 39 71.5 59.5t82.5 20.5t77 -20t52 -60l143 -288l-52 -35l-240 230l-329 -232z" />
    <glyph glyph-name="uni1EA8" unicode="&#x1ea8;" horiz-adv-x="1309" 
d="M-165 61l106 41q17 7 33.5 23.5t27.5 35.5l609 1008l172 230h141l205 -1242q4 -23 18 -40t38 -25l97 -31l-13 -61h-586l13 61l161 45l-63 385h-448l-227 -386l164 -44l-14 -61h-448zM775 601l-57 337l-23 144v0l-284 -481h364zM1276 2036q36 0 63.5 -6.5t47 -18
t29.5 -27.5t10 -36q0 -27 -10 -47.5t-25 -37.5t-33.5 -32t-35.5 -30.5t-30 -34t-18 -41.5l-5 -22h-122l6 27q5 26 16.5 44t25.5 31.5t29 24.5t27 22.5t20 25.5t8 33q0 16 -9 28.5t-36 12.5q-29 0 -49.5 -14.5t-38.5 -31.5h-43l21 96q9 4 23.5 10t34 11t43.5 9t51 4v0z
M483 1519l246 289q34 39 71.5 59.5t82.5 20.5t77 -20t52 -60l143 -288l-52 -35l-240 230l-329 -232z" />
    <glyph glyph-name="uni1EAA" unicode="&#x1eaa;" horiz-adv-x="1309" 
d="M-165 61l106 41q17 7 33.5 23.5t27.5 35.5l609 1008l172 230h141l205 -1242q4 -23 18 -40t38 -25l97 -31l-13 -61h-586l13 61l161 45l-63 385h-448l-227 -386l164 -44l-14 -61h-448zM775 601l-57 337l-23 144v0l-284 -481h364zM481 1519l248 274q34 39 71.5 59.5
t82.5 20.5t77 -20t52 -60l141 -273l-52 -35l-238 217l-331 -219zM557 1888q16 60 43 110t62.5 86t78 56t89.5 20q32 0 65 -12.5t78 -37.5q45 -26 74.5 -35.5t46.5 -9.5q55 0 82 29t45 80h74q-15 -59 -41 -109t-60.5 -86t-76.5 -56t-90 -20q-17 0 -31 2t-29.5 8t-34 16
t-45.5 26q-43 26 -74 36t-49 10q-56 0 -85.5 -30.5t-47.5 -82.5h-74z" />
    <glyph glyph-name="Atilde" unicode="&#xc3;" horiz-adv-x="1309" 
d="M-165 61l106 41q17 7 33.5 23.5t27.5 35.5l609 1008l172 230h141l205 -1242q4 -23 18 -40t38 -25l97 -31l-13 -61h-586l13 61l161 45l-63 385h-448l-227 -386l164 -44l-14 -61h-448zM775 601l-57 337l-23 144v0l-284 -481h364zM478 1542q16 60 43 110t62.5 86t78 56
t89.5 20q32 0 65 -12.5t78 -37.5q45 -26 74.5 -35.5t46.5 -9.5q55 0 82 29t45 80h74q-15 -59 -41 -109t-60.5 -86t-76.5 -56t-90 -20q-17 0 -31 2t-29.5 8t-34 16t-45.5 26q-43 26 -74 36t-49 10q-56 0 -85.5 -30.5t-47.5 -82.5h-74v0z" />
    <glyph glyph-name="Adieresis" unicode="&#xc4;" horiz-adv-x="1309" 
d="M-165 61l106 41q17 7 33.5 23.5t27.5 35.5l609 1008l172 230h141l205 -1242q4 -23 18 -40t38 -25l97 -31l-13 -61h-586l13 61l161 45l-63 385h-448l-227 -386l164 -44l-14 -61h-448zM775 601l-57 337l-23 144v0l-284 -481h364zM621 1538q-27 0 -51 10t-42 28t-28 42
t-10 52t10 52t28 42t42 28t51 10q28 0 52.5 -10t43 -28t29 -42t10.5 -52t-10.5 -52t-29 -42t-43 -28t-52.5 -10zM1061 1538q-27 0 -51 10t-42 28t-28 42t-10 52t10 52t28 42t42 28t51 10q28 0 52.5 -10t43 -28t29 -42t10.5 -52t-10.5 -52t-29 -42t-43 -28t-52.5 -10z" />
    <glyph glyph-name="Amacron" unicode="&#x100;" horiz-adv-x="1309" 
d="M-165 61l106 41q17 7 33.5 23.5t27.5 35.5l609 1008l172 230h141l205 -1242q4 -23 18 -40t38 -25l97 -31l-13 -61h-586l13 61l161 45l-63 385h-448l-227 -386l164 -44l-14 -61h-448zM775 601l-57 337l-23 144v0l-284 -481h364zM533 1726h624l-35 -143h-624z" />
    <glyph glyph-name="Abreve" unicode="&#x102;" horiz-adv-x="1309" 
d="M-165 61l106 41q17 7 33.5 23.5t27.5 35.5l609 1008l172 230h141l205 -1242q4 -23 18 -40t38 -25l97 -31l-13 -61h-586l13 61l161 45l-63 385h-448l-227 -386l164 -44l-14 -61h-448zM775 601l-57 337l-23 144v0l-284 -481h364zM852 1512q-55 0 -104 16.5t-85.5 56
t-57 104.5t-17.5 163l86 17q7 -55 19.5 -92.5t35.5 -60.5t58.5 -33t88.5 -10q51 0 89 9.5t68 32.5t55 60.5t51 93.5l86 -17q-31 -98 -71.5 -163.5t-88.5 -104.5t-102 -55.5t-111 -16.5z" />
    <glyph glyph-name="uni1EAE" unicode="&#x1eae;" horiz-adv-x="1309" 
d="M-165 61l106 41q17 7 33.5 23.5t27.5 35.5l609 1008l172 230h141l205 -1242q4 -23 18 -40t38 -25l97 -31l-13 -61h-586l13 61l161 45l-63 385h-448l-227 -386l164 -44l-14 -61h-448zM775 601l-57 337l-23 144v0l-284 -481h364zM826 1734l65 250q7 29 18 47.5t25 29
t30.5 14.5t34.5 4q19 0 36 -5.5t29.5 -16.5t20 -27.5t7.5 -37.5q0 -15 -4 -29t-11.5 -27.5t-19 -27.5t-25.5 -29l-155 -170zM846 1477q-55 0 -104 16.5t-85.5 56t-57 104.5t-17.5 163l86 17q7 -55 19.5 -92.5t35.5 -60.5t58.5 -33t88.5 -10q51 0 89 9.5t68 32.5t55 60.5
t51 93.5l86 -17q-31 -98 -71.5 -163.5t-88.5 -104.5t-102 -55.5t-111 -16.5z" />
    <glyph glyph-name="uni1EB0" unicode="&#x1eb0;" horiz-adv-x="1309" 
d="M-165 61l106 41q17 7 33.5 23.5t27.5 35.5l609 1008l172 230h141l205 -1242q4 -23 18 -40t38 -25l97 -31l-13 -61h-586l13 61l161 45l-63 385h-448l-227 -386l164 -44l-14 -61h-448zM775 601l-57 337l-23 144v0l-284 -481h364zM908 1709l-155 170q-14 15 -25.5 29
t-19 27.5t-11.5 27.5t-4 29q0 21 7.5 37.5t20 27.5t29.5 16.5t36 5.5q18 0 34.5 -4t30.5 -14.5t24.5 -29t18.5 -47.5l65 -250zM846 1477q-55 0 -104 16.5t-85.5 56t-57 104.5t-17.5 163l86 17q7 -55 19.5 -92.5t35.5 -60.5t58.5 -33t88.5 -10q51 0 89 9.5t68 32.5t55 60.5
t51 93.5l86 -17q-31 -98 -71.5 -163.5t-88.5 -104.5t-102 -55.5t-111 -16.5z" />
    <glyph glyph-name="uni1EB2" unicode="&#x1eb2;" horiz-adv-x="1309" 
d="M-165 61l106 41q17 7 33.5 23.5t27.5 35.5l609 1008l172 230h141l205 -1242q4 -23 18 -40t38 -25l97 -31l-13 -61h-586l13 61l161 45l-63 385h-448l-227 -386l164 -44l-14 -61h-448zM775 601l-57 337l-23 144v0l-284 -481h364zM929 2051q36 0 63.5 -6.5t47 -18
t29.5 -27.5t10 -36q0 -27 -10 -47.5t-25 -37.5t-33.5 -32t-35.5 -30.5t-30 -34t-18 -41.5l-5 -22h-122l6 27q5 26 16.5 44t25.5 31.5t29 24.5t27 22.5t20 25.5t8 33q0 16 -9 28.5t-36 12.5q-29 0 -49.5 -14.5t-38.5 -31.5h-43l21 96q9 4 23.5 10t34 11t43.5 9t51 4v0z
M846 1477q-55 0 -104 16.5t-85.5 56t-57 104.5t-17.5 163l86 17q7 -55 19.5 -92.5t35.5 -60.5t58.5 -33t88.5 -10q51 0 89 9.5t68 32.5t55 60.5t51 93.5l86 -17q-31 -98 -71.5 -163.5t-88.5 -104.5t-102 -55.5t-111 -16.5z" />
    <glyph glyph-name="uni1EB4" unicode="&#x1eb4;" horiz-adv-x="1309" 
d="M-165 61l106 41q17 7 33.5 23.5t27.5 35.5l609 1008l172 230h141l205 -1242q4 -23 18 -40t38 -25l97 -31l-13 -61h-586l13 61l161 45l-63 385h-448l-227 -386l164 -44l-14 -61h-448zM775 601l-57 337l-23 144v0l-284 -481h364zM846 1477q-55 0 -104 16.5t-85.5 56
t-57 104.5t-17.5 163l86 17q7 -55 19.5 -92.5t35.5 -60.5t58.5 -33t88.5 -10q51 0 89 9.5t68 32.5t55 60.5t51 93.5l86 -17q-31 -98 -71.5 -163.5t-88.5 -104.5t-102 -55.5t-111 -16.5zM546 1875q16 60 43 110t62.5 86t78 56t89.5 20q32 0 65 -12.5t78 -37.5
q45 -26 74.5 -35.5t46.5 -9.5q55 0 82 29t45 80h74q-15 -59 -41 -109t-60.5 -86t-76.5 -56t-90 -20q-17 0 -31 2t-29.5 8t-34 16t-45.5 26q-43 26 -74 36t-49 10q-56 0 -85.5 -30.5t-47.5 -82.5h-74z" />
    <glyph glyph-name="Aring" unicode="&#xc5;" horiz-adv-x="1309" 
d="M-165 61l106 41q17 7 33.5 23.5t27.5 35.5l609 1008l172 230h141l205 -1242q4 -23 18 -40t38 -25l97 -31l-13 -61h-586l13 61l161 45l-63 385h-448l-227 -386l164 -44l-14 -61h-448zM775 601l-57 337l-23 144v0l-284 -481h364zM884 1542q33 0 55 17.5t35.5 43.5t19.5 57
t6 57q0 19 -4 40t-14 38t-25.5 28t-39.5 11q-34 0 -57 -17.5t-37 -43.5t-20 -57.5t-6 -58.5q0 -21 4.5 -41.5t15 -37t27 -26.5t40.5 -10zM861 1481q-39 0 -75 9.5t-63.5 30t-43.5 51.5t-16 75q0 57 22.5 103t61 78.5t88.5 49.5t105 17q39 0 74 -10t61.5 -30t42 -51.5
t15.5 -73.5q0 -56 -22.5 -102t-60 -78.5t-86.5 -50.5t-103 -18z" />
    <glyph glyph-name="Aringacute" unicode="&#x1fa;" horiz-adv-x="1309" 
d="M-165 61l106 41q17 7 33.5 23.5t27.5 35.5l609 1008l172 230h141l205 -1242q4 -23 18 -40t38 -25l97 -31l-13 -61h-586l13 61l161 45l-63 385h-448l-227 -386l164 -44l-14 -61h-448zM775 601l-57 337l-23 144v0l-284 -481h364zM884 1523q33 0 55 17.5t35.5 43.5t19.5 57
t6 57q0 19 -4 40t-14 38t-25.5 28t-39.5 11q-34 0 -57 -17.5t-37 -43.5t-20 -57.5t-6 -58.5q0 -21 4.5 -41.5t15 -37t27 -26.5t40.5 -10zM861 1462q-39 0 -75 9.5t-63.5 30t-43.5 51.5t-16 75q0 57 22.5 103t61 78.5t88.5 49.5t105 17q39 0 74 -10t61.5 -30t42 -51.5
t15.5 -73.5q0 -56 -22.5 -102t-60 -78.5t-86.5 -50.5t-103 -18zM715 1929q44 64 74.5 108.5t53 77t39.5 56.5t35 48q20 27 38.5 43.5t37 25.5t38 12t42.5 3q24 0 43.5 -7t33.5 -19t21.5 -27.5t7.5 -32.5q0 -19 -5 -35t-15 -30.5t-25.5 -28.5t-36.5 -29q-24 -17 -51 -33.5
t-64 -39t-88.5 -53.5t-125.5 -77z" />
    <glyph glyph-name="uni1EA2" unicode="&#x1ea2;" horiz-adv-x="1309" 
d="M-165 61l106 41q17 7 33.5 23.5t27.5 35.5l609 1008l172 230h141l205 -1242q4 -23 18 -40t38 -25l97 -31l-13 -61h-586l13 61l161 45l-63 385h-448l-227 -386l164 -44l-14 -61h-448zM775 601l-57 337l-23 144v0l-284 -481h364zM938 1968q49 0 87 -9t63.5 -25t39 -39
t13.5 -50q0 -40 -14 -70t-35.5 -54.5t-47.5 -46.5t-50.5 -44.5t-43 -49.5t-26.5 -61l-6 -31h-151l8 39q8 37 25.5 65t39 51t44.5 42.5t42 40t31 43.5t12 52q0 8 -3 17.5t-11.5 17.5t-22.5 13.5t-36 5.5q-23 0 -43 -6t-37 -15t-32 -21t-29 -24h-47l23 109q13 6 33 14.5
t46.5 16.5t58.5 13.5t69 5.5v0z" />
    <glyph glyph-name="uni1EA0" unicode="&#x1ea0;" horiz-adv-x="1309" 
d="M-165 61l106 41q17 7 33.5 23.5t27.5 35.5l609 1008l172 230h141l205 -1242q4 -23 18 -40t38 -25l97 -31l-13 -61h-586l13 61l161 45l-63 385h-448l-227 -386l164 -44l-14 -61h-448zM775 601l-57 337l-23 144v0l-284 -481h364zM487 -449q-35 0 -65 12.5t-52 34t-35 51
t-13 63.5q0 33 13 62t35 50.5t52 34t65 12.5t65.5 -12.5t53.5 -34t36 -50.5t13 -62q0 -34 -13 -63.5t-36 -51t-53.5 -34t-65.5 -12.5z" />
    <glyph glyph-name="uni1EAC" unicode="&#x1eac;" horiz-adv-x="1309" 
d="M-165 61l106 41q17 7 33.5 23.5t27.5 35.5l609 1008l172 230h141l205 -1242q4 -23 18 -40t38 -25l97 -31l-13 -61h-586l13 61l161 45l-63 385h-448l-227 -386l164 -44l-14 -61h-448zM775 601l-57 337l-23 144v0l-284 -481h364zM521 1518l246 289q34 39 71.5 59.5
t82.5 20.5t77 -20t52 -60l143 -288l-52 -35l-240 230l-329 -232zM487 -449q-35 0 -65 12.5t-52 34t-35 51t-13 63.5q0 33 13 62t35 50.5t52 34t65 12.5t65.5 -12.5t53.5 -34t36 -50.5t13 -62q0 -34 -13 -63.5t-36 -51t-53.5 -34t-65.5 -12.5z" />
    <glyph glyph-name="uni1EB6" unicode="&#x1eb6;" horiz-adv-x="1309" 
d="M-165 61l106 41q17 7 33.5 23.5t27.5 35.5l609 1008l172 230h141l205 -1242q4 -23 18 -40t38 -25l97 -31l-13 -61h-586l13 61l161 45l-63 385h-448l-227 -386l164 -44l-14 -61h-448zM775 601l-57 337l-23 144v0l-284 -481h364zM852 1512q-55 0 -104 16.5t-85.5 56
t-57 104.5t-17.5 163l86 17q7 -55 19.5 -92.5t35.5 -60.5t58.5 -33t88.5 -10q51 0 89 9.5t68 32.5t55 60.5t51 93.5l86 -17q-31 -98 -71.5 -163.5t-88.5 -104.5t-102 -55.5t-111 -16.5zM487 -449q-35 0 -65 12.5t-52 34t-35 51t-13 63.5q0 33 13 62t35 50.5t52 34t65 12.5
t65.5 -12.5t53.5 -34t36 -50.5t13 -62q0 -34 -13 -63.5t-36 -51t-53.5 -34t-65.5 -12.5z" />
    <glyph glyph-name="Aogonek" unicode="&#x104;" horiz-adv-x="1309" 
d="M896 -444q-36 0 -74 9t-68.5 28.5t-50 50t-19.5 73.5q0 45 20.5 85.5t53.5 76t74 66t82 55.5h-231l13 61l161 45l-63 385h-448l-227 -386l164 -44l-14 -61h-448l14 61l106 41q17 7 33.5 23.5t27.5 35.5l609 1008l172 230h141l205 -1242q4 -23 18 -40t38 -25l97 -31
l-13 -61h-257q-29 -24 -54.5 -52t-45 -59.5t-30.5 -66t-11 -71.5q0 -45 25 -66.5t69 -21.5q23 0 48 6t45 16h31l-16 -89q-18 -7 -40.5 -14t-46.5 -13t-47.5 -9.5t-42.5 -3.5zM775 601l-57 337l-16 96l-7 48l-284 -481h364z" />
    <glyph glyph-name="AE" unicode="&#xc6;" horiz-adv-x="2034" 
d="M-163 61l100 34q19 7 45 23t43 37l865 1021q5 6 11.5 14.5t12.5 18.5t10 19.5t4 18.5q0 7 -5 12.5t-12 9.5t-15 7t-13 5l-129 36l13 61h1323l-79 -358h-70l-34 213q-2 16 -9 25.5t-24 9.5h-437l-125 -533h283q19 0 30.5 8.5t21.5 23.5l103 164h63l-111 -503h-63l-31 162
q-3 17 -9.5 26t-25.5 9h-284l-116 -514h549q19 0 30 10t19 25l130 241h70l-85 -387h-1184l13 61l128 37q21 6 38 21.5t22 37.5l106 466h-432l-426 -515l159 -47l-14 -61h-473zM1034 733l122 539h-30l-455 -539h363z" />
    <glyph glyph-name="AEacute" unicode="&#x1fc;" horiz-adv-x="2034" 
d="M-163 61l100 34q19 7 45 23t43 37l865 1021q5 6 11.5 14.5t12.5 18.5t10 19.5t4 18.5q0 7 -5 12.5t-12 9.5t-15 7t-13 5l-129 36l13 61h1323l-79 -358h-70l-34 213q-2 16 -9 25.5t-24 9.5h-437l-125 -533h283q19 0 30.5 8.5t21.5 23.5l103 164h63l-111 -503h-63l-31 162
q-3 17 -9.5 26t-25.5 9h-284l-116 -514h549q19 0 30 10t19 25l130 241h70l-85 -387h-1184l13 61l128 37q21 6 38 21.5t22 37.5l106 466h-432l-426 -515l159 -47l-14 -61h-473zM1034 733l122 539h-30l-455 -539h363zM1127 1524q54 72 106 143t106 143q17 22 33.5 39
t34.5 27.5t40 16t51 5.5q19 0 37.5 -5.5t33 -16.5t23.5 -27t9 -37q0 -22 -7.5 -39.5t-19.5 -31.5t-28 -26t-32 -22q-85 -53 -168 -104.5t-167 -102.5z" />
    <glyph glyph-name="Cacute" unicode="&#x106;" horiz-adv-x="1216" 
d="M617 -28q-131 0 -233 42.5t-172.5 120t-107 186t-36.5 240.5q0 115 26 223t75 202t119 171.5t157 133t190 86t218 30.5q48 0 107 -7t117 -18t109.5 -25t85.5 -28l-62 -337h-66l-43 175q-4 17 -11.5 26.5t-19.5 16.5q-28 16 -63 30.5t-72 25.5t-73 17.5t-65 6.5
q-85 0 -162 -54t-135.5 -148.5t-93.5 -222t-35 -273.5q0 -105 18.5 -191t60.5 -147t110.5 -94t168.5 -33q54 0 110 16.5t109.5 41t101 54t83.5 55.5h44l-24 -109q-46 -35 -101.5 -72.5t-121.5 -69t-144 -51.5t-169 -20zM657 1524q54 72 106 143t106 143q17 22 33.5 39
t34.5 27.5t40 16t51 5.5q19 0 37.5 -5.5t33 -16.5t23.5 -27t9 -37q0 -22 -7.5 -39.5t-19.5 -31.5t-28 -26t-32 -22q-85 -53 -168 -104.5t-167 -102.5z" />
    <glyph glyph-name="Ccircumflex" unicode="&#x108;" horiz-adv-x="1216" 
d="M617 -28q-131 0 -233 42.5t-172.5 120t-107 186t-36.5 240.5q0 115 26 223t75 202t119 171.5t157 133t190 86t218 30.5q48 0 107 -7t117 -18t109.5 -25t85.5 -28l-62 -337h-66l-43 175q-4 17 -11.5 26.5t-19.5 16.5q-28 16 -63 30.5t-72 25.5t-73 17.5t-65 6.5
q-85 0 -162 -54t-135.5 -148.5t-93.5 -222t-35 -273.5q0 -105 18.5 -191t60.5 -147t110.5 -94t168.5 -33q54 0 110 16.5t109.5 41t101 54t83.5 55.5h44l-24 -109q-46 -35 -101.5 -72.5t-121.5 -69t-144 -51.5t-169 -20zM570 1518l246 289q34 39 71.5 59.5t82.5 20.5t77 -20
t52 -60l143 -288l-52 -35l-240 230l-329 -232z" />
    <glyph glyph-name="Ccaron" unicode="&#x10c;" horiz-adv-x="1216" 
d="M617 -28q-131 0 -233 42.5t-172.5 120t-107 186t-36.5 240.5q0 115 26 223t75 202t119 171.5t157 133t190 86t218 30.5q48 0 107 -7t117 -18t109.5 -25t85.5 -28l-62 -337h-66l-43 175q-4 17 -11.5 26.5t-19.5 16.5q-28 16 -63 30.5t-72 25.5t-73 17.5t-65 6.5
q-85 0 -162 -54t-135.5 -148.5t-93.5 -222t-35 -273.5q0 -105 18.5 -191t60.5 -147t110.5 -94t168.5 -33q54 0 110 16.5t109.5 41t101 54t83.5 55.5h44l-24 -109q-46 -35 -101.5 -72.5t-121.5 -69t-144 -51.5t-169 -20zM901 1485q-45 0 -77.5 20t-52.5 60l-142 288l51 35
l241 -230l329 232l51 -36l-247 -289q-33 -39 -70.5 -59.5t-82.5 -20.5z" />
    <glyph glyph-name="Cdotaccent" unicode="&#x10a;" horiz-adv-x="1216" 
d="M617 -28q-131 0 -233 42.5t-172.5 120t-107 186t-36.5 240.5q0 115 26 223t75 202t119 171.5t157 133t190 86t218 30.5q48 0 107 -7t117 -18t109.5 -25t85.5 -28l-62 -337h-66l-43 175q-4 17 -11.5 26.5t-19.5 16.5q-28 16 -63 30.5t-72 25.5t-73 17.5t-65 6.5
q-85 0 -162 -54t-135.5 -148.5t-93.5 -222t-35 -273.5q0 -105 18.5 -191t60.5 -147t110.5 -94t168.5 -33q54 0 110 16.5t109.5 41t101 54t83.5 55.5h44l-24 -109q-46 -35 -101.5 -72.5t-121.5 -69t-144 -51.5t-169 -20zM902 1600q-35 0 -64.5 12t-51.5 33.5t-34.5 50.5
t-12.5 63q0 33 12.5 61.5t34.5 49.5t51.5 33.5t64.5 12.5q34 0 64.5 -12.5t53 -33.5t35.5 -49.5t13 -61.5q0 -34 -13 -63t-35.5 -50.5t-53 -33.5t-64.5 -12z" />
    <glyph glyph-name="Ccedilla" unicode="&#xc7;" horiz-adv-x="1216" 
d="M531 -447q-48 0 -98 13t-92 37l25 91h23q15 -12 34 -21t39 -15t39.5 -9.5t35.5 -3.5q22 0 43 5t37.5 16.5t26.5 29t10 42.5q0 23 -15 36t-36 19t-44.5 7.5t-39.5 1.5l50 172q-120 8 -213 53.5t-157 122t-97.5 181t-33.5 230.5q0 115 26 223t75 202t119 171.5t157 133
t190 86t218 30.5q48 0 107 -7t117 -18t109.5 -25t85.5 -28l-62 -337h-66l-43 175q-4 17 -11.5 26.5t-19.5 16.5q-28 16 -63 30.5t-72 25.5t-73 17.5t-65 6.5q-85 0 -162 -54t-135.5 -148.5t-93.5 -222t-35 -273.5q0 -105 18.5 -191t60.5 -147t110.5 -94t168.5 -33
q54 0 110 16.5t109.5 41t101 54t83.5 55.5h44l-24 -109q-44 -33 -96 -68.5t-113.5 -66t-134 -52t-156.5 -25.5l-21 -66q32 0 65.5 -7.5t61.5 -23.5t45.5 -42.5t17.5 -63.5q0 -59 -26.5 -100t-68.5 -67t-93.5 -38t-102.5 -12z" />
    <glyph glyph-name="Dcaron" unicode="&#x10e;" horiz-adv-x="1426" 
d="M-64 61l128 37q23 7 39 22t21 37l236 1064q5 23 -4 38.5t-30 21.5l-129 36l13 61h611q61 0 129 -10.5t134.5 -35.5t127 -65.5t106.5 -101t73.5 -142t27.5 -187.5q0 -142 -33 -259t-91 -210t-137 -162t-172 -114.5t-195.5 -68t-206.5 -22.5h-660zM592 109q75 0 143.5 23.5
t126.5 67t104.5 106t79.5 140t50.5 168.5t17.5 192q0 108 -25 194t-72.5 146t-116 92t-154.5 32h-96l-257 -1161h199zM819 1485q-45 0 -77.5 20t-52.5 60l-142 288l51 35l241 -230l329 232l51 -36l-247 -289q-33 -39 -70.5 -59.5t-82.5 -20.5z" />
    <glyph glyph-name="Dcroat" unicode="&#x110;" horiz-adv-x="1426" 
d="M-64 61l128 37q23 7 39 22t21 37l112 504h-163l24 112h164l99 448q5 23 -4 38.5t-30 21.5l-129 36l13 61h611q61 0 129 -10.5t134.5 -35.5t127 -65.5t106.5 -101t73.5 -142t27.5 -187.5q0 -142 -33 -259t-91 -210t-137 -162t-172 -114.5t-195.5 -68t-206.5 -22.5h-660z
M592 109q75 0 143.5 23.5t126.5 67t104.5 105.5t79.5 139.5t50.5 168.5t17.5 193q0 108 -25 194t-72.5 146t-116 92t-154.5 32h-96l-110 -497h327l-24 -112h-328l-122 -552h199z" />
    <glyph glyph-name="Egrave" unicode="&#xc8;" horiz-adv-x="1252" 
d="M-64 61l128 37q22 6 38.5 21.5t21.5 37.5l236 1064q5 23 -4.5 39t-29.5 21l-132 36l14 61h1100l-80 -358h-70l-33 213q-3 15 -9.5 25t-24.5 10h-440l-111 -495h283q20 0 31.5 9t20.5 23l103 164h63l-111 -503h-63l-32 162q-2 15 -8.5 25t-26.5 10h-284l-122 -552h546
q18 0 29 9.5t20 25.5l130 241h70l-86 -387h-1181zM956 1486q-39 25 -78.5 49.5t-78.5 49t-77.5 50t-76.5 54.5q-30 22 -54 47.5t-24 64.5q0 23 9.5 41t25 30.5t36 19t41.5 6.5q28 0 49 -4.5t37.5 -14.5t31 -26t29.5 -39q23 -36 45.5 -71.5t45 -71.5t46 -72.5t48.5 -74.5
l-55 -38v0z" />
    <glyph glyph-name="Eacute" unicode="&#xc9;" horiz-adv-x="1252" 
d="M-64 61l128 37q22 6 38.5 21.5t21.5 37.5l236 1064q5 23 -4.5 39t-29.5 21l-132 36l14 61h1100l-80 -358h-70l-33 213q-3 15 -9.5 25t-24.5 10h-440l-111 -495h283q20 0 31.5 9t20.5 23l103 164h63l-111 -503h-63l-32 162q-2 15 -8.5 25t-26.5 10h-284l-122 -552h546
q18 0 29 9.5t20 25.5l130 241h70l-86 -387h-1181zM687 1524q54 72 106 143t106 143q17 22 33.5 39t34.5 27.5t40 16t51 5.5q19 0 37.5 -5.5t33 -16.5t23.5 -27t9 -37q0 -22 -7.5 -39.5t-19.5 -31.5t-28 -26t-32 -22q-85 -53 -168 -104.5t-167 -102.5z" />
    <glyph glyph-name="Ecircumflex" unicode="&#xca;" horiz-adv-x="1252" 
d="M-64 61l128 37q22 6 38.5 21.5t21.5 37.5l236 1064q5 23 -4.5 39t-29.5 21l-132 36l14 61h1100l-80 -358h-70l-33 213q-3 15 -9.5 25t-24.5 10h-440l-111 -495h283q20 0 31.5 9t20.5 23l103 164h63l-111 -503h-63l-32 162q-2 15 -8.5 25t-26.5 10h-284l-122 -552h546
q18 0 29 9.5t20 25.5l130 241h70l-86 -387h-1181zM466 1518l246 289q34 39 71.5 59.5t82.5 20.5t77 -20t52 -60l143 -288l-52 -35l-240 230l-329 -232z" />
    <glyph glyph-name="uni1EBE" unicode="&#x1ebe;" horiz-adv-x="1252" 
d="M-64 61l128 37q22 6 38.5 21.5t21.5 37.5l236 1064q5 23 -4.5 39t-29.5 21l-132 36l14 61h1100l-80 -358h-70l-33 213q-3 15 -9.5 25t-24.5 10h-440l-111 -495h283q20 0 31.5 9t20.5 23l103 164h63l-111 -503h-63l-32 162q-2 15 -8.5 25t-26.5 10h-284l-122 -552h546
q18 0 29 9.5t20 25.5l130 241h70l-86 -387h-1181zM1103 1770l88 231q11 29 24 48.5t29.5 31t36.5 16.5t45 5q21 0 39 -6t31.5 -18t21.5 -29.5t8 -40.5t-14.5 -49t-50.5 -55l-206 -168zM466 1519l246 289q34 39 71.5 59.5t82.5 20.5t77 -20t52 -60l143 -288l-52 -35l-240 230
l-329 -232z" />
    <glyph glyph-name="uni1EC0" unicode="&#x1ec0;" horiz-adv-x="1252" 
d="M-64 61l128 37q22 6 38.5 21.5t21.5 37.5l236 1064q5 23 -4.5 39t-29.5 21l-132 36l14 61h1100l-80 -358h-70l-33 213q-3 15 -9.5 25t-24.5 10h-440l-111 -495h283q20 0 31.5 9t20.5 23l103 164h63l-111 -503h-63l-32 162q-2 15 -8.5 25t-26.5 10h-284l-122 -552h546
q18 0 29 9.5t20 25.5l130 241h70l-86 -387h-1181zM498 1736l-206 168q-36 29 -50.5 55t-14.5 49t8 40.5t21.5 29.5t31.5 18t39 6q25 0 45 -5t36.5 -16.5t29.5 -31t24 -48.5l88 -231zM466 1519l246 289q34 39 71.5 59.5t82.5 20.5t77 -20t52 -60l143 -288l-52 -35l-240 230
l-329 -232z" />
    <glyph glyph-name="uni1EC2" unicode="&#x1ec2;" horiz-adv-x="1252" 
d="M-64 61l128 37q22 6 38.5 21.5t21.5 37.5l236 1064q5 23 -4.5 39t-29.5 21l-132 36l14 61h1100l-80 -358h-70l-33 213q-3 15 -9.5 25t-24.5 10h-440l-111 -495h283q20 0 31.5 9t20.5 23l103 164h63l-111 -503h-63l-32 162q-2 15 -8.5 25t-26.5 10h-284l-122 -552h546
q18 0 29 9.5t20 25.5l130 241h70l-86 -387h-1181zM1259 2036q36 0 63.5 -6.5t47 -18t29.5 -27.5t10 -36q0 -27 -10 -47.5t-25 -37.5t-33.5 -32t-35.5 -30.5t-30 -34t-18 -41.5l-5 -22h-122l6 27q5 26 16.5 44t25.5 31.5t29 24.5t27 22.5t20 25.5t8 33q0 16 -9 28.5t-36 12.5
q-29 0 -49.5 -14.5t-38.5 -31.5h-43l21 96q9 4 23.5 10t34 11t43.5 9t51 4v0zM466 1519l246 289q34 39 71.5 59.5t82.5 20.5t77 -20t52 -60l143 -288l-52 -35l-240 230l-329 -232z" />
    <glyph glyph-name="uni1EC4" unicode="&#x1ec4;" horiz-adv-x="1252" 
d="M-64 61l128 37q22 6 38.5 21.5t21.5 37.5l236 1064q5 23 -4.5 39t-29.5 21l-132 36l14 61h1100l-80 -358h-70l-33 213q-3 15 -9.5 25t-24.5 10h-440l-111 -495h283q20 0 31.5 9t20.5 23l103 164h63l-111 -503h-63l-32 162q-2 15 -8.5 25t-26.5 10h-284l-122 -552h546
q18 0 29 9.5t20 25.5l130 241h70l-86 -387h-1181zM464 1519l248 274q34 39 71.5 59.5t82.5 20.5t77 -20t52 -60l141 -273l-52 -35l-238 217l-331 -219zM540 1888q16 60 43 110t62.5 86t78 56t89.5 20q32 0 65 -12.5t78 -37.5q45 -26 74.5 -35.5t46.5 -9.5q55 0 82 29t45 80
h74q-15 -59 -41 -109t-60.5 -86t-76.5 -56t-90 -20q-17 0 -31 2t-29.5 8t-34 16t-45.5 26q-43 26 -74 36t-49 10q-56 0 -85.5 -30.5t-47.5 -82.5h-74z" />
    <glyph glyph-name="Ecaron" unicode="&#x11a;" horiz-adv-x="1252" 
d="M-64 61l128 37q22 6 38.5 21.5t21.5 37.5l236 1064q5 23 -4.5 39t-29.5 21l-132 36l14 61h1100l-80 -358h-70l-33 213q-3 15 -9.5 25t-24.5 10h-440l-111 -495h283q20 0 31.5 9t20.5 23l103 164h63l-111 -503h-63l-32 162q-2 15 -8.5 25t-26.5 10h-284l-122 -552h546
q18 0 29 9.5t20 25.5l130 241h70l-86 -387h-1181zM839 1485q-45 0 -77.5 20t-52.5 60l-142 288l51 35l241 -230l329 232l51 -36l-247 -289q-33 -39 -70.5 -59.5t-82.5 -20.5z" />
    <glyph glyph-name="uni1EBC" unicode="&#x1ebc;" horiz-adv-x="1252" 
d="M-64 61l128 37q22 6 38.5 21.5t21.5 37.5l236 1064q5 23 -4.5 39t-29.5 21l-132 36l14 61h1100l-80 -358h-70l-33 213q-3 15 -9.5 25t-24.5 10h-440l-111 -495h283q20 0 31.5 9t20.5 23l103 164h63l-111 -503h-63l-32 162q-2 15 -8.5 25t-26.5 10h-284l-122 -552h546
q18 0 29 9.5t20 25.5l130 241h70l-86 -387h-1181zM449 1542q16 60 43 110t62.5 86t78 56t89.5 20q32 0 65 -12.5t78 -37.5q45 -26 74.5 -35.5t46.5 -9.5q55 0 82 29t45 80h74q-15 -59 -41 -109t-60.5 -86t-76.5 -56t-90 -20q-17 0 -31 2t-29.5 8t-34 16t-45.5 26
q-43 26 -74 36t-49 10q-56 0 -85.5 -30.5t-47.5 -82.5h-74v0z" />
    <glyph glyph-name="Edieresis" unicode="&#xcb;" horiz-adv-x="1252" 
d="M-64 61l128 37q22 6 38.5 21.5t21.5 37.5l236 1064q5 23 -4.5 39t-29.5 21l-132 36l14 61h1100l-80 -358h-70l-33 213q-3 15 -9.5 25t-24.5 10h-440l-111 -495h283q20 0 31.5 9t20.5 23l103 164h63l-111 -503h-63l-32 162q-2 15 -8.5 25t-26.5 10h-284l-122 -552h546
q18 0 29 9.5t20 25.5l130 241h70l-86 -387h-1181zM616 1538q-27 0 -51 10t-42 28t-28 42t-10 52t10 52t28 42t42 28t51 10q28 0 52.5 -10t43 -28t29 -42t10.5 -52t-10.5 -52t-29 -42t-43 -28t-52.5 -10zM1056 1538q-27 0 -51 10t-42 28t-28 42t-10 52t10 52t28 42t42 28
t51 10q28 0 52.5 -10t43 -28t29 -42t10.5 -52t-10.5 -52t-29 -42t-43 -28t-52.5 -10z" />
    <glyph glyph-name="Emacron" unicode="&#x112;" horiz-adv-x="1252" 
d="M-64 61l128 37q22 6 38.5 21.5t21.5 37.5l236 1064q5 23 -4.5 39t-29.5 21l-132 36l14 61h1100l-80 -358h-70l-33 213q-3 15 -9.5 25t-24.5 10h-440l-111 -495h283q20 0 31.5 9t20.5 23l103 164h63l-111 -503h-63l-32 162q-2 15 -8.5 25t-26.5 10h-284l-122 -552h546
q18 0 29 9.5t20 25.5l130 241h70l-86 -387h-1181zM520 1726h624l-35 -143h-624z" />
    <glyph glyph-name="Ebreve" unicode="&#x114;" horiz-adv-x="1252" 
d="M-64 61l128 37q22 6 38.5 21.5t21.5 37.5l236 1064q5 23 -4.5 39t-29.5 21l-132 36l14 61h1100l-80 -358h-70l-33 213q-3 15 -9.5 25t-24.5 10h-440l-111 -495h283q20 0 31.5 9t20.5 23l103 164h63l-111 -503h-63l-32 162q-2 15 -8.5 25t-26.5 10h-284l-122 -552h546
q18 0 29 9.5t20 25.5l130 241h70l-86 -387h-1181zM839 1512q-55 0 -104 16.5t-85.5 56t-57 104.5t-17.5 163l86 17q7 -55 19.5 -92.5t35.5 -60.5t58.5 -33t88.5 -10q51 0 89 9.5t68 32.5t55 60.5t51 93.5l86 -17q-31 -98 -71.5 -163.5t-88.5 -104.5t-102 -55.5t-111 -16.5z
" />
    <glyph glyph-name="Edotaccent" unicode="&#x116;" horiz-adv-x="1252" 
d="M-64 61l128 37q22 6 38.5 21.5t21.5 37.5l236 1064q5 23 -4.5 39t-29.5 21l-132 36l14 61h1100l-80 -358h-70l-33 213q-3 15 -9.5 25t-24.5 10h-440l-111 -495h283q20 0 31.5 9t20.5 23l103 164h63l-111 -503h-63l-32 162q-2 15 -8.5 25t-26.5 10h-284l-122 -552h546
q18 0 29 9.5t20 25.5l130 241h70l-86 -387h-1181zM840 1600q-35 0 -64.5 12t-51.5 33.5t-34.5 50.5t-12.5 63q0 33 12.5 61.5t34.5 49.5t51.5 33.5t64.5 12.5q34 0 64.5 -12.5t53 -33.5t35.5 -49.5t13 -61.5q0 -34 -13 -63t-35.5 -50.5t-53 -33.5t-64.5 -12z" />
    <glyph glyph-name="uni1EBA" unicode="&#x1eba;" horiz-adv-x="1252" 
d="M-64 61l128 37q22 6 38.5 21.5t21.5 37.5l236 1064q5 23 -4.5 39t-29.5 21l-132 36l14 61h1100l-80 -358h-70l-33 213q-3 15 -9.5 25t-24.5 10h-440l-111 -495h283q20 0 31.5 9t20.5 23l103 164h63l-111 -503h-63l-32 162q-2 15 -8.5 25t-26.5 10h-284l-122 -552h546
q18 0 29 9.5t20 25.5l130 241h70l-86 -387h-1181zM925 1968q49 0 87 -9t63.5 -25t39 -39t13.5 -50q0 -40 -14 -70t-35.5 -54.5t-47.5 -46.5t-50.5 -44.5t-43 -49.5t-26.5 -61l-6 -31h-151l8 39q8 37 25.5 65t39 51t44.5 42.5t42 40t31 43.5t12 52q0 8 -3 17.5t-11.5 17.5
t-22.5 13.5t-36 5.5q-23 0 -43 -6t-37 -15t-32 -21t-29 -24h-47l23 109q13 6 33 14.5t46.5 16.5t58.5 13.5t69 5.5v0z" />
    <glyph glyph-name="uni1EB8" unicode="&#x1eb8;" horiz-adv-x="1252" 
d="M-64 61l128 37q22 6 38.5 21.5t21.5 37.5l236 1064q5 23 -4.5 39t-29.5 21l-132 36l14 61h1100l-80 -358h-70l-33 213q-3 15 -9.5 25t-24.5 10h-440l-111 -495h283q20 0 31.5 9t20.5 23l103 164h63l-111 -503h-63l-32 162q-2 15 -8.5 25t-26.5 10h-284l-122 -552h546
q18 0 29 9.5t20 25.5l130 241h70l-86 -387h-1181zM549 -449q-35 0 -65 12.5t-52 34t-35 51t-13 63.5q0 33 13 62t35 50.5t52 34t65 12.5t65.5 -12.5t53.5 -34t36 -50.5t13 -62q0 -34 -13 -63.5t-36 -51t-53.5 -34t-65.5 -12.5z" />
    <glyph glyph-name="uni1EC6" unicode="&#x1ec6;" horiz-adv-x="1252" 
d="M-64 61l128 37q22 6 38.5 21.5t21.5 37.5l236 1064q5 23 -4.5 39t-29.5 21l-132 36l14 61h1100l-80 -358h-70l-33 213q-3 15 -9.5 25t-24.5 10h-440l-111 -495h283q20 0 31.5 9t20.5 23l103 164h63l-111 -503h-63l-32 162q-2 15 -8.5 25t-26.5 10h-284l-122 -552h546
q18 0 29 9.5t20 25.5l130 241h70l-86 -387h-1181zM508 1518l246 289q34 39 71.5 59.5t82.5 20.5t77 -20t52 -60l143 -288l-52 -35l-240 230l-329 -232zM549 -449q-35 0 -65 12.5t-52 34t-35 51t-13 63.5q0 33 13 62t35 50.5t52 34t65 12.5t65.5 -12.5t53.5 -34t36 -50.5
t13 -62q0 -34 -13 -63.5t-36 -51t-53.5 -34t-65.5 -12.5z" />
    <glyph glyph-name="Eogonek" unicode="&#x118;" horiz-adv-x="1252" 
d="M828 -444q-36 0 -74 9t-68.5 28.5t-50 50t-19.5 73.5q0 45 20.5 85.5t53.5 76t74 66t82 55.5h-924l14 61l128 37q22 6 38.5 21.5t21.5 37.5l236 1064q5 23 -4.5 39t-29.5 21l-132 36l14 61h1100l-80 -358h-70l-33 213q-3 15 -9.5 25t-24.5 10h-440l-111 -495h283
q20 0 31.5 9t20.5 23l103 164h63l-111 -503h-63l-32 162q-2 15 -8.5 25t-26.5 10h-284l-122 -552h546q18 0 29 9.5t20 25.5l130 241h70l-86 -387h-159q-29 -24 -54.5 -52t-45 -59.5t-30.5 -66t-11 -71.5q0 -45 25 -66.5t69 -21.5q23 0 48 6t45 16h31l-16 -89
q-18 -7 -40.5 -14t-46.5 -13t-47.5 -9.5t-42.5 -3.5z" />
    <glyph glyph-name="Gcircumflex" unicode="&#x11c;" horiz-adv-x="1429" 
d="M608 -30q-116 0 -214.5 37.5t-171 109.5t-113.5 177t-41 240q0 119 27 230t77 208t122.5 177.5t163.5 138t199.5 89t230.5 31.5q82 0 155 -7t136 -18.5t115.5 -25t91.5 -26.5l-68 -339h-69l-34 179q-3 15 -11.5 25.5t-22.5 15.5q-32 12 -67 26t-75 25.5t-85.5 19
t-97.5 7.5q-98 0 -186 -54t-154.5 -153t-105.5 -237.5t-39 -306.5q0 -89 20 -170.5t59.5 -144t97 -100t132.5 -37.5q40 0 72.5 6t58.5 15t46 19.5t34 18.5l69 315q5 23 -3 38t-31 21l-136 37l14 61h638l-14 -61l-130 -37q-23 -7 -39 -22t-21 -37l-34 -154
q-18 -81 -30.5 -139t-18.5 -96q-56 -21 -121 -39.5t-136 -32.5t-144.5 -22t-145.5 -8zM640 1518l246 289q34 39 71.5 59.5t82.5 20.5t77 -20t52 -60l143 -288l-52 -35l-240 230l-329 -232z" />
    <glyph glyph-name="Gbreve" unicode="&#x11e;" horiz-adv-x="1429" 
d="M608 -30q-116 0 -214.5 37.5t-171 109.5t-113.5 177t-41 240q0 119 27 230t77 208t122.5 177.5t163.5 138t199.5 89t230.5 31.5q82 0 155 -7t136 -18.5t115.5 -25t91.5 -26.5l-68 -339h-69l-34 179q-3 15 -11.5 25.5t-22.5 15.5q-32 12 -67 26t-75 25.5t-85.5 19
t-97.5 7.5q-98 0 -186 -54t-154.5 -153t-105.5 -237.5t-39 -306.5q0 -89 20 -170.5t59.5 -144t97 -100t132.5 -37.5q40 0 72.5 6t58.5 15t46 19.5t34 18.5l69 315q5 23 -3 38t-31 21l-136 37l14 61h638l-14 -61l-130 -37q-23 -7 -39 -22t-21 -37l-34 -154
q-18 -81 -30.5 -139t-18.5 -96q-56 -21 -121 -39.5t-136 -32.5t-144.5 -22t-145.5 -8zM971 1512q-55 0 -104 16.5t-85.5 56t-57 104.5t-17.5 163l86 17q7 -55 19.5 -92.5t35.5 -60.5t58.5 -33t88.5 -10q51 0 89 9.5t68 32.5t55 60.5t51 93.5l86 -17q-31 -98 -71.5 -163.5
t-88.5 -104.5t-102 -55.5t-111 -16.5z" />
    <glyph glyph-name="Gdotaccent" unicode="&#x120;" horiz-adv-x="1429" 
d="M608 -30q-116 0 -214.5 37.5t-171 109.5t-113.5 177t-41 240q0 119 27 230t77 208t122.5 177.5t163.5 138t199.5 89t230.5 31.5q82 0 155 -7t136 -18.5t115.5 -25t91.5 -26.5l-68 -339h-69l-34 179q-3 15 -11.5 25.5t-22.5 15.5q-32 12 -67 26t-75 25.5t-85.5 19
t-97.5 7.5q-98 0 -186 -54t-154.5 -153t-105.5 -237.5t-39 -306.5q0 -89 20 -170.5t59.5 -144t97 -100t132.5 -37.5q40 0 72.5 6t58.5 15t46 19.5t34 18.5l69 315q5 23 -3 38t-31 21l-136 37l14 61h638l-14 -61l-130 -37q-23 -7 -39 -22t-21 -37l-34 -154
q-18 -81 -30.5 -139t-18.5 -96q-56 -21 -121 -39.5t-136 -32.5t-144.5 -22t-145.5 -8zM972 1600q-35 0 -64.5 12t-51.5 33.5t-34.5 50.5t-12.5 63q0 33 12.5 61.5t34.5 49.5t51.5 33.5t64.5 12.5q34 0 64.5 -12.5t53 -33.5t35.5 -49.5t13 -61.5q0 -34 -13 -63t-35.5 -50.5
t-53 -33.5t-64.5 -12z" />
    <glyph glyph-name="uni0122" unicode="&#x122;" horiz-adv-x="1429" 
d="M608 -30q-116 0 -214.5 37.5t-171 109.5t-113.5 177t-41 240q0 119 27 230t77 208t122.5 177.5t163.5 138t199.5 89t230.5 31.5q82 0 155 -7t136 -18.5t115.5 -25t91.5 -26.5l-68 -339h-69l-34 179q-3 15 -11.5 25.5t-22.5 15.5q-32 12 -67 26t-75 25.5t-85.5 19
t-97.5 7.5q-98 0 -186 -54t-154.5 -153t-105.5 -237.5t-39 -306.5q0 -89 20 -170.5t59.5 -144t97 -100t132.5 -37.5q40 0 72.5 6t58.5 15t46 19.5t34 18.5l69 315q5 23 -3 38t-31 21l-136 37l14 61h638l-14 -61l-130 -37q-23 -7 -39 -22t-21 -37l-34 -154
q-18 -81 -30.5 -139t-18.5 -96q-56 -21 -121 -39.5t-136 -32.5t-144.5 -22t-145.5 -8zM493 -440q29 21 49 39t34 34.5t23.5 32t18.5 33.5q-25 16 -40.5 26.5t-24.5 20.5t-12.5 21.5t-3.5 29.5q0 22 11 42t29.5 35t42.5 23.5t51 8.5q36 0 58 -10.5t34.5 -26t16.5 -33t4 -31.5
q0 -65 -26.5 -112t-65 -81.5t-82.5 -58.5t-80 -42z" />
    <glyph glyph-name="Hcircumflex" unicode="&#x124;" horiz-adv-x="1566" 
d="M-61 61l125 37q21 6 38 21.5t22 37.5l236 1064q5 23 -4.5 39t-29.5 21l-129 36l13 61h628l-13 -61l-124 -36q-22 -6 -39 -22t-22 -38l-100 -448h570l100 448q5 23 -4.5 39t-29.5 21l-129 36l13 61h628l-13 -61l-125 -36q-21 -6 -38 -22t-22 -38l-236 -1064
q-5 -23 4.5 -38.5t29.5 -20.5l129 -37l-14 -61h-628l14 61l125 37q21 6 38 21.5t22 37.5l112 504h-570l-112 -504q-5 -23 5 -38.5t30 -20.5l128 -37l-14 -61h-628zM629 1518l246 289q34 39 71.5 59.5t82.5 20.5t77 -20t52 -60l143 -288l-52 -35l-240 230l-329 -232z" />
    <glyph glyph-name="Hbar" unicode="&#x126;" horiz-adv-x="1566" 
d="M-61 61l125 37q21 6 38 21.5t22 37.5l182 821h-175l27 112h173l29 131q5 23 -4.5 39t-29.5 21l-129 36l13 61h628l-13 -61l-124 -36q-22 -6 -39 -22t-22 -38l-29 -131h570l29 131q5 23 -4.5 39t-29.5 21l-129 36l13 61h628l-13 -61l-125 -36q-21 -6 -38 -22t-22 -38
l-29 -131h179l-27 -112h-177l-182 -821q-5 -23 4.5 -38.5t29.5 -20.5l129 -37l-14 -61h-628l14 61l125 37q21 6 38 21.5t22 37.5l112 504h-570l-112 -504q-5 -23 5 -38.5t30 -20.5l128 -37l-14 -61h-628zM1110 773l46 205h-570l-46 -205h570z" />
    <glyph glyph-name="Igrave" unicode="&#xcc;" horiz-adv-x="713" 
d="M-57 61l125 37q23 7 39 22t21 37l236 1064q5 23 -5.5 39t-28.5 21l-129 36l14 61h628l-14 -61l-124 -36q-20 -6 -38 -22t-23 -38l-236 -1064q-5 -23 5 -38t30 -21l128 -37l-14 -61h-628zM717 1486q-39 25 -78.5 49.5t-78.5 49t-77.5 50t-76.5 54.5q-30 22 -54 47.5
t-24 64.5q0 23 9.5 41t25 30.5t36 19t41.5 6.5q28 0 49 -4.5t37.5 -14.5t31 -26t29.5 -39q23 -36 45.5 -71.5t45 -71.5t46 -72.5t48.5 -74.5l-55 -38v0z" />
    <glyph glyph-name="Iacute" unicode="&#xcd;" horiz-adv-x="713" 
d="M-57 61l125 37q23 7 39 22t21 37l236 1064q5 23 -5.5 39t-28.5 21l-129 36l14 61h628l-14 -61l-124 -36q-20 -6 -38 -22t-23 -38l-236 -1064q-5 -23 5 -38t30 -21l128 -37l-14 -61h-628zM365 1524q54 72 106 143t106 143q17 22 33.5 39t34.5 27.5t40 16t51 5.5
q19 0 37.5 -5.5t33 -16.5t23.5 -27t9 -37q0 -22 -7.5 -39.5t-19.5 -31.5t-28 -26t-32 -22q-85 -53 -168 -104.5t-167 -102.5z" />
    <glyph glyph-name="Icircumflex" unicode="&#xce;" horiz-adv-x="713" 
d="M-57 61l125 37q23 7 39 22t21 37l236 1064q5 23 -5.5 39t-28.5 21l-129 36l14 61h628l-14 -61l-124 -36q-20 -6 -38 -22t-23 -38l-236 -1064q-5 -23 5 -38t30 -21l128 -37l-14 -61h-628zM214 1518l246 289q34 39 71.5 59.5t82.5 20.5t77 -20t52 -60l143 -288l-52 -35
l-240 230l-329 -232z" />
    <glyph glyph-name="Itilde" unicode="&#x128;" horiz-adv-x="713" 
d="M-57 61l125 37q23 7 39 22t21 37l236 1064q5 23 -5.5 39t-28.5 21l-129 36l14 61h628l-14 -61l-124 -36q-20 -6 -38 -22t-23 -38l-236 -1064q-5 -23 5 -38t30 -21l128 -37l-14 -61h-628zM188 1542q16 60 43 110t62.5 86t78 56t89.5 20q32 0 65 -12.5t78 -37.5
q45 -26 74.5 -35.5t46.5 -9.5q55 0 82 29t45 80h74q-15 -59 -41 -109t-60.5 -86t-76.5 -56t-90 -20q-17 0 -31 2t-29.5 8t-34 16t-45.5 26q-43 26 -74 36t-49 10q-56 0 -85.5 -30.5t-47.5 -82.5h-74v0z" />
    <glyph glyph-name="Idieresis" unicode="&#xcf;" horiz-adv-x="713" 
d="M-57 61l125 37q23 7 39 22t21 37l236 1064q5 23 -5.5 39t-28.5 21l-129 36l14 61h628l-14 -61l-124 -36q-20 -6 -38 -22t-23 -38l-236 -1064q-5 -23 5 -38t30 -21l128 -37l-14 -61h-628zM352 1538q-27 0 -51 10t-42 28t-28 42t-10 52t10 52t28 42t42 28t51 10
q28 0 52.5 -10t43 -28t29 -42t10.5 -52t-10.5 -52t-29 -42t-43 -28t-52.5 -10zM792 1538q-27 0 -51 10t-42 28t-28 42t-10 52t10 52t28 42t42 28t51 10q28 0 52.5 -10t43 -28t29 -42t10.5 -52t-10.5 -52t-29 -42t-43 -28t-52.5 -10z" />
    <glyph glyph-name="Imacron" unicode="&#x12a;" horiz-adv-x="713" 
d="M-57 61l125 37q23 7 39 22t21 37l236 1064q5 23 -5.5 39t-28.5 21l-129 36l14 61h628l-14 -61l-124 -36q-20 -6 -38 -22t-23 -38l-236 -1064q-5 -23 5 -38t30 -21l128 -37l-14 -61h-628zM259 1726h624l-35 -143h-624z" />
    <glyph glyph-name="Ibreve" unicode="&#x12c;" horiz-adv-x="713" 
d="M-57 61l125 37q23 7 39 22t21 37l236 1064q5 23 -5.5 39t-28.5 21l-129 36l14 61h628l-14 -61l-124 -36q-20 -6 -38 -22t-23 -38l-236 -1064q-5 -23 5 -38t30 -21l128 -37l-14 -61h-628zM578 1512q-55 0 -104 16.5t-85.5 56t-57 104.5t-17.5 163l86 17q7 -55 19.5 -92.5
t35.5 -60.5t58.5 -33t88.5 -10q51 0 89 9.5t68 32.5t55 60.5t51 93.5l86 -17q-31 -98 -71.5 -163.5t-88.5 -104.5t-102 -55.5t-111 -16.5z" />
    <glyph glyph-name="Idotaccent" unicode="&#x130;" horiz-adv-x="713" 
d="M-57 61l125 37q23 7 39 22t21 37l236 1064q5 23 -5.5 39t-28.5 21l-129 36l14 61h628l-14 -61l-124 -36q-20 -6 -38 -22t-23 -38l-236 -1064q-5 -23 5 -38t30 -21l128 -37l-14 -61h-628zM579 1600q-35 0 -64.5 12t-51.5 33.5t-34.5 50.5t-12.5 63q0 33 12.5 61.5
t34.5 49.5t51.5 33.5t64.5 12.5q34 0 64.5 -12.5t53 -33.5t35.5 -49.5t13 -61.5q0 -34 -13 -63t-35.5 -50.5t-53 -33.5t-64.5 -12z" />
    <glyph glyph-name="uni1EC8" unicode="&#x1ec8;" horiz-adv-x="713" 
d="M-57 61l125 37q23 7 39 22t21 37l236 1064q5 23 -5.5 39t-28.5 21l-129 36l14 61h628l-14 -61l-124 -36q-20 -6 -38 -22t-23 -38l-236 -1064q-5 -23 5 -38t30 -21l128 -37l-14 -61h-628zM663 1968q49 0 87 -9t63.5 -25t39 -39t13.5 -50q0 -40 -14 -70t-35.5 -54.5
t-47.5 -46.5t-50.5 -44.5t-43 -49.5t-26.5 -61l-6 -31h-151l8 39q8 37 25.5 65t39 51t44.5 42.5t42 40t31 43.5t12 52q0 8 -3 17.5t-11.5 17.5t-22.5 13.5t-36 5.5q-23 0 -43 -6t-37 -15t-32 -21t-29 -24h-47l23 109q13 6 33 14.5t46.5 16.5t58.5 13.5t69 5.5v0z" />
    <glyph glyph-name="Iogonek" unicode="&#x12e;" horiz-adv-x="713" 
d="M198 -444q-36 0 -74 9t-68.5 28.5t-50 50t-19.5 73.5q0 45 20.5 85.5t53.5 76t74 66t82 55.5h-287l14 61l125 37q23 7 39 22t21 37l236 1064q5 23 -5.5 39t-28.5 21l-129 36l14 61h628l-14 -61l-124 -36q-20 -6 -38 -22t-23 -38l-236 -1064q-5 -23 5 -38t30 -21l128 -37
l-14 -61h-243q-29 -24 -54.5 -52t-45 -59.5t-30.5 -66t-11 -71.5q0 -45 25 -66.5t69 -21.5q23 0 48 6t45 16h31l-16 -89q-18 -7 -40.5 -14t-46.5 -13t-47.5 -9.5t-42.5 -3.5z" />
    <glyph glyph-name="uni1ECA" unicode="&#x1eca;" horiz-adv-x="713" 
d="M-57 61l125 37q23 7 39 22t21 37l236 1064q5 23 -5.5 39t-28.5 21l-129 36l14 61h628l-14 -61l-124 -36q-20 -6 -38 -22t-23 -38l-236 -1064q-5 -23 5 -38t30 -21l128 -37l-14 -61h-628zM235 -449q-35 0 -65 12.5t-52 34t-35 51t-13 63.5q0 33 13 62t35 50.5t52 34
t65 12.5t65.5 -12.5t53.5 -34t36 -50.5t13 -62q0 -34 -13 -63.5t-36 -51t-53.5 -34t-65.5 -12.5z" />
    <glyph glyph-name="IJ" unicode="&#x132;" horiz-adv-x="1411" 
d="M-57 61l125 37q23 7 39 22t21 37l236 1064q5 23 -5.5 39t-28.5 21l-129 36l14 61h628l-14 -61l-124 -36q-20 -6 -38 -22t-23 -38l-236 -1064q-5 -23 5 -38t30 -21l128 -37l-14 -61h-628zM499 -381q-35 0 -73 9.5t-95 30.5l84 231h32q34 -12 67 -22t63.5 -18t58 -12.5
t51.5 -4.5q23 0 44.5 5t41.5 24q6 6 15.5 35.5t20 70.5t21.5 88t20 89l221 1076q5 23 -5.5 39t-28.5 21l-148 36l14 61h644l-14 -61l-121 -36q-20 -6 -38 -22t-23 -38l-212 -1052q-20 -100 -68 -189.5t-130 -165.5q-54 -50 -105 -86.5t-104 -60.5t-110 -36t-123 -12z" />
    <glyph glyph-name="Jcircumflex" unicode="&#x134;" horiz-adv-x="698" 
d="M-214 -381q-35 0 -73 9.5t-95 30.5l84 231h32q34 -12 67 -22t63.5 -18t58 -12.5t51.5 -4.5q23 0 44.5 5t41.5 24q6 6 15.5 35.5t20 70.5t21.5 88t20 89l221 1076q5 23 -5.5 39t-28.5 21l-148 36l14 61h644l-14 -61l-121 -36q-20 -6 -38 -22t-23 -38l-212 -1052
q-20 -100 -68 -189.5t-130 -165.5q-54 -50 -105 -86.5t-104 -60.5t-110 -36t-123 -12zM219 1518l246 289q34 39 71.5 59.5t82.5 20.5t77 -20t52 -60l143 -288l-52 -35l-240 230l-329 -232z" />
    <glyph glyph-name="uni0136" unicode="&#x136;" horiz-adv-x="1368" 
d="M-61 61l125 37q21 6 38 21.5t22 37.5l236 1064q5 23 -4.5 39t-29.5 21l-129 36l13 61h628l-13 -61l-124 -36q-22 -6 -39 -22t-22 -38l-117 -522l644 582l-137 36l14 61h469l-14 -61l-124 -36q-21 -6 -50.5 -22.5t-51.5 -36.5l-473 -423l323 -634q11 -21 24.5 -41.5
t33.5 -25.5l127 -37l-14 -61h-584l14 61l131 37l-280 546l-78 -64l-93 -423q-5 -23 5 -38.5t30 -20.5l128 -37l-14 -61h-628zM488 -440q29 21 49 39t34 34.5t23.5 32t18.5 33.5q-25 16 -40.5 26.5t-24.5 20.5t-12.5 21.5t-3.5 29.5q0 22 11 42t29.5 35t42.5 23.5t51 8.5
q36 0 58 -10.5t34.5 -26t16.5 -33t4 -31.5q0 -65 -26.5 -112t-65 -81.5t-82.5 -58.5t-80 -42z" />
    <glyph glyph-name="Lacute" unicode="&#x139;" horiz-adv-x="1152" 
d="M-60 61l125 37q23 7 39 22t21 37l236 1064q5 23 -4.5 39t-29.5 21l-129 36l14 61h639l-14 -61l-131 -36q-22 -6 -39 -22t-22 -38l-246 -1110h470q9 0 17.5 5.5t15.5 13.5t12.5 17t9.5 17l144 264h67l-95 -428h-1114zM324 1524q54 72 106 143t106 143q17 22 33.5 39
t34.5 27.5t40 16t51 5.5q19 0 37.5 -5.5t33 -16.5t23.5 -27t9 -37q0 -22 -7.5 -39.5t-19.5 -31.5t-28 -26t-32 -22q-85 -53 -168 -104.5t-167 -102.5z" />
    <glyph glyph-name="Lcaron" unicode="&#x13d;" horiz-adv-x="1152" 
d="M-60 61l125 37q23 7 39 22t21 37l236 1064q5 23 -4.5 39t-29.5 21l-129 36l14 61h639l-14 -61l-131 -36q-22 -6 -39 -22t-22 -38l-246 -1110h470q9 0 17.5 5.5t15.5 13.5t12.5 17t9.5 17l144 264h67l-95 -428h-1114zM974 983q27 19 52 38.5t46.5 40.5t39 44.5t29.5 51.5
q-33 24 -53.5 39t-31 27t-14 23.5t-3.5 26.5q0 29 11.5 51.5t30.5 38t43 23.5t48 8q40 0 63.5 -12.5t36 -30t16 -36.5t3.5 -33q0 -50 -15.5 -92t-40.5 -76.5t-56 -62.5t-62.5 -49.5t-61 -37.5t-49.5 -27z" />
    <glyph glyph-name="uni013B" unicode="&#x13b;" horiz-adv-x="1152" 
d="M-60 61l125 37q23 7 39 22t21 37l236 1064q5 23 -4.5 39t-29.5 21l-129 36l14 61h639l-14 -61l-131 -36q-22 -6 -39 -22t-22 -38l-246 -1110h470q9 0 17.5 5.5t15.5 13.5t12.5 17t9.5 17l144 264h67l-95 -428h-1114zM372 -440q29 21 49 39t34 34.5t23.5 32t18.5 33.5
q-25 16 -40.5 26.5t-24.5 20.5t-12.5 21.5t-3.5 29.5q0 22 11 42t29.5 35t42.5 23.5t51 8.5q36 0 58 -10.5t34.5 -26t16.5 -33t4 -31.5q0 -65 -26.5 -112t-65 -81.5t-82.5 -58.5t-80 -42z" />
    <glyph glyph-name="Lslash" unicode="&#x141;" horiz-adv-x="1152" 
d="M-60 61l125 37q23 7 39 22t21 37l97 440l-185 -67l30 126l183 66l111 499q5 23 -4.5 39t-29.5 21l-129 36l14 61h639l-14 -61l-131 -36q-22 -6 -39 -22t-22 -38l-86 -386l372 135l-30 -127l-370 -134l-132 -598h470q9 0 17.5 5.5t15.5 13.5t12.5 17t9.5 17l144 264h67
l-95 -428h-1114z" />
    <glyph glyph-name="Ldot" unicode="&#x13f;" horiz-adv-x="1152" 
d="M-60 61l125 37q23 7 39 22t21 37l236 1064q5 23 -4.5 39t-29.5 21l-129 36l14 61h639l-14 -61l-131 -36q-22 -6 -39 -22t-22 -38l-246 -1110h470q9 0 17.5 5.5t15.5 13.5t12.5 17t9.5 17l144 264h67l-95 -428h-1114zM1001 619q-35 0 -64.5 12t-51.5 33.5t-34.5 50.5
t-12.5 63q0 33 12.5 61.5t34.5 49.5t51.5 33.5t64.5 12.5q34 0 64.5 -12.5t53 -33.5t35.5 -49.5t13 -61.5q0 -34 -13 -63t-35.5 -50.5t-53 -33.5t-64.5 -12z" />
    <glyph glyph-name="Nacute" unicode="&#x143;" horiz-adv-x="1478" 
d="M539 931l-72 154v0l-205 -922q-5 -22 3.5 -36.5t30.5 -22.5l130 -43l-14 -61h-486l14 61l126 43q22 8 38.5 23t21.5 36l233 1054q5 23 -5.5 38.5t-28.5 20.5l-138 41l14 61h425l409 -864l64 -137v0l186 838q5 23 -3.5 37.5t-30.5 21.5l-135 43l14 61h487l-14 -61
l-121 -43q-23 -8 -39.5 -22.5t-21.5 -36.5l-219 -986l-83 -239h-134zM685 1524q54 72 106 143t106 143q17 22 33.5 39t34.5 27.5t40 16t51 5.5q19 0 37.5 -5.5t33 -16.5t23.5 -27t9 -37q0 -22 -7.5 -39.5t-19.5 -31.5t-28 -26t-32 -22q-85 -53 -168 -104.5t-167 -102.5z" />
    <glyph glyph-name="Ncaron" unicode="&#x147;" horiz-adv-x="1478" 
d="M539 931l-72 154v0l-205 -922q-5 -22 3.5 -36.5t30.5 -22.5l130 -43l-14 -61h-486l14 61l126 43q22 8 38.5 23t21.5 36l233 1054q5 23 -5.5 38.5t-28.5 20.5l-138 41l14 61h425l409 -864l64 -137v0l186 838q5 23 -3.5 37.5t-30.5 21.5l-135 43l14 61h487l-14 -61
l-121 -43q-23 -8 -39.5 -22.5t-21.5 -36.5l-219 -986l-83 -239h-134zM929 1485q-45 0 -77.5 20t-52.5 60l-142 288l51 35l241 -230l329 232l51 -36l-247 -289q-33 -39 -70.5 -59.5t-82.5 -20.5z" />
    <glyph glyph-name="Ntilde" unicode="&#xd1;" horiz-adv-x="1478" 
d="M539 931l-72 154v0l-205 -922q-5 -22 3.5 -36.5t30.5 -22.5l130 -43l-14 -61h-486l14 61l126 43q22 8 38.5 23t21.5 36l233 1054q5 23 -5.5 38.5t-28.5 20.5l-138 41l14 61h425l409 -864l64 -137v0l186 838q5 23 -3.5 37.5t-30.5 21.5l-135 43l14 61h487l-14 -61
l-121 -43q-23 -8 -39.5 -22.5t-21.5 -36.5l-219 -986l-83 -239h-134zM594 1542q16 60 43 110t62.5 86t78 56t89.5 20q32 0 65 -12.5t78 -37.5q45 -26 74.5 -35.5t46.5 -9.5q55 0 82 29t45 80h74q-15 -59 -41 -109t-60.5 -86t-76.5 -56t-90 -20q-17 0 -31 2t-29.5 8t-34 16
t-45.5 26q-43 26 -74 36t-49 10q-56 0 -85.5 -30.5t-47.5 -82.5h-74v0z" />
    <glyph glyph-name="uni0145" unicode="&#x145;" horiz-adv-x="1478" 
d="M539 931l-72 154v0l-205 -922q-5 -22 3.5 -36.5t30.5 -22.5l130 -43l-14 -61h-486l14 61l126 43q22 8 38.5 23t21.5 36l233 1054q5 23 -5.5 38.5t-28.5 20.5l-138 41l14 61h425l409 -864l64 -137v0l186 838q5 23 -3.5 37.5t-30.5 21.5l-135 43l14 61h487l-14 -61
l-121 -43q-23 -8 -39.5 -22.5t-21.5 -36.5l-219 -986l-83 -239h-134zM501 -440q29 21 49 39t34 34.5t23.5 32t18.5 33.5q-25 16 -40.5 26.5t-24.5 20.5t-12.5 21.5t-3.5 29.5q0 22 11 42t29.5 35t42.5 23.5t51 8.5q36 0 58 -10.5t34.5 -26t16.5 -33t4 -31.5
q0 -65 -26.5 -112t-65 -81.5t-82.5 -58.5t-80 -42z" />
    <glyph glyph-name="Ograve" unicode="&#xd2;" horiz-adv-x="1433" 
d="M651 76q76 0 141 35t117 96t92 142t67 173t40.5 190t13.5 193q0 94 -17 168t-52 125t-88 77.5t-125 26.5q-78 0 -143.5 -37t-117.5 -99.5t-91 -144.5t-65 -172t-39 -182.5t-13 -175.5q0 -92 15 -168t48.5 -131t87 -85.5t129.5 -30.5zM623 -30q-136 0 -239.5 39
t-173.5 110t-106 171t-37 222q-1 106 22.5 214t69.5 207.5t114.5 186t157.5 150.5t198 101t237 37q143 0 247.5 -41.5t173 -114.5t102.5 -171.5t35 -213.5q1 -95 -20 -198.5t-64 -203.5t-109.5 -189.5t-155.5 -157.5t-202 -108t-250 -40zM996 1486q-39 25 -78.5 49.5
t-78.5 49t-77.5 50t-76.5 54.5q-30 22 -54 47.5t-24 64.5q0 23 9.5 41t25 30.5t36 19t41.5 6.5q28 0 49 -4.5t37.5 -14.5t31 -26t29.5 -39q23 -36 45.5 -71.5t45 -71.5t46 -72.5t48.5 -74.5l-55 -38v0z" />
    <glyph glyph-name="Oacute" unicode="&#xd3;" horiz-adv-x="1433" 
d="M651 76q76 0 141 35t117 96t92 142t67 173t40.5 190t13.5 193q0 94 -17 168t-52 125t-88 77.5t-125 26.5q-78 0 -143.5 -37t-117.5 -99.5t-91 -144.5t-65 -172t-39 -182.5t-13 -175.5q0 -92 15 -168t48.5 -131t87 -85.5t129.5 -30.5zM623 -30q-136 0 -239.5 39
t-173.5 110t-106 171t-37 222q-1 106 22.5 214t69.5 207.5t114.5 186t157.5 150.5t198 101t237 37q143 0 247.5 -41.5t173 -114.5t102.5 -171.5t35 -213.5q1 -95 -20 -198.5t-64 -203.5t-109.5 -189.5t-155.5 -157.5t-202 -108t-250 -40zM684 1524q54 72 106 143t106 143
q17 22 33.5 39t34.5 27.5t40 16t51 5.5q19 0 37.5 -5.5t33 -16.5t23.5 -27t9 -37q0 -22 -7.5 -39.5t-19.5 -31.5t-28 -26t-32 -22q-85 -53 -168 -104.5t-167 -102.5z" />
    <glyph glyph-name="Ocircumflex" unicode="&#xd4;" horiz-adv-x="1433" 
d="M651 76q76 0 141 35t117 96t92 142t67 173t40.5 190t13.5 193q0 94 -17 168t-52 125t-88 77.5t-125 26.5q-78 0 -143.5 -37t-117.5 -99.5t-91 -144.5t-65 -172t-39 -182.5t-13 -175.5q0 -92 15 -168t48.5 -131t87 -85.5t129.5 -30.5zM623 -30q-136 0 -239.5 39
t-173.5 110t-106 171t-37 222q-1 106 22.5 214t69.5 207.5t114.5 186t157.5 150.5t198 101t237 37q143 0 247.5 -41.5t173 -114.5t102.5 -171.5t35 -213.5q1 -95 -20 -198.5t-64 -203.5t-109.5 -189.5t-155.5 -157.5t-202 -108t-250 -40zM536 1518l246 289q34 39 71.5 59.5
t82.5 20.5t77 -20t52 -60l143 -288l-52 -35l-240 230l-329 -232z" />
    <glyph glyph-name="uni1ED0" unicode="&#x1ed0;" horiz-adv-x="1433" 
d="M651 76q76 0 141 35t117 96t92 142t67 173t40.5 190t13.5 193q0 94 -17 168t-52 125t-88 77.5t-125 26.5q-78 0 -143.5 -37t-117.5 -99.5t-91 -144.5t-65 -172t-39 -182.5t-13 -175.5q0 -92 15 -168t48.5 -131t87 -85.5t129.5 -30.5zM623 -30q-136 0 -239.5 39
t-173.5 110t-106 171t-37 222q-1 106 22.5 214t69.5 207.5t114.5 186t157.5 150.5t198 101t237 37q143 0 247.5 -41.5t173 -114.5t102.5 -171.5t35 -213.5q1 -95 -20 -198.5t-64 -203.5t-109.5 -189.5t-155.5 -157.5t-202 -108t-250 -40zM1173 1770l88 231q11 29 24 48.5
t29.5 31t36.5 16.5t45 5q21 0 39 -6t31.5 -18t21.5 -29.5t8 -40.5t-14.5 -49t-50.5 -55l-206 -168zM536 1519l246 289q34 39 71.5 59.5t82.5 20.5t77 -20t52 -60l143 -288l-52 -35l-240 230l-329 -232z" />
    <glyph glyph-name="uni1ED2" unicode="&#x1ed2;" horiz-adv-x="1433" 
d="M651 76q76 0 141 35t117 96t92 142t67 173t40.5 190t13.5 193q0 94 -17 168t-52 125t-88 77.5t-125 26.5q-78 0 -143.5 -37t-117.5 -99.5t-91 -144.5t-65 -172t-39 -182.5t-13 -175.5q0 -92 15 -168t48.5 -131t87 -85.5t129.5 -30.5zM623 -30q-136 0 -239.5 39
t-173.5 110t-106 171t-37 222q-1 106 22.5 214t69.5 207.5t114.5 186t157.5 150.5t198 101t237 37q143 0 247.5 -41.5t173 -114.5t102.5 -171.5t35 -213.5q1 -95 -20 -198.5t-64 -203.5t-109.5 -189.5t-155.5 -157.5t-202 -108t-250 -40zM568 1736l-206 168q-36 29 -50.5 55
t-14.5 49t8 40.5t21.5 29.5t31.5 18t39 6q25 0 45 -5t36.5 -16.5t29.5 -31t24 -48.5l88 -231zM536 1519l246 289q34 39 71.5 59.5t82.5 20.5t77 -20t52 -60l143 -288l-52 -35l-240 230l-329 -232z" />
    <glyph glyph-name="uni1ED4" unicode="&#x1ed4;" horiz-adv-x="1433" 
d="M651 76q76 0 141 35t117 96t92 142t67 173t40.5 190t13.5 193q0 94 -17 168t-52 125t-88 77.5t-125 26.5q-78 0 -143.5 -37t-117.5 -99.5t-91 -144.5t-65 -172t-39 -182.5t-13 -175.5q0 -92 15 -168t48.5 -131t87 -85.5t129.5 -30.5zM623 -30q-136 0 -239.5 39
t-173.5 110t-106 171t-37 222q-1 106 22.5 214t69.5 207.5t114.5 186t157.5 150.5t198 101t237 37q143 0 247.5 -41.5t173 -114.5t102.5 -171.5t35 -213.5q1 -95 -20 -198.5t-64 -203.5t-109.5 -189.5t-155.5 -157.5t-202 -108t-250 -40zM1330 2036q36 0 63.5 -6.5t47 -18
t29.5 -27.5t10 -36q0 -27 -10 -47.5t-25 -37.5t-33.5 -32t-35.5 -30.5t-30 -34t-18 -41.5l-5 -22h-122l6 27q5 26 16.5 44t25.5 31.5t29 24.5t27 22.5t20 25.5t8 33q0 16 -9 28.5t-36 12.5q-29 0 -49.5 -14.5t-38.5 -31.5h-43l21 96q9 4 23.5 10t34 11t43.5 9t51 4v0z
M537 1519l246 289q34 39 71.5 59.5t82.5 20.5t77 -20t52 -60l143 -288l-52 -35l-240 230l-329 -232z" />
    <glyph glyph-name="uni1ED6" unicode="&#x1ed6;" horiz-adv-x="1433" 
d="M651 76q76 0 141 35t117 96t92 142t67 173t40.5 190t13.5 193q0 94 -17 168t-52 125t-88 77.5t-125 26.5q-78 0 -143.5 -37t-117.5 -99.5t-91 -144.5t-65 -172t-39 -182.5t-13 -175.5q0 -92 15 -168t48.5 -131t87 -85.5t129.5 -30.5zM623 -30q-136 0 -239.5 39
t-173.5 110t-106 171t-37 222q-1 106 22.5 214t69.5 207.5t114.5 186t157.5 150.5t198 101t237 37q143 0 247.5 -41.5t173 -114.5t102.5 -171.5t35 -213.5q1 -95 -20 -198.5t-64 -203.5t-109.5 -189.5t-155.5 -157.5t-202 -108t-250 -40zM534 1519l248 274q34 39 71.5 59.5
t82.5 20.5t77 -20t52 -60l141 -273l-52 -35l-238 217l-331 -219zM610 1888q16 60 43 110t62.5 86t78 56t89.5 20q32 0 65 -12.5t78 -37.5q45 -26 74.5 -35.5t46.5 -9.5q55 0 82 29t45 80h74q-15 -59 -41 -109t-60.5 -86t-76.5 -56t-90 -20q-17 0 -31 2t-29.5 8t-34 16
t-45.5 26q-43 26 -74 36t-49 10q-56 0 -85.5 -30.5t-47.5 -82.5h-74z" />
    <glyph glyph-name="Otilde" unicode="&#xd5;" horiz-adv-x="1433" 
d="M651 76q76 0 141 35t117 96t92 142t67 173t40.5 190t13.5 193q0 94 -17 168t-52 125t-88 77.5t-125 26.5q-78 0 -143.5 -37t-117.5 -99.5t-91 -144.5t-65 -172t-39 -182.5t-13 -175.5q0 -92 15 -168t48.5 -131t87 -85.5t129.5 -30.5zM623 -30q-136 0 -239.5 39
t-173.5 110t-106 171t-37 222q-1 106 22.5 214t69.5 207.5t114.5 186t157.5 150.5t198 101t237 37q143 0 247.5 -41.5t173 -114.5t102.5 -171.5t35 -213.5q1 -95 -20 -198.5t-64 -203.5t-109.5 -189.5t-155.5 -157.5t-202 -108t-250 -40zM521 1542q16 60 43 110t62.5 86
t78 56t89.5 20q32 0 65 -12.5t78 -37.5q45 -26 74.5 -35.5t46.5 -9.5q55 0 82 29t45 80h74q-15 -59 -41 -109t-60.5 -86t-76.5 -56t-90 -20q-17 0 -31 2t-29.5 8t-34 16t-45.5 26q-43 26 -74 36t-49 10q-56 0 -85.5 -30.5t-47.5 -82.5h-74v0z" />
    <glyph glyph-name="Odieresis" unicode="&#xd6;" horiz-adv-x="1433" 
d="M651 76q76 0 141 35t117 96t92 142t67 173t40.5 190t13.5 193q0 94 -17 168t-52 125t-88 77.5t-125 26.5q-78 0 -143.5 -37t-117.5 -99.5t-91 -144.5t-65 -172t-39 -182.5t-13 -175.5q0 -92 15 -168t48.5 -131t87 -85.5t129.5 -30.5zM623 -30q-136 0 -239.5 39
t-173.5 110t-106 171t-37 222q-1 106 22.5 214t69.5 207.5t114.5 186t157.5 150.5t198 101t237 37q143 0 247.5 -41.5t173 -114.5t102.5 -171.5t35 -213.5q1 -95 -20 -198.5t-64 -203.5t-109.5 -189.5t-155.5 -157.5t-202 -108t-250 -40zM668 1538q-27 0 -51 10t-42 28
t-28 42t-10 52t10 52t28 42t42 28t51 10q28 0 52.5 -10t43 -28t29 -42t10.5 -52t-10.5 -52t-29 -42t-43 -28t-52.5 -10zM1108 1538q-27 0 -51 10t-42 28t-28 42t-10 52t10 52t28 42t42 28t51 10q28 0 52.5 -10t43 -28t29 -42t10.5 -52t-10.5 -52t-29 -42t-43 -28t-52.5 -10z
" />
    <glyph glyph-name="Omacron" unicode="&#x14c;" horiz-adv-x="1433" 
d="M651 76q76 0 141 35t117 96t92 142t67 173t40.5 190t13.5 193q0 94 -17 168t-52 125t-88 77.5t-125 26.5q-78 0 -143.5 -37t-117.5 -99.5t-91 -144.5t-65 -172t-39 -182.5t-13 -175.5q0 -92 15 -168t48.5 -131t87 -85.5t129.5 -30.5zM623 -30q-136 0 -239.5 39
t-173.5 110t-106 171t-37 222q-1 106 22.5 214t69.5 207.5t114.5 186t157.5 150.5t198 101t237 37q143 0 247.5 -41.5t173 -114.5t102.5 -171.5t35 -213.5q1 -95 -20 -198.5t-64 -203.5t-109.5 -189.5t-155.5 -157.5t-202 -108t-250 -40zM584 1726h624l-35 -143h-624z" />
    <glyph glyph-name="Obreve" unicode="&#x14e;" horiz-adv-x="1433" 
d="M651 76q76 0 141 35t117 96t92 142t67 173t40.5 190t13.5 193q0 94 -17 168t-52 125t-88 77.5t-125 26.5q-78 0 -143.5 -37t-117.5 -99.5t-91 -144.5t-65 -172t-39 -182.5t-13 -175.5q0 -92 15 -168t48.5 -131t87 -85.5t129.5 -30.5zM623 -30q-136 0 -239.5 39
t-173.5 110t-106 171t-37 222q-1 106 22.5 214t69.5 207.5t114.5 186t157.5 150.5t198 101t237 37q143 0 247.5 -41.5t173 -114.5t102.5 -171.5t35 -213.5q1 -95 -20 -198.5t-64 -203.5t-109.5 -189.5t-155.5 -157.5t-202 -108t-250 -40zM903 1512q-55 0 -104 16.5t-85.5 56
t-57 104.5t-17.5 163l86 17q7 -55 19.5 -92.5t35.5 -60.5t58.5 -33t88.5 -10q51 0 89 9.5t68 32.5t55 60.5t51 93.5l86 -17q-31 -98 -71.5 -163.5t-88.5 -104.5t-102 -55.5t-111 -16.5z" />
    <glyph glyph-name="Ohungarumlaut" unicode="&#x150;" horiz-adv-x="1433" 
d="M651 76q76 0 141 35t117 96t92 142t67 173t40.5 190t13.5 193q0 94 -17 168t-52 125t-88 77.5t-125 26.5q-78 0 -143.5 -37t-117.5 -99.5t-91 -144.5t-65 -172t-39 -182.5t-13 -175.5q0 -92 15 -168t48.5 -131t87 -85.5t129.5 -30.5zM623 -30q-136 0 -239.5 39
t-173.5 110t-106 171t-37 222q-1 106 22.5 214t69.5 207.5t114.5 186t157.5 150.5t198 101t237 37q143 0 247.5 -41.5t173 -114.5t102.5 -171.5t35 -213.5q1 -95 -20 -198.5t-64 -203.5t-109.5 -189.5t-155.5 -157.5t-202 -108t-250 -40zM676 1524l167 298q17 29 32.5 47
t31.5 28t33 13.5t37 3.5q21 0 38 -7.5t29.5 -20t19 -29t6.5 -34.5q0 -21 -4 -36.5t-12.5 -29t-22.5 -27.5t-34 -31l-268 -213zM1039 1524l167 298q17 29 32.5 47t31.5 28t33 13.5t37 3.5q42 0 67.5 -27t25.5 -64q0 -21 -4 -36.5t-12.5 -29t-22.5 -27.5t-34 -31l-268 -213z
" />
    <glyph glyph-name="uni1ECE" unicode="&#x1ece;" horiz-adv-x="1433" 
d="M651 76q76 0 141 35t117 96t92 142t67 173t40.5 190t13.5 193q0 94 -17 168t-52 125t-88 77.5t-125 26.5q-78 0 -143.5 -37t-117.5 -99.5t-91 -144.5t-65 -172t-39 -182.5t-13 -175.5q0 -92 15 -168t48.5 -131t87 -85.5t129.5 -30.5zM623 -30q-136 0 -239.5 39
t-173.5 110t-106 171t-37 222q-1 106 22.5 214t69.5 207.5t114.5 186t157.5 150.5t198 101t237 37q143 0 247.5 -41.5t173 -114.5t102.5 -171.5t35 -213.5q1 -95 -20 -198.5t-64 -203.5t-109.5 -189.5t-155.5 -157.5t-202 -108t-250 -40zM989 1968q49 0 87 -9t63.5 -25
t39 -39t13.5 -50q0 -40 -14 -70t-35.5 -54.5t-47.5 -46.5t-50.5 -44.5t-43 -49.5t-26.5 -61l-6 -31h-151l8 39q8 37 25.5 65t39 51t44.5 42.5t42 40t31 43.5t12 52q0 8 -3 17.5t-11.5 17.5t-22.5 13.5t-36 5.5q-23 0 -43 -6t-37 -15t-32 -21t-29 -24h-47l23 109
q13 6 33 14.5t46.5 16.5t58.5 13.5t69 5.5v0z" />
    <glyph glyph-name="uni1ECC" unicode="&#x1ecc;" horiz-adv-x="1433" 
d="M651 76q76 0 141 35t117 96t92 142t67 173t40.5 190t13.5 193q0 94 -17 168t-52 125t-88 77.5t-125 26.5q-78 0 -143.5 -37t-117.5 -99.5t-91 -144.5t-65 -172t-39 -182.5t-13 -175.5q0 -92 15 -168t48.5 -131t87 -85.5t129.5 -30.5zM623 -30q-136 0 -239.5 39
t-173.5 110t-106 171t-37 222q-1 106 22.5 214t69.5 207.5t114.5 186t157.5 150.5t198 101t237 37q143 0 247.5 -41.5t173 -114.5t102.5 -171.5t35 -213.5q1 -95 -20 -198.5t-64 -203.5t-109.5 -189.5t-155.5 -157.5t-202 -108t-250 -40zM600 -449q-35 0 -65 12.5t-52 34
t-35 51t-13 63.5q0 33 13 62t35 50.5t52 34t65 12.5t65.5 -12.5t53.5 -34t36 -50.5t13 -62q0 -34 -13 -63.5t-36 -51t-53.5 -34t-65.5 -12.5z" />
    <glyph glyph-name="uni1ED8" unicode="&#x1ed8;" horiz-adv-x="1433" 
d="M651 76q76 0 141 35t117 96t92 142t67 173t40.5 190t13.5 193q0 94 -17 168t-52 125t-88 77.5t-125 26.5q-78 0 -143.5 -37t-117.5 -99.5t-91 -144.5t-65 -172t-39 -182.5t-13 -175.5q0 -92 15 -168t48.5 -131t87 -85.5t129.5 -30.5zM623 -30q-136 0 -239.5 39
t-173.5 110t-106 171t-37 222q-1 106 22.5 214t69.5 207.5t114.5 186t157.5 150.5t198 101t237 37q143 0 247.5 -41.5t173 -114.5t102.5 -171.5t35 -213.5q1 -95 -20 -198.5t-64 -203.5t-109.5 -189.5t-155.5 -157.5t-202 -108t-250 -40zM572 1518l246 289q34 39 71.5 59.5
t82.5 20.5t77 -20t52 -60l143 -288l-52 -35l-240 230l-329 -232zM600 -449q-35 0 -65 12.5t-52 34t-35 51t-13 63.5q0 33 13 62t35 50.5t52 34t65 12.5t65.5 -12.5t53.5 -34t36 -50.5t13 -62q0 -34 -13 -63.5t-36 -51t-53.5 -34t-65.5 -12.5z" />
    <glyph glyph-name="Ohorn" unicode="&#x1a0;" horiz-adv-x="1699" 
d="M1589 1378h201q6 -22 9.5 -37.5t3.5 -36.5q1 -79 -35 -135t-92.5 -93t-126 -58t-136.5 -31q5 -29 7.5 -59t3.5 -61q1 -95 -20 -198.5t-64 -203.5t-109.5 -189.5t-155.5 -157.5t-202 -108t-250 -40q-136 0 -239.5 39t-173.5 110t-106 171t-37 222q-1 106 22.5 214
t69.5 207.5t114.5 186t157.5 150.5t198 101t237 37q108 0 194 -24t151.5 -68t110 -105.5t69.5 -135.5q42 8 78.5 23t63.5 40.5t42.5 62.5t15.5 90q0 9 -3 26t-6 27zM651 76q76 0 141 35t117 96t92 142t67 173t40.5 190t13.5 193q0 94 -17 168t-52 125t-88 77.5t-125 26.5
q-78 0 -143.5 -37t-117.5 -99.5t-91 -144.5t-65 -172t-39 -182.5t-13 -175.5q0 -92 15 -168t48.5 -131t87 -85.5t129.5 -30.5z" />
    <glyph glyph-name="uni1EDA" unicode="&#x1eda;" horiz-adv-x="1699" 
d="M1589 1378h201q6 -22 9.5 -37.5t3.5 -36.5q1 -79 -35 -135t-92.5 -93t-126 -58t-136.5 -31q5 -29 7.5 -59t3.5 -61q1 -95 -20 -198.5t-64 -203.5t-109.5 -189.5t-155.5 -157.5t-202 -108t-250 -40q-136 0 -239.5 39t-173.5 110t-106 171t-37 222q-1 106 22.5 214
t69.5 207.5t114.5 186t157.5 150.5t198 101t237 37q108 0 194 -24t151.5 -68t110 -105.5t69.5 -135.5q42 8 78.5 23t63.5 40.5t42.5 62.5t15.5 90q0 9 -3 26t-6 27zM651 76q76 0 141 35t117 96t92 142t67 173t40.5 190t13.5 193q0 94 -17 168t-52 125t-88 77.5t-125 26.5
q-78 0 -143.5 -37t-117.5 -99.5t-91 -144.5t-65 -172t-39 -182.5t-13 -175.5q0 -92 15 -168t48.5 -131t87 -85.5t129.5 -30.5zM684 1524q54 72 106 143t106 143q17 22 33.5 39t34.5 27.5t40 16t51 5.5q19 0 37.5 -5.5t33 -16.5t23.5 -27t9 -37q0 -22 -7.5 -39.5t-19.5 -31.5
t-28 -26t-32 -22q-85 -53 -168 -104.5t-167 -102.5z" />
    <glyph glyph-name="uni1EDC" unicode="&#x1edc;" horiz-adv-x="1699" 
d="M1589 1378h201q6 -22 9.5 -37.5t3.5 -36.5q1 -79 -35 -135t-92.5 -93t-126 -58t-136.5 -31q5 -29 7.5 -59t3.5 -61q1 -95 -20 -198.5t-64 -203.5t-109.5 -189.5t-155.5 -157.5t-202 -108t-250 -40q-136 0 -239.5 39t-173.5 110t-106 171t-37 222q-1 106 22.5 214
t69.5 207.5t114.5 186t157.5 150.5t198 101t237 37q108 0 194 -24t151.5 -68t110 -105.5t69.5 -135.5q42 8 78.5 23t63.5 40.5t42.5 62.5t15.5 90q0 9 -3 26t-6 27zM651 76q76 0 141 35t117 96t92 142t67 173t40.5 190t13.5 193q0 94 -17 168t-52 125t-88 77.5t-125 26.5
q-78 0 -143.5 -37t-117.5 -99.5t-91 -144.5t-65 -172t-39 -182.5t-13 -175.5q0 -92 15 -168t48.5 -131t87 -85.5t129.5 -30.5zM996 1486q-39 25 -78.5 49.5t-78.5 49t-77.5 50t-76.5 54.5q-30 22 -54 47.5t-24 64.5q0 23 9.5 41t25 30.5t36 19t41.5 6.5q28 0 49 -4.5
t37.5 -14.5t31 -26t29.5 -39q23 -36 45.5 -71.5t45 -71.5t46 -72.5t48.5 -74.5l-55 -38v0z" />
    <glyph glyph-name="uni1EDE" unicode="&#x1ede;" horiz-adv-x="1699" 
d="M1589 1378h201q6 -22 9.5 -37.5t3.5 -36.5q1 -79 -35 -135t-92.5 -93t-126 -58t-136.5 -31q5 -29 7.5 -59t3.5 -61q1 -95 -20 -198.5t-64 -203.5t-109.5 -189.5t-155.5 -157.5t-202 -108t-250 -40q-136 0 -239.5 39t-173.5 110t-106 171t-37 222q-1 106 22.5 214
t69.5 207.5t114.5 186t157.5 150.5t198 101t237 37q108 0 194 -24t151.5 -68t110 -105.5t69.5 -135.5q42 8 78.5 23t63.5 40.5t42.5 62.5t15.5 90q0 9 -3 26t-6 27zM651 76q76 0 141 35t117 96t92 142t67 173t40.5 190t13.5 193q0 94 -17 168t-52 125t-88 77.5t-125 26.5
q-78 0 -143.5 -37t-117.5 -99.5t-91 -144.5t-65 -172t-39 -182.5t-13 -175.5q0 -92 15 -168t48.5 -131t87 -85.5t129.5 -30.5zM961 1966q49 0 87 -9t63.5 -25t39 -39t13.5 -50q0 -40 -14 -70t-35.5 -54.5t-47.5 -46.5t-50.5 -44.5t-43 -49.5t-26.5 -61l-6 -31h-151l8 39
q8 37 25.5 65t39 51t44.5 42.5t42 40t31 43.5t12 52q0 8 -3 17.5t-11.5 17.5t-22.5 13.5t-36 5.5q-23 0 -43 -6t-37 -15t-32 -21t-29 -24h-47l23 109q13 6 33 14.5t46.5 16.5t58.5 13.5t69 5.5v0z" />
    <glyph glyph-name="uni1EE0" unicode="&#x1ee0;" horiz-adv-x="1699" 
d="M1589 1378h201q6 -22 9.5 -37.5t3.5 -36.5q1 -79 -35 -135t-92.5 -93t-126 -58t-136.5 -31q5 -29 7.5 -59t3.5 -61q1 -95 -20 -198.5t-64 -203.5t-109.5 -189.5t-155.5 -157.5t-202 -108t-250 -40q-136 0 -239.5 39t-173.5 110t-106 171t-37 222q-1 106 22.5 214
t69.5 207.5t114.5 186t157.5 150.5t198 101t237 37q108 0 194 -24t151.5 -68t110 -105.5t69.5 -135.5q42 8 78.5 23t63.5 40.5t42.5 62.5t15.5 90q0 9 -3 26t-6 27zM651 76q76 0 141 35t117 96t92 142t67 173t40.5 190t13.5 193q0 94 -17 168t-52 125t-88 77.5t-125 26.5
q-78 0 -143.5 -37t-117.5 -99.5t-91 -144.5t-65 -172t-39 -182.5t-13 -175.5q0 -92 15 -168t48.5 -131t87 -85.5t129.5 -30.5zM485 1542q16 60 43 110t62.5 86t78 56t89.5 20q32 0 65 -12.5t78 -37.5q45 -26 74.5 -35.5t46.5 -9.5q55 0 82 29t45 80h74q-15 -59 -41 -109
t-60.5 -86t-76.5 -56t-90 -20q-17 0 -31 2t-29.5 8t-34 16t-45.5 26q-43 26 -74 36t-49 10q-56 0 -85.5 -30.5t-47.5 -82.5h-74v0z" />
    <glyph glyph-name="uni1EE2" unicode="&#x1ee2;" horiz-adv-x="1699" 
d="M1589 1378h201q6 -22 9.5 -37.5t3.5 -36.5q1 -79 -35 -135t-92.5 -93t-126 -58t-136.5 -31q5 -29 7.5 -59t3.5 -61q1 -95 -20 -198.5t-64 -203.5t-109.5 -189.5t-155.5 -157.5t-202 -108t-250 -40q-136 0 -239.5 39t-173.5 110t-106 171t-37 222q-1 106 22.5 214
t69.5 207.5t114.5 186t157.5 150.5t198 101t237 37q108 0 194 -24t151.5 -68t110 -105.5t69.5 -135.5q42 8 78.5 23t63.5 40.5t42.5 62.5t15.5 90q0 9 -3 26t-6 27zM651 76q76 0 141 35t117 96t92 142t67 173t40.5 190t13.5 193q0 94 -17 168t-52 125t-88 77.5t-125 26.5
q-78 0 -143.5 -37t-117.5 -99.5t-91 -144.5t-65 -172t-39 -182.5t-13 -175.5q0 -92 15 -168t48.5 -131t87 -85.5t129.5 -30.5zM654 -449q-35 0 -65 12.5t-52 34t-35 51t-13 63.5q0 33 13 62t35 50.5t52 34t65 12.5t65.5 -12.5t53.5 -34t36 -50.5t13 -62q0 -34 -13 -63.5
t-36 -51t-53.5 -34t-65.5 -12.5z" />
    <glyph glyph-name="Oslash" unicode="&#xd8;" horiz-adv-x="1433" 
d="M213 122q-70 72 -107 170.5t-39 219.5q-1 106 22 214t69 207.5t114.5 186t158 150.5t198.5 101t237 37q108 0 194 -25.5t153 -73.5l121 143h110l-166 -198q72 -73 108.5 -171.5t37.5 -215.5q1 -95 -20 -198.5t-64 -203.5t-109.5 -189.5t-155.5 -157.5t-202 -108t-250 -40
q-106 0 -192.5 25.5t-155.5 73.5l-149 -180h-110zM649 76q77 0 142.5 34.5t118 94t93 138.5t67.5 168t41.5 183t15.5 183q2 54 -2.5 100.5t-12.5 86.5l-701 -837q32 -72 90 -111.5t148 -39.5zM1082 1152q-35 75 -94 112.5t-146 37.5q-79 0 -145 -36.5t-119 -98t-92.5 -142.5
t-66 -170t-40 -180t-14.5 -173q-1 -51 3 -98t13 -89z" />
    <glyph glyph-name="Oslashacute" unicode="&#x1fe;" horiz-adv-x="1433" 
d="M213 122q-70 72 -107 170.5t-39 219.5q-1 106 22 214t69 207.5t114.5 186t158 150.5t198.5 101t237 37q108 0 194 -25.5t153 -73.5l121 143h110l-166 -198q72 -73 108.5 -171.5t37.5 -215.5q1 -95 -20 -198.5t-64 -203.5t-109.5 -189.5t-155.5 -157.5t-202 -108t-250 -40
q-106 0 -192.5 25.5t-155.5 73.5l-149 -180h-110zM649 76q77 0 142.5 34.5t118 94t93 138.5t67.5 168t41.5 183t15.5 183q2 54 -2.5 100.5t-12.5 86.5l-701 -837q32 -72 90 -111.5t148 -39.5zM1082 1152q-35 75 -94 112.5t-146 37.5q-79 0 -145 -36.5t-119 -98t-92.5 -142.5
t-66 -170t-40 -180t-14.5 -173q-1 -51 3 -98t13 -89zM655 1524q54 72 106 143t106 143q17 22 33.5 39t34.5 27.5t40 16t51 5.5q19 0 37.5 -5.5t33 -16.5t23.5 -27t9 -37q0 -22 -7.5 -39.5t-19.5 -31.5t-28 -26t-32 -22q-85 -53 -168 -104.5t-167 -102.5z" />
    <glyph glyph-name="OE" unicode="&#x152;" horiz-adv-x="1976" 
d="M665 -1q-61 0 -129 11t-134.5 37t-127 67.5t-106.5 103t-73.5 143.5t-27.5 188q0 142 33 258.5t91 208.5t137 160t172 112.5t195.5 66.5t206.5 22h251h178h126t95 0.5t84 0.5h94h125h176l-79 -358h-70l-34 213q-2 15 -8.5 25t-24.5 10h-440l-112 -495h283q20 0 31.5 9
t20.5 23l103 164h63l-111 -503h-63l-31 162q-3 15 -9 25t-26 10h-284l-123 -552h546q18 0 29.5 9.5t19.5 25.5l130 241h70l-85 -387h-208.5h-147.5h-108t-90.5 -0.5t-93.5 -0.5h-118h-164.5h-231.5zM836 107l257 1161h-199q-75 0 -143.5 -23.5t-126.5 -67t-104.5 -106
t-79.5 -140t-50.5 -168.5t-17.5 -192q0 -108 25 -194t72.5 -146t116 -92t154.5 -32h96z" />
    <glyph glyph-name="Racute" unicode="&#x154;" horiz-adv-x="1370" 
d="M-61 61l125 37q20 6 37.5 21.5t22.5 37.5l236 1064q5 23 -4.5 39t-29.5 21l-129 36l12 61h614q136 0 224 -28t138.5 -73t70 -101.5t19.5 -113.5q0 -62 -17 -114t-46 -94.5t-67.5 -75t-82 -57t-89.5 -40t-90 -23.5l264 -491q11 -21 33 -42t42 -27l129 -37l-13 -61h-299
q-42 0 -69.5 6t-47 20.5t-34.5 38.5t-33 60l-231 459l-120 32l-100 -459q-5 -23 5 -38.5t30 -20.5l135 -37l-14 -61h-635zM631 703q86 0 149.5 27.5t105.5 74t62.5 107.5t20.5 129q0 57 -16 100t-49 71.5t-83.5 43t-119.5 14.5h-50l-124 -557q7 -2 21.5 -3.5t31 -3t31 -2.5
t20.5 -1zM552 1524q54 72 106 143t106 143q17 22 33.5 39t34.5 27.5t40 16t51 5.5q19 0 37.5 -5.5t33 -16.5t23.5 -27t9 -37q0 -22 -7.5 -39.5t-19.5 -31.5t-28 -26t-32 -22q-85 -53 -168 -104.5t-167 -102.5z" />
    <glyph glyph-name="Rcaron" unicode="&#x158;" horiz-adv-x="1370" 
d="M-61 61l125 37q20 6 37.5 21.5t22.5 37.5l236 1064q5 23 -4.5 39t-29.5 21l-129 36l12 61h614q136 0 224 -28t138.5 -73t70 -101.5t19.5 -113.5q0 -62 -17 -114t-46 -94.5t-67.5 -75t-82 -57t-89.5 -40t-90 -23.5l264 -491q11 -21 33 -42t42 -27l129 -37l-13 -61h-299
q-42 0 -69.5 6t-47 20.5t-34.5 38.5t-33 60l-231 459l-120 32l-100 -459q-5 -23 5 -38.5t30 -20.5l135 -37l-14 -61h-635zM631 703q86 0 149.5 27.5t105.5 74t62.5 107.5t20.5 129q0 57 -16 100t-49 71.5t-83.5 43t-119.5 14.5h-50l-124 -557q7 -2 21.5 -3.5t31 -3t31 -2.5
t20.5 -1zM796 1485q-45 0 -77.5 20t-52.5 60l-142 288l51 35l241 -230l329 232l51 -36l-247 -289q-33 -39 -70.5 -59.5t-82.5 -20.5z" />
    <glyph glyph-name="uni0156" unicode="&#x156;" horiz-adv-x="1370" 
d="M-61 61l125 37q20 6 37.5 21.5t22.5 37.5l236 1064q5 23 -4.5 39t-29.5 21l-129 36l12 61h614q136 0 224 -28t138.5 -73t70 -101.5t19.5 -113.5q0 -62 -17 -114t-46 -94.5t-67.5 -75t-82 -57t-89.5 -40t-90 -23.5l264 -491q11 -21 33 -42t42 -27l129 -37l-13 -61h-299
q-42 0 -69.5 6t-47 20.5t-34.5 38.5t-33 60l-231 459l-120 32l-100 -459q-5 -23 5 -38.5t30 -20.5l135 -37l-14 -61h-635zM631 703q86 0 149.5 27.5t105.5 74t62.5 107.5t20.5 129q0 57 -16 100t-49 71.5t-83.5 43t-119.5 14.5h-50l-124 -557q7 -2 21.5 -3.5t31 -3t31 -2.5
t20.5 -1zM539 -440q29 21 49 39t34 34.5t23.5 32t18.5 33.5q-25 16 -40.5 26.5t-24.5 20.5t-12.5 21.5t-3.5 29.5q0 22 11 42t29.5 35t42.5 23.5t51 8.5q36 0 58 -10.5t34.5 -26t16.5 -33t4 -31.5q0 -65 -26.5 -112t-65 -81.5t-82.5 -58.5t-80 -42z" />
    <glyph glyph-name="Sacute" unicode="&#x15a;" horiz-adv-x="1175" 
d="M464 -31q-57 0 -119 7t-124.5 19t-123 28.5t-114.5 35.5l63 390h67l45 -199q3 -14 11.5 -26.5t22.5 -23.5q30 -25 76.5 -45.5t95.5 -35.5t93.5 -23t71.5 -8q54 0 105.5 16t91 47.5t64 77t24.5 105.5q0 42 -14 73t-37.5 55t-54.5 42.5t-64 35.5q-57 29 -114.5 56
t-115.5 55q-53 25 -94 56.5t-69.5 71.5t-43.5 89t-15 109q0 71 23 131t63 107.5t93 83.5t114 60.5t125.5 36.5t127.5 12q58 0 115 -5.5t113 -15.5t111.5 -24t111.5 -30l-72 -357h-67l-38 185q-6 26 -33 47q-25 19 -61.5 34.5t-75 26t-74 16t-56.5 5.5q-51 0 -95.5 -18.5
t-77 -51t-51 -76.5t-18.5 -96q0 -42 15 -73t40 -54t57 -41t66 -34q57 -28 115 -54.5t115 -55.5q52 -27 93 -58t69 -70t42.5 -87.5t14.5 -109.5q0 -82 -28 -146.5t-75 -113.5t-110 -83.5t-133.5 -56.5t-144 -32t-142.5 -10zM524 1524q54 72 106 143t106 143q17 22 33.5 39
t34.5 27.5t40 16t51 5.5q19 0 37.5 -5.5t33 -16.5t23.5 -27t9 -37q0 -22 -7.5 -39.5t-19.5 -31.5t-28 -26t-32 -22q-85 -53 -168 -104.5t-167 -102.5z" />
    <glyph glyph-name="Scircumflex" unicode="&#x15c;" horiz-adv-x="1175" 
d="M464 -31q-57 0 -119 7t-124.5 19t-123 28.5t-114.5 35.5l63 390h67l45 -199q3 -14 11.5 -26.5t22.5 -23.5q30 -25 76.5 -45.5t95.5 -35.5t93.5 -23t71.5 -8q54 0 105.5 16t91 47.5t64 77t24.5 105.5q0 42 -14 73t-37.5 55t-54.5 42.5t-64 35.5q-57 29 -114.5 56
t-115.5 55q-53 25 -94 56.5t-69.5 71.5t-43.5 89t-15 109q0 71 23 131t63 107.5t93 83.5t114 60.5t125.5 36.5t127.5 12q58 0 115 -5.5t113 -15.5t111.5 -24t111.5 -30l-72 -357h-67l-38 185q-6 26 -33 47q-25 19 -61.5 34.5t-75 26t-74 16t-56.5 5.5q-51 0 -95.5 -18.5
t-77 -51t-51 -76.5t-18.5 -96q0 -42 15 -73t40 -54t57 -41t66 -34q57 -28 115 -54.5t115 -55.5q52 -27 93 -58t69 -70t42.5 -87.5t14.5 -109.5q0 -82 -28 -146.5t-75 -113.5t-110 -83.5t-133.5 -56.5t-144 -32t-142.5 -10zM437 1518l246 289q34 39 71.5 59.5t82.5 20.5
t77 -20t52 -60l143 -288l-52 -35l-240 230l-329 -232z" />
    <glyph glyph-name="Scaron" unicode="&#x160;" horiz-adv-x="1175" 
d="M464 -31q-57 0 -119 7t-124.5 19t-123 28.5t-114.5 35.5l63 390h67l45 -199q3 -14 11.5 -26.5t22.5 -23.5q30 -25 76.5 -45.5t95.5 -35.5t93.5 -23t71.5 -8q54 0 105.5 16t91 47.5t64 77t24.5 105.5q0 42 -14 73t-37.5 55t-54.5 42.5t-64 35.5q-57 29 -114.5 56
t-115.5 55q-53 25 -94 56.5t-69.5 71.5t-43.5 89t-15 109q0 71 23 131t63 107.5t93 83.5t114 60.5t125.5 36.5t127.5 12q58 0 115 -5.5t113 -15.5t111.5 -24t111.5 -30l-72 -357h-67l-38 185q-6 26 -33 47q-25 19 -61.5 34.5t-75 26t-74 16t-56.5 5.5q-51 0 -95.5 -18.5
t-77 -51t-51 -76.5t-18.5 -96q0 -42 15 -73t40 -54t57 -41t66 -34q57 -28 115 -54.5t115 -55.5q52 -27 93 -58t69 -70t42.5 -87.5t14.5 -109.5q0 -82 -28 -146.5t-75 -113.5t-110 -83.5t-133.5 -56.5t-144 -32t-142.5 -10zM761 1485q-45 0 -77.5 20t-52.5 60l-142 288l51 35
l241 -230l329 232l51 -36l-247 -289q-33 -39 -70.5 -59.5t-82.5 -20.5z" />
    <glyph glyph-name="Scedilla" unicode="&#x15e;" horiz-adv-x="1175" 
d="M395 -447q-48 0 -96.5 12.5t-90.5 37.5l25 91h23q31 -23 69 -36t76 -13q22 0 42.5 5t36.5 16.5t25.5 29t9.5 42.5q0 23 -14.5 36t-35 19t-43.5 7.5t-39 1.5l48 168q-54 2 -112 9.5t-116 19t-114 27t-106 33.5l63 390h67l45 -199q6 -28 34 -50q30 -25 76.5 -45.5
t95.5 -35.5t93.5 -23t71.5 -8q54 0 105.5 16t91 47.5t64 77t24.5 105.5q0 42 -14 73t-37.5 55t-54.5 42.5t-64 35.5q-57 29 -114.5 56t-115.5 55q-105 49 -163.5 127.5t-58.5 198.5q0 71 23 131t63 107.5t93 83.5t114 60.5t125.5 36.5t127.5 12q118 0 228 -21.5t223 -53.5
l-72 -357h-67l-38 185q-6 26 -33 47q-25 19 -62 34.5t-75 26t-73 16t-57 5.5q-51 0 -95.5 -18.5t-77 -51t-51 -76.5t-18.5 -96q0 -42 15 -73t40 -54t57 -41t66 -34q57 -28 115 -54.5t115 -55.5q52 -27 93 -58t69 -70t42.5 -87.5t14.5 -109.5q0 -77 -24.5 -138.5t-67 -109
t-99.5 -82.5t-121.5 -58t-133.5 -36t-135 -16l-20 -64q32 0 65 -7.5t59.5 -23.5t43.5 -42.5t17 -63.5q0 -59 -25.5 -100t-66.5 -67t-92 -38t-102 -12z" />
    <glyph glyph-name="uni0218" unicode="&#x218;" horiz-adv-x="1175" 
d="M464 -31q-57 0 -119 7t-124.5 19t-123 28.5t-114.5 35.5l63 390h67l45 -199q3 -14 11.5 -26.5t22.5 -23.5q30 -25 76.5 -45.5t95.5 -35.5t93.5 -23t71.5 -8q54 0 105.5 16t91 47.5t64 77t24.5 105.5q0 42 -14 73t-37.5 55t-54.5 42.5t-64 35.5q-57 29 -114.5 56
t-115.5 55q-53 25 -94 56.5t-69.5 71.5t-43.5 89t-15 109q0 71 23 131t63 107.5t93 83.5t114 60.5t125.5 36.5t127.5 12q58 0 115 -5.5t113 -15.5t111.5 -24t111.5 -30l-72 -357h-67l-38 185q-6 26 -33 47q-25 19 -61.5 34.5t-75 26t-74 16t-56.5 5.5q-51 0 -95.5 -18.5
t-77 -51t-51 -76.5t-18.5 -96q0 -42 15 -73t40 -54t57 -41t66 -34q57 -28 115 -54.5t115 -55.5q52 -27 93 -58t69 -70t42.5 -87.5t14.5 -109.5q0 -82 -28 -146.5t-75 -113.5t-110 -83.5t-133.5 -56.5t-144 -32t-142.5 -10zM317 -440q29 21 49 39t34 34.5t23.5 32t18.5 33.5
q-25 16 -40.5 26.5t-24.5 20.5t-12.5 21.5t-3.5 29.5q0 22 11 42t29.5 35t42.5 23.5t51 8.5q36 0 58 -10.5t34.5 -26t16.5 -33t4 -31.5q0 -65 -26.5 -112t-65 -81.5t-82.5 -58.5t-80 -42z" />
    <glyph glyph-name="Tcaron" unicode="&#x164;" horiz-adv-x="1273" 
d="M203 60l145 37q23 6 39 21.5t21 37.5l246 1112h-288q-20 0 -30.5 -10t-19.5 -25l-133 -221h-67l83 366h1223l-83 -366h-67l-31 221q-2 15 -8.5 25t-25.5 10h-273l-246 -1112q-5 -23 6 -38.5t29 -20.5l149 -37l-14 -60h-669zM852 1485q-45 0 -77.5 20t-52.5 60l-142 288
l51 35l241 -230l329 232l51 -36l-247 -289q-33 -39 -70.5 -59.5t-82.5 -20.5z" />
    <glyph glyph-name="uni0162" unicode="&#x162;" horiz-adv-x="1273" 
d="M434 -447q-48 0 -96.5 12.5t-90.5 37.5l25 91h23q31 -23 69 -36t76 -13q22 0 42.5 5t36.5 16.5t25.5 29t9.5 42.5q0 23 -14.5 36t-35 19t-43.5 7.5t-39 1.5l57 198h-290l14 60l145 37q49 13 60 59l246 1112h-288q-20 0 -30.5 -10t-19.5 -25l-133 -221h-67l83 366h1223
l-83 -366h-67l-31 221q-2 15 -8.5 25t-25.5 10h-273l-246 -1112q-5 -23 6 -38.5t29 -20.5l149 -37l-14 -60h-293l-30 -93q32 0 65 -7.5t59.5 -23.5t43.5 -42.5t17 -63.5q0 -59 -25.5 -100t-66.5 -67t-92 -38t-102 -12z" />
    <glyph glyph-name="uni021A" unicode="&#x21a;" horiz-adv-x="1273" 
d="M203 60l145 37q23 6 39 21.5t21 37.5l246 1112h-288q-20 0 -30.5 -10t-19.5 -25l-133 -221h-67l83 366h1223l-83 -366h-67l-31 221q-2 15 -8.5 25t-25.5 10h-273l-246 -1112q-5 -23 6 -38.5t29 -20.5l149 -37l-14 -60h-669zM345 -440q29 21 49 39t34 34.5t23.5 32
t18.5 33.5q-25 16 -40.5 26.5t-24.5 20.5t-12.5 21.5t-3.5 29.5q0 22 11 42t29.5 35t42.5 23.5t51 8.5q36 0 58 -10.5t34.5 -26t16.5 -33t4 -31.5q0 -65 -26.5 -112t-65 -81.5t-82.5 -58.5t-80 -42z" />
    <glyph glyph-name="Tbar" unicode="&#x166;" horiz-adv-x="1273" 
d="M203 60l145 37q23 6 39 21.5t21 37.5l116 524h-275l22 110h277l106 478h-288q-20 0 -30.5 -10t-19.5 -25l-133 -221h-67l83 366h1223l-83 -366h-67l-31 221q-2 15 -8.5 25t-25.5 10h-273l-106 -478h279l-22 -110h-281l-116 -524q-5 -23 6 -38.5t29 -20.5l149 -37l-14 -60
h-669z" />
    <glyph glyph-name="Ugrave" unicode="&#xd9;" horiz-adv-x="1419" 
d="M604 -31q-115 0 -201 28t-143.5 75t-86 110t-28.5 133q0 9 1 25t3.5 34t5 35.5t5.5 29.5l173 782q5 23 -4.5 39t-29.5 21l-129 36l13 61h628l-13 -61l-124 -36q-22 -6 -39 -21t-22 -39l-168 -765q-3 -14 -5.5 -31.5t-4.5 -34.5t-3 -32.5t-1 -25.5q0 -41 11 -81t40 -72
t79 -52t128 -20q97 0 165.5 33.5t114 85.5t71.5 115t39 122l167 752q5 22 -3.5 36.5t-30.5 22.5l-128 43l14 61h485l-14 -61l-126 -43q-23 -8 -39.5 -22.5t-21.5 -36.5l-169 -759q-22 -97 -60.5 -171t-88.5 -128.5t-107.5 -90.5t-118 -57.5t-120.5 -30.5t-114 -9zM1006 1486
q-39 25 -78.5 49.5t-78.5 49t-77.5 50t-76.5 54.5q-30 22 -54 47.5t-24 64.5q0 23 9.5 41t25 30.5t36 19t41.5 6.5q28 0 49 -4.5t37.5 -14.5t31 -26t29.5 -39q23 -36 45.5 -71.5t45 -71.5t46 -72.5t48.5 -74.5l-55 -38v0z" />
    <glyph glyph-name="Uacute" unicode="&#xda;" horiz-adv-x="1419" 
d="M604 -31q-115 0 -201 28t-143.5 75t-86 110t-28.5 133q0 9 1 25t3.5 34t5 35.5t5.5 29.5l173 782q5 23 -4.5 39t-29.5 21l-129 36l13 61h628l-13 -61l-124 -36q-22 -6 -39 -21t-22 -39l-168 -765q-3 -14 -5.5 -31.5t-4.5 -34.5t-3 -32.5t-1 -25.5q0 -41 11 -81t40 -72
t79 -52t128 -20q97 0 165.5 33.5t114 85.5t71.5 115t39 122l167 752q5 22 -3.5 36.5t-30.5 22.5l-128 43l14 61h485l-14 -61l-126 -43q-23 -8 -39.5 -22.5t-21.5 -36.5l-169 -759q-22 -97 -60.5 -171t-88.5 -128.5t-107.5 -90.5t-118 -57.5t-120.5 -30.5t-114 -9zM714 1524
q54 72 106 143t106 143q17 22 33.5 39t34.5 27.5t40 16t51 5.5q19 0 37.5 -5.5t33 -16.5t23.5 -27t9 -37q0 -22 -7.5 -39.5t-19.5 -31.5t-28 -26t-32 -22q-85 -53 -168 -104.5t-167 -102.5z" />
    <glyph glyph-name="Ucircumflex" unicode="&#xdb;" horiz-adv-x="1419" 
d="M604 -31q-115 0 -201 28t-143.5 75t-86 110t-28.5 133q0 9 1 25t3.5 34t5 35.5t5.5 29.5l173 782q5 23 -4.5 39t-29.5 21l-129 36l13 61h628l-13 -61l-124 -36q-22 -6 -39 -21t-22 -39l-168 -765q-3 -14 -5.5 -31.5t-4.5 -34.5t-3 -32.5t-1 -25.5q0 -41 11 -81t40 -72
t79 -52t128 -20q97 0 165.5 33.5t114 85.5t71.5 115t39 122l167 752q5 22 -3.5 36.5t-30.5 22.5l-128 43l14 61h485l-14 -61l-126 -43q-23 -8 -39.5 -22.5t-21.5 -36.5l-169 -759q-22 -97 -60.5 -171t-88.5 -128.5t-107.5 -90.5t-118 -57.5t-120.5 -30.5t-114 -9zM586 1518
l246 289q34 39 71.5 59.5t82.5 20.5t77 -20t52 -60l143 -288l-52 -35l-240 230l-329 -232z" />
    <glyph glyph-name="Utilde" unicode="&#x168;" horiz-adv-x="1419" 
d="M604 -31q-115 0 -201 28t-143.5 75t-86 110t-28.5 133q0 9 1 25t3.5 34t5 35.5t5.5 29.5l173 782q5 23 -4.5 39t-29.5 21l-129 36l13 61h628l-13 -61l-124 -36q-22 -6 -39 -21t-22 -39l-168 -765q-3 -14 -5.5 -31.5t-4.5 -34.5t-3 -32.5t-1 -25.5q0 -41 11 -81t40 -72
t79 -52t128 -20q97 0 165.5 33.5t114 85.5t71.5 115t39 122l167 752q5 22 -3.5 36.5t-30.5 22.5l-128 43l14 61h485l-14 -61l-126 -43q-23 -8 -39.5 -22.5t-21.5 -36.5l-169 -759q-22 -97 -60.5 -171t-88.5 -128.5t-107.5 -90.5t-118 -57.5t-120.5 -30.5t-114 -9zM573 1542
q16 60 43 110t62.5 86t78 56t89.5 20q32 0 65 -12.5t78 -37.5q45 -26 74.5 -35.5t46.5 -9.5q55 0 82 29t45 80h74q-15 -59 -41 -109t-60.5 -86t-76.5 -56t-90 -20q-17 0 -31 2t-29.5 8t-34 16t-45.5 26q-43 26 -74 36t-49 10q-56 0 -85.5 -30.5t-47.5 -82.5h-74v0z" />
    <glyph glyph-name="Udieresis" unicode="&#xdc;" horiz-adv-x="1419" 
d="M604 -31q-115 0 -201 28t-143.5 75t-86 110t-28.5 133q0 9 1 25t3.5 34t5 35.5t5.5 29.5l173 782q5 23 -4.5 39t-29.5 21l-129 36l13 61h628l-13 -61l-124 -36q-22 -6 -39 -21t-22 -39l-168 -765q-3 -14 -5.5 -31.5t-4.5 -34.5t-3 -32.5t-1 -25.5q0 -41 11 -81t40 -72
t79 -52t128 -20q97 0 165.5 33.5t114 85.5t71.5 115t39 122l167 752q5 22 -3.5 36.5t-30.5 22.5l-128 43l14 61h485l-14 -61l-126 -43q-23 -8 -39.5 -22.5t-21.5 -36.5l-169 -759q-22 -97 -60.5 -171t-88.5 -128.5t-107.5 -90.5t-118 -57.5t-120.5 -30.5t-114 -9zM716 1538
q-27 0 -51 10t-42 28t-28 42t-10 52t10 52t28 42t42 28t51 10q28 0 52.5 -10t43 -28t29 -42t10.5 -52t-10.5 -52t-29 -42t-43 -28t-52.5 -10zM1156 1538q-27 0 -51 10t-42 28t-28 42t-10 52t10 52t28 42t42 28t51 10q28 0 52.5 -10t43 -28t29 -42t10.5 -52t-10.5 -52
t-29 -42t-43 -28t-52.5 -10z" />
    <glyph glyph-name="Umacron" unicode="&#x16a;" horiz-adv-x="1419" 
d="M604 -31q-115 0 -201 28t-143.5 75t-86 110t-28.5 133q0 9 1 25t3.5 34t5 35.5t5.5 29.5l173 782q5 23 -4.5 39t-29.5 21l-129 36l13 61h628l-13 -61l-124 -36q-22 -6 -39 -21t-22 -39l-168 -765q-3 -14 -5.5 -31.5t-4.5 -34.5t-3 -32.5t-1 -25.5q0 -41 11 -81t40 -72
t79 -52t128 -20q97 0 165.5 33.5t114 85.5t71.5 115t39 122l167 752q5 22 -3.5 36.5t-30.5 22.5l-128 43l14 61h485l-14 -61l-126 -43q-23 -8 -39.5 -22.5t-21.5 -36.5l-169 -759q-22 -97 -60.5 -171t-88.5 -128.5t-107.5 -90.5t-118 -57.5t-120.5 -30.5t-114 -9zM644 1726
h624l-35 -143h-624z" />
    <glyph glyph-name="Ubreve" unicode="&#x16c;" horiz-adv-x="1419" 
d="M604 -31q-115 0 -201 28t-143.5 75t-86 110t-28.5 133q0 9 1 25t3.5 34t5 35.5t5.5 29.5l173 782q5 23 -4.5 39t-29.5 21l-129 36l13 61h628l-13 -61l-124 -36q-22 -6 -39 -21t-22 -39l-168 -765q-3 -14 -5.5 -31.5t-4.5 -34.5t-3 -32.5t-1 -25.5q0 -41 11 -81t40 -72
t79 -52t128 -20q97 0 165.5 33.5t114 85.5t71.5 115t39 122l167 752q5 22 -3.5 36.5t-30.5 22.5l-128 43l14 61h485l-14 -61l-126 -43q-23 -8 -39.5 -22.5t-21.5 -36.5l-169 -759q-22 -97 -60.5 -171t-88.5 -128.5t-107.5 -90.5t-118 -57.5t-120.5 -30.5t-114 -9zM963 1512
q-55 0 -104 16.5t-85.5 56t-57 104.5t-17.5 163l86 17q7 -55 19.5 -92.5t35.5 -60.5t58.5 -33t88.5 -10q51 0 89 9.5t68 32.5t55 60.5t51 93.5l86 -17q-31 -98 -71.5 -163.5t-88.5 -104.5t-102 -55.5t-111 -16.5z" />
    <glyph glyph-name="Uring" unicode="&#x16e;" horiz-adv-x="1419" 
d="M604 -31q-115 0 -201 28t-143.5 75t-86 110t-28.5 133q0 9 1 25t3.5 34t5 35.5t5.5 29.5l173 782q5 23 -4.5 39t-29.5 21l-129 36l13 61h628l-13 -61l-124 -36q-22 -6 -39 -21t-22 -39l-168 -765q-3 -14 -5.5 -31.5t-4.5 -34.5t-3 -32.5t-1 -25.5q0 -41 11 -81t40 -72
t79 -52t128 -20q97 0 165.5 33.5t114 85.5t71.5 115t39 122l167 752q5 22 -3.5 36.5t-30.5 22.5l-128 43l14 61h485l-14 -61l-126 -43q-23 -8 -39.5 -22.5t-21.5 -36.5l-169 -759q-22 -97 -60.5 -171t-88.5 -128.5t-107.5 -90.5t-118 -57.5t-120.5 -30.5t-114 -9zM943 1542
q33 0 55 17.5t35.5 43.5t19.5 57t6 57q0 19 -4 40t-14 38t-25.5 28t-39.5 11q-34 0 -57 -17.5t-37 -43.5t-20 -57.5t-6 -58.5q0 -21 4.5 -41.5t15 -37t27 -26.5t40.5 -10zM920 1481q-39 0 -75 9.5t-63.5 30t-43.5 51.5t-16 75q0 57 22.5 103t61 78.5t88.5 49.5t105 17
q39 0 74 -10t61.5 -30t42 -51.5t15.5 -73.5q0 -56 -22.5 -102t-60 -78.5t-86.5 -50.5t-103 -18z" />
    <glyph glyph-name="Uhungarumlaut" unicode="&#x170;" horiz-adv-x="1419" 
d="M604 -31q-115 0 -201 28t-143.5 75t-86 110t-28.5 133q0 9 1 25t3.5 34t5 35.5t5.5 29.5l173 782q5 23 -4.5 39t-29.5 21l-129 36l13 61h628l-13 -61l-124 -36q-22 -6 -39 -21t-22 -39l-168 -765q-3 -14 -5.5 -31.5t-4.5 -34.5t-3 -32.5t-1 -25.5q0 -41 11 -81t40 -72
t79 -52t128 -20q97 0 165.5 33.5t114 85.5t71.5 115t39 122l167 752q5 22 -3.5 36.5t-30.5 22.5l-128 43l14 61h485l-14 -61l-126 -43q-23 -8 -39.5 -22.5t-21.5 -36.5l-169 -759q-22 -97 -60.5 -171t-88.5 -128.5t-107.5 -90.5t-118 -57.5t-120.5 -30.5t-114 -9zM736 1524
l167 298q17 29 32.5 47t31.5 28t33 13.5t37 3.5q21 0 38 -7.5t29.5 -20t19 -29t6.5 -34.5q0 -21 -4 -36.5t-12.5 -29t-22.5 -27.5t-34 -31l-268 -213zM1099 1524l167 298q17 29 32.5 47t31.5 28t33 13.5t37 3.5q42 0 67.5 -27t25.5 -64q0 -21 -4 -36.5t-12.5 -29
t-22.5 -27.5t-34 -31l-268 -213z" />
    <glyph glyph-name="uni1EE6" unicode="&#x1ee6;" horiz-adv-x="1419" 
d="M604 -31q-115 0 -201 28t-143.5 75t-86 110t-28.5 133q0 9 1 25t3.5 34t5 35.5t5.5 29.5l173 782q5 23 -4.5 39t-29.5 21l-129 36l13 61h628l-13 -61l-124 -36q-22 -6 -39 -21t-22 -39l-168 -765q-3 -14 -5.5 -31.5t-4.5 -34.5t-3 -32.5t-1 -25.5q0 -41 11 -81t40 -72
t79 -52t128 -20q97 0 165.5 33.5t114 85.5t71.5 115t39 122l167 752q5 22 -3.5 36.5t-30.5 22.5l-128 43l14 61h485l-14 -61l-126 -43q-23 -8 -39.5 -22.5t-21.5 -36.5l-169 -759q-22 -97 -60.5 -171t-88.5 -128.5t-107.5 -90.5t-118 -57.5t-120.5 -30.5t-114 -9zM1049 1968
q49 0 87 -9t63.5 -25t39 -39t13.5 -50q0 -40 -14 -70t-35.5 -54.5t-47.5 -46.5t-50.5 -44.5t-43 -49.5t-26.5 -61l-6 -31h-151l8 39q8 37 25.5 65t39 51t44.5 42.5t42 40t31 43.5t12 52q0 8 -3 17.5t-11.5 17.5t-22.5 13.5t-36 5.5q-23 0 -43 -6t-37 -15t-32 -21t-29 -24
h-47l23 109q13 6 33 14.5t46.5 16.5t58.5 13.5t69 5.5v0z" />
    <glyph glyph-name="Uogonek" unicode="&#x172;" horiz-adv-x="1419" 
d="M732 -444q-36 0 -74 9t-68.5 28.5t-50 50t-19.5 73.5q0 40 16.5 77t44 69.5t62.5 61t72 53.5q-57 -9 -111 -9q-115 0 -201 28t-143.5 75t-86 110t-28.5 133q0 9 1 25t3.5 34t5 35.5t5.5 29.5l173 782q5 23 -4.5 39t-29.5 21l-129 36l13 61h628l-13 -61l-124 -36
q-22 -6 -39 -21t-22 -39l-168 -765q-3 -14 -5.5 -31.5t-4.5 -34.5t-3 -32.5t-1 -25.5q0 -41 11 -81t40 -72t79 -52t128 -20q98 0 166 33.5t113.5 85.5t71.5 115t39 122l167 752q5 23 -3.5 37t-30.5 22l-128 43l14 61h485l-14 -61l-126 -43q-23 -8 -39.5 -22.5t-21.5 -36.5
l-169 -759q-20 -89 -53.5 -158t-77 -121.5t-95 -89.5t-105.5 -61q-34 -24 -65.5 -54t-56 -65t-39 -74.5t-14.5 -81.5q0 -45 25 -66.5t69 -21.5q23 0 48 6t45 16h31l-16 -89q-18 -7 -40.5 -14t-46.5 -13t-47.5 -9.5t-42.5 -3.5z" />
    <glyph glyph-name="uni1EE4" unicode="&#x1ee4;" horiz-adv-x="1419" 
d="M604 -31q-115 0 -201 28t-143.5 75t-86 110t-28.5 133q0 9 1 25t3.5 34t5 35.5t5.5 29.5l173 782q5 23 -4.5 39t-29.5 21l-129 36l13 61h628l-13 -61l-124 -36q-22 -6 -39 -21t-22 -39l-168 -765q-3 -14 -5.5 -31.5t-4.5 -34.5t-3 -32.5t-1 -25.5q0 -41 11 -81t40 -72
t79 -52t128 -20q97 0 165.5 33.5t114 85.5t71.5 115t39 122l167 752q5 22 -3.5 36.5t-30.5 22.5l-128 43l14 61h485l-14 -61l-126 -43q-23 -8 -39.5 -22.5t-21.5 -36.5l-169 -759q-22 -97 -60.5 -171t-88.5 -128.5t-107.5 -90.5t-118 -57.5t-120.5 -30.5t-114 -9zM590 -449
q-35 0 -65 12.5t-52 34t-35 51t-13 63.5q0 33 13 62t35 50.5t52 34t65 12.5t65.5 -12.5t53.5 -34t36 -50.5t13 -62q0 -34 -13 -63.5t-36 -51t-53.5 -34t-65.5 -12.5z" />
    <glyph glyph-name="Uhorn" unicode="&#x1af;" horiz-adv-x="1797" 
d="M1635 1378h201q6 -22 9.5 -37.5t3.5 -36.5q1 -67 -25 -116.5t-68.5 -85.5t-97.5 -59t-113.5 -37t-114.5 -19.5t-101 -6.5l-116 -524q-22 -97 -60.5 -171t-88.5 -128.5t-107.5 -90.5t-118 -57.5t-120.5 -30.5t-114 -9q-115 0 -201 28t-143.5 75t-86 110t-28.5 133
q0 9 1 25t3.5 34t5 35.5t5.5 29.5l173 782q5 23 -4.5 39t-29.5 21l-129 36l13 61h628l-13 -61l-124 -36q-22 -6 -39 -21t-22 -39l-168 -765q-3 -14 -5.5 -31.5t-4.5 -34.5t-3 -32.5t-1 -25.5q0 -41 11 -81t40 -72t79 -52t128 -20q97 0 165.5 33.5t114 85.5t71.5 115t39 122
l167 752q5 22 -3.5 36.5t-30.5 22.5l-128 43l14 61h445l-14 -61l-90 -39q-23 -10 -37.5 -25.5t-19.5 -37.5l-33 -148q55 4 107 15t92 35.5t64.5 66t24.5 107.5q0 9 -2 28.5t-5 29.5z" />
    <glyph glyph-name="uni1EE8" unicode="&#x1ee8;" horiz-adv-x="1797" 
d="M1635 1378h201q6 -22 9.5 -37.5t3.5 -36.5q1 -67 -25 -116.5t-68.5 -85.5t-97.5 -59t-113.5 -37t-114.5 -19.5t-101 -6.5l-116 -524q-22 -97 -60.5 -171t-88.5 -128.5t-107.5 -90.5t-118 -57.5t-120.5 -30.5t-114 -9q-115 0 -201 28t-143.5 75t-86 110t-28.5 133
q0 9 1 25t3.5 34t5 35.5t5.5 29.5l173 782q5 23 -4.5 39t-29.5 21l-129 36l13 61h628l-13 -61l-124 -36q-22 -6 -39 -21t-22 -39l-168 -765q-3 -14 -5.5 -31.5t-4.5 -34.5t-3 -32.5t-1 -25.5q0 -41 11 -81t40 -72t79 -52t128 -20q97 0 165.5 33.5t114 85.5t71.5 115t39 122
l167 752q5 22 -3.5 36.5t-30.5 22.5l-128 43l14 61h445l-14 -61l-90 -39q-23 -10 -37.5 -25.5t-19.5 -37.5l-33 -148q55 4 107 15t92 35.5t64.5 66t24.5 107.5q0 9 -2 28.5t-5 29.5zM714 1524q54 72 106 143t106 143q17 22 33.5 39t34.5 27.5t40 16t51 5.5q19 0 37.5 -5.5
t33 -16.5t23.5 -27t9 -37q0 -22 -7.5 -39.5t-19.5 -31.5t-28 -26t-32 -22q-85 -53 -168 -104.5t-167 -102.5z" />
    <glyph glyph-name="uni1EEA" unicode="&#x1eea;" horiz-adv-x="1797" 
d="M1635 1378h201q6 -22 9.5 -37.5t3.5 -36.5q1 -67 -25 -116.5t-68.5 -85.5t-97.5 -59t-113.5 -37t-114.5 -19.5t-101 -6.5l-116 -524q-22 -97 -60.5 -171t-88.5 -128.5t-107.5 -90.5t-118 -57.5t-120.5 -30.5t-114 -9q-115 0 -201 28t-143.5 75t-86 110t-28.5 133
q0 9 1 25t3.5 34t5 35.5t5.5 29.5l173 782q5 23 -4.5 39t-29.5 21l-129 36l13 61h628l-13 -61l-124 -36q-22 -6 -39 -21t-22 -39l-168 -765q-3 -14 -5.5 -31.5t-4.5 -34.5t-3 -32.5t-1 -25.5q0 -41 11 -81t40 -72t79 -52t128 -20q97 0 165.5 33.5t114 85.5t71.5 115t39 122
l167 752q5 22 -3.5 36.5t-30.5 22.5l-128 43l14 61h445l-14 -61l-90 -39q-23 -10 -37.5 -25.5t-19.5 -37.5l-33 -148q55 4 107 15t92 35.5t64.5 66t24.5 107.5q0 9 -2 28.5t-5 29.5zM1110 1486q-39 25 -78.5 49.5t-78.5 49t-77.5 50t-76.5 54.5q-30 22 -54 47.5t-24 64.5
q0 23 9.5 41t25 30.5t36 19t41.5 6.5q28 0 49 -4.5t37.5 -14.5t31 -26t29.5 -39q23 -36 45.5 -71.5t45 -71.5t46 -72.5t48.5 -74.5l-55 -38v0z" />
    <glyph glyph-name="uni1EEC" unicode="&#x1eec;" horiz-adv-x="1797" 
d="M1635 1378h201q6 -22 9.5 -37.5t3.5 -36.5q1 -67 -25 -116.5t-68.5 -85.5t-97.5 -59t-113.5 -37t-114.5 -19.5t-101 -6.5l-116 -524q-22 -97 -60.5 -171t-88.5 -128.5t-107.5 -90.5t-118 -57.5t-120.5 -30.5t-114 -9q-115 0 -201 28t-143.5 75t-86 110t-28.5 133
q0 9 1 25t3.5 34t5 35.5t5.5 29.5l173 782q5 23 -4.5 39t-29.5 21l-129 36l13 61h628l-13 -61l-124 -36q-22 -6 -39 -21t-22 -39l-168 -765q-3 -14 -5.5 -31.5t-4.5 -34.5t-3 -32.5t-1 -25.5q0 -41 11 -81t40 -72t79 -52t128 -20q97 0 165.5 33.5t114 85.5t71.5 115t39 122
l167 752q5 22 -3.5 36.5t-30.5 22.5l-128 43l14 61h445l-14 -61l-90 -39q-23 -10 -37.5 -25.5t-19.5 -37.5l-33 -148q55 4 107 15t92 35.5t64.5 66t24.5 107.5q0 9 -2 28.5t-5 29.5zM1044 1968q49 0 87 -9t63.5 -25t39 -39t13.5 -50q0 -40 -14 -70t-35.5 -54.5t-47.5 -46.5
t-50.5 -44.5t-43 -49.5t-26.5 -61l-6 -31h-151l8 39q8 37 25.5 65t39 51t44.5 42.5t42 40t31 43.5t12 52q0 8 -3 17.5t-11.5 17.5t-22.5 13.5t-36 5.5q-23 0 -43 -6t-37 -15t-32 -21t-29 -24h-47l23 109q13 6 33 14.5t46.5 16.5t58.5 13.5t69 5.5v0z" />
    <glyph glyph-name="uni1EEE" unicode="&#x1eee;" horiz-adv-x="1797" 
d="M1635 1378h201q6 -22 9.5 -37.5t3.5 -36.5q1 -67 -25 -116.5t-68.5 -85.5t-97.5 -59t-113.5 -37t-114.5 -19.5t-101 -6.5l-116 -524q-22 -97 -60.5 -171t-88.5 -128.5t-107.5 -90.5t-118 -57.5t-120.5 -30.5t-114 -9q-115 0 -201 28t-143.5 75t-86 110t-28.5 133
q0 9 1 25t3.5 34t5 35.5t5.5 29.5l173 782q5 23 -4.5 39t-29.5 21l-129 36l13 61h628l-13 -61l-124 -36q-22 -6 -39 -21t-22 -39l-168 -765q-3 -14 -5.5 -31.5t-4.5 -34.5t-3 -32.5t-1 -25.5q0 -41 11 -81t40 -72t79 -52t128 -20q97 0 165.5 33.5t114 85.5t71.5 115t39 122
l167 752q5 22 -3.5 36.5t-30.5 22.5l-128 43l14 61h445l-14 -61l-90 -39q-23 -10 -37.5 -25.5t-19.5 -37.5l-33 -148q55 4 107 15t92 35.5t64.5 66t24.5 107.5q0 9 -2 28.5t-5 29.5zM568 1542q16 60 43 110t62.5 86t78 56t89.5 20q32 0 65 -12.5t78 -37.5q45 -26 74.5 -35.5
t46.5 -9.5q55 0 82 29t45 80h74q-15 -59 -41 -109t-60.5 -86t-76.5 -56t-90 -20q-17 0 -31 2t-29.5 8t-34 16t-45.5 26q-43 26 -74 36t-49 10q-56 0 -85.5 -30.5t-47.5 -82.5h-74v0z" />
    <glyph glyph-name="uni1EF0" unicode="&#x1ef0;" horiz-adv-x="1797" 
d="M1635 1378h201q6 -22 9.5 -37.5t3.5 -36.5q1 -67 -25 -116.5t-68.5 -85.5t-97.5 -59t-113.5 -37t-114.5 -19.5t-101 -6.5l-116 -524q-22 -97 -60.5 -171t-88.5 -128.5t-107.5 -90.5t-118 -57.5t-120.5 -30.5t-114 -9q-115 0 -201 28t-143.5 75t-86 110t-28.5 133
q0 9 1 25t3.5 34t5 35.5t5.5 29.5l173 782q5 23 -4.5 39t-29.5 21l-129 36l13 61h628l-13 -61l-124 -36q-22 -6 -39 -21t-22 -39l-168 -765q-3 -14 -5.5 -31.5t-4.5 -34.5t-3 -32.5t-1 -25.5q0 -41 11 -81t40 -72t79 -52t128 -20q97 0 165.5 33.5t114 85.5t71.5 115t39 122
l167 752q5 22 -3.5 36.5t-30.5 22.5l-128 43l14 61h445l-14 -61l-90 -39q-23 -10 -37.5 -25.5t-19.5 -37.5l-33 -148q55 4 107 15t92 35.5t64.5 66t24.5 107.5q0 9 -2 28.5t-5 29.5zM590 -449q-35 0 -65 12.5t-52 34t-35 51t-13 63.5q0 33 13 62t35 50.5t52 34t65 12.5
t65.5 -12.5t53.5 -34t36 -50.5t13 -62q0 -34 -13 -63.5t-36 -51t-53.5 -34t-65.5 -12.5z" />
    <glyph glyph-name="Wgrave" unicode="&#x1e80;" horiz-adv-x="1906" 
d="M248 1225q-4 41 -47 58l-91 34l13 61h579l-13 -61l-169 -43l65 -815l7 -91v0l395 763l148 247h125l92 -920l10 -97v0l466 899l-152 57l13 61h448l-13 -61l-101 -44q-19 -8 -41 -25t-33 -37l-513 -976l-172 -247h-139l-79 784l-18 169v0l-363 -706l-174 -247h-144z
M1350 1486q-39 25 -78.5 49.5t-78.5 49t-77.5 50t-76.5 54.5q-30 22 -54 47.5t-24 64.5q0 23 9.5 41t25 30.5t36 19t41.5 6.5q28 0 49 -4.5t37.5 -14.5t31 -26t29.5 -39q23 -36 45.5 -71.5t45 -71.5t46 -72.5t48.5 -74.5l-55 -38v0z" />
    <glyph glyph-name="Wacute" unicode="&#x1e82;" horiz-adv-x="1906" 
d="M248 1225q-4 41 -47 58l-91 34l13 61h579l-13 -61l-169 -43l65 -815l7 -91v0l395 763l148 247h125l92 -920l10 -97v0l466 899l-152 57l13 61h448l-13 -61l-101 -44q-19 -8 -41 -25t-33 -37l-513 -976l-172 -247h-139l-79 784l-18 169v0l-363 -706l-174 -247h-144z
M954 1524q54 72 106 143t106 143q17 22 33.5 39t34.5 27.5t40 16t51 5.5q19 0 37.5 -5.5t33 -16.5t23.5 -27t9 -37q0 -22 -7.5 -39.5t-19.5 -31.5t-28 -26t-32 -22q-85 -53 -168 -104.5t-167 -102.5z" />
    <glyph glyph-name="Wcircumflex" unicode="&#x174;" horiz-adv-x="1906" 
d="M248 1225q-4 41 -47 58l-91 34l13 61h579l-13 -61l-169 -43l65 -815l7 -91v0l395 763l148 247h125l92 -920l10 -97v0l466 899l-152 57l13 61h448l-13 -61l-101 -44q-19 -8 -41 -25t-33 -37l-513 -976l-172 -247h-139l-79 784l-18 169v0l-363 -706l-174 -247h-144z
M867 1518l246 289q34 39 71.5 59.5t82.5 20.5t77 -20t52 -60l143 -288l-52 -35l-240 230l-329 -232z" />
    <glyph glyph-name="Wdieresis" unicode="&#x1e84;" horiz-adv-x="1906" 
d="M248 1225q-4 41 -47 58l-91 34l13 61h579l-13 -61l-169 -43l65 -815l7 -91v0l395 763l148 247h125l92 -920l10 -97v0l466 899l-152 57l13 61h448l-13 -61l-101 -44q-19 -8 -41 -25t-33 -37l-513 -976l-172 -247h-139l-79 784l-18 169v0l-363 -706l-174 -247h-144z
M974 1538q-27 0 -51 10t-42 28t-28 42t-10 52t10 52t28 42t42 28t51 10q28 0 52.5 -10t43 -28t29 -42t10.5 -52t-10.5 -52t-29 -42t-43 -28t-52.5 -10zM1414 1538q-27 0 -51 10t-42 28t-28 42t-10 52t10 52t28 42t42 28t51 10q28 0 52.5 -10t43 -28t29 -42t10.5 -52
t-10.5 -52t-29 -42t-43 -28t-52.5 -10z" />
    <glyph glyph-name="Ygrave" unicode="&#x1ef2;" horiz-adv-x="1284" 
d="M214 60l145 37q23 6 39 21.5t21 37.5l89 401l-222 664q-8 23 -20 40.5t-36 24.5l-107 31l13 61h590l-13 -61l-155 -45l151 -451l41 -130v0l449 582l-156 44l14 61h441l-14 -61l-114 -41q-17 -6 -32 -24t-29 -35l-519 -652l-91 -409q-5 -23 6 -38.5t29 -20.5l149 -37
l-14 -60h-669zM1067 1486q-39 25 -78.5 49.5t-78.5 49t-77.5 50t-76.5 54.5q-30 22 -54 47.5t-24 64.5q0 23 9.5 41t25 30.5t36 19t41.5 6.5q28 0 49 -4.5t37.5 -14.5t31 -26t29.5 -39q23 -36 45.5 -71.5t45 -71.5t46 -72.5t48.5 -74.5l-55 -38v0z" />
    <glyph glyph-name="Yacute" unicode="&#xdd;" horiz-adv-x="1284" 
d="M214 60l145 37q23 6 39 21.5t21 37.5l89 401l-222 664q-8 23 -20 40.5t-36 24.5l-107 31l13 61h590l-13 -61l-155 -45l151 -451l41 -130v0l449 582l-156 44l14 61h441l-14 -61l-114 -41q-17 -6 -32 -24t-29 -35l-519 -652l-91 -409q-5 -23 6 -38.5t29 -20.5l149 -37
l-14 -60h-669zM691 1524q54 72 106 143t106 143q17 22 33.5 39t34.5 27.5t40 16t51 5.5q19 0 37.5 -5.5t33 -16.5t23.5 -27t9 -37q0 -22 -7.5 -39.5t-19.5 -31.5t-28 -26t-32 -22q-85 -53 -168 -104.5t-167 -102.5z" />
    <glyph glyph-name="Ycircumflex" unicode="&#x176;" horiz-adv-x="1284" 
d="M214 60l145 37q23 6 39 21.5t21 37.5l89 401l-222 664q-8 23 -20 40.5t-36 24.5l-107 31l13 61h590l-13 -61l-155 -45l151 -451l41 -130v0l449 582l-156 44l14 61h441l-14 -61l-114 -41q-17 -6 -32 -24t-29 -35l-519 -652l-91 -409q-5 -23 6 -38.5t29 -20.5l149 -37
l-14 -60h-669zM584 1518l246 289q34 39 71.5 59.5t82.5 20.5t77 -20t52 -60l143 -288l-52 -35l-240 230l-329 -232z" />
    <glyph glyph-name="uni1EF8" unicode="&#x1ef8;" horiz-adv-x="1284" 
d="M214 60l145 37q23 6 39 21.5t21 37.5l89 401l-222 664q-8 23 -20 40.5t-36 24.5l-107 31l13 61h590l-13 -61l-155 -45l151 -451l41 -130v0l449 582l-156 44l14 61h441l-14 -61l-114 -41q-17 -6 -32 -24t-29 -35l-519 -652l-91 -409q-5 -23 6 -38.5t29 -20.5l149 -37
l-14 -60h-669zM525 1542q16 60 43 110t62.5 86t78 56t89.5 20q32 0 65 -12.5t78 -37.5q45 -26 74.5 -35.5t46.5 -9.5q55 0 82 29t45 80h74q-15 -59 -41 -109t-60.5 -86t-76.5 -56t-90 -20q-17 0 -31 2t-29.5 8t-34 16t-45.5 26q-43 26 -74 36t-49 10q-56 0 -85.5 -30.5
t-47.5 -82.5h-74v0z" />
    <glyph glyph-name="Ydieresis" unicode="&#x178;" horiz-adv-x="1284" 
d="M214 60l145 37q23 6 39 21.5t21 37.5l89 401l-222 664q-8 23 -20 40.5t-36 24.5l-107 31l13 61h590l-13 -61l-155 -45l151 -451l41 -130v0l449 582l-156 44l14 61h441l-14 -61l-114 -41q-17 -6 -32 -24t-29 -35l-519 -652l-91 -409q-5 -23 6 -38.5t29 -20.5l149 -37
l-14 -60h-669zM656 1538q-27 0 -51 10t-42 28t-28 42t-10 52t10 52t28 42t42 28t51 10q28 0 52.5 -10t43 -28t29 -42t10.5 -52t-10.5 -52t-29 -42t-43 -28t-52.5 -10zM1096 1538q-27 0 -51 10t-42 28t-28 42t-10 52t10 52t28 42t42 28t51 10q28 0 52.5 -10t43 -28t29 -42
t10.5 -52t-10.5 -52t-29 -42t-43 -28t-52.5 -10z" />
    <glyph glyph-name="uni1EF6" unicode="&#x1ef6;" horiz-adv-x="1284" 
d="M214 60l145 37q23 6 39 21.5t21 37.5l89 401l-222 664q-8 23 -20 40.5t-36 24.5l-107 31l13 61h590l-13 -61l-155 -45l151 -451l41 -130v0l449 582l-156 44l14 61h441l-14 -61l-114 -41q-17 -6 -32 -24t-29 -35l-519 -652l-91 -409q-5 -23 6 -38.5t29 -20.5l149 -37
l-14 -60h-669zM1001 1968q49 0 87 -9t63.5 -25t39 -39t13.5 -50q0 -40 -14 -70t-35.5 -54.5t-47.5 -46.5t-50.5 -44.5t-43 -49.5t-26.5 -61l-6 -31h-151l8 39q8 37 25.5 65t39 51t44.5 42.5t42 40t31 43.5t12 52q0 8 -3 17.5t-11.5 17.5t-22.5 13.5t-36 5.5q-23 0 -43 -6
t-37 -15t-32 -21t-29 -24h-47l23 109q13 6 33 14.5t46.5 16.5t58.5 13.5t69 5.5v0z" />
    <glyph glyph-name="uni1EF4" unicode="&#x1ef4;" horiz-adv-x="1284" 
d="M214 60l145 37q23 6 39 21.5t21 37.5l89 401l-222 664q-8 23 -20 40.5t-36 24.5l-107 31l13 61h590l-13 -61l-155 -45l151 -451l41 -130v0l449 582l-156 44l14 61h441l-14 -61l-114 -41q-17 -6 -32 -24t-29 -35l-519 -652l-91 -409q-5 -23 6 -38.5t29 -20.5l149 -37
l-14 -60h-669zM510 -449q-35 0 -65 12.5t-52 34t-35 51t-13 63.5q0 33 13 62t35 50.5t52 34t65 12.5t65.5 -12.5t53.5 -34t36 -50.5t13 -62q0 -34 -13 -63.5t-36 -51t-53.5 -34t-65.5 -12.5z" />
    <glyph glyph-name="Zacute" unicode="&#x179;" horiz-adv-x="1215" 
d="M-75 82l954 1091l91 95v0h-539q-20 0 -31 -10t-20 -25l-131 -221h-67l81 366h1073l-16 -76l-960 -1097l-88 -94v0h623q19 0 29.5 9.5t18.5 25.5l136 241h69l-86 -387h-1155zM591 1524q54 72 106 143t106 143q17 22 33.5 39t34.5 27.5t40 16t51 5.5q19 0 37.5 -5.5
t33 -16.5t23.5 -27t9 -37q0 -22 -7.5 -39.5t-19.5 -31.5t-28 -26t-32 -22q-85 -53 -168 -104.5t-167 -102.5z" />
    <glyph glyph-name="Zcaron" unicode="&#x17d;" horiz-adv-x="1215" 
d="M-75 82l954 1091l91 95v0h-539q-20 0 -31 -10t-20 -25l-131 -221h-67l81 366h1073l-16 -76l-960 -1097l-88 -94v0h623q19 0 29.5 9.5t18.5 25.5l136 241h69l-86 -387h-1155zM788 1485q-45 0 -77.5 20t-52.5 60l-142 288l51 35l241 -230l329 232l51 -36l-247 -289
q-33 -39 -70.5 -59.5t-82.5 -20.5z" />
    <glyph glyph-name="Zdotaccent" unicode="&#x17b;" horiz-adv-x="1215" 
d="M-75 82l954 1091l91 95v0h-539q-20 0 -31 -10t-20 -25l-131 -221h-67l81 366h1073l-16 -76l-960 -1097l-88 -94v0h623q19 0 29.5 9.5t18.5 25.5l136 241h69l-86 -387h-1155zM836 1600q-35 0 -64.5 12t-51.5 33.5t-34.5 50.5t-12.5 63q0 33 12.5 61.5t34.5 49.5t51.5 33.5
t64.5 12.5q34 0 64.5 -12.5t53 -33.5t35.5 -49.5t13 -61.5q0 -34 -13 -63t-35.5 -50.5t-53 -33.5t-64.5 -12z" />
    <glyph glyph-name="Eng" unicode="&#x14a;" horiz-adv-x="1478" 
d="M634 -453q-18 0 -43.5 2.5t-52.5 8t-52 13t-41 17.5l87 193h29q21 -9 51 -20.5t62.5 -21t64.5 -16t56 -6.5q7 0 20 0.5t30.5 6.5t38 20.5t42.5 43.5q10 13 19.5 35.5t18.5 50t17 57.5t16 59l-458 941l-72 154v0l-205 -922q-5 -22 3.5 -36.5t30.5 -22.5l130 -43l-14 -61
h-486l14 61l126 43q22 8 38.5 23t21.5 36l233 1054q5 23 -5.5 38.5t-28.5 20.5l-138 41l14 61h425l413 -847l64 -137v0l182 821q5 23 -3.5 37.5t-30.5 21.5l-135 43l14 61h487l-14 -61l-121 -43q-23 -8 -40 -22.5t-22 -36.5q-63 -281 -114 -513q-22 -99 -43.5 -197
t-39.5 -180t-31.5 -140.5t-17.5 -79.5q-31 -140 -81.5 -244.5t-119.5 -174t-154 -104.5t-185 -35z" />
    <glyph glyph-name="Eth" unicode="&#xd0;" horiz-adv-x="1426" 
d="M-64 61l128 37q23 7 39 22t21 37l112 504h-163l24 112h164l99 448q5 23 -4 38.5t-30 21.5l-129 36l13 61h611q61 0 129 -10.5t134.5 -35.5t127 -65.5t106.5 -101t73.5 -142t27.5 -187.5q0 -142 -33 -259t-91 -210t-137 -162t-172 -114.5t-195.5 -68t-206.5 -22.5h-660z
M592 109q75 0 143.5 23.5t126.5 67t104.5 105.5t79.5 139.5t50.5 168.5t17.5 193q0 108 -25 194t-72.5 146t-116 92t-154.5 32h-96l-110 -497h327l-24 -112h-328l-122 -552h199z" />
    <glyph glyph-name="Thorn" unicode="&#xde;" horiz-adv-x="1198" 
d="M-61 61l125 37q20 6 37.5 21.5t22.5 37.5l236 1064q5 23 -4.5 39t-29.5 21l-130 36l14 61h628l-13 -61l-124 -36q-22 -6 -39 -22t-22 -38l-21 -98h142q99 0 180 -21t138.5 -63t89.5 -105t32 -146q0 -110 -41 -200.5t-111.5 -155t-163.5 -100.5t-197 -36q-26 0 -55 4.5
t-59.5 13t-62 21t-62.5 28.5l-45 -206q-5 -23 5 -38.5t30 -20.5l145 -37l-14 -61h-645zM579 415q85 0 145 32t98 82.5t55.5 113.5t17.5 125q0 50 -11.5 95t-42 78.5t-83.5 53.5t-135 20h-29l-129 -584q29 -8 58 -12t56 -4z" />
    <glyph glyph-name="a" unicode="a" horiz-adv-x="1070" 
d="M267 -18q-56 0 -102 18t-78.5 50.5t-50 78.5t-17.5 102q0 68 20.5 121.5t55.5 94.5t82.5 70t102 47t113.5 26.5t117 8.5q18 0 37 -1.5t37.5 -3.5t37.5 -4.5t37 -5.5l8 36t7 36t5 36.5t2 36.5q0 69 -35.5 107t-105.5 38q-37 0 -83.5 -16.5t-94 -40.5t-91.5 -51t-75 -47
h-42l49 210q52 18 99.5 31t95 21t96.5 12t104 4t117 -10t115 -36t88 -70t35 -113q0 -19 -1.5 -38t-4 -38t-6 -37.5t-7.5 -36.5l-58 -256q-6 -24 -11.5 -47.5t-10 -47t-7 -47.5t-2.5 -48q0 -17 8 -31t20.5 -24t28.5 -15.5t32 -5.5q10 0 22.5 3t25.5 7t25.5 9t21.5 9h25v-66
q-33 -20 -68 -33.5t-71.5 -22t-74 -12.5t-74.5 -4t-71 9.5t-60.5 28.5t-43.5 48t-20 69v0q-32 -39 -64 -68.5t-68 -49.5t-78 -30.5t-94 -10.5zM404 131q54 0 98 22t77 64l65 283q-65 0 -127.5 -7.5t-111.5 -33t-78.5 -73.5t-29.5 -129q0 -26 5.5 -49t18.5 -40t33.5 -27
t49.5 -10z" />
    <glyph glyph-name="b" unicode="b" horiz-adv-x="1122" 
d="M8 -10q14 29 33.5 77.5t36.5 124.5l232 1080q5 26 -5 44t-40 30l-77 30l-1 48l440 87l-136 -624l-1.5 -6.5t-3 -14t-2.5 -13.5l-1 -6q48 53 89 83t77 45t68 18.5t62 3.5q73 0 129 -27.5t94 -76.5t58 -117t20 -148q0 -79 -16.5 -157.5t-48 -150.5t-77.5 -133.5
t-104.5 -107t-128.5 -71.5t-150 -26q-36 0 -69 8t-61.5 20.5t-51 29t-37.5 33.5l-49 -83h-279zM498 105q55 0 98 25t75.5 66t55.5 93.5t37 107.5t20.5 108.5t6.5 96.5q0 39 -7 80t-25 74.5t-49 55t-79 21.5t-91 -19t-74 -57l-134 -607q34 -23 79 -34t87 -11z" />
    <glyph glyph-name="c" unicode="c" horiz-adv-x="860" 
d="M439 -20q-87 0 -159.5 30t-125.5 83t-82.5 126t-29.5 160t20.5 170.5t61 156.5t101 132.5t140.5 100.5q54 27 111.5 42t117.5 15q36 0 76.5 -5t80 -15t76.5 -25.5t66 -37.5l-73 -178h-29q-34 22 -71 43.5t-76.5 38.5t-80.5 27.5t-83 10.5q-7 0 -15.5 -5.5t-16 -13
t-14 -15.5t-9.5 -12q-26 -35 -44.5 -82t-30.5 -98.5t-18 -103t-6 -93.5q0 -51 10 -103.5t34 -95t64.5 -69.5t102.5 -27q39 0 73.5 6.5t66.5 19t63 29.5t63 38h31l-22 -91q-42 -38 -84 -68t-87 -50t-94.5 -30.5t-107.5 -10.5z" />
    <glyph glyph-name="d" unicode="d" horiz-adv-x="1161" 
d="M343 -18q-73 0 -129 27.5t-94.5 76.5t-58 117t-19.5 148q0 79 16.5 157.5t48 150.5t77.5 133.5t104.5 107t128.5 71.5t150 26q41 0 78.5 -9.5t69 -25t55 -34.5t36.5 -37l8 53l71 328q5 26 -4.5 44.5t-40.5 29.5l-82 30l-1 48l445 87l-250 -1149q-6 -30 -12 -58t-10 -53
t-6.5 -45t-2.5 -34q0 -10 5 -23t15.5 -25t27.5 -20t41 -8q6 0 17 2t24.5 6t27.5 9t26 11h25v-66q-24 -15 -52.5 -28t-64 -22.5t-78 -15.5t-93.5 -6q-41 0 -76 10.5t-61.5 31t-42.5 50.5t-18 68v0q-45 -52 -82 -84t-72 -50t-70.5 -24t-76.5 -6zM490 146q24 0 47.5 4.5
t44.5 14t39.5 24t33.5 33.5l135 607q-34 23 -79 34t-87 11q-55 0 -98 -25t-75.5 -66t-55.5 -93.5t-37 -107.5t-20.5 -108.5t-6.5 -96.5q0 -39 6.5 -80t24.5 -74.5t49 -55t79 -21.5z" />
    <glyph glyph-name="e" unicode="e" horiz-adv-x="945" 
d="M427 -20q-59 0 -110 13.5t-93.5 39t-76 61t-56.5 80t-35 97t-12 110.5q0 85 21 164t59.5 147.5t93.5 124.5t122.5 96t146 62t165.5 22q47 0 98 -9.5t93 -32.5t69.5 -61t27.5 -96q0 -60 -21.5 -107.5t-57.5 -83.5t-83.5 -61t-100 -41t-107 -23.5t-103.5 -7.5
q-35 0 -70.5 2.5t-70.5 8.5q-3 -19 -5 -38t-2 -38q0 -56 12 -105t38.5 -86.5t69 -59t103.5 -21.5q44 0 86.5 6.5t84 19t81 31t76.5 42.5h32l-20 -90q-59 -44 -109 -75.5t-101.5 -51.5t-110.5 -29.5t-134 -9.5zM406 560q58 0 107.5 11.5t86.5 38.5t58 70.5t21 108.5
q0 49 -27.5 79t-78.5 30q-17 0 -32.5 -7.5t-29.5 -16.5q-36 -24 -64 -60.5t-49 -79t-35.5 -87.5t-23.5 -86q17 -1 33.5 -1h33.5z" />
    <glyph glyph-name="f" unicode="f" horiz-adv-x="695" 
d="M-258 -471q-18 0 -37.5 2t-41 6t-45 10.5t-49.5 15.5l80 222h27q33 -12 68 -22t69 -17t64.5 -11t54.5 -4q23 0 46 5.5t44 25.5q6 6 16 35.5t21 71t22 88.5t20 88l159 813h-164l24 105h164q17 60 34 111t39 96t50.5 85t69.5 77q54 49 104.5 85.5t103 60.5t109 36t121.5 12
q18 0 38 -2.5t41.5 -6.5t42.5 -9.5t41 -11.5l-80 -222h-27q-34 12 -67.5 21t-65 15.5t-60 10t-52.5 3.5t-47 -5.5t-44 -25.5q-6 -6 -17 -39.5t-23.5 -81t-25 -103t-22.5 -106.5h261l-29 -105h-252l-151 -784q-19 -100 -67 -188t-129 -163q-54 -50 -104.5 -86.5t-103 -60.5
t-109 -35.5t-121.5 -11.5z" />
    <glyph glyph-name="g" unicode="g" horiz-adv-x="1119" 
d="M242 -471q-57 0 -109.5 9t-106.5 23l83 225h27q34 -13 77 -23.5t85.5 -17.5t80.5 -10.5t63 -3.5q14 0 29 1t29.5 4.5t27.5 9.5t24 16q6 6 16 35.5t21 71t22 88.5t20 88l24 116q-35 -41 -67 -71t-67.5 -50t-77.5 -30t-96 -10q-79 0 -136.5 30t-95 80t-55.5 115.5
t-18 136.5q0 75 16 151t47 146.5t76 132t103.5 107t129.5 72t153 26.5q30 0 59.5 -6t57 -17.5t52 -28.5t45.5 -39l49 83h283q-24 -49 -41.5 -98.5t-28.5 -103.5l-137 -713q-11 -55 -27.5 -102.5t-40.5 -90.5t-56 -82t-72 -76q-54 -50 -106.5 -86.5t-108 -60.5t-118 -35.5
t-135.5 -11.5zM490 161q24 0 48.5 4.5t47 13.5t43 23t36.5 34l120 593q-35 23 -77 34t-84 11q-54 0 -97 -24t-75.5 -63.5t-55.5 -90.5t-37.5 -105t-21 -107t-6.5 -96q0 -39 7 -79.5t24.5 -73.5t48.5 -53.5t79 -20.5z" />
    <glyph glyph-name="h" unicode="h" horiz-adv-x="1158" 
d="M854 -14q-41 0 -76 11t-61 30.5t-41 47t-15 60.5q0 45 5.5 78.5t12.5 63.5l68 290q4 16 8 36t7 40t5 39t2 34q0 25 -6 46.5t-20.5 37.5t-38 25.5t-57.5 9.5q-21 0 -44.5 -3.5t-47.5 -12.5t-48 -25.5t-45 -41.5l-125 -566q-5 -23 -7.5 -49.5t-3.5 -52.5t-1 -48v-36h-294
l283 1272q5 26 -5 44t-40 30l-77 30l-1 48l440 87l-138 -624l-11 -50q37 39 72 69t74 50.5t84.5 30.5t103.5 10q49 0 92 -13t74.5 -40t49.5 -68.5t18 -98.5q0 -24 -3.5 -51.5t-9.5 -52.5l-73 -311q-7 -29 -12.5 -58t-9.5 -54.5t-6.5 -46t-2.5 -31.5q0 -10 5 -23t15.5 -25
t27.5 -20t41 -8q6 0 17 2t24.5 6t27.5 9t26 11h25v-66q-24 -15 -52.5 -28t-64 -22.5t-78 -15.5t-93.5 -6z" />
    <glyph glyph-name="i" unicode="i" horiz-adv-x="621" 
d="M297 -14q-41 0 -76 11t-61 30.5t-41 47t-15 60.5q0 45 5.5 78t12.5 64l108 481q5 27 -5 45t-41 29l-83 30l-1 48l445 79l-138 -627q-6 -29 -11.5 -58t-9.5 -54.5t-6.5 -46t-2.5 -31.5q0 -10 4.5 -23t15 -25t27.5 -20t41 -8q6 0 20 3t31 7.5t33.5 10.5t28.5 12h25v-66
q-24 -15 -55.5 -28.5t-70 -24.5t-84 -17.5t-96.5 -6.5zM462 1189q-35 0 -64.5 12t-51.5 33.5t-34.5 50.5t-12.5 63q0 33 12.5 61.5t34.5 50t51.5 34t64.5 12.5q34 0 64.5 -12.5t53.5 -34t36 -50t13 -61.5q0 -34 -13 -63t-36 -50.5t-53.5 -33.5t-64.5 -12z" />
    <glyph glyph-name="j" unicode="j" horiz-adv-x="624" 
d="M-224 -471q-18 0 -37.5 2t-41 6t-45 10.5t-49.5 15.5l80 222h27q33 -12 68 -22t69 -17t64.5 -11t54.5 -4q23 0 46 5.5t44 25.5q6 6 16.5 35.5t21.5 71t22 88.5t19 88l134 713q5 27 -4.5 46t-41.5 28l-101 30l-1 48l460 79l-171 -915q-18 -100 -66.5 -188t-129.5 -163
q-54 -50 -104.5 -86.5t-103 -60.5t-109 -35.5t-121.5 -11.5zM472 1189q-35 0 -64.5 12t-51.5 33.5t-34.5 50.5t-12.5 63q0 33 12.5 61.5t34.5 50t51.5 34t64.5 12.5q34 0 64.5 -12.5t53.5 -34t36 -50t13 -61.5q0 -34 -13 -63t-36 -50.5t-53.5 -33.5t-64.5 -12z" />
    <glyph glyph-name="k" unicode="k" horiz-adv-x="1083" 
d="M777 -14q-45 0 -78 10t-57 29t-40 47t-28 63l-98 300l-108 -98l-31 -151q-5 -24 -7.5 -50.5t-3.5 -52t-1 -47.5v-36h-294l283 1272q5 26 -5 44t-40 30l-77 30l-1 48l440 87l-232 -1048q73 78 134 145t110 122t87 96.5t67 67.5q27 24 48.5 41.5t43 29t45 17t54.5 5.5
q25 0 56 -2.5t55 -6.5l-61 -253h-30q-32 8 -59.5 11t-49.5 3q-23 0 -48.5 -1.5t-54 -11t-59.5 -29.5t-65 -56l153 -432q7 -19 18 -38.5t26 -35.5t35.5 -26t46.5 -10q18 0 46 8t51 20h25v-66q-24 -15 -54 -28.5t-66.5 -24t-80.5 -16.5t-95 -6z" />
    <glyph glyph-name="l" unicode="l" horiz-adv-x="608" 
d="M285 -14q-41 0 -76 11t-61 30.5t-41 47t-15 60.5q0 45 4.5 78t11.5 64l221 995q5 26 -5 44t-40 30l-77 30l-1 48l440 87l-254 -1149q-6 -29 -11 -58t-8.5 -54.5t-5.5 -46t-2 -31.5q0 -10 4.5 -23t15 -25t27.5 -20t41 -8q6 0 20 3t31 7.5t33.5 10.5t28.5 12h25v-66
q-24 -15 -55.5 -28.5t-70 -24.5t-84 -17.5t-96.5 -6.5z" />
    <glyph glyph-name="m" unicode="m" horiz-adv-x="1747" 
d="M1443 -14q-41 0 -76 11t-61 30.5t-41 47t-15 60.5q0 45 5.5 78.5t12.5 63.5l68 290q8 33 14.5 73t6.5 67q0 58 -24.5 93t-90.5 35q-21 0 -43 -3.5t-45 -12.5t-45.5 -25.5t-43.5 -41.5l-126 -566q-5 -21 -7.5 -47.5t-3.5 -53t-1 -49.5v-36h-294l127 567q3 16 7 36t7 40.5
t5 38.5t2 32q0 25 -5.5 47t-19 38.5t-35.5 26t-55 9.5q-21 0 -43 -3.5t-45 -12.5t-45.5 -25.5t-43.5 -41.5l-126 -566q-5 -21 -7.5 -47.5t-3.5 -53t-1 -49.5v-36h-294l169 758q5 27 -5 45t-41 29l-83 30l-1 48l437 79l-30 -163v0q51 53 95.5 86.5t85 52t77 25.5t71.5 7
q45 0 84.5 -10t71 -31.5t52 -56.5t26.5 -84q57 64 105 100.5t89 54.5t76.5 22.5t68.5 4.5q49 0 92 -13t74.5 -40t49.5 -68.5t18 -98.5q0 -24 -3.5 -51.5t-9.5 -52.5l-73 -311q-7 -29 -12.5 -58t-9.5 -54.5t-6.5 -46t-2.5 -31.5q0 -10 5 -23t15.5 -25t27.5 -20t41 -8
q6 0 17 2t24.5 6t27.5 9t26 11h25v-66q-24 -15 -52.5 -28t-64 -22.5t-78 -15.5t-93.5 -6z" />
    <glyph glyph-name="n" unicode="n" horiz-adv-x="1186" 
d="M882 -14q-41 0 -76 11t-61 30.5t-41 47t-15 60.5q0 45 5.5 78.5t12.5 63.5l68 290q8 33 14.5 69.5t6.5 82.5q0 23 -6 44t-20 37t-37.5 25.5t-57.5 9.5q-21 0 -44.5 -3.5t-47.5 -12.5t-48 -25.5t-45 -41.5l-125 -566q-5 -23 -7.5 -49.5t-3.5 -52.5t-1 -48v-36h-295
l168 758q5 27 -5 45t-41 29l-83 30l-1 48l435 79l-30 -163v0q52 61 100.5 95.5t92.5 51t82 20.5t68 4q49 0 92 -13t74.5 -40t49.5 -68.5t18 -98.5q0 -24 -3.5 -51.5t-9.5 -52.5l-73 -311q-7 -29 -12.5 -58t-9.5 -54.5t-6.5 -46t-2.5 -31.5q0 -10 5 -23t15.5 -25t27.5 -20
t41 -8q6 0 17 2t24.5 6t27.5 9t26 11h25v-66q-24 -15 -52.5 -28t-64 -22.5t-78 -15.5t-93.5 -6z" />
    <glyph glyph-name="o" unicode="o" horiz-adv-x="1070" 
d="M476 75q48 0 86.5 30t67.5 77.5t49.5 107t33 119t18.5 113t6 88.5q0 27 -0.5 59t-4.5 63.5t-13 61.5t-25.5 52.5t-42 36.5t-62.5 14q-50 0 -89 -31.5t-68 -82t-49 -113.5t-32.5 -125.5t-18 -118.5t-5.5 -92q0 -38 4.5 -83t20 -84t45 -65.5t79.5 -26.5zM462 -25
q-93 0 -169.5 26.5t-131 77.5t-85 125t-30.5 169q0 80 18 157.5t52.5 146.5t84 128t112 101.5t136.5 66.5t159 24q95 0 172 -27t131 -78.5t83 -126.5t29 -171q0 -79 -18.5 -155.5t-53 -145.5t-84 -127t-111.5 -100.5t-136.5 -66.5t-157.5 -24z" />
    <glyph glyph-name="p" unicode="p" horiz-adv-x="1144" 
d="M-188 -412l117 32q25 7 39 21t19 36l235 1081q5 27 -5 45t-41 29l-83 30l-1 48l437 79l-29 -156v0q51 63 95.5 96.5t83 48.5t69 17t53.5 2q73 0 129 -27.5t94 -76.5t58 -117t20 -148q0 -79 -16.5 -157.5t-48 -150.5t-77.5 -133.5t-104.5 -107t-128.5 -71.5t-150 -26
q-41 0 -78.5 9.5t-69 25t-55 34.5t-36.5 37l-86 -411q-5 -23 3.5 -37.5t28.5 -19.5l132 -32l-13 -59h-604zM520 105q55 0 98 25t75.5 66t55.5 93.5t37 107.5t20.5 108.5t6.5 96.5q0 39 -7 80t-25 74.5t-49 55t-79 21.5q-24 0 -47 -4.5t-44 -14t-39.5 -24t-33.5 -33.5
l-135 -607q34 -23 79 -34t87 -11z" />
    <glyph glyph-name="q" unicode="q" horiz-adv-x="1114" 
d="M644 146q-48 -62 -93 -95t-83.5 -48.5t-70.5 -18t-54 -2.5q-73 0 -129 27.5t-94.5 76.5t-58 117t-19.5 148q0 79 16.5 157.5t48 150.5t77.5 133.5t104.5 107t128.5 71.5t150 26q36 0 69 -8t61 -21t51 -29.5t38 -32.5l49 83h279q-14 -29 -33.5 -77.5t-36.5 -124.5
l-239 -1110q-5 -23 3.5 -37.5t28.5 -19.5l135 -32l-12 -59h-456zM490 146q49 0 92 19t73 57l135 607q-34 23 -79 34t-87 11q-55 0 -98 -25t-75.5 -66t-55.5 -93.5t-37 -107.5t-20.5 -108.5t-6.5 -96.5q0 -39 6.5 -80t24.5 -74.5t49 -55t79 -21.5z" />
    <glyph glyph-name="r" unicode="r" horiz-adv-x="923" 
d="M202 655q4 20 9.5 46.5t5.5 52.5t-9 47.5t-35 30.5l-86 30l-1 48l434 79l-39 -219v0q36 41 72.5 81.5t77.5 73t87.5 52.5t101.5 20q29 0 50 -2.5t38 -6.5t31.5 -9.5t30.5 -11.5l-66 -298h-81l-25 75q-3 9 -13 16.5t-23.5 13.5t-29 9.5t-30.5 3.5q-29 0 -57 -3.5
t-55.5 -13.5t-55.5 -28t-58 -48l-109 -508q-4 -17 -6 -43t-2.5 -53t0 -51.5t0.5 -38.5h-297z" />
    <glyph glyph-name="s" unicode="s" horiz-adv-x="923" 
d="M359 -27q-63 0 -118 6t-101.5 15t-85.5 20.5t-70 22.5l62 285h82l12 -112q3 -25 21 -42t35 -28q15 -9 36.5 -19.5t47 -18.5t54.5 -13.5t61 -5.5q45 0 80 9.5t59 28t36 44.5t12 59q0 30 -12 51t-31.5 36t-45 26.5t-52.5 22.5q-18 7 -37 15t-37 15.5l-36 15t-34 15.5
q-30 15 -61 36.5t-56 51.5t-40.5 70.5t-15.5 94.5q0 55 18.5 100.5t50.5 81t75.5 62.5t93.5 44.5t104 26t108 8.5q41 0 86.5 -3.5t90 -9t85.5 -13t74 -15.5l-63 -284h-86l-3 109q-1 22 -15.5 38.5t-33.5 27.5q-15 9 -32.5 17t-37.5 14t-44 9.5t-51 3.5q-30 0 -59.5 -9
t-53 -26t-38.5 -42.5t-15 -59.5q0 -32 10.5 -54.5t26.5 -38.5t34.5 -26.5t35.5 -17.5q32 -14 68 -30t66 -30q45 -20 85 -43t69.5 -53t46.5 -68.5t17 -90.5q0 -66 -21 -116t-56.5 -86.5t-83.5 -61t-101 -39t-108.5 -20.5t-107.5 -6z" />
    <glyph glyph-name="t" unicode="t" horiz-adv-x="775" 
d="M356 -18q-53 0 -99.5 11t-81 31.5t-54 49.5t-19.5 65q0 16 3 38.5t7 46.5t9 47.5t9 42.5l115 544h-154v75q47 6 83 14t63 24.5t45.5 44.5t30.5 73l32 120l248 31l-59 -277h318l-32 -105h-309l-109 -513q-3 -13 -6 -30t-6 -35t-4.5 -35t-1.5 -29q0 -26 14 -44.5
t34.5 -30.5t44 -17.5t42.5 -5.5q13 0 33.5 2.5t41.5 7t40.5 10t30.5 10.5h24v-66q-15 -10 -48.5 -27t-79 -33t-98.5 -28t-107 -12z" />
    <glyph glyph-name="u" unicode="u" horiz-adv-x="1190" 
d="M332 -18q-50 0 -92.5 13t-74 40t-49.5 68.5t-18 98.5q0 24 3.5 51.5t9.5 52.5l104 452q6 26 -4.5 44.5t-41.5 29.5l-83 30l-1 48l446 79l-130 -577q-4 -17 -7.5 -34t-6 -33.5t-4.5 -32t-3 -28.5q-2 -33 3.5 -59t20 -44t38.5 -27.5t59 -9.5q21 0 44.5 3.5t47.5 12.5t48 25
t45 42l123 559q5 23 7.5 49.5t3.5 52.5t1 48v36h295l-135 -610q-6 -29 -12 -57t-10 -53t-6.5 -45.5t-2.5 -34.5q0 -10 5 -23t15.5 -25t27.5 -20t41 -8q6 0 17 2t24.5 6t27.5 9t26 11h25v-66q-24 -15 -52.5 -28t-64 -22.5t-78 -15.5t-93.5 -6q-41 0 -76 11.5t-61 33.5
t-41.5 53t-17.5 69v0q-54 -62 -103 -96.5t-92.5 -51t-80.5 -20t-67 -3.5z" />
    <glyph glyph-name="v" unicode="v" horiz-adv-x="1012" 
d="M182 758q-3 14 -4.5 25.5t-5.5 20.5t-12 16t-24 12l-109 30l-1 48l382 79l88 -586l21 -133v0l177 303q39 67 59 125.5t28 105.5t8.5 82.5t0.5 57.5v28h302v-30q-13 -14 -36.5 -44t-51.5 -67t-55.5 -76t-47.5 -72l-305 -494l-146 -198h-138z" />
    <glyph glyph-name="w" unicode="w" horiz-adv-x="1598" 
d="M189 758q-2 14 -3.5 25.5t-5.5 20.5t-12.5 16t-24.5 12l-109 30l-1 48l385 79l69 -517l22 -176v0l235 478l106 198h171l80 -494l25 -195v0l150 290q35 68 52.5 126.5t25 105.5t7 82.5t-1.5 56.5l-1 28h305l1 -30q-12 -14 -35 -44t-50 -66.5t-54 -76t-46 -72.5l-273 -492
l-127 -198h-159l-82 516l-21 160v0l-239 -478l-124 -198h-159z" />
    <glyph glyph-name="x" unicode="x" horiz-adv-x="1055" 
d="M67 -15q-25 0 -55 4t-54 9l61 249h30q16 -4 30.5 -7t28 -4.5t25.5 -2t23 -0.5q23 0 47.5 5.5t50.5 20t54.5 40.5t59.5 67q4 6 9 12.5t11 14.5t13.5 18.5t18.5 24.5l-132 322q-10 26 -23.5 48t-44.5 30l-99 26l1 48l346 79l94 -259l32 -100v0q40 63 67 103.5t46.5 68.5
t36 48.5t35.5 43.5q23 27 45.5 45t47 28.5t51 15t57.5 4.5q25 0 54 -2.5t55 -7.5l-62 -252h-30q-16 4 -30.5 7t-27.5 4.5t-25 2t-23 0.5q-23 0 -48 -5t-51.5 -19.5t-54.5 -40.5t-58 -68q-2 -3 -5.5 -7.5t-8 -11.5t-11 -15.5t-15.5 -20.5l138 -341q8 -20 19 -39.5t26.5 -35.5
t36 -26t46.5 -10q18 0 45.5 8t51.5 20h25v-66q-24 -15 -53.5 -28.5t-65.5 -24t-79 -16.5t-94 -6q-45 0 -77 9.5t-55 28.5t-39 47t-29 64l-44 122l-31 96v0q-35 -58 -62 -100t-49.5 -73.5t-41.5 -55.5t-38 -46q-23 -27 -46 -45t-47.5 -28.5t-51 -15t-57.5 -4.5z" />
    <glyph glyph-name="y" unicode="y" horiz-adv-x="1146" 
d="M263 -471q-28 0 -55 2.5t-54 6.5t-53.5 10t-53.5 13l82 225h27q32 -12 73 -22t83.5 -17.5t82 -11.5t68.5 -4q14 0 29 1t29.5 4.5t27.5 9.5t24 16q6 6 16.5 35.5t22 71t23 88.5t20.5 88l26 126v0q-54 -62 -103.5 -96.5t-93.5 -51t-81.5 -20t-67.5 -3.5q-50 0 -92.5 13
t-74 40t-49.5 68.5t-18 98.5q0 24 4 51.5t9 52.5l98 434q5 26 -5 44.5t-41 29.5l-83 30l-1 48l446 79l-124 -559q-4 -17 -7.5 -34t-6.5 -35t-5 -37t-2 -39q0 -27 6 -49.5t20 -39t37 -25.5t58 -9q20 0 44 3.5t49 12.5t49.5 25t45.5 42l111 541q5 23 7.5 49.5t3.5 52.5t1 48
v36h290l-175 -898q-11 -55 -28 -102.5t-41.5 -90.5t-57 -82t-72.5 -76q-54 -50 -106.5 -86.5t-108 -60.5t-118 -35.5t-135.5 -11.5z" />
    <glyph glyph-name="z" unicode="z" horiz-adv-x="970" 
d="M-30 69l626 705l90 92v0h-280q-35 0 -56.5 -14.5t-32.5 -32.5l-95 -157h-80l68 309h813v-55l-638 -719l-91 -92v0h334q26 0 51.5 13t36.5 34l99 177h81l-73 -329h-852z" />
    <glyph glyph-name="agrave" unicode="&#xe0;" horiz-adv-x="1070" 
d="M267 -18q-56 0 -102 18t-78.5 50.5t-50 78.5t-17.5 102q0 68 20.5 121.5t55.5 94.5t82.5 70t102 47t113.5 26.5t117 8.5q18 0 37 -1.5t37.5 -3.5t37.5 -4.5t37 -5.5l8 36t7 36t5 36.5t2 36.5q0 69 -35.5 107t-105.5 38q-37 0 -83.5 -16.5t-94 -40.5t-91.5 -51t-75 -47
h-42l49 210q52 18 99.5 31t95 21t96.5 12t104 4t117 -10t115 -36t88 -70t35 -113q0 -19 -1.5 -38t-4 -38t-6 -37.5t-7.5 -36.5l-58 -256q-6 -24 -11.5 -47.5t-10 -47t-7 -47.5t-2.5 -48q0 -17 8 -31t20.5 -24t28.5 -15.5t32 -5.5q10 0 22.5 3t25.5 7t25.5 9t21.5 9h25v-66
q-33 -20 -68 -33.5t-71.5 -22t-74 -12.5t-74.5 -4t-71 9.5t-60.5 28.5t-43.5 48t-20 69v0q-32 -39 -64 -68.5t-68 -49.5t-78 -30.5t-94 -10.5zM404 131q54 0 98 22t77 64l65 283q-65 0 -127.5 -7.5t-111.5 -33t-78.5 -73.5t-29.5 -129q0 -26 5.5 -49t18.5 -40t33.5 -27
t49.5 -10zM747 1074q-39 25 -78.5 49.5t-78.5 49t-77.5 50t-76.5 54.5q-30 22 -54 47.5t-24 64.5q0 23 9.5 41t25 30.5t36 19t41.5 6.5q28 0 48.5 -5t37 -15t31 -26t30.5 -38q24 -35 47.5 -71t46.5 -73t45.5 -73.5t45.5 -72.5l-55 -38v0z" />
    <glyph glyph-name="aacute" unicode="&#xe1;" horiz-adv-x="1070" 
d="M267 -18q-56 0 -102 18t-78.5 50.5t-50 78.5t-17.5 102q0 68 20.5 121.5t55.5 94.5t82.5 70t102 47t113.5 26.5t117 8.5q18 0 37 -1.5t37.5 -3.5t37.5 -4.5t37 -5.5l8 36t7 36t5 36.5t2 36.5q0 69 -35.5 107t-105.5 38q-37 0 -83.5 -16.5t-94 -40.5t-91.5 -51t-75 -47
h-42l49 210q52 18 99.5 31t95 21t96.5 12t104 4t117 -10t115 -36t88 -70t35 -113q0 -19 -1.5 -38t-4 -38t-6 -37.5t-7.5 -36.5l-58 -256q-6 -24 -11.5 -47.5t-10 -47t-7 -47.5t-2.5 -48q0 -17 8 -31t20.5 -24t28.5 -15.5t32 -5.5q10 0 22.5 3t25.5 7t25.5 9t21.5 9h25v-66
q-33 -20 -68 -33.5t-71.5 -22t-74 -12.5t-74.5 -4t-71 9.5t-60.5 28.5t-43.5 48t-20 69v0q-32 -39 -64 -68.5t-68 -49.5t-78 -30.5t-94 -10.5zM404 131q54 0 98 22t77 64l65 283q-65 0 -127.5 -7.5t-111.5 -33t-78.5 -73.5t-29.5 -129q0 -26 5.5 -49t18.5 -40t33.5 -27
t49.5 -10zM445 1112q54 72 106 143t106 143q17 22 33.5 39t34.5 27.5t40 16t51 5.5q19 0 37.5 -5.5t33 -16.5t23.5 -27t9 -37q0 -22 -7.5 -39.5t-19.5 -31.5t-28 -26t-32 -22q-85 -53 -168 -104.5t-167 -102.5z" />
    <glyph glyph-name="acircumflex" unicode="&#xe2;" horiz-adv-x="1070" 
d="M267 -18q-56 0 -102 18t-78.5 50.5t-50 78.5t-17.5 102q0 68 20.5 121.5t55.5 94.5t82.5 70t102 47t113.5 26.5t117 8.5q18 0 37 -1.5t37.5 -3.5t37.5 -4.5t37 -5.5l8 36t7 36t5 36.5t2 36.5q0 69 -35.5 107t-105.5 38q-37 0 -83.5 -16.5t-94 -40.5t-91.5 -51t-75 -47
h-42l49 210q52 18 99.5 31t95 21t96.5 12t104 4t117 -10t115 -36t88 -70t35 -113q0 -19 -1.5 -38t-4 -38t-6 -37.5t-7.5 -36.5l-58 -256q-6 -24 -11.5 -47.5t-10 -47t-7 -47.5t-2.5 -48q0 -17 8 -31t20.5 -24t28.5 -15.5t32 -5.5q10 0 22.5 3t25.5 7t25.5 9t21.5 9h25v-66
q-33 -20 -68 -33.5t-71.5 -22t-74 -12.5t-74.5 -4t-71 9.5t-60.5 28.5t-43.5 48t-20 69v0q-32 -39 -64 -68.5t-68 -49.5t-78 -30.5t-94 -10.5zM404 131q54 0 98 22t77 64l65 283q-65 0 -127.5 -7.5t-111.5 -33t-78.5 -73.5t-29.5 -129q0 -26 5.5 -49t18.5 -40t33.5 -27
t49.5 -10zM254 1106l246 289q34 39 71.5 59.5t82.5 20.5t77 -20t52 -60l143 -288l-52 -35l-240 230l-329 -232z" />
    <glyph glyph-name="uni1EA5" unicode="&#x1ea5;" horiz-adv-x="1070" 
d="M267 -18q-56 0 -102 18t-78.5 50.5t-50 78.5t-17.5 102q0 68 20.5 121.5t55.5 94.5t82.5 70t102 47t113.5 26.5t117 8.5q18 0 37 -1.5t37.5 -3.5t37.5 -4.5t37 -5.5l8 36t7 36t5 36.5t2 36.5q0 69 -35.5 107t-105.5 38q-37 0 -83.5 -16.5t-94 -40.5t-91.5 -51t-75 -47
h-42l49 210q52 18 99.5 31t95 21t96.5 12t104 4t117 -10t115 -36t88 -70t35 -113q0 -19 -1.5 -38t-4 -38t-6 -37.5t-7.5 -36.5l-58 -256q-6 -24 -11.5 -47.5t-10 -47t-7 -47.5t-2.5 -48q0 -17 8 -31t20.5 -24t28.5 -15.5t32 -5.5q10 0 22.5 3t25.5 7t25.5 9t21.5 9h25v-66
q-33 -20 -68 -33.5t-71.5 -22t-74 -12.5t-74.5 -4t-71 9.5t-60.5 28.5t-43.5 48t-20 69v0q-32 -39 -64 -68.5t-68 -49.5t-78 -30.5t-94 -10.5zM404 131q54 0 98 22t77 64l65 283q-65 0 -127.5 -7.5t-111.5 -33t-78.5 -73.5t-29.5 -129q0 -26 5.5 -49t18.5 -40t33.5 -27
t49.5 -10zM890 1358l88 231q11 29 24 48.5t29.5 31t36.5 16.5t45 5q21 0 39 -6t31.5 -18t21.5 -29.5t8 -40.5t-14.5 -49t-50.5 -55l-206 -168zM253 1107l246 289q34 39 71.5 59.5t82.5 20.5t77 -20t52 -60l143 -288l-52 -35l-240 230l-329 -232z" />
    <glyph glyph-name="uni1EA7" unicode="&#x1ea7;" horiz-adv-x="1070" 
d="M267 -18q-56 0 -102 18t-78.5 50.5t-50 78.5t-17.5 102q0 68 20.5 121.5t55.5 94.5t82.5 70t102 47t113.5 26.5t117 8.5q18 0 37 -1.5t37.5 -3.5t37.5 -4.5t37 -5.5l8 36t7 36t5 36.5t2 36.5q0 69 -35.5 107t-105.5 38q-37 0 -83.5 -16.5t-94 -40.5t-91.5 -51t-75 -47
h-42l49 210q52 18 99.5 31t95 21t96.5 12t104 4t117 -10t115 -36t88 -70t35 -113q0 -19 -1.5 -38t-4 -38t-6 -37.5t-7.5 -36.5l-58 -256q-6 -24 -11.5 -47.5t-10 -47t-7 -47.5t-2.5 -48q0 -17 8 -31t20.5 -24t28.5 -15.5t32 -5.5q10 0 22.5 3t25.5 7t25.5 9t21.5 9h25v-66
q-33 -20 -68 -33.5t-71.5 -22t-74 -12.5t-74.5 -4t-71 9.5t-60.5 28.5t-43.5 48t-20 69v0q-32 -39 -64 -68.5t-68 -49.5t-78 -30.5t-94 -10.5zM404 131q54 0 98 22t77 64l65 283q-65 0 -127.5 -7.5t-111.5 -33t-78.5 -73.5t-29.5 -129q0 -26 5.5 -49t18.5 -40t33.5 -27
t49.5 -10zM285 1324l-206 168q-36 29 -50.5 55t-14.5 49t8 40.5t21.5 29.5t31.5 18t39 6q25 0 45 -5t36.5 -16.5t29.5 -31t24 -48.5l88 -231zM253 1107l246 289q34 39 71.5 59.5t82.5 20.5t77 -20t52 -60l143 -288l-52 -35l-240 230l-329 -232z" />
    <glyph glyph-name="uni1EA9" unicode="&#x1ea9;" horiz-adv-x="1070" 
d="M267 -18q-56 0 -102 18t-78.5 50.5t-50 78.5t-17.5 102q0 68 20.5 121.5t55.5 94.5t82.5 70t102 47t113.5 26.5t117 8.5q18 0 37 -1.5t37.5 -3.5t37.5 -4.5t37 -5.5l8 36t7 36t5 36.5t2 36.5q0 69 -35.5 107t-105.5 38q-37 0 -83.5 -16.5t-94 -40.5t-91.5 -51t-75 -47
h-42l49 210q52 18 99.5 31t95 21t96.5 12t104 4t117 -10t115 -36t88 -70t35 -113q0 -19 -1.5 -38t-4 -38t-6 -37.5t-7.5 -36.5l-58 -256q-6 -24 -11.5 -47.5t-10 -47t-7 -47.5t-2.5 -48q0 -17 8 -31t20.5 -24t28.5 -15.5t32 -5.5q10 0 22.5 3t25.5 7t25.5 9t21.5 9h25v-66
q-33 -20 -68 -33.5t-71.5 -22t-74 -12.5t-74.5 -4t-71 9.5t-60.5 28.5t-43.5 48t-20 69v0q-32 -39 -64 -68.5t-68 -49.5t-78 -30.5t-94 -10.5zM404 131q54 0 98 22t77 64l65 283q-65 0 -127.5 -7.5t-111.5 -33t-78.5 -73.5t-29.5 -129q0 -26 5.5 -49t18.5 -40t33.5 -27
t49.5 -10zM1046 1624q36 0 63.5 -6.5t47 -18t29.5 -27.5t10 -36q0 -27 -10 -47.5t-25 -37.5t-33.5 -32t-35.5 -30.5t-30 -34t-18 -41.5l-5 -22h-122l6 27q5 26 16.5 44t25.5 31.5t29 24.5t27 22.5t20 25.5t8 33q0 16 -9 28.5t-36 12.5q-29 0 -49.5 -14.5t-38.5 -31.5h-43
l21 96q9 4 23.5 10t34 11t43.5 9t51 4v0zM253 1107l246 289q34 39 71.5 59.5t82.5 20.5t77 -20t52 -60l143 -288l-52 -35l-240 230l-329 -232z" />
    <glyph glyph-name="uni1EAB" unicode="&#x1eab;" horiz-adv-x="1070" 
d="M267 -18q-56 0 -102 18t-78.5 50.5t-50 78.5t-17.5 102q0 68 20.5 121.5t55.5 94.5t82.5 70t102 47t113.5 26.5t117 8.5q18 0 37 -1.5t37.5 -3.5t37.5 -4.5t37 -5.5l8 36t7 36t5 36.5t2 36.5q0 69 -35.5 107t-105.5 38q-37 0 -83.5 -16.5t-94 -40.5t-91.5 -51t-75 -47
h-42l49 210q52 18 99.5 31t95 21t96.5 12t104 4t117 -10t115 -36t88 -70t35 -113q0 -19 -1.5 -38t-4 -38t-6 -37.5t-7.5 -36.5l-58 -256q-6 -24 -11.5 -47.5t-10 -47t-7 -47.5t-2.5 -48q0 -17 8 -31t20.5 -24t28.5 -15.5t32 -5.5q10 0 22.5 3t25.5 7t25.5 9t21.5 9h25v-66
q-33 -20 -68 -33.5t-71.5 -22t-74 -12.5t-74.5 -4t-71 9.5t-60.5 28.5t-43.5 48t-20 69v0q-32 -39 -64 -68.5t-68 -49.5t-78 -30.5t-94 -10.5zM404 131q54 0 98 22t77 64l65 283q-65 0 -127.5 -7.5t-111.5 -33t-78.5 -73.5t-29.5 -129q0 -26 5.5 -49t18.5 -40t33.5 -27
t49.5 -10zM251 1107l248 274q34 39 71.5 59.5t82.5 20.5t77 -20t52 -60l141 -273l-52 -35l-238 217l-331 -219zM327 1476q16 60 43 110t62.5 86t78 56t89.5 20q32 0 65 -12.5t78 -37.5q45 -26 74.5 -35.5t46.5 -9.5q55 0 82 29t45 80h74q-15 -59 -41 -109t-60.5 -86
t-76.5 -56t-90 -20q-17 0 -31 2t-29.5 8t-34 16t-45.5 26q-43 26 -74 36t-49 10q-56 0 -85.5 -30.5t-47.5 -82.5h-74z" />
    <glyph glyph-name="atilde" unicode="&#xe3;" horiz-adv-x="1070" 
d="M267 -18q-56 0 -102 18t-78.5 50.5t-50 78.5t-17.5 102q0 68 20.5 121.5t55.5 94.5t82.5 70t102 47t113.5 26.5t117 8.5q18 0 37 -1.5t37.5 -3.5t37.5 -4.5t37 -5.5l8 36t7 36t5 36.5t2 36.5q0 69 -35.5 107t-105.5 38q-37 0 -83.5 -16.5t-94 -40.5t-91.5 -51t-75 -47
h-42l49 210q52 18 99.5 31t95 21t96.5 12t104 4t117 -10t115 -36t88 -70t35 -113q0 -19 -1.5 -38t-4 -38t-6 -37.5t-7.5 -36.5l-58 -256q-6 -24 -11.5 -47.5t-10 -47t-7 -47.5t-2.5 -48q0 -17 8 -31t20.5 -24t28.5 -15.5t32 -5.5q10 0 22.5 3t25.5 7t25.5 9t21.5 9h25v-66
q-33 -20 -68 -33.5t-71.5 -22t-74 -12.5t-74.5 -4t-71 9.5t-60.5 28.5t-43.5 48t-20 69v0q-32 -39 -64 -68.5t-68 -49.5t-78 -30.5t-94 -10.5zM404 131q54 0 98 22t77 64l65 283q-65 0 -127.5 -7.5t-111.5 -33t-78.5 -73.5t-29.5 -129q0 -26 5.5 -49t18.5 -40t33.5 -27
t49.5 -10zM238 1130q16 60 43 110t62.5 86t78 56t89.5 20q32 0 65 -12.5t78 -37.5q45 -26 74.5 -35.5t46.5 -9.5q55 0 82 29t45 80h74q-15 -59 -41 -109t-60.5 -86t-76.5 -56t-90 -20q-17 0 -31 2t-29.5 8t-34 16t-45.5 26q-43 26 -74 36t-49 10q-56 0 -85.5 -30.5
t-47.5 -82.5h-74v0z" />
    <glyph glyph-name="adieresis" unicode="&#xe4;" horiz-adv-x="1070" 
d="M267 -18q-56 0 -102 18t-78.5 50.5t-50 78.5t-17.5 102q0 68 20.5 121.5t55.5 94.5t82.5 70t102 47t113.5 26.5t117 8.5q18 0 37 -1.5t37.5 -3.5t37.5 -4.5t37 -5.5l8 36t7 36t5 36.5t2 36.5q0 69 -35.5 107t-105.5 38q-37 0 -83.5 -16.5t-94 -40.5t-91.5 -51t-75 -47
h-42l49 210q52 18 99.5 31t95 21t96.5 12t104 4t117 -10t115 -36t88 -70t35 -113q0 -19 -1.5 -38t-4 -38t-6 -37.5t-7.5 -36.5l-58 -256q-6 -24 -11.5 -47.5t-10 -47t-7 -47.5t-2.5 -48q0 -17 8 -31t20.5 -24t28.5 -15.5t32 -5.5q10 0 22.5 3t25.5 7t25.5 9t21.5 9h25v-66
q-33 -20 -68 -33.5t-71.5 -22t-74 -12.5t-74.5 -4t-71 9.5t-60.5 28.5t-43.5 48t-20 69v0q-32 -39 -64 -68.5t-68 -49.5t-78 -30.5t-94 -10.5zM404 131q54 0 98 22t77 64l65 283q-65 0 -127.5 -7.5t-111.5 -33t-78.5 -73.5t-29.5 -129q0 -26 5.5 -49t18.5 -40t33.5 -27
t49.5 -10zM386 1126q-27 0 -51 10t-42 28t-28 42t-10 52t10 52t28 42t42 28t51 10q28 0 52.5 -10t43 -28t29 -42t10.5 -52t-10.5 -52t-29 -42t-43 -28t-52.5 -10zM826 1126q-27 0 -51 10t-42 28t-28 42t-10 52t10 52t28 42t42 28t51 10q28 0 52.5 -10t43 -28t29 -42
t10.5 -52t-10.5 -52t-29 -42t-43 -28t-52.5 -10z" />
    <glyph glyph-name="amacron" unicode="&#x101;" horiz-adv-x="1070" 
d="M267 -18q-56 0 -102 18t-78.5 50.5t-50 78.5t-17.5 102q0 68 20.5 121.5t55.5 94.5t82.5 70t102 47t113.5 26.5t117 8.5q18 0 37 -1.5t37.5 -3.5t37.5 -4.5t37 -5.5l8 36t7 36t5 36.5t2 36.5q0 69 -35.5 107t-105.5 38q-37 0 -83.5 -16.5t-94 -40.5t-91.5 -51t-75 -47
h-42l49 210q52 18 99.5 31t95 21t96.5 12t104 4t117 -10t115 -36t88 -70t35 -113q0 -19 -1.5 -38t-4 -38t-6 -37.5t-7.5 -36.5l-58 -256q-6 -24 -11.5 -47.5t-10 -47t-7 -47.5t-2.5 -48q0 -17 8 -31t20.5 -24t28.5 -15.5t32 -5.5q10 0 22.5 3t25.5 7t25.5 9t21.5 9h25v-66
q-33 -20 -68 -33.5t-71.5 -22t-74 -12.5t-74.5 -4t-71 9.5t-60.5 28.5t-43.5 48t-20 69v0q-32 -39 -64 -68.5t-68 -49.5t-78 -30.5t-94 -10.5zM404 131q54 0 98 22t77 64l65 283q-65 0 -127.5 -7.5t-111.5 -33t-78.5 -73.5t-29.5 -129q0 -26 5.5 -49t18.5 -40t33.5 -27
t49.5 -10zM323 1314h624l-35 -143h-624z" />
    <glyph glyph-name="abreve" unicode="&#x103;" horiz-adv-x="1070" 
d="M267 -18q-56 0 -102 18t-78.5 50.5t-50 78.5t-17.5 102q0 68 20.5 121.5t55.5 94.5t82.5 70t102 47t113.5 26.5t117 8.5q18 0 37 -1.5t37.5 -3.5t37.5 -4.5t37 -5.5l8 36t7 36t5 36.5t2 36.5q0 69 -35.5 107t-105.5 38q-37 0 -83.5 -16.5t-94 -40.5t-91.5 -51t-75 -47
h-42l49 210q52 18 99.5 31t95 21t96.5 12t104 4t117 -10t115 -36t88 -70t35 -113q0 -19 -1.5 -38t-4 -38t-6 -37.5t-7.5 -36.5l-58 -256q-6 -24 -11.5 -47.5t-10 -47t-7 -47.5t-2.5 -48q0 -17 8 -31t20.5 -24t28.5 -15.5t32 -5.5q10 0 22.5 3t25.5 7t25.5 9t21.5 9h25v-66
q-33 -20 -68 -33.5t-71.5 -22t-74 -12.5t-74.5 -4t-71 9.5t-60.5 28.5t-43.5 48t-20 69v0q-32 -39 -64 -68.5t-68 -49.5t-78 -30.5t-94 -10.5zM404 131q54 0 98 22t77 64l65 283q-65 0 -127.5 -7.5t-111.5 -33t-78.5 -73.5t-29.5 -129q0 -26 5.5 -49t18.5 -40t33.5 -27
t49.5 -10zM618 1100q-55 0 -104 16.5t-85.5 56t-57 104.5t-17.5 163l86 17q7 -55 19.5 -92.5t35.5 -60.5t58.5 -33t88.5 -10q51 0 89 9.5t68 32.5t55 60.5t51 93.5l86 -17q-31 -98 -71.5 -163.5t-88.5 -104.5t-102 -55.5t-111 -16.5z" />
    <glyph glyph-name="uni1EAF" unicode="&#x1eaf;" horiz-adv-x="1070" 
d="M267 -18q-56 0 -102 18t-78.5 50.5t-50 78.5t-17.5 102q0 68 20.5 121.5t55.5 94.5t82.5 70t102 47t113.5 26.5t117 8.5q18 0 37 -1.5t37.5 -3.5t37.5 -4.5t37 -5.5l8 36t7 36t5 36.5t2 36.5q0 69 -35.5 107t-105.5 38q-37 0 -83.5 -16.5t-94 -40.5t-91.5 -51t-75 -47
h-42l49 210q52 18 99.5 31t95 21t96.5 12t104 4t117 -10t115 -36t88 -70t35 -113q0 -19 -1.5 -38t-4 -38t-6 -37.5t-7.5 -36.5l-58 -256q-6 -24 -11.5 -47.5t-10 -47t-7 -47.5t-2.5 -48q0 -17 8 -31t20.5 -24t28.5 -15.5t32 -5.5q10 0 22.5 3t25.5 7t25.5 9t21.5 9h25v-66
q-33 -20 -68 -33.5t-71.5 -22t-74 -12.5t-74.5 -4t-71 9.5t-60.5 28.5t-43.5 48t-20 69v0q-32 -39 -64 -68.5t-68 -49.5t-78 -30.5t-94 -10.5zM404 131q54 0 98 22t77 64l65 283q-65 0 -127.5 -7.5t-111.5 -33t-78.5 -73.5t-29.5 -129q0 -26 5.5 -49t18.5 -40t33.5 -27
t49.5 -10zM591 1358l65 250q7 29 18 47.5t25 29t30.5 14.5t34.5 4q19 0 36 -5.5t29.5 -16.5t20 -27.5t7.5 -37.5q0 -15 -4 -29t-11.5 -27.5t-19 -27.5t-25.5 -29l-155 -170zM611 1101q-55 0 -104 16.5t-85.5 56t-57 104.5t-17.5 163l86 17q7 -55 19.5 -92.5t35.5 -60.5
t58.5 -33t88.5 -10q51 0 89 9.5t68 32.5t55 60.5t51 93.5l86 -17q-31 -98 -71.5 -163.5t-88.5 -104.5t-102 -55.5t-111 -16.5z" />
    <glyph glyph-name="uni1EB1" unicode="&#x1eb1;" horiz-adv-x="1070" 
d="M267 -18q-56 0 -102 18t-78.5 50.5t-50 78.5t-17.5 102q0 68 20.5 121.5t55.5 94.5t82.5 70t102 47t113.5 26.5t117 8.5q18 0 37 -1.5t37.5 -3.5t37.5 -4.5t37 -5.5l8 36t7 36t5 36.5t2 36.5q0 69 -35.5 107t-105.5 38q-37 0 -83.5 -16.5t-94 -40.5t-91.5 -51t-75 -47
h-42l49 210q52 18 99.5 31t95 21t96.5 12t104 4t117 -10t115 -36t88 -70t35 -113q0 -19 -1.5 -38t-4 -38t-6 -37.5t-7.5 -36.5l-58 -256q-6 -24 -11.5 -47.5t-10 -47t-7 -47.5t-2.5 -48q0 -17 8 -31t20.5 -24t28.5 -15.5t32 -5.5q10 0 22.5 3t25.5 7t25.5 9t21.5 9h25v-66
q-33 -20 -68 -33.5t-71.5 -22t-74 -12.5t-74.5 -4t-71 9.5t-60.5 28.5t-43.5 48t-20 69v0q-32 -39 -64 -68.5t-68 -49.5t-78 -30.5t-94 -10.5zM404 131q54 0 98 22t77 64l65 283q-65 0 -127.5 -7.5t-111.5 -33t-78.5 -73.5t-29.5 -129q0 -26 5.5 -49t18.5 -40t33.5 -27
t49.5 -10zM673 1333l-155 170q-14 15 -25.5 29t-19 27.5t-11.5 27.5t-4 29q0 21 7.5 37.5t20 27.5t29.5 16.5t36 5.5q18 0 34.5 -4t30.5 -14.5t24.5 -29t18.5 -47.5l65 -250zM611 1101q-55 0 -104 16.5t-85.5 56t-57 104.5t-17.5 163l86 17q7 -55 19.5 -92.5t35.5 -60.5
t58.5 -33t88.5 -10q51 0 89 9.5t68 32.5t55 60.5t51 93.5l86 -17q-31 -98 -71.5 -163.5t-88.5 -104.5t-102 -55.5t-111 -16.5z" />
    <glyph glyph-name="uni1EB3" unicode="&#x1eb3;" horiz-adv-x="1070" 
d="M267 -18q-56 0 -102 18t-78.5 50.5t-50 78.5t-17.5 102q0 68 20.5 121.5t55.5 94.5t82.5 70t102 47t113.5 26.5t117 8.5q18 0 37 -1.5t37.5 -3.5t37.5 -4.5t37 -5.5l8 36t7 36t5 36.5t2 36.5q0 69 -35.5 107t-105.5 38q-37 0 -83.5 -16.5t-94 -40.5t-91.5 -51t-75 -47
h-42l49 210q52 18 99.5 31t95 21t96.5 12t104 4t117 -10t115 -36t88 -70t35 -113q0 -19 -1.5 -38t-4 -38t-6 -37.5t-7.5 -36.5l-58 -256q-6 -24 -11.5 -47.5t-10 -47t-7 -47.5t-2.5 -48q0 -17 8 -31t20.5 -24t28.5 -15.5t32 -5.5q10 0 22.5 3t25.5 7t25.5 9t21.5 9h25v-66
q-33 -20 -68 -33.5t-71.5 -22t-74 -12.5t-74.5 -4t-71 9.5t-60.5 28.5t-43.5 48t-20 69v0q-32 -39 -64 -68.5t-68 -49.5t-78 -30.5t-94 -10.5zM404 131q54 0 98 22t77 64l65 283q-65 0 -127.5 -7.5t-111.5 -33t-78.5 -73.5t-29.5 -129q0 -26 5.5 -49t18.5 -40t33.5 -27
t49.5 -10zM694 1675q36 0 63.5 -6.5t47 -18t29.5 -27.5t10 -36q0 -27 -10 -47.5t-25 -37.5t-33.5 -32t-35.5 -30.5t-30 -34t-18 -41.5l-5 -22h-122l6 27q5 26 16.5 44t25.5 31.5t29 24.5t27 22.5t20 25.5t8 33q0 16 -9 28.5t-36 12.5q-29 0 -49.5 -14.5t-38.5 -31.5h-43
l21 96q9 4 23.5 10t34 11t43.5 9t51 4v0zM611 1101q-55 0 -104 16.5t-85.5 56t-57 104.5t-17.5 163l86 17q7 -55 19.5 -92.5t35.5 -60.5t58.5 -33t88.5 -10q51 0 89 9.5t68 32.5t55 60.5t51 93.5l86 -17q-31 -98 -71.5 -163.5t-88.5 -104.5t-102 -55.5t-111 -16.5z" />
    <glyph glyph-name="uni1EB5" unicode="&#x1eb5;" horiz-adv-x="1070" 
d="M267 -18q-56 0 -102 18t-78.5 50.5t-50 78.5t-17.5 102q0 68 20.5 121.5t55.5 94.5t82.5 70t102 47t113.5 26.5t117 8.5q18 0 37 -1.5t37.5 -3.5t37.5 -4.5t37 -5.5l8 36t7 36t5 36.5t2 36.5q0 69 -35.5 107t-105.5 38q-37 0 -83.5 -16.5t-94 -40.5t-91.5 -51t-75 -47
h-42l49 210q52 18 99.5 31t95 21t96.5 12t104 4t117 -10t115 -36t88 -70t35 -113q0 -19 -1.5 -38t-4 -38t-6 -37.5t-7.5 -36.5l-58 -256q-6 -24 -11.5 -47.5t-10 -47t-7 -47.5t-2.5 -48q0 -17 8 -31t20.5 -24t28.5 -15.5t32 -5.5q10 0 22.5 3t25.5 7t25.5 9t21.5 9h25v-66
q-33 -20 -68 -33.5t-71.5 -22t-74 -12.5t-74.5 -4t-71 9.5t-60.5 28.5t-43.5 48t-20 69v0q-32 -39 -64 -68.5t-68 -49.5t-78 -30.5t-94 -10.5zM404 131q54 0 98 22t77 64l65 283q-65 0 -127.5 -7.5t-111.5 -33t-78.5 -73.5t-29.5 -129q0 -26 5.5 -49t18.5 -40t33.5 -27
t49.5 -10zM611 1101q-55 0 -104 16.5t-85.5 56t-57 104.5t-17.5 163l86 17q7 -55 19.5 -92.5t35.5 -60.5t58.5 -33t88.5 -10q51 0 89 9.5t68 32.5t55 60.5t51 93.5l86 -17q-31 -98 -71.5 -163.5t-88.5 -104.5t-102 -55.5t-111 -16.5zM311 1499q16 60 43 110t62.5 86t78 56
t89.5 20q32 0 65 -12.5t78 -37.5q45 -26 74.5 -35.5t46.5 -9.5q55 0 82 29t45 80h74q-15 -59 -41 -109t-60.5 -86t-76.5 -56t-90 -20q-17 0 -31 2t-29.5 8t-34 16t-45.5 26q-43 26 -74 36t-49 10q-56 0 -85.5 -30.5t-47.5 -82.5h-74z" />
    <glyph glyph-name="aring" unicode="&#xe5;" horiz-adv-x="1070" 
d="M267 -18q-56 0 -102 18t-78.5 50.5t-50 78.5t-17.5 102q0 68 20.5 121.5t55.5 94.5t82.5 70t102 47t113.5 26.5t117 8.5q18 0 37 -1.5t37.5 -3.5t37.5 -4.5t37 -5.5l8 36t7 36t5 36.5t2 36.5q0 69 -35.5 107t-105.5 38q-37 0 -83.5 -16.5t-94 -40.5t-91.5 -51t-75 -47
h-42l49 210q52 18 99.5 31t95 21t96.5 12t104 4t117 -10t115 -36t88 -70t35 -113q0 -19 -1.5 -38t-4 -38t-6 -37.5t-7.5 -36.5l-58 -256q-6 -24 -11.5 -47.5t-10 -47t-7 -47.5t-2.5 -48q0 -17 8 -31t20.5 -24t28.5 -15.5t32 -5.5q10 0 22.5 3t25.5 7t25.5 9t21.5 9h25v-66
q-33 -20 -68 -33.5t-71.5 -22t-74 -12.5t-74.5 -4t-71 9.5t-60.5 28.5t-43.5 48t-20 69v0q-32 -39 -64 -68.5t-68 -49.5t-78 -30.5t-94 -10.5zM404 131q54 0 98 22t77 64l65 283q-65 0 -127.5 -7.5t-111.5 -33t-78.5 -73.5t-29.5 -129q0 -26 5.5 -49t18.5 -40t33.5 -27
t49.5 -10zM604 1130q33 0 55 17.5t35.5 43.5t19.5 57t6 57q0 19 -4 40t-14 38t-25.5 28t-39.5 11q-34 0 -57 -17.5t-37 -43.5t-20 -57.5t-6 -58.5q0 -21 4.5 -41.5t15 -37t27 -26.5t40.5 -10zM581 1069q-39 0 -75 9.5t-63.5 30t-43.5 51.5t-16 75q0 57 22.5 103t61 78.5
t88.5 49.5t105 17q39 0 74 -10t61.5 -30t42 -51.5t15.5 -73.5q0 -56 -22.5 -102t-60 -78.5t-86.5 -50.5t-103 -18z" />
    <glyph glyph-name="aringacute" unicode="&#x1fb;" horiz-adv-x="1070" 
d="M267 -18q-56 0 -102 18t-78.5 50.5t-50 78.5t-17.5 102q0 68 20.5 121.5t55.5 94.5t82.5 70t102 47t113.5 26.5t117 8.5q18 0 37 -1.5t37.5 -3.5t37.5 -4.5t37 -5.5l8 36t7 36t5 36.5t2 36.5q0 69 -35.5 107t-105.5 38q-37 0 -83.5 -16.5t-94 -40.5t-91.5 -51t-75 -47
h-42l49 210q52 18 99.5 31t95 21t96.5 12t104 4t117 -10t115 -36t88 -70t35 -113q0 -19 -1.5 -38t-4 -38t-6 -37.5t-7.5 -36.5l-58 -256q-6 -24 -11.5 -47.5t-10 -47t-7 -47.5t-2.5 -48q0 -17 8 -31t20.5 -24t28.5 -15.5t32 -5.5q10 0 22.5 3t25.5 7t25.5 9t21.5 9h25v-66
q-33 -20 -68 -33.5t-71.5 -22t-74 -12.5t-74.5 -4t-71 9.5t-60.5 28.5t-43.5 48t-20 69v0q-32 -39 -64 -68.5t-68 -49.5t-78 -30.5t-94 -10.5zM404 131q54 0 98 22t77 64l65 283q-65 0 -127.5 -7.5t-111.5 -33t-78.5 -73.5t-29.5 -129q0 -26 5.5 -49t18.5 -40t33.5 -27
t49.5 -10zM604 1119q33 0 55 17.5t35.5 43.5t19.5 57t6 57q0 19 -4 40t-14 38t-25.5 28t-39.5 11q-34 0 -57 -17.5t-37 -43.5t-20 -57.5t-6 -58.5q0 -21 4.5 -41.5t15 -37t27 -26.5t40.5 -10zM581 1058q-39 0 -75 9.5t-63.5 30t-43.5 51.5t-16 75q0 57 22.5 103t61 78.5
t88.5 49.5t105 17q39 0 74 -10t61.5 -30t42 -51.5t15.5 -73.5q0 -56 -22.5 -102t-60 -78.5t-86.5 -50.5t-103 -18zM427 1501q54 72 106 143t106 143q17 22 33.5 39t34.5 27.5t40 16t51 5.5q19 0 37.5 -5.5t33 -16.5t23.5 -27t9 -37q0 -22 -7.5 -39.5t-19.5 -31.5t-28 -26
t-32 -22q-85 -53 -168 -104.5t-167 -102.5z" />
    <glyph glyph-name="uni1EA3" unicode="&#x1ea3;" horiz-adv-x="1070" 
d="M267 -18q-56 0 -102 18t-78.5 50.5t-50 78.5t-17.5 102q0 68 20.5 121.5t55.5 94.5t82.5 70t102 47t113.5 26.5t117 8.5q18 0 37 -1.5t37.5 -3.5t37.5 -4.5t37 -5.5l8 36t7 36t5 36.5t2 36.5q0 69 -35.5 107t-105.5 38q-37 0 -83.5 -16.5t-94 -40.5t-91.5 -51t-75 -47
h-42l49 210q52 18 99.5 31t95 21t96.5 12t104 4t117 -10t115 -36t88 -70t35 -113q0 -19 -1.5 -38t-4 -38t-6 -37.5t-7.5 -36.5l-58 -256q-6 -24 -11.5 -47.5t-10 -47t-7 -47.5t-2.5 -48q0 -17 8 -31t20.5 -24t28.5 -15.5t32 -5.5q10 0 22.5 3t25.5 7t25.5 9t21.5 9h25v-66
q-33 -20 -68 -33.5t-71.5 -22t-74 -12.5t-74.5 -4t-71 9.5t-60.5 28.5t-43.5 48t-20 69v0q-32 -39 -64 -68.5t-68 -49.5t-78 -30.5t-94 -10.5zM404 131q54 0 98 22t77 64l65 283q-65 0 -127.5 -7.5t-111.5 -33t-78.5 -73.5t-29.5 -129q0 -26 5.5 -49t18.5 -40t33.5 -27
t49.5 -10zM703 1554q49 0 87 -9t63.5 -25t39 -39t13.5 -50q0 -40 -14 -70t-35.5 -54.5t-47.5 -46.5t-50.5 -44.5t-43 -49.5t-26.5 -61l-6 -31h-151l8 39q8 37 25.5 65t39 51t44.5 42.5t42 40t31 43.5t12 52q0 8 -3 17.5t-11.5 17.5t-22.5 13.5t-36 5.5q-23 0 -43 -6t-37 -15
t-32 -21t-29 -24h-47l23 109q13 6 33 14.5t46.5 16.5t58.5 13.5t69 5.5v0z" />
    <glyph glyph-name="uni1EA1" unicode="&#x1ea1;" horiz-adv-x="1070" 
d="M267 -18q-56 0 -102 18t-78.5 50.5t-50 78.5t-17.5 102q0 68 20.5 121.5t55.5 94.5t82.5 70t102 47t113.5 26.5t117 8.5q18 0 37 -1.5t37.5 -3.5t37.5 -4.5t37 -5.5l8 36t7 36t5 36.5t2 36.5q0 69 -35.5 107t-105.5 38q-37 0 -83.5 -16.5t-94 -40.5t-91.5 -51t-75 -47
h-42l49 210q52 18 99.5 31t95 21t96.5 12t104 4t117 -10t115 -36t88 -70t35 -113q0 -19 -1.5 -38t-4 -38t-6 -37.5t-7.5 -36.5l-58 -256q-6 -24 -11.5 -47.5t-10 -47t-7 -47.5t-2.5 -48q0 -17 8 -31t20.5 -24t28.5 -15.5t32 -5.5q10 0 22.5 3t25.5 7t25.5 9t21.5 9h25v-66
q-33 -20 -68 -33.5t-71.5 -22t-74 -12.5t-74.5 -4t-71 9.5t-60.5 28.5t-43.5 48t-20 69v0q-32 -39 -64 -68.5t-68 -49.5t-78 -30.5t-94 -10.5zM404 131q54 0 98 22t77 64l65 283q-65 0 -127.5 -7.5t-111.5 -33t-78.5 -73.5t-29.5 -129q0 -26 5.5 -49t18.5 -40t33.5 -27
t49.5 -10zM533 -449q-35 0 -65 12.5t-52 34t-35 51t-13 63.5q0 33 13 62t35 50.5t52 34t65 12.5t65.5 -12.5t53.5 -34t36 -50.5t13 -62q0 -34 -13 -63.5t-36 -51t-53.5 -34t-65.5 -12.5z" />
    <glyph glyph-name="uni1EAD" unicode="&#x1ead;" horiz-adv-x="1070" 
d="M267 -18q-56 0 -102 18t-78.5 50.5t-50 78.5t-17.5 102q0 68 20.5 121.5t55.5 94.5t82.5 70t102 47t113.5 26.5t117 8.5q18 0 37 -1.5t37.5 -3.5t37.5 -4.5t37 -5.5l8 36t7 36t5 36.5t2 36.5q0 69 -35.5 107t-105.5 38q-37 0 -83.5 -16.5t-94 -40.5t-91.5 -51t-75 -47
h-42l49 210q52 18 99.5 31t95 21t96.5 12t104 4t117 -10t115 -36t88 -70t35 -113q0 -19 -1.5 -38t-4 -38t-6 -37.5t-7.5 -36.5l-58 -256q-6 -24 -11.5 -47.5t-10 -47t-7 -47.5t-2.5 -48q0 -17 8 -31t20.5 -24t28.5 -15.5t32 -5.5q10 0 22.5 3t25.5 7t25.5 9t21.5 9h25v-66
q-33 -20 -68 -33.5t-71.5 -22t-74 -12.5t-74.5 -4t-71 9.5t-60.5 28.5t-43.5 48t-20 69v0q-32 -39 -64 -68.5t-68 -49.5t-78 -30.5t-94 -10.5zM404 131q54 0 98 22t77 64l65 283q-65 0 -127.5 -7.5t-111.5 -33t-78.5 -73.5t-29.5 -129q0 -26 5.5 -49t18.5 -40t33.5 -27
t49.5 -10zM254 1106l246 289q34 39 71.5 59.5t82.5 20.5t77 -20t52 -60l143 -288l-52 -35l-240 230l-329 -232zM533 -449q-35 0 -65 12.5t-52 34t-35 51t-13 63.5q0 33 13 62t35 50.5t52 34t65 12.5t65.5 -12.5t53.5 -34t36 -50.5t13 -62q0 -34 -13 -63.5t-36 -51t-53.5 -34
t-65.5 -12.5z" />
    <glyph glyph-name="uni1EB7" unicode="&#x1eb7;" horiz-adv-x="1070" 
d="M267 -18q-56 0 -102 18t-78.5 50.5t-50 78.5t-17.5 102q0 68 20.5 121.5t55.5 94.5t82.5 70t102 47t113.5 26.5t117 8.5q18 0 37 -1.5t37.5 -3.5t37.5 -4.5t37 -5.5l8 36t7 36t5 36.5t2 36.5q0 69 -35.5 107t-105.5 38q-37 0 -83.5 -16.5t-94 -40.5t-91.5 -51t-75 -47
h-42l49 210q52 18 99.5 31t95 21t96.5 12t104 4t117 -10t115 -36t88 -70t35 -113q0 -19 -1.5 -38t-4 -38t-6 -37.5t-7.5 -36.5l-58 -256q-6 -24 -11.5 -47.5t-10 -47t-7 -47.5t-2.5 -48q0 -17 8 -31t20.5 -24t28.5 -15.5t32 -5.5q10 0 22.5 3t25.5 7t25.5 9t21.5 9h25v-66
q-33 -20 -68 -33.5t-71.5 -22t-74 -12.5t-74.5 -4t-71 9.5t-60.5 28.5t-43.5 48t-20 69v0q-32 -39 -64 -68.5t-68 -49.5t-78 -30.5t-94 -10.5zM404 131q54 0 98 22t77 64l65 283q-65 0 -127.5 -7.5t-111.5 -33t-78.5 -73.5t-29.5 -129q0 -26 5.5 -49t18.5 -40t33.5 -27
t49.5 -10zM618 1100q-55 0 -104 16.5t-85.5 56t-57 104.5t-17.5 163l86 17q7 -55 19.5 -92.5t35.5 -60.5t58.5 -33t88.5 -10q51 0 89 9.5t68 32.5t55 60.5t51 93.5l86 -17q-31 -98 -71.5 -163.5t-88.5 -104.5t-102 -55.5t-111 -16.5zM533 -449q-35 0 -65 12.5t-52 34t-35 51
t-13 63.5q0 33 13 62t35 50.5t52 34t65 12.5t65.5 -12.5t53.5 -34t36 -50.5t13 -62q0 -34 -13 -63.5t-36 -51t-53.5 -34t-65.5 -12.5z" />
    <glyph glyph-name="aogonek" unicode="&#x105;" horiz-adv-x="1070" 
d="M678 -444q-36 0 -74 9t-68.5 28.5t-50 50t-19.5 73.5q0 45 20 84.5t52 74.5t72 65t81 56q-49 14 -82 49.5t-38 94.5v0q-32 -39 -64 -68.5t-68 -49.5t-78 -30.5t-94 -10.5q-56 0 -102 18t-78.5 50.5t-50 78.5t-17.5 102q0 68 20.5 121.5t55.5 94.5t82.5 70t102 47
t113.5 26.5t117 8.5q18 0 37 -1.5t37.5 -4t37.5 -5t37 -4.5l8 36t7 36t5 36.5t2 36.5q0 69 -35.5 107t-105.5 38q-37 0 -83.5 -16.5t-94 -40.5t-91.5 -51t-75 -47h-42l49 210q52 18 99.5 30.5t95 21t96.5 12.5t104 4t117 -10t115 -35.5t88 -70t35 -113.5q0 -19 -1.5 -38
t-4 -38t-6 -37.5t-7.5 -36.5l-58 -256q-5 -23 -10.5 -46.5t-10 -47.5t-7.5 -48t-3 -48q0 -17 8 -31t20.5 -24t28.5 -15.5t32 -5.5q10 0 22.5 3t25.5 7t25.5 9t21.5 9h25v-66q-31 -19 -64.5 -32.5t-68.5 -22t-71.5 -13t-72.5 -4.5q-26 -23 -48.5 -50t-39.5 -56.5t-26.5 -62
t-9.5 -66.5q0 -45 25 -66.5t69 -21.5q23 0 48 6t45 16h31l-16 -89q-18 -7 -40.5 -14t-46.5 -13t-47.5 -9.5t-42.5 -3.5zM404 131q54 0 98 22t77 64l65 283q-65 0 -127.5 -7.5t-111.5 -33t-78.5 -73.5t-29.5 -129q0 -26 5.5 -49t18.5 -40t33.5 -27t49.5 -10z" />
    <glyph glyph-name="ae" unicode="&#xe6;" horiz-adv-x="1515" 
d="M997 -20q-66 0 -119.5 16.5t-95.5 45t-73 67.5t-52 85v0q-48 -66 -95.5 -107t-95.5 -64.5t-97.5 -32t-101.5 -8.5q-56 0 -102 18t-78.5 50.5t-50 78.5t-17.5 102q0 68 20 121.5t55.5 93.5t82.5 68.5t101.5 46t113.5 25.5t117 8q18 0 37 -1.5t37.5 -3.5t37.5 -4.5t37 -5.5
q4 18 8.5 36.5t7.5 37.5t5 38.5t2 37.5q0 69 -35.5 107t-105.5 38q-37 0 -83.5 -16.5t-94 -40.5t-91.5 -51t-75 -47h-42l49 210q52 18 99.5 31t95 21t96.5 12t104 4q37 0 78 -6t80.5 -19t75.5 -32.5t63 -47.5q70 48 152 76.5t175 28.5q47 0 98 -9.5t93 -32.5t69.5 -61
t27.5 -96q0 -60 -21.5 -108t-57.5 -84.5t-83.5 -63t-100 -43t-107 -24.5t-103.5 -8q-35 0 -70.5 3.5t-70.5 9.5q-3 -19 -5 -35.5t-2 -35.5q0 -56 12 -105t38.5 -86.5t69 -59t103.5 -21.5q44 0 86.5 6.5t84 19t81 31t76.5 42.5h32l-20 -90q-59 -44 -109 -75.5t-101.5 -51.5
t-110.5 -29.5t-134 -9.5zM976 560q58 0 107.5 11.5t86.5 38.5t58 70.5t21 108.5q0 24 -7 44.5t-20.5 34.5t-33.5 22t-45 8q-17 0 -32.5 -7.5t-29.5 -16.5q-36 -24 -64 -60.5t-49 -79t-35.5 -87.5t-23.5 -86q17 -1 33.5 -1h33.5zM404 131q54 0 100 22t79 64l61 283
q-65 0 -127.5 -7.5t-111.5 -33t-78.5 -73.5t-29.5 -129q0 -26 5.5 -49t18.5 -40t33.5 -27t49.5 -10z" />
    <glyph glyph-name="aeacute" unicode="&#x1fd;" horiz-adv-x="1515" 
d="M997 -20q-66 0 -119.5 16.5t-95.5 45t-73 67.5t-52 85v0q-48 -66 -95.5 -107t-95.5 -64.5t-97.5 -32t-101.5 -8.5q-56 0 -102 18t-78.5 50.5t-50 78.5t-17.5 102q0 68 20 121.5t55.5 93.5t82.5 68.5t101.5 46t113.5 25.5t117 8q18 0 37 -1.5t37.5 -3.5t37.5 -4.5t37 -5.5
q4 18 8.5 36.5t7.5 37.5t5 38.5t2 37.5q0 69 -35.5 107t-105.5 38q-37 0 -83.5 -16.5t-94 -40.5t-91.5 -51t-75 -47h-42l49 210q52 18 99.5 31t95 21t96.5 12t104 4q37 0 78 -6t80.5 -19t75.5 -32.5t63 -47.5q70 48 152 76.5t175 28.5q47 0 98 -9.5t93 -32.5t69.5 -61
t27.5 -96q0 -60 -21.5 -108t-57.5 -84.5t-83.5 -63t-100 -43t-107 -24.5t-103.5 -8q-35 0 -70.5 3.5t-70.5 9.5q-3 -19 -5 -35.5t-2 -35.5q0 -56 12 -105t38.5 -86.5t69 -59t103.5 -21.5q44 0 86.5 6.5t84 19t81 31t76.5 42.5h32l-20 -90q-59 -44 -109 -75.5t-101.5 -51.5
t-110.5 -29.5t-134 -9.5zM976 560q58 0 107.5 11.5t86.5 38.5t58 70.5t21 108.5q0 24 -7 44.5t-20.5 34.5t-33.5 22t-45 8q-17 0 -32.5 -7.5t-29.5 -16.5q-36 -24 -64 -60.5t-49 -79t-35.5 -87.5t-23.5 -86q17 -1 33.5 -1h33.5zM404 131q54 0 100 22t79 64l61 283
q-65 0 -127.5 -7.5t-111.5 -33t-78.5 -73.5t-29.5 -129q0 -26 5.5 -49t18.5 -40t33.5 -27t49.5 -10zM654 1112q54 72 106 143t106 143q17 22 33.5 39t34.5 27.5t40 16t51 5.5q19 0 37.5 -5.5t33 -16.5t23.5 -27t9 -37q0 -22 -7.5 -39.5t-19.5 -31.5t-28 -26t-32 -22
q-85 -53 -168 -104.5t-167 -102.5z" />
    <glyph glyph-name="cacute" unicode="&#x107;" horiz-adv-x="860" 
d="M439 -20q-87 0 -159.5 30t-125.5 83t-82.5 126t-29.5 160t20.5 170.5t61 156.5t101 132.5t140.5 100.5q54 27 111.5 42t117.5 15q36 0 76.5 -5t80 -15t76.5 -25.5t66 -37.5l-73 -178h-29q-34 22 -71 43.5t-76.5 38.5t-80.5 27.5t-83 10.5q-7 0 -15.5 -5.5t-16 -13
t-14 -15.5t-9.5 -12q-26 -35 -44.5 -82t-30.5 -98.5t-18 -103t-6 -93.5q0 -51 10 -103.5t34 -95t64.5 -69.5t102.5 -27q39 0 73.5 6.5t66.5 19t63 29.5t63 38h31l-22 -91q-42 -38 -84 -68t-87 -50t-94.5 -30.5t-107.5 -10.5zM338 1112q54 72 106 143t106 143q17 22 33.5 39
t34.5 27.5t40 16t51 5.5q19 0 37.5 -5.5t33 -16.5t23.5 -27t9 -37q0 -22 -7.5 -39.5t-19.5 -31.5t-28 -26t-32 -22q-85 -53 -168 -104.5t-167 -102.5z" />
    <glyph glyph-name="ccircumflex" unicode="&#x109;" horiz-adv-x="860" 
d="M439 -20q-87 0 -159.5 30t-125.5 83t-82.5 126t-29.5 160t20.5 170.5t61 156.5t101 132.5t140.5 100.5q54 27 111.5 42t117.5 15q36 0 76.5 -5t80 -15t76.5 -25.5t66 -37.5l-73 -178h-29q-34 22 -71 43.5t-76.5 38.5t-80.5 27.5t-83 10.5q-7 0 -15.5 -5.5t-16 -13
t-14 -15.5t-9.5 -12q-26 -35 -44.5 -82t-30.5 -98.5t-18 -103t-6 -93.5q0 -51 10 -103.5t34 -95t64.5 -69.5t102.5 -27q39 0 73.5 6.5t66.5 19t63 29.5t63 38h31l-22 -91q-42 -38 -84 -68t-87 -50t-94.5 -30.5t-107.5 -10.5zM242 1106l246 289q34 39 71.5 59.5t82.5 20.5
t77 -20t52 -60l143 -288l-52 -35l-240 230l-329 -232z" />
    <glyph glyph-name="ccaron" unicode="&#x10d;" horiz-adv-x="860" 
d="M439 -20q-87 0 -159.5 30t-125.5 83t-82.5 126t-29.5 160t20.5 170.5t61 156.5t101 132.5t140.5 100.5q54 27 111.5 42t117.5 15q36 0 76.5 -5t80 -15t76.5 -25.5t66 -37.5l-73 -178h-29q-34 22 -71 43.5t-76.5 38.5t-80.5 27.5t-83 10.5q-7 0 -15.5 -5.5t-16 -13
t-14 -15.5t-9.5 -12q-26 -35 -44.5 -82t-30.5 -98.5t-18 -103t-6 -93.5q0 -51 10 -103.5t34 -95t64.5 -69.5t102.5 -27q39 0 73.5 6.5t66.5 19t63 29.5t63 38h31l-22 -91q-42 -38 -84 -68t-87 -50t-94.5 -30.5t-107.5 -10.5zM577 1073q-45 0 -77.5 20t-52.5 60l-142 288
l51 35l241 -230l329 232l51 -36l-247 -289q-33 -39 -70.5 -59.5t-82.5 -20.5z" />
    <glyph glyph-name="cdotaccent" unicode="&#x10b;" horiz-adv-x="860" 
d="M439 -20q-87 0 -159.5 30t-125.5 83t-82.5 126t-29.5 160t20.5 170.5t61 156.5t101 132.5t140.5 100.5q54 27 111.5 42t117.5 15q36 0 76.5 -5t80 -15t76.5 -25.5t66 -37.5l-73 -178h-29q-34 22 -71 43.5t-76.5 38.5t-80.5 27.5t-83 10.5q-7 0 -15.5 -5.5t-16 -13
t-14 -15.5t-9.5 -12q-26 -35 -44.5 -82t-30.5 -98.5t-18 -103t-6 -93.5q0 -51 10 -103.5t34 -95t64.5 -69.5t102.5 -27q39 0 73.5 6.5t66.5 19t63 29.5t63 38h31l-22 -91q-42 -38 -84 -68t-87 -50t-94.5 -30.5t-107.5 -10.5zM577 1188q-35 0 -64.5 12t-51.5 33.5t-34.5 50.5
t-12.5 63q0 33 12.5 61.5t34.5 49.5t51.5 33.5t64.5 12.5q34 0 64.5 -12.5t53 -33.5t35.5 -49.5t13 -61.5q0 -34 -13 -63t-35.5 -50.5t-53 -33.5t-64.5 -12z" />
    <glyph glyph-name="ccedilla" unicode="&#xe7;" horiz-adv-x="860" 
d="M338 -447q-48 0 -96.5 12.5t-90.5 37.5l25 91h23q31 -23 69 -36t76 -13q22 0 42.5 5t36.5 16.5t25.5 29t9.5 42.5q0 23 -14.5 36t-35 19t-43.5 7.5t-39 1.5l53 182q-75 10 -137 43.5t-106.5 85t-69 119.5t-24.5 147q0 87 20.5 170.5t61.5 156t101 132.5t140 101
q54 27 111.5 42t117.5 15q36 0 76.5 -5t80 -15t76.5 -25.5t66 -37.5l-73 -178h-29q-34 22 -71 43.5t-76.5 38.5t-80.5 27.5t-83 10.5q-7 0 -15.5 -5.5t-16 -13t-14 -15.5t-9.5 -12q-26 -35 -44.5 -82t-30.5 -98.5t-18 -103t-6 -93.5q0 -51 10 -103.5t34 -95t64.5 -69.5
t102.5 -27q39 0 73.5 6.5t66.5 19t63 29.5t63 38h31l-22 -91q-40 -36 -79.5 -64.5t-82 -49t-88.5 -32t-100 -13.5l-23 -73q32 0 65 -7.5t59.5 -23.5t43.5 -42.5t17 -63.5q0 -59 -25.5 -100t-66.5 -67t-92 -38t-102 -12z" />
    <glyph glyph-name="dcaron" unicode="&#x10f;" horiz-adv-x="1161" 
d="M343 -18q-73 0 -129 27.5t-94.5 76.5t-58 117t-19.5 148q0 79 16.5 157.5t48 150.5t77.5 133.5t104.5 107t128.5 71.5t150 26q41 0 78.5 -9.5t69 -25t55 -34.5t36.5 -37l8 53l71 328q5 26 -4.5 44.5t-40.5 29.5l-82 30l-1 48l445 87l-250 -1149q-6 -30 -12 -58t-10 -53
t-6.5 -45t-2.5 -34q0 -10 5 -23t15.5 -25t27.5 -20t41 -8q6 0 17 2t24.5 6t27.5 9t26 11h25v-66q-24 -15 -52.5 -28t-64 -22.5t-78 -15.5t-93.5 -6q-41 0 -76 10.5t-61.5 31t-42.5 50.5t-18 68v0q-45 -52 -82 -84t-72 -50t-70.5 -24t-76.5 -6zM490 146q24 0 47.5 4.5
t44.5 14t39.5 24t33.5 33.5l135 607q-34 23 -79 34t-87 11q-55 0 -98 -25t-75.5 -66t-55.5 -93.5t-37 -107.5t-20.5 -108.5t-6.5 -96.5q0 -39 6.5 -80t24.5 -74.5t49 -55t79 -21.5zM1280 1142q27 19 52 38.5t46.5 40.5t39 44.5t29.5 51.5q-33 24 -53.5 39t-31 27t-14 23.5
t-3.5 26.5q0 29 11.5 51.5t30.5 38t43 23.5t48 8q40 0 63.5 -12.5t36 -30t16 -36.5t3.5 -33q0 -50 -15.5 -92t-40.5 -76.5t-56 -62.5t-62.5 -49.5t-61 -37.5t-49.5 -27z" />
    <glyph glyph-name="dcroat" unicode="&#x111;" horiz-adv-x="1161" 
d="M1116 1116l-145 -666q-9 -42 -17.5 -83.5t-16 -78t-12 -67t-4.5 -49.5q0 -10 5 -23t15.5 -25t27.5 -20t41 -8q6 0 17 2t24.5 6t27.5 9t26 11h25v-66q-24 -15 -52.5 -28t-64 -22.5t-78 -15.5t-93.5 -6q-41 0 -76 10.5t-61.5 31t-42.5 50.5t-18 68v0q-49 -59 -90.5 -92
t-78 -49t-69 -19.5t-63.5 -3.5q-73 0 -129 27.5t-94.5 76.5t-58 117t-19.5 148q0 79 16.5 157.5t48 150.5t77.5 133.5t104.5 107t128.5 71.5t150 26q41 0 78.5 -9.5t69 -25t55 -34.5t36.5 -37l48 225h-329l24 110h326l10 46q5 26 -5 44.5t-40 29.5l-82 30l-1 48l445 87
l-62 -285h154l-24 -110h-154zM490 146q24 0 47.5 4.5t44.5 14t39.5 24t33.5 33.5l135 607q-34 23 -79 34t-87 11q-55 0 -98 -25t-75.5 -66t-55.5 -93.5t-37 -107.5t-20.5 -108.5t-6.5 -96.5q0 -39 6.5 -80t24.5 -74.5t49 -55t79 -21.5z" />
    <glyph glyph-name="egrave" unicode="&#xe8;" horiz-adv-x="945" 
d="M427 -20q-59 0 -110 13.5t-93.5 39t-76 61t-56.5 80t-35 97t-12 110.5q0 85 21 164t59.5 147.5t93.5 124.5t122.5 96t146 62t165.5 22q47 0 98 -9.5t93 -32.5t69.5 -61t27.5 -96q0 -60 -21.5 -107.5t-57.5 -83.5t-83.5 -61t-100 -41t-107 -23.5t-103.5 -7.5
q-35 0 -70.5 2.5t-70.5 8.5q-3 -19 -5 -38t-2 -38q0 -56 12 -105t38.5 -86.5t69 -59t103.5 -21.5q44 0 86.5 6.5t84 19t81 31t76.5 42.5h32l-20 -90q-59 -44 -109 -75.5t-101.5 -51.5t-110.5 -29.5t-134 -9.5zM406 560q58 0 107.5 11.5t86.5 38.5t58 70.5t21 108.5
q0 49 -27.5 79t-78.5 30q-17 0 -32.5 -7.5t-29.5 -16.5q-36 -24 -64 -60.5t-49 -79t-35.5 -87.5t-23.5 -86q17 -1 33.5 -1h33.5zM771 1074q-39 25 -78.5 49.5t-78.5 49t-77.5 50t-76.5 54.5q-30 22 -54 47.5t-24 64.5q0 23 9.5 41t25 30.5t36 19t41.5 6.5q28 0 48.5 -5
t37 -15t31 -26t30.5 -38q24 -35 47.5 -71t46.5 -73t45.5 -73.5t45.5 -72.5l-55 -38v0z" />
    <glyph glyph-name="eacute" unicode="&#xe9;" horiz-adv-x="945" 
d="M427 -20q-59 0 -110 13.5t-93.5 39t-76 61t-56.5 80t-35 97t-12 110.5q0 85 21 164t59.5 147.5t93.5 124.5t122.5 96t146 62t165.5 22q47 0 98 -9.5t93 -32.5t69.5 -61t27.5 -96q0 -60 -21.5 -107.5t-57.5 -83.5t-83.5 -61t-100 -41t-107 -23.5t-103.5 -7.5
q-35 0 -70.5 2.5t-70.5 8.5q-3 -19 -5 -38t-2 -38q0 -56 12 -105t38.5 -86.5t69 -59t103.5 -21.5q44 0 86.5 6.5t84 19t81 31t76.5 42.5h32l-20 -90q-59 -44 -109 -75.5t-101.5 -51.5t-110.5 -29.5t-134 -9.5zM406 560q58 0 107.5 11.5t86.5 38.5t58 70.5t21 108.5
q0 49 -27.5 79t-78.5 30q-17 0 -32.5 -7.5t-29.5 -16.5q-36 -24 -64 -60.5t-49 -79t-35.5 -87.5t-23.5 -86q17 -1 33.5 -1h33.5zM465 1112q54 72 106 143t106 143q17 22 33.5 39t34.5 27.5t40 16t51 5.5q19 0 37.5 -5.5t33 -16.5t23.5 -27t9 -37q0 -22 -7.5 -39.5
t-19.5 -31.5t-28 -26t-32 -22q-85 -53 -168 -104.5t-167 -102.5z" />
    <glyph glyph-name="ecircumflex" unicode="&#xea;" horiz-adv-x="945" 
d="M427 -20q-59 0 -110 13.5t-93.5 39t-76 61t-56.5 80t-35 97t-12 110.5q0 85 21 164t59.5 147.5t93.5 124.5t122.5 96t146 62t165.5 22q47 0 98 -9.5t93 -32.5t69.5 -61t27.5 -96q0 -60 -21.5 -107.5t-57.5 -83.5t-83.5 -61t-100 -41t-107 -23.5t-103.5 -7.5
q-35 0 -70.5 2.5t-70.5 8.5q-3 -19 -5 -38t-2 -38q0 -56 12 -105t38.5 -86.5t69 -59t103.5 -21.5q44 0 86.5 6.5t84 19t81 31t76.5 42.5h32l-20 -90q-59 -44 -109 -75.5t-101.5 -51.5t-110.5 -29.5t-134 -9.5zM406 560q58 0 107.5 11.5t86.5 38.5t58 70.5t21 108.5
q0 49 -27.5 79t-78.5 30q-17 0 -32.5 -7.5t-29.5 -16.5q-36 -24 -64 -60.5t-49 -79t-35.5 -87.5t-23.5 -86q17 -1 33.5 -1h33.5zM307 1106l246 289q34 39 71.5 59.5t82.5 20.5t77 -20t52 -60l143 -288l-52 -35l-240 230l-329 -232z" />
    <glyph glyph-name="uni1EBF" unicode="&#x1ebf;" horiz-adv-x="945" 
d="M427 -20q-59 0 -110 13.5t-93.5 39t-76 61t-56.5 80t-35 97t-12 110.5q0 85 21 164t59.5 147.5t93.5 124.5t122.5 96t146 62t165.5 22q47 0 98 -9.5t93 -32.5t69.5 -61t27.5 -96q0 -60 -21.5 -107.5t-57.5 -83.5t-83.5 -61t-100 -41t-107 -23.5t-103.5 -7.5
q-35 0 -70.5 2.5t-70.5 8.5q-3 -19 -5 -38t-2 -38q0 -56 12 -105t38.5 -86.5t69 -59t103.5 -21.5q44 0 86.5 6.5t84 19t81 31t76.5 42.5h32l-20 -90q-59 -44 -109 -75.5t-101.5 -51.5t-110.5 -29.5t-134 -9.5zM406 560q58 0 107.5 11.5t86.5 38.5t58 70.5t21 108.5
q0 49 -27.5 79t-78.5 30q-17 0 -32.5 -7.5t-29.5 -16.5q-36 -24 -64 -60.5t-49 -79t-35.5 -87.5t-23.5 -86q17 -1 33.5 -1h33.5zM943 1358l88 231q11 29 24 48.5t29.5 31t36.5 16.5t45 5q21 0 39 -6t31.5 -18t21.5 -29.5t8 -40.5t-14.5 -49t-50.5 -55l-206 -168zM306 1107
l246 289q34 39 71.5 59.5t82.5 20.5t77 -20t52 -60l143 -288l-52 -35l-240 230l-329 -232z" />
    <glyph glyph-name="uni1EC1" unicode="&#x1ec1;" horiz-adv-x="945" 
d="M427 -20q-59 0 -110 13.5t-93.5 39t-76 61t-56.5 80t-35 97t-12 110.5q0 85 21 164t59.5 147.5t93.5 124.5t122.5 96t146 62t165.5 22q47 0 98 -9.5t93 -32.5t69.5 -61t27.5 -96q0 -60 -21.5 -107.5t-57.5 -83.5t-83.5 -61t-100 -41t-107 -23.5t-103.5 -7.5
q-35 0 -70.5 2.5t-70.5 8.5q-3 -19 -5 -38t-2 -38q0 -56 12 -105t38.5 -86.5t69 -59t103.5 -21.5q44 0 86.5 6.5t84 19t81 31t76.5 42.5h32l-20 -90q-59 -44 -109 -75.5t-101.5 -51.5t-110.5 -29.5t-134 -9.5zM406 560q58 0 107.5 11.5t86.5 38.5t58 70.5t21 108.5
q0 49 -27.5 79t-78.5 30q-17 0 -32.5 -7.5t-29.5 -16.5q-36 -24 -64 -60.5t-49 -79t-35.5 -87.5t-23.5 -86q17 -1 33.5 -1h33.5zM338 1324l-206 168q-36 29 -50.5 55t-14.5 49t8 40.5t21.5 29.5t31.5 18t39 6q25 0 45 -5t36.5 -16.5t29.5 -31t24 -48.5l88 -231zM306 1107
l246 289q34 39 71.5 59.5t82.5 20.5t77 -20t52 -60l143 -288l-52 -35l-240 230l-329 -232z" />
    <glyph glyph-name="uni1EC3" unicode="&#x1ec3;" horiz-adv-x="945" 
d="M427 -20q-59 0 -110 13.5t-93.5 39t-76 61t-56.5 80t-35 97t-12 110.5q0 85 21 164t59.5 147.5t93.5 124.5t122.5 96t146 62t165.5 22q47 0 98 -9.5t93 -32.5t69.5 -61t27.5 -96q0 -60 -21.5 -107.5t-57.5 -83.5t-83.5 -61t-100 -41t-107 -23.5t-103.5 -7.5
q-35 0 -70.5 2.5t-70.5 8.5q-3 -19 -5 -38t-2 -38q0 -56 12 -105t38.5 -86.5t69 -59t103.5 -21.5q44 0 86.5 6.5t84 19t81 31t76.5 42.5h32l-20 -90q-59 -44 -109 -75.5t-101.5 -51.5t-110.5 -29.5t-134 -9.5zM406 560q58 0 107.5 11.5t86.5 38.5t58 70.5t21 108.5
q0 49 -27.5 79t-78.5 30q-17 0 -32.5 -7.5t-29.5 -16.5q-36 -24 -64 -60.5t-49 -79t-35.5 -87.5t-23.5 -86q17 -1 33.5 -1h33.5zM1099 1624q36 0 63.5 -6.5t47 -18t29.5 -27.5t10 -36q0 -27 -10 -47.5t-25 -37.5t-33.5 -32t-35.5 -30.5t-30 -34t-18 -41.5l-5 -22h-122l6 27
q5 26 16.5 44t25.5 31.5t29 24.5t27 22.5t20 25.5t8 33q0 16 -9 28.5t-36 12.5q-29 0 -49.5 -14.5t-38.5 -31.5h-43l21 96q9 4 23.5 10t34 11t43.5 9t51 4v0zM306 1107l246 289q34 39 71.5 59.5t82.5 20.5t77 -20t52 -60l143 -288l-52 -35l-240 230l-329 -232z" />
    <glyph glyph-name="uni1EC5" unicode="&#x1ec5;" horiz-adv-x="945" 
d="M427 -20q-59 0 -110 13.5t-93.5 39t-76 61t-56.5 80t-35 97t-12 110.5q0 85 21 164t59.5 147.5t93.5 124.5t122.5 96t146 62t165.5 22q47 0 98 -9.5t93 -32.5t69.5 -61t27.5 -96q0 -60 -21.5 -107.5t-57.5 -83.5t-83.5 -61t-100 -41t-107 -23.5t-103.5 -7.5
q-35 0 -70.5 2.5t-70.5 8.5q-3 -19 -5 -38t-2 -38q0 -56 12 -105t38.5 -86.5t69 -59t103.5 -21.5q44 0 86.5 6.5t84 19t81 31t76.5 42.5h32l-20 -90q-59 -44 -109 -75.5t-101.5 -51.5t-110.5 -29.5t-134 -9.5zM406 560q58 0 107.5 11.5t86.5 38.5t58 70.5t21 108.5
q0 49 -27.5 79t-78.5 30q-17 0 -32.5 -7.5t-29.5 -16.5q-36 -24 -64 -60.5t-49 -79t-35.5 -87.5t-23.5 -86q17 -1 33.5 -1h33.5zM305 1107l248 274q34 39 71.5 59.5t82.5 20.5t77 -20t52 -60l141 -273l-52 -35l-238 217l-331 -219zM381 1476q16 60 43 110t62.5 86t78 56
t89.5 20q32 0 65 -12.5t78 -37.5q45 -26 74.5 -35.5t46.5 -9.5q55 0 82 29t45 80h74q-15 -59 -41 -109t-60.5 -86t-76.5 -56t-90 -20q-17 0 -31 2t-29.5 8t-34 16t-45.5 26q-43 26 -74 36t-49 10q-56 0 -85.5 -30.5t-47.5 -82.5h-74z" />
    <glyph glyph-name="ecaron" unicode="&#x11b;" horiz-adv-x="945" 
d="M427 -20q-59 0 -110 13.5t-93.5 39t-76 61t-56.5 80t-35 97t-12 110.5q0 85 21 164t59.5 147.5t93.5 124.5t122.5 96t146 62t165.5 22q47 0 98 -9.5t93 -32.5t69.5 -61t27.5 -96q0 -60 -21.5 -107.5t-57.5 -83.5t-83.5 -61t-100 -41t-107 -23.5t-103.5 -7.5
q-35 0 -70.5 2.5t-70.5 8.5q-3 -19 -5 -38t-2 -38q0 -56 12 -105t38.5 -86.5t69 -59t103.5 -21.5q44 0 86.5 6.5t84 19t81 31t76.5 42.5h32l-20 -90q-59 -44 -109 -75.5t-101.5 -51.5t-110.5 -29.5t-134 -9.5zM406 560q58 0 107.5 11.5t86.5 38.5t58 70.5t21 108.5
q0 49 -27.5 79t-78.5 30q-17 0 -32.5 -7.5t-29.5 -16.5q-36 -24 -64 -60.5t-49 -79t-35.5 -87.5t-23.5 -86q17 -1 33.5 -1h33.5zM643 1073q-45 0 -77.5 20t-52.5 60l-142 288l51 35l241 -230l329 232l51 -36l-247 -289q-33 -39 -70.5 -59.5t-82.5 -20.5z" />
    <glyph glyph-name="uni1EBD" unicode="&#x1ebd;" horiz-adv-x="945" 
d="M427 -20q-59 0 -110 13.5t-93.5 39t-76 61t-56.5 80t-35 97t-12 110.5q0 85 21 164t59.5 147.5t93.5 124.5t122.5 96t146 62t165.5 22q47 0 98 -9.5t93 -32.5t69.5 -61t27.5 -96q0 -60 -21.5 -107.5t-57.5 -83.5t-83.5 -61t-100 -41t-107 -23.5t-103.5 -7.5
q-35 0 -70.5 2.5t-70.5 8.5q-3 -19 -5 -38t-2 -38q0 -56 12 -105t38.5 -86.5t69 -59t103.5 -21.5q44 0 86.5 6.5t84 19t81 31t76.5 42.5h32l-20 -90q-59 -44 -109 -75.5t-101.5 -51.5t-110.5 -29.5t-134 -9.5zM406 560q58 0 107.5 11.5t86.5 38.5t58 70.5t21 108.5
q0 49 -27.5 79t-78.5 30q-17 0 -32.5 -7.5t-29.5 -16.5q-36 -24 -64 -60.5t-49 -79t-35.5 -87.5t-23.5 -86q17 -1 33.5 -1h33.5zM251 1130q16 60 43 110t62.5 86t78 56t89.5 20q32 0 65 -12.5t78 -37.5q45 -26 74.5 -35.5t46.5 -9.5q55 0 82 29t45 80h74q-15 -59 -41 -109
t-60.5 -86t-76.5 -56t-90 -20q-17 0 -31 2t-29.5 8t-34 16t-45.5 26q-43 26 -74 36t-49 10q-56 0 -85.5 -30.5t-47.5 -82.5h-74v0z" />
    <glyph glyph-name="edieresis" unicode="&#xeb;" horiz-adv-x="945" 
d="M427 -20q-59 0 -110 13.5t-93.5 39t-76 61t-56.5 80t-35 97t-12 110.5q0 85 21 164t59.5 147.5t93.5 124.5t122.5 96t146 62t165.5 22q47 0 98 -9.5t93 -32.5t69.5 -61t27.5 -96q0 -60 -21.5 -107.5t-57.5 -83.5t-83.5 -61t-100 -41t-107 -23.5t-103.5 -7.5
q-35 0 -70.5 2.5t-70.5 8.5q-3 -19 -5 -38t-2 -38q0 -56 12 -105t38.5 -86.5t69 -59t103.5 -21.5q44 0 86.5 6.5t84 19t81 31t76.5 42.5h32l-20 -90q-59 -44 -109 -75.5t-101.5 -51.5t-110.5 -29.5t-134 -9.5zM406 560q58 0 107.5 11.5t86.5 38.5t58 70.5t21 108.5
q0 49 -27.5 79t-78.5 30q-17 0 -32.5 -7.5t-29.5 -16.5q-36 -24 -64 -60.5t-49 -79t-35.5 -87.5t-23.5 -86q17 -1 33.5 -1h33.5zM442 1126q-27 0 -51 10t-42 28t-28 42t-10 52t10 52t28 42t42 28t51 10q28 0 52.5 -10t43 -28t29 -42t10.5 -52t-10.5 -52t-29 -42t-43 -28
t-52.5 -10zM882 1126q-27 0 -51 10t-42 28t-28 42t-10 52t10 52t28 42t42 28t51 10q28 0 52.5 -10t43 -28t29 -42t10.5 -52t-10.5 -52t-29 -42t-43 -28t-52.5 -10z" />
    <glyph glyph-name="emacron" unicode="&#x113;" horiz-adv-x="945" 
d="M427 -20q-59 0 -110 13.5t-93.5 39t-76 61t-56.5 80t-35 97t-12 110.5q0 85 21 164t59.5 147.5t93.5 124.5t122.5 96t146 62t165.5 22q47 0 98 -9.5t93 -32.5t69.5 -61t27.5 -96q0 -60 -21.5 -107.5t-57.5 -83.5t-83.5 -61t-100 -41t-107 -23.5t-103.5 -7.5
q-35 0 -70.5 2.5t-70.5 8.5q-3 -19 -5 -38t-2 -38q0 -56 12 -105t38.5 -86.5t69 -59t103.5 -21.5q44 0 86.5 6.5t84 19t81 31t76.5 42.5h32l-20 -90q-59 -44 -109 -75.5t-101.5 -51.5t-110.5 -29.5t-134 -9.5zM406 560q58 0 107.5 11.5t86.5 38.5t58 70.5t21 108.5
q0 49 -27.5 79t-78.5 30q-17 0 -32.5 -7.5t-29.5 -16.5q-36 -24 -64 -60.5t-49 -79t-35.5 -87.5t-23.5 -86q17 -1 33.5 -1h33.5zM348 1314h624l-35 -143h-624z" />
    <glyph glyph-name="ebreve" unicode="&#x115;" horiz-adv-x="945" 
d="M427 -20q-59 0 -110 13.5t-93.5 39t-76 61t-56.5 80t-35 97t-12 110.5q0 85 21 164t59.5 147.5t93.5 124.5t122.5 96t146 62t165.5 22q47 0 98 -9.5t93 -32.5t69.5 -61t27.5 -96q0 -60 -21.5 -107.5t-57.5 -83.5t-83.5 -61t-100 -41t-107 -23.5t-103.5 -7.5
q-35 0 -70.5 2.5t-70.5 8.5q-3 -19 -5 -38t-2 -38q0 -56 12 -105t38.5 -86.5t69 -59t103.5 -21.5q44 0 86.5 6.5t84 19t81 31t76.5 42.5h32l-20 -90q-59 -44 -109 -75.5t-101.5 -51.5t-110.5 -29.5t-134 -9.5zM406 560q58 0 107.5 11.5t86.5 38.5t58 70.5t21 108.5
q0 49 -27.5 79t-78.5 30q-17 0 -32.5 -7.5t-29.5 -16.5q-36 -24 -64 -60.5t-49 -79t-35.5 -87.5t-23.5 -86q17 -1 33.5 -1h33.5zM642 1100q-55 0 -104 16.5t-85.5 56t-57 104.5t-17.5 163l86 17q7 -55 19.5 -92.5t35.5 -60.5t58.5 -33t88.5 -10q51 0 89 9.5t68 32.5t55 60.5
t51 93.5l86 -17q-31 -98 -71.5 -163.5t-88.5 -104.5t-102 -55.5t-111 -16.5z" />
    <glyph glyph-name="edotaccent" unicode="&#x117;" horiz-adv-x="945" 
d="M427 -20q-59 0 -110 13.5t-93.5 39t-76 61t-56.5 80t-35 97t-12 110.5q0 85 21 164t59.5 147.5t93.5 124.5t122.5 96t146 62t165.5 22q47 0 98 -9.5t93 -32.5t69.5 -61t27.5 -96q0 -60 -21.5 -107.5t-57.5 -83.5t-83.5 -61t-100 -41t-107 -23.5t-103.5 -7.5
q-35 0 -70.5 2.5t-70.5 8.5q-3 -19 -5 -38t-2 -38q0 -56 12 -105t38.5 -86.5t69 -59t103.5 -21.5q44 0 86.5 6.5t84 19t81 31t76.5 42.5h32l-20 -90q-59 -44 -109 -75.5t-101.5 -51.5t-110.5 -29.5t-134 -9.5zM406 560q58 0 107.5 11.5t86.5 38.5t58 70.5t21 108.5
q0 49 -27.5 79t-78.5 30q-17 0 -32.5 -7.5t-29.5 -16.5q-36 -24 -64 -60.5t-49 -79t-35.5 -87.5t-23.5 -86q17 -1 33.5 -1h33.5zM644 1188q-35 0 -64.5 12t-51.5 33.5t-34.5 50.5t-12.5 63q0 33 12.5 61.5t34.5 49.5t51.5 33.5t64.5 12.5q34 0 64.5 -12.5t53 -33.5
t35.5 -49.5t13 -61.5q0 -34 -13 -63t-35.5 -50.5t-53 -33.5t-64.5 -12z" />
    <glyph glyph-name="uni1EBB" unicode="&#x1ebb;" horiz-adv-x="945" 
d="M427 -20q-59 0 -110 13.5t-93.5 39t-76 61t-56.5 80t-35 97t-12 110.5q0 85 21 164t59.5 147.5t93.5 124.5t122.5 96t146 62t165.5 22q47 0 98 -9.5t93 -32.5t69.5 -61t27.5 -96q0 -60 -21.5 -107.5t-57.5 -83.5t-83.5 -61t-100 -41t-107 -23.5t-103.5 -7.5
q-35 0 -70.5 2.5t-70.5 8.5q-3 -19 -5 -38t-2 -38q0 -56 12 -105t38.5 -86.5t69 -59t103.5 -21.5q44 0 86.5 6.5t84 19t81 31t76.5 42.5h32l-20 -90q-59 -44 -109 -75.5t-101.5 -51.5t-110.5 -29.5t-134 -9.5zM406 560q58 0 107.5 11.5t86.5 38.5t58 70.5t21 108.5
q0 49 -27.5 79t-78.5 30q-17 0 -32.5 -7.5t-29.5 -16.5q-36 -24 -64 -60.5t-49 -79t-35.5 -87.5t-23.5 -86q17 -1 33.5 -1h33.5zM728 1554q49 0 87 -9t63.5 -25t39 -39t13.5 -50q0 -40 -14 -70t-35.5 -54.5t-47.5 -46.5t-50.5 -44.5t-43 -49.5t-26.5 -61l-6 -31h-151l8 39
q8 37 25.5 65t39 51t44.5 42.5t42 40t31 43.5t12 52q0 8 -3 17.5t-11.5 17.5t-22.5 13.5t-36 5.5q-23 0 -43 -6t-37 -15t-32 -21t-29 -24h-47l23 109q13 6 33 14.5t46.5 16.5t58.5 13.5t69 5.5v0z" />
    <glyph glyph-name="uni1EB9" unicode="&#x1eb9;" horiz-adv-x="945" 
d="M427 -20q-59 0 -110 13.5t-93.5 39t-76 61t-56.5 80t-35 97t-12 110.5q0 85 21 164t59.5 147.5t93.5 124.5t122.5 96t146 62t165.5 22q47 0 98 -9.5t93 -32.5t69.5 -61t27.5 -96q0 -60 -21.5 -107.5t-57.5 -83.5t-83.5 -61t-100 -41t-107 -23.5t-103.5 -7.5
q-35 0 -70.5 2.5t-70.5 8.5q-3 -19 -5 -38t-2 -38q0 -56 12 -105t38.5 -86.5t69 -59t103.5 -21.5q44 0 86.5 6.5t84 19t81 31t76.5 42.5h32l-20 -90q-59 -44 -109 -75.5t-101.5 -51.5t-110.5 -29.5t-134 -9.5zM406 560q58 0 107.5 11.5t86.5 38.5t58 70.5t21 108.5
q0 49 -27.5 79t-78.5 30q-17 0 -32.5 -7.5t-29.5 -16.5q-36 -24 -64 -60.5t-49 -79t-35.5 -87.5t-23.5 -86q17 -1 33.5 -1h33.5zM449 -449q-35 0 -65 12.5t-52 34t-35 51t-13 63.5q0 33 13 62t35 50.5t52 34t65 12.5t65.5 -12.5t53.5 -34t36 -50.5t13 -62q0 -34 -13 -63.5
t-36 -51t-53.5 -34t-65.5 -12.5z" />
    <glyph glyph-name="uni1EC7" unicode="&#x1ec7;" horiz-adv-x="945" 
d="M427 -20q-59 0 -110 13.5t-93.5 39t-76 61t-56.5 80t-35 97t-12 110.5q0 85 21 164t59.5 147.5t93.5 124.5t122.5 96t146 62t165.5 22q47 0 98 -9.5t93 -32.5t69.5 -61t27.5 -96q0 -60 -21.5 -107.5t-57.5 -83.5t-83.5 -61t-100 -41t-107 -23.5t-103.5 -7.5
q-35 0 -70.5 2.5t-70.5 8.5q-3 -19 -5 -38t-2 -38q0 -56 12 -105t38.5 -86.5t69 -59t103.5 -21.5q44 0 86.5 6.5t84 19t81 31t76.5 42.5h32l-20 -90q-59 -44 -109 -75.5t-101.5 -51.5t-110.5 -29.5t-134 -9.5zM406 560q58 0 107.5 11.5t86.5 38.5t58 70.5t21 108.5
q0 49 -27.5 79t-78.5 30q-17 0 -32.5 -7.5t-29.5 -16.5q-36 -24 -64 -60.5t-49 -79t-35.5 -87.5t-23.5 -86q17 -1 33.5 -1h33.5zM307 1106l246 289q34 39 71.5 59.5t82.5 20.5t77 -20t52 -60l143 -288l-52 -35l-240 230l-329 -232zM449 -449q-35 0 -65 12.5t-52 34t-35 51
t-13 63.5q0 33 13 62t35 50.5t52 34t65 12.5t65.5 -12.5t53.5 -34t36 -50.5t13 -62q0 -34 -13 -63.5t-36 -51t-53.5 -34t-65.5 -12.5z" />
    <glyph glyph-name="eogonek" unicode="&#x119;" horiz-adv-x="945" 
d="M546 -444q-36 0 -74 9t-68.5 28.5t-50 50t-19.5 73.5t18 81t48 72t67.5 63t76.5 54q-26 -4 -55.5 -5.5t-61.5 -1.5q-59 0 -110 13.5t-93.5 39t-76 61t-56.5 80t-35 97t-12 110.5q0 85 21 164t59.5 147.5t93.5 124.5t122.5 96t146 62t165.5 22q47 0 98 -9.5t93 -32.5
t69.5 -61t27.5 -96q0 -60 -21.5 -107.5t-57.5 -83.5t-83.5 -61t-100 -41t-107 -23.5t-103.5 -7.5q-35 0 -70.5 2.5t-70.5 8.5q-3 -19 -5 -38t-2 -38q0 -56 12 -105t38.5 -86.5t69 -59t103.5 -21.5q43 0 86 6.5t84.5 19.5t81 31t76.5 42h32l-20 -90q-47 -35 -87.5 -61.5
t-80.5 -46.5q-36 -24 -71 -54.5t-62 -67.5t-43.5 -78.5t-16.5 -86.5t25 -66.5t69 -21.5q23 0 48 6t45 16h31l-16 -89q-18 -7 -40.5 -14t-46.5 -13t-47.5 -9.5t-42.5 -3.5zM406 560q58 0 107.5 11.5t86.5 38.5t58 70.5t21 108.5q0 49 -27.5 79t-78.5 30q-17 0 -32.5 -7.5
t-29.5 -16.5q-36 -24 -64 -61t-49 -79t-35.5 -87t-23.5 -86q17 -1 33.5 -1h33.5z" />
    <glyph glyph-name="gcircumflex" unicode="&#x11d;" horiz-adv-x="1119" 
d="M242 -471q-57 0 -109.5 9t-106.5 23l83 225h27q34 -13 77 -23.5t85.5 -17.5t80.5 -10.5t63 -3.5q14 0 29 1t29.5 4.5t27.5 9.5t24 16q6 6 16 35.5t21 71t22 88.5t20 88l24 116q-35 -41 -67 -71t-67.5 -50t-77.5 -30t-96 -10q-79 0 -136.5 30t-95 80t-55.5 115.5
t-18 136.5q0 75 16 151t47 146.5t76 132t103.5 107t129.5 72t153 26.5q30 0 59.5 -6t57 -17.5t52 -28.5t45.5 -39l49 83h283q-24 -49 -41.5 -98.5t-28.5 -103.5l-137 -713q-11 -55 -27.5 -102.5t-40.5 -90.5t-56 -82t-72 -76q-54 -50 -106.5 -86.5t-108 -60.5t-118 -35.5
t-135.5 -11.5zM490 161q24 0 48.5 4.5t47 13.5t43 23t36.5 34l120 593q-35 23 -77 34t-84 11q-54 0 -97 -24t-75.5 -63.5t-55.5 -90.5t-37.5 -105t-21 -107t-6.5 -96q0 -39 7 -79.5t24.5 -73.5t48.5 -53.5t79 -20.5zM309 1106l246 289q34 39 71.5 59.5t82.5 20.5t77 -20
t52 -60l143 -288l-52 -35l-240 230l-329 -232z" />
    <glyph glyph-name="gbreve" unicode="&#x11f;" horiz-adv-x="1119" 
d="M242 -471q-57 0 -109.5 9t-106.5 23l83 225h27q34 -13 77 -23.5t85.5 -17.5t80.5 -10.5t63 -3.5q14 0 29 1t29.5 4.5t27.5 9.5t24 16q6 6 16 35.5t21 71t22 88.5t20 88l24 116q-35 -41 -67 -71t-67.5 -50t-77.5 -30t-96 -10q-79 0 -136.5 30t-95 80t-55.5 115.5
t-18 136.5q0 75 16 151t47 146.5t76 132t103.5 107t129.5 72t153 26.5q30 0 59.5 -6t57 -17.5t52 -28.5t45.5 -39l49 83h283q-24 -49 -41.5 -98.5t-28.5 -103.5l-137 -713q-11 -55 -27.5 -102.5t-40.5 -90.5t-56 -82t-72 -76q-54 -50 -106.5 -86.5t-108 -60.5t-118 -35.5
t-135.5 -11.5zM490 161q24 0 48.5 4.5t47 13.5t43 23t36.5 34l120 593q-35 23 -77 34t-84 11q-54 0 -97 -24t-75.5 -63.5t-55.5 -90.5t-37.5 -105t-21 -107t-6.5 -96q0 -39 7 -79.5t24.5 -73.5t48.5 -53.5t79 -20.5zM642 1100q-55 0 -104 16.5t-85.5 56t-57 104.5t-17.5 163
l86 17q7 -55 19.5 -92.5t35.5 -60.5t58.5 -33t88.5 -10q51 0 89 9.5t68 32.5t55 60.5t51 93.5l86 -17q-31 -98 -71.5 -163.5t-88.5 -104.5t-102 -55.5t-111 -16.5z" />
    <glyph glyph-name="gdotaccent" unicode="&#x121;" horiz-adv-x="1119" 
d="M242 -471q-57 0 -109.5 9t-106.5 23l83 225h27q34 -13 77 -23.5t85.5 -17.5t80.5 -10.5t63 -3.5q14 0 29 1t29.5 4.5t27.5 9.5t24 16q6 6 16 35.5t21 71t22 88.5t20 88l24 116q-35 -41 -67 -71t-67.5 -50t-77.5 -30t-96 -10q-79 0 -136.5 30t-95 80t-55.5 115.5
t-18 136.5q0 75 16 151t47 146.5t76 132t103.5 107t129.5 72t153 26.5q30 0 59.5 -6t57 -17.5t52 -28.5t45.5 -39l49 83h283q-24 -49 -41.5 -98.5t-28.5 -103.5l-137 -713q-11 -55 -27.5 -102.5t-40.5 -90.5t-56 -82t-72 -76q-54 -50 -106.5 -86.5t-108 -60.5t-118 -35.5
t-135.5 -11.5zM490 161q24 0 48.5 4.5t47 13.5t43 23t36.5 34l120 593q-35 23 -77 34t-84 11q-54 0 -97 -24t-75.5 -63.5t-55.5 -90.5t-37.5 -105t-21 -107t-6.5 -96q0 -39 7 -79.5t24.5 -73.5t48.5 -53.5t79 -20.5zM644 1188q-35 0 -64.5 12t-51.5 33.5t-34.5 50.5
t-12.5 63q0 33 12.5 61.5t34.5 49.5t51.5 33.5t64.5 12.5q34 0 64.5 -12.5t53 -33.5t35.5 -49.5t13 -61.5q0 -34 -13 -63t-35.5 -50.5t-53 -33.5t-64.5 -12z" />
    <glyph glyph-name="uni0123" unicode="&#x123;" horiz-adv-x="1119" 
d="M242 -471q-57 0 -109.5 9t-106.5 23l83 225h27q34 -13 77 -23.5t85.5 -17.5t80.5 -10.5t63 -3.5q14 0 29 1t29.5 4.5t27.5 9.5t24 16q6 6 16 35.5t21 71t22 88.5t20 88l24 116q-35 -41 -67 -71t-67.5 -50t-77.5 -30t-96 -10q-79 0 -136.5 30t-95 80t-55.5 115.5
t-18 136.5q0 75 16 151t47 146.5t76 132t103.5 107t129.5 72t153 26.5q30 0 59.5 -6t57 -17.5t52 -28.5t45.5 -39l49 83h283q-24 -49 -41.5 -98.5t-28.5 -103.5l-137 -713q-11 -55 -27.5 -102.5t-40.5 -90.5t-56 -82t-72 -76q-54 -50 -106.5 -86.5t-108 -60.5t-118 -35.5
t-135.5 -11.5zM490 161q24 0 48.5 4.5t47 13.5t43 23t36.5 34l120 593q-35 23 -77 34t-84 11q-54 0 -97 -24t-75.5 -63.5t-55.5 -90.5t-37.5 -105t-21 -107t-6.5 -96q0 -39 7 -79.5t24.5 -73.5t48.5 -53.5t79 -20.5zM822 1527q-29 -21 -49 -39t-34 -34.5t-23.5 -32
t-18.5 -33.5q20 -14 35 -23.5t25.5 -20t15.5 -24t5 -35.5q0 -20 -11 -39t-29.5 -33.5t-42.5 -23t-51 -8.5q-36 0 -58 10.5t-34.5 27t-16.5 36t-4 38.5q0 56 26.5 100.5t65 79t82.5 60t79 43.5z" />
    <glyph glyph-name="hcircumflex" unicode="&#x125;" horiz-adv-x="1158" 
d="M854 -14q-41 0 -76 11t-61 30.5t-41 47t-15 60.5q0 45 5.5 78.5t12.5 63.5l68 290q4 16 8 36t7 40t5 39t2 34q0 25 -6 46.5t-20.5 37.5t-38 25.5t-57.5 9.5q-21 0 -44.5 -3.5t-47.5 -12.5t-48 -25.5t-45 -41.5l-125 -566q-5 -23 -7.5 -49.5t-3.5 -52.5t-1 -48v-36h-294
l283 1272q5 26 -5 44t-40 30l-77 30l-1 48l440 87l-138 -624l-11 -50q37 39 72 69t74 50.5t84.5 30.5t103.5 10q49 0 92 -13t74.5 -40t49.5 -68.5t18 -98.5q0 -24 -3.5 -51.5t-9.5 -52.5l-73 -311q-7 -29 -12.5 -58t-9.5 -54.5t-6.5 -46t-2.5 -31.5q0 -10 5 -23t15.5 -25
t27.5 -20t41 -8q6 0 17 2t24.5 6t27.5 9t26 11h25v-66q-24 -15 -52.5 -28t-64 -22.5t-78 -15.5t-93.5 -6zM99 1582l246 289q34 39 71.5 59.5t82.5 20.5t77 -20t52 -60l143 -288l-52 -35l-240 230l-329 -232z" />
    <glyph glyph-name="hbar" unicode="&#x127;" horiz-adv-x="1158" 
d="M854 -14q-41 0 -76 11t-61 30.5t-41 47t-15 60.5q0 45 5.5 78.5t12.5 63.5l68 290q4 16 8 35.5t7 39.5t5 39t2 35q0 25 -6 46.5t-20.5 37.5t-38 25.5t-57.5 9.5q-21 0 -44.5 -3.5t-47.5 -12.5t-48 -25.5t-45 -41.5l-125 -566q-5 -23 -7.5 -49.5t-3.5 -52.5t-1 -48v-36
h-294l248 1117h-149l23 110h151l10 45q6 26 -4.5 44t-40.5 30l-77 30l-1 48l440 87l-63 -284h402l-23 -110h-403l-62 -280q37 39 72 69t74 50.5t84.5 30.5t103.5 10q49 0 92 -13t74.5 -40t49.5 -68.5t18 -98.5q0 -24 -3.5 -51.5t-9.5 -52.5l-58 -249q-8 -35 -16.5 -73.5
t-15 -73t-10.5 -62.5t-4 -43q0 -10 5 -23t15.5 -25t27.5 -20t41 -8q6 0 17 2t24.5 6t27.5 9t26 11h25v-66q-24 -15 -52.5 -28t-64 -22.5t-78 -15.5t-93.5 -6z" />
    <glyph glyph-name="igrave" unicode="&#xec;" horiz-adv-x="621" 
d="M297 -14q-41 0 -76 11t-61 30.5t-41 47t-15 60.5q0 45 5.5 78t12.5 64l108 481q5 27 -5 45t-41 29l-83 30l-1 48l445 79l-138 -627q-6 -29 -11.5 -58t-9.5 -54.5t-6.5 -46t-2.5 -31.5q0 -10 4.5 -23t15 -25t27.5 -20t41 -8q6 0 20 3t31 7.5t33.5 10.5t28.5 12h25v-66
q-24 -15 -55.5 -28.5t-70 -24.5t-84 -17.5t-96.5 -6.5zM547 1074q-39 25 -78.5 49.5t-78.5 49t-77.5 50t-76.5 54.5q-30 22 -54 47.5t-24 64.5q0 23 9.5 41t25 30.5t36 19t41.5 6.5q28 0 48.5 -5t37 -15t31 -26t30.5 -38q24 -35 47.5 -71t46.5 -73t45.5 -73.5t45.5 -72.5
l-55 -38v0z" />
    <glyph glyph-name="iacute" unicode="&#xed;" horiz-adv-x="621" 
d="M297 -14q-41 0 -76 11t-61 30.5t-41 47t-15 60.5q0 45 5.5 78t12.5 64l108 481q5 27 -5 45t-41 29l-83 30l-1 48l445 79l-138 -627q-6 -29 -11.5 -58t-9.5 -54.5t-6.5 -46t-2.5 -31.5q0 -10 4.5 -23t15 -25t27.5 -20t41 -8q6 0 20 3t31 7.5t33.5 10.5t28.5 12h25v-66
q-24 -15 -55.5 -28.5t-70 -24.5t-84 -17.5t-96.5 -6.5zM255 1112q54 72 106 143t106 143q17 22 33.5 39t34.5 27.5t40 16t51 5.5q19 0 37.5 -5.5t33 -16.5t23.5 -27t9 -37q0 -22 -7.5 -39.5t-19.5 -31.5t-28 -26t-32 -22q-85 -53 -168 -104.5t-167 -102.5z" />
    <glyph glyph-name="icircumflex" unicode="&#xee;" horiz-adv-x="627" 
d="M300 -14q-41 0 -76 11t-61 30.5t-41 47t-15 60.5q0 45 5.5 78t12.5 64l108 481q5 27 -5 45t-41 29l-83 30l-1 48l445 79l-138 -627q-6 -29 -11.5 -58t-9.5 -54.5t-6.5 -46t-2.5 -31.5q0 -10 4.5 -23t15 -25t27.5 -20t41 -8q6 0 20 3t31 7.5t33.5 10.5t28.5 12h25v-66
q-24 -15 -55.5 -28.5t-70 -24.5t-84 -17.5t-96.5 -6.5zM77 1106l236 289q33 40 71 60t83 20t78 -19t51 -61l133 -288l-52 -35l-230 230l-319 -232z" />
    <glyph glyph-name="itilde" unicode="&#x129;" horiz-adv-x="621" 
d="M297 -14q-41 0 -76 11t-61 30.5t-41 47t-15 60.5q0 45 5.5 78t12.5 64l108 481q5 27 -5 45t-41 29l-83 30l-1 48l445 79l-138 -627q-6 -29 -11.5 -58t-9.5 -54.5t-6.5 -46t-2.5 -31.5q0 -10 4.5 -23t15 -25t27.5 -20t41 -8q6 0 20 3t31 7.5t33.5 10.5t28.5 12h25v-66
q-24 -15 -55.5 -28.5t-70 -24.5t-84 -17.5t-96.5 -6.5zM-13 1130q16 60 43 110t62.5 86t78 56t89.5 20q32 0 65 -12.5t78 -37.5q45 -26 74.5 -35.5t46.5 -9.5q55 0 82 29t45 80h74q-15 -59 -41 -109t-60.5 -86t-76.5 -56t-90 -20q-17 0 -31 2t-29.5 8t-34 16t-45.5 26
q-43 26 -74 36t-49 10q-56 0 -85.5 -30.5t-47.5 -82.5h-74v0z" />
    <glyph glyph-name="idieresis" unicode="&#xef;" horiz-adv-x="627" 
d="M300 -14q-41 0 -76 11t-61 30.5t-41 47t-15 60.5q0 45 5.5 78t12.5 64l108 481q5 27 -5 45t-41 29l-83 30l-1 48l445 79l-138 -627q-6 -29 -11.5 -58t-9.5 -54.5t-6.5 -46t-2.5 -31.5q0 -10 4.5 -23t15 -25t27.5 -20t41 -8q6 0 20 3t31 7.5t33.5 10.5t28.5 12h25v-66
q-24 -15 -55.5 -28.5t-70 -24.5t-84 -17.5t-96.5 -6.5zM230 1126q-27 0 -51 10t-42 28t-28 42t-10 52t10 52t28 42t42 28t51 10q28 0 52.5 -10t43 -28t29 -42t10.5 -52t-10.5 -52t-29 -42t-43 -28t-52.5 -10zM650 1126q-27 0 -51 10t-42 28t-28 42t-10 52t10 52t28 42t42 28
t51 10q28 0 52.5 -10t43 -28t29 -42t10.5 -52t-10.5 -52t-29 -42t-43 -28t-52.5 -10z" />
    <glyph glyph-name="imacron" unicode="&#x12b;" horiz-adv-x="621" 
d="M297 -14q-41 0 -76 11t-61 30.5t-41 47t-15 60.5q0 45 5.5 78t12.5 64l108 481q5 27 -5 45t-41 29l-83 30l-1 48l445 79l-138 -627q-6 -29 -11.5 -58t-9.5 -54.5t-6.5 -46t-2.5 -31.5q0 -10 4.5 -23t15 -25t27.5 -20t41 -8q6 0 20 3t31 7.5t33.5 10.5t28.5 12h25v-66
q-24 -15 -55.5 -28.5t-70 -24.5t-84 -17.5t-96.5 -6.5zM84 1314h624l-35 -143h-624z" />
    <glyph glyph-name="ibreve" unicode="&#x12d;" horiz-adv-x="621" 
d="M297 -14q-41 0 -76 11t-61 30.5t-41 47t-15 60.5q0 45 5.5 78t12.5 64l108 481q5 27 -5 45t-41 29l-83 30l-1 48l445 79l-138 -627q-6 -29 -11.5 -58t-9.5 -54.5t-6.5 -46t-2.5 -31.5q0 -10 4.5 -23t15 -25t27.5 -20t41 -8q6 0 20 3t31 7.5t33.5 10.5t28.5 12h25v-66
q-24 -15 -55.5 -28.5t-70 -24.5t-84 -17.5t-96.5 -6.5zM379 1100q-55 0 -104 16.5t-85.5 56t-57 104.5t-17.5 163l86 17q7 -55 19.5 -92.5t35.5 -60.5t58.5 -33t88.5 -10q51 0 89 9.5t68 32.5t55 60.5t51 93.5l86 -17q-31 -98 -71.5 -163.5t-88.5 -104.5t-102 -55.5
t-111 -16.5z" />
    <glyph glyph-name="uni1EC9" unicode="&#x1ec9;" horiz-adv-x="621" 
d="M297 -14q-41 0 -76 11t-61 30.5t-41 47t-15 60.5q0 45 5.5 78t12.5 64l108 481q5 27 -5 45t-41 29l-83 30l-1 48l445 79l-138 -627q-6 -29 -11.5 -58t-9.5 -54.5t-6.5 -46t-2.5 -31.5q0 -10 4.5 -23t15 -25t27.5 -20t41 -8q6 0 20 3t31 7.5t33.5 10.5t28.5 12h25v-66
q-24 -15 -55.5 -28.5t-70 -24.5t-84 -17.5t-96.5 -6.5zM464 1554q49 0 87 -9t63.5 -25t39 -39t13.5 -50q0 -40 -14 -70t-35.5 -54.5t-47.5 -46.5t-50.5 -44.5t-43 -49.5t-26.5 -61l-6 -31h-151l8 39q8 37 25.5 65t39 51t44.5 42.5t42 40t31 43.5t12 52q0 8 -3 17.5
t-11.5 17.5t-22.5 13.5t-36 5.5q-23 0 -43 -6t-37 -15t-32 -21t-29 -24h-47l23 109q13 6 33 14.5t46.5 16.5t58.5 13.5t69 5.5v0z" />
    <glyph glyph-name="uni1ECB" unicode="&#x1ecb;" horiz-adv-x="621" 
d="M297 -14q-41 0 -76 11t-61 30.5t-41 47t-15 60.5q0 45 5.5 78t12.5 64l108 481q5 27 -5 45t-41 29l-83 30l-1 48l445 79l-138 -627q-6 -29 -11.5 -58t-9.5 -54.5t-6.5 -46t-2.5 -31.5q0 -10 4.5 -23t15 -25t27.5 -20t41 -8q6 0 20 3t31 7.5t33.5 10.5t28.5 12h25v-66
q-24 -15 -55.5 -28.5t-70 -24.5t-84 -17.5t-96.5 -6.5zM462 1189q-35 0 -64.5 12t-51.5 33.5t-34.5 50.5t-12.5 63q0 33 12.5 61.5t34.5 50t51.5 34t64.5 12.5q34 0 64.5 -12.5t53.5 -34t36 -50t13 -61.5q0 -34 -13 -63t-36 -50.5t-53.5 -33.5t-64.5 -12zM296 -449
q-35 0 -65 12.5t-52 34t-35 51t-13 63.5q0 33 13 62t35 50.5t52 34t65 12.5t65.5 -12.5t53.5 -34t36 -50.5t13 -62q0 -34 -13 -63.5t-36 -51t-53.5 -34t-65.5 -12.5z" />
    <glyph glyph-name="iogonek" unicode="&#x12f;" horiz-adv-x="621" 
d="M278 -444q-36 0 -74 9t-68.5 28.5t-50 50t-19.5 73.5t18 81t47.5 72t67 63t76.5 54q-37 3 -68 14.5t-54 31t-36 45.5t-13 57q0 44 5.5 77.5t12.5 64.5l108 481q5 27 -5 45t-41 29l-83 30l-1 48l445 79l-138 -627q-6 -29 -11.5 -58t-9.5 -54.5t-6.5 -46t-2.5 -31.5
q0 -10 4.5 -23t15 -25t27.5 -20t41 -8q6 0 20 3t31 7.5t33.5 10.5t28.5 12h25v-66q-37 -23 -92.5 -43t-127.5 -29q-27 -23 -50.5 -50.5t-41.5 -57.5t-28 -63.5t-10 -68.5q0 -45 25 -66.5t69 -21.5q23 0 48 6t45 16h31l-16 -89q-18 -7 -40.5 -14t-46.5 -13t-47.5 -9.5
t-42.5 -3.5zM462 1189q-34 0 -64 12t-52 33.5t-34.5 50.5t-12.5 63q0 33 12.5 61.5t34.5 50t52 34t64 12.5t64.5 -12.5t53.5 -34t36 -50t13 -61.5q0 -34 -13 -63t-36 -50.5t-53.5 -33.5t-64.5 -12z" />
    <glyph glyph-name="dotlessi" unicode="&#x131;" horiz-adv-x="621" 
d="M297 -14q-41 0 -76 11t-61 30.5t-41 47t-15 60.5q0 45 5.5 78t12.5 64l108 481q5 27 -5 45t-41 29l-83 30l-1 48l445 79l-138 -627q-6 -29 -11.5 -58t-9.5 -54.5t-6.5 -46t-2.5 -31.5q0 -10 4.5 -23t15 -25t27.5 -20t41 -8q6 0 20 3t31 7.5t33.5 10.5t28.5 12h25v-66
q-24 -15 -55.5 -28.5t-70 -24.5t-84 -17.5t-96.5 -6.5z" />
    </font>
</defs>
</svg>
