<?xml version="1.0" standalone="no"?>
<!DOCTYPE svg PUBLIC "-//W3C//DTD SVG 1.1//EN" "http://www.w3.org/Graphics/SVG/1.1/DTD/svg11.dtd" >
<svg xmlns="http://www.w3.org/2000/svg" xmlns:xlink="http://www.w3.org/1999/xlink" version="1.1">
<metadata>
Created by FontForge 20170910 at Fri Aug  5 17:34:32 2016
 By Jimmy Wärting
(c) 2013 Microsoft Corporation. All Rights Reserved.
</metadata>
<defs>
<font id="SitkaBanner-Italic" horiz-adv-x="0" >
  <font-face 
    font-family="Sitka Banner"
    font-weight="400"
    font-style="italic"
    font-stretch="normal"
    units-per-em="2250"
    panose-1="2 0 5 5 0 0 0 9 0 4"
    ascent="1703"
    descent="-547"
    x-height="972"
    cap-height="1378"
    bbox="-811 -727 2733 2275"
    underline-thickness="102"
    underline-position="-205"
    slope="-12"
    unicode-range="U+0020-FB04"
  />
<missing-glyph horiz-adv-x="932" 
d="M0 1334h932v-1334h-932v1334zM76 73h781v1189h-781v-1189z" />
    <glyph glyph-name="f_b.liga" unicode="fb" horiz-adv-x="1731" 
d="M1150 -18q-41 0 -76 8t-63 21t-49 30.5t-34 35.5l-51 -87h-178q17 34 37 88t33 114l237 1108q6 27 -4.5 44.5t-40.5 29.5l-38 14l-23 -55h-19q-20 15 -39.5 29t-42 24.5t-49.5 17t-62 6.5q-46 0 -73 -14t-44 -43q-29 -51 -55.5 -153t-58.5 -237h261l-23 -76h-252
l-155 -794q-30 -151 -82.5 -258t-121.5 -175t-150.5 -99.5t-168.5 -31.5q-16 0 -36 2.5t-40 8t-40 13t-36 17.5l65 153h19q20 -15 39.5 -29t42 -24.5t49.5 -17t62 -6.5q46 0 73 14t44 43q30 51 58 149.5t56 240.5l155 794h-164l18 76h164q32 144 85 250t121.5 175.5t149 104
t167.5 34.5q32 0 74 -10.5t74 -30.5l-15 -36l267 61q-27 -121 -53.5 -242t-52.5 -242l-43 -194q55 61 100 94.5t82 49t68 18t58 2.5q74 0 131.5 -27.5t97 -76.5t60 -117t20.5 -148q0 -79 -17 -157.5t-49.5 -150.5t-79 -133.5t-106 -107t-131 -71.5t-152.5 -26zM1137 85
q62 0 113 22t91.5 60t70.5 89t50 109.5t30 121t10 122.5q0 59 -13.5 110t-41.5 88.5t-70 58.5t-100 21q-23 0 -50.5 -6t-56 -19t-56.5 -32t-51 -45l-147 -659q21 -11 49 -19t58 -13t59.5 -7t54.5 -2z" />
    <glyph glyph-name="f_f_b.liga" unicode="ffb" horiz-adv-x="2362" 
d="M-235 -471q-16 0 -36 2.5t-40 8t-40 13t-36 17.5l65 153h19q20 -15 39.5 -29t42 -24.5t49.5 -17t62 -6.5q46 0 73 14t44 43q15 25 29 63t28.5 87t28.5 109t28 131l155 794h-164l18 76h164q32 144 85 250t121.5 175.5t149 104t167.5 34.5q16 0 35 -2.5t39 -8t39 -13
t35 -17.5l-65 -153h-19q-20 15 -39.5 29t-42 24.5t-49.5 17t-62 6.5q-23 0 -40.5 -3.5t-32 -10.5t-25 -17.5t-19.5 -25.5q-15 -26 -28.5 -64.5t-27 -88.5t-28 -110t-30.5 -127h261l-23 -76h-252l-155 -794q-30 -151 -82.5 -258t-121.5 -175t-150.5 -99.5t-168.5 -31.5z
M1781 -18q-41 0 -76 8t-63 21t-49 30.5t-34 35.5l-51 -87h-178q17 34 37 88t33 114l237 1108q6 27 -4.5 44.5t-40.5 29.5l-38 14l-23 -55h-19q-20 15 -39.5 29t-42 24.5t-49.5 17t-62 6.5q-46 0 -73 -14t-44 -43q-29 -51 -55.5 -153t-58.5 -237h261l-23 -76h-252l-155 -794
q-30 -151 -82.5 -258t-121.5 -175t-150.5 -99.5t-168.5 -31.5q-16 0 -36 2.5t-40 8t-40 13t-36 17.5l65 153h19q20 -15 39.5 -29t42 -24.5t49.5 -17t62 -6.5q46 0 73 14t44 43q30 51 58 149.5t56 240.5l155 794h-164l18 76h164q32 144 85 250t121.5 175.5t149 104
t167.5 34.5q32 0 74 -10.5t74 -30.5l-15 -36l267 61q-27 -121 -53.5 -242t-52.5 -242l-43 -194q55 61 100 94.5t82 49t68 18t58 2.5q74 0 131.5 -27.5t97 -76.5t60 -117t20.5 -148q0 -79 -17 -157.5t-49.5 -150.5t-79 -133.5t-106 -107t-131 -71.5t-152.5 -26zM1768 85
q62 0 113 22t91.5 60t70.5 89t50 109.5t30 121t10 122.5q0 59 -13.5 110t-41.5 88.5t-70 58.5t-100 21q-23 0 -50.5 -6t-56 -19t-56.5 -32t-51 -45l-147 -659q21 -11 49 -19t58 -13t59.5 -7t54.5 -2z" />
    <glyph glyph-name="uniFB00" unicode="ff" horiz-adv-x="1252" 
d="M-235 -471q-16 0 -36 2.5t-40 8t-40 13t-36 17.5l65 153h19q20 -15 39.5 -29t42 -24.5t49.5 -17t62 -6.5q46 0 73 14t44 43q15 25 29 63t28.5 87t28.5 109t28 131l155 794h-164l18 76h164q32 144 85 250t121.5 175.5t149 104t167.5 34.5q16 0 35 -2.5t39 -8t39 -13
t35 -17.5l-65 -153h-19q-20 15 -39.5 29t-42 24.5t-49.5 17t-62 6.5q-23 0 -40.5 -3.5t-32 -10.5t-25 -17.5t-19.5 -25.5q-15 -26 -28.5 -64.5t-27 -88.5t-28 -110t-30.5 -127h261l-23 -76h-252l-155 -794q-30 -151 -82.5 -258t-121.5 -175t-150.5 -99.5t-168.5 -31.5z
M396 -471q-16 0 -36 2.5t-40 8t-40 13t-36 17.5l65 153h19q20 -15 39.5 -29t42 -24.5t49.5 -17t62 -6.5q46 0 73 14t44 43q15 25 29 63t28.5 87t28.5 109t28 131l155 794h-164l18 76h164q32 144 85 250t121.5 175.5t149 104t167.5 34.5q16 0 35 -2.5t39 -8t39 -13t35 -17.5
l-65 -153h-19q-20 15 -39.5 29t-42 24.5t-49.5 17t-62 6.5q-23 0 -40.5 -3.5t-32 -10.5t-25 -17.5t-19.5 -25.5q-15 -26 -28.5 -64.5t-27 -88.5t-28 -110t-30.5 -127h261l-23 -76h-252l-155 -794q-30 -151 -82.5 -258t-121.5 -175t-150.5 -99.5t-168.5 -31.5z" />
    <glyph glyph-name="f_h.liga" unicode="fh" horiz-adv-x="1731" 
d="M1476 -14q-35 0 -62.5 11.5t-47 30t-30 41t-10.5 45.5q0 11 1.5 27.5t4.5 36t6.5 39.5t7.5 38l85 365q8 36 13.5 70t5.5 57q0 66 -40.5 100.5t-131.5 34.5q-28 0 -59.5 -5t-63 -16.5t-62 -29.5t-56.5 -45l-133 -600q-5 -24 -7.5 -51t-3.5 -52.5t-1 -47v-35.5h-194
l289 1300q6 27 -4 44.5t-41 29.5l-21 8l-21 -49h-19q-20 15 -39.5 29t-42 24.5t-49.5 17t-62 6.5q-46 0 -73 -14t-44 -43q-29 -51 -55.5 -153t-58.5 -237h261l-23 -76h-252l-155 -794q-30 -151 -82.5 -258t-121.5 -175t-150.5 -99.5t-168.5 -31.5q-16 0 -36 2.5t-40 8
t-40 13t-36 17.5l65 153h19q20 -15 39.5 -29t42 -24.5t49.5 -17t62 -6.5q46 0 73 14t44 43q30 51 58 149.5t56 240.5l155 794h-164l18 76h164q32 144 85 250t121.5 175.5t149 104t167.5 34.5q32 0 74 -10.5t74 -30.5l-13 -31l246 56l-121 -546l-28 -128q51 53 96 84.5
t85.5 48.5t78.5 22t74 5q41 0 83 -10.5t76 -36t56 -69t23 -108.5q0 -12 -2 -34.5t-10 -65.5l-77 -332q-7 -30 -13 -60.5t-10.5 -56.5t-7 -45.5t-2.5 -27.5q0 -10 6 -23t17.5 -25t29.5 -20t42 -8q6 0 19 2t28 6t30.5 9t27.5 11h15v-45q-24 -15 -56.5 -28t-66.5 -22.5
t-65 -15.5t-50 -6z" />
    <glyph glyph-name="f_f_h.liga" unicode="ffh" horiz-adv-x="2362" 
d="M-235 -471q-16 0 -36 2.5t-40 8t-40 13t-36 17.5l65 153h19q20 -15 39.5 -29t42 -24.5t49.5 -17t62 -6.5q46 0 73 14t44 43q15 25 29 63t28.5 87t28.5 109t28 131l155 794h-164l18 76h164q32 144 85 250t121.5 175.5t149 104t167.5 34.5q16 0 35 -2.5t39 -8t39 -13
t35 -17.5l-65 -153h-19q-20 15 -39.5 29t-42 24.5t-49.5 17t-62 6.5q-23 0 -40.5 -3.5t-32 -10.5t-25 -17.5t-19.5 -25.5q-15 -26 -28.5 -64.5t-27 -88.5t-28 -110t-30.5 -127h261l-23 -76h-252l-155 -794q-30 -151 -82.5 -258t-121.5 -175t-150.5 -99.5t-168.5 -31.5z
M2107 -14q-35 0 -62.5 11.5t-47 30t-30 41t-10.5 45.5q0 11 1.5 27.5t4.5 36t6.5 39.5t7.5 38l85 365q8 36 13.5 70t5.5 57q0 66 -40.5 100.5t-131.5 34.5q-28 0 -59.5 -5t-63 -16.5t-62 -29.5t-56.5 -45l-133 -600q-5 -24 -7.5 -51t-3.5 -52.5t-1 -47v-35.5h-194l289 1300
q6 27 -4 44.5t-41 29.5l-21 8l-21 -49h-19q-20 15 -39.5 29t-42 24.5t-49.5 17t-62 6.5q-46 0 -73 -14t-44 -43q-29 -51 -55.5 -153t-58.5 -237h261l-23 -76h-252l-155 -794q-30 -151 -82.5 -258t-121.5 -175t-150.5 -99.5t-168.5 -31.5q-16 0 -36 2.5t-40 8t-40 13
t-36 17.5l65 153h19q20 -15 39.5 -29t42 -24.5t49.5 -17t62 -6.5q46 0 73 14t44 43q30 51 58 149.5t56 240.5l155 794h-164l18 76h164q32 144 85 250t121.5 175.5t149 104t167.5 34.5q32 0 74 -10.5t74 -30.5l-13 -31l246 56l-121 -546l-28 -128q51 53 96 84.5t85.5 48.5
t78.5 22t74 5q41 0 83 -10.5t76 -36t56 -69t23 -108.5q0 -12 -2 -34.5t-10 -65.5l-77 -332q-7 -30 -13 -60.5t-10.5 -56.5t-7 -45.5t-2.5 -27.5q0 -10 6 -23t17.5 -25t29.5 -20t42 -8q6 0 19 2t28 6t30.5 9t27.5 11h15v-45q-24 -15 -56.5 -28t-66.5 -22.5t-65 -15.5t-50 -6z
" />
    <glyph glyph-name="uniFB01" unicode="fi" horiz-adv-x="1201" 
d="M-235 -471q-16 0 -36 2.5t-40 8t-40 13t-36 17.5l65 153h19q22 -16 42.5 -30t42 -24.5t47.5 -16.5t61 -6q46 0 73 14t44 43q15 25 29 63t28.5 87t28.5 109t28 131l155 794h-164l18 76h164q32 144 85 250t121.5 175.5t149 104t167.5 34.5q16 0 35 -2.5t39 -8t39 -13
t35 -17.5l-65 -151h-19q-23 16 -43 30t-41.5 24.5t-48 16.5t-60.5 6q-23 0 -40.5 -3.5t-32 -11t-25 -18.5t-19.5 -26q-15 -26 -28.5 -64.5t-27 -88.5t-28 -110t-30.5 -127h261l-23 -76h-252l-155 -794q-30 -151 -82.5 -258t-121.5 -175t-150.5 -99.5t-168.5 -31.5zM923 -14
q-36 0 -64.5 11.5t-48.5 30t-30.5 41t-10.5 45.5q0 34 6 69t14 74l114 524v0v0q6 28 -4 47.5t-41 31.5l-84 33v27l340 69l-142 -649q-6 -29 -12 -59t-10.5 -56t-7 -45.5t-2.5 -28.5q0 -10 6 -22.5t18.5 -24t30.5 -19.5t42 -8q6 0 21 2.5t33 7t36 9.5t30 10h15v-45
q-24 -15 -56.5 -28.5t-67.5 -24t-68 -16.5t-57 -6zM1097 1231q-24 0 -45.5 9t-37 24.5t-24.5 37t-9 46.5q0 24 9 45.5t24.5 37t37 24.5t45.5 9q25 0 46.5 -9t37.5 -24.5t25.5 -37t9.5 -45.5q0 -25 -9.5 -46.5t-25.5 -37t-37.5 -24.5t-46.5 -9z" />
    <glyph glyph-name="uniFB03" unicode="ffi" horiz-adv-x="1832" 
d="M-235 -471q-16 0 -36 2.5t-40 8t-40 13t-36 17.5l65 153h19q20 -15 39.5 -29t42 -24.5t49.5 -17t62 -6.5q46 0 73 14t44 43q15 25 29 63t28.5 87t28.5 109t28 131l155 794h-164l18 76h164q32 144 85 250t121.5 175.5t149 104t167.5 34.5q16 0 35 -2.5t39 -8t39 -13
t35 -17.5l-65 -153h-19q-20 15 -39.5 29t-42 24.5t-49.5 17t-62 6.5q-23 0 -40.5 -3.5t-32 -10.5t-25 -17.5t-19.5 -25.5q-15 -26 -28.5 -64.5t-27 -88.5t-28 -110t-30.5 -127h261l-23 -76h-252l-155 -794q-30 -151 -82.5 -258t-121.5 -175t-150.5 -99.5t-168.5 -31.5z
M396 -471q-16 0 -36 2.5t-40 8t-40 13t-36 17.5l65 153h19q20 -15 39.5 -29t42 -24.5t49.5 -17t62 -6.5q46 0 73 14t44 43q15 25 29 63t28.5 87t28.5 109t28 131l155 794h-164l18 76h164q32 144 85 250t121.5 175.5t149 104t167.5 34.5q16 0 35 -2.5t39 -8t39 -13t35 -17.5
l-65 -153h-19q-20 15 -39.5 29t-42 24.5t-49.5 17t-62 6.5q-23 0 -40.5 -3.5t-32 -10.5t-25 -17.5t-19.5 -25.5q-15 -26 -28.5 -64.5t-27 -88.5t-28 -110t-30.5 -127h261l-23 -76h-252l-155 -794q-30 -151 -82.5 -258t-121.5 -175t-150.5 -99.5t-168.5 -31.5zM1718 1233
q-24 0 -45.5 9t-37 24.5t-24.5 37t-9 46.5q0 24 9 45.5t24.5 37t37 24.5t45.5 9q25 0 46.5 -9t37.5 -24.5t25.5 -37t9.5 -45.5q0 -25 -9.5 -46.5t-25.5 -37t-37.5 -24.5t-46.5 -9zM1554 -14q-36 0 -64.5 11.5t-48.5 30t-30.5 41t-10.5 45.5q0 34 6 69t14 74l114 524
q6 28 -4 47.5t-41 31.5l-84 33v27l340 69l-129 -590q-4 -22 -9 -46t-10 -49t-10 -48.5t-8.5 -43.5t-5.5 -36t-2 -25q0 -10 6 -22.5t18.5 -24t30.5 -19.5t42 -8q6 0 21 2.5t33 7t36 9.5t30 10h15v-45q-24 -15 -56.5 -28.5t-67.5 -24t-68 -16.5t-57 -6z" />
    <glyph glyph-name="f_j.liga" unicode="fj" horiz-adv-x="1214" 
d="M-235 -471q-16 0 -36 2.5t-40 8t-40 13t-36 17.5l65 153h19q20 -15 39.5 -29t42 -24.5t49.5 -17t62 -6.5q46 0 73 14t44 43q15 25 29 63t28.5 87t28.5 109t28 131l155 794h-164l18 76h164q32 144 85 250t121.5 175.5t149 104t167.5 34.5q16 0 35 -2.5t39 -8t39 -13
t35 -17.5l-65 -153h-19q-20 15 -39.5 29t-42 24.5t-49.5 17t-62 6.5q-23 0 -40.5 -3.5t-32 -10.5t-25 -17.5t-19.5 -25.5q-15 -26 -28.5 -64.5t-27 -88.5t-28 -110t-30.5 -127h261l-23 -76h-252l-155 -794q-30 -151 -82.5 -258t-121.5 -175t-150.5 -99.5t-168.5 -31.5z
M469 -471q-17 0 -37 3t-41 8.5t-41 13.5t-36 18l65 154h19q20 -15 40.5 -29.5t44 -25.5t51 -17.5t60.5 -6.5q46 0 74.5 14t44.5 42q31 57 59 152t54 238l128 680q5 23 -5 45.5t-41 34.5l-105 40v27l360 69l-171 -896q-29 -152 -81.5 -259t-121.5 -174.5t-151 -99t-169 -31.5
zM1116 1233q-24 0 -45.5 9t-37 24.5t-24.5 37t-9 46.5q0 24 9 45.5t24.5 37t37 24.5t45.5 9q25 0 46.5 -9t37.5 -24.5t25.5 -37t9.5 -45.5q0 -25 -9.5 -46.5t-25.5 -37t-37.5 -24.5t-46.5 -9z" />
    <glyph glyph-name="f_f_j.liga" unicode="ffj" horiz-adv-x="1845" 
d="M-235 -471q-16 0 -36 2.5t-40 8t-40 13t-36 17.5l65 153h19q20 -15 39.5 -29t42 -24.5t49.5 -17t62 -6.5q46 0 73 14t44 43q15 25 29 63t28.5 87t28.5 109t28 131l155 794h-164l18 76h164q32 144 85 250t121.5 175.5t149 104t167.5 34.5q16 0 35 -2.5t39 -8t39 -13
t35 -17.5l-65 -153h-19q-20 15 -39.5 29t-42 24.5t-49.5 17t-62 6.5q-23 0 -40.5 -3.5t-32 -10.5t-25 -17.5t-19.5 -25.5q-15 -26 -28.5 -64.5t-27 -88.5t-28 -110t-30.5 -127h261l-23 -76h-252l-155 -794q-30 -151 -82.5 -258t-121.5 -175t-150.5 -99.5t-168.5 -31.5z
M396 -471q-16 0 -36 2.5t-40 8t-40 13t-36 17.5l65 153h19q20 -15 39.5 -29t42 -24.5t49.5 -17t62 -6.5q46 0 73 14t44 43q15 25 29 63t28.5 87t28.5 109t28 131l155 794h-164l18 76h164q32 144 85 250t121.5 175.5t149 104t167.5 34.5q16 0 35 -2.5t39 -8t39 -13t35 -17.5
l-65 -153h-19q-20 15 -39.5 29t-42 24.5t-49.5 17t-62 6.5q-23 0 -40.5 -3.5t-32 -10.5t-25 -17.5t-19.5 -25.5q-15 -26 -28.5 -64.5t-27 -88.5t-28 -110t-30.5 -127h261l-23 -76h-252l-155 -794q-30 -151 -82.5 -258t-121.5 -175t-150.5 -99.5t-168.5 -31.5zM1100 -471
q-17 0 -37 3t-41 8.5t-41 13.5t-36 18l65 154h19q20 -15 40.5 -29.5t44 -25.5t51 -17.5t60.5 -6.5q46 0 74.5 14t44.5 42q31 57 59 152t54 238l128 680q5 23 -5 45.5t-41 34.5l-105 40v27l360 69l-171 -896q-29 -152 -81.5 -259t-121.5 -174.5t-151 -99t-169 -31.5z
M1747 1233q-24 0 -45.5 9t-37 24.5t-24.5 37t-9 46.5q0 24 9 45.5t24.5 37t37 24.5t45.5 9q25 0 46.5 -9t37.5 -24.5t25.5 -37t9.5 -45.5q0 -25 -9.5 -46.5t-25.5 -37t-37.5 -24.5t-46.5 -9z" />
    <glyph glyph-name="f_k.liga" unicode="fk" horiz-adv-x="1660" 
d="M1412 -14q-34 0 -57 9t-40.5 26.5t-31 43.5t-28.5 60l-164 370l-152 -144l-35 -165q-5 -24 -7.5 -50.5t-3.5 -52t-1 -47.5v-36h-194l289 1300q6 27 -4 44.5t-41 29.5l-21 8l-21 -49h-19q-20 15 -39.5 29t-42 24.5t-49.5 17t-62 6.5q-46 0 -73 -14t-44 -43
q-29 -51 -55.5 -153t-58.5 -237h261l-23 -76h-252l-155 -794q-30 -151 -82.5 -258t-121.5 -175t-150.5 -99.5t-168.5 -31.5q-16 0 -36 2.5t-40 8t-40 13t-36 17.5l65 153h19q20 -15 39.5 -29t42 -24.5t49.5 -17t62 -6.5q46 0 73 14t44 43q30 51 58 149.5t56 240.5l155 794
h-164l18 76h164q32 144 85 250t121.5 175.5t149 104t167.5 34.5q32 0 74 -10.5t74 -30.5l-13 -31l246 56l-235 -1060q72 79 136 148t117.5 126t96 100t71.5 69q27 24 48.5 41.5t43 29t45 17t54.5 5.5q24 0 51 -1.5t50 -7.5l-37 -163h-30q-31 8 -54 11t-55 3q-26 0 -59 -14.5
t-70.5 -41.5t-77.5 -64.5t-80 -83.5l207 -471q6 -13 16 -27t23.5 -25.5t31 -19t39.5 -7.5q6 0 19 2t28 6t30.5 9t27.5 11h15v-45q-24 -15 -56.5 -28t-66.5 -22.5t-65 -15.5t-50 -6z" />
    <glyph glyph-name="f_f_k.liga" unicode="ffk" horiz-adv-x="2291" 
d="M-235 -471q-16 0 -36 2.5t-40 8t-40 13t-36 17.5l65 153h19q20 -15 39.5 -29t42 -24.5t49.5 -17t62 -6.5q46 0 73 14t44 43q15 25 29 63t28.5 87t28.5 109t28 131l155 794h-164l18 76h164q32 144 85 250t121.5 175.5t149 104t167.5 34.5q16 0 35 -2.5t39 -8t39 -13
t35 -17.5l-65 -153h-19q-20 15 -39.5 29t-42 24.5t-49.5 17t-62 6.5q-23 0 -40.5 -3.5t-32 -10.5t-25 -17.5t-19.5 -25.5q-15 -26 -28.5 -64.5t-27 -88.5t-28 -110t-30.5 -127h261l-23 -76h-252l-155 -794q-30 -151 -82.5 -258t-121.5 -175t-150.5 -99.5t-168.5 -31.5z
M2043 -14q-34 0 -57 9t-40.5 26.5t-31 43.5t-28.5 60l-164 370l-152 -144l-35 -165q-5 -24 -7.5 -50.5t-3.5 -52t-1 -47.5v-36h-194l289 1300q6 27 -4 44.5t-41 29.5l-21 8l-21 -49h-19q-20 15 -39.5 29t-42 24.5t-49.5 17t-62 6.5q-46 0 -73 -14t-44 -43
q-29 -51 -55.5 -153t-58.5 -237h261l-23 -76h-252l-155 -794q-30 -151 -82.5 -258t-121.5 -175t-150.5 -99.5t-168.5 -31.5q-16 0 -36 2.5t-40 8t-40 13t-36 17.5l65 153h19q20 -15 39.5 -29t42 -24.5t49.5 -17t62 -6.5q46 0 73 14t44 43q30 51 58 149.5t56 240.5l155 794
h-164l18 76h164q32 144 85 250t121.5 175.5t149 104t167.5 34.5q32 0 74 -10.5t74 -30.5l-13 -31l246 56l-235 -1060q72 79 136 148t117.5 126t96 100t71.5 69q27 24 48.5 41.5t43 29t45 17t54.5 5.5q24 0 51 -1.5t50 -7.5l-37 -163h-30q-31 8 -54 11t-55 3q-26 0 -59 -14.5
t-70.5 -41.5t-77.5 -64.5t-80 -83.5l207 -471q6 -13 16 -27t23.5 -25.5t31 -19t39.5 -7.5q6 0 19 2t28 6t30.5 9t27.5 11h15v-45q-24 -15 -56.5 -28t-66.5 -22.5t-65 -15.5t-50 -6z" />
    <glyph glyph-name="uniFB02" unicode="fl" horiz-adv-x="1194" 
d="M920 -14q-38 0 -67.5 11.5t-50 30t-31.5 41t-11 45.5q0 32 6 67t14 72l231 1047q6 27 -4 44.5t-41 29.5l-42 16l-24 -55h-19q-23 16 -43 30t-41.5 24.5t-47.5 16.5t-61 6q-46 0 -72.5 -14.5t-44.5 -44.5q-29 -51 -55.5 -153t-58.5 -237h261l-23 -76h-252l-155 -794
q-30 -151 -82.5 -258t-121.5 -175t-150.5 -99.5t-168.5 -31.5q-16 0 -36 2.5t-40 8t-40 13t-36 17.5l65 153h19q22 -16 42 -30t42 -24.5t48 -16.5t61 -6q46 0 73 14t44 43q30 51 58 149.5t56 240.5l155 794h-164l18 76h164q32 144 85 250t121.5 175.5t149 104t167.5 34.5
q32 0 74 -10.5t74 -30.5l-16 -37l274 62l-260 -1171q-12 -55 -22 -107t-10 -82q0 -10 6.5 -22.5t18.5 -24t30.5 -19.5t42.5 -8q6 0 22 2.5t35.5 7t39 9.5t31.5 10h15v-45q-24 -15 -58.5 -28.5t-71 -24t-69.5 -16.5t-53 -6z" />
    <glyph glyph-name="uniFB04" unicode="ffl" horiz-adv-x="1825" 
d="M-235 -471q-16 0 -36 2.5t-40 8t-40 13t-36 17.5l65 153h19q20 -15 39.5 -29t42 -24.5t49.5 -17t62 -6.5q46 0 73 14t44 43q15 25 29 63t28.5 87t28.5 109t28 131l155 794h-164l18 76h164q32 144 85 250t121.5 175.5t149 104t167.5 34.5q16 0 35 -2.5t39 -8t39 -13
t35 -17.5l-65 -153h-19q-20 15 -39.5 29t-42 24.5t-49.5 17t-62 6.5q-23 0 -40.5 -3.5t-32 -10.5t-25 -17.5t-19.5 -25.5q-15 -26 -28.5 -64.5t-27 -88.5t-28 -110t-30.5 -127h261l-23 -76h-252l-155 -794q-30 -151 -82.5 -258t-121.5 -175t-150.5 -99.5t-168.5 -31.5z
M1551 -14q-38 0 -67.5 11.5t-50 30t-31.5 41t-11 45.5q0 32 6 67t14 72l231 1047q6 27 -4 44.5t-41 29.5l-42 16l-24 -55h-19q-23 16 -43 30t-41.5 24.5t-47.5 16.5t-61 6q-46 0 -72.5 -14.5t-44.5 -44.5q-29 -51 -55.5 -153t-58.5 -237h261l-23 -76h-252l-155 -794
q-30 -151 -82.5 -258t-121.5 -175t-150.5 -99.5t-168.5 -31.5q-16 0 -36 2.5t-40 8t-40 13t-36 17.5l65 153h19q22 -16 42 -30t42 -24.5t48 -16.5t61 -6q46 0 73 14t44 43q30 51 58 149.5t56 240.5l155 794h-164l18 76h164q32 144 85 250t121.5 175.5t149 104t167.5 34.5
q32 0 74 -10.5t74 -30.5l-16 -37l274 62l-260 -1171q-12 -55 -22 -107t-10 -82q0 -10 6.5 -22.5t18.5 -24t30.5 -19.5t42.5 -8q6 0 22 2.5t35.5 7t39 9.5t31.5 10h15v-45q-24 -15 -58.5 -28.5t-71 -24t-69.5 -16.5t-53 -6z" />
    <glyph glyph-name=".notdef" horiz-adv-x="932" 
d="M0 1334h932v-1334h-932v1334zM76 73h781v1189h-781v-1189z" />
    <glyph glyph-name="glyph1" 
 />
    <glyph glyph-name="glyph2" 
 />
    <glyph glyph-name="space" unicode=" " horiz-adv-x="512" 
 />
    <glyph glyph-name="space" unicode="&#xa0;" horiz-adv-x="512" 
 />
    <glyph glyph-name="A" unicode="A" horiz-adv-x="1225" 
d="M696 1152l-334 -564h428l-71 422l-16 96zM228 0h-396l10 47l80 25q21 7 40.5 23t31.5 36l627 1038l172 230h37l209 -1268q3 -20 15 -37t31 -22l96 -25l-10 -47h-477l10 47l170 33l-71 432h-486l-252 -428l173 -37z" />
    <glyph glyph-name="B" unicode="B" horiz-adv-x="1215" 
d="M425 674l-133 -600h272q183 0 277.5 88.5t94.5 274.5q0 65 -20.5 110t-62.5 73.5t-105.5 41t-149.5 12.5h-173zM566 1305l-125 -562h105q116 0 195 25.5t128 69.5t70 103t21 126q0 123 -73 180.5t-218 57.5h-103zM-62 0l11 47l120 27q21 5 38.5 21t22.5 38l246 1112
q5 23 -4 39.5t-29 20.5l-134 26l11 47h487q133 0 220 -21.5t138 -57.5t71.5 -83.5t20.5 -98.5q0 -74 -28.5 -136.5t-78.5 -111.5t-118 -84.5t-146 -55.5v0q79 -5 143.5 -26.5t111 -58t72 -87.5t25.5 -114q0 -84 -26.5 -149.5t-71.5 -114.5t-105.5 -83t-129.5 -55.5t-142 -31
t-143 -9.5h-582z" />
    <glyph glyph-name="C" unicode="C" horiz-adv-x="1199" 
d="M649 -28q-134 0 -240 42.5t-180 120t-113.5 186t-39.5 240.5q0 110 27 216t76 200t117.5 173t150.5 136.5t176 89.5t194 32q58 0 119 -7t117.5 -19t106 -26.5t85.5 -29.5l-59 -319h-53l-29 175q-2 9 -5 15.5t-7.5 11.5t-10 9.5t-11.5 8.5q-27 19 -60 36.5t-71 31
t-81.5 21.5t-92.5 8q-70 0 -134 -26t-119.5 -74t-100 -115t-76.5 -149.5t-49 -178t-17 -199.5q0 -242 107.5 -370.5t327.5 -128.5q75 0 138.5 19t116.5 47.5t95.5 61t75.5 59.5h18l-22 -89q-42 -38 -95.5 -75.5t-115 -67t-129 -48t-137.5 -18.5z" />
    <glyph glyph-name="D" unicode="D" horiz-adv-x="1369" 
d="M566 1305l-274 -1231h275q136 0 245.5 55t186 153t117.5 233.5t41 297.5q0 114 -30 205.5t-87 155t-139 97.5t-186 34h-149zM-66 0l10 47l125 27q21 5 38 21t22 38l247 1112q5 23 -5 39.5t-28 20.5l-134 26l11 47h554q61 0 127.5 -10.5t131 -35t122 -64.5t101.5 -100
t70 -141.5t26 -187.5q0 -142 -31.5 -259t-87 -210.5t-132 -163t-167 -115t-192 -68.5t-205.5 -23h-603z" />
    <glyph glyph-name="E" unicode="E" horiz-adv-x="1188" 
d="M1019 0h-1082l11 47l120 27q22 5 39 21t22 38l247 1112q5 23 -5 39.5t-28 20.5l-134 26l11 47h1004l-72 -323h-56l-24 213q-2 15 -8.5 25t-24.5 10h-474l-121 -547h318q20 0 30.5 9t18.5 23l94 164h49l-104 -469h-49l-22 162q-2 16 -8.5 25.5t-26.5 9.5h-318l-134 -604
h580q18 0 29.5 9.5t19.5 25.5l121 241h56z" />
    <glyph glyph-name="F" unicode="F" horiz-adv-x="1077" 
d="M479 0h-541l11 47l121 27q21 5 37.5 21t21.5 38l247 1112q5 23 -5 39.5t-28 20.5l-133 26l10 47h1006l-71 -321h-54l-24 211q-2 15 -8.5 25t-24.5 10h-478l-125 -562h328q20 0 31 9.5t19 23.5l95 170h47l-107 -481h-47l-20 168q-2 15 -8.5 25t-26.5 10h-328l-119 -533
q-5 -23 6.5 -39.5t29.5 -19.5l149 -27z" />
    <glyph glyph-name="G" unicode="G" horiz-adv-x="1399" 
d="M608 -30q-115 0 -212.5 37.5t-168.5 109.5t-111 177t-40 240q0 113 27.5 222t78.5 206t123 179t161 141t192.5 92.5t217.5 33.5q72 0 132 -5.5t111 -14.5t94 -20.5t79 -23.5l44 -15l-63 -319h-55l-22 179q-2 17 -21.5 33.5t-50 31.5t-70 28t-82.5 22.5t-86.5 15
t-82.5 5.5q-69 0 -135 -27t-125.5 -77t-109.5 -120.5t-86.5 -158t-57 -189.5t-20.5 -214q0 -109 23.5 -200.5t69 -157.5t114 -103t158.5 -37q48 0 94 10t86 24.5t73.5 30.5t56.5 28l76 337q5 23 -5.5 39t-28.5 20l-140 27l12 47h534l-12 -47l-126 -27q-20 -5 -37.5 -20.5
t-22.5 -38.5l-36 -154q-9 -36 -17 -72.5t-15 -69.5t-12.5 -61t-9.5 -47q-54 -21 -112.5 -39t-120.5 -30.5t-128 -20t-135 -7.5z" />
    <glyph glyph-name="H" unicode="H" horiz-adv-x="1473" 
d="M461 0h-524l11 47l120 27q22 5 39 21t22 38l247 1112q5 23 -5 39.5t-28 20.5l-134 26l10 47h524l-10 -47l-119 -26q-22 -5 -39.5 -21.5t-22.5 -38.5l-109 -489h674l109 489q5 23 -5 39.5t-28 20.5l-134 26l10 47h524l-10 -47l-120 -26q-21 -5 -38.5 -21.5t-22.5 -38.5
l-247 -1112q-5 -23 5 -39t28 -20l134 -27l-11 -47h-524l11 47l120 27q22 5 39 21t22 38l121 545h-674l-121 -545q-5 -23 5 -39t29 -20l133 -27z" />
    <glyph glyph-name="I" unicode="I" horiz-adv-x="629" 
d="M465 0h-524l11 47l120 27q21 5 38.5 21t22.5 38l246 1112q5 23 -4 39.5t-29 20.5l-134 26l11 47h524l-11 -47l-119 -26q-11 -3 -21 -8.5t-18 -13.5t-14 -17.5t-9 -20.5l-246 -1112q-5 -23 5 -39t29 -20l133 -27z" />
    <glyph glyph-name="J" unicode="J" horiz-adv-x="614" 
d="M-201 -381q-17 0 -38 3.5t-43.5 9t-44 13.5t-38.5 17l70 168h19q21 -15 44.5 -30t50 -27t55 -19t58.5 -7q48 0 77 15t45 45q13 25 26 65t25.5 90.5t25.5 109.5t26 123l216 1050q5 23 -5 39.5t-30 20.5l-148 26l10 47h537l-10 -47l-119 -26q-20 -5 -37 -21.5t-22 -38.5
l-207 -1013q-28 -145 -79 -259t-121 -192.5t-156.5 -120t-186.5 -41.5z" />
    <glyph glyph-name="K" unicode="K" horiz-adv-x="1284" 
d="M461 0h-524l11 47l120 27q22 5 39 21t22 38l247 1112q5 23 -4.5 39.5t-29.5 20.5l-134 26l11 47h524l-11 -47l-119 -26q-21 -5 -38.5 -21.5t-22.5 -38.5l-131 -583l730 641l-150 28l11 47h407l-11 -47q-41 -11 -79.5 -21t-77.5 -34q-16 -10 -32 -21.5t-30 -23.5
l-509 -439l354 -640q7 -13 15.5 -26.5t18.5 -25.5t20 -20t20 -10l100 -23l-11 -47h-477l11 47l146 29l-333 604l-145 -121l-94 -426q-5 -23 5 -39t29 -20l133 -27z" />
    <glyph glyph-name="L" unicode="L" horiz-adv-x="1087" 
d="M965 0h-1028l10 47l121 27q22 5 39 21t22 38l247 1112q5 23 -5.5 39.5t-28.5 20.5l-133 26l10 47h531l-10 -47l-127 -26q-23 -5 -39.5 -21.5t-21.5 -38.5l-260 -1169h518q10 0 18.5 5.5t15.5 14t12 17.5t9 16l134 264h53z" />
    <glyph glyph-name="M" unicode="M" horiz-adv-x="1697" 
d="M370 0h-432l10 47l123 33q21 5 38 21.5t22 37.5l245 1106q5 23 -5 39.5t-28 20.5l-133 26l10 47h410l126 -893l26 -208v0l642 1101h395l-10 -47l-121 -26q-22 -5 -39 -21.5t-22 -38.5l-247 -1112q-5 -23 5 -39t30 -20l132 -27l-10 -47h-525l10 47l122 27q21 5 37.5 21
t21.5 38l258 1158v0l-94 -161l-527 -901l-146 -229h-39l-160 1128l-23 173v0l-257 -1162q-5 -23 5 -38.5t29 -20.5l131 -33z" />
    <glyph glyph-name="N" unicode="N" horiz-adv-x="1417" 
d="M1061 -10h-56l-481 1045l-74 162v0l-236 -1058q-3 -12 -1 -21.5t6.5 -17t12.5 -12.5t17 -8l131 -33l-11 -47h-432l11 47l123 33q21 5 37.5 21.5t21.5 37.5l246 1102q5 23 -5 38.5t-30 20.5l-142 31l10 47h342l445 -969l67 -144v0l219 974q5 23 -5 38.5t-29 20.5l-132 33
l10 47h433l-10 -47l-122 -33q-22 -6 -39 -21.5t-22 -37.5l-223 -1010z" />
    <glyph glyph-name="O" unicode="O" horiz-adv-x="1403" 
d="M611 -30q-131 0 -230.5 39t-167 110t-102 171t-34.5 222q0 106 23 214t68 207.5t110.5 186t151.5 150.5t191 101t228 37q138 0 238.5 -41.5t166.5 -114.5t98 -171.5t32 -213.5q0 -95 -20.5 -198.5t-62.5 -203.5t-105.5 -189.5t-149.5 -157.5t-194.5 -108t-240.5 -40z
M632 41q93 0 170.5 36.5t139.5 99.5t108.5 146.5t77.5 177.5t46.5 193.5t15.5 193.5q0 109 -24.5 193t-71.5 141t-115 86t-155 29q-96 0 -174.5 -38.5t-139.5 -103.5t-106.5 -150.5t-74.5 -179.5t-43.5 -190.5t-14.5 -182.5q0 -99 21.5 -182t65.5 -143t112.5 -93t161.5 -33z
" />
    <glyph glyph-name="P" unicode="P" horiz-adv-x="1104" 
d="M629 653q85 0 148.5 34.5t106 89.5t63.5 123.5t21 136.5q0 54 -15 103t-49.5 85.5t-91 58t-138.5 21.5h-108l-142 -635q15 -4 40.5 -7t55 -5.5t58.5 -3.5t51 -1zM478 0h-541l11 47l120 27q22 5 39 21t22 38l247 1112q5 23 -5 39.5t-28 20.5l-134 26l10 47h498
q94 0 175.5 -19t141.5 -58.5t94.5 -99.5t34.5 -141q0 -110 -42 -200.5t-113 -154.5t-165 -99t-198 -35q-26 0 -58.5 5.5t-64.5 14.5t-60 21t-46 25l-111 -504q-5 -23 5.5 -39.5t28.5 -19.5l150 -27z" />
    <glyph glyph-name="Q" unicode="Q" horiz-adv-x="1411" 
d="M635 41q93 0 170.5 36.5t139.5 99.5t108.5 146.5t77.5 177.5t46.5 193.5t15.5 193.5q0 109 -24.5 193t-71.5 141t-115 86t-155 29q-96 0 -174.5 -38.5t-139.5 -103.5t-106.5 -150.5t-74.5 -179.5t-43.5 -190.5t-14.5 -182.5q0 -99 21.5 -182t65.5 -143t112.5 -93
t161.5 -33zM1138 -410h-233q-38 0 -61.5 5.5t-40.5 19.5t-31.5 38t-34.5 62l-133 255q-131 2 -229 42t-163.5 111t-98.5 170t-33 219q0 106 23 214t68 207.5t110.5 186t151.5 150.5t191 101t228 37q138 0 238.5 -41.5t166.5 -114.5t98 -171.5t32 -213.5q0 -85 -16.5 -175.5
t-49.5 -179.5t-83 -172t-117 -152t-152 -119.5t-187 -75.5l139 -249q16 -29 41 -53t51 -29l136 -25z" />
    <glyph glyph-name="R" unicode="R" horiz-adv-x="1266" 
d="M613 696q86 0 154 29.5t115 80t72 116.5t25 139q0 63 -19.5 109t-56.5 76t-91 44.5t-123 14.5h-124l-132 -598q10 -3 34 -5t52 -3.5t54 -2t40 -0.5zM478 0h-541l10 47l121 27q22 5 39 21t22 38l247 1112q5 23 -5.5 39.5t-28.5 20.5l-133 26l10 47h500q136 0 224 -25
t138.5 -66t70 -94t19.5 -109q0 -64 -18 -117.5t-48.5 -98t-71.5 -80t-87 -62t-94.5 -44.5t-93.5 -28l278 -500q15 -27 36.5 -52t46.5 -30l112 -25l-10 -47h-200q-43 0 -68 6.5t-42 21t-30.5 38.5t-32.5 59q-22 41 -44 81.5t-44 81.5t-43.5 81.5t-43.5 81.5t-44 81.5
t-44 81.5l-167 31l-113 -512q-5 -23 3 -39.5t26 -19.5l154 -27z" />
    <glyph glyph-name="S" unicode="S" horiz-adv-x="1099" 
d="M425 -31q-48 0 -103 9t-112 24t-113 33t-105 36l71 354h53l18 -200q4 -23 27.5 -45t58.5 -41.5t76.5 -35.5t80.5 -27t71 -17.5t48 -6.5q69 0 131 20.5t108 59.5t73 95t27 128q0 76 -40.5 125t-110.5 84q-36 17 -69.5 32t-66.5 30l-66 30t-68 32q-47 22 -85.5 51.5t-67 66
t-44 79.5t-15.5 92q0 89 41.5 167.5t111 137.5t161.5 93t194 34q51 0 104 -7.5t104 -19.5t97.5 -26.5t85.5 -29.5l-64 -324h-53l-27 186q-2 17 -19 33.5t-42.5 32t-57.5 28.5t-64.5 22.5t-62.5 15t-53 5.5q-64 0 -116 -20t-89 -56t-57.5 -86.5t-20.5 -110.5q0 -36 7.5 -69
t26 -62.5t49 -55t75.5 -45.5q66 -29 129.5 -56.5t140.5 -67.5q38 -20 75.5 -44.5t67.5 -57.5t48.5 -76.5t18.5 -101.5q0 -89 -39.5 -169.5t-115 -142.5t-185 -98.5t-248.5 -36.5z" />
    <glyph glyph-name="T" unicode="T" horiz-adv-x="1227" 
d="M785 0h-565l9 47l142 27q22 4 38 20.5t21 38.5l260 1170h-321q-20 0 -31 -10.5t-19 -24.5l-122 -221h-53l75 331h1157l-75 -331h-53l-22 221q-2 15 -8.5 25t-25.5 10h-326l-260 -1170q-5 -23 6 -39.5t30 -19.5l152 -27z" />
    <glyph glyph-name="U" unicode="U" horiz-adv-x="1387" 
d="M587 -31q-110 0 -192 26.5t-137 71.5t-82.5 104.5t-27.5 126.5q0 24 3 48.5t8 48.5t11 48t11 47l167 755q5 23 -4.5 39.5t-29.5 20.5l-134 26l11 47h525l-11 -47l-120 -26q-21 -5 -38.5 -21.5t-22.5 -38.5q-39 -175 -77.5 -347.5t-76.5 -347.5q-5 -23 -11 -47t-11.5 -50
t-9 -56t-3.5 -65q0 -48 13.5 -94.5t47.5 -83.5t92.5 -60t148.5 -23q76 0 136 17t107 46.5t82 68t59.5 81.5t40.5 87.5t25 85.5l174 782q5 23 -5 38.5t-28 20.5l-138 33l11 47h432l-11 -47l-116 -33q-22 -6 -39 -21.5t-22 -37.5l-179 -807q-19 -86 -55 -153.5t-83.5 -119
t-103 -87.5t-113.5 -59t-115.5 -33.5t-108.5 -10.5z" />
    <glyph glyph-name="V" unicode="V" horiz-adv-x="1243" 
d="M506 -20h-39l-213 1267q-3 19 -14.5 37t-31.5 23l-99 24l11 47h478l-11 -47l-167 -33l158 -936l21 -137v0l629 1069l-174 37l11 47h396l-11 -47l-79 -24q-21 -6 -40.5 -23t-31.5 -37l-629 -1040z" />
    <glyph glyph-name="W" unicode="W" horiz-adv-x="1858" 
d="M407 -14h-50l-101 1263q-2 20 -13.5 36.5t-31.5 21.5l-87 24l10 47h467l-10 -47l-167 -33l67 -845l15 -189v0l459 867l166 247h50l98 -972l14 -146v0l546 1034l-174 37l10 47h393l-10 -47l-73 -24q-22 -7 -43 -24.5t-32 -37.5l-543 -1012l-172 -247h-47l-99 976l-8 139v0
l-460 -868z" />
    <glyph glyph-name="X" unicode="X" horiz-adv-x="1243" 
d="M291 0h-402l11 47l75 23q24 8 52 28.5t46 40.5l502 542l-240 564q-3 9 -8.5 19t-12 19t-14 15.5t-14.5 8.5l-93 24l11 47h476l-11 -47l-167 -33l167 -396l46 -116v0l443 508l-167 37l11 47h403l-11 -47l-74 -22q-12 -3 -25.5 -11t-26.5 -18t-25 -21t-21 -20l-476 -521
l248 -587q7 -17 22 -36t29 -23l93 -25l-11 -47h-478l11 47l167 33l-174 415l-48 118v0l-468 -529l165 -37z" />
    <glyph glyph-name="Y" unicode="Y" horiz-adv-x="1200" 
d="M778 0h-565l11 47l141 27q22 5 38 21t21 38l94 424l-232 690q-7 20 -18 37.5t-29 22.5l-99 24l10 47h480l-10 -47l-168 -33l177 -530l41 -127v0l503 653l-168 37l10 47h389l-10 -47l-79 -24q-23 -7 -42 -24t-34 -36l-543 -682l-96 -432q-5 -23 6 -39.5t29 -19.5l154 -27z
" />
    <glyph glyph-name="Z" unicode="Z" horiz-adv-x="1120" 
d="M980 0h-1064v47l1021 1161l90 95v0h-598q-20 0 -31 -9t-20 -26l-121 -221h-53l74 331h977v-41l-1026 -1167l-88 -94v0h688q19 0 30 10t19 25l126 241h55z" />
    <glyph glyph-name="Agrave" unicode="&#xc0;" horiz-adv-x="1225" 
d="M696 1152l-334 -564h428l-71 422l-16 96zM228 0h-396l10 47l80 25q21 7 40.5 23t31.5 36l627 1038l172 230h37l209 -1268q3 -20 15 -37t31 -22l96 -25l-10 -47h-477l10 47l170 33l-71 432h-486l-252 -428l173 -37zM958 1515l-38 -29l-272 230q-17 15 -29 26.5t-20 23
t-11.5 24.5t-3.5 31q0 9 2 17.5t7 16.5q4 7 10.5 13.5t14.5 11t17 7t19 2.5q17 0 31.5 -3.5t28 -12.5t27.5 -24.5t30 -39.5z" />
    <glyph glyph-name="Aacute" unicode="&#xc1;" horiz-adv-x="1225" 
d="M696 1152l-334 -564h428l-71 422l-16 96zM228 0h-396l10 47l80 25q21 7 40.5 23t31.5 36l627 1038l172 230h37l209 -1268q3 -20 15 -37t31 -22l96 -25l-10 -47h-477l10 47l170 33l-71 432h-486l-252 -428l173 -37zM662 1486l-36 29q50 71 89 126.5t69 97t53.5 70t44 46.5
t39.5 26t40 8q30 0 48 -20t18 -45q0 -17 -4.5 -30.5t-14 -25.5t-23 -24.5t-31.5 -27.5z" />
    <glyph glyph-name="Acircumflex" unicode="&#xc2;" horiz-adv-x="1225" 
d="M696 1152l-334 -564h428l-71 422l-16 96zM228 0h-396l10 47l80 25q21 7 40.5 23t31.5 36l627 1038l172 230h37l209 -1268q3 -20 15 -37t31 -22l96 -25l-10 -47h-477l10 47l170 33l-71 432h-486l-252 -428l173 -37zM831 1744l-302 -259l-33 27l237 293q14 18 27 33
t26.5 26t28 17t32.5 6q35 0 55 -21.5t37 -59.5l134 -294l-41 -27z" />
    <glyph glyph-name="uni1EA4" unicode="&#x1ea4;" horiz-adv-x="1225" 
d="M696 1152l-334 -564h428l-71 422l-16 96zM228 0h-396l10 47l80 25q21 7 40.5 23t31.5 36l627 1038l172 230h37l209 -1268q3 -20 15 -37t31 -22l96 -25l-10 -47h-477l10 47l170 33l-71 432h-486l-252 -428l173 -37zM831 1745l-302 -259l-33 27l237 293q14 18 27 33
t26.5 26t28 17t32.5 6q35 0 55 -21.5t37 -59.5l134 -294l-41 -27zM1060 1764l119 206q16 27 29.5 47.5t28.5 34t32 20.5t40 7q35 0 49 -19t14 -42q0 -16 -7.5 -31.5t-19.5 -31t-28.5 -31t-34.5 -30.5l-186 -159z" />
    <glyph glyph-name="uni1EA6" unicode="&#x1ea6;" horiz-adv-x="1225" 
d="M696 1152l-334 -564h428l-71 422l-16 96zM228 0h-396l10 47l80 25q21 7 40.5 23t31.5 36l627 1038l172 230h37l209 -1268q3 -20 15 -37t31 -22l96 -25l-10 -47h-477l10 47l170 33l-71 432h-486l-252 -428l173 -37zM831 1745l-302 -259l-33 27l237 293q14 18 27 33
t26.5 26t28 17t32.5 6q35 0 55 -21.5t37 -59.5l134 -294l-41 -27zM599 1760l-34 -26l-235 186q-14 12 -24.5 21.5t-17.5 19.5t-11 22t-4 29q0 18 7.5 30t18 19.5t22.5 10.5t21 3q15 0 28 -3t25 -11t24.5 -22t27.5 -36z" />
    <glyph glyph-name="uni1EA8" unicode="&#x1ea8;" horiz-adv-x="1225" 
d="M696 1152l-334 -564h428l-71 422l-16 96zM228 0h-396l10 47l80 25q21 7 40.5 23t31.5 36l627 1038l172 230h37l209 -1268q3 -20 15 -37t31 -22l96 -25l-10 -47h-477l10 47l170 33l-71 432h-486l-252 -428l173 -37zM1201 2032q30 0 55 -6.5t43 -18t28 -28t10 -36.5
q0 -25 -10 -44.5t-25 -36t-33.5 -31t-35.5 -30.5t-30 -34t-18 -42l-5 -22h-81l6 28q8 39 30 63t45 43.5t40.5 38.5t17.5 49q0 19 -14 32t-46 13q-18 0 -34 -6t-29.5 -15t-25.5 -20t-23 -21h-22l19 92q9 4 22.5 9.5t31 10.5t39 8.5t45.5 3.5zM831 1745l-302 -259l-33 27
l237 293q14 18 27 33t26.5 26t28 17t32.5 6q35 0 55 -21.5t37 -59.5l134 -294l-41 -27z" />
    <glyph glyph-name="uni1EAA" unicode="&#x1eaa;" horiz-adv-x="1225" 
d="M696 1152l-334 -564h428l-71 422l-16 96zM228 0h-396l10 47l80 25q21 7 40.5 23t31.5 36l627 1038l172 230h37l209 -1268q3 -20 15 -37t31 -22l96 -25l-10 -47h-477l10 47l170 33l-71 432h-486l-252 -428l173 -37zM561 1887q16 43 40.5 81.5t56 68t68.5 47t78 17.5
q34 0 63.5 -14t57 -30.5t55.5 -30t60 -13.5q43 0 74.5 28.5t49.5 72.5h56q-17 -42 -39.5 -80.5t-51.5 -68t-65.5 -47t-81.5 -17.5q-35 0 -63.5 14t-55.5 31t-55 31t-62 14q-42 0 -76 -29.5t-55 -74.5h-54zM831 1725l-302 -239l-33 27l237 277q28 34 53.5 56t60.5 22t55 -20
t37 -57l134 -278l-41 -27z" />
    <glyph glyph-name="Atilde" unicode="&#xc3;" horiz-adv-x="1225" 
d="M696 1152l-334 -564h428l-71 422l-16 96zM228 0h-396l10 47l80 25q21 7 40.5 23t31.5 36l627 1038l172 230h37l209 -1268q3 -20 15 -37t31 -22l96 -25l-10 -47h-477l10 47l170 33l-71 432h-486l-252 -428l173 -37zM534 1544h-54q13 43 36.5 81.5t54 68t66 47t71.5 17.5
q34 0 64.5 -14t59.5 -30.5t57.5 -30t60.5 -13.5q21 0 39.5 7.5t33 21t26 32t19.5 40.5h56q-14 -42 -36.5 -80.5t-51.5 -68t-63.5 -47t-71.5 -17.5q-35 0 -64.5 14t-58 31t-57.5 31t-62 14q-42 0 -75 -29.5t-50 -74.5z" />
    <glyph glyph-name="Adieresis" unicode="&#xc4;" horiz-adv-x="1225" 
d="M696 1152l-334 -564h428l-71 422l-16 96zM228 0h-396l10 47l80 25q21 7 40.5 23t31.5 36l627 1038l172 230h37l209 -1268q3 -20 15 -37t31 -22l96 -25l-10 -47h-477l10 47l170 33l-71 432h-486l-252 -428l173 -37zM608 1544q-22 0 -41.5 8.5t-33.5 22.5t-22.5 33.5
t-8.5 42.5q0 22 8 41.5t22.5 34t33.5 22.5t42 8q22 0 42 -8.5t35 -22.5t23.5 -33.5t8.5 -41.5q0 -23 -8.5 -42.5t-23.5 -33.5t-35 -22.5t-42 -8.5zM1001 1544q-22 0 -41.5 8.5t-33.5 22.5t-22.5 33.5t-8.5 42.5q0 22 8 41.5t22.5 34t33.5 22.5t42 8q22 0 42 -8.5t35 -22.5
t23.5 -33.5t8.5 -41.5q0 -23 -8.5 -42.5t-23.5 -33.5t-35 -22.5t-42 -8.5z" />
    <glyph glyph-name="Amacron" unicode="&#x100;" horiz-adv-x="1225" 
d="M696 1152l-334 -564h428l-71 422l-16 96zM228 0h-396l10 47l80 25q21 7 40.5 23t31.5 36l627 1038l172 230h37l209 -1268q3 -20 15 -37t31 -22l96 -25l-10 -47h-477l10 47l170 33l-71 432h-486l-252 -428l173 -37zM1139 1610h-624l24 106h624z" />
    <glyph glyph-name="Abreve" unicode="&#x102;" horiz-adv-x="1225" 
d="M696 1152l-334 -564h428l-71 422l-16 96zM228 0h-396l10 47l80 25q21 7 40.5 23t31.5 36l627 1038l172 230h37l209 -1268q3 -20 15 -37t31 -22l96 -25l-10 -47h-477l10 47l170 33l-71 432h-486l-252 -428l173 -37zM817 1517q-122 0 -181.5 79.5t-59.5 254.5l52 9
q7 -51 18.5 -92t34 -69.5t59.5 -43.5t95 -15q57 0 98 14.5t72.5 42.5t55.5 69t47 94l48 -9q-51 -176 -134 -255t-205 -79z" />
    <glyph glyph-name="uni1EAE" unicode="&#x1eae;" horiz-adv-x="1225" 
d="M696 1152l-334 -564h428l-71 422l-16 96zM228 0h-396l10 47l80 25q21 7 40.5 23t31.5 36l627 1038l172 230h37l209 -1268q3 -20 15 -37t31 -22l96 -25l-10 -47h-477l10 47l170 33l-71 432h-486l-252 -428l173 -37zM659 1825q4 -51 13 -92t29.5 -69.5t56.5 -43.5t95 -15
q57 0 98.5 14.5t74 42.5t59.5 69t54 94l47 -9q-63 -176 -150.5 -255t-209.5 -79t-177 79.5t-42 254.5zM817 1682l79 182q17 39 32 71.5t31 56t35 36t44 12.5q31 0 46.5 -15t15.5 -41q0 -15 -6.5 -30.5t-17.5 -30.5t-25 -31t-28 -33l-168 -195z" />
    <glyph glyph-name="uni1EB0" unicode="&#x1eb0;" horiz-adv-x="1225" 
d="M696 1152l-334 -564h428l-71 422l-16 96zM228 0h-396l10 47l80 25q21 7 40.5 23t31.5 36l627 1038l172 230h37l209 -1268q3 -20 15 -37t31 -22l96 -25l-10 -47h-477l10 47l170 33l-71 432h-486l-252 -428l173 -37zM661 1825q4 -51 13 -92t29.5 -69.5t56.5 -43.5t95 -15
q57 0 98.5 14.5t74 42.5t59.5 69t54 94l47 -9q-63 -176 -150.5 -255t-209.5 -79t-177 79.5t-42 254.5zM877 1666l-87 213q-15 37 -21 57.5t-6 40.5q0 23 7.5 39t19 26.5t25.5 15.5t27 5q21 0 34 -8t21 -24t11.5 -40.5t5.5 -56.5l11 -256z" />
    <glyph glyph-name="uni1EB2" unicode="&#x1eb2;" horiz-adv-x="1225" 
d="M696 1152l-334 -564h428l-71 422l-16 96zM228 0h-396l10 47l80 25q21 7 40.5 23t31.5 36l627 1038l172 230h37l209 -1268q3 -20 15 -37t31 -22l96 -25l-10 -47h-477l10 47l170 33l-71 432h-486l-252 -428l173 -37zM661 1825q4 -51 13 -92t29.5 -69.5t56.5 -43.5t95 -15
q57 0 98.5 14.5t74 42.5t59.5 69t54 94l47 -9q-63 -176 -150.5 -255t-209.5 -79t-177 79.5t-42 254.5zM922 1975q30 0 54.5 -6.5t42 -18t26.5 -28t9 -36.5q0 -27 -9.5 -46t-24.5 -33.5t-33 -27t-34.5 -26t-29.5 -29t-17 -37.5l-5 -22h-81l8 28q7 26 19.5 45t26.5 34
t28.5 26.5t26 23t19 23.5t7.5 27q0 18 -12 29.5t-44 11.5q-18 0 -34 -6t-29.5 -15t-25.5 -20t-23 -21h-22l19 92q9 4 22.5 9.5t31 10.5t39 8.5t45.5 3.5z" />
    <glyph glyph-name="uni1EB4" unicode="&#x1eb4;" horiz-adv-x="1225" 
d="M696 1152l-334 -564h428l-71 422l-16 96zM228 0h-396l10 47l80 25q21 7 40.5 23t31.5 36l627 1038l172 230h37l209 -1268q3 -20 15 -37t31 -22l96 -25l-10 -47h-477l10 47l170 33l-71 432h-486l-252 -428l173 -37zM661 1807q4 -49 13 -87t29.5 -63.5t55.5 -38.5t92 -13
q55 0 95 12.5t71 38t56.5 63t51.5 88.5l49 -9q-31 -86 -67.5 -146t-79 -97.5t-93 -55t-110.5 -17.5t-103 17.5t-70 55.5t-37 98t-4 145zM599 1863q16 43 40.5 81t56 66.5t68.5 45.5t78 17q34 0 63.5 -14t57 -30.5t55.5 -30t60 -13.5q43 0 73.5 25.5t48.5 69.5h56
q-17 -42 -39 -79.5t-51 -66t-65 -45t-81 -16.5q-35 0 -63.5 14t-55.5 31t-55 31t-62 14q-42 0 -76 -27.5t-55 -72.5h-54z" />
    <glyph glyph-name="Aring" unicode="&#xc5;" horiz-adv-x="1225" 
d="M696 1152l-334 -564h428l-71 422l-16 96zM228 0h-396l10 47l80 25q21 7 40.5 23t31.5 36l627 1038l172 230h37l209 -1268q3 -20 15 -37t31 -22l96 -25l-10 -47h-477l10 47l170 33l-71 432h-486l-252 -428l173 -37zM858 1543q29 0 53 13t41 35.5t26.5 54t9.5 67.5
q0 54 -25 87t-70 33q-34 0 -59 -14t-42 -37.5t-25.5 -54.5t-8.5 -65q0 -55 27 -87t73 -32zM836 1492q-41 0 -73.5 10.5t-56 30t-36 48.5t-12.5 67q0 51 18.5 94t52 74.5t80 49.5t103.5 18q40 0 72.5 -10.5t55.5 -30t35 -48.5t12 -65q0 -52 -18.5 -95.5t-52 -75t-79.5 -49.5
t-101 -18z" />
    <glyph glyph-name="Aringacute" unicode="&#x1fa;" horiz-adv-x="1225" 
d="M696 1152l-334 -564h428l-71 422l-16 96zM228 0h-396l10 47l80 25q21 7 40.5 23t31.5 36l627 1038l172 230h37l209 -1268q3 -20 15 -37t31 -22l96 -25l-10 -47h-477l10 47l170 33l-71 432h-486l-252 -428l173 -37zM772 1872l-36 29q50 71 89 126.5t69 97t53.5 70t44 46.5
t39.5 26t40 8q30 0 48 -20t18 -45q0 -17 -4.5 -30.5t-14 -25.5t-23 -24.5t-31.5 -27.5zM853 1526q29 0 53 13t41 35.5t26.5 54t9.5 67.5q0 54 -25 87t-70 33q-34 0 -59 -14t-42 -37.5t-25.5 -54.5t-8.5 -65q0 -55 27 -87t73 -32zM831 1475q-41 0 -73.5 10.5t-56 30t-36 48.5
t-12.5 67q0 51 18.5 94t52 74.5t80 49.5t103.5 18q40 0 72.5 -10.5t55.5 -30t35 -48.5t12 -65q0 -52 -18.5 -95.5t-52 -75t-79.5 -49.5t-101 -18z" />
    <glyph glyph-name="uni1EA2" unicode="&#x1ea2;" horiz-adv-x="1225" 
d="M696 1152l-334 -564h428l-71 422l-16 96zM228 0h-396l10 47l80 25q21 7 40.5 23t31.5 36l627 1038l172 230h37l209 -1268q3 -20 15 -37t31 -22l96 -25l-10 -47h-477l10 47l170 33l-71 432h-486l-252 -428l173 -37zM906 1954q83 0 126.5 -32t43.5 -87q0 -37 -13.5 -65.5
t-34 -52.5t-45 -46t-47.5 -45t-41.5 -49.5t-25.5 -59.5l-6 -31h-101l8 39q8 37 24.5 65.5t37 51.5t42.5 43t40 40t29.5 42t11.5 50q0 12 -3.5 23.5t-13 21.5t-25.5 16t-41 6q-26 0 -47.5 -7t-40 -18t-35 -24.5t-32.5 -27.5h-27l21 101q12 6 31 13.5t44 15t55 12.5t65 5z" />
    <glyph glyph-name="uni1EA0" unicode="&#x1ea0;" horiz-adv-x="1225" 
d="M696 1152l-334 -564h428l-71 422l-16 96zM228 0h-396l10 47l80 25q21 7 40.5 23t31.5 36l627 1038l172 230h37l209 -1268q3 -20 15 -37t31 -22l96 -25l-10 -47h-477l10 47l170 33l-71 432h-486l-252 -428l173 -37zM396 -364q-24 0 -41.5 8t-29.5 21.5t-17.5 29.5t-5.5 33
q0 33 13 58.5t34 43.5t46 27t49 9t42 -8t30 -21.5t18 -30.5t6 -34q0 -32 -13.5 -57t-34.5 -42.5t-46.5 -27t-49.5 -9.5z" />
    <glyph glyph-name="uni1EAC" unicode="&#x1eac;" horiz-adv-x="1225" 
d="M696 1152l-334 -564h428l-71 422l-16 96zM228 0h-396l10 47l80 25q21 7 40.5 23t31.5 36l627 1038l172 230h37l209 -1268q3 -20 15 -37t31 -22l96 -25l-10 -47h-477l10 47l170 33l-71 432h-486l-252 -428l173 -37zM866 1744l-302 -259l-33 27l237 293q14 18 27 33
t26.5 26t28 17t32.5 6q35 0 55 -21.5t37 -59.5l134 -294l-41 -27zM396 -364q-24 0 -41.5 8t-29.5 21.5t-17.5 29.5t-5.5 33q0 33 13 58.5t34 43.5t46 27t49 9t42 -8t30 -21.5t18 -30.5t6 -34q0 -32 -13.5 -57t-34.5 -42.5t-46.5 -27t-49.5 -9.5z" />
    <glyph glyph-name="uni1EB6" unicode="&#x1eb6;" horiz-adv-x="1225" 
d="M696 1152l-334 -564h428l-71 422l-16 96zM228 0h-396l10 47l80 25q21 7 40.5 23t31.5 36l627 1038l172 230h37l209 -1268q3 -20 15 -37t31 -22l96 -25l-10 -47h-477l10 47l170 33l-71 432h-486l-252 -428l173 -37zM817 1517q-122 0 -181.5 79.5t-59.5 254.5l52 9
q7 -51 18.5 -92t34 -69.5t59.5 -43.5t95 -15q57 0 98 14.5t72.5 42.5t55.5 69t47 94l48 -9q-51 -176 -134 -255t-205 -79zM396 -364q-24 0 -41.5 8t-29.5 21.5t-17.5 29.5t-5.5 33q0 33 13 58.5t34 43.5t46 27t49 9t42 -8t30 -21.5t18 -30.5t6 -34q0 -32 -13.5 -57
t-34.5 -42.5t-46.5 -27t-49.5 -9.5z" />
    <glyph glyph-name="Aogonek" unicode="&#x104;" horiz-adv-x="1225" 
d="M696 1152l-334 -564h428l-71 422zM858 -439q-56 0 -94 13.5t-62 36t-34.5 51t-10.5 58.5q0 45 18.5 84.5t48 74t67 64.5t76.5 57h-173l10 47l170 33l-71 432h-486l-252 -428l173 -37l-10 -47h-396l10 47l80 25q21 7 40.5 23t31.5 36l627 1038l172 230h37l209 -1268
q3 -20 15 -37t31 -22l96 -25l-10 -47h-240q-30 -24 -56 -51t-45.5 -57t-30.5 -62.5t-11 -68.5q0 -23 7 -44.5t21.5 -37.5t36.5 -25.5t52 -9.5q28 0 55.5 7t53.5 19h11l-25 -79q-42 -15 -75.5 -22.5t-66.5 -7.5z" />
    <glyph glyph-name="AE" unicode="&#xc6;" horiz-adv-x="1971" 
d="M1136 1309l-517 -593h423l132 593h-38zM230 0h-407l11 47l87 25q23 7 46.5 23t41.5 36l854 983l32.5 37.5t37 45t30 43t12.5 32.5q0 17 -11 23t-29 10l-133 26l10 47h1195l-72 -323h-56l-16 142q-2 15 -3.5 33.5t-5.5 34.5t-11.5 27t-20.5 11h-474l-131 -587h239
q31 0 52.5 0.5t37 4.5t26.5 13t20 25l88 153h49l-102 -454h-49l-24 147q-2 16 -8.5 25.5t-26.5 9.5h-319l-124 -564h580q18 0 29 10t19 25l121 241h56l-79 -352h-1082l11 47l122 27q21 5 37.5 21t21.5 38l113 507h-473l-472 -556l161 -37z" />
    <glyph glyph-name="AEacute" unicode="&#x1fc;" horiz-adv-x="1971" 
d="M1136 1309l-517 -593h423l132 593h-38zM230 0h-407l11 47l87 25q23 7 46.5 23t41.5 36l854 983l32.5 37.5t37 45t30 43t12.5 32.5q0 17 -11 23t-29 10l-133 26l10 47h1195l-72 -323h-56l-16 142q-2 15 -3.5 33.5t-5.5 34.5t-11.5 27t-20.5 11h-474l-131 -587h239
q31 0 52.5 0.5t37 4.5t26.5 13t20 25l88 153h49l-102 -454h-49l-24 147q-2 16 -8.5 25.5t-26.5 9.5h-319l-124 -564h580q18 0 29 10t19 25l121 241h56l-79 -352h-1082l11 47l122 27q21 5 37.5 21t21.5 38l113 507h-473l-472 -556l161 -37zM1192 1486l-36 29q50 71 89 126.5
t69 97t53.5 70t44 46.5t39.5 26t40 8q30 0 48 -20t18 -45q0 -17 -4.5 -30.5t-14 -25.5t-23 -24.5t-31.5 -27.5z" />
    <glyph glyph-name="Cacute" unicode="&#x106;" horiz-adv-x="1199" 
d="M649 -28q-134 0 -240 42.5t-180 120t-113.5 186t-39.5 240.5q0 110 27 216t76 200t117.5 173t150.5 136.5t176 89.5t194 32q58 0 119 -7t117.5 -19t106 -26.5t85.5 -29.5l-59 -319h-53l-29 175q-2 9 -5 15.5t-7.5 11.5t-10 9.5t-11.5 8.5q-27 19 -60 36.5t-71 31
t-81.5 21.5t-92.5 8q-70 0 -134 -26t-119.5 -74t-100 -115t-76.5 -149.5t-49 -178t-17 -199.5q0 -242 107.5 -370.5t327.5 -128.5q75 0 138.5 19t116.5 47.5t95.5 61t75.5 59.5h18l-22 -89q-42 -38 -95.5 -75.5t-115 -67t-129 -48t-137.5 -18.5zM634 1486l-36 29
q50 71 89 126.5t69 97t53.5 70t44 46.5t39.5 26t40 8q30 0 48 -20t18 -45q0 -17 -4.5 -30.5t-14 -25.5t-23 -24.5t-31.5 -27.5z" />
    <glyph glyph-name="Ccircumflex" unicode="&#x108;" horiz-adv-x="1199" 
d="M649 -28q-134 0 -240 42.5t-180 120t-113.5 186t-39.5 240.5q0 110 27 216t76 200t117.5 173t150.5 136.5t176 89.5t194 32q58 0 119 -7t117.5 -19t106 -26.5t85.5 -29.5l-59 -319h-53l-29 175q-2 9 -5 15.5t-7.5 11.5t-10 9.5t-11.5 8.5q-27 19 -60 36.5t-71 31
t-81.5 21.5t-92.5 8q-70 0 -134 -26t-119.5 -74t-100 -115t-76.5 -149.5t-49 -178t-17 -199.5q0 -242 107.5 -370.5t327.5 -128.5q75 0 138.5 19t116.5 47.5t95.5 61t75.5 59.5h18l-22 -89q-42 -38 -95.5 -75.5t-115 -67t-129 -48t-137.5 -18.5zM857 1744l-302 -259l-33 27
l237 293q14 18 27 33t26.5 26t28 17t32.5 6q35 0 55 -21.5t37 -59.5l134 -294l-41 -27z" />
    <glyph glyph-name="Ccaron" unicode="&#x10c;" horiz-adv-x="1199" 
d="M649 -28q-134 0 -240 42.5t-180 120t-113.5 186t-39.5 240.5q0 110 27 216t76 200t117.5 173t150.5 136.5t176 89.5t194 32q58 0 119 -7t117.5 -19t106 -26.5t85.5 -29.5l-59 -319h-53l-29 175q-2 9 -5 15.5t-7.5 11.5t-10 9.5t-11.5 8.5q-27 19 -60 36.5t-71 31
t-81.5 21.5t-92.5 8q-70 0 -134 -26t-119.5 -74t-100 -115t-76.5 -149.5t-49 -178t-17 -199.5q0 -242 107.5 -370.5t327.5 -128.5q75 0 138.5 19t116.5 47.5t95.5 61t75.5 59.5h18l-22 -89q-42 -38 -95.5 -75.5t-115 -67t-129 -48t-137.5 -18.5zM807 1485q-35 0 -55 22
t-37 59l-134 294l41 27l201 -259l302 259l33 -27l-237 -293q-28 -35 -53.5 -58.5t-60.5 -23.5z" />
    <glyph glyph-name="Cdotaccent" unicode="&#x10a;" horiz-adv-x="1199" 
d="M649 -28q-134 0 -240 42.5t-180 120t-113.5 186t-39.5 240.5q0 110 27 216t76 200t117.5 173t150.5 136.5t176 89.5t194 32q58 0 119 -7t117.5 -19t106 -26.5t85.5 -29.5l-59 -319h-53l-29 175q-2 9 -5 15.5t-7.5 11.5t-10 9.5t-11.5 8.5q-27 19 -60 36.5t-71 31
t-81.5 21.5t-92.5 8q-70 0 -134 -26t-119.5 -74t-100 -115t-76.5 -149.5t-49 -178t-17 -199.5q0 -242 107.5 -370.5t327.5 -128.5q75 0 138.5 19t116.5 47.5t95.5 61t75.5 59.5h18l-22 -89q-42 -38 -95.5 -75.5t-115 -67t-129 -48t-137.5 -18.5zM808 1544q-24 0 -45.5 9
t-37 24.5t-24.5 37t-9 46.5q0 24 9 45.5t24.5 37t37 24.5t45.5 9q25 0 46.5 -9t37.5 -24.5t25.5 -37t9.5 -45.5q0 -25 -9.5 -46.5t-25.5 -37t-37.5 -24.5t-46.5 -9z" />
    <glyph glyph-name="Ccedilla" unicode="&#xc7;" horiz-adv-x="1199" 
d="M542 -446q-57 0 -102.5 13.5t-79.5 30.5l18 71h17q25 -16 62.5 -31.5t86.5 -15.5q33 0 57.5 10t41 26.5t24.5 37.5t8 44q0 38 -34 52t-112 16l57 166q-120 10 -214.5 56.5t-160.5 123t-100.5 180t-34.5 227.5q0 110 27 216t76 200t117.5 173t150.5 136.5t176 89.5t194 32
q58 0 119 -7t117.5 -19t106 -26.5t85.5 -29.5l-59 -319h-53l-29 175q-2 9 -5 15.5t-7.5 11.5t-10 9.5t-11.5 8.5q-27 19 -60 36.5t-71 31t-81.5 21.5t-92.5 8q-70 0 -134 -26t-119.5 -74t-100 -115t-76.5 -149.5t-49 -178t-17 -199.5q0 -242 107.5 -370.5t327.5 -128.5
q75 0 138.5 19t116.5 47.5t95.5 61t75.5 59.5h18l-22 -89q-42 -38 -95.5 -75.5t-115 -67t-129 -48t-137.5 -18.5h-4h-4l-29 -89q38 0 72 -7t59.5 -22t40.5 -39.5t15 -58.5q0 -46 -20 -83t-55 -63.5t-82 -41t-100 -14.5z" />
    <glyph glyph-name="Dcaron" unicode="&#x10e;" horiz-adv-x="1369" 
d="M566 1305l-274 -1231h275q136 0 245.5 55t186 153t117.5 233.5t41 297.5q0 114 -30 205.5t-87 155t-139 97.5t-186 34h-149zM-66 0l10 47l125 27q21 5 38 21t22 38l247 1112q5 23 -5 39.5t-28 20.5l-134 26l11 47h554q61 0 127.5 -10.5t131 -35t122 -64.5t101.5 -100
t70 -141.5t26 -187.5q0 -142 -31.5 -259t-87 -210.5t-132 -163t-167 -115t-192 -68.5t-205.5 -23h-603zM817 1485q-35 0 -55 22t-37 59l-134 294l41 27l201 -259l302 259l33 -27l-237 -293q-28 -35 -53.5 -58.5t-60.5 -23.5z" />
    <glyph glyph-name="Dcroat" unicode="&#x110;" horiz-adv-x="1369" 
d="M426 678l-134 -604h275q136 0 245.5 55t186 153t117.5 233.5t41 297.5q0 114 -30 205.5t-87 155t-139 97.5t-186 34h-149l-122 -549h330l-17 -78h-331zM-66 0l10 47l125 27q21 5 38 21t22 38l121 545h-163l17 78h163l109 489q5 23 -5 39.5t-28 20.5l-134 26l11 47h554
q61 0 127.5 -10.5t131 -35t122 -64.5t101.5 -100t70 -141.5t26 -187.5q0 -142 -31.5 -259t-87 -210.5t-132 -163t-167 -115t-192 -68.5t-205.5 -23h-603z" />
    <glyph glyph-name="Egrave" unicode="&#xc8;" horiz-adv-x="1188" 
d="M1019 0h-1082l11 47l120 27q22 5 39 21t22 38l247 1112q5 23 -5 39.5t-28 20.5l-134 26l11 47h1004l-72 -323h-56l-24 213q-2 15 -8.5 25t-24.5 10h-474l-121 -547h318q20 0 30.5 9t18.5 23l94 164h49l-104 -469h-49l-22 162q-2 16 -8.5 25.5t-26.5 9.5h-318l-134 -604
h580q18 0 29.5 9.5t19.5 25.5l121 241h56zM940 1515l-38 -29l-272 230q-17 15 -29 26.5t-20 23t-11.5 24.5t-3.5 31q0 9 2 17.5t7 16.5q4 7 10.5 13.5t14.5 11t17 7t19 2.5q17 0 31.5 -3.5t28 -12.5t27.5 -24.5t30 -39.5z" />
    <glyph glyph-name="Eacute" unicode="&#xc9;" horiz-adv-x="1188" 
d="M1019 0h-1082l11 47l120 27q22 5 39 21t22 38l247 1112q5 23 -5 39.5t-28 20.5l-134 26l11 47h1004l-72 -323h-56l-24 213q-2 15 -8.5 25t-24.5 10h-474l-121 -547h318q20 0 30.5 9t18.5 23l94 164h49l-104 -469h-49l-22 162q-2 16 -8.5 25.5t-26.5 9.5h-318l-134 -604
h580q18 0 29.5 9.5t19.5 25.5l121 241h56zM714 1486l-36 29q50 71 89 126.5t69 97t53.5 70t44 46.5t39.5 26t40 8q30 0 48 -20t18 -45q0 -17 -4.5 -30.5t-14 -25.5t-23 -24.5t-31.5 -27.5z" />
    <glyph glyph-name="Ecircumflex" unicode="&#xca;" horiz-adv-x="1188" 
d="M1019 0h-1082l11 47l120 27q22 5 39 21t22 38l247 1112q5 23 -5 39.5t-28 20.5l-134 26l11 47h1004l-72 -323h-56l-24 213q-2 15 -8.5 25t-24.5 10h-474l-121 -547h318q20 0 30.5 9t18.5 23l94 164h49l-104 -469h-49l-22 162q-2 16 -8.5 25.5t-26.5 9.5h-318l-134 -604
h580q18 0 29.5 9.5t19.5 25.5l121 241h56zM830 1744l-302 -259l-33 27l237 293q14 18 27 33t26.5 26t28 17t32.5 6q35 0 55 -21.5t37 -59.5l134 -294l-41 -27z" />
    <glyph glyph-name="uni1EBE" unicode="&#x1ebe;" horiz-adv-x="1188" 
d="M1019 0h-1082l11 47l120 27q22 5 39 21t22 38l247 1112q5 23 -5 39.5t-28 20.5l-134 26l11 47h1004l-72 -323h-56l-24 213q-2 15 -8.5 25t-24.5 10h-474l-121 -547h318q20 0 30.5 9t18.5 23l94 164h49l-104 -469h-49l-22 162q-2 16 -8.5 25.5t-26.5 9.5h-318l-134 -604
h580q18 0 29.5 9.5t19.5 25.5l121 241h56zM830 1745l-302 -259l-33 27l237 293q14 18 27 33t26.5 26t28 17t32.5 6q35 0 55 -21.5t37 -59.5l134 -294l-41 -27zM1059 1764l119 206q16 27 29.5 47.5t28.5 34t32 20.5t40 7q35 0 49 -19t14 -42q0 -16 -7.5 -31.5t-19.5 -31
t-28.5 -31t-34.5 -30.5l-186 -159z" />
    <glyph glyph-name="uni1EC0" unicode="&#x1ec0;" horiz-adv-x="1188" 
d="M1019 0h-1082l11 47l120 27q22 5 39 21t22 38l247 1112q5 23 -5 39.5t-28 20.5l-134 26l11 47h1004l-72 -323h-56l-24 213q-2 15 -8.5 25t-24.5 10h-474l-121 -547h318q20 0 30.5 9t18.5 23l94 164h49l-104 -469h-49l-22 162q-2 16 -8.5 25.5t-26.5 9.5h-318l-134 -604
h580q18 0 29.5 9.5t19.5 25.5l121 241h56zM830 1745l-302 -259l-33 27l237 293q14 18 27 33t26.5 26t28 17t32.5 6q35 0 55 -21.5t37 -59.5l134 -294l-41 -27zM598 1760l-34 -26l-235 186q-14 12 -24.5 21.5t-17.5 19.5t-11 22t-4 29q0 18 7.5 30t18 19.5t22.5 10.5t21 3
q15 0 28 -3t25 -11t24.5 -22t27.5 -36z" />
    <glyph glyph-name="uni1EC2" unicode="&#x1ec2;" horiz-adv-x="1188" 
d="M1019 0h-1082l11 47l120 27q22 5 39 21t22 38l247 1112q5 23 -5 39.5t-28 20.5l-134 26l11 47h1004l-72 -323h-56l-24 213q-2 15 -8.5 25t-24.5 10h-474l-121 -547h318q20 0 30.5 9t18.5 23l94 164h49l-104 -469h-49l-22 162q-2 16 -8.5 25.5t-26.5 9.5h-318l-134 -604
h580q18 0 29.5 9.5t19.5 25.5l121 241h56zM1200 2032q30 0 55 -6.5t43 -18t28 -28t10 -36.5q0 -25 -10 -44.5t-25 -36t-33.5 -31t-35.5 -30.5t-30 -34t-18 -42l-5 -22h-81l6 28q8 39 30 63t45 43.5t40.5 38.5t17.5 49q0 19 -14 32t-46 13q-18 0 -34 -6t-29.5 -15t-25.5 -20
t-23 -21h-22l19 92q9 4 22.5 9.5t31 10.5t39 8.5t45.5 3.5zM830 1745l-302 -259l-33 27l237 293q14 18 27 33t26.5 26t28 17t32.5 6q35 0 55 -21.5t37 -59.5l134 -294l-41 -27z" />
    <glyph glyph-name="uni1EC4" unicode="&#x1ec4;" horiz-adv-x="1188" 
d="M1019 0h-1082l11 47l120 27q22 5 39 21t22 38l247 1112q5 23 -5 39.5t-28 20.5l-134 26l11 47h1004l-72 -323h-56l-24 213q-2 15 -8.5 25t-24.5 10h-474l-121 -547h318q20 0 30.5 9t18.5 23l94 164h49l-104 -469h-49l-22 162q-2 16 -8.5 25.5t-26.5 9.5h-318l-134 -604
h580q18 0 29.5 9.5t19.5 25.5l121 241h56zM560 1887q16 43 40.5 81.5t56 68t68.5 47t78 17.5q34 0 63.5 -14t57 -30.5t55.5 -30t60 -13.5q43 0 74.5 28.5t49.5 72.5h56q-17 -42 -39.5 -80.5t-51.5 -68t-65.5 -47t-81.5 -17.5q-35 0 -63.5 14t-55.5 31t-55 31t-62 14
q-42 0 -76 -29.5t-55 -74.5h-54zM830 1725l-302 -239l-33 27l237 277q28 34 53.5 56t60.5 22t55 -20t37 -57l134 -278l-41 -27z" />
    <glyph glyph-name="Ecaron" unicode="&#x11a;" horiz-adv-x="1188" 
d="M1019 0h-1082l11 47l120 27q22 5 39 21t22 38l247 1112q5 23 -5 39.5t-28 20.5l-134 26l11 47h1004l-72 -323h-56l-24 213q-2 15 -8.5 25t-24.5 10h-474l-121 -547h318q20 0 30.5 9t18.5 23l94 164h49l-104 -469h-49l-22 162q-2 16 -8.5 25.5t-26.5 9.5h-318l-134 -604
h580q18 0 29.5 9.5t19.5 25.5l121 241h56zM745 1485q-35 0 -55 22t-37 59l-134 294l41 27l201 -259l302 259l33 -27l-237 -293q-28 -35 -53.5 -58.5t-60.5 -23.5z" />
    <glyph glyph-name="uni1EBC" unicode="&#x1ebc;" horiz-adv-x="1188" 
d="M1019 0h-1082l11 47l120 27q22 5 39 21t22 38l247 1112q5 23 -5 39.5t-28 20.5l-134 26l11 47h1004l-72 -323h-56l-24 213q-2 15 -8.5 25t-24.5 10h-474l-121 -547h318q20 0 30.5 9t18.5 23l94 164h49l-104 -469h-49l-22 162q-2 16 -8.5 25.5t-26.5 9.5h-318l-134 -604
h580q18 0 29.5 9.5t19.5 25.5l121 241h56zM513 1544h-54q13 43 36.5 81.5t54 68t66 47t71.5 17.5q34 0 64.5 -14t59.5 -30.5t57.5 -30t60.5 -13.5q21 0 39.5 7.5t33 21t26 32t19.5 40.5h56q-14 -42 -36.5 -80.5t-51.5 -68t-63.5 -47t-71.5 -17.5q-35 0 -64.5 14t-58 31
t-57.5 31t-62 14q-42 0 -75 -29.5t-50 -74.5z" />
    <glyph glyph-name="Edieresis" unicode="&#xcb;" horiz-adv-x="1188" 
d="M1019 0h-1082l11 47l120 27q22 5 39 21t22 38l247 1112q5 23 -5 39.5t-28 20.5l-134 26l11 47h1004l-72 -323h-56l-24 213q-2 15 -8.5 25t-24.5 10h-474l-121 -547h318q20 0 30.5 9t18.5 23l94 164h49l-104 -469h-49l-22 162q-2 16 -8.5 25.5t-26.5 9.5h-318l-134 -604
h580q18 0 29.5 9.5t19.5 25.5l121 241h56zM595 1544q-22 0 -41.5 8.5t-33.5 22.5t-22.5 33.5t-8.5 42.5q0 22 8 41.5t22.5 34t33.5 22.5t42 8q22 0 42 -8.5t35 -22.5t23.5 -33.5t8.5 -41.5q0 -23 -8.5 -42.5t-23.5 -33.5t-35 -22.5t-42 -8.5zM988 1544q-22 0 -41.5 8.5
t-33.5 22.5t-22.5 33.5t-8.5 42.5q0 22 8 41.5t22.5 34t33.5 22.5t42 8q22 0 42 -8.5t35 -22.5t23.5 -33.5t8.5 -41.5q0 -23 -8.5 -42.5t-23.5 -33.5t-35 -22.5t-42 -8.5z" />
    <glyph glyph-name="Emacron" unicode="&#x112;" horiz-adv-x="1188" 
d="M1019 0h-1082l11 47l120 27q22 5 39 21t22 38l247 1112q5 23 -5 39.5t-28 20.5l-134 26l11 47h1004l-72 -323h-56l-24 213q-2 15 -8.5 25t-24.5 10h-474l-121 -547h318q20 0 30.5 9t18.5 23l94 164h49l-104 -469h-49l-22 162q-2 16 -8.5 25.5t-26.5 9.5h-318l-134 -604
h580q18 0 29.5 9.5t19.5 25.5l121 241h56zM1068 1610h-624l24 106h624z" />
    <glyph glyph-name="Ebreve" unicode="&#x114;" horiz-adv-x="1188" 
d="M1019 0h-1082l11 47l120 27q22 5 39 21t22 38l247 1112q5 23 -5 39.5t-28 20.5l-134 26l11 47h1004l-72 -323h-56l-24 213q-2 15 -8.5 25t-24.5 10h-474l-121 -547h318q20 0 30.5 9t18.5 23l94 164h49l-104 -469h-49l-22 162q-2 16 -8.5 25.5t-26.5 9.5h-318l-134 -604
h580q18 0 29.5 9.5t19.5 25.5l121 241h56zM746 1517q-122 0 -181.5 79.5t-59.5 254.5l52 9q7 -51 18.5 -92t34 -69.5t59.5 -43.5t95 -15q57 0 98 14.5t72.5 42.5t55.5 69t47 94l48 -9q-51 -176 -134 -255t-205 -79z" />
    <glyph glyph-name="Edotaccent" unicode="&#x116;" horiz-adv-x="1188" 
d="M1019 0h-1082l11 47l120 27q22 5 39 21t22 38l247 1112q5 23 -5 39.5t-28 20.5l-134 26l11 47h1004l-72 -323h-56l-24 213q-2 15 -8.5 25t-24.5 10h-474l-121 -547h318q20 0 30.5 9t18.5 23l94 164h49l-104 -469h-49l-22 162q-2 16 -8.5 25.5t-26.5 9.5h-318l-134 -604
h580q18 0 29.5 9.5t19.5 25.5l121 241h56zM746 1544q-24 0 -45.5 9t-37 24.5t-24.5 37t-9 46.5q0 24 9 45.5t24.5 37t37 24.5t45.5 9q25 0 46.5 -9t37.5 -24.5t25.5 -37t9.5 -45.5q0 -25 -9.5 -46.5t-25.5 -37t-37.5 -24.5t-46.5 -9z" />
    <glyph glyph-name="uni1EBA" unicode="&#x1eba;" horiz-adv-x="1188" 
d="M1019 0h-1082l11 47l120 27q22 5 39 21t22 38l247 1112q5 23 -5 39.5t-28 20.5l-134 26l11 47h1004l-72 -323h-56l-24 213q-2 15 -8.5 25t-24.5 10h-474l-121 -547h318q20 0 30.5 9t18.5 23l94 164h49l-104 -469h-49l-22 162q-2 16 -8.5 25.5t-26.5 9.5h-318l-134 -604
h580q18 0 29.5 9.5t19.5 25.5l121 241h56zM835 1954q83 0 126.5 -32t43.5 -87q0 -37 -13.5 -65.5t-34 -52.5t-45 -46t-47.5 -45t-41.5 -49.5t-25.5 -59.5l-6 -31h-101l8 39q8 37 24.5 65.5t37 51.5t42.5 43t40 40t29.5 42t11.5 50q0 12 -3.5 23.5t-13 21.5t-25.5 16t-41 6
q-26 0 -47.5 -7t-40 -18t-35 -24.5t-32.5 -27.5h-27l21 101q12 6 31 13.5t44 15t55 12.5t65 5z" />
    <glyph glyph-name="uni1EB8" unicode="&#x1eb8;" horiz-adv-x="1188" 
d="M1019 0h-1082l11 47l120 27q22 5 39 21t22 38l247 1112q5 23 -5 39.5t-28 20.5l-134 26l11 47h1004l-72 -323h-56l-24 213q-2 15 -8.5 25t-24.5 10h-474l-121 -547h318q20 0 30.5 9t18.5 23l94 164h49l-104 -469h-49l-22 162q-2 16 -8.5 25.5t-26.5 9.5h-318l-134 -604
h580q18 0 29.5 9.5t19.5 25.5l121 241h56zM468 -364q-24 0 -41.5 8t-29.5 21.5t-17.5 29.5t-5.5 33q0 33 13 58.5t34 43.5t46 27t49 9t42 -8t30 -21.5t18 -30.5t6 -34q0 -32 -13.5 -57t-34.5 -42.5t-46.5 -27t-49.5 -9.5z" />
    <glyph glyph-name="uni1EC6" unicode="&#x1ec6;" horiz-adv-x="1188" 
d="M478 -364q-24 0 -41.5 8t-29.5 21.5t-17.5 29.5t-5.5 33q0 33 13 58.5t34 43.5t46 27t49 9t42 -8t30 -21.5t18 -30.5t6 -34q0 -32 -13.5 -57t-34.5 -42.5t-46.5 -27t-49.5 -9.5zM1019 0h-1082l11 47l120 27q22 5 39 21t22 38l247 1112q5 23 -5 39.5t-28 20.5l-134 26
l11 47h1004l-72 -323h-56l-24 213q-2 15 -8.5 25t-24.5 10h-474l-121 -547h318q20 0 30.5 9t18.5 23l94 164h49l-104 -469h-49l-22 162q-2 16 -8.5 25.5t-26.5 9.5h-318l-134 -604h580q18 0 29.5 9.5t19.5 25.5l121 241h56zM830 1744l-302 -259l-33 27l237 293q14 18 27 33
t26.5 26t28 17t32.5 6q35 0 55 -21.5t37 -59.5l134 -294l-41 -27z" />
    <glyph glyph-name="Eogonek" unicode="&#x118;" horiz-adv-x="1188" 
d="M740 -439q-56 0 -94 13.5t-62 36t-34.5 51t-10.5 58.5q0 45 18.5 84.5t48 74t67 64.5t76.5 57h-812l11 47l120 27q22 5 39 21t22 38l247 1112q5 23 -5 39.5t-28 20.5l-134 26l11 47h1004l-72 -323h-56l-24 213q-2 15 -8.5 25t-24.5 10h-474l-121 -547h318q20 0 30.5 9
t18.5 23l94 164h49l-104 -469h-49l-22 162q-2 16 -8.5 25.5t-26.5 9.5h-318l-134 -604h580q18 0 29.5 9.5t19.5 25.5l121 241h56l-79 -352h-206q-30 -24 -56 -51t-45.5 -57t-30.5 -62.5t-11 -68.5q0 -23 7 -44.5t21.5 -37.5t36.5 -25.5t52 -9.5q28 0 55.5 7t53.5 19h11
l-25 -79q-42 -15 -75.5 -22.5t-66.5 -7.5z" />
    <glyph glyph-name="Gcircumflex" unicode="&#x11c;" horiz-adv-x="1399" 
d="M608 -30q-115 0 -212.5 37.5t-168.5 109.5t-111 177t-40 240q0 113 27.5 222t78.5 206t123 179t161 141t192.5 92.5t217.5 33.5q72 0 132 -5.5t111 -14.5t94 -20.5t79 -23.5l44 -15l-63 -319h-55l-22 179q-2 17 -21.5 33.5t-50 31.5t-70 28t-82.5 22.5t-86.5 15
t-82.5 5.5q-69 0 -135 -27t-125.5 -77t-109.5 -120.5t-86.5 -158t-57 -189.5t-20.5 -214q0 -109 23.5 -200.5t69 -157.5t114 -103t158.5 -37q48 0 94 10t86 24.5t73.5 30.5t56.5 28l76 337q5 23 -5.5 39t-28.5 20l-140 27l12 47h534l-12 -47l-126 -27q-20 -5 -37.5 -20.5
t-22.5 -38.5l-36 -154q-9 -36 -17 -72.5t-15 -69.5t-12.5 -61t-9.5 -47q-54 -21 -112.5 -39t-120.5 -30.5t-128 -20t-135 -7.5zM899 1744l-302 -259l-33 27l237 293q14 18 27 33t26.5 26t28 17t32.5 6q35 0 55 -21.5t37 -59.5l134 -294l-41 -27z" />
    <glyph glyph-name="Gbreve" unicode="&#x11e;" horiz-adv-x="1399" 
d="M608 -30q-115 0 -212.5 37.5t-168.5 109.5t-111 177t-40 240q0 113 27.5 222t78.5 206t123 179t161 141t192.5 92.5t217.5 33.5q72 0 132 -5.5t111 -14.5t94 -20.5t79 -23.5l44 -15l-63 -319h-55l-22 179q-2 17 -21.5 33.5t-50 31.5t-70 28t-82.5 22.5t-86.5 15
t-82.5 5.5q-69 0 -135 -27t-125.5 -77t-109.5 -120.5t-86.5 -158t-57 -189.5t-20.5 -214q0 -109 23.5 -200.5t69 -157.5t114 -103t158.5 -37q48 0 94 10t86 24.5t73.5 30.5t56.5 28l76 337q5 23 -5.5 39t-28.5 20l-140 27l12 47h534l-12 -47l-126 -27q-20 -5 -37.5 -20.5
t-22.5 -38.5l-36 -154q-9 -36 -17 -72.5t-15 -69.5t-12.5 -61t-9.5 -47q-54 -21 -112.5 -39t-120.5 -30.5t-128 -20t-135 -7.5zM850 1517q-122 0 -181.5 79.5t-59.5 254.5l52 9q7 -51 18.5 -92t34 -69.5t59.5 -43.5t95 -15q57 0 98 14.5t72.5 42.5t55.5 69t47 94l48 -9
q-51 -176 -134 -255t-205 -79z" />
    <glyph glyph-name="Gdotaccent" unicode="&#x120;" horiz-adv-x="1399" 
d="M608 -30q-115 0 -212.5 37.5t-168.5 109.5t-111 177t-40 240q0 113 27.5 222t78.5 206t123 179t161 141t192.5 92.5t217.5 33.5q72 0 132 -5.5t111 -14.5t94 -20.5t79 -23.5l44 -15l-63 -319h-55l-22 179q-2 17 -21.5 33.5t-50 31.5t-70 28t-82.5 22.5t-86.5 15
t-82.5 5.5q-69 0 -135 -27t-125.5 -77t-109.5 -120.5t-86.5 -158t-57 -189.5t-20.5 -214q0 -109 23.5 -200.5t69 -157.5t114 -103t158.5 -37q48 0 94 10t86 24.5t73.5 30.5t56.5 28l76 337q5 23 -5.5 39t-28.5 20l-140 27l12 47h534l-12 -47l-126 -27q-20 -5 -37.5 -20.5
t-22.5 -38.5l-36 -154q-9 -36 -17 -72.5t-15 -69.5t-12.5 -61t-9.5 -47q-54 -21 -112.5 -39t-120.5 -30.5t-128 -20t-135 -7.5zM850 1544q-24 0 -45.5 9t-37 24.5t-24.5 37t-9 46.5q0 24 9 45.5t24.5 37t37 24.5t45.5 9q25 0 46.5 -9t37.5 -24.5t25.5 -37t9.5 -45.5
q0 -25 -9.5 -46.5t-25.5 -37t-37.5 -24.5t-46.5 -9z" />
    <glyph glyph-name="uni0122" unicode="&#x122;" horiz-adv-x="1399" 
d="M608 -30q-115 0 -212.5 37.5t-168.5 109.5t-111 177t-40 240q0 113 27.5 222t78.5 206t123 179t161 141t192.5 92.5t217.5 33.5q72 0 132 -5.5t111 -14.5t94 -20.5t79 -23.5l44 -15l-63 -319h-55l-22 179q-2 17 -21.5 33.5t-50 31.5t-70 28t-82.5 22.5t-86.5 15
t-82.5 5.5q-69 0 -135 -27t-125.5 -77t-109.5 -120.5t-86.5 -158t-57 -189.5t-20.5 -214q0 -109 23.5 -200.5t69 -157.5t114 -103t158.5 -37q48 0 94 10t86 24.5t73.5 30.5t56.5 28l76 337q5 23 -5.5 39t-28.5 20l-140 27l12 47h534l-12 -47l-126 -27q-20 -5 -37.5 -20.5
t-22.5 -38.5l-36 -154q-9 -36 -17 -72.5t-15 -69.5t-12.5 -61t-9.5 -47q-54 -21 -112.5 -39t-120.5 -30.5t-128 -20t-135 -7.5zM472 -433q29 22 48.5 40.5t33 35.5t22.5 33.5t18 34.5q-24 15 -39.5 27.5t-24.5 23.5t-12 22t-3 24q0 21 10 39t25.5 31t35.5 20.5t40 7.5
q28 0 47 -10t30.5 -25t16.5 -33t5 -34q0 -51 -23.5 -93.5t-58 -77t-73.5 -60.5t-70 -44z" />
    <glyph glyph-name="Hcircumflex" unicode="&#x124;" horiz-adv-x="1473" 
d="M461 0h-524l11 47l120 27q22 5 39 21t22 38l247 1112q5 23 -5 39.5t-28 20.5l-134 26l10 47h524l-10 -47l-119 -26q-22 -5 -39.5 -21.5t-22.5 -38.5l-109 -489h674l109 489q5 23 -5 39.5t-28 20.5l-134 26l10 47h524l-10 -47l-120 -26q-21 -5 -38.5 -21.5t-22.5 -38.5
l-247 -1112q-5 -23 5 -39t28 -20l134 -27l-11 -47h-524l11 47l120 27q22 5 39 21t22 38l121 545h-674l-121 -545q-5 -23 5 -39t29 -20l133 -27zM985 1744l-302 -259l-33 27l237 293q14 18 27 33t26.5 26t28 17t32.5 6q35 0 55 -21.5t37 -59.5l134 -294l-41 -27z" />
    <glyph glyph-name="Hbar" unicode="&#x126;" horiz-adv-x="1473" 
d="M461 0h-524l11 47l120 27q22 5 39 21t22 38l198 893h-166l17 78h167l31 141q5 23 -5 39.5t-28 20.5l-134 26l10 47h524l-10 -47l-119 -26q-22 -5 -39.5 -21.5t-22.5 -38.5l-32 -141h674l32 141q5 23 -5 39.5t-28 20.5l-134 26l10 47h524l-10 -47l-120 -26
q-21 -5 -38.5 -21.5t-22.5 -38.5l-32 -141h186l-17 -78h-186l-198 -893q-5 -23 5 -39t28 -20l134 -27l-11 -47h-524l11 47l120 27q22 5 39 21t22 38l121 545h-674l-121 -545q-5 -23 5 -39t29 -20l133 -27zM1117 756l60 270h-674l-60 -270h674z" />
    <glyph glyph-name="Igrave" unicode="&#xcc;" horiz-adv-x="629" 
d="M465 0h-524l11 47l120 27q21 5 38.5 21t22.5 38l246 1112q5 23 -4 39.5t-29 20.5l-134 26l11 47h524l-11 -47l-119 -26q-11 -3 -21 -8.5t-18 -13.5t-14 -17.5t-9 -20.5l-246 -1112q-5 -23 5 -39t29 -20l133 -27zM693 1515l-38 -29l-272 230q-17 15 -29 26.5t-20 23
t-11.5 24.5t-3.5 31q0 9 2 17.5t7 16.5q4 7 10.5 13.5t14.5 11t17 7t19 2.5q17 0 31.5 -3.5t28 -12.5t27.5 -24.5t30 -39.5z" />
    <glyph glyph-name="Iacute" unicode="&#xcd;" horiz-adv-x="629" 
d="M465 0h-524l11 47l120 27q21 5 38.5 21t22.5 38l246 1112q5 23 -4 39.5t-29 20.5l-134 26l11 47h524l-11 -47l-119 -26q-11 -3 -21 -8.5t-18 -13.5t-14 -17.5t-9 -20.5l-246 -1112q-5 -23 5 -39t29 -20l133 -27zM377 1486l-36 29q50 71 89 126.5t69 97t53.5 70t44 46.5
t39.5 26t40 8q30 0 48 -20t18 -45q0 -17 -4.5 -30.5t-14 -25.5t-23 -24.5t-31.5 -27.5z" />
    <glyph glyph-name="Icircumflex" unicode="&#xce;" horiz-adv-x="629" 
d="M465 0h-524l11 47l120 27q21 5 38.5 21t22.5 38l246 1112q5 23 -4 39.5t-29 20.5l-134 26l11 47h524l-11 -47l-119 -26q-11 -3 -21 -8.5t-18 -13.5t-14 -17.5t-9 -20.5l-246 -1112q-5 -23 5 -39t29 -20l133 -27zM544 1744l-302 -259l-33 27l237 293q14 18 27 33t26.5 26
t28 17t32.5 6q35 0 55 -21.5t37 -59.5l134 -294l-41 -27z" />
    <glyph glyph-name="Itilde" unicode="&#x128;" horiz-adv-x="629" 
d="M465 0h-524l11 47l120 27q21 5 38.5 21t22.5 38l246 1112q5 23 -4 39.5t-29 20.5l-134 26l11 47h524l-11 -47l-119 -26q-11 -3 -21 -8.5t-18 -13.5t-14 -17.5t-9 -20.5l-246 -1112q-5 -23 5 -39t29 -20l133 -27zM210 1544h-54q13 43 36.5 81.5t54 68t66 47t71.5 17.5
q34 0 64.5 -14t59.5 -30.5t57.5 -30t60.5 -13.5q21 0 39.5 7.5t33 21t26 32t19.5 40.5h56q-14 -42 -36.5 -80.5t-51.5 -68t-63.5 -47t-71.5 -17.5q-35 0 -64.5 14t-58 31t-57.5 31t-62 14q-42 0 -75 -29.5t-50 -74.5z" />
    <glyph glyph-name="Idieresis" unicode="&#xcf;" horiz-adv-x="629" 
d="M465 0h-524l11 47l120 27q21 5 38.5 21t22.5 38l246 1112q5 23 -4 39.5t-29 20.5l-134 26l11 47h524l-11 -47l-119 -26q-11 -3 -21 -8.5t-18 -13.5t-14 -17.5t-9 -20.5l-246 -1112q-5 -23 5 -39t29 -20l133 -27zM329 1544q-22 0 -41.5 8.5t-33.5 22.5t-22.5 33.5
t-8.5 42.5q0 22 8 41.5t22.5 34t33.5 22.5t42 8q22 0 42 -8.5t35 -22.5t23.5 -33.5t8.5 -41.5q0 -23 -8.5 -42.5t-23.5 -33.5t-35 -22.5t-42 -8.5zM722 1544q-22 0 -41.5 8.5t-33.5 22.5t-22.5 33.5t-8.5 42.5q0 22 8 41.5t22.5 34t33.5 22.5t42 8q22 0 42 -8.5t35 -22.5
t23.5 -33.5t8.5 -41.5q0 -23 -8.5 -42.5t-23.5 -33.5t-35 -22.5t-42 -8.5z" />
    <glyph glyph-name="Imacron" unicode="&#x12a;" horiz-adv-x="629" 
d="M465 0h-524l11 47l120 27q21 5 38.5 21t22.5 38l246 1112q5 23 -4 39.5t-29 20.5l-134 26l11 47h524l-11 -47l-119 -26q-11 -3 -21 -8.5t-18 -13.5t-14 -17.5t-9 -20.5l-246 -1112q-5 -23 5 -39t29 -20l133 -27zM821 1610h-624l24 106h624z" />
    <glyph glyph-name="Ibreve" unicode="&#x12c;" horiz-adv-x="629" 
d="M465 0h-524l11 47l120 27q21 5 38.5 21t22.5 38l246 1112q5 23 -4 39.5t-29 20.5l-134 26l11 47h524l-11 -47l-119 -26q-11 -3 -21 -8.5t-18 -13.5t-14 -17.5t-9 -20.5l-246 -1112q-5 -23 5 -39t29 -20l133 -27zM499 1517q-122 0 -181.5 79.5t-59.5 254.5l52 9
q7 -51 18.5 -92t34 -69.5t59.5 -43.5t95 -15q57 0 98 14.5t72.5 42.5t55.5 69t47 94l48 -9q-51 -176 -134 -255t-205 -79z" />
    <glyph glyph-name="Idotaccent" unicode="&#x130;" horiz-adv-x="629" 
d="M465 0h-524l11 47l120 27q21 5 38.5 21t22.5 38l246 1112q5 23 -4 39.5t-29 20.5l-134 26l11 47h524l-11 -47l-119 -26q-11 -3 -21 -8.5t-18 -13.5t-14 -17.5t-9 -20.5l-246 -1112q-5 -23 5 -39t29 -20l133 -27zM523 1544q-24 0 -45.5 9t-37 24.5t-24.5 37t-9 46.5
q0 24 9 45.5t24.5 37t37 24.5t45.5 9q25 0 46.5 -9t37.5 -24.5t25.5 -37t9.5 -45.5q0 -25 -9.5 -46.5t-25.5 -37t-37.5 -24.5t-46.5 -9z" />
    <glyph glyph-name="uni1EC8" unicode="&#x1ec8;" horiz-adv-x="629" 
d="M465 0h-524l11 47l120 27q21 5 38.5 21t22.5 38l246 1112q5 23 -4 39.5t-29 20.5l-134 26l11 47h524l-11 -47l-119 -26q-11 -3 -21 -8.5t-18 -13.5t-14 -17.5t-9 -20.5l-246 -1112q-5 -23 5 -39t29 -20l133 -27zM585 1954q83 0 126.5 -32t43.5 -87q0 -37 -13.5 -65.5
t-34 -52.5t-45 -46t-47.5 -45t-41.5 -49.5t-25.5 -59.5l-6 -31h-101l8 39q8 37 24.5 65.5t37 51.5t42.5 43t40 40t29.5 42t11.5 50q0 12 -3.5 23.5t-13 21.5t-25.5 16t-41 6q-26 0 -47.5 -7t-40 -18t-35 -24.5t-32.5 -27.5h-27l21 101q12 6 31 13.5t44 15t55 12.5t65 5z" />
    <glyph glyph-name="Iogonek" unicode="&#x12e;" horiz-adv-x="629" 
d="M158 -439q-56 0 -94 13.5t-62 36t-34.5 51t-10.5 58.5q0 45 18.5 84.5t48 74t67 64.5t76.5 57h-226l11 47l120 27q21 5 38.5 21t22.5 38l246 1112q5 23 -4 39.5t-29 20.5l-134 26l11 47h524l-11 -47l-119 -26q-11 -3 -21 -8.5t-18 -13.5t-14 -17.5t-9 -20.5l-246 -1112
q-5 -23 5 -39t29 -20l133 -27l-11 -47h-234q-30 -24 -56 -51t-45.5 -57t-30.5 -62.5t-11 -68.5q0 -23 7 -44.5t21.5 -37.5t36.5 -25.5t52 -9.5q28 0 55.5 7t53.5 19h11l-25 -79q-42 -15 -75.5 -22.5t-66.5 -7.5z" />
    <glyph glyph-name="uni1ECA" unicode="&#x1eca;" horiz-adv-x="629" 
d="M465 0h-524l11 47l120 27q21 5 38.5 21t22.5 38l246 1112q5 23 -4 39.5t-29 20.5l-134 26l11 47h524l-11 -47l-119 -26q-11 -3 -21 -8.5t-18 -13.5t-14 -17.5t-9 -20.5l-246 -1112q-5 -23 5 -39t29 -20l133 -27zM137 -364q-24 0 -41.5 8t-29.5 21.5t-17.5 29.5t-5.5 33
q0 33 13 58.5t34 43.5t46 27t49 9t42 -8t30 -21.5t18 -30.5t6 -34q0 -32 -13.5 -57t-34.5 -42.5t-46.5 -27t-49.5 -9.5z" />
    <glyph glyph-name="IJ" unicode="&#x132;" horiz-adv-x="1243" 
d="M465 0h-524l11 47l120 27q21 5 38.5 21t22.5 38l246 1112q5 23 -4 39.5t-29 20.5l-134 26l11 47h524l-11 -47l-119 -26q-11 -3 -21 -8.5t-18 -13.5t-14 -17.5t-9 -20.5l-246 -1112q-5 -23 5 -39t29 -20l133 -27zM428 -381q-17 0 -38 3.5t-43.5 9t-44 13.5t-38.5 17
l70 168h19q21 -15 44.5 -30t50 -27t55 -19t58.5 -7q48 0 77 15t45 45q13 25 26 65t25.5 90.5t25.5 109.5t26 123l216 1050q5 23 -5 39.5t-30 20.5l-148 26l10 47h537l-10 -47l-119 -26q-20 -5 -37 -21.5t-22 -38.5l-207 -1013q-28 -145 -79 -259t-121 -192.5t-156.5 -120
t-186.5 -41.5z" />
    <glyph glyph-name="Jcircumflex" unicode="&#x134;" horiz-adv-x="614" 
d="M-201 -381q-17 0 -38 3.5t-43.5 9t-44 13.5t-38.5 17l70 168h19q21 -15 44.5 -30t50 -27t55 -19t58.5 -7q48 0 77 15t45 45q13 25 26 65t25.5 90.5t25.5 109.5t26 123l216 1050q5 23 -5 39.5t-30 20.5l-148 26l10 47h537l-10 -47l-119 -26q-20 -5 -37 -21.5t-22 -38.5
l-207 -1013q-28 -145 -79 -259t-121 -192.5t-156.5 -120t-186.5 -41.5zM551 1744l-302 -259l-33 27l237 293q14 18 27 33t26.5 26t28 17t32.5 6q35 0 55 -21.5t37 -59.5l134 -294l-41 -27z" />
    <glyph glyph-name="uni0136" unicode="&#x136;" horiz-adv-x="1284" 
d="M461 0h-524l11 47l120 27q22 5 39 21t22 38l247 1112q5 23 -4.5 39.5t-29.5 20.5l-134 26l11 47h524l-11 -47l-119 -26q-21 -5 -38.5 -21.5t-22.5 -38.5l-131 -583l730 641l-150 28l11 47h407l-11 -47q-41 -11 -79.5 -21t-77.5 -34q-16 -10 -32 -21.5t-30 -23.5
l-509 -439l354 -640q7 -13 15.5 -26.5t18.5 -25.5t20 -20t20 -10l100 -23l-11 -47h-477l11 47l146 29l-333 604l-145 -121l-94 -426q-5 -23 5 -39t29 -20l133 -27zM465 -433q29 22 48.5 40.5t33 35.5t22.5 33.5t18 34.5q-24 15 -39.5 27.5t-24.5 23.5t-12 22t-3 24
q0 21 10 39t25.5 31t35.5 20.5t40 7.5q28 0 47 -10t30.5 -25t16.5 -33t5 -34q0 -51 -23.5 -93.5t-58 -77t-73.5 -60.5t-70 -44z" />
    <glyph glyph-name="Lacute" unicode="&#x139;" horiz-adv-x="1087" 
d="M965 0h-1028l10 47l121 27q22 5 39 21t22 38l247 1112q5 23 -5.5 39.5t-28.5 20.5l-133 26l10 47h531l-10 -47l-127 -26q-23 -5 -39.5 -21.5t-21.5 -38.5l-260 -1169h518q10 0 18.5 5.5t15.5 14t12 17.5t9 16l134 264h53zM328 1486l-36 29q50 71 89 126.5t69 97t53.5 70
t44 46.5t39.5 26t40 8q30 0 48 -20t18 -45q0 -17 -4.5 -30.5t-14 -25.5t-23 -24.5t-31.5 -27.5z" />
    <glyph glyph-name="Lcaron" unicode="&#x13d;" horiz-adv-x="1087" 
d="M965 0h-1028l10 47l121 27q22 5 39 21t22 38l247 1112q5 23 -5.5 39.5t-28.5 20.5l-133 26l10 47h531l-10 -47l-127 -26q-23 -5 -39.5 -21.5t-21.5 -38.5l-260 -1169h518q10 0 18.5 5.5t15.5 14t12 17.5t9 16l134 264h53zM792 968q27 19 53 40.5t48 44.5t40 48t30 53
q-27 16 -48 30t-35.5 28.5t-22 31.5t-7.5 40q0 22 10 40.5t27 32t39.5 21.5t47.5 8q36 0 58.5 -14t35 -33.5t16.5 -41t4 -36.5q0 -46 -14 -85t-37.5 -71.5t-52.5 -59t-59 -48t-58 -37.5t-49 -27z" />
    <glyph glyph-name="uni013B" unicode="&#x13b;" horiz-adv-x="1087" 
d="M965 0h-1028l10 47l121 27q22 5 39 21t22 38l247 1112q5 23 -5.5 39.5t-28.5 20.5l-133 26l10 47h531l-10 -47l-127 -26q-23 -5 -39.5 -21.5t-21.5 -38.5l-260 -1169h518q10 0 18.5 5.5t15.5 14t12 17.5t9 16l134 264h53zM417 -433q29 22 48.5 40.5t33 35.5t22.5 33.5
t18 34.5q-24 15 -39.5 27.5t-24.5 23.5t-12 22t-3 24q0 21 10 39t25.5 31t35.5 20.5t40 7.5q28 0 47 -10t30.5 -25t16.5 -33t5 -34q0 -51 -23.5 -93.5t-58 -77t-73.5 -60.5t-70 -44z" />
    <glyph glyph-name="Lslash" unicode="&#x141;" horiz-adv-x="1087" 
d="M965 0h-1028l10 47l121 27q22 5 39 21t22 38l113 511l-201 -70l19 86l202 71l114 514q5 23 -5.5 39.5t-28.5 20.5l-133 26l10 47h531l-10 -47l-127 -26q-23 -5 -39.5 -21.5t-21.5 -38.5l-100 -448l493 173l-19 -87l-493 -172l-141 -635h518q10 0 18.5 5.5t15.5 14
t12 17.5t9 16l134 264h53z" />
    <glyph glyph-name="Ldot" unicode="&#x13f;" horiz-adv-x="1087" 
d="M965 0h-1028l10 47l121 27q22 5 39 21t22 38l247 1112q5 23 -5.5 39.5t-28.5 20.5l-133 26l10 47h531l-10 -47l-127 -26q-23 -5 -39.5 -21.5t-21.5 -38.5l-260 -1169h518q10 0 18.5 5.5t15.5 14t12 17.5t9 16l134 264h53zM884 565q-24 0 -45.5 9t-37 24.5t-24.5 37
t-9 46.5q0 24 9 45.5t24.5 37t37 24.5t45.5 9q25 0 46.5 -9t37.5 -24.5t25.5 -37t9.5 -45.5q0 -25 -9.5 -46.5t-25.5 -37t-37.5 -24.5t-46.5 -9z" />
    <glyph glyph-name="Nacute" unicode="&#x143;" horiz-adv-x="1417" 
d="M1061 -10h-56l-481 1045l-74 162v0l-236 -1058q-3 -12 -1 -21.5t6.5 -17t12.5 -12.5t17 -8l131 -33l-11 -47h-432l11 47l123 33q21 5 37.5 21.5t21.5 37.5l246 1102q5 23 -5 38.5t-30 20.5l-142 31l10 47h342l445 -969l67 -144v0l219 974q5 23 -5 38.5t-29 20.5l-132 33
l10 47h433l-10 -47l-122 -33q-22 -6 -39 -21.5t-22 -37.5l-223 -1010zM738 1486l-36 29q50 71 89 126.5t69 97t53.5 70t44 46.5t39.5 26t40 8q30 0 48 -20t18 -45q0 -17 -4.5 -30.5t-14 -25.5t-23 -24.5t-31.5 -27.5z" />
    <glyph glyph-name="Ncaron" unicode="&#x147;" horiz-adv-x="1417" 
d="M1061 -10h-56l-481 1045l-74 162v0l-236 -1058q-3 -12 -1 -21.5t6.5 -17t12.5 -12.5t17 -8l131 -33l-11 -47h-432l11 47l123 33q21 5 37.5 21.5t21.5 37.5l246 1102q5 23 -5 38.5t-30 20.5l-142 31l10 47h342l445 -969l67 -144v0l219 974q5 23 -5 38.5t-29 20.5l-132 33
l10 47h433l-10 -47l-122 -33q-22 -6 -39 -21.5t-22 -37.5l-223 -1010zM911 1485q-35 0 -55 22t-37 59l-134 294l41 27l201 -259l302 259l33 -27l-237 -293q-28 -35 -53.5 -58.5t-60.5 -23.5z" />
    <glyph glyph-name="Ntilde" unicode="&#xd1;" horiz-adv-x="1417" 
d="M1061 -10h-56l-481 1045l-74 162v0l-236 -1058q-3 -12 -1 -21.5t6.5 -17t12.5 -12.5t17 -8l131 -33l-11 -47h-432l11 47l123 33q21 5 37.5 21.5t21.5 37.5l246 1102q5 23 -5 38.5t-30 20.5l-142 31l10 47h342l445 -969l67 -144v0l219 974q5 23 -5 38.5t-29 20.5l-132 33
l10 47h433l-10 -47l-122 -33q-22 -6 -39 -21.5t-22 -37.5l-223 -1010zM683 1544h-54q13 43 36.5 81.5t54 68t66 47t71.5 17.5q34 0 64.5 -14t59.5 -30.5t57.5 -30t60.5 -13.5q21 0 39.5 7.5t33 21t26 32t19.5 40.5h56q-14 -42 -36.5 -80.5t-51.5 -68t-63.5 -47t-71.5 -17.5
q-35 0 -64.5 14t-58 31t-57.5 31t-62 14q-42 0 -75 -29.5t-50 -74.5z" />
    <glyph glyph-name="uni0145" unicode="&#x145;" horiz-adv-x="1417" 
d="M1061 -10h-56l-481 1045l-74 162v0l-236 -1058q-3 -12 -1 -21.5t6.5 -17t12.5 -12.5t17 -8l131 -33l-11 -47h-432l11 47l123 33q21 5 37.5 21.5t21.5 37.5l246 1102q5 23 -5 38.5t-30 20.5l-142 31l10 47h342l445 -969l67 -144v0l219 974q5 23 -5 38.5t-29 20.5l-132 33
l10 47h433l-10 -47l-122 -33q-22 -6 -39 -21.5t-22 -37.5l-223 -1010zM498 -433q29 22 48.5 40.5t33 35.5t22.5 33.5t18 34.5q-24 15 -39.5 27.5t-24.5 23.5t-12 22t-3 24q0 21 10 39t25.5 31t35.5 20.5t40 7.5q28 0 47 -10t30.5 -25t16.5 -33t5 -34q0 -51 -23.5 -93.5
t-58 -77t-73.5 -60.5t-70 -44z" />
    <glyph glyph-name="Ograve" unicode="&#xd2;" horiz-adv-x="1403" 
d="M611 -30q-131 0 -230.5 39t-167 110t-102 171t-34.5 222q0 106 23 214t68 207.5t110.5 186t151.5 150.5t191 101t228 37q138 0 238.5 -41.5t166.5 -114.5t98 -171.5t32 -213.5q0 -95 -20.5 -198.5t-62.5 -203.5t-105.5 -189.5t-149.5 -157.5t-194.5 -108t-240.5 -40z
M632 41q93 0 170.5 36.5t139.5 99.5t108.5 146.5t77.5 177.5t46.5 193.5t15.5 193.5q0 109 -24.5 193t-71.5 141t-115 86t-155 29q-96 0 -174.5 -38.5t-139.5 -103.5t-106.5 -150.5t-74.5 -179.5t-43.5 -190.5t-14.5 -182.5q0 -99 21.5 -182t65.5 -143t112.5 -93t161.5 -33z
M1047 1515l-38 -29l-272 230q-17 15 -29 26.5t-20 23t-11.5 24.5t-3.5 31q0 9 2 17.5t7 16.5q4 7 10.5 13.5t14.5 11t17 7t19 2.5q17 0 31.5 -3.5t28 -12.5t27.5 -24.5t30 -39.5z" />
    <glyph glyph-name="Oacute" unicode="&#xd3;" horiz-adv-x="1403" 
d="M611 -30q-131 0 -230.5 39t-167 110t-102 171t-34.5 222q0 106 23 214t68 207.5t110.5 186t151.5 150.5t191 101t228 37q138 0 238.5 -41.5t166.5 -114.5t98 -171.5t32 -213.5q0 -95 -20.5 -198.5t-62.5 -203.5t-105.5 -189.5t-149.5 -157.5t-194.5 -108t-240.5 -40z
M632 41q93 0 170.5 36.5t139.5 99.5t108.5 146.5t77.5 177.5t46.5 193.5t15.5 193.5q0 109 -24.5 193t-71.5 141t-115 86t-155 29q-96 0 -174.5 -38.5t-139.5 -103.5t-106.5 -150.5t-74.5 -179.5t-43.5 -190.5t-14.5 -182.5q0 -99 21.5 -182t65.5 -143t112.5 -93t161.5 -33z
M751 1486l-36 29q50 71 89 126.5t69 97t53.5 70t44 46.5t39.5 26t40 8q30 0 48 -20t18 -45q0 -17 -4.5 -30.5t-14 -25.5t-23 -24.5t-31.5 -27.5z" />
    <glyph glyph-name="Ocircumflex" unicode="&#xd4;" horiz-adv-x="1403" 
d="M611 -30q-131 0 -230.5 39t-167 110t-102 171t-34.5 222q0 106 23 214t68 207.5t110.5 186t151.5 150.5t191 101t228 37q138 0 238.5 -41.5t166.5 -114.5t98 -171.5t32 -213.5q0 -95 -20.5 -198.5t-62.5 -203.5t-105.5 -189.5t-149.5 -157.5t-194.5 -108t-240.5 -40z
M632 41q93 0 170.5 36.5t139.5 99.5t108.5 146.5t77.5 177.5t46.5 193.5t15.5 193.5q0 109 -24.5 193t-71.5 141t-115 86t-155 29q-96 0 -174.5 -38.5t-139.5 -103.5t-106.5 -150.5t-74.5 -179.5t-43.5 -190.5t-14.5 -182.5q0 -99 21.5 -182t65.5 -143t112.5 -93t161.5 -33z
M913 1744l-302 -259l-33 27l237 293q14 18 27 33t26.5 26t28 17t32.5 6q35 0 55 -21.5t37 -59.5l134 -294l-41 -27z" />
    <glyph glyph-name="uni1ED0" unicode="&#x1ed0;" horiz-adv-x="1403" 
d="M611 -30q-131 0 -230.5 39t-167 110t-102 171t-34.5 222q0 106 23 214t68 207.5t110.5 186t151.5 150.5t191 101t228 37q138 0 238.5 -41.5t166.5 -114.5t98 -171.5t32 -213.5q0 -95 -20.5 -198.5t-62.5 -203.5t-105.5 -189.5t-149.5 -157.5t-194.5 -108t-240.5 -40z
M632 41q93 0 170.5 36.5t139.5 99.5t108.5 146.5t77.5 177.5t46.5 193.5t15.5 193.5q0 109 -24.5 193t-71.5 141t-115 86t-155 29q-96 0 -174.5 -38.5t-139.5 -103.5t-106.5 -150.5t-74.5 -179.5t-43.5 -190.5t-14.5 -182.5q0 -99 21.5 -182t65.5 -143t112.5 -93t161.5 -33z
M913 1745l-302 -259l-33 27l237 293q14 18 27 33t26.5 26t28 17t32.5 6q35 0 55 -21.5t37 -59.5l134 -294l-41 -27zM1142 1764l119 206q16 27 29.5 47.5t28.5 34t32 20.5t40 7q35 0 49 -19t14 -42q0 -16 -7.5 -31.5t-19.5 -31t-28.5 -31t-34.5 -30.5l-186 -159z" />
    <glyph glyph-name="uni1ED2" unicode="&#x1ed2;" horiz-adv-x="1403" 
d="M611 -30q-131 0 -230.5 39t-167 110t-102 171t-34.5 222q0 106 23 214t68 207.5t110.5 186t151.5 150.5t191 101t228 37q138 0 238.5 -41.5t166.5 -114.5t98 -171.5t32 -213.5q0 -95 -20.5 -198.5t-62.5 -203.5t-105.5 -189.5t-149.5 -157.5t-194.5 -108t-240.5 -40z
M632 41q93 0 170.5 36.5t139.5 99.5t108.5 146.5t77.5 177.5t46.5 193.5t15.5 193.5q0 109 -24.5 193t-71.5 141t-115 86t-155 29q-96 0 -174.5 -38.5t-139.5 -103.5t-106.5 -150.5t-74.5 -179.5t-43.5 -190.5t-14.5 -182.5q0 -99 21.5 -182t65.5 -143t112.5 -93t161.5 -33z
M913 1745l-302 -259l-33 27l237 293q14 18 27 33t26.5 26t28 17t32.5 6q35 0 55 -21.5t37 -59.5l134 -294l-41 -27zM681 1760l-34 -26l-235 186q-14 12 -24.5 21.5t-17.5 19.5t-11 22t-4 29q0 18 7.5 30t18 19.5t22.5 10.5t21 3q15 0 28 -3t25 -11t24.5 -22t27.5 -36z" />
    <glyph glyph-name="uni1ED4" unicode="&#x1ed4;" horiz-adv-x="1403" 
d="M611 -30q-131 0 -230.5 39t-167 110t-102 171t-34.5 222q0 106 23 214t68 207.5t110.5 186t151.5 150.5t191 101t228 37q138 0 238.5 -41.5t166.5 -114.5t98 -171.5t32 -213.5q0 -95 -20.5 -198.5t-62.5 -203.5t-105.5 -189.5t-149.5 -157.5t-194.5 -108t-240.5 -40z
M632 41q93 0 170.5 36.5t139.5 99.5t108.5 146.5t77.5 177.5t46.5 193.5t15.5 193.5q0 109 -24.5 193t-71.5 141t-115 86t-155 29q-96 0 -174.5 -38.5t-139.5 -103.5t-106.5 -150.5t-74.5 -179.5t-43.5 -190.5t-14.5 -182.5q0 -99 21.5 -182t65.5 -143t112.5 -93t161.5 -33z
M1283 2032q30 0 55 -6.5t43 -18t28 -28t10 -36.5q0 -25 -10 -44.5t-25 -36t-33.5 -31t-35.5 -30.5t-30 -34t-18 -42l-5 -22h-81l6 28q8 39 30 63t45 43.5t40.5 38.5t17.5 49q0 19 -14 32t-46 13q-18 0 -34 -6t-29.5 -15t-25.5 -20t-23 -21h-22l19 92q9 4 22.5 9.5t31 10.5
t39 8.5t45.5 3.5zM913 1745l-302 -259l-33 27l237 293q14 18 27 33t26.5 26t28 17t32.5 6q35 0 55 -21.5t37 -59.5l134 -294l-41 -27z" />
    <glyph glyph-name="uni1ED6" unicode="&#x1ed6;" horiz-adv-x="1403" 
d="M611 -30q-131 0 -230.5 39t-167 110t-102 171t-34.5 222q0 106 23 214t68 207.5t110.5 186t151.5 150.5t191 101t228 37q138 0 238.5 -41.5t166.5 -114.5t98 -171.5t32 -213.5q0 -95 -20.5 -198.5t-62.5 -203.5t-105.5 -189.5t-149.5 -157.5t-194.5 -108t-240.5 -40z
M632 41q93 0 170.5 36.5t139.5 99.5t108.5 146.5t77.5 177.5t46.5 193.5t15.5 193.5q0 109 -24.5 193t-71.5 141t-115 86t-155 29q-96 0 -174.5 -38.5t-139.5 -103.5t-106.5 -150.5t-74.5 -179.5t-43.5 -190.5t-14.5 -182.5q0 -99 21.5 -182t65.5 -143t112.5 -93t161.5 -33z
M643 1887q16 43 40.5 81.5t56 68t68.5 47t78 17.5q34 0 63.5 -14t57 -30.5t55.5 -30t60 -13.5q43 0 74.5 28.5t49.5 72.5h56q-17 -42 -39.5 -80.5t-51.5 -68t-65.5 -47t-81.5 -17.5q-35 0 -63.5 14t-55.5 31t-55 31t-62 14q-42 0 -76 -29.5t-55 -74.5h-54zM913 1725
l-302 -239l-33 27l237 277q28 34 53.5 56t60.5 22t55 -20t37 -57l134 -278l-41 -27z" />
    <glyph glyph-name="Otilde" unicode="&#xd5;" horiz-adv-x="1403" 
d="M611 -30q-131 0 -230.5 39t-167 110t-102 171t-34.5 222q0 106 23 214t68 207.5t110.5 186t151.5 150.5t191 101t228 37q138 0 238.5 -41.5t166.5 -114.5t98 -171.5t32 -213.5q0 -95 -20.5 -198.5t-62.5 -203.5t-105.5 -189.5t-149.5 -157.5t-194.5 -108t-240.5 -40z
M632 41q93 0 170.5 36.5t139.5 99.5t108.5 146.5t77.5 177.5t46.5 193.5t15.5 193.5q0 109 -24.5 193t-71.5 141t-115 86t-155 29q-96 0 -174.5 -38.5t-139.5 -103.5t-106.5 -150.5t-74.5 -179.5t-43.5 -190.5t-14.5 -182.5q0 -99 21.5 -182t65.5 -143t112.5 -93t161.5 -33z
M624 1544h-54q13 43 36.5 81.5t54 68t66 47t71.5 17.5q34 0 64.5 -14t59.5 -30.5t57.5 -30t60.5 -13.5q21 0 39.5 7.5t33 21t26 32t19.5 40.5h56q-14 -42 -36.5 -80.5t-51.5 -68t-63.5 -47t-71.5 -17.5q-35 0 -64.5 14t-58 31t-57.5 31t-62 14q-42 0 -75 -29.5t-50 -74.5z
" />
    <glyph glyph-name="Odieresis" unicode="&#xd6;" horiz-adv-x="1403" 
d="M611 -30q-131 0 -230.5 39t-167 110t-102 171t-34.5 222q0 106 23 214t68 207.5t110.5 186t151.5 150.5t191 101t228 37q138 0 238.5 -41.5t166.5 -114.5t98 -171.5t32 -213.5q0 -95 -20.5 -198.5t-62.5 -203.5t-105.5 -189.5t-149.5 -157.5t-194.5 -108t-240.5 -40z
M632 41q93 0 170.5 36.5t139.5 99.5t108.5 146.5t77.5 177.5t46.5 193.5t15.5 193.5q0 109 -24.5 193t-71.5 141t-115 86t-155 29q-96 0 -174.5 -38.5t-139.5 -103.5t-106.5 -150.5t-74.5 -179.5t-43.5 -190.5t-14.5 -182.5q0 -99 21.5 -182t65.5 -143t112.5 -93t161.5 -33z
M704 1544q-22 0 -41.5 8.5t-33.5 22.5t-22.5 33.5t-8.5 42.5q0 22 8 41.5t22.5 34t33.5 22.5t42 8q22 0 42 -8.5t35 -22.5t23.5 -33.5t8.5 -41.5q0 -23 -8.5 -42.5t-23.5 -33.5t-35 -22.5t-42 -8.5zM1097 1544q-22 0 -41.5 8.5t-33.5 22.5t-22.5 33.5t-8.5 42.5q0 22 8 41.5
t22.5 34t33.5 22.5t42 8q22 0 42 -8.5t35 -22.5t23.5 -33.5t8.5 -41.5q0 -23 -8.5 -42.5t-23.5 -33.5t-35 -22.5t-42 -8.5z" />
    <glyph glyph-name="Omacron" unicode="&#x14c;" horiz-adv-x="1403" 
d="M611 -30q-131 0 -230.5 39t-167 110t-102 171t-34.5 222q0 106 23 214t68 207.5t110.5 186t151.5 150.5t191 101t228 37q138 0 238.5 -41.5t166.5 -114.5t98 -171.5t32 -213.5q0 -95 -20.5 -198.5t-62.5 -203.5t-105.5 -189.5t-149.5 -157.5t-194.5 -108t-240.5 -40z
M632 41q93 0 170.5 36.5t139.5 99.5t108.5 146.5t77.5 177.5t46.5 193.5t15.5 193.5q0 109 -24.5 193t-71.5 141t-115 86t-155 29q-96 0 -174.5 -38.5t-139.5 -103.5t-106.5 -150.5t-74.5 -179.5t-43.5 -190.5t-14.5 -182.5q0 -99 21.5 -182t65.5 -143t112.5 -93t161.5 -33z
M1190 1610h-624l24 106h624z" />
    <glyph glyph-name="Obreve" unicode="&#x14e;" horiz-adv-x="1403" 
d="M611 -30q-131 0 -230.5 39t-167 110t-102 171t-34.5 222q0 106 23 214t68 207.5t110.5 186t151.5 150.5t191 101t228 37q138 0 238.5 -41.5t166.5 -114.5t98 -171.5t32 -213.5q0 -95 -20.5 -198.5t-62.5 -203.5t-105.5 -189.5t-149.5 -157.5t-194.5 -108t-240.5 -40z
M632 41q93 0 170.5 36.5t139.5 99.5t108.5 146.5t77.5 177.5t46.5 193.5t15.5 193.5q0 109 -24.5 193t-71.5 141t-115 86t-155 29q-96 0 -174.5 -38.5t-139.5 -103.5t-106.5 -150.5t-74.5 -179.5t-43.5 -190.5t-14.5 -182.5q0 -99 21.5 -182t65.5 -143t112.5 -93t161.5 -33z
M868 1517q-122 0 -181.5 79.5t-59.5 254.5l52 9q7 -51 18.5 -92t34 -69.5t59.5 -43.5t95 -15q57 0 98 14.5t72.5 42.5t55.5 69t47 94l48 -9q-51 -176 -134 -255t-205 -79z" />
    <glyph glyph-name="Ohungarumlaut" unicode="&#x150;" horiz-adv-x="1403" 
d="M611 -30q-131 0 -230.5 39t-167 110t-102 171t-34.5 222q0 106 23 214t68 207.5t110.5 186t151.5 150.5t191 101t228 37q138 0 238.5 -41.5t166.5 -114.5t98 -171.5t32 -213.5q0 -95 -20.5 -198.5t-62.5 -203.5t-105.5 -189.5t-149.5 -157.5t-194.5 -108t-240.5 -40z
M632 41q93 0 170.5 36.5t139.5 99.5t108.5 146.5t77.5 177.5t46.5 193.5t15.5 193.5q0 109 -24.5 193t-71.5 141t-115 86t-155 29q-96 0 -174.5 -38.5t-139.5 -103.5t-106.5 -150.5t-74.5 -179.5t-43.5 -190.5t-14.5 -182.5q0 -99 21.5 -182t65.5 -143t112.5 -93t161.5 -33z
M627 1515q43 71 75 126.5t56 97t42.5 70t35.5 46.5t33.5 26t37.5 8q19 0 33.5 -5.5t23.5 -14.5t13.5 -21t4.5 -24q0 -20 -5 -34.5t-14 -26.5t-22.5 -24t-30.5 -28q-22 -20 -44.5 -41t-50.5 -46.5t-64.5 -59t-85.5 -78.5zM978 1515q64 106 104.5 178t69 115.5t52 62
t54.5 18.5q19 0 33.5 -5.5t23.5 -14.5t13.5 -21t4.5 -24q0 -20 -5 -34.5t-14 -26.5t-22.5 -24t-30.5 -28q-22 -20 -44.5 -41t-50.5 -46.5t-64.5 -59t-85.5 -78.5z" />
    <glyph glyph-name="uni1ECE" unicode="&#x1ece;" horiz-adv-x="1403" 
d="M611 -30q-131 0 -230.5 39t-167 110t-102 171t-34.5 222q0 106 23 214t68 207.5t110.5 186t151.5 150.5t191 101t228 37q138 0 238.5 -41.5t166.5 -114.5t98 -171.5t32 -213.5q0 -95 -20.5 -198.5t-62.5 -203.5t-105.5 -189.5t-149.5 -157.5t-194.5 -108t-240.5 -40z
M632 41q93 0 170.5 36.5t139.5 99.5t108.5 146.5t77.5 177.5t46.5 193.5t15.5 193.5q0 109 -24.5 193t-71.5 141t-115 86t-155 29q-96 0 -174.5 -38.5t-139.5 -103.5t-106.5 -150.5t-74.5 -179.5t-43.5 -190.5t-14.5 -182.5q0 -99 21.5 -182t65.5 -143t112.5 -93t161.5 -33z
M957 1954q83 0 126.5 -32t43.5 -87q0 -37 -13.5 -65.5t-34 -52.5t-45 -46t-47.5 -45t-41.5 -49.5t-25.5 -59.5l-6 -31h-101l8 39q8 37 24.5 65.5t37 51.5t42.5 43t40 40t29.5 42t11.5 50q0 12 -3.5 23.5t-13 21.5t-25.5 16t-41 6q-26 0 -47.5 -7t-40 -18t-35 -24.5
t-32.5 -27.5h-27l21 101q12 6 31 13.5t44 15t55 12.5t65 5z" />
    <glyph glyph-name="uni1ECC" unicode="&#x1ecc;" horiz-adv-x="1403" 
d="M611 -30q-131 0 -230.5 39t-167 110t-102 171t-34.5 222q0 106 23 214t68 207.5t110.5 186t151.5 150.5t191 101t228 37q138 0 238.5 -41.5t166.5 -114.5t98 -171.5t32 -213.5q0 -95 -20.5 -198.5t-62.5 -203.5t-105.5 -189.5t-149.5 -157.5t-194.5 -108t-240.5 -40z
M632 41q93 0 170.5 36.5t139.5 99.5t108.5 146.5t77.5 177.5t46.5 193.5t15.5 193.5q0 109 -24.5 193t-71.5 141t-115 86t-155 29q-96 0 -174.5 -38.5t-139.5 -103.5t-106.5 -150.5t-74.5 -179.5t-43.5 -190.5t-14.5 -182.5q0 -99 21.5 -182t65.5 -143t112.5 -93t161.5 -33z
M553 -364q-24 0 -41.5 8t-29.5 21.5t-17.5 29.5t-5.5 33q0 33 13 58.5t34 43.5t46 27t49 9t42 -8t30 -21.5t18 -30.5t6 -34q0 -32 -13.5 -57t-34.5 -42.5t-46.5 -27t-49.5 -9.5z" />
    <glyph glyph-name="uni1ED8" unicode="&#x1ed8;" horiz-adv-x="1403" 
d="M611 -30q-131 0 -230.5 39t-167 110t-102 171t-34.5 222q0 106 23 214t68 207.5t110.5 186t151.5 150.5t191 101t228 37q138 0 238.5 -41.5t166.5 -114.5t98 -171.5t32 -213.5q0 -95 -20.5 -198.5t-62.5 -203.5t-105.5 -189.5t-149.5 -157.5t-194.5 -108t-240.5 -40z
M632 41q93 0 170.5 36.5t139.5 99.5t108.5 146.5t77.5 177.5t46.5 193.5t15.5 193.5q0 109 -24.5 193t-71.5 141t-115 86t-155 29q-96 0 -174.5 -38.5t-139.5 -103.5t-106.5 -150.5t-74.5 -179.5t-43.5 -190.5t-14.5 -182.5q0 -99 21.5 -182t65.5 -143t112.5 -93t161.5 -33z
M553 -364q-24 0 -41.5 8t-29.5 21.5t-17.5 29.5t-5.5 33q0 33 13 58.5t34 43.5t46 27t49 9t42 -8t30 -21.5t18 -30.5t6 -34q0 -32 -13.5 -57t-34.5 -42.5t-46.5 -27t-49.5 -9.5zM913 1744l-302 -259l-33 27l237 293q14 18 27 33t26.5 26t28 17t32.5 6q35 0 55 -21.5
t37 -59.5l134 -294l-41 -27z" />
    <glyph glyph-name="Ohorn" unicode="&#x1a0;" horiz-adv-x="1582" 
d="M1552 1378h152q3 -10 4.5 -22t2 -22.5t1 -18.5t0.5 -10q0 -76 -31 -129t-80.5 -88t-110 -55t-119.5 -29q6 -33 9.5 -67.5t3.5 -69.5q0 -95 -20.5 -198.5t-62.5 -203.5t-105.5 -189.5t-149.5 -157.5t-194.5 -108t-240.5 -40q-131 0 -230.5 39t-167 110t-102 171t-34.5 222
q0 106 23 214t68 207.5t110.5 186t151.5 150.5t191 101t228 37q105 0 188.5 -24.5t146.5 -69t105.5 -107t65.5 -137.5q39 11 75.5 29.5t64.5 47t45 68.5t17 93q0 8 -2 25.5t-6 30.5zM632 41q93 0 170.5 36.5t139.5 99.5t108.5 146.5t77.5 177.5t46.5 193.5t15.5 193.5
q0 109 -24.5 193t-71.5 141t-115 86t-155 29q-96 0 -174.5 -38.5t-139.5 -103.5t-106.5 -150.5t-74.5 -179.5t-43.5 -190.5t-14.5 -182.5q0 -99 21.5 -182t65.5 -143t112.5 -93t161.5 -33z" />
    <glyph glyph-name="uni1EDA" unicode="&#x1eda;" horiz-adv-x="1582" 
d="M751 1486l-36 29q50 71 89 126.5t69 97t53.5 70t44 46.5t39.5 26t40 8q30 0 48 -20t18 -45q0 -17 -4.5 -30.5t-14 -25.5t-23 -24.5t-31.5 -27.5zM1552 1378h152q3 -10 4.5 -22t2 -22.5t1 -18.5t0.5 -10q0 -76 -31 -129t-80.5 -88t-110 -55t-119.5 -29q6 -33 9.5 -67.5
t3.5 -69.5q0 -95 -20.5 -198.5t-62.5 -203.5t-105.5 -189.5t-149.5 -157.5t-194.5 -108t-240.5 -40q-131 0 -230.5 39t-167 110t-102 171t-34.5 222q0 106 23 214t68 207.5t110.5 186t151.5 150.5t191 101t228 37q105 0 188.5 -24.5t146.5 -69t105.5 -107t65.5 -137.5
q39 11 75.5 29.5t64.5 47t45 68.5t17 93q0 8 -2 25.5t-6 30.5zM632 41q93 0 170.5 36.5t139.5 99.5t108.5 146.5t77.5 177.5t46.5 193.5t15.5 193.5q0 109 -24.5 193t-71.5 141t-115 86t-155 29q-96 0 -174.5 -38.5t-139.5 -103.5t-106.5 -150.5t-74.5 -179.5t-43.5 -190.5
t-14.5 -182.5q0 -99 21.5 -182t65.5 -143t112.5 -93t161.5 -33z" />
    <glyph glyph-name="uni1EDC" unicode="&#x1edc;" horiz-adv-x="1582" 
d="M1047 1515l-38 -29l-272 230q-17 15 -29 26.5t-20 23t-11.5 24.5t-3.5 31q0 9 2 17.5t7 16.5q4 7 10.5 13.5t14.5 11t17 7t19 2.5q17 0 31.5 -3.5t28 -12.5t27.5 -24.5t30 -39.5zM1552 1378h152q3 -10 4.5 -22t2 -22.5t1 -18.5t0.5 -10q0 -76 -31 -129t-80.5 -88
t-110 -55t-119.5 -29q6 -33 9.5 -67.5t3.5 -69.5q0 -95 -20.5 -198.5t-62.5 -203.5t-105.5 -189.5t-149.5 -157.5t-194.5 -108t-240.5 -40q-131 0 -230.5 39t-167 110t-102 171t-34.5 222q0 106 23 214t68 207.5t110.5 186t151.5 150.5t191 101t228 37q105 0 188.5 -24.5
t146.5 -69t105.5 -107t65.5 -137.5q39 11 75.5 29.5t64.5 47t45 68.5t17 93q0 8 -2 25.5t-6 30.5zM632 41q93 0 170.5 36.5t139.5 99.5t108.5 146.5t77.5 177.5t46.5 193.5t15.5 193.5q0 109 -24.5 193t-71.5 141t-115 86t-155 29q-96 0 -174.5 -38.5t-139.5 -103.5
t-106.5 -150.5t-74.5 -179.5t-43.5 -190.5t-14.5 -182.5q0 -99 21.5 -182t65.5 -143t112.5 -93t161.5 -33z" />
    <glyph glyph-name="uni1EDE" unicode="&#x1ede;" horiz-adv-x="1582" 
d="M936 1954q83 0 126.5 -32t43.5 -87q0 -37 -13.5 -65.5t-34 -52.5t-45 -46t-47.5 -45t-41.5 -49.5t-25.5 -59.5l-6 -31h-101l8 39q8 37 24.5 65.5t37 51.5t42.5 43t40 40t29.5 42t11.5 50q0 12 -3.5 23.5t-13 21.5t-25.5 16t-41 6q-26 0 -47.5 -7t-40 -18t-35 -24.5
t-32.5 -27.5h-27l21 101q12 6 31 13.5t44 15t55 12.5t65 5zM1552 1378h152q3 -10 4.5 -22t2 -22.5t1 -18.5t0.5 -10q0 -76 -31 -129t-80.5 -88t-110 -55t-119.5 -29q6 -33 9.5 -67.5t3.5 -69.5q0 -95 -20.5 -198.5t-62.5 -203.5t-105.5 -189.5t-149.5 -157.5t-194.5 -108
t-240.5 -40q-131 0 -230.5 39t-167 110t-102 171t-34.5 222q0 106 23 214t68 207.5t110.5 186t151.5 150.5t191 101t228 37q105 0 188.5 -24.5t146.5 -69t105.5 -107t65.5 -137.5q39 11 75.5 29.5t64.5 47t45 68.5t17 93q0 8 -2 25.5t-6 30.5zM632 41q93 0 170.5 36.5
t139.5 99.5t108.5 146.5t77.5 177.5t46.5 193.5t15.5 193.5q0 109 -24.5 193t-71.5 141t-115 86t-155 29q-96 0 -174.5 -38.5t-139.5 -103.5t-106.5 -150.5t-74.5 -179.5t-43.5 -190.5t-14.5 -182.5q0 -99 21.5 -182t65.5 -143t112.5 -93t161.5 -33z" />
    <glyph glyph-name="uni1EE0" unicode="&#x1ee0;" horiz-adv-x="1582" 
d="M624 1544h-54q13 43 36.5 81.5t54 68t66 47t71.5 17.5q34 0 64.5 -14t59.5 -30.5t57.5 -30t60.5 -13.5q21 0 39.5 7.5t33 21t26 32t19.5 40.5h56q-14 -42 -36.5 -80.5t-51.5 -68t-63.5 -47t-71.5 -17.5q-35 0 -64.5 14t-58 31t-57.5 31t-62 14q-42 0 -75 -29.5t-50 -74.5
zM1552 1378h152q3 -10 4.5 -22t2 -22.5t1 -18.5t0.5 -10q0 -76 -31 -129t-80.5 -88t-110 -55t-119.5 -29q6 -33 9.5 -67.5t3.5 -69.5q0 -95 -20.5 -198.5t-62.5 -203.5t-105.5 -189.5t-149.5 -157.5t-194.5 -108t-240.5 -40q-131 0 -230.5 39t-167 110t-102 171t-34.5 222
q0 106 23 214t68 207.5t110.5 186t151.5 150.5t191 101t228 37q105 0 188.5 -24.5t146.5 -69t105.5 -107t65.5 -137.5q39 11 75.5 29.5t64.5 47t45 68.5t17 93q0 8 -2 25.5t-6 30.5zM632 41q93 0 170.5 36.5t139.5 99.5t108.5 146.5t77.5 177.5t46.5 193.5t15.5 193.5
q0 109 -24.5 193t-71.5 141t-115 86t-155 29q-96 0 -174.5 -38.5t-139.5 -103.5t-106.5 -150.5t-74.5 -179.5t-43.5 -190.5t-14.5 -182.5q0 -99 21.5 -182t65.5 -143t112.5 -93t161.5 -33z" />
    <glyph glyph-name="uni1EE2" unicode="&#x1ee2;" horiz-adv-x="1582" 
d="M553 -364q-24 0 -41.5 8t-29.5 21.5t-17.5 29.5t-5.5 33q0 33 13 58.5t34 43.5t46 27t49 9t42 -8t30 -21.5t18 -30.5t6 -34q0 -32 -13.5 -57t-34.5 -42.5t-46.5 -27t-49.5 -9.5zM1552 1378h152q3 -10 4.5 -22t2 -22.5t1 -18.5t0.5 -10q0 -76 -31 -129t-80.5 -88t-110 -55
t-119.5 -29q6 -33 9.5 -67.5t3.5 -69.5q0 -95 -20.5 -198.5t-62.5 -203.5t-105.5 -189.5t-149.5 -157.5t-194.5 -108t-240.5 -40q-131 0 -230.5 39t-167 110t-102 171t-34.5 222q0 106 23 214t68 207.5t110.5 186t151.5 150.5t191 101t228 37q105 0 188.5 -24.5t146.5 -69
t105.5 -107t65.5 -137.5q39 11 75.5 29.5t64.5 47t45 68.5t17 93q0 8 -2 25.5t-6 30.5zM632 41q93 0 170.5 36.5t139.5 99.5t108.5 146.5t77.5 177.5t46.5 193.5t15.5 193.5q0 109 -24.5 193t-71.5 141t-115 86t-155 29q-96 0 -174.5 -38.5t-139.5 -103.5t-106.5 -150.5
t-74.5 -179.5t-43.5 -190.5t-14.5 -182.5q0 -99 21.5 -182t65.5 -143t112.5 -93t161.5 -33z" />
    <glyph glyph-name="Oslash" unicode="&#xd8;" horiz-adv-x="1403" 
d="M632 41q93 0 171 35.5t140.5 97t109.5 144t78.5 176.5t47 195t15.5 199q0 75 -11 136t-31 112l-806 -958q45 -66 115.5 -101.5t170.5 -35.5zM1114 1202q-48 69 -120.5 102t-169.5 33q-96 0 -174.5 -37.5t-140.5 -101t-107.5 -147.5t-75.5 -178t-44.5 -192t-14.5 -189
q0 -72 10.5 -134.5t31.5 -113.5zM100 -114h-96l206 244q-66 72 -99.5 169.5t-33.5 212.5q0 106 23 214t68 207.5t110.5 186t151.5 150.5t191 101t228 37q112 0 197 -28.5t151 -79.5l128 152h96l-170 -202q67 -75 100 -173t33 -210q0 -95 -20.5 -198.5t-62.5 -203.5
t-105.5 -189.5t-149.5 -157.5t-194.5 -108t-240.5 -40q-109 0 -195 28t-152 82z" />
    <glyph glyph-name="Oslashacute" unicode="&#x1fe;" horiz-adv-x="1403" 
d="M632 41q93 0 171 35.5t140.5 97t109.5 144t78.5 176.5t47 195t15.5 199q0 75 -11 136t-31 112l-806 -958q45 -66 115.5 -101.5t170.5 -35.5zM1114 1202q-48 69 -120.5 102t-169.5 33q-96 0 -174.5 -37.5t-140.5 -101t-107.5 -147.5t-75.5 -178t-44.5 -192t-14.5 -189
q0 -72 10.5 -134.5t31.5 -113.5zM100 -114h-96l206 244q-66 72 -99.5 169.5t-33.5 212.5q0 106 23 214t68 207.5t110.5 186t151.5 150.5t191 101t228 37q112 0 197 -28.5t151 -79.5l128 152h96l-170 -202q67 -75 100 -173t33 -210q0 -95 -20.5 -198.5t-62.5 -203.5
t-105.5 -189.5t-149.5 -157.5t-194.5 -108t-240.5 -40q-109 0 -195 28t-152 82zM739 1486l-36 29q50 71 89 126.5t69 97t53.5 70t44 46.5t39.5 26t40 8q30 0 48 -20t18 -45q0 -17 -4.5 -30.5t-14 -25.5t-23 -24.5t-31.5 -27.5z" />
    <glyph glyph-name="OE" unicode="&#x152;" horiz-adv-x="1935" 
d="M863 73l274 1231h-275q-137 0 -246 -55t-185.5 -153t-117.5 -233.5t-41 -297.5q0 -114 30 -205.5t87 -155t139 -97.5t186 -34h149zM1767 0h-1106q-62 0 -129.5 11t-132.5 36t-123 66t-102.5 101.5t-70.5 142t-26 187.5q0 142 31.5 259t87 209.5t132.5 161t167.5 114
t192 68t206.5 22.5h1077l-71 -323h-56l-24 213q-2 15 -8.5 25t-24.5 10h-474l-122 -547h319q20 0 30.5 9t18.5 23l94 164h49l-104 -469h-49l-22 162q-2 16 -8.5 25.5t-26.5 9.5h-319l-133 -604h580q18 0 29.5 9t19.5 26l120 241h56z" />
    <glyph glyph-name="Racute" unicode="&#x154;" horiz-adv-x="1266" 
d="M613 696q86 0 154 29.5t115 80t72 116.5t25 139q0 63 -19.5 109t-56.5 76t-91 44.5t-123 14.5h-124l-132 -598q10 -3 34 -5t52 -3.5t54 -2t40 -0.5zM478 0h-541l10 47l121 27q22 5 39 21t22 38l247 1112q5 23 -5.5 39.5t-28.5 20.5l-133 26l10 47h500q136 0 224 -25
t138.5 -66t70 -94t19.5 -109q0 -64 -18 -117.5t-48.5 -98t-71.5 -80t-87 -62t-94.5 -44.5t-93.5 -28l278 -500q15 -27 36.5 -52t46.5 -30l112 -25l-10 -47h-200q-43 0 -68 6.5t-42 21t-30.5 38.5t-32.5 59q-22 41 -44 81.5t-44 81.5t-43.5 81.5t-43.5 81.5t-44 81.5
t-44 81.5l-167 31l-113 -512q-5 -23 3 -39.5t26 -19.5l154 -27zM574 1486l-36 29q50 71 89 126.5t69 97t53.5 70t44 46.5t39.5 26t40 8q30 0 48 -20t18 -45q0 -17 -4.5 -30.5t-14 -25.5t-23 -24.5t-31.5 -27.5z" />
    <glyph glyph-name="Rcaron" unicode="&#x158;" horiz-adv-x="1266" 
d="M613 696q86 0 154 29.5t115 80t72 116.5t25 139q0 63 -19.5 109t-56.5 76t-91 44.5t-123 14.5h-124l-132 -598q10 -3 34 -5t52 -3.5t54 -2t40 -0.5zM478 0h-541l10 47l121 27q22 5 39 21t22 38l247 1112q5 23 -5.5 39.5t-28.5 20.5l-133 26l10 47h500q136 0 224 -25
t138.5 -66t70 -94t19.5 -109q0 -64 -18 -117.5t-48.5 -98t-71.5 -80t-87 -62t-94.5 -44.5t-93.5 -28l278 -500q15 -27 36.5 -52t46.5 -30l112 -25l-10 -47h-200q-43 0 -68 6.5t-42 21t-30.5 38.5t-32.5 59q-22 41 -44 81.5t-44 81.5t-43.5 81.5t-43.5 81.5t-44 81.5
t-44 81.5l-167 31l-113 -512q-5 -23 3 -39.5t26 -19.5l154 -27zM747 1485q-35 0 -55 22t-37 59l-134 294l41 27l201 -259l302 259l33 -27l-237 -293q-28 -35 -53.5 -58.5t-60.5 -23.5z" />
    <glyph glyph-name="uni0156" unicode="&#x156;" horiz-adv-x="1266" 
d="M613 696q86 0 154 29.5t115 80t72 116.5t25 139q0 63 -19.5 109t-56.5 76t-91 44.5t-123 14.5h-124l-132 -598q10 -3 34 -5t52 -3.5t54 -2t40 -0.5zM478 0h-541l10 47l121 27q22 5 39 21t22 38l247 1112q5 23 -5.5 39.5t-28.5 20.5l-133 26l10 47h500q136 0 224 -25
t138.5 -66t70 -94t19.5 -109q0 -64 -18 -117.5t-48.5 -98t-71.5 -80t-87 -62t-94.5 -44.5t-93.5 -28l278 -500q15 -27 36.5 -52t46.5 -30l112 -25l-10 -47h-200q-43 0 -68 6.5t-42 21t-30.5 38.5t-32.5 59q-22 41 -44 81.5t-44 81.5t-43.5 81.5t-43.5 81.5t-44 81.5
t-44 81.5l-167 31l-113 -512q-5 -23 3 -39.5t26 -19.5l154 -27zM506 -433q29 22 48.5 40.5t33 35.5t22.5 33.5t18 34.5q-24 15 -39.5 27.5t-24.5 23.5t-12 22t-3 24q0 21 10 39t25.5 31t35.5 20.5t40 7.5q28 0 47 -10t30.5 -25t16.5 -33t5 -34q0 -51 -23.5 -93.5t-58 -77
t-73.5 -60.5t-70 -44z" />
    <glyph glyph-name="Sacute" unicode="&#x15a;" horiz-adv-x="1099" 
d="M425 -31q-48 0 -103 9t-112 24t-113 33t-105 36l71 354h53l18 -200q4 -23 27.5 -45t58.5 -41.5t76.5 -35.5t80.5 -27t71 -17.5t48 -6.5q69 0 131 20.5t108 59.5t73 95t27 128q0 76 -40.5 125t-110.5 84q-36 17 -69.5 32t-66.5 30l-66 30t-68 32q-47 22 -85.5 51.5t-67 66
t-44 79.5t-15.5 92q0 89 41.5 167.5t111 137.5t161.5 93t194 34q51 0 104 -7.5t104 -19.5t97.5 -26.5t85.5 -29.5l-64 -324h-53l-27 186q-2 17 -19 33.5t-42.5 32t-57.5 28.5t-64.5 22.5t-62.5 15t-53 5.5q-64 0 -116 -20t-89 -56t-57.5 -86.5t-20.5 -110.5q0 -36 7.5 -69
t26 -62.5t49 -55t75.5 -45.5q66 -29 129.5 -56.5t140.5 -67.5q38 -20 75.5 -44.5t67.5 -57.5t48.5 -76.5t18.5 -101.5q0 -89 -39.5 -169.5t-115 -142.5t-185 -98.5t-248.5 -36.5zM553 1486l-36 29q50 71 89 126.5t69 97t53.5 70t44 46.5t39.5 26t40 8q30 0 48 -20t18 -45
q0 -17 -4.5 -30.5t-14 -25.5t-23 -24.5t-31.5 -27.5z" />
    <glyph glyph-name="Scircumflex" unicode="&#x15c;" horiz-adv-x="1099" 
d="M425 -31q-48 0 -103 9t-112 24t-113 33t-105 36l71 354h53l18 -200q4 -23 27.5 -45t58.5 -41.5t76.5 -35.5t80.5 -27t71 -17.5t48 -6.5q69 0 131 20.5t108 59.5t73 95t27 128q0 76 -40.5 125t-110.5 84q-36 17 -69.5 32t-66.5 30l-66 30t-68 32q-47 22 -85.5 51.5t-67 66
t-44 79.5t-15.5 92q0 89 41.5 167.5t111 137.5t161.5 93t194 34q51 0 104 -7.5t104 -19.5t97.5 -26.5t85.5 -29.5l-64 -324h-53l-27 186q-2 17 -19 33.5t-42.5 32t-57.5 28.5t-64.5 22.5t-62.5 15t-53 5.5q-64 0 -116 -20t-89 -56t-57.5 -86.5t-20.5 -110.5q0 -36 7.5 -69
t26 -62.5t49 -55t75.5 -45.5q66 -29 129.5 -56.5t140.5 -67.5q38 -20 75.5 -44.5t67.5 -57.5t48.5 -76.5t18.5 -101.5q0 -89 -39.5 -169.5t-115 -142.5t-185 -98.5t-248.5 -36.5zM744 1744l-302 -259l-33 27l237 293q14 18 27 33t26.5 26t28 17t32.5 6q35 0 55 -21.5
t37 -59.5l134 -294l-41 -27z" />
    <glyph glyph-name="Scaron" unicode="&#x160;" horiz-adv-x="1099" 
d="M425 -31q-48 0 -103 9t-112 24t-113 33t-105 36l71 354h53l18 -200q4 -23 27.5 -45t58.5 -41.5t76.5 -35.5t80.5 -27t71 -17.5t48 -6.5q69 0 131 20.5t108 59.5t73 95t27 128q0 76 -40.5 125t-110.5 84q-36 17 -69.5 32t-66.5 30l-66 30t-68 32q-47 22 -85.5 51.5t-67 66
t-44 79.5t-15.5 92q0 89 41.5 167.5t111 137.5t161.5 93t194 34q51 0 104 -7.5t104 -19.5t97.5 -26.5t85.5 -29.5l-64 -324h-53l-27 186q-2 17 -19 33.5t-42.5 32t-57.5 28.5t-64.5 22.5t-62.5 15t-53 5.5q-64 0 -116 -20t-89 -56t-57.5 -86.5t-20.5 -110.5q0 -36 7.5 -69
t26 -62.5t49 -55t75.5 -45.5q66 -29 129.5 -56.5t140.5 -67.5q38 -20 75.5 -44.5t67.5 -57.5t48.5 -76.5t18.5 -101.5q0 -89 -39.5 -169.5t-115 -142.5t-185 -98.5t-248.5 -36.5zM707 1485q-35 0 -55 22t-37 59l-134 294l41 27l201 -259l302 259l33 -27l-237 -293
q-28 -35 -53.5 -58.5t-60.5 -23.5z" />
    <glyph glyph-name="Scedilla" unicode="&#x15e;" horiz-adv-x="1099" 
d="M393 -446q-57 0 -102.5 13.5t-79.5 30.5l18 71h17q25 -16 62.5 -31.5t86.5 -15.5q33 0 57.5 10t41 26.5t24.5 37.5t8 44q0 38 -34 52t-112 16l48 161h-3q-48 0 -103 9t-112 24t-113 33t-105 36l71 354h53l18 -200q4 -24 28 -45.5t58.5 -41t76 -35.5t80.5 -27t71 -17.5
t48 -6.5q69 0 131 20.5t108 59.5t73 95t27 128q0 76 -40.5 125t-110.5 84q-72 34 -136 62t-134 62q-47 22 -85.5 51.5t-67 66t-44 79.5t-15.5 92q0 89 41.5 167.5t111 137.5t161.5 93t194 34q51 0 104 -7.5t104 -19.5t97.5 -26.5t85.5 -29.5l-64 -324h-53l-27 186
q-2 17 -18.5 34t-42.5 32t-58 28t-64.5 22.5t-63 15t-52.5 5.5q-64 0 -116 -20t-89 -56t-57.5 -86.5t-20.5 -110.5q0 -36 7.5 -69t26 -62.5t49 -55t75.5 -45.5q66 -29 129.5 -56.5t140.5 -67.5q38 -20 75.5 -44.5t67.5 -57.5t48.5 -76.5t18.5 -101.5q0 -84 -35.5 -160.5
t-103 -137t-165.5 -100t-223 -47.5l-23 -88q38 0 72 -7t59.5 -22t40.5 -39.5t15 -58.5q0 -46 -20 -83t-55 -63.5t-82 -41t-100 -14.5z" />
    <glyph glyph-name="uni0218" unicode="&#x218;" horiz-adv-x="1099" 
d="M425 -31q-48 0 -103 9t-112 24t-113 33t-105 36l71 354h53l18 -200q4 -23 27.5 -45t58.5 -41.5t76.5 -35.5t80.5 -27t71 -17.5t48 -6.5q69 0 131 20.5t108 59.5t73 95t27 128q0 76 -40.5 125t-110.5 84q-36 17 -69.5 32t-66.5 30l-66 30t-68 32q-47 22 -85.5 51.5t-67 66
t-44 79.5t-15.5 92q0 89 41.5 167.5t111 137.5t161.5 93t194 34q51 0 104 -7.5t104 -19.5t97.5 -26.5t85.5 -29.5l-64 -324h-53l-27 186q-2 17 -19 33.5t-42.5 32t-57.5 28.5t-64.5 22.5t-62.5 15t-53 5.5q-64 0 -116 -20t-89 -56t-57.5 -86.5t-20.5 -110.5q0 -36 7.5 -69
t26 -62.5t49 -55t75.5 -45.5q66 -29 129.5 -56.5t140.5 -67.5q38 -20 75.5 -44.5t67.5 -57.5t48.5 -76.5t18.5 -101.5q0 -89 -39.5 -169.5t-115 -142.5t-185 -98.5t-248.5 -36.5zM267 -433q29 22 48.5 40.5t33 35.5t22.5 33.5t18 34.5q-24 15 -39.5 27.5t-24.5 23.5t-12 22
t-3 24q0 21 10 39t25.5 31t35.5 20.5t40 7.5q28 0 47 -10t30.5 -25t16.5 -33t5 -34q0 -51 -23.5 -93.5t-58 -77t-73.5 -60.5t-70 -44z" />
    <glyph glyph-name="Tcaron" unicode="&#x164;" horiz-adv-x="1227" 
d="M785 0h-565l9 47l142 27q22 4 38 20.5t21 38.5l260 1170h-321q-20 0 -31 -10.5t-19 -24.5l-122 -221h-53l75 331h1157l-75 -331h-53l-22 221q-2 15 -8.5 25t-25.5 10h-326l-260 -1170q-5 -23 6 -39.5t30 -19.5l152 -27zM794 1485q-35 0 -55 22t-37 59l-134 294l41 27
l201 -259l302 259l33 -27l-237 -293q-28 -35 -53.5 -58.5t-60.5 -23.5z" />
    <glyph glyph-name="uni0162" unicode="&#x162;" horiz-adv-x="1227" 
d="M418 -446q-57 0 -102.5 13.5t-79.5 30.5l18 71h17q25 -16 62.5 -31.5t86.5 -15.5q33 0 57.5 10t41 26.5t24.5 37.5t8 44q0 38 -34 52t-112 16l58 192h-243l9 47l142 27q22 4 38 20.5t21 38.5l260 1170h-321q-20 0 -31 -10.5t-19 -24.5l-122 -221h-53l75 331h1157
l-75 -331h-53l-22 221q-2 15 -8.5 25t-25.5 10h-326l-260 -1170q-5 -23 6 -39.5t30 -19.5l152 -27l-9 -47h-266l-31 -117q38 0 72 -7t59.5 -22t40.5 -39.5t15 -58.5q0 -46 -20 -83t-55 -63.5t-82 -41t-100 -14.5z" />
    <glyph glyph-name="uni021A" unicode="&#x21a;" horiz-adv-x="1227" 
d="M785 0h-565l9 47l142 27q22 4 38 20.5t21 38.5l260 1170h-321q-20 0 -31 -10.5t-19 -24.5l-122 -221h-53l75 331h1157l-75 -331h-53l-22 221q-2 15 -8.5 25t-25.5 10h-326l-260 -1170q-5 -23 6 -39.5t30 -19.5l152 -27zM327 -433q29 22 48.5 40.5t33 35.5t22.5 33.5
t18 34.5q-24 15 -39.5 27.5t-24.5 23.5t-12 22t-3 24q0 21 10 39t25.5 31t35.5 20.5t40 7.5q28 0 47 -10t30.5 -25t16.5 -33t5 -34q0 -51 -23.5 -93.5t-58 -77t-73.5 -60.5t-70 -44z" />
    <glyph glyph-name="Tbar" unicode="&#x166;" horiz-adv-x="1227" 
d="M785 0h-565l9 47l142 27q22 4 38 20.5t21 38.5l121 545h-302l17 78h302l122 547h-321q-20 0 -31 -10.5t-19 -24.5l-122 -221h-53l75 331h1157l-75 -331h-53l-22 221q-2 15 -8.5 25t-25.5 10h-326l-122 -547h304l-17 -78h-304l-121 -545q-5 -23 6 -39.5t30 -19.5l152 -27z
" />
    <glyph glyph-name="Ugrave" unicode="&#xd9;" horiz-adv-x="1387" 
d="M587 -31q-110 0 -192 26.5t-137 71.5t-82.5 104.5t-27.5 126.5q0 24 3 48.5t8 48.5t11 48t11 47l167 755q5 23 -4.5 39.5t-29.5 20.5l-134 26l11 47h525l-11 -47l-120 -26q-21 -5 -38.5 -21.5t-22.5 -38.5q-39 -175 -77.5 -347.5t-76.5 -347.5q-5 -23 -11 -47t-11.5 -50
t-9 -56t-3.5 -65q0 -48 13.5 -94.5t47.5 -83.5t92.5 -60t148.5 -23q76 0 136 17t107 46.5t82 68t59.5 81.5t40.5 87.5t25 85.5l174 782q5 23 -5 38.5t-28 20.5l-138 33l11 47h432l-11 -47l-116 -33q-22 -6 -39 -21.5t-22 -37.5l-179 -807q-19 -86 -55 -153.5t-83.5 -119
t-103 -87.5t-113.5 -59t-115.5 -33.5t-108.5 -10.5zM1029 1515l-38 -29l-272 230q-17 15 -29 26.5t-20 23t-11.5 24.5t-3.5 31q0 9 2 17.5t7 16.5q4 7 10.5 13.5t14.5 11t17 7t19 2.5q17 0 31.5 -3.5t28 -12.5t27.5 -24.5t30 -39.5z" />
    <glyph glyph-name="Uacute" unicode="&#xda;" horiz-adv-x="1387" 
d="M587 -31q-110 0 -192 26.5t-137 71.5t-82.5 104.5t-27.5 126.5q0 24 3 48.5t8 48.5t11 48t11 47l167 755q5 23 -4.5 39.5t-29.5 20.5l-134 26l11 47h525l-11 -47l-120 -26q-21 -5 -38.5 -21.5t-22.5 -38.5q-39 -175 -77.5 -347.5t-76.5 -347.5q-5 -23 -11 -47t-11.5 -50
t-9 -56t-3.5 -65q0 -48 13.5 -94.5t47.5 -83.5t92.5 -60t148.5 -23q76 0 136 17t107 46.5t82 68t59.5 81.5t40.5 87.5t25 85.5l174 782q5 23 -5 38.5t-28 20.5l-138 33l11 47h432l-11 -47l-116 -33q-22 -6 -39 -21.5t-22 -37.5l-179 -807q-19 -86 -55 -153.5t-83.5 -119
t-103 -87.5t-113.5 -59t-115.5 -33.5t-108.5 -10.5zM783 1486l-36 29q50 71 89 126.5t69 97t53.5 70t44 46.5t39.5 26t40 8q30 0 48 -20t18 -45q0 -17 -4.5 -30.5t-14 -25.5t-23 -24.5t-31.5 -27.5z" />
    <glyph glyph-name="Ucircumflex" unicode="&#xdb;" horiz-adv-x="1387" 
d="M587 -31q-110 0 -192 26.5t-137 71.5t-82.5 104.5t-27.5 126.5q0 24 3 48.5t8 48.5t11 48t11 47l167 755q5 23 -4.5 39.5t-29.5 20.5l-134 26l11 47h525l-11 -47l-120 -26q-21 -5 -38.5 -21.5t-22.5 -38.5q-39 -175 -77.5 -347.5t-76.5 -347.5q-5 -23 -11 -47t-11.5 -50
t-9 -56t-3.5 -65q0 -48 13.5 -94.5t47.5 -83.5t92.5 -60t148.5 -23q76 0 136 17t107 46.5t82 68t59.5 81.5t40.5 87.5t25 85.5l174 782q5 23 -5 38.5t-28 20.5l-138 33l11 47h432l-11 -47l-116 -33q-22 -6 -39 -21.5t-22 -37.5l-179 -807q-19 -86 -55 -153.5t-83.5 -119
t-103 -87.5t-113.5 -59t-115.5 -33.5t-108.5 -10.5zM943 1744l-302 -259l-33 27l237 293q14 18 27 33t26.5 26t28 17t32.5 6q35 0 55 -21.5t37 -59.5l134 -294l-41 -27z" />
    <glyph glyph-name="Utilde" unicode="&#x168;" horiz-adv-x="1387" 
d="M587 -31q-110 0 -192 26.5t-137 71.5t-82.5 104.5t-27.5 126.5q0 24 3 48.5t8 48.5t11 48t11 47l167 755q5 23 -4.5 39.5t-29.5 20.5l-134 26l11 47h525l-11 -47l-120 -26q-21 -5 -38.5 -21.5t-22.5 -38.5q-39 -175 -77.5 -347.5t-76.5 -347.5q-5 -23 -11 -47t-11.5 -50
t-9 -56t-3.5 -65q0 -48 13.5 -94.5t47.5 -83.5t92.5 -60t148.5 -23q76 0 136 17t107 46.5t82 68t59.5 81.5t40.5 87.5t25 85.5l174 782q5 23 -5 38.5t-28 20.5l-138 33l11 47h432l-11 -47l-116 -33q-22 -6 -39 -21.5t-22 -37.5l-179 -807q-19 -86 -55 -153.5t-83.5 -119
t-103 -87.5t-113.5 -59t-115.5 -33.5t-108.5 -10.5zM640 1544h-54q13 43 36.5 81.5t54 68t66 47t71.5 17.5q34 0 64.5 -14t59.5 -30.5t57.5 -30t60.5 -13.5q21 0 39.5 7.5t33 21t26 32t19.5 40.5h56q-14 -42 -36.5 -80.5t-51.5 -68t-63.5 -47t-71.5 -17.5q-35 0 -64.5 14
t-58 31t-57.5 31t-62 14q-42 0 -75 -29.5t-50 -74.5z" />
    <glyph glyph-name="Udieresis" unicode="&#xdc;" horiz-adv-x="1387" 
d="M587 -31q-110 0 -192 26.5t-137 71.5t-82.5 104.5t-27.5 126.5q0 24 3 48.5t8 48.5t11 48t11 47l167 755q5 23 -4.5 39.5t-29.5 20.5l-134 26l11 47h525l-11 -47l-120 -26q-21 -5 -38.5 -21.5t-22.5 -38.5q-39 -175 -77.5 -347.5t-76.5 -347.5q-5 -23 -11 -47t-11.5 -50
t-9 -56t-3.5 -65q0 -48 13.5 -94.5t47.5 -83.5t92.5 -60t148.5 -23q76 0 136 17t107 46.5t82 68t59.5 81.5t40.5 87.5t25 85.5l174 782q5 23 -5 38.5t-28 20.5l-138 33l11 47h432l-11 -47l-116 -33q-22 -6 -39 -21.5t-22 -37.5l-179 -807q-19 -86 -55 -153.5t-83.5 -119
t-103 -87.5t-113.5 -59t-115.5 -33.5t-108.5 -10.5zM708 1544q-22 0 -41.5 8.5t-33.5 22.5t-22.5 33.5t-8.5 42.5q0 22 8 41.5t22.5 34t33.5 22.5t42 8q22 0 42 -8.5t35 -22.5t23.5 -33.5t8.5 -41.5q0 -23 -8.5 -42.5t-23.5 -33.5t-35 -22.5t-42 -8.5zM1101 1544
q-22 0 -41.5 8.5t-33.5 22.5t-22.5 33.5t-8.5 42.5q0 22 8 41.5t22.5 34t33.5 22.5t42 8q22 0 42 -8.5t35 -22.5t23.5 -33.5t8.5 -41.5q0 -23 -8.5 -42.5t-23.5 -33.5t-35 -22.5t-42 -8.5z" />
    <glyph glyph-name="Umacron" unicode="&#x16a;" horiz-adv-x="1387" 
d="M587 -31q-110 0 -192 26.5t-137 71.5t-82.5 104.5t-27.5 126.5q0 24 3 48.5t8 48.5t11 48t11 47l167 755q5 23 -4.5 39.5t-29.5 20.5l-134 26l11 47h525l-11 -47l-120 -26q-21 -5 -38.5 -21.5t-22.5 -38.5q-39 -175 -77.5 -347.5t-76.5 -347.5q-5 -23 -11 -47t-11.5 -50
t-9 -56t-3.5 -65q0 -48 13.5 -94.5t47.5 -83.5t92.5 -60t148.5 -23q76 0 136 17t107 46.5t82 68t59.5 81.5t40.5 87.5t25 85.5l174 782q5 23 -5 38.5t-28 20.5l-138 33l11 47h432l-11 -47l-116 -33q-22 -6 -39 -21.5t-22 -37.5l-179 -807q-19 -86 -55 -153.5t-83.5 -119
t-103 -87.5t-113.5 -59t-115.5 -33.5t-108.5 -10.5zM1251 1610h-624l24 106h624z" />
    <glyph glyph-name="Ubreve" unicode="&#x16c;" horiz-adv-x="1387" 
d="M587 -31q-110 0 -192 26.5t-137 71.5t-82.5 104.5t-27.5 126.5q0 24 3 48.5t8 48.5t11 48t11 47l167 755q5 23 -4.5 39.5t-29.5 20.5l-134 26l11 47h525l-11 -47l-120 -26q-21 -5 -38.5 -21.5t-22.5 -38.5q-39 -175 -77.5 -347.5t-76.5 -347.5q-5 -23 -11 -47t-11.5 -50
t-9 -56t-3.5 -65q0 -48 13.5 -94.5t47.5 -83.5t92.5 -60t148.5 -23q76 0 136 17t107 46.5t82 68t59.5 81.5t40.5 87.5t25 85.5l174 782q5 23 -5 38.5t-28 20.5l-138 33l11 47h432l-11 -47l-116 -33q-22 -6 -39 -21.5t-22 -37.5l-179 -807q-19 -86 -55 -153.5t-83.5 -119
t-103 -87.5t-113.5 -59t-115.5 -33.5t-108.5 -10.5zM929 1517q-122 0 -181.5 79.5t-59.5 254.5l52 9q7 -51 18.5 -92t34 -69.5t59.5 -43.5t95 -15q57 0 98 14.5t72.5 42.5t55.5 69t47 94l48 -9q-51 -176 -134 -255t-205 -79z" />
    <glyph glyph-name="Uring" unicode="&#x16e;" horiz-adv-x="1387" 
d="M587 -31q-110 0 -192 26.5t-137 71.5t-82.5 104.5t-27.5 126.5q0 24 3 48.5t8 48.5t11 48t11 47l167 755q5 23 -4.5 39.5t-29.5 20.5l-134 26l11 47h525l-11 -47l-120 -26q-21 -5 -38.5 -21.5t-22.5 -38.5q-39 -175 -77.5 -347.5t-76.5 -347.5q-5 -23 -11 -47t-11.5 -50
t-9 -56t-3.5 -65q0 -48 13.5 -94.5t47.5 -83.5t92.5 -60t148.5 -23q76 0 136 17t107 46.5t82 68t59.5 81.5t40.5 87.5t25 85.5l174 782q5 23 -5 38.5t-28 20.5l-138 33l11 47h432l-11 -47l-116 -33q-22 -6 -39 -21.5t-22 -37.5l-179 -807q-19 -86 -55 -153.5t-83.5 -119
t-103 -87.5t-113.5 -59t-115.5 -33.5t-108.5 -10.5zM944 1543q29 0 53 13t41 35.5t26.5 54t9.5 67.5q0 54 -25 87t-70 33q-34 0 -59 -14t-42 -37.5t-25.5 -54.5t-8.5 -65q0 -55 27 -87t73 -32zM922 1492q-41 0 -73.5 10.5t-56 30t-36 48.5t-12.5 67q0 51 18.5 94t52 74.5
t80 49.5t103.5 18q40 0 72.5 -10.5t55.5 -30t35 -48.5t12 -65q0 -52 -18.5 -95.5t-52 -75t-79.5 -49.5t-101 -18z" />
    <glyph glyph-name="Uhungarumlaut" unicode="&#x170;" horiz-adv-x="1387" 
d="M587 -31q-110 0 -192 26.5t-137 71.5t-82.5 104.5t-27.5 126.5q0 24 3 48.5t8 48.5t11 48t11 47l167 755q5 23 -4.5 39.5t-29.5 20.5l-134 26l11 47h525l-11 -47l-120 -26q-21 -5 -38.5 -21.5t-22.5 -38.5q-39 -175 -77.5 -347.5t-76.5 -347.5q-5 -23 -11 -47t-11.5 -50
t-9 -56t-3.5 -65q0 -48 13.5 -94.5t47.5 -83.5t92.5 -60t148.5 -23q76 0 136 17t107 46.5t82 68t59.5 81.5t40.5 87.5t25 85.5l174 782q5 23 -5 38.5t-28 20.5l-138 33l11 47h432l-11 -47l-116 -33q-22 -6 -39 -21.5t-22 -37.5l-179 -807q-19 -86 -55 -153.5t-83.5 -119
t-103 -87.5t-113.5 -59t-115.5 -33.5t-108.5 -10.5zM688 1515q43 71 75 126.5t56 97t42.5 70t35.5 46.5t33.5 26t37.5 8q19 0 33.5 -5.5t23.5 -14.5t13.5 -21t4.5 -24q0 -20 -5 -34.5t-14 -26.5t-22.5 -24t-30.5 -28q-22 -20 -44.5 -41t-50.5 -46.5t-64.5 -59t-85.5 -78.5z
M1039 1515q64 106 104.5 178t69 115.5t52 62t54.5 18.5q19 0 33.5 -5.5t23.5 -14.5t13.5 -21t4.5 -24q0 -20 -5 -34.5t-14 -26.5t-22.5 -24t-30.5 -28q-22 -20 -44.5 -41t-50.5 -46.5t-64.5 -59t-85.5 -78.5z" />
    <glyph glyph-name="uni1EE6" unicode="&#x1ee6;" horiz-adv-x="1387" 
d="M587 -31q-110 0 -192 26.5t-137 71.5t-82.5 104.5t-27.5 126.5q0 24 3 48.5t8 48.5t11 48t11 47l167 755q5 23 -4.5 39.5t-29.5 20.5l-134 26l11 47h525l-11 -47l-120 -26q-21 -5 -38.5 -21.5t-22.5 -38.5q-39 -175 -77.5 -347.5t-76.5 -347.5q-5 -23 -11 -47t-11.5 -50
t-9 -56t-3.5 -65q0 -48 13.5 -94.5t47.5 -83.5t92.5 -60t148.5 -23q76 0 136 17t107 46.5t82 68t59.5 81.5t40.5 87.5t25 85.5l174 782q5 23 -5 38.5t-28 20.5l-138 33l11 47h432l-11 -47l-116 -33q-22 -6 -39 -21.5t-22 -37.5l-179 -807q-19 -86 -55 -153.5t-83.5 -119
t-103 -87.5t-113.5 -59t-115.5 -33.5t-108.5 -10.5zM1018 1954q83 0 126.5 -32t43.5 -87q0 -37 -13.5 -65.5t-34 -52.5t-45 -46t-47.5 -45t-41.5 -49.5t-25.5 -59.5l-6 -31h-101l8 39q8 37 24.5 65.5t37 51.5t42.5 43t40 40t29.5 42t11.5 50q0 12 -3.5 23.5t-13 21.5
t-25.5 16t-41 6q-26 0 -47.5 -7t-40 -18t-35 -24.5t-32.5 -27.5h-27l21 101q12 6 31 13.5t44 15t55 12.5t65 5z" />
    <glyph glyph-name="Uogonek" unicode="&#x172;" horiz-adv-x="1387" 
d="M744 -439q-56 0 -94 13.5t-62 36t-34.5 51t-10.5 58.5q0 43 16.5 80.5t43.5 70.5t62 62t71 55q-39 -10 -76.5 -14.5t-72.5 -4.5q-110 0 -192 26.5t-137 71.5t-82.5 104.5t-27.5 126.5q0 23 3 46t8 46.5t10 46t10 44.5q43 192 84.5 382t84.5 382q5 23 -4.5 39.5
t-29.5 20.5l-134 26l11 47h525l-11 -47l-120 -26q-21 -5 -38.5 -21.5t-22.5 -38.5l-156 -706q-5 -18 -8.5 -34.5t-6.5 -33.5t-6.5 -36t-6.5 -43q-2 -17 -3.5 -32.5t-1.5 -27.5q0 -48 13.5 -94.5t47.5 -83.5t92.5 -60t148.5 -23q76 0 136 17t107 46.5t82 68t59.5 81.5
t40.5 87.5t25 85.5l174 782q5 23 -5 38.5t-28 20.5l-138 33l11 47h432l-11 -47l-116 -33q-22 -6 -39 -21.5t-22 -37.5l-179 -807q-15 -68 -41 -125t-61 -104t-78.5 -85t-93.5 -66q-42 -24 -81.5 -56t-69.5 -69.5t-48.5 -79.5t-18.5 -86q0 -23 7 -44.5t21.5 -37.5t36.5 -25.5
t52 -9.5q28 0 55.5 7t53.5 19h11l-25 -79q-42 -15 -75.5 -22.5t-66.5 -7.5z" />
    <glyph glyph-name="uni1EE4" unicode="&#x1ee4;" horiz-adv-x="1387" 
d="M587 -31q-110 0 -192 26.5t-137 71.5t-82.5 104.5t-27.5 126.5q0 24 3 48.5t8 48.5t11 48t11 47l167 755q5 23 -4.5 39.5t-29.5 20.5l-134 26l11 47h525l-11 -47l-120 -26q-21 -5 -38.5 -21.5t-22.5 -38.5q-39 -175 -77.5 -347.5t-76.5 -347.5q-5 -23 -11 -47t-11.5 -50
t-9 -56t-3.5 -65q0 -48 13.5 -94.5t47.5 -83.5t92.5 -60t148.5 -23q76 0 136 17t107 46.5t82 68t59.5 81.5t40.5 87.5t25 85.5l174 782q5 23 -5 38.5t-28 20.5l-138 33l11 47h432l-11 -47l-116 -33q-22 -6 -39 -21.5t-22 -37.5l-179 -807q-19 -86 -55 -153.5t-83.5 -119
t-103 -87.5t-113.5 -59t-115.5 -33.5t-108.5 -10.5zM489 -364q-24 0 -41.5 8t-29.5 21.5t-17.5 29.5t-5.5 33q0 33 13 58.5t34 43.5t46 27t49 9t42 -8t30 -21.5t18 -30.5t6 -34q0 -32 -13.5 -57t-34.5 -42.5t-46.5 -27t-49.5 -9.5z" />
    <glyph glyph-name="Uhorn" unicode="&#x1af;" horiz-adv-x="1597" 
d="M1602 1378h152q3 -10 4.5 -22t2 -22.5t1 -18.5t0.5 -10q0 -67 -24 -115.5t-63.5 -83t-89.5 -56.5t-102.5 -34.5t-103 -17.5t-89.5 -6l-124 -560q-19 -86 -55 -153.5t-83.5 -119t-103 -87.5t-113.5 -59t-115.5 -33.5t-108.5 -10.5q-110 0 -192 26.5t-137 71.5t-82.5 104.5
t-27.5 126.5q0 24 3 48.5t8 48.5t11 48t11 47l167 755q5 23 -4.5 39.5t-29.5 20.5l-134 26l11 47h525l-11 -47l-120 -26q-21 -5 -38.5 -21.5t-22.5 -38.5q-39 -175 -77.5 -347.5t-76.5 -347.5q-5 -23 -11 -47t-11.5 -50t-9 -56t-3.5 -65q0 -48 13.5 -94.5t47.5 -83.5
t92.5 -60t148.5 -23q76 0 136 17t107 46.5t82 68t59.5 81.5t40.5 87.5t25 85.5l174 782q5 23 -5 38.5t-28 20.5l-138 33l11 47h425l-11 -47l-110 -30q-22 -7 -38.5 -23.5t-21.5 -38.5l-42 -188q49 5 102.5 19.5t98.5 43.5t74 76t29 118q0 8 -2 25.5t-6 30.5z" />
    <glyph glyph-name="uni1EE8" unicode="&#x1ee8;" horiz-adv-x="1597" 
d="M1602 1378h152q3 -10 4.5 -22t2 -22.5t1 -18.5t0.5 -10q0 -67 -24 -115.5t-63.5 -83t-89.5 -56.5t-102.5 -34.5t-103 -17.5t-89.5 -6l-124 -560q-19 -86 -55 -153.5t-83.5 -119t-103 -87.5t-113.5 -59t-115.5 -33.5t-108.5 -10.5q-110 0 -192 26.5t-137 71.5t-82.5 104.5
t-27.5 126.5q0 24 3 48.5t8 48.5t11 48t11 47l167 755q5 23 -4.5 39.5t-29.5 20.5l-134 26l11 47h525l-11 -47l-120 -26q-21 -5 -38.5 -21.5t-22.5 -38.5q-39 -175 -77.5 -347.5t-76.5 -347.5q-5 -23 -11 -47t-11.5 -50t-9 -56t-3.5 -65q0 -48 13.5 -94.5t47.5 -83.5
t92.5 -60t148.5 -23q76 0 136 17t107 46.5t82 68t59.5 81.5t40.5 87.5t25 85.5l174 782q5 23 -5 38.5t-28 20.5l-138 33l11 47h425l-11 -47l-110 -30q-22 -7 -38.5 -23.5t-21.5 -38.5l-42 -188q49 5 102.5 19.5t98.5 43.5t74 76t29 118q0 8 -2 25.5t-6 30.5zM752 1486
l-36 29q50 71 89 126.5t69 97t53.5 70t44 46.5t39.5 26t40 8q30 0 48 -20t18 -45q0 -17 -4.5 -30.5t-14 -25.5t-23 -24.5t-31.5 -27.5z" />
    <glyph glyph-name="uni1EEA" unicode="&#x1eea;" horiz-adv-x="1597" 
d="M1602 1378h152q3 -10 4.5 -22t2 -22.5t1 -18.5t0.5 -10q0 -67 -24 -115.5t-63.5 -83t-89.5 -56.5t-102.5 -34.5t-103 -17.5t-89.5 -6l-124 -560q-19 -86 -55 -153.5t-83.5 -119t-103 -87.5t-113.5 -59t-115.5 -33.5t-108.5 -10.5q-110 0 -192 26.5t-137 71.5t-82.5 104.5
t-27.5 126.5q0 24 3 48.5t8 48.5t11 48t11 47l167 755q5 23 -4.5 39.5t-29.5 20.5l-134 26l11 47h525l-11 -47l-120 -26q-21 -5 -38.5 -21.5t-22.5 -38.5q-39 -175 -77.5 -347.5t-76.5 -347.5q-5 -23 -11 -47t-11.5 -50t-9 -56t-3.5 -65q0 -48 13.5 -94.5t47.5 -83.5
t92.5 -60t148.5 -23q76 0 136 17t107 46.5t82 68t59.5 81.5t40.5 87.5t25 85.5l174 782q5 23 -5 38.5t-28 20.5l-138 33l11 47h425l-11 -47l-110 -30q-22 -7 -38.5 -23.5t-21.5 -38.5l-42 -188q49 5 102.5 19.5t98.5 43.5t74 76t29 118q0 8 -2 25.5t-6 30.5zM1130 1515
l-38 -29l-272 230q-17 15 -29 26.5t-20 23t-11.5 24.5t-3.5 31q0 9 2 17.5t7 16.5q4 7 10.5 13.5t14.5 11t17 7t19 2.5q17 0 31.5 -3.5t28 -12.5t27.5 -24.5t30 -39.5z" />
    <glyph glyph-name="uni1EEC" unicode="&#x1eec;" horiz-adv-x="1597" 
d="M1602 1378h152q3 -10 4.5 -22t2 -22.5t1 -18.5t0.5 -10q0 -67 -24 -115.5t-63.5 -83t-89.5 -56.5t-102.5 -34.5t-103 -17.5t-89.5 -6l-124 -560q-19 -86 -55 -153.5t-83.5 -119t-103 -87.5t-113.5 -59t-115.5 -33.5t-108.5 -10.5q-110 0 -192 26.5t-137 71.5t-82.5 104.5
t-27.5 126.5q0 24 3 48.5t8 48.5t11 48t11 47l167 755q5 23 -4.5 39.5t-29.5 20.5l-134 26l11 47h525l-11 -47l-120 -26q-21 -5 -38.5 -21.5t-22.5 -38.5q-39 -175 -77.5 -347.5t-76.5 -347.5q-5 -23 -11 -47t-11.5 -50t-9 -56t-3.5 -65q0 -48 13.5 -94.5t47.5 -83.5
t92.5 -60t148.5 -23q76 0 136 17t107 46.5t82 68t59.5 81.5t40.5 87.5t25 85.5l174 782q5 23 -5 38.5t-28 20.5l-138 33l11 47h425l-11 -47l-110 -30q-22 -7 -38.5 -23.5t-21.5 -38.5l-42 -188q49 5 102.5 19.5t98.5 43.5t74 76t29 118q0 8 -2 25.5t-6 30.5zM1015 1954
q83 0 126.5 -32t43.5 -87q0 -37 -13.5 -65.5t-34 -52.5t-45 -46t-47.5 -45t-41.5 -49.5t-25.5 -59.5l-6 -31h-101l8 39q8 37 24.5 65.5t37 51.5t42.5 43t40 40t29.5 42t11.5 50q0 12 -3.5 23.5t-13 21.5t-25.5 16t-41 6q-26 0 -47.5 -7t-40 -18t-35 -24.5t-32.5 -27.5h-27
l21 101q12 6 31 13.5t44 15t55 12.5t65 5z" />
    <glyph glyph-name="uni1EEE" unicode="&#x1eee;" horiz-adv-x="1597" 
d="M1602 1378h152q3 -10 4.5 -22t2 -22.5t1 -18.5t0.5 -10q0 -67 -24 -115.5t-63.5 -83t-89.5 -56.5t-102.5 -34.5t-103 -17.5t-89.5 -6l-124 -560q-19 -86 -55 -153.5t-83.5 -119t-103 -87.5t-113.5 -59t-115.5 -33.5t-108.5 -10.5q-110 0 -192 26.5t-137 71.5t-82.5 104.5
t-27.5 126.5q0 24 3 48.5t8 48.5t11 48t11 47l167 755q5 23 -4.5 39.5t-29.5 20.5l-134 26l11 47h525l-11 -47l-120 -26q-21 -5 -38.5 -21.5t-22.5 -38.5q-39 -175 -77.5 -347.5t-76.5 -347.5q-5 -23 -11 -47t-11.5 -50t-9 -56t-3.5 -65q0 -48 13.5 -94.5t47.5 -83.5
t92.5 -60t148.5 -23q76 0 136 17t107 46.5t82 68t59.5 81.5t40.5 87.5t25 85.5l174 782q5 23 -5 38.5t-28 20.5l-138 33l11 47h425l-11 -47l-110 -30q-22 -7 -38.5 -23.5t-21.5 -38.5l-42 -188q49 5 102.5 19.5t98.5 43.5t74 76t29 118q0 8 -2 25.5t-6 30.5zM637 1544h-54
q13 43 36.5 81.5t54 68t66 47t71.5 17.5q34 0 64.5 -14t59.5 -30.5t57.5 -30t60.5 -13.5q21 0 39.5 7.5t33 21t26 32t19.5 40.5h56q-14 -42 -36.5 -80.5t-51.5 -68t-63.5 -47t-71.5 -17.5q-35 0 -64.5 14t-58 31t-57.5 31t-62 14q-42 0 -75 -29.5t-50 -74.5z" />
    <glyph glyph-name="uni1EF0" unicode="&#x1ef0;" horiz-adv-x="1597" 
d="M1602 1378h152q3 -10 4.5 -22t2 -22.5t1 -18.5t0.5 -10q0 -67 -24 -115.5t-63.5 -83t-89.5 -56.5t-102.5 -34.5t-103 -17.5t-89.5 -6l-124 -560q-19 -86 -55 -153.5t-83.5 -119t-103 -87.5t-113.5 -59t-115.5 -33.5t-108.5 -10.5q-110 0 -192 26.5t-137 71.5t-82.5 104.5
t-27.5 126.5q0 24 3 48.5t8 48.5t11 48t11 47l167 755q5 23 -4.5 39.5t-29.5 20.5l-134 26l11 47h525l-11 -47l-120 -26q-21 -5 -38.5 -21.5t-22.5 -38.5q-39 -175 -77.5 -347.5t-76.5 -347.5q-5 -23 -11 -47t-11.5 -50t-9 -56t-3.5 -65q0 -48 13.5 -94.5t47.5 -83.5
t92.5 -60t148.5 -23q76 0 136 17t107 46.5t82 68t59.5 81.5t40.5 87.5t25 85.5l174 782q5 23 -5 38.5t-28 20.5l-138 33l11 47h425l-11 -47l-110 -30q-22 -7 -38.5 -23.5t-21.5 -38.5l-42 -188q49 5 102.5 19.5t98.5 43.5t74 76t29 118q0 8 -2 25.5t-6 30.5zM489 -364
q-24 0 -41.5 8t-29.5 21.5t-17.5 29.5t-5.5 33q0 33 13 58.5t34 43.5t46 27t49 9t42 -8t30 -21.5t18 -30.5t6 -34q0 -32 -13.5 -57t-34.5 -42.5t-46.5 -27t-49.5 -9.5z" />
    <glyph glyph-name="Wgrave" unicode="&#x1e80;" horiz-adv-x="1858" 
d="M407 -14h-50l-101 1263q-2 20 -13.5 36.5t-31.5 21.5l-87 24l10 47h467l-10 -47l-167 -33l67 -845l15 -189v0l459 867l166 247h50l98 -972l14 -146v0l546 1034l-174 37l10 47h393l-10 -47l-73 -24q-22 -7 -43 -24.5t-32 -37.5l-543 -1012l-172 -247h-47l-99 976l-8 139v0
l-460 -868zM1364 1515l-38 -29l-272 230q-17 15 -29 26.5t-20 23t-11.5 24.5t-3.5 31q0 9 2 17.5t7 16.5q4 7 10.5 13.5t14.5 11t17 7t19 2.5q17 0 31.5 -3.5t28 -12.5t27.5 -24.5t30 -39.5z" />
    <glyph glyph-name="Wacute" unicode="&#x1e82;" horiz-adv-x="1858" 
d="M407 -14h-50l-101 1263q-2 20 -13.5 36.5t-31.5 21.5l-87 24l10 47h467l-10 -47l-167 -33l67 -845l15 -189v0l459 867l166 247h50l98 -972l14 -146v0l546 1034l-174 37l10 47h393l-10 -47l-73 -24q-22 -7 -43 -24.5t-32 -37.5l-543 -1012l-172 -247h-47l-99 976l-8 139v0
l-460 -868zM986 1486l-36 29q50 71 89 126.5t69 97t53.5 70t44 46.5t39.5 26t40 8q30 0 48 -20t18 -45q0 -17 -4.5 -30.5t-14 -25.5t-23 -24.5t-31.5 -27.5z" />
    <glyph glyph-name="Wcircumflex" unicode="&#x174;" horiz-adv-x="1858" 
d="M407 -14h-50l-101 1263q-2 20 -13.5 36.5t-31.5 21.5l-87 24l10 47h467l-10 -47l-167 -33l67 -845l15 -189v0l459 867l166 247h50l98 -972l14 -146v0l546 1034l-174 37l10 47h393l-10 -47l-73 -24q-22 -7 -43 -24.5t-32 -37.5l-543 -1012l-172 -247h-47l-99 976l-8 139v0
l-460 -868zM1209 1744l-302 -259l-33 27l237 293q14 18 27 33t26.5 26t28 17t32.5 6q35 0 55 -21.5t37 -59.5l134 -294l-41 -27z" />
    <glyph glyph-name="Wdieresis" unicode="&#x1e84;" horiz-adv-x="1858" 
d="M407 -14h-50l-101 1263q-2 20 -13.5 36.5t-31.5 21.5l-87 24l10 47h467l-10 -47l-167 -33l67 -845l15 -189v0l459 867l166 247h50l98 -972l14 -146v0l546 1034l-174 37l10 47h393l-10 -47l-73 -24q-22 -7 -43 -24.5t-32 -37.5l-543 -1012l-172 -247h-47l-99 976l-8 139v0
l-460 -868zM960 1544q-22 0 -41.5 8.5t-33.5 22.5t-22.5 33.5t-8.5 42.5q0 22 8 41.5t22.5 34t33.5 22.5t42 8q22 0 42 -8.5t35 -22.5t23.5 -33.5t8.5 -41.5q0 -23 -8.5 -42.5t-23.5 -33.5t-35 -22.5t-42 -8.5zM1353 1544q-22 0 -41.5 8.5t-33.5 22.5t-22.5 33.5t-8.5 42.5
q0 22 8 41.5t22.5 34t33.5 22.5t42 8q22 0 42 -8.5t35 -22.5t23.5 -33.5t8.5 -41.5q0 -23 -8.5 -42.5t-23.5 -33.5t-35 -22.5t-42 -8.5z" />
    <glyph glyph-name="Ygrave" unicode="&#x1ef2;" horiz-adv-x="1200" 
d="M778 0h-565l11 47l141 27q22 5 38 21t21 38l94 424l-232 690q-7 20 -18 37.5t-29 22.5l-99 24l10 47h480l-10 -47l-168 -33l177 -530l41 -127v0l503 653l-168 37l10 47h389l-10 -47l-79 -24q-23 -7 -42 -24t-34 -36l-543 -682l-96 -432q-5 -23 6 -39.5t29 -19.5l154 -27z
M1051 1515l-38 -29l-272 230q-17 15 -29 26.5t-20 23t-11.5 24.5t-3.5 31q0 9 2 17.5t7 16.5q4 7 10.5 13.5t14.5 11t17 7t19 2.5q17 0 31.5 -3.5t28 -12.5t27.5 -24.5t30 -39.5z" />
    <glyph glyph-name="Yacute" unicode="&#xdd;" horiz-adv-x="1200" 
d="M778 0h-565l11 47l141 27q22 5 38 21t21 38l94 424l-232 690q-7 20 -18 37.5t-29 22.5l-99 24l10 47h480l-10 -47l-168 -33l177 -530l41 -127v0l503 653l-168 37l10 47h389l-10 -47l-79 -24q-23 -7 -42 -24t-34 -36l-543 -682l-96 -432q-5 -23 6 -39.5t29 -19.5l154 -27z
M713 1486l-36 29q50 71 89 126.5t69 97t53.5 70t44 46.5t39.5 26t40 8q30 0 48 -20t18 -45q0 -17 -4.5 -30.5t-14 -25.5t-23 -24.5t-31.5 -27.5z" />
    <glyph glyph-name="Ycircumflex" unicode="&#x176;" horiz-adv-x="1200" 
d="M778 0h-565l11 47l141 27q22 5 38 21t21 38l94 424l-232 690q-7 20 -18 37.5t-29 22.5l-99 24l10 47h480l-10 -47l-168 -33l177 -530l41 -127v0l503 653l-168 37l10 47h389l-10 -47l-79 -24q-23 -7 -42 -24t-34 -36l-543 -682l-96 -432q-5 -23 6 -39.5t29 -19.5l154 -27z
M896 1744l-302 -259l-33 27l237 293q14 18 27 33t26.5 26t28 17t32.5 6q35 0 55 -21.5t37 -59.5l134 -294l-41 -27z" />
    <glyph glyph-name="uni1EF8" unicode="&#x1ef8;" horiz-adv-x="1200" 
d="M778 0h-565l11 47l141 27q22 5 38 21t21 38l94 424l-232 690q-7 20 -18 37.5t-29 22.5l-99 24l10 47h480l-10 -47l-168 -33l177 -530l41 -127v0l503 653l-168 37l10 47h389l-10 -47l-79 -24q-23 -7 -42 -24t-34 -36l-543 -682l-96 -432q-5 -23 6 -39.5t29 -19.5l154 -27z
M558 1544h-54q13 43 36.5 81.5t54 68t66 47t71.5 17.5q34 0 64.5 -14t59.5 -30.5t57.5 -30t60.5 -13.5q21 0 39.5 7.5t33 21t26 32t19.5 40.5h56q-14 -42 -36.5 -80.5t-51.5 -68t-63.5 -47t-71.5 -17.5q-35 0 -64.5 14t-58 31t-57.5 31t-62 14q-42 0 -75 -29.5t-50 -74.5z
" />
    <glyph glyph-name="Ydieresis" unicode="&#x178;" horiz-adv-x="1200" 
d="M778 0h-565l11 47l141 27q22 5 38 21t21 38l94 424l-232 690q-7 20 -18 37.5t-29 22.5l-99 24l10 47h480l-10 -47l-168 -33l177 -530l41 -127v0l503 653l-168 37l10 47h389l-10 -47l-79 -24q-23 -7 -42 -24t-34 -36l-543 -682l-96 -432q-5 -23 6 -39.5t29 -19.5l154 -27z
M633 1544q-22 0 -41.5 8.5t-33.5 22.5t-22.5 33.5t-8.5 42.5q0 22 8 41.5t22.5 34t33.5 22.5t42 8q22 0 42 -8.5t35 -22.5t23.5 -33.5t8.5 -41.5q0 -23 -8.5 -42.5t-23.5 -33.5t-35 -22.5t-42 -8.5zM1026 1544q-22 0 -41.5 8.5t-33.5 22.5t-22.5 33.5t-8.5 42.5q0 22 8 41.5
t22.5 34t33.5 22.5t42 8q22 0 42 -8.5t35 -22.5t23.5 -33.5t8.5 -41.5q0 -23 -8.5 -42.5t-23.5 -33.5t-35 -22.5t-42 -8.5z" />
    <glyph glyph-name="uni1EF6" unicode="&#x1ef6;" horiz-adv-x="1200" 
d="M778 0h-565l11 47l141 27q22 5 38 21t21 38l94 424l-232 690q-7 20 -18 37.5t-29 22.5l-99 24l10 47h480l-10 -47l-168 -33l177 -530l41 -127v0l503 653l-168 37l10 47h389l-10 -47l-79 -24q-23 -7 -42 -24t-34 -36l-543 -682l-96 -432q-5 -23 6 -39.5t29 -19.5l154 -27z
M936 1954q83 0 126.5 -32t43.5 -87q0 -37 -13.5 -65.5t-34 -52.5t-45 -46t-47.5 -45t-41.5 -49.5t-25.5 -59.5l-6 -31h-101l8 39q8 37 24.5 65.5t37 51.5t42.5 43t40 40t29.5 42t11.5 50q0 12 -3.5 23.5t-13 21.5t-25.5 16t-41 6q-26 0 -47.5 -7t-40 -18t-35 -24.5
t-32.5 -27.5h-27l21 101q12 6 31 13.5t44 15t55 12.5t65 5z" />
    <glyph glyph-name="uni1EF4" unicode="&#x1ef4;" horiz-adv-x="1200" 
d="M778 0h-565l11 47l141 27q22 5 38 21t21 38l94 424l-232 690q-7 20 -18 37.5t-29 22.5l-99 24l10 47h480l-10 -47l-168 -33l177 -530l41 -127v0l503 653l-168 37l10 47h389l-10 -47l-79 -24q-23 -7 -42 -24t-34 -36l-543 -682l-96 -432q-5 -23 6 -39.5t29 -19.5l154 -27z
M428 -364q-24 0 -41.5 8t-29.5 21.5t-17.5 29.5t-5.5 33q0 33 13 58.5t34 43.5t46 27t49 9t42 -8t30 -21.5t18 -30.5t6 -34q0 -32 -13.5 -57t-34.5 -42.5t-46.5 -27t-49.5 -9.5z" />
    <glyph glyph-name="Zacute" unicode="&#x179;" horiz-adv-x="1120" 
d="M980 0h-1064v47l1021 1161l90 95v0h-598q-20 0 -31 -9t-20 -26l-121 -221h-53l74 331h977v-41l-1026 -1167l-88 -94v0h688q19 0 30 10t19 25l126 241h55zM639 1486l-36 29q50 71 89 126.5t69 97t53.5 70t44 46.5t39.5 26t40 8q30 0 48 -20t18 -45q0 -17 -4.5 -30.5
t-14 -25.5t-23 -24.5t-31.5 -27.5z" />
    <glyph glyph-name="Zcaron" unicode="&#x17d;" horiz-adv-x="1120" 
d="M980 0h-1064v47l1021 1161l90 95v0h-598q-20 0 -31 -9t-20 -26l-121 -221h-53l74 331h977v-41l-1026 -1167l-88 -94v0h688q19 0 30 10t19 25l126 241h55zM738 1485q-35 0 -55 22t-37 59l-134 294l41 27l201 -259l302 259l33 -27l-237 -293q-28 -35 -53.5 -58.5
t-60.5 -23.5z" />
    <glyph glyph-name="Zdotaccent" unicode="&#x17b;" horiz-adv-x="1120" 
d="M980 0h-1064v47l1021 1161l90 95v0h-598q-20 0 -31 -9t-20 -26l-121 -221h-53l74 331h977v-41l-1026 -1167l-88 -94v0h688q19 0 30 10t19 25l126 241h55zM758 1544q-24 0 -45.5 9t-37 24.5t-24.5 37t-9 46.5q0 24 9 45.5t24.5 37t37 24.5t45.5 9q25 0 46.5 -9t37.5 -24.5
t25.5 -37t9.5 -45.5q0 -25 -9.5 -46.5t-25.5 -37t-37.5 -24.5t-46.5 -9z" />
    <glyph glyph-name="Eng" unicode="&#x14a;" horiz-adv-x="1417" 
d="M616 -471q-16 0 -38.5 3t-45.5 8.5t-45.5 13.5t-38.5 18l65 154h19q20 -15 40 -29t43 -24.5t50.5 -17t62.5 -6.5q37 0 66 7t52 21.5t41 36.5t32 52q23 48 42 108.5t36 132.5l-473 1028l-74 162v0l-236 -1058q-5 -23 5.5 -38.5t29.5 -20.5l131 -33l-11 -47h-432l11 47
l123 33q21 5 37.5 21.5t21.5 37.5l246 1102q5 23 -5 38.5t-30 20.5l-142 31l10 47h342l445 -969l67 -144v0l219 974q5 23 -5 38.5t-29 20.5l-132 33l10 47h433l-10 -47l-122 -33q-22 -6 -39 -21.5t-22 -37.5l-253 -1146q-29 -130 -62.5 -222.5t-71 -155t-79.5 -99.5
t-87.5 -56.5t-95 -25t-101.5 -5.5z" />
    <glyph glyph-name="Eth" unicode="&#xd0;" horiz-adv-x="1369" 
d="M-66 0l10 47l125 27q21 5 38 21t22 38l121 545h-160l17 78h160l109 489q5 23 -5 39.5t-28 20.5l-134 26l11 47h554q61 0 127.5 -10.5t131 -35t122 -64.5t101.5 -100t70 -141.5t26 -187.5q0 -142 -31.5 -259t-87 -210.5t-132 -163t-167 -115t-192 -68.5t-205.5 -23h-603z
M566 1305l-122 -549h323l-17 -78h-324l-134 -604h275q136 0 245.5 55t186 153t117.5 233.5t41 297.5q0 114 -30 205.5t-87 155t-139 97.5t-186 34h-149z" />
    <glyph glyph-name="Thorn" unicode="&#xde;" horiz-adv-x="1122" 
d="M569 387q85 0 148.5 34.5t106 89.5t63.5 123.5t21 136.5q0 54 -15 103t-49.5 85.5t-91 58t-138.5 21.5h-108l-142 -635q15 -4 40.5 -7t55 -5.5t58.5 -3.5t51 -1zM478 0h-541l11 47q30 7 60 13.5t60 13.5q22 5 39 21t22 38l247 1112q5 23 -5 39.5t-28 20.5l-134 26l10 47
h525l-11 -47l-120 -27q-22 -5 -39 -21.5t-22 -38.5l-29 -132h134q94 0 175.5 -19t141.5 -58.5t94.5 -99.5t34.5 -141q0 -110 -42 -200.5t-113 -154.5t-165 -99t-198 -35q-26 0 -58.5 5.5t-64.5 14.5t-60 21t-46 25l-51 -238q-5 -23 5.5 -39.5t28.5 -19.5l150 -27z" />
    <glyph glyph-name="a" unicode="a" horiz-adv-x="988" 
d="M352 92q25 0 56 6.5t63.5 19t64 32.5t57.5 47l70 323q-95 0 -180 -8.5t-149 -35t-100.5 -77t-35.5 -134.5q0 -46 11.5 -79t31.5 -54t48 -30.5t63 -9.5zM276 -18q-68 0 -116.5 20.5t-79.5 55t-46 79.5t-15 94q-1 71 21 125.5t60 94.5t88 67.5t104.5 44.5t110 24t104.5 7
q10 0 34 -2t50.5 -4.5t50 -5t32.5 -3.5l17 79q3 12 5 27t3 30t1.5 28t0.5 21q0 39 -13 67t-35.5 45.5t-53 26t-64.5 8.5q-45 0 -92 -16.5t-90.5 -39t-82 -46.5t-65.5 -39h-32l35 155l31 11q33 12 66 23.5t71 19.5t82.5 13t101.5 5q58 0 113.5 -11t99 -37.5t70 -70.5
t26.5 -110q0 -16 -2 -36t-4.5 -40t-6 -39.5t-6.5 -34.5l-49 -217q-7 -31 -14.5 -67.5t-13.5 -70.5t-10 -62.5t-4 -43.5q0 -10 6 -24t17.5 -27t29.5 -22t42 -9q6 0 20 2t31 6t34 9t29 11h15v-45q-24 -15 -53.5 -28t-61.5 -23t-65.5 -15.5t-65.5 -5.5q-44 0 -71 15t-43 38
t-23.5 51.5t-12.5 55.5v0q-38 -48 -77.5 -79.5t-79.5 -50t-79 -26.5t-75 -8z" />
    <glyph glyph-name="b" unicode="b" horiz-adv-x="1050" 
d="M456 85q62 0 113 22t91.5 60t70.5 89t50 109.5t30 120.5t10 123q0 59 -13.5 110t-41.5 88.5t-70 58.5t-100 21q-23 0 -50.5 -6t-56 -19t-56.5 -32t-51 -45l-147 -659q21 -11 49 -19t58 -13t59.5 -7t54.5 -2zM469 -18q-41 0 -76 8t-63 21t-49 30.5t-34 35.5l-51 -87h-178
q17 34 37 88t33 114l237 1108q6 27 -4.5 44.5t-40.5 29.5l-84 33v27l340 77q-27 -121 -53.5 -242t-52.5 -242l-43 -194q55 61 99.5 94.5t82 49t68.5 18t58 2.5q74 0 131.5 -27.5t97 -76.5t60 -117t20.5 -148q0 -79 -17 -157.5t-49.5 -150.5t-79 -133.5t-106 -107t-131 -71.5
t-152.5 -26z" />
    <glyph glyph-name="c" unicode="c" horiz-adv-x="830" 
d="M426 -20q-83 0 -152.5 27t-120 78t-78.5 124t-28 165q0 96 21 179.5t58 152.5t88 123t111 91t126 56.5t134 19.5q43 0 82.5 -6t74.5 -17t64.5 -28t50.5 -38l-65 -151h-19q-27 35 -66 62.5t-82 46.5t-86 29t-79 10q-34 0 -64.5 -23t-56.5 -61t-46.5 -87t-35 -101t-22 -103
t-7.5 -92q0 -79 15 -142.5t46.5 -108.5t81 -69t117.5 -24q70 0 133 26t113 73l43 45h21l-27 -91q-41 -36 -75 -66t-72 -52.5t-85 -35t-113 -12.5z" />
    <glyph glyph-name="d" unicode="d" horiz-adv-x="1085" 
d="M455 92q22 0 49.5 6t56 19t56 32t50.5 45l147 659q-21 11 -48.5 19t-57 13t-59 7t-54.5 2q-62 0 -113 -22t-91.5 -60t-70.5 -89t-50 -109.5t-30 -121t-10 -122.5q0 -59 13.5 -110t41 -88.5t70 -58.5t100.5 -21zM356 -18q-74 0 -131.5 27.5t-97 76.5t-60 117t-20.5 148
q0 79 17 157.5t49.5 150.5t79 133.5t106 107t131 71.5t152.5 26q41 0 78.5 -8.5t69 -22t55.5 -30.5t38 -34l86 398q6 27 -4.5 44.5t-40.5 29.5l-84 33v27l340 77l-237 -1087q-8 -35 -16.5 -74.5t-15.5 -76.5t-12 -68t-5 -48q0 -10 5.5 -24t17.5 -27t29.5 -22t41.5 -9
q6 0 19.5 2.5t29.5 6t32 8.5t28 11h15v-45q-24 -15 -52.5 -28t-60 -22.5t-64.5 -15.5t-65 -6q-38 0 -64.5 15t-43.5 38t-26.5 51.5t-13.5 55.5v0q-44 -50 -81.5 -81.5t-73.5 -50t-72.5 -25.5t-78.5 -7z" />
    <glyph glyph-name="e" unicode="e" horiz-adv-x="860" 
d="M340 549q93 -1 158.5 15.5t107 49.5t60 81.5t18.5 111.5q0 25 -10.5 46.5t-31.5 37t-53 24.5t-76 9q-29 0 -68 -24t-79 -71t-75 -117t-55 -161q9 0 22 -0.5t27 -1t28.5 -0.5h26.5zM387 -20q-29 0 -65.5 6.5t-74.5 23t-74 45t-64 72t-45 103.5t-17 140q0 76 16.5 152
t49 145.5t80 130t109 104.5t136 69.5t162.5 25.5q45 0 90.5 -10t81.5 -32.5t59 -60t23 -91.5q0 -58 -20 -104.5t-54.5 -82.5t-80.5 -62t-99 -43t-110 -25t-113 -8q-15 0 -37 2t-44 4.5t-41.5 5t-29.5 4.5q-2 -10 -3.5 -23.5t-2 -27t-1 -25.5t-0.5 -19q0 -64 13 -120t43 -98
t79 -66.5t121 -24.5q53 0 97.5 13.5t83.5 35t73.5 48t67.5 51.5h20l-27 -90q-42 -34 -81 -64.5t-84.5 -53.5t-102 -36.5t-134.5 -13.5z" />
    <glyph glyph-name="f" unicode="f" horiz-adv-x="621" 
d="M-235 -471q-16 0 -36 2.5t-40 8t-40 13t-36 17.5l65 153h19q20 -15 39.5 -29t42 -24.5t49.5 -17t62 -6.5q46 0 73 14t44 43q15 25 29 63t28.5 87t28.5 109t28 131l155 794h-164l18 76h164q32 144 85 250t121.5 175.5t149 104t167.5 34.5q16 0 35 -2.5t39 -8t39 -13
t35 -17.5l-65 -153h-19q-20 15 -39.5 29t-42 24.5t-49.5 17t-62 6.5q-23 0 -40.5 -3.5t-32 -10.5t-25 -17.5t-19.5 -25.5q-15 -26 -28.5 -64.5t-27 -88.5t-28 -110t-30.5 -127h261l-23 -76h-252l-155 -794q-30 -151 -82.5 -258t-121.5 -175t-150.5 -99.5t-168.5 -31.5z" />
    <glyph glyph-name="g" unicode="g" horiz-adv-x="1043" 
d="M454 111q22 0 50.5 5.5t59 18.5t60.5 32.5t56 48.5l128 637q-19 11 -49 18.5t-62 12.5t-61.5 7.5t-46.5 2.5q-60 0 -110 -21.5t-90 -58t-69.5 -85t-49.5 -103t-30 -112t-10 -110.5q0 -61 12 -114.5t39 -93t69.5 -62.5t103.5 -23zM267 -471q-53 0 -91.5 4t-67 11
t-49.5 15.5t-37 16.5l65 153h19q18 -12 41.5 -24.5t50.5 -23t57 -16.5t60 -5q51 1 88.5 5t66.5 12.5t50 21t39 31.5q15 15 26.5 45t21 70t18.5 86t19 93l30 141v0q-52 -59 -100.5 -92.5t-90.5 -49.5t-75.5 -19.5t-55.5 -3.5q-75 0 -132 28.5t-95.5 78.5t-58 118t-19.5 148
q0 78 17 154.5t49.5 145.5t79.5 128.5t106 103t130 68t151 24.5q41 0 75 -8t61.5 -21t48.5 -30.5t36 -35.5l51 87h179q-6 -12 -16 -35t-20.5 -51t-19.5 -58.5t-14 -57.5l-146 -760q-12 -62 -30 -112.5t-42 -92.5t-53.5 -76t-64.5 -63q-42 -35 -83.5 -63t-85 -48.5
t-90.5 -31.5t-99 -11z" />
    <glyph glyph-name="h" unicode="h" horiz-adv-x="1074" 
d="M819 -14q-35 0 -62.5 11.5t-47 30t-30 41t-10.5 45.5q0 11 1.5 27.5t4.5 36t6.5 39.5t7.5 38l85 365q8 36 13.5 70t5.5 57q0 33 -10 58t-31 42t-53.5 26t-77.5 9q-28 0 -59.5 -5t-63 -16.5t-62 -29.5t-56.5 -45l-133 -600q-5 -24 -7.5 -51t-3.5 -52.5t-1 -47v-35.5h-194
l289 1300q6 27 -4 44.5t-41 29.5l-84 33v27l340 77l-121 -546l-28 -128q51 53 96 84.5t85.5 48.5t78.5 22t74 5q41 0 83 -10.5t76.5 -36t56 -69t22.5 -108.5q0 -12 -2 -34.5t-10 -65.5l-77 -332q-7 -30 -13 -60.5t-10.5 -56.5t-7 -45.5t-2.5 -27.5q0 -10 6 -23t17.5 -25
t29.5 -20t42 -8q6 0 19 2t28 6t30.5 9t27.5 11h15v-45q-24 -15 -56.5 -28t-66.5 -22.5t-65 -15.5t-50 -6z" />
    <glyph glyph-name="i" unicode="i" horiz-adv-x="550" 
d="M436 1233q-24 0 -45.5 9t-37 24.5t-24.5 37t-9 46.5q0 24 9 45.5t24.5 37t37 24.5t45.5 9q25 0 46.5 -9t37.5 -24.5t25.5 -37t9.5 -45.5q0 -25 -9.5 -46.5t-25.5 -37t-37.5 -24.5t-46.5 -9zM272 -14q-36 0 -64.5 11.5t-48.5 30t-30.5 41t-10.5 45.5q0 34 6 69t14 74
l114 524q6 28 -4 47.5t-41 31.5l-84 33v27l340 69l-129 -590q-4 -22 -9 -46t-10 -49t-10 -48.5t-8.5 -43.5t-5.5 -36t-2 -25q0 -10 6 -22.5t18.5 -24t30.5 -19.5t42 -8q6 0 21 2.5t33 7t36 9.5t30 10h15v-45q-24 -15 -56.5 -28.5t-67.5 -24t-68 -16.5t-57 -6z" />
    <glyph glyph-name="j" unicode="j" horiz-adv-x="567" 
d="M-178 -471q-17 0 -37 3t-41 8.5t-41 13.5t-36 18l65 154h19q20 -15 40.5 -29.5t44 -25.5t51 -17.5t60.5 -6.5q46 0 74.5 14t44.5 42q31 57 59 152t54 238l128 680q5 23 -5 45.5t-41 34.5l-105 40v27l360 69l-171 -896q-29 -152 -81.5 -259t-121.5 -174.5t-151 -99
t-169 -31.5zM469 1233q-24 0 -45.5 9t-37 24.5t-24.5 37t-9 46.5q0 24 9 45.5t24.5 37t37 24.5t45.5 9q25 0 46.5 -9t37.5 -24.5t25.5 -37t9.5 -45.5q0 -25 -9.5 -46.5t-25.5 -37t-37.5 -24.5t-46.5 -9z" />
    <glyph glyph-name="k" unicode="k" horiz-adv-x="1003" 
d="M755 -14q-34 0 -57 9t-40.5 26.5t-31 43.5t-28.5 60l-164 370l-152 -144l-35 -165q-5 -24 -7.5 -50.5t-3.5 -52t-1 -47.5v-36h-194l289 1300q6 27 -4 44.5t-41 29.5l-84 33v27l340 77l-235 -1060q72 79 136 148t117.5 126t96 100t71.5 69q27 24 48.5 41.5t43 29t45 17
t54.5 5.5q12 0 25 -0.5t26 -1.5t25.5 -2.5t24.5 -4.5l-37 -163h-30q-15 4 -28 7t-25.5 4.5t-26 2t-29.5 0.5q-26 0 -59 -14.5t-70.5 -41.5t-77.5 -64.5t-80 -83.5l207 -471q6 -13 16 -27t23.5 -25.5t31 -19t39.5 -7.5q6 0 19 2t28 6t30.5 9t27.5 11h15v-45
q-24 -15 -56.5 -28t-66.5 -22.5t-65 -15.5t-50 -6z" />
    <glyph glyph-name="l" unicode="l" horiz-adv-x="537" 
d="M263 -14q-38 0 -67.5 11.5t-50 30t-31.5 41t-11 45.5q0 32 6 67t14 72l231 1047q6 27 -4 44.5t-41 29.5l-84 33v27l341 77l-260 -1171q-6 -27 -12 -54.5t-10.5 -52.5t-7 -46t-2.5 -36q0 -10 6.5 -22.5t18.5 -24t30.5 -19.5t42.5 -8q6 0 22 2.5t35.5 7t39 9.5t31.5 10h15
v-45q-24 -15 -58.5 -28.5t-71 -24t-69.5 -16.5t-53 -6z" />
    <glyph glyph-name="m" unicode="m" horiz-adv-x="1661" 
d="M1408 -14q-35 0 -62.5 11.5t-47 30t-30 41t-10.5 45.5q0 22 5.5 62t14.5 79l86 364q8 35 13 68t5 60q0 32 -9.5 57.5t-29 43.5t-51 27.5t-74.5 9.5q-26 0 -55 -5.5t-59.5 -17.5t-60.5 -31.5t-56 -46.5l-134 -598q-5 -21 -7.5 -47.5t-3.5 -53t-1 -49.5v-36h-194l138 619
q8 35 13 70t5 62q0 31 -9 56t-28.5 42.5t-50 26.5t-73.5 9q-28 0 -59 -5.5t-61.5 -17.5t-60 -30.5t-54.5 -45.5l-134 -600q-5 -21 -7.5 -47.5t-3.5 -53t-1 -49.5v-36h-194l175 786q5 25 -7.5 43.5t-43.5 30.5l-84 33v27l336 69l-29 -156v0q51 53 96 85t85.5 49.5t77 23.5
t71.5 6q45 0 85 -10t71.5 -31.5t52.5 -56.5t27 -84q57 64 105 100.5t89 54.5t76.5 22.5t68.5 4.5q50 0 93 -13.5t74.5 -41t49.5 -69.5t18 -100q0 -22 -3.5 -48t-9.5 -52l-62 -266q-8 -33 -16 -72.5t-15.5 -76t-12 -66t-4.5 -41.5q0 -10 6 -23t17.5 -25t29.5 -20t42 -8
q6 0 19 2t28 6t30.5 9t27.5 11h15v-45q-24 -15 -56.5 -28t-66.5 -22.5t-65 -15.5t-50 -6z" />
    <glyph glyph-name="n" unicode="n" horiz-adv-x="1100" 
d="M846 -14q-35 0 -62.5 11.5t-47 30t-30 41t-10.5 45.5q0 22 5.5 63t14.5 78l72 303q6 22 11.5 47t10.5 49.5t8 48.5t3 44q0 33 -10 58.5t-31 43t-53.5 27t-77.5 9.5q-27 0 -59 -5.5t-64 -17.5t-62.5 -30.5t-55.5 -45.5l-133 -600q-5 -23 -7.5 -49.5t-3.5 -52.5t-1 -48v-36
h-195l174 786q5 25 -7.5 43.5t-43.5 30.5l-84 33v27l334 69l-29 -156v0q52 60 98 93.5t88 49t81 18.5t77 3q49 0 92.5 -13t75 -40t50 -68.5t18.5 -98.5q0 -24 -3.5 -51.5t-9.5 -52.5l-78 -332q-7 -29 -12.5 -59t-10 -56.5t-7 -46.5t-2.5 -28q0 -10 6 -23t17.5 -25t29.5 -20
t42 -8q6 0 19 2t28 6t30.5 9t27.5 11h15v-45q-24 -15 -56.5 -28t-66.5 -22.5t-65 -15.5t-50 -6z" />
    <glyph glyph-name="o" unicode="o" horiz-adv-x="1008" 
d="M431 -25q-90 0 -161 28t-119.5 80t-74 125.5t-25.5 164.5q0 84 18.5 162.5t52 148t81 127t106 99t126.5 64.5t143 23q101 0 173 -32t117.5 -87t66.5 -128.5t21 -155.5t-18.5 -159.5t-52 -146.5t-81 -126.5t-105.5 -99t-126 -64.5t-142 -23zM442 40q54 0 99.5 25.5
t82.5 69t65.5 101.5t47.5 122.5t29 131.5t10 130q0 64 -10 121t-34 99.5t-65 67t-102 24.5q-57 0 -104 -27.5t-84 -73t-64.5 -105.5t-45.5 -124.5t-27 -129.5t-9 -122q0 -60 9.5 -116t33 -99t64.5 -69t104 -26z" />
    <glyph glyph-name="p" unicode="p" horiz-adv-x="1071" 
d="M477 85q62 0 113 22t91.5 60t70.5 89t50 109.5t30 120.5t10 123q0 59 -13.5 110t-41.5 88.5t-70 58.5t-100 21q-23 0 -50 -6t-55.5 -19t-56 -32t-50.5 -45l-147 -659q21 -11 48.5 -19t57 -13t59 -7t54.5 -2zM313 -471h-504l10 45l116 25q21 5 36.5 20t20.5 37l246 1130
q6 27 -7 44.5t-44 29.5l-84 33v27l336 69l-29 -156v0q51 61 94.5 94.5t81.5 49t70 18t60 2.5q74 0 131.5 -27.5t97 -76.5t60 -117t20.5 -148q0 -79 -17 -157.5t-49.5 -150.5t-79 -133.5t-106 -107t-131 -71.5t-152.5 -26q-41 0 -79 9.5t-70 25t-56 34.5t-37 37l-90 -429
q-5 -21 4 -38.5t29 -21.5l132 -25z" />
    <glyph glyph-name="q" unicode="q" horiz-adv-x="1043" 
d="M455 92q22 0 50 6t56.5 19t56 32t50.5 45l146 659q-21 11 -48.5 19t-57 13t-59 7t-54.5 2q-62 0 -113 -22t-91.5 -60t-70.5 -89t-50 -109.5t-30 -121t-10 -122.5q0 -59 13.5 -110t41 -88.5t70 -58.5t100.5 -21zM874 -471h-351l124 563l12 51q-51 -59 -95 -91.5t-81.5 -48
t-68.5 -18.5t-58 -3q-74 0 -131.5 27.5t-97 76.5t-60 117t-20.5 148q0 79 17 157.5t49.5 150.5t79 133.5t106 107t131 71.5t152.5 26q41 0 75.5 -8t62.5 -21t48.5 -30.5t33.5 -35.5l51 87h180q-14 -29 -33.5 -77.5t-36.5 -124.5l-244 -1128q-5 -21 4 -38.5t29 -21.5l132 -25
z" />
    <glyph glyph-name="r" unicode="r" horiz-adv-x="843" 
d="M272 0h-197l147 703q5 22 7.5 47.5t2.5 39.5q0 26 -10 42t-41 28l-84 33v27l333 69l-39 -219v0q30 36 68 75.5t83 73.5t95.5 56t105.5 22q29 0 48 -2.5t34 -6.5t27.5 -9.5t28.5 -11.5l-52 -234h-55l-9 84q-1 9 -12 16.5t-27 12.5t-34.5 7.5t-33.5 2.5q-36 0 -70 -9
t-66.5 -26t-64.5 -43t-65 -60l-112 -532q-3 -17 -4.5 -43t-2.5 -53t-1 -51.5v-38.5z" />
    <glyph glyph-name="s" unicode="s" horiz-adv-x="867" 
d="M323 -27q-79 0 -145 14.5t-122 32.5l-64 22l59 264h51l12 -119q2 -25 21 -42t36 -28q16 -10 42 -20.5t56.5 -19.5t62 -15t58.5 -6q47 0 88.5 10.5t72 33.5t48 58.5t17.5 85.5q0 30 -12.5 52.5t-33.5 39t-48.5 30t-58.5 25.5q-48 19 -88.5 34.5t-78.5 32.5q-39 17 -69 40
t-51 51.5t-32 63t-11 75.5q0 68 33 125t89.5 98t130.5 63.5t157 22.5q42 0 82 -3.5t77.5 -9.5t72.5 -14.5t67 -17.5l-59 -266h-55l-8 120q-3 24 -24 44.5t-53 35.5t-71.5 23t-79.5 8t-77 -10t-65.5 -32t-45.5 -55.5t-17 -81.5q0 -27 10.5 -50t28.5 -42t41 -34.5t49 -26.5
q48 -21 88.5 -36t55.5 -22q49 -21 88 -42.5t66.5 -47.5t42 -58.5t14.5 -74.5q0 -60 -18.5 -108t-50.5 -85t-75.5 -63t-93 -42.5t-103.5 -24.5t-107 -8z" />
    <glyph glyph-name="t" unicode="t" horiz-adv-x="695" 
d="M316 -18q-45 0 -83 11t-66 31.5t-43.5 49.5t-15.5 65q0 13 3.5 35t8.5 47t10.5 49.5t9.5 43.5l122 573h-161v46q47 6 83 14t63 24.5t45.5 44.5t30.5 73l32 120l148 31l-59 -277h324l-23 -76h-318l-107 -502q-3 -16 -8.5 -42t-11.5 -54t-10 -54t-4 -42q0 -26 15.5 -45
t37.5 -31t46.5 -17.5t43.5 -5.5q13 0 36 4t47 10t46 12.5t33 11.5h14v-45q-15 -10 -46.5 -27.5t-72 -35t-85 -30t-85.5 -12.5z" />
    <glyph glyph-name="u" unicode="u" horiz-adv-x="1119" 
d="M352 -18q-51 0 -95 12.5t-76 39.5t-50.5 68.5t-18.5 99.5q0 23 3 49t9 54l103 479q5 26 -4.5 45t-40.5 31l-84 33v27l344 69l-140 -630q-8 -34 -13 -68t-5 -61q0 -33 10 -58t31 -42.5t53 -26.5t77 -9q28 0 60.5 5.5t64.5 17.5t63 30.5t57 44.5l131 592q4 20 6.5 46.5
t3.5 53.5t1.5 50.5t0.5 37.5h195l-139 -631q-6 -27 -11.5 -54.5t-10 -52.5t-7 -45t-2.5 -32q0 -10 5.5 -24t17.5 -27t29.5 -22t41.5 -9q6 0 19.5 2.5t29.5 6t32 8.5t28 11h15v-45q-24 -15 -52.5 -28t-60 -22.5t-64.5 -15.5t-65 -6q-38 0 -64.5 15t-43.5 38t-26.5 51.5
t-13.5 55.5v0q-53 -61 -102 -94t-92.5 -48.5t-81.5 -18.5t-68 -3z" />
    <glyph glyph-name="v" unicode="v" horiz-adv-x="982" 
d="M410 -9h-88l-135 791q-3 20 -7.5 32.5t-12.5 20t-19.5 13t-27.5 12.5l-84 33v27l277 69l112 -634l28 -193v0l279 460q34 56 54 107.5t30.5 95t13.5 77t3 52.5v18h219v-20q-12 -15 -34.5 -44t-49.5 -65.5t-55 -78t-52 -81.5l-305 -494z" />
    <glyph glyph-name="w" unicode="w" horiz-adv-x="1553" 
d="M396 -9h-91l-110 791q-3 21 -7.5 33t-12 19.5t-19 13t-28.5 12.5l-84 33v27l286 69l84 -629l22 -176v0l292 590l114 198h95l98 -606l22 -195v0l245 452q31 58 48.5 110t26 94.5t10.5 75t2 50.5v19h219v-21q-40 -49 -88.5 -116t-94.5 -151l-275 -495l-125 -198h-91
l-98 623l-21 160v0l-295 -585z" />
    <glyph glyph-name="x" unicode="x" horiz-adv-x="991" 
d="M50 -14q-19 0 -46 2.5t-45 6.5l37 164h30q16 -5 36 -8.5t33 -3.5q17 0 31.5 3t26.5 8q23 11 53.5 41t65.5 72.5t73 93t77 103.5l-141 314q-9 21 -16 33.5t-15 20.5t-18.5 13t-26.5 11q-21 8 -42 16.5t-42 16.5v27l247 69l131 -304l36 -100v0q21 28 41 55t39 52t36.5 49
t34.5 46.5t33 43.5t31 41q26 35 48 57.5t43 35t43 17.5t48 5q19 0 46 -2.5t45 -6.5l-37 -164h-30q-16 5 -36 8.5t-33 3.5q-8 0 -16 -0.5t-15 -2t-14 -3.5t-13 -5q-23 -10 -52.5 -38t-62.5 -68t-69 -88.5t-73 -99.5l141 -321l15 -35t23 -41t36.5 -34.5t55.5 -14.5q6 0 19 2
t28 6t30.5 9t27.5 11h15v-45q-24 -15 -56 -28t-65 -22.5t-63.5 -15.5t-50.5 -6q-34 0 -57.5 8.5t-41 25.5t-31.5 43t-29 61l-76 181l-37 95v0q-22 -30 -43 -58l-40.5 -54t-38 -50.5t-36 -48t-34 -45.5t-32.5 -43q-26 -35 -48 -57.5t-43 -35.5t-43 -17.5t-48 -4.5z" />
    <glyph glyph-name="y" unicode="y" horiz-adv-x="1073" 
d="M294 -471q-53 0 -91.5 4t-67 11t-49.5 15.5t-37 16.5l65 153h19q18 -12 41.5 -24.5t50.5 -23t57 -16.5t60 -5q51 1 88.5 5t66.5 12.5t50 21t39 31.5q9 10 17.5 29t16.5 45.5t15.5 58t15.5 66.5l20 95q4 18 7.5 35.5t7 34.5t7 34.5t7.5 35.5v0q-50 -59 -99.5 -92
t-94.5 -49t-84 -19.5t-69 -3.5q-51 0 -95 12.5t-76 39.5t-50.5 68.5t-18.5 99.5q0 23 3 50t9 53l103 458q6 28 -4 47.5t-41 31.5l-84 33v27l342 69l-138 -611q-8 -35 -13.5 -68.5t-5.5 -60.5q0 -33 10 -59t31 -44.5t53 -28.5t77 -10q28 0 61 7t67 21t66 34t58 47l117 571
q4 20 6.5 46t3.5 52.5t1 49.5v37h193l-186 -945q-23 -115 -71.5 -200.5t-118.5 -143.5q-42 -35 -83.5 -63t-85 -48.5t-90.5 -31.5t-99 -11z" />
    <glyph glyph-name="z" unicode="z" horiz-adv-x="930" 
d="M774 0h-788v41l676 769l86 92v0h-348v0q-35 0 -56 -13.5t-33 -33.5l-97 -164h-51l63 281h748v-27l-688 -783l-85 -92v0h400v0q26 0 50.5 12t37.5 35l100 184h52z" />
    <glyph glyph-name="agrave" unicode="&#xe0;" horiz-adv-x="988" 
d="M352 92q25 0 56 6.5t63.5 19t64 32.5t57.5 47l70 323q-95 0 -180 -8.5t-149 -35t-100.5 -77t-35.5 -134.5q0 -46 11.5 -79t31.5 -54t48 -30.5t63 -9.5zM276 -18q-68 0 -116.5 20.5t-79.5 55t-46 79.5t-15 94q-1 71 21 125.5t60 94.5t88 67.5t104.5 44.5t110 24t104.5 7
q10 0 34 -2t50.5 -4.5t50 -5t32.5 -3.5l17 79q3 12 5 27t3 30t1.5 28t0.5 21q0 39 -13 67t-35.5 45.5t-53 26t-64.5 8.5q-45 0 -92 -16.5t-90.5 -39t-82 -46.5t-65.5 -39h-32l35 155l31 11q33 12 66 23.5t71 19.5t82.5 13t101.5 5q58 0 113.5 -11t99 -37.5t70 -70.5
t26.5 -110q0 -16 -2 -36t-4.5 -40t-6 -39.5t-6.5 -34.5l-49 -217q-7 -31 -14.5 -67.5t-13.5 -70.5t-10 -62.5t-4 -43.5q0 -10 6 -24t17.5 -27t29.5 -22t42 -9q6 0 20 2t31 6t34 9t29 11h15v-45q-24 -15 -53.5 -28t-61.5 -23t-65.5 -15.5t-65.5 -5.5q-44 0 -71 15t-43 38
t-23.5 51.5t-12.5 55.5v0q-38 -48 -77.5 -79.5t-79.5 -50t-79 -26.5t-75 -8zM758 1103l-38 -29l-272 230q-16 14 -28.5 27.5t-20.5 26t-12.5 24.5t-4.5 23q0 19 7 33t17.5 22.5t23.5 12.5t24 4q17 0 31.5 -3.5t28 -12.5t27.5 -24.5t30 -39.5z" />
    <glyph glyph-name="aacute" unicode="&#xe1;" horiz-adv-x="988" 
d="M352 92q25 0 56 6.5t63.5 19t64 32.5t57.5 47l70 323q-95 0 -180 -8.5t-149 -35t-100.5 -77t-35.5 -134.5q0 -46 11.5 -79t31.5 -54t48 -30.5t63 -9.5zM276 -18q-68 0 -116.5 20.5t-79.5 55t-46 79.5t-15 94q-1 71 21 125.5t60 94.5t88 67.5t104.5 44.5t110 24t104.5 7
q10 0 34 -2t50.5 -4.5t50 -5t32.5 -3.5l17 79q3 12 5 27t3 30t1.5 28t0.5 21q0 39 -13 67t-35.5 45.5t-53 26t-64.5 8.5q-45 0 -92 -16.5t-90.5 -39t-82 -46.5t-65.5 -39h-32l35 155l31 11q33 12 66 23.5t71 19.5t82.5 13t101.5 5q58 0 113.5 -11t99 -37.5t70 -70.5
t26.5 -110q0 -16 -2 -36t-4.5 -40t-6 -39.5t-6.5 -34.5l-49 -217q-7 -31 -14.5 -67.5t-13.5 -70.5t-10 -62.5t-4 -43.5q0 -10 6 -24t17.5 -27t29.5 -22t42 -9q6 0 20 2t31 6t34 9t29 11h15v-45q-24 -15 -53.5 -28t-61.5 -23t-65.5 -15.5t-65.5 -5.5q-44 0 -71 15t-43 38
t-23.5 51.5t-12.5 55.5v0q-38 -48 -77.5 -79.5t-79.5 -50t-79 -26.5t-75 -8zM457 1074l-36 29q50 71 89 126.5t69 97t53.5 70t44 46.5t39.5 26t40 8q15 0 27 -5.5t21 -14.5t13.5 -21t4.5 -24q0 -17 -4.5 -30.5t-14 -25.5t-23 -24.5t-31.5 -27.5z" />
    <glyph glyph-name="acircumflex" unicode="&#xe2;" horiz-adv-x="988" 
d="M352 92q25 0 56 6.5t63.5 19t64 32.5t57.5 47l70 323q-95 0 -180 -8.5t-149 -35t-100.5 -77t-35.5 -134.5q0 -46 11.5 -79t31.5 -54t48 -30.5t63 -9.5zM276 -18q-68 0 -116.5 20.5t-79.5 55t-46 79.5t-15 94q-1 71 21 125.5t60 94.5t88 67.5t104.5 44.5t110 24t104.5 7
q10 0 34 -2t50.5 -4.5t50 -5t32.5 -3.5l17 79q3 12 5 27t3 30t1.5 28t0.5 21q0 39 -13 67t-35.5 45.5t-53 26t-64.5 8.5q-45 0 -92 -16.5t-90.5 -39t-82 -46.5t-65.5 -39h-32l35 155l31 11q33 12 66 23.5t71 19.5t82.5 13t101.5 5q58 0 113.5 -11t99 -37.5t70 -70.5
t26.5 -110q0 -16 -2 -36t-4.5 -40t-6 -39.5t-6.5 -34.5l-49 -217q-7 -31 -14.5 -67.5t-13.5 -70.5t-10 -62.5t-4 -43.5q0 -10 6 -24t17.5 -27t29.5 -22t42 -9q6 0 20 2t31 6t34 9t29 11h15v-45q-24 -15 -53.5 -28t-61.5 -23t-65.5 -15.5t-65.5 -5.5q-44 0 -71 15t-43 38
t-23.5 51.5t-12.5 55.5v0q-38 -48 -77.5 -79.5t-79.5 -50t-79 -26.5t-75 -8zM599 1332l-302 -259l-33 27l237 293q14 18 27 33t26.5 26t28 17t32.5 6q35 0 55 -21.5t37 -59.5l134 -294l-41 -27z" />
    <glyph glyph-name="uni1EA5" unicode="&#x1ea5;" horiz-adv-x="988" 
d="M352 92q25 0 56 6.5t63.5 19t64 32.5t57.5 47l70 323q-95 0 -180 -8.5t-149 -35t-100.5 -77t-35.5 -134.5q0 -46 11.5 -79t31.5 -54t48 -30.5t63 -9.5zM276 -18q-68 0 -116.5 20.5t-79.5 55t-46 79.5t-15 94q-1 71 21 125.5t60 94.5t88 67.5t104.5 44.5t110 24t104.5 7
q10 0 34 -2t50.5 -4.5t50 -5t32.5 -3.5l17 79q3 12 5 27t3 30t1.5 28t0.5 21q0 39 -13 67t-35.5 45.5t-53 26t-64.5 8.5q-45 0 -92 -16.5t-90.5 -39t-82 -46.5t-65.5 -39h-32l35 155l31 11q33 12 66 23.5t71 19.5t82.5 13t101.5 5q58 0 113.5 -11t99 -37.5t70 -70.5
t26.5 -110q0 -16 -2 -36t-4.5 -40t-6 -39.5t-6.5 -34.5l-49 -217q-7 -31 -14.5 -67.5t-13.5 -70.5t-10 -62.5t-4 -43.5q0 -10 6 -24t17.5 -27t29.5 -22t42 -9q6 0 20 2t31 6t34 9t29 11h15v-45q-24 -15 -53.5 -28t-61.5 -23t-65.5 -15.5t-65.5 -5.5q-44 0 -71 15t-43 38
t-23.5 51.5t-12.5 55.5v0q-38 -48 -77.5 -79.5t-79.5 -50t-79 -26.5t-75 -8zM825 1351l119 206q16 27 29.5 47.5t28.5 34t32 20.5t40 7q35 0 49 -19t14 -42q0 -16 -7 -31.5t-19.5 -31.5t-29 -31t-34.5 -30l-186 -147zM596 1332l-302 -259l-33 27l237 293q14 18 27 33
t26.5 26t28 17t32.5 6q35 0 55 -21.5t37 -59.5l134 -294l-41 -27z" />
    <glyph glyph-name="uni1EA7" unicode="&#x1ea7;" horiz-adv-x="988" 
d="M352 92q25 0 56 6.5t63.5 19t64 32.5t57.5 47l70 323q-95 0 -180 -8.5t-149 -35t-100.5 -77t-35.5 -134.5q0 -46 11.5 -79t31.5 -54t48 -30.5t63 -9.5zM276 -18q-68 0 -116.5 20.5t-79.5 55t-46 79.5t-15 94q-1 71 21 125.5t60 94.5t88 67.5t104.5 44.5t110 24t104.5 7
q10 0 34 -2t50.5 -4.5t50 -5t32.5 -3.5l17 79q3 12 5 27t3 30t1.5 28t0.5 21q0 39 -13 67t-35.5 45.5t-53 26t-64.5 8.5q-45 0 -92 -16.5t-90.5 -39t-82 -46.5t-65.5 -39h-32l35 155l31 11q33 12 66 23.5t71 19.5t82.5 13t101.5 5q58 0 113.5 -11t99 -37.5t70 -70.5
t26.5 -110q0 -16 -2 -36t-4.5 -40t-6 -39.5t-6.5 -34.5l-49 -217q-7 -31 -14.5 -67.5t-13.5 -70.5t-10 -62.5t-4 -43.5q0 -10 6 -24t17.5 -27t29.5 -22t42 -9q6 0 20 2t31 6t34 9t29 11h15v-45q-24 -15 -53.5 -28t-61.5 -23t-65.5 -15.5t-65.5 -5.5q-44 0 -71 15t-43 38
t-23.5 51.5t-12.5 55.5v0q-38 -48 -77.5 -79.5t-79.5 -50t-79 -26.5t-75 -8zM596 1332l-302 -259l-33 27l237 293q14 18 27 33t26.5 26t28 17t32.5 6q35 0 55 -21.5t37 -59.5l134 -294l-41 -27zM364 1347l-26 -23l-243 183q-14 12 -24.5 21.5t-17.5 19.5t-11 22t-4 29
q0 18 7.5 30t18 19.5t22.5 10.5t21 3q15 0 28 -3t25 -11t24.5 -22t27.5 -36z" />
    <glyph glyph-name="uni1EA9" unicode="&#x1ea9;" horiz-adv-x="988" 
d="M352 92q25 0 56 6.5t63.5 19t64 32.5t57.5 47l70 323q-95 0 -180 -8.5t-149 -35t-100.5 -77t-35.5 -134.5q0 -46 11.5 -79t31.5 -54t48 -30.5t63 -9.5zM276 -18q-68 0 -116.5 20.5t-79.5 55t-46 79.5t-15 94q-1 71 21 125.5t60 94.5t88 67.5t104.5 44.5t110 24t104.5 7
q10 0 34 -2t50.5 -4.5t50 -5t32.5 -3.5l17 79q3 12 5 27t3 30t1.5 28t0.5 21q0 39 -13 67t-35.5 45.5t-53 26t-64.5 8.5q-45 0 -92 -16.5t-90.5 -39t-82 -46.5t-65.5 -39h-32l35 155l31 11q33 12 66 23.5t71 19.5t82.5 13t101.5 5q58 0 113.5 -11t99 -37.5t70 -70.5
t26.5 -110q0 -16 -2 -36t-4.5 -40t-6 -39.5t-6.5 -34.5l-49 -217q-7 -31 -14.5 -67.5t-13.5 -70.5t-10 -62.5t-4 -43.5q0 -10 6 -24t17.5 -27t29.5 -22t42 -9q6 0 20 2t31 6t34 9t29 11h15v-45q-24 -15 -53.5 -28t-61.5 -23t-65.5 -15.5t-65.5 -5.5q-44 0 -71 15t-43 38
t-23.5 51.5t-12.5 55.5v0q-38 -48 -77.5 -79.5t-79.5 -50t-79 -26.5t-75 -8zM966 1619q30 0 55 -6.5t43 -18t28 -28t10 -36.5q0 -25 -10 -44.5t-25 -36t-33.5 -31t-35.5 -30.5t-30 -34t-18 -42l-5 -22h-81l6 28q8 39 30 63t45 43.5t40.5 38.5t17.5 49q0 19 -14 32t-46 13
q-18 0 -34 -6t-29.5 -15t-25.5 -20t-23 -21h-22l19 92q9 4 22.5 9.5t31 10.5t39 8.5t45.5 3.5zM596 1332l-302 -259l-33 27l237 293q14 18 27 33t26.5 26t28 17t32.5 6q35 0 55 -21.5t37 -59.5l134 -294l-41 -27z" />
    <glyph glyph-name="uni1EAB" unicode="&#x1eab;" horiz-adv-x="988" 
d="M352 92q25 0 56 6.5t63.5 19t64 32.5t57.5 47l70 323q-95 0 -180 -8.5t-149 -35t-100.5 -77t-35.5 -134.5q0 -46 11.5 -79t31.5 -54t48 -30.5t63 -9.5zM276 -18q-68 0 -116.5 20.5t-79.5 55t-46 79.5t-15 94q-1 71 21 125.5t60 94.5t88 67.5t104.5 44.5t110 24t104.5 7
q10 0 34 -2t50.5 -4.5t50 -5t32.5 -3.5l17 79q3 12 5 27t3 30t1.5 28t0.5 21q0 39 -13 67t-35.5 45.5t-53 26t-64.5 8.5q-45 0 -92 -16.5t-90.5 -39t-82 -46.5t-65.5 -39h-32l35 155l31 11q33 12 66 23.5t71 19.5t82.5 13t101.5 5q58 0 113.5 -11t99 -37.5t70 -70.5
t26.5 -110q0 -16 -2 -36t-4.5 -40t-6 -39.5t-6.5 -34.5l-49 -217q-7 -31 -14.5 -67.5t-13.5 -70.5t-10 -62.5t-4 -43.5q0 -10 6 -24t17.5 -27t29.5 -22t42 -9q6 0 20 2t31 6t34 9t29 11h15v-45q-24 -15 -53.5 -28t-61.5 -23t-65.5 -15.5t-65.5 -5.5q-44 0 -71 15t-43 38
t-23.5 51.5t-12.5 55.5v0q-38 -48 -77.5 -79.5t-79.5 -50t-79 -26.5t-75 -8zM326 1474q16 43 40.5 81.5t56 68t68.5 47t78 17.5q34 0 63.5 -14t57 -30.5t55.5 -30t60 -13.5q43 0 74.5 28.5t49.5 72.5h56q-17 -42 -39.5 -80.5t-51.5 -68t-65.5 -47t-81.5 -17.5
q-35 0 -63.5 14t-55.5 31t-55 31t-62 14q-42 0 -76 -29.5t-55 -74.5h-54zM596 1312l-302 -239l-33 27l237 277q28 34 53.5 56t60.5 22t55 -20t37 -57l134 -278l-41 -27z" />
    <glyph glyph-name="atilde" unicode="&#xe3;" horiz-adv-x="988" 
d="M352 92q25 0 56 6.5t63.5 19t64 32.5t57.5 47l70 323q-95 0 -180 -8.5t-149 -35t-100.5 -77t-35.5 -134.5q0 -46 11.5 -79t31.5 -54t48 -30.5t63 -9.5zM276 -18q-68 0 -116.5 20.5t-79.5 55t-46 79.5t-15 94q-1 71 21 125.5t60 94.5t88 67.5t104.5 44.5t110 24t104.5 7
q10 0 34 -2t50.5 -4.5t50 -5t32.5 -3.5l17 79q3 12 5 27t3 30t1.5 28t0.5 21q0 39 -13 67t-35.5 45.5t-53 26t-64.5 8.5q-45 0 -92 -16.5t-90.5 -39t-82 -46.5t-65.5 -39h-32l35 155l31 11q33 12 66 23.5t71 19.5t82.5 13t101.5 5q58 0 113.5 -11t99 -37.5t70 -70.5
t26.5 -110q0 -16 -2 -36t-4.5 -40t-6 -39.5t-6.5 -34.5l-49 -217q-7 -31 -14.5 -67.5t-13.5 -70.5t-10 -62.5t-4 -43.5q0 -10 6 -24t17.5 -27t29.5 -22t42 -9q6 0 20 2t31 6t34 9t29 11h15v-45q-24 -15 -53.5 -28t-61.5 -23t-65.5 -15.5t-65.5 -5.5q-44 0 -71 15t-43 38
t-23.5 51.5t-12.5 55.5v0q-38 -48 -77.5 -79.5t-79.5 -50t-79 -26.5t-75 -8zM299 1132h-54q13 43 36.5 81.5t54 68t66 47t71.5 17.5q35 0 67 -14t62 -30.5t58 -30t55 -13.5q23 0 41.5 8.5t33.5 23t25.5 32.5t17.5 37h56q-14 -42 -36.5 -80.5t-51.5 -68t-63.5 -47
t-71.5 -17.5q-35 0 -66.5 14t-61.5 31t-58 31t-56 14q-23 0 -42.5 -9t-35.5 -24t-28 -33.5t-19 -37.5z" />
    <glyph glyph-name="adieresis" unicode="&#xe4;" horiz-adv-x="988" 
d="M352 92q25 0 56 6.5t63.5 19t64 32.5t57.5 47l70 323q-95 0 -180 -8.5t-149 -35t-100.5 -77t-35.5 -134.5q0 -46 11.5 -79t31.5 -54t48 -30.5t63 -9.5zM276 -18q-68 0 -116.5 20.5t-79.5 55t-46 79.5t-15 94q-1 71 21 125.5t60 94.5t88 67.5t104.5 44.5t110 24t104.5 7
q10 0 34 -2t50.5 -4.5t50 -5t32.5 -3.5l17 79q3 12 5 27t3 30t1.5 28t0.5 21q0 39 -13 67t-35.5 45.5t-53 26t-64.5 8.5q-45 0 -92 -16.5t-90.5 -39t-82 -46.5t-65.5 -39h-32l35 155l31 11q33 12 66 23.5t71 19.5t82.5 13t101.5 5q58 0 113.5 -11t99 -37.5t70 -70.5
t26.5 -110q0 -16 -2 -36t-4.5 -40t-6 -39.5t-6.5 -34.5l-49 -217q-7 -31 -14.5 -67.5t-13.5 -70.5t-10 -62.5t-4 -43.5q0 -10 6 -24t17.5 -27t29.5 -22t42 -9q6 0 20 2t31 6t34 9t29 11h15v-45q-24 -15 -53.5 -28t-61.5 -23t-65.5 -15.5t-65.5 -5.5q-44 0 -71 15t-43 38
t-23.5 51.5t-12.5 55.5v0q-38 -48 -77.5 -79.5t-79.5 -50t-79 -26.5t-75 -8zM369 1132q-22 0 -41.5 8.5t-33.5 22.5t-22.5 33.5t-8.5 42.5q0 22 8 41.5t22.5 34t33.5 22.5t42 8q22 0 42 -8.5t35 -22.5t23.5 -33.5t8.5 -41.5q0 -23 -8.5 -42.5t-23.5 -33.5t-35 -22.5
t-42 -8.5zM762 1132q-22 0 -41.5 8.5t-33.5 22.5t-22.5 33.5t-8.5 42.5q0 22 8 41.5t22.5 34t33.5 22.5t42 8q22 0 42 -8.5t35 -22.5t23.5 -33.5t8.5 -41.5q0 -23 -8.5 -42.5t-23.5 -33.5t-35 -22.5t-42 -8.5z" />
    <glyph glyph-name="amacron" unicode="&#x101;" horiz-adv-x="988" 
d="M352 92q25 0 56 6.5t63.5 19t64 32.5t57.5 47l70 323q-95 0 -180 -8.5t-149 -35t-100.5 -77t-35.5 -134.5q0 -46 11.5 -79t31.5 -54t48 -30.5t63 -9.5zM276 -18q-68 0 -116.5 20.5t-79.5 55t-46 79.5t-15 94q-1 71 21 125.5t60 94.5t88 67.5t104.5 44.5t110 24t104.5 7
q10 0 34 -2t50.5 -4.5t50 -5t32.5 -3.5l17 79q3 12 5 27t3 30t1.5 28t0.5 21q0 39 -13 67t-35.5 45.5t-53 26t-64.5 8.5q-45 0 -92 -16.5t-90.5 -39t-82 -46.5t-65.5 -39h-32l35 155l31 11q33 12 66 23.5t71 19.5t82.5 13t101.5 5q58 0 113.5 -11t99 -37.5t70 -70.5
t26.5 -110q0 -16 -2 -36t-4.5 -40t-6 -39.5t-6.5 -34.5l-49 -217q-7 -31 -14.5 -67.5t-13.5 -70.5t-10 -62.5t-4 -43.5q0 -10 6 -24t17.5 -27t29.5 -22t42 -9q6 0 20 2t31 6t34 9t29 11h15v-45q-24 -15 -53.5 -28t-61.5 -23t-65.5 -15.5t-65.5 -5.5q-44 0 -71 15t-43 38
t-23.5 51.5t-12.5 55.5v0q-38 -48 -77.5 -79.5t-79.5 -50t-79 -26.5t-75 -8zM900 1189h-624l24 106h624z" />
    <glyph glyph-name="abreve" unicode="&#x103;" horiz-adv-x="988" 
d="M352 92q25 0 56 6.5t63.5 19t64 32.5t57.5 47l70 323q-95 0 -180 -8.5t-149 -35t-100.5 -77t-35.5 -134.5q0 -46 11.5 -79t31.5 -54t48 -30.5t63 -9.5zM276 -18q-68 0 -116.5 20.5t-79.5 55t-46 79.5t-15 94q-1 71 21 125.5t60 94.5t88 67.5t104.5 44.5t110 24t104.5 7
q10 0 34 -2t50.5 -4.5t50 -5t32.5 -3.5l17 79q3 12 5 27t3 30t1.5 28t0.5 21q0 39 -13 67t-35.5 45.5t-53 26t-64.5 8.5q-45 0 -92 -16.5t-90.5 -39t-82 -46.5t-65.5 -39h-32l35 155l31 11q33 12 66 23.5t71 19.5t82.5 13t101.5 5q58 0 113.5 -11t99 -37.5t70 -70.5
t26.5 -110q0 -16 -2 -36t-4.5 -40t-6 -39.5t-6.5 -34.5l-49 -217q-7 -31 -14.5 -67.5t-13.5 -70.5t-10 -62.5t-4 -43.5q0 -10 6 -24t17.5 -27t29.5 -22t42 -9q6 0 20 2t31 6t34 9t29 11h15v-45q-24 -15 -53.5 -28t-61.5 -23t-65.5 -15.5t-65.5 -5.5q-44 0 -71 15t-43 38
t-23.5 51.5t-12.5 55.5v0q-38 -48 -77.5 -79.5t-79.5 -50t-79 -26.5t-75 -8zM575 1105q-122 0 -181.5 79.5t-59.5 254.5l52 9q7 -51 18.5 -92t34 -69.5t59.5 -43.5t95 -15q57 0 98 14.5t72.5 42.5t55.5 69t47 94l48 -9q-51 -176 -134 -255t-205 -79z" />
    <glyph glyph-name="uni1EAF" unicode="&#x1eaf;" horiz-adv-x="988" 
d="M352 92q25 0 56 6.5t63.5 19t64 32.5t57.5 47l70 323q-95 0 -180 -8.5t-149 -35t-100.5 -77t-35.5 -134.5q0 -46 11.5 -79t31.5 -54t48 -30.5t63 -9.5zM276 -18q-68 0 -116.5 20.5t-79.5 55t-46 79.5t-15 94q-1 71 21 125.5t60 94.5t88 67.5t104.5 44.5t110 24t104.5 7
q10 0 34 -2t50.5 -4.5t50 -5t32.5 -3.5l17 79q3 12 5 27t3 30t1.5 28t0.5 21q0 39 -13 67t-35.5 45.5t-53 26t-64.5 8.5q-45 0 -92 -16.5t-90.5 -39t-82 -46.5t-65.5 -39h-32l35 155l31 11q33 12 66 23.5t71 19.5t82.5 13t101.5 5q58 0 113.5 -11t99 -37.5t70 -70.5
t26.5 -110q0 -16 -2 -36t-4.5 -40t-6 -39.5t-6.5 -34.5l-49 -217q-7 -31 -14.5 -67.5t-13.5 -70.5t-10 -62.5t-4 -43.5q0 -10 6 -24t17.5 -27t29.5 -22t42 -9q6 0 20 2t31 6t34 9t29 11h15v-45q-24 -15 -53.5 -28t-61.5 -23t-65.5 -15.5t-65.5 -5.5q-44 0 -71 15t-43 38
t-23.5 51.5t-12.5 55.5v0q-38 -48 -77.5 -79.5t-79.5 -50t-79 -26.5t-75 -8zM401 1448q4 -51 13 -92t29.5 -69.5t56.5 -43.5t95 -15q57 0 98.5 14.5t74 42.5t59.5 69t54 94l47 -9q-63 -176 -150.5 -255t-209.5 -79t-177 79.5t-42 254.5zM559 1305l79 182q17 39 32 71.5
t31 56t35 36t44 12.5q31 0 46.5 -15t15.5 -41q0 -15 -6.5 -30.5t-17.5 -30.5t-25 -31t-28 -33l-168 -195z" />
    <glyph glyph-name="uni1EB1" unicode="&#x1eb1;" horiz-adv-x="988" 
d="M352 92q25 0 56 6.5t63.5 19t64 32.5t57.5 47l70 323q-95 0 -180 -8.5t-149 -35t-100.5 -77t-35.5 -134.5q0 -46 11.5 -79t31.5 -54t48 -30.5t63 -9.5zM276 -18q-68 0 -116.5 20.5t-79.5 55t-46 79.5t-15 94q-1 71 21 125.5t60 94.5t88 67.5t104.5 44.5t110 24t104.5 7
q10 0 34 -2t50.5 -4.5t50 -5t32.5 -3.5l17 79q3 12 5 27t3 30t1.5 28t0.5 21q0 39 -13 67t-35.5 45.5t-53 26t-64.5 8.5q-45 0 -92 -16.5t-90.5 -39t-82 -46.5t-65.5 -39h-32l35 155l31 11q33 12 66 23.5t71 19.5t82.5 13t101.5 5q58 0 113.5 -11t99 -37.5t70 -70.5
t26.5 -110q0 -16 -2 -36t-4.5 -40t-6 -39.5t-6.5 -34.5l-49 -217q-7 -31 -14.5 -67.5t-13.5 -70.5t-10 -62.5t-4 -43.5q0 -10 6 -24t17.5 -27t29.5 -22t42 -9q6 0 20 2t31 6t34 9t29 11h15v-45q-24 -15 -53.5 -28t-61.5 -23t-65.5 -15.5t-65.5 -5.5q-44 0 -71 15t-43 38
t-23.5 51.5t-12.5 55.5v0q-38 -48 -77.5 -79.5t-79.5 -50t-79 -26.5t-75 -8zM403 1448q4 -51 13 -92t29.5 -69.5t56.5 -43.5t95 -15q57 0 98.5 14.5t74 42.5t59.5 69t54 94l47 -9q-63 -176 -150.5 -255t-209.5 -79t-177 79.5t-42 254.5zM619 1289l-87 213q-15 37 -21 57.5
t-6 40.5q0 23 7.5 39t19 26.5t25.5 15.5t27 5q21 0 34 -8t21 -24t11.5 -40.5t5.5 -56.5l11 -256z" />
    <glyph glyph-name="uni1EB3" unicode="&#x1eb3;" horiz-adv-x="988" 
d="M352 92q25 0 56 6.5t63.5 19t64 32.5t57.5 47l70 323q-95 0 -180 -8.5t-149 -35t-100.5 -77t-35.5 -134.5q0 -46 11.5 -79t31.5 -54t48 -30.5t63 -9.5zM276 -18q-68 0 -116.5 20.5t-79.5 55t-46 79.5t-15 94q-1 71 21 125.5t60 94.5t88 67.5t104.5 44.5t110 24t104.5 7
q10 0 34 -2t50.5 -4.5t50 -5t32.5 -3.5l17 79q3 12 5 27t3 30t1.5 28t0.5 21q0 39 -13 67t-35.5 45.5t-53 26t-64.5 8.5q-45 0 -92 -16.5t-90.5 -39t-82 -46.5t-65.5 -39h-32l35 155l31 11q33 12 66 23.5t71 19.5t82.5 13t101.5 5q58 0 113.5 -11t99 -37.5t70 -70.5
t26.5 -110q0 -16 -2 -36t-4.5 -40t-6 -39.5t-6.5 -34.5l-49 -217q-7 -31 -14.5 -67.5t-13.5 -70.5t-10 -62.5t-4 -43.5q0 -10 6 -24t17.5 -27t29.5 -22t42 -9q6 0 20 2t31 6t34 9t29 11h15v-45q-24 -15 -53.5 -28t-61.5 -23t-65.5 -15.5t-65.5 -5.5q-44 0 -71 15t-43 38
t-23.5 51.5t-12.5 55.5v0q-38 -48 -77.5 -79.5t-79.5 -50t-79 -26.5t-75 -8zM403 1448q4 -51 13 -92t29.5 -69.5t56.5 -43.5t95 -15q57 0 98.5 14.5t74 42.5t59.5 69t54 94l47 -9q-63 -176 -150.5 -255t-209.5 -79t-177 79.5t-42 254.5zM664 1598q30 0 54.5 -6.5t42 -18
t26.5 -28t9 -36.5q0 -26 -9.5 -45.5t-24.5 -34t-33 -27t-34.5 -26t-29.5 -29t-17 -37.5l-5 -22h-81l8 28q7 26 19.5 45t26.5 34t28.5 26.5t26 23t19 23.5t7.5 27q0 18 -12 29.5t-44 11.5q-18 0 -34 -6t-29.5 -15t-25.5 -20t-23 -21h-22l19 92q9 4 22.5 9.5t31 10.5t39 8.5
t45.5 3.5z" />
    <glyph glyph-name="uni1EB5" unicode="&#x1eb5;" horiz-adv-x="988" 
d="M352 92q25 0 56 6.5t63.5 19t64 32.5t57.5 47l70 323q-95 0 -180 -8.5t-149 -35t-100.5 -77t-35.5 -134.5q0 -46 11.5 -79t31.5 -54t48 -30.5t63 -9.5zM276 -18q-68 0 -116.5 20.5t-79.5 55t-46 79.5t-15 94q-1 71 21 125.5t60 94.5t88 67.5t104.5 44.5t110 24t104.5 7
q10 0 34 -2t50.5 -4.5t50 -5t32.5 -3.5l17 79q3 12 5 27t3 30t1.5 28t0.5 21q0 39 -13 67t-35.5 45.5t-53 26t-64.5 8.5q-45 0 -92 -16.5t-90.5 -39t-82 -46.5t-65.5 -39h-32l35 155l31 11q33 12 66 23.5t71 19.5t82.5 13t101.5 5q58 0 113.5 -11t99 -37.5t70 -70.5
t26.5 -110q0 -16 -2 -36t-4.5 -40t-6 -39.5t-6.5 -34.5l-49 -217q-7 -31 -14.5 -67.5t-13.5 -70.5t-10 -62.5t-4 -43.5q0 -10 6 -24t17.5 -27t29.5 -22t42 -9q6 0 20 2t31 6t34 9t29 11h15v-45q-24 -15 -53.5 -28t-61.5 -23t-65.5 -15.5t-65.5 -5.5q-44 0 -71 15t-43 38
t-23.5 51.5t-12.5 55.5v0q-38 -48 -77.5 -79.5t-79.5 -50t-79 -26.5t-75 -8zM406 1430q4 -49 13 -87t29.5 -63.5t55.5 -38.5t92 -13q55 0 95 12.5t71 38t56.5 63t51.5 88.5l49 -9q-31 -86 -67.5 -146t-79 -97.5t-93 -55t-110.5 -17.5t-103 17.5t-70 55.5t-37 98t-4 145z
M344 1486q16 43 40.5 81t56 66.5t68.5 45.5t78 17q34 0 63.5 -14t57 -30.5t55.5 -30t60 -13.5q43 0 73.5 25.5t48.5 69.5h56q-17 -42 -39 -79.5t-51 -66t-65 -45t-81 -16.5q-35 0 -63.5 14t-55.5 31t-55 31t-62 14q-42 0 -76 -27.5t-55 -72.5h-54z" />
    <glyph glyph-name="aring" unicode="&#xe5;" horiz-adv-x="988" 
d="M352 92q25 0 56 6.5t63.5 19t64 32.5t57.5 47l70 323q-95 0 -180 -8.5t-149 -35t-100.5 -77t-35.5 -134.5q0 -46 11.5 -79t31.5 -54t48 -30.5t63 -9.5zM276 -18q-68 0 -116.5 20.5t-79.5 55t-46 79.5t-15 94q-1 71 21 125.5t60 94.5t88 67.5t104.5 44.5t110 24t104.5 7
q10 0 34 -2t50.5 -4.5t50 -5t32.5 -3.5l17 79q3 12 5 27t3 30t1.5 28t0.5 21q0 39 -13 67t-35.5 45.5t-53 26t-64.5 8.5q-45 0 -92 -16.5t-90.5 -39t-82 -46.5t-65.5 -39h-32l35 155l31 11q33 12 66 23.5t71 19.5t82.5 13t101.5 5q58 0 113.5 -11t99 -37.5t70 -70.5
t26.5 -110q0 -16 -2 -36t-4.5 -40t-6 -39.5t-6.5 -34.5l-49 -217q-7 -31 -14.5 -67.5t-13.5 -70.5t-10 -62.5t-4 -43.5q0 -10 6 -24t17.5 -27t29.5 -22t42 -9q6 0 20 2t31 6t34 9t29 11h15v-45q-24 -15 -53.5 -28t-61.5 -23t-65.5 -15.5t-65.5 -5.5q-44 0 -71 15t-43 38
t-23.5 51.5t-12.5 55.5v0q-38 -48 -77.5 -79.5t-79.5 -50t-79 -26.5t-75 -8zM562 1131q29 0 53 13t41 35.5t26.5 54t9.5 67.5q0 54 -25 87t-70 33q-34 0 -59 -14t-42 -37.5t-25.5 -54.5t-8.5 -65q0 -55 27 -87t73 -32zM540 1080q-41 0 -73.5 10.5t-56 30t-36 48.5t-12.5 67
q0 51 18.5 94t52 74.5t80 49.5t103.5 18q40 0 72.5 -10.5t55.5 -30t35 -48.5t12 -65q0 -52 -18.5 -95.5t-52 -75t-79.5 -49.5t-101 -18z" />
    <glyph glyph-name="aringacute" unicode="&#x1fb;" horiz-adv-x="988" 
d="M352 92q25 0 56 6.5t63.5 19t64 32.5t57.5 47l70 323q-95 0 -180 -8.5t-149 -35t-100.5 -77t-35.5 -134.5q0 -46 11.5 -79t31.5 -54t48 -30.5t63 -9.5zM276 -18q-68 0 -116.5 20.5t-79.5 55t-46 79.5t-15 94q-1 71 21 125.5t60 94.5t88 67.5t104.5 44.5t110 24t104.5 7
q10 0 34 -2t50.5 -4.5t50 -5t32.5 -3.5l17 79q3 12 5 27t3 30t1.5 28t0.5 21q0 39 -13 67t-35.5 45.5t-53 26t-64.5 8.5q-45 0 -92 -16.5t-90.5 -39t-82 -46.5t-65.5 -39h-32l35 155l31 11q33 12 66 23.5t71 19.5t82.5 13t101.5 5q58 0 113.5 -11t99 -37.5t70 -70.5
t26.5 -110q0 -16 -2 -36t-4.5 -40t-6 -39.5t-6.5 -34.5l-49 -217q-7 -31 -14.5 -67.5t-13.5 -70.5t-10 -62.5t-4 -43.5q0 -10 6 -24t17.5 -27t29.5 -22t42 -9q6 0 20 2t31 6t34 9t29 11h15v-45q-24 -15 -53.5 -28t-61.5 -23t-65.5 -15.5t-65.5 -5.5q-44 0 -71 15t-43 38
t-23.5 51.5t-12.5 55.5v0q-38 -48 -77.5 -79.5t-79.5 -50t-79 -26.5t-75 -8zM601 1121q29 0 53 13t41 35.5t26.5 54t9.5 67.5q0 54 -25 87t-70 33q-34 0 -59 -14t-42 -37.5t-25.5 -54.5t-8.5 -65q0 -55 27 -87t73 -32zM579 1070q-41 0 -73.5 10.5t-56 30t-36 48.5t-12.5 67
q0 51 18.5 94t52 74.5t80 49.5t103.5 18q40 0 72.5 -10.5t55.5 -30t35 -48.5t12 -65q0 -52 -18.5 -95.5t-52 -75t-79.5 -49.5t-101 -18zM503 1456l-36 29q50 71 89 126.5t69 97t53.5 70t44 46.5t39.5 26t40 8q15 0 27 -5.5t21 -14.5t13.5 -21t4.5 -24q0 -17 -4.5 -30.5
t-14 -25.5t-23 -24.5t-31.5 -27.5z" />
    <glyph glyph-name="uni1EA3" unicode="&#x1ea3;" horiz-adv-x="988" 
d="M352 92q25 0 56 6.5t63.5 19t64 32.5t57.5 47l70 323q-95 0 -180 -8.5t-149 -35t-100.5 -77t-35.5 -134.5q0 -46 11.5 -79t31.5 -54t48 -30.5t63 -9.5zM276 -18q-68 0 -116.5 20.5t-79.5 55t-46 79.5t-15 94q-1 71 21 125.5t60 94.5t88 67.5t104.5 44.5t110 24t104.5 7
q10 0 34 -2t50.5 -4.5t50 -5t32.5 -3.5l17 79q3 12 5 27t3 30t1.5 28t0.5 21q0 39 -13 67t-35.5 45.5t-53 26t-64.5 8.5q-45 0 -92 -16.5t-90.5 -39t-82 -46.5t-65.5 -39h-32l35 155l31 11q33 12 66 23.5t71 19.5t82.5 13t101.5 5q58 0 113.5 -11t99 -37.5t70 -70.5
t26.5 -110q0 -16 -2 -36t-4.5 -40t-6 -39.5t-6.5 -34.5l-49 -217q-7 -31 -14.5 -67.5t-13.5 -70.5t-10 -62.5t-4 -43.5q0 -10 6 -24t17.5 -27t29.5 -22t42 -9q6 0 20 2t31 6t34 9t29 11h15v-45q-24 -15 -53.5 -28t-61.5 -23t-65.5 -15.5t-65.5 -5.5q-44 0 -71 15t-43 38
t-23.5 51.5t-12.5 55.5v0q-38 -48 -77.5 -79.5t-79.5 -50t-79 -26.5t-75 -8zM659 1541q82 0 126 -32t44 -87q0 -37 -13.5 -65.5t-34 -52.5t-45 -46t-47.5 -45t-41.5 -49.5t-25.5 -59.5l-6 -31h-101l8 39q8 37 24.5 65.5t37 51.5t42.5 43t40 40t29.5 42t11.5 50
q0 12 -3.5 23.5t-13 21.5t-25.5 16t-41 6q-26 0 -47.5 -7t-40 -18t-35 -24.5t-32.5 -27.5h-27l21 101q12 6 31 13.5t44 15t55 12.5t65 5z" />
    <glyph glyph-name="uni1EA1" unicode="&#x1ea1;" horiz-adv-x="988" 
d="M352 92q25 0 56 6.5t63.5 19t64 32.5t57.5 47l70 323q-95 0 -180 -8.5t-149 -35t-100.5 -77t-35.5 -134.5q0 -46 11.5 -79t31.5 -54t48 -30.5t63 -9.5zM276 -18q-68 0 -116.5 20.5t-79.5 55t-46 79.5t-15 94q-1 71 21 125.5t60 94.5t88 67.5t104.5 44.5t110 24t104.5 7
q10 0 34 -2t50.5 -4.5t50 -5t32.5 -3.5l17 79q3 12 5 27t3 30t1.5 28t0.5 21q0 39 -13 67t-35.5 45.5t-53 26t-64.5 8.5q-45 0 -92 -16.5t-90.5 -39t-82 -46.5t-65.5 -39h-32l35 155l31 11q33 12 66 23.5t71 19.5t82.5 13t101.5 5q58 0 113.5 -11t99 -37.5t70 -70.5
t26.5 -110q0 -16 -2 -36t-4.5 -40t-6 -39.5t-6.5 -34.5l-49 -217q-7 -31 -14.5 -67.5t-13.5 -70.5t-10 -62.5t-4 -43.5q0 -10 6 -24t17.5 -27t29.5 -22t42 -9q6 0 20 2t31 6t34 9t29 11h15v-45q-24 -15 -53.5 -28t-61.5 -23t-65.5 -15.5t-65.5 -5.5q-44 0 -71 15t-43 38
t-23.5 51.5t-12.5 55.5v0q-38 -48 -77.5 -79.5t-79.5 -50t-79 -26.5t-75 -8zM352 -364q-24 0 -41.5 8t-29.5 21.5t-17.5 29.5t-5.5 33q0 33 13 58.5t34 43.5t46 27t49 9t42 -8t30 -21.5t18 -30.5t6 -34q0 -32 -13.5 -57t-34.5 -42.5t-46.5 -27t-49.5 -9.5z" />
    <glyph glyph-name="uni1EAD" unicode="&#x1ead;" horiz-adv-x="988" 
d="M352 92q25 0 56 6.5t63.5 19t64 32.5t57.5 47l70 323q-95 0 -180 -8.5t-149 -35t-100.5 -77t-35.5 -134.5q0 -46 11.5 -79t31.5 -54t48 -30.5t63 -9.5zM276 -18q-68 0 -116.5 20.5t-79.5 55t-46 79.5t-15 94q-1 71 21 125.5t60 94.5t88 67.5t104.5 44.5t110 24t104.5 7
q10 0 34 -2t50.5 -4.5t50 -5t32.5 -3.5l17 79q3 12 5 27t3 30t1.5 28t0.5 21q0 39 -13 67t-35.5 45.5t-53 26t-64.5 8.5q-45 0 -92 -16.5t-90.5 -39t-82 -46.5t-65.5 -39h-32l35 155l31 11q33 12 66 23.5t71 19.5t82.5 13t101.5 5q58 0 113.5 -11t99 -37.5t70 -70.5
t26.5 -110q0 -16 -2 -36t-4.5 -40t-6 -39.5t-6.5 -34.5l-49 -217q-7 -31 -14.5 -67.5t-13.5 -70.5t-10 -62.5t-4 -43.5q0 -10 6 -24t17.5 -27t29.5 -22t42 -9q6 0 20 2t31 6t34 9t29 11h15v-45q-24 -15 -53.5 -28t-61.5 -23t-65.5 -15.5t-65.5 -5.5q-44 0 -71 15t-43 38
t-23.5 51.5t-12.5 55.5v0q-38 -48 -77.5 -79.5t-79.5 -50t-79 -26.5t-75 -8zM621 1332l-302 -259l-33 27l237 293q14 18 27 33t26.5 26t28 17t32.5 6q35 0 55 -21.5t37 -59.5l134 -294l-41 -27zM352 -364q-24 0 -41.5 8t-29.5 21.5t-17.5 29.5t-5.5 33q0 33 13 58.5t34 43.5
t46 27t49 9t42 -8t30 -21.5t18 -30.5t6 -34q0 -32 -13.5 -57t-34.5 -42.5t-46.5 -27t-49.5 -9.5z" />
    <glyph glyph-name="uni1EB7" unicode="&#x1eb7;" horiz-adv-x="988" 
d="M352 92q25 0 56 6.5t63.5 19t64 32.5t57.5 47l70 323q-95 0 -180 -8.5t-149 -35t-100.5 -77t-35.5 -134.5q0 -46 11.5 -79t31.5 -54t48 -30.5t63 -9.5zM276 -18q-68 0 -116.5 20.5t-79.5 55t-46 79.5t-15 94q-1 71 21 125.5t60 94.5t88 67.5t104.5 44.5t110 24t104.5 7
q10 0 34 -2t50.5 -4.5t50 -5t32.5 -3.5l17 79q3 12 5 27t3 30t1.5 28t0.5 21q0 39 -13 67t-35.5 45.5t-53 26t-64.5 8.5q-45 0 -92 -16.5t-90.5 -39t-82 -46.5t-65.5 -39h-32l35 155l31 11q33 12 66 23.5t71 19.5t82.5 13t101.5 5q58 0 113.5 -11t99 -37.5t70 -70.5
t26.5 -110q0 -16 -2 -36t-4.5 -40t-6 -39.5t-6.5 -34.5l-49 -217q-7 -31 -14.5 -67.5t-13.5 -70.5t-10 -62.5t-4 -43.5q0 -10 6 -24t17.5 -27t29.5 -22t42 -9q6 0 20 2t31 6t34 9t29 11h15v-45q-24 -15 -53.5 -28t-61.5 -23t-65.5 -15.5t-65.5 -5.5q-44 0 -71 15t-43 38
t-23.5 51.5t-12.5 55.5v0q-38 -48 -77.5 -79.5t-79.5 -50t-79 -26.5t-75 -8zM575 1105q-122 0 -181.5 79.5t-59.5 254.5l52 9q7 -51 18.5 -92t34 -69.5t59.5 -43.5t95 -15q57 0 98 14.5t72.5 42.5t55.5 69t47 94l48 -9q-51 -176 -134 -255t-205 -79zM352 -364q-24 0 -41.5 8
t-29.5 21.5t-17.5 29.5t-5.5 33q0 33 13 58.5t34 43.5t46 27t49 9t42 -8t30 -21.5t18 -30.5t6 -34q0 -32 -13.5 -57t-34.5 -42.5t-46.5 -27t-49.5 -9.5z" />
    <glyph glyph-name="aogonek" unicode="&#x105;" horiz-adv-x="988" 
d="M352 92q25 0 56 6.5t63.5 19t64 32.5t57.5 47l70 323q-95 0 -180 -8.5t-149 -35t-100.5 -77t-35.5 -134.5q0 -46 11.5 -79t31.5 -54t48 -30.5t63 -9.5zM640 -439q-56 0 -94 13.5t-62 36t-34.5 51t-10.5 58.5q0 46 19.5 86.5t50.5 75.5t70 65.5t78 57.5q-18 12 -30 28
t-20 35t-12.5 39t-7.5 39v0q-38 -48 -78 -80t-80 -50.5t-78.5 -26t-74.5 -7.5q-68 0 -116.5 20.5t-79.5 55t-46 79.5t-15 94q-1 71 21 125.5t60 94.5t88 67.5t104.5 44.5t110 24t104.5 7q10 0 34 -2t50.5 -4.5t50 -5t32.5 -3.5l17 79q3 12 5 27t3 30t1.5 28t0.5 21
q0 39 -13 67t-35.5 45.5t-53 26t-64.5 8.5q-45 0 -92 -16.5t-90.5 -39t-82 -46.5t-65.5 -39h-32l35 155q38 14 74 27t76.5 23t89.5 16t112 6q58 0 113.5 -11t99 -37.5t70 -70.5t26.5 -110q0 -16 -2 -36t-4.5 -40t-6 -39.5t-6.5 -34.5l-61 -271q-6 -28 -11.5 -56.5
t-9.5 -54.5t-6.5 -46.5t-2.5 -32.5q0 -10 6 -24t17.5 -27t29.5 -22t42 -9q6 0 20 2t31 6t34 9t29 11h15v-45q-24 -15 -53.5 -28t-61.5 -23t-65.5 -15.5t-65.5 -5.5q-11 0 -20 0.5t-17 2.5q-27 -23 -51 -48.5t-41.5 -54t-27.5 -60t-10 -65.5q0 -23 7 -44.5t21.5 -37.5
t36.5 -25.5t52 -9.5q28 0 55.5 7t53.5 19h11l-25 -79q-42 -15 -75.5 -22.5t-66.5 -7.5z" />
    <glyph glyph-name="ae" unicode="&#xe6;" horiz-adv-x="1446" 
d="M351 92q25 0 56.5 6.5t64.5 20t65.5 34t59.5 49.5l66 318q-96 0 -180.5 -8.5t-147.5 -35t-99.5 -77t-36.5 -134.5q0 -46 11 -79t31 -54t48 -30.5t62 -9.5zM926 549q93 -1 158.5 15.5t107 49.5t60 81.5t18.5 111.5q0 25 -10.5 46.5t-31.5 37t-53 24.5t-76 9
q-29 0 -68.5 -24t-80 -71t-76 -117t-55.5 -161q19 -1 50.5 -1.5t56.5 -0.5zM977 -20q-35 0 -77 14t-83.5 42t-78 68.5t-59.5 93.5v0q-61 -63 -113.5 -104.5t-100.5 -66t-92.5 -35t-89.5 -10.5q-71 0 -121 20.5t-81.5 55t-46.5 79.5t-15 94q0 71 23 125.5t61 94.5t88 67.5
t105 44.5t110.5 24t104.5 7q7 0 20 -1t29 -2.5t34 -3t33.5 -3t28 -3t18.5 -2.5l18 88q2 11 4 25.5t3.5 29.5t2.5 29t1 24q0 36 -12 61.5t-34 42t-51.5 24.5t-64.5 8q-45 0 -93 -16.5t-93 -39t-84 -46.5t-66 -39h-32l35 155q40 13 77.5 26t79 23.5t90.5 16.5t112 6
q43 0 84.5 -8t77.5 -24.5t65 -42.5t47 -61q31 28 68.5 53t81 43.5t92.5 29t103 10.5q45 0 90.5 -10t81.5 -32.5t59 -60t23 -91.5q0 -58 -20 -104.5t-54.5 -82.5t-80.5 -62t-99 -43t-110 -25t-113 -8q-15 0 -37.5 2t-45 4.5t-42.5 5t-30 4.5q-2 -10 -3.5 -23.5t-2 -27
t-1 -25.5t-0.5 -19q0 -64 13.5 -120t44.5 -98t80 -66.5t121 -24.5q54 0 97.5 13.5t81.5 35t72.5 48t70.5 51.5h20l-27 -90q-42 -34 -80.5 -64.5t-83 -53.5t-100.5 -36.5t-134 -13.5z" />
    <glyph glyph-name="aeacute" unicode="&#x1fd;" horiz-adv-x="1446" 
d="M351 92q25 0 56.5 6.5t64.5 20t65.5 34t59.5 49.5l66 318q-96 0 -180.5 -8.5t-147.5 -35t-99.5 -77t-36.5 -134.5q0 -46 11 -79t31 -54t48 -30.5t62 -9.5zM926 549q93 -1 158.5 15.5t107 49.5t60 81.5t18.5 111.5q0 25 -10.5 46.5t-31.5 37t-53 24.5t-76 9
q-29 0 -68.5 -24t-80 -71t-76 -117t-55.5 -161q19 -1 50.5 -1.5t56.5 -0.5zM977 -20q-35 0 -77 14t-83.5 42t-78 68.5t-59.5 93.5v0q-61 -63 -113.5 -104.5t-100.5 -66t-92.5 -35t-89.5 -10.5q-71 0 -121 20.5t-81.5 55t-46.5 79.5t-15 94q0 71 23 125.5t61 94.5t88 67.5
t105 44.5t110.5 24t104.5 7q7 0 20 -1t29 -2.5t34 -3t33.5 -3t28 -3t18.5 -2.5l18 88q2 11 4 25.5t3.5 29.5t2.5 29t1 24q0 36 -12 61.5t-34 42t-51.5 24.5t-64.5 8q-45 0 -93 -16.5t-93 -39t-84 -46.5t-66 -39h-32l35 155q40 13 77.5 26t79 23.5t90.5 16.5t112 6
q43 0 84.5 -8t77.5 -24.5t65 -42.5t47 -61q31 28 68.5 53t81 43.5t92.5 29t103 10.5q45 0 90.5 -10t81.5 -32.5t59 -60t23 -91.5q0 -58 -20 -104.5t-54.5 -82.5t-80.5 -62t-99 -43t-110 -25t-113 -8q-15 0 -37.5 2t-45 4.5t-42.5 5t-30 4.5q-2 -10 -3.5 -23.5t-2 -27
t-1 -25.5t-0.5 -19q0 -64 13.5 -120t44.5 -98t80 -66.5t121 -24.5q54 0 97.5 13.5t81.5 35t72.5 48t70.5 51.5h20l-27 -90q-42 -34 -80.5 -64.5t-83 -53.5t-100.5 -36.5t-134 -13.5zM742 1074l-36 29q50 71 89 126.5t69 97t53.5 70t44 46.5t39.5 26t40 8q15 0 27 -5.5
t21 -14.5t13.5 -21t4.5 -24q0 -17 -4.5 -30.5t-14 -25.5t-23 -24.5t-31.5 -27.5z" />
    <glyph glyph-name="cacute" unicode="&#x107;" horiz-adv-x="830" 
d="M426 -20q-83 0 -152.5 27t-120 78t-78.5 124t-28 165q0 96 21 179.5t58 152.5t88 123t111 91t126 56.5t134 19.5q43 0 82.5 -6t74.5 -17t64.5 -28t50.5 -38l-65 -151h-19q-27 35 -66 62.5t-82 46.5t-86 29t-79 10q-34 0 -64.5 -23t-56.5 -61t-46.5 -87t-35 -101t-22 -103
t-7.5 -92q0 -79 15 -142.5t46.5 -108.5t81 -69t117.5 -24q70 0 133 26t113 73l43 45h21l-27 -91q-41 -36 -75 -66t-72 -52.5t-85 -35t-113 -12.5zM418 1074l-36 29q50 71 89 126.5t69 97t53.5 70t44 46.5t39.5 26t40 8q15 0 27 -5.5t21 -14.5t13.5 -21t4.5 -24
q0 -17 -4.5 -30.5t-14 -25.5t-23 -24.5t-31.5 -27.5z" />
    <glyph glyph-name="ccircumflex" unicode="&#x109;" horiz-adv-x="830" 
d="M426 -20q-83 0 -152.5 27t-120 78t-78.5 124t-28 165q0 96 21 179.5t58 152.5t88 123t111 91t126 56.5t134 19.5q43 0 82.5 -6t74.5 -17t64.5 -28t50.5 -38l-65 -151h-19q-27 35 -66 62.5t-82 46.5t-86 29t-79 10q-34 0 -64.5 -23t-56.5 -61t-46.5 -87t-35 -101t-22 -103
t-7.5 -92q0 -79 15 -142.5t46.5 -108.5t81 -69t117.5 -24q70 0 133 26t113 73l43 45h21l-27 -91q-41 -36 -75 -66t-72 -52.5t-85 -35t-113 -12.5zM641 1332l-302 -259l-33 27l237 293q14 18 27 33t26.5 26t28 17t32.5 6q35 0 55 -21.5t37 -59.5l134 -294l-41 -27z" />
    <glyph glyph-name="ccaron" unicode="&#x10d;" horiz-adv-x="830" 
d="M426 -20q-83 0 -152.5 27t-120 78t-78.5 124t-28 165q0 96 21 179.5t58 152.5t88 123t111 91t126 56.5t134 19.5q43 0 82.5 -6t74.5 -17t64.5 -28t50.5 -38l-65 -151h-19q-27 35 -66 62.5t-82 46.5t-86 29t-79 10q-34 0 -64.5 -23t-56.5 -61t-46.5 -87t-35 -101t-22 -103
t-7.5 -92q0 -79 15 -142.5t46.5 -108.5t81 -69t117.5 -24q70 0 133 26t113 73l43 45h21l-27 -91q-41 -36 -75 -66t-72 -52.5t-85 -35t-113 -12.5zM593 1073q-35 0 -55 22t-37 59l-134 294l41 27l201 -259l302 259l33 -27l-237 -293q-28 -35 -53.5 -58.5t-60.5 -23.5z" />
    <glyph glyph-name="cdotaccent" unicode="&#x10b;" horiz-adv-x="830" 
d="M426 -20q-83 0 -152.5 27t-120 78t-78.5 124t-28 165q0 96 21 179.5t58 152.5t88 123t111 91t126 56.5t134 19.5q43 0 82.5 -6t74.5 -17t64.5 -28t50.5 -38l-65 -151h-19q-27 35 -66 62.5t-82 46.5t-86 29t-79 10q-34 0 -64.5 -23t-56.5 -61t-46.5 -87t-35 -101t-22 -103
t-7.5 -92q0 -79 15 -142.5t46.5 -108.5t81 -69t117.5 -24q70 0 133 26t113 73l43 45h21l-27 -91q-41 -36 -75 -66t-72 -52.5t-85 -35t-113 -12.5zM591 1132q-24 0 -45.5 9t-37 24.5t-24.5 37t-9 46.5q0 24 9 45.5t24.5 37t37 24.5t45.5 9q25 0 46.5 -9t37.5 -24.5t25.5 -37
t9.5 -45.5q0 -25 -9.5 -46.5t-25.5 -37t-37.5 -24.5t-46.5 -9z" />
    <glyph glyph-name="ccedilla" unicode="&#xe7;" horiz-adv-x="830" 
d="M342 -446q-57 0 -102.5 13.5t-79.5 30.5l18 71h17q25 -16 62.5 -31.5t86.5 -15.5q33 0 57.5 10t41 26.5t24.5 37.5t8 44q0 38 -34 52t-112 16l59 173q-75 6 -138 35.5t-108 80t-70 120.5t-25 157q0 96 21 179.5t58 152.5t88 123t111 91t126 56.5t134 19.5q45 0 86 -6.5
t76 -18.5t62.5 -28.5t47.5 -35.5l-65 -151h-19q-26 29 -55 52t-61 41t-66 30t-68 19q-17 3 -32.5 4.5t-30.5 1.5q-34 0 -64.5 -23t-56.5 -61t-46.5 -87t-35 -101t-22 -103t-7.5 -92q0 -79 15 -142.5t46.5 -108.5t81 -69t117.5 -24q42 0 83 10.5t78 29t69.5 45t58.5 59.5h21
l-27 -91q-39 -35 -72 -64.5t-69 -51.5t-80.5 -35t-105.5 -15l-32 -97q38 0 72 -7t59.5 -22t40.5 -39.5t15 -58.5q0 -46 -20 -83t-55 -63.5t-82 -41t-100 -14.5z" />
    <glyph glyph-name="dcaron" unicode="&#x10f;" horiz-adv-x="1355" 
d="M455 92q22 0 49.5 6t56 19t56 32t50.5 45l147 659q-21 11 -48.5 19t-57 13t-59 7t-54.5 2q-62 0 -113 -22t-91.5 -60t-70.5 -89t-50 -109.5t-30 -121t-10 -122.5q0 -59 13.5 -110t41 -88.5t70 -58.5t100.5 -21zM356 -18q-74 0 -131.5 27.5t-97 76.5t-60 117t-20.5 148
q0 79 17 157.5t49.5 150.5t79 133.5t106 107t131 71.5t152.5 26q41 0 78.5 -8.5t69 -22t55.5 -30.5t38 -34l86 398q6 27 -4.5 44.5t-40.5 29.5l-84 33v27l340 77l-237 -1087q-8 -35 -16.5 -74.5t-15.5 -76.5t-12 -68t-5 -48q0 -10 5.5 -24t17.5 -27t29.5 -22t41.5 -9
q6 0 19.5 2.5t29.5 6t32 8.5t28 11h15v-45q-24 -15 -52.5 -28t-60 -22.5t-64.5 -15.5t-65 -6q-38 0 -64.5 15t-43.5 38t-26.5 51.5t-13.5 55.5v0q-44 -50 -81.5 -81.5t-73.5 -50t-72.5 -25.5t-78.5 -7zM1133 1074q27 19 53 40.5t48 44.5t40 48t30 53q-27 16 -48 30
t-35.5 28.5t-22 31.5t-7.5 40q0 22 10 40.5t27 32t39.5 21.5t47.5 8q36 0 58.5 -14t35 -33.5t16.5 -41t4 -36.5q0 -46 -14 -85t-37.5 -71.5t-52.5 -59t-59 -48t-58 -37.5t-49 -27z" />
    <glyph glyph-name="dcroat" unicode="&#x111;" horiz-adv-x="1085" 
d="M356 -18q-74 0 -131.5 27.5t-97 76.5t-60 117t-20.5 148q0 79 17 157.5t49.5 150.5t79 133.5t106 107t131 71.5t152.5 26q41 0 78.5 -8.5t69 -22t55.5 -30.5t38 -34l49 226h-340l16 75h340l21 97q6 27 -4.5 44.5t-40.5 29.5l-84 33v27l340 77l-67 -308h150l-16 -75h-151
l-153 -704q-8 -35 -16.5 -74.5t-15.5 -76.5t-12 -68t-5 -48q0 -10 5.5 -24t17.5 -27t29.5 -22t41.5 -9q6 0 19.5 2.5t29.5 6t32 8.5t28 11h15v-45q-24 -15 -52.5 -28t-60 -22.5t-64.5 -15.5t-65 -6q-38 0 -64.5 15t-43.5 38t-26.5 51.5t-13.5 55.5v0q-45 -55 -86 -87.5
t-78.5 -49.5t-73 -22t-68.5 -5zM455 92q22 0 49.5 6t56 19t56 32t50.5 45l147 659q-21 11 -48.5 19t-57 13t-59 7t-54.5 2q-62 0 -113 -22t-91.5 -60t-70.5 -89t-50 -109.5t-30 -121t-10 -122.5q0 -59 13.5 -110t41 -88.5t70 -58.5t100.5 -21z" />
    <glyph glyph-name="egrave" unicode="&#xe8;" horiz-adv-x="860" 
d="M340 549q93 -1 158.5 15.5t107 49.5t60 81.5t18.5 111.5q0 25 -10.5 46.5t-31.5 37t-53 24.5t-76 9q-29 0 -68 -24t-79 -71t-75 -117t-55 -161q9 0 22 -0.5t27 -1t28.5 -0.5h26.5zM387 -20q-29 0 -65.5 6.5t-74.5 23t-74 45t-64 72t-45 103.5t-17 140q0 76 16.5 152
t49 145.5t80 130t109 104.5t136 69.5t162.5 25.5q45 0 90.5 -10t81.5 -32.5t59 -60t23 -91.5q0 -58 -20 -104.5t-54.5 -82.5t-80.5 -62t-99 -43t-110 -25t-113 -8q-15 0 -37 2t-44 4.5t-41.5 5t-29.5 4.5q-2 -10 -3.5 -23.5t-2 -27t-1 -25.5t-0.5 -19q0 -64 13 -120t43 -98
t79 -66.5t121 -24.5q53 0 97.5 13.5t83.5 35t73.5 48t67.5 51.5h20l-27 -90q-42 -34 -81 -64.5t-84.5 -53.5t-102 -36.5t-134.5 -13.5zM745 1103l-38 -29l-272 230q-16 14 -28.5 27.5t-20.5 26t-12.5 24.5t-4.5 23q0 19 7 33t17.5 22.5t23.5 12.5t24 4q17 0 31.5 -3.5
t28 -12.5t27.5 -24.5t30 -39.5z" />
    <glyph glyph-name="eacute" unicode="&#xe9;" horiz-adv-x="860" 
d="M340 549q93 -1 158.5 15.5t107 49.5t60 81.5t18.5 111.5q0 25 -10.5 46.5t-31.5 37t-53 24.5t-76 9q-29 0 -68 -24t-79 -71t-75 -117t-55 -161q9 0 22 -0.5t27 -1t28.5 -0.5h26.5zM387 -20q-29 0 -65.5 6.5t-74.5 23t-74 45t-64 72t-45 103.5t-17 140q0 76 16.5 152
t49 145.5t80 130t109 104.5t136 69.5t162.5 25.5q45 0 90.5 -10t81.5 -32.5t59 -60t23 -91.5q0 -58 -20 -104.5t-54.5 -82.5t-80.5 -62t-99 -43t-110 -25t-113 -8q-15 0 -37 2t-44 4.5t-41.5 5t-29.5 4.5q-2 -10 -3.5 -23.5t-2 -27t-1 -25.5t-0.5 -19q0 -64 13 -120t43 -98
t79 -66.5t121 -24.5q53 0 97.5 13.5t83.5 35t73.5 48t67.5 51.5h20l-27 -90q-42 -34 -81 -64.5t-84.5 -53.5t-102 -36.5t-134.5 -13.5zM494 1074l-36 29q50 71 89 126.5t69 97t53.5 70t44 46.5t39.5 26t40 8q15 0 27 -5.5t21 -14.5t13.5 -21t4.5 -24q0 -17 -4.5 -30.5
t-14 -25.5t-23 -24.5t-31.5 -27.5z" />
    <glyph glyph-name="ecircumflex" unicode="&#xea;" horiz-adv-x="860" 
d="M340 549q93 -1 158.5 15.5t107 49.5t60 81.5t18.5 111.5q0 25 -10.5 46.5t-31.5 37t-53 24.5t-76 9q-29 0 -68 -24t-79 -71t-75 -117t-55 -161q9 0 22 -0.5t27 -1t28.5 -0.5h26.5zM387 -20q-29 0 -65.5 6.5t-74.5 23t-74 45t-64 72t-45 103.5t-17 140q0 76 16.5 152
t49 145.5t80 130t109 104.5t136 69.5t162.5 25.5q45 0 90.5 -10t81.5 -32.5t59 -60t23 -91.5q0 -58 -20 -104.5t-54.5 -82.5t-80.5 -62t-99 -43t-110 -25t-113 -8q-15 0 -37 2t-44 4.5t-41.5 5t-29.5 4.5q-2 -10 -3.5 -23.5t-2 -27t-1 -25.5t-0.5 -19q0 -64 13 -120t43 -98
t79 -66.5t121 -24.5q53 0 97.5 13.5t83.5 35t73.5 48t67.5 51.5h20l-27 -90q-42 -34 -81 -64.5t-84.5 -53.5t-102 -36.5t-134.5 -13.5zM637 1332l-302 -259l-33 27l237 293q14 18 27 33t26.5 26t28 17t32.5 6q35 0 55 -21.5t37 -59.5l134 -294l-41 -27z" />
    <glyph glyph-name="uni1EBF" unicode="&#x1ebf;" horiz-adv-x="860" 
d="M340 549q93 -1 158.5 15.5t107 49.5t60 81.5t18.5 111.5q0 25 -10.5 46.5t-31.5 37t-53 24.5t-76 9q-29 0 -68 -24t-79 -71t-75 -117t-55 -161q9 0 22 -0.5t27 -1t28.5 -0.5h26.5zM387 -20q-29 0 -65.5 6.5t-74.5 23t-74 45t-64 72t-45 103.5t-17 140q0 76 16.5 152
t49 145.5t80 130t109 104.5t136 69.5t162.5 25.5q45 0 90.5 -10t81.5 -32.5t59 -60t23 -91.5q0 -58 -20 -104.5t-54.5 -82.5t-80.5 -62t-99 -43t-110 -25t-113 -8q-15 0 -37 2t-44 4.5t-41.5 5t-29.5 4.5q-2 -10 -3.5 -23.5t-2 -27t-1 -25.5t-0.5 -19q0 -64 13 -120t43 -98
t79 -66.5t121 -24.5q53 0 97.5 13.5t83.5 35t73.5 48t67.5 51.5h20l-27 -90q-42 -34 -81 -64.5t-84.5 -53.5t-102 -36.5t-134.5 -13.5zM863 1351l119 206q16 27 29.5 47.5t28.5 34t32 20.5t40 7q35 0 49 -19t14 -42q0 -16 -7 -31.5t-19.5 -31.5t-29 -31t-34.5 -30l-186 -147
zM634 1332l-302 -259l-33 27l237 293q14 18 27 33t26.5 26t28 17t32.5 6q35 0 55 -21.5t37 -59.5l134 -294l-41 -27z" />
    <glyph glyph-name="uni1EC1" unicode="&#x1ec1;" horiz-adv-x="860" 
d="M340 549q93 -1 158.5 15.5t107 49.5t60 81.5t18.5 111.5q0 25 -10.5 46.5t-31.5 37t-53 24.5t-76 9q-29 0 -68 -24t-79 -71t-75 -117t-55 -161q9 0 22 -0.5t27 -1t28.5 -0.5h26.5zM387 -20q-29 0 -65.5 6.5t-74.5 23t-74 45t-64 72t-45 103.5t-17 140q0 76 16.5 152
t49 145.5t80 130t109 104.5t136 69.5t162.5 25.5q45 0 90.5 -10t81.5 -32.5t59 -60t23 -91.5q0 -58 -20 -104.5t-54.5 -82.5t-80.5 -62t-99 -43t-110 -25t-113 -8q-15 0 -37 2t-44 4.5t-41.5 5t-29.5 4.5q-2 -10 -3.5 -23.5t-2 -27t-1 -25.5t-0.5 -19q0 -64 13 -120t43 -98
t79 -66.5t121 -24.5q53 0 97.5 13.5t83.5 35t73.5 48t67.5 51.5h20l-27 -90q-42 -34 -81 -64.5t-84.5 -53.5t-102 -36.5t-134.5 -13.5zM634 1332l-302 -259l-33 27l237 293q14 18 27 33t26.5 26t28 17t32.5 6q35 0 55 -21.5t37 -59.5l134 -294l-41 -27zM402 1347l-26 -23
l-243 183q-14 12 -24.5 21.5t-17.5 19.5t-11 22t-4 29q0 18 7.5 30t18 19.5t22.5 10.5t21 3q15 0 28 -3t25 -11t24.5 -22t27.5 -36z" />
    <glyph glyph-name="uni1EC3" unicode="&#x1ec3;" horiz-adv-x="860" 
d="M340 549q93 -1 158.5 15.5t107 49.5t60 81.5t18.5 111.5q0 25 -10.5 46.5t-31.5 37t-53 24.5t-76 9q-29 0 -68 -24t-79 -71t-75 -117t-55 -161q9 0 22 -0.5t27 -1t28.5 -0.5h26.5zM387 -20q-29 0 -65.5 6.5t-74.5 23t-74 45t-64 72t-45 103.5t-17 140q0 76 16.5 152
t49 145.5t80 130t109 104.5t136 69.5t162.5 25.5q45 0 90.5 -10t81.5 -32.5t59 -60t23 -91.5q0 -58 -20 -104.5t-54.5 -82.5t-80.5 -62t-99 -43t-110 -25t-113 -8q-15 0 -37 2t-44 4.5t-41.5 5t-29.5 4.5q-2 -10 -3.5 -23.5t-2 -27t-1 -25.5t-0.5 -19q0 -64 13 -120t43 -98
t79 -66.5t121 -24.5q53 0 97.5 13.5t83.5 35t73.5 48t67.5 51.5h20l-27 -90q-42 -34 -81 -64.5t-84.5 -53.5t-102 -36.5t-134.5 -13.5zM1004 1619q30 0 55 -6.5t43 -18t28 -28t10 -36.5q0 -25 -10 -44.5t-25 -36t-33.5 -31t-35.5 -30.5t-30 -34t-18 -42l-5 -22h-81l6 28
q8 39 30 63t45 43.5t40.5 38.5t17.5 49q0 19 -14 32t-46 13q-18 0 -34 -6t-29.5 -15t-25.5 -20t-23 -21h-22l19 92q9 4 22.5 9.5t31 10.5t39 8.5t45.5 3.5zM634 1332l-302 -259l-33 27l237 293q14 18 27 33t26.5 26t28 17t32.5 6q35 0 55 -21.5t37 -59.5l134 -294l-41 -27z
" />
    <glyph glyph-name="uni1EC5" unicode="&#x1ec5;" horiz-adv-x="860" 
d="M340 549q93 -1 158.5 15.5t107 49.5t60 81.5t18.5 111.5q0 25 -10.5 46.5t-31.5 37t-53 24.5t-76 9q-29 0 -68 -24t-79 -71t-75 -117t-55 -161q9 0 22 -0.5t27 -1t28.5 -0.5h26.5zM387 -20q-29 0 -65.5 6.5t-74.5 23t-74 45t-64 72t-45 103.5t-17 140q0 76 16.5 152
t49 145.5t80 130t109 104.5t136 69.5t162.5 25.5q45 0 90.5 -10t81.5 -32.5t59 -60t23 -91.5q0 -58 -20 -104.5t-54.5 -82.5t-80.5 -62t-99 -43t-110 -25t-113 -8q-15 0 -37 2t-44 4.5t-41.5 5t-29.5 4.5q-2 -10 -3.5 -23.5t-2 -27t-1 -25.5t-0.5 -19q0 -64 13 -120t43 -98
t79 -66.5t121 -24.5q53 0 97.5 13.5t83.5 35t73.5 48t67.5 51.5h20l-27 -90q-42 -34 -81 -64.5t-84.5 -53.5t-102 -36.5t-134.5 -13.5zM365 1474q16 43 40.5 81.5t56 68t68.5 47t78 17.5q34 0 63.5 -14t57 -30.5t55.5 -30t60 -13.5q43 0 74.5 28.5t49.5 72.5h56
q-17 -42 -39.5 -80.5t-51.5 -68t-65.5 -47t-81.5 -17.5q-35 0 -63.5 14t-55.5 31t-55 31t-62 14q-42 0 -76 -29.5t-55 -74.5h-54zM635 1312l-302 -239l-33 27l237 277q28 34 53.5 56t60.5 22t55 -20t37 -57l134 -278l-41 -27z" />
    <glyph glyph-name="ecaron" unicode="&#x11b;" horiz-adv-x="860" 
d="M340 549q93 -1 158.5 15.5t107 49.5t60 81.5t18.5 111.5q0 25 -10.5 46.5t-31.5 37t-53 24.5t-76 9q-29 0 -68 -24t-79 -71t-75 -117t-55 -161q9 0 22 -0.5t27 -1t28.5 -0.5h26.5zM387 -20q-29 0 -65.5 6.5t-74.5 23t-74 45t-64 72t-45 103.5t-17 140q0 76 16.5 152
t49 145.5t80 130t109 104.5t136 69.5t162.5 25.5q45 0 90.5 -10t81.5 -32.5t59 -60t23 -91.5q0 -58 -20 -104.5t-54.5 -82.5t-80.5 -62t-99 -43t-110 -25t-113 -8q-15 0 -37 2t-44 4.5t-41.5 5t-29.5 4.5q-2 -10 -3.5 -23.5t-2 -27t-1 -25.5t-0.5 -19q0 -64 13 -120t43 -98
t79 -66.5t121 -24.5q53 0 97.5 13.5t83.5 35t73.5 48t67.5 51.5h20l-27 -90q-42 -34 -81 -64.5t-84.5 -53.5t-102 -36.5t-134.5 -13.5zM590 1073q-35 0 -55 22t-37 59l-134 294l41 27l201 -259l302 259l33 -27l-237 -293q-28 -35 -53.5 -58.5t-60.5 -23.5z" />
    <glyph glyph-name="uni1EBD" unicode="&#x1ebd;" horiz-adv-x="860" 
d="M340 549q93 -1 158.5 15.5t107 49.5t60 81.5t18.5 111.5q0 25 -10.5 46.5t-31.5 37t-53 24.5t-76 9q-29 0 -68 -24t-79 -71t-75 -117t-55 -161q9 0 22 -0.5t27 -1t28.5 -0.5h26.5zM387 -20q-29 0 -65.5 6.5t-74.5 23t-74 45t-64 72t-45 103.5t-17 140q0 76 16.5 152
t49 145.5t80 130t109 104.5t136 69.5t162.5 25.5q45 0 90.5 -10t81.5 -32.5t59 -60t23 -91.5q0 -58 -20 -104.5t-54.5 -82.5t-80.5 -62t-99 -43t-110 -25t-113 -8q-15 0 -37 2t-44 4.5t-41.5 5t-29.5 4.5q-2 -10 -3.5 -23.5t-2 -27t-1 -25.5t-0.5 -19q0 -64 13 -120t43 -98
t79 -66.5t121 -24.5q53 0 97.5 13.5t83.5 35t73.5 48t67.5 51.5h20l-27 -90q-42 -34 -81 -64.5t-84.5 -53.5t-102 -36.5t-134.5 -13.5zM360 1132h-54q13 43 36.5 81.5t54 68t66 47t71.5 17.5q35 0 67 -14t62 -30.5t58 -30t55 -13.5q23 0 41.5 8.5t33.5 23t25.5 32.5t17.5 37
h56q-14 -42 -36.5 -80.5t-51.5 -68t-63.5 -47t-71.5 -17.5q-35 0 -66.5 14t-61.5 31t-58 31t-56 14q-23 0 -42.5 -9t-35.5 -24t-28 -33.5t-19 -37.5z" />
    <glyph glyph-name="edieresis" unicode="&#xeb;" horiz-adv-x="860" 
d="M340 549q93 -1 158.5 15.5t107 49.5t60 81.5t18.5 111.5q0 25 -10.5 46.5t-31.5 37t-53 24.5t-76 9q-29 0 -68 -24t-79 -71t-75 -117t-55 -161q9 0 22 -0.5t27 -1t28.5 -0.5h26.5zM387 -20q-29 0 -65.5 6.5t-74.5 23t-74 45t-64 72t-45 103.5t-17 140q0 76 16.5 152
t49 145.5t80 130t109 104.5t136 69.5t162.5 25.5q45 0 90.5 -10t81.5 -32.5t59 -60t23 -91.5q0 -58 -20 -104.5t-54.5 -82.5t-80.5 -62t-99 -43t-110 -25t-113 -8q-15 0 -37 2t-44 4.5t-41.5 5t-29.5 4.5q-2 -10 -3.5 -23.5t-2 -27t-1 -25.5t-0.5 -19q0 -64 13 -120t43 -98
t79 -66.5t121 -24.5q53 0 97.5 13.5t83.5 35t73.5 48t67.5 51.5h20l-27 -90q-42 -34 -81 -64.5t-84.5 -53.5t-102 -36.5t-134.5 -13.5zM401 1132q-22 0 -41.5 8.5t-33.5 22.5t-22.5 33.5t-8.5 42.5q0 22 8 41.5t22.5 34t33.5 22.5t42 8q22 0 42 -8.5t35 -22.5t23.5 -33.5
t8.5 -41.5q0 -23 -8.5 -42.5t-23.5 -33.5t-35 -22.5t-42 -8.5zM794 1132q-22 0 -41.5 8.5t-33.5 22.5t-22.5 33.5t-8.5 42.5q0 22 8 41.5t22.5 34t33.5 22.5t42 8q22 0 42 -8.5t35 -22.5t23.5 -33.5t8.5 -41.5q0 -23 -8.5 -42.5t-23.5 -33.5t-35 -22.5t-42 -8.5z" />
    <glyph glyph-name="emacron" unicode="&#x113;" horiz-adv-x="860" 
d="M340 549q93 -1 158.5 15.5t107 49.5t60 81.5t18.5 111.5q0 25 -10.5 46.5t-31.5 37t-53 24.5t-76 9q-29 0 -68 -24t-79 -71t-75 -117t-55 -161q9 0 22 -0.5t27 -1t28.5 -0.5h26.5zM387 -20q-29 0 -65.5 6.5t-74.5 23t-74 45t-64 72t-45 103.5t-17 140q0 76 16.5 152
t49 145.5t80 130t109 104.5t136 69.5t162.5 25.5q45 0 90.5 -10t81.5 -32.5t59 -60t23 -91.5q0 -58 -20 -104.5t-54.5 -82.5t-80.5 -62t-99 -43t-110 -25t-113 -8q-15 0 -37 2t-44 4.5t-41.5 5t-29.5 4.5q-2 -10 -3.5 -23.5t-2 -27t-1 -25.5t-0.5 -19q0 -64 13 -120t43 -98
t79 -66.5t121 -24.5q53 0 97.5 13.5t83.5 35t73.5 48t67.5 51.5h20l-27 -90q-42 -34 -81 -64.5t-84.5 -53.5t-102 -36.5t-134.5 -13.5zM917 1189h-624l24 106h624z" />
    <glyph glyph-name="ebreve" unicode="&#x115;" horiz-adv-x="860" 
d="M340 549q93 -1 158.5 15.5t107 49.5t60 81.5t18.5 111.5q0 25 -10.5 46.5t-31.5 37t-53 24.5t-76 9q-29 0 -68 -24t-79 -71t-75 -117t-55 -161q9 0 22 -0.5t27 -1t28.5 -0.5h26.5zM387 -20q-29 0 -65.5 6.5t-74.5 23t-74 45t-64 72t-45 103.5t-17 140q0 76 16.5 152
t49 145.5t80 130t109 104.5t136 69.5t162.5 25.5q45 0 90.5 -10t81.5 -32.5t59 -60t23 -91.5q0 -58 -20 -104.5t-54.5 -82.5t-80.5 -62t-99 -43t-110 -25t-113 -8q-15 0 -37 2t-44 4.5t-41.5 5t-29.5 4.5q-2 -10 -3.5 -23.5t-2 -27t-1 -25.5t-0.5 -19q0 -64 13 -120t43 -98
t79 -66.5t121 -24.5q53 0 97.5 13.5t83.5 35t73.5 48t67.5 51.5h20l-27 -90q-42 -34 -81 -64.5t-84.5 -53.5t-102 -36.5t-134.5 -13.5zM592 1105q-122 0 -181.5 79.5t-59.5 254.5l52 9q7 -51 18.5 -92t34 -69.5t59.5 -43.5t95 -15q57 0 98 14.5t72.5 42.5t55.5 69t47 94
l48 -9q-51 -176 -134 -255t-205 -79z" />
    <glyph glyph-name="edotaccent" unicode="&#x117;" horiz-adv-x="860" 
d="M340 549q93 -1 158.5 15.5t107 49.5t60 81.5t18.5 111.5q0 25 -10.5 46.5t-31.5 37t-53 24.5t-76 9q-29 0 -68 -24t-79 -71t-75 -117t-55 -161q9 0 22 -0.5t27 -1t28.5 -0.5h26.5zM387 -20q-29 0 -65.5 6.5t-74.5 23t-74 45t-64 72t-45 103.5t-17 140q0 76 16.5 152
t49 145.5t80 130t109 104.5t136 69.5t162.5 25.5q45 0 90.5 -10t81.5 -32.5t59 -60t23 -91.5q0 -58 -20 -104.5t-54.5 -82.5t-80.5 -62t-99 -43t-110 -25t-113 -8q-15 0 -37 2t-44 4.5t-41.5 5t-29.5 4.5q-2 -10 -3.5 -23.5t-2 -27t-1 -25.5t-0.5 -19q0 -64 13 -120t43 -98
t79 -66.5t121 -24.5q53 0 97.5 13.5t83.5 35t73.5 48t67.5 51.5h20l-27 -90q-42 -34 -81 -64.5t-84.5 -53.5t-102 -36.5t-134.5 -13.5zM588 1132q-24 0 -45.5 9t-37 24.5t-24.5 37t-9 46.5q0 24 9 45.5t24.5 37t37 24.5t45.5 9q25 0 46.5 -9t37.5 -24.5t25.5 -37t9.5 -45.5
q0 -25 -9.5 -46.5t-25.5 -37t-37.5 -24.5t-46.5 -9z" />
    <glyph glyph-name="uni1EBB" unicode="&#x1ebb;" horiz-adv-x="860" 
d="M340 549q93 -1 158.5 15.5t107 49.5t60 81.5t18.5 111.5q0 25 -10.5 46.5t-31.5 37t-53 24.5t-76 9q-29 0 -68 -24t-79 -71t-75 -117t-55 -161q9 0 22 -0.5t27 -1t28.5 -0.5h26.5zM387 -20q-29 0 -65.5 6.5t-74.5 23t-74 45t-64 72t-45 103.5t-17 140q0 76 16.5 152
t49 145.5t80 130t109 104.5t136 69.5t162.5 25.5q45 0 90.5 -10t81.5 -32.5t59 -60t23 -91.5q0 -58 -20 -104.5t-54.5 -82.5t-80.5 -62t-99 -43t-110 -25t-113 -8q-15 0 -37 2t-44 4.5t-41.5 5t-29.5 4.5q-2 -10 -3.5 -23.5t-2 -27t-1 -25.5t-0.5 -19q0 -64 13 -120t43 -98
t79 -66.5t121 -24.5q53 0 97.5 13.5t83.5 35t73.5 48t67.5 51.5h20l-27 -90q-42 -34 -81 -64.5t-84.5 -53.5t-102 -36.5t-134.5 -13.5zM676 1541q82 0 126 -32t44 -87q0 -37 -13.5 -65.5t-34 -52.5t-45 -46t-47.5 -45t-41.5 -49.5t-25.5 -59.5l-6 -31h-101l8 39
q8 37 24.5 65.5t37 51.5t42.5 43t40 40t29.5 42t11.5 50q0 12 -3.5 23.5t-13 21.5t-25.5 16t-41 6q-26 0 -47.5 -7t-40 -18t-35 -24.5t-32.5 -27.5h-27l21 101q12 6 31 13.5t44 15t55 12.5t65 5z" />
    <glyph glyph-name="uni1EB9" unicode="&#x1eb9;" horiz-adv-x="860" 
d="M340 549q93 -1 158.5 15.5t107 49.5t60 81.5t18.5 111.5q0 25 -10.5 46.5t-31.5 37t-53 24.5t-76 9q-29 0 -68 -24t-79 -71t-75 -117t-55 -161q9 0 22 -0.5t27 -1t28.5 -0.5h26.5zM387 -20q-29 0 -65.5 6.5t-74.5 23t-74 45t-64 72t-45 103.5t-17 140q0 76 16.5 152
t49 145.5t80 130t109 104.5t136 69.5t162.5 25.5q45 0 90.5 -10t81.5 -32.5t59 -60t23 -91.5q0 -58 -20 -104.5t-54.5 -82.5t-80.5 -62t-99 -43t-110 -25t-113 -8q-15 0 -37 2t-44 4.5t-41.5 5t-29.5 4.5q-2 -10 -3.5 -23.5t-2 -27t-1 -25.5t-0.5 -19q0 -64 13 -120t43 -98
t79 -66.5t121 -24.5q53 0 97.5 13.5t83.5 35t73.5 48t67.5 51.5h20l-27 -90q-42 -34 -81 -64.5t-84.5 -53.5t-102 -36.5t-134.5 -13.5zM329 -364q-24 0 -41.5 8t-29.5 21.5t-17.5 29.5t-5.5 33q0 33 13 58.5t34 43.5t46 27t49 9t42 -8t30 -21.5t18 -30.5t6 -34
q0 -32 -13.5 -57t-34.5 -42.5t-46.5 -27t-49.5 -9.5z" />
    <glyph glyph-name="uni1EC7" unicode="&#x1ec7;" horiz-adv-x="860" 
d="M340 549q93 -1 158.5 15.5t107 49.5t60 81.5t18.5 111.5q0 25 -10.5 46.5t-31.5 37t-53 24.5t-76 9q-29 0 -68 -24t-79 -71t-75 -117t-55 -161q9 0 22 -0.5t27 -1t28.5 -0.5h26.5zM387 -20q-29 0 -65.5 6.5t-74.5 23t-74 45t-64 72t-45 103.5t-17 140q0 76 16.5 152
t49 145.5t80 130t109 104.5t136 69.5t162.5 25.5q45 0 90.5 -10t81.5 -32.5t59 -60t23 -91.5q0 -58 -20 -104.5t-54.5 -82.5t-80.5 -62t-99 -43t-110 -25t-113 -8q-15 0 -37 2t-44 4.5t-41.5 5t-29.5 4.5q-2 -10 -3.5 -23.5t-2 -27t-1 -25.5t-0.5 -19q0 -64 13 -120t43 -98
t79 -66.5t121 -24.5q53 0 97.5 13.5t83.5 35t73.5 48t67.5 51.5h20l-27 -90q-42 -34 -81 -64.5t-84.5 -53.5t-102 -36.5t-134.5 -13.5zM638 1332l-302 -259l-33 27l237 293q14 18 27 33t26.5 26t28 17t32.5 6q35 0 55 -21.5t37 -59.5l134 -294l-41 -27zM329 -364
q-24 0 -41.5 8t-29.5 21.5t-17.5 29.5t-5.5 33q0 33 13 58.5t34 43.5t46 27t49 9t42 -8t30 -21.5t18 -30.5t6 -34q0 -32 -13.5 -57t-34.5 -42.5t-46.5 -27t-49.5 -9.5z" />
    <glyph glyph-name="eogonek" unicode="&#x119;" horiz-adv-x="860" 
d="M340 549q93 -1 158.5 15.5t107 49.5t60 81.5t18.5 111.5q0 25 -10.5 46.5t-31.5 37t-53 24.5t-76 9q-29 0 -68 -24t-79 -71t-75 -117t-55 -161q19 -1 49 -1.5t55 -0.5zM513 -439q-56 0 -94 13.5t-62 36t-34.5 51t-10.5 58.5q0 43 17 81.5t44.5 72t62.5 62.5t72 55
q-26 -5 -56 -8t-65 -3q-29 0 -65.5 6.5t-74.5 23t-74 45t-64 72t-45 103.5t-17 140q0 76 16.5 152t49 145.5t80 130t109 104.5t136 69.5t162.5 25.5q45 0 90.5 -10t81.5 -32.5t59 -60t23 -91.5q0 -58 -20 -104.5t-54.5 -82.5t-80.5 -62t-99 -43t-110 -25t-113 -8
q-15 0 -37 2t-44 4.5t-41.5 5t-29.5 4.5q-2 -10 -3.5 -23.5t-2 -27t-1 -25.5t-0.5 -19q0 -64 13 -120t43 -98t79 -66.5t121 -24.5q53 0 97.5 13.5t83.5 35t73.5 48t67.5 51.5h20l-27 -90q-19 -15 -37 -29.5t-36 -28t-37 -26.5t-40 -25q-33 -20 -68 -49.5t-63.5 -65.5
t-46.5 -77.5t-18 -85.5q0 -23 7 -44.5t21.5 -37.5t36.5 -25.5t52 -9.5q28 0 55.5 7t53.5 19h11l-25 -79q-42 -15 -75.5 -22.5t-66.5 -7.5z" />
    <glyph glyph-name="gcircumflex" unicode="&#x11d;" horiz-adv-x="1043" 
d="M454 111q22 0 50.5 5.5t59 18.5t60.5 32.5t56 48.5l128 637q-19 11 -49 18.5t-62 12.5t-61.5 7.5t-46.5 2.5q-60 0 -110 -21.5t-90 -58t-69.5 -85t-49.5 -103t-30 -112t-10 -110.5q0 -61 12 -114.5t39 -93t69.5 -62.5t103.5 -23zM267 -471q-53 0 -91.5 4t-67 11
t-49.5 15.5t-37 16.5l65 153h19q18 -12 41.5 -24.5t50.5 -23t57 -16.5t60 -5q51 1 88.5 5t66.5 12.5t50 21t39 31.5q15 15 26.5 45t21 70t18.5 86t19 93l30 141v0q-52 -59 -100.5 -92.5t-90.5 -49.5t-75.5 -19.5t-55.5 -3.5q-75 0 -132 28.5t-95.5 78.5t-58 118t-19.5 148
q0 78 17 154.5t49.5 145.5t79.5 128.5t106 103t130 68t151 24.5q41 0 75 -8t61.5 -21t48.5 -30.5t36 -35.5l51 87h179q-6 -12 -16 -35t-20.5 -51t-19.5 -58.5t-14 -57.5l-146 -760q-12 -62 -30 -112.5t-42 -92.5t-53.5 -76t-64.5 -63q-42 -35 -83.5 -63t-85 -48.5
t-90.5 -31.5t-99 -11zM639 1332l-302 -259l-33 27l237 293q14 18 27 33t26.5 26t28 17t32.5 6q35 0 55 -21.5t37 -59.5l134 -294l-41 -27z" />
    <glyph glyph-name="gbreve" unicode="&#x11f;" horiz-adv-x="1043" 
d="M454 111q22 0 50.5 5.5t59 18.5t60.5 32.5t56 48.5l128 637q-19 11 -49 18.5t-62 12.5t-61.5 7.5t-46.5 2.5q-60 0 -110 -21.5t-90 -58t-69.5 -85t-49.5 -103t-30 -112t-10 -110.5q0 -61 12 -114.5t39 -93t69.5 -62.5t103.5 -23zM267 -471q-53 0 -91.5 4t-67 11
t-49.5 15.5t-37 16.5l65 153h19q18 -12 41.5 -24.5t50.5 -23t57 -16.5t60 -5q51 1 88.5 5t66.5 12.5t50 21t39 31.5q15 15 26.5 45t21 70t18.5 86t19 93l30 141v0q-52 -59 -100.5 -92.5t-90.5 -49.5t-75.5 -19.5t-55.5 -3.5q-75 0 -132 28.5t-95.5 78.5t-58 118t-19.5 148
q0 78 17 154.5t49.5 145.5t79.5 128.5t106 103t130 68t151 24.5q41 0 75 -8t61.5 -21t48.5 -30.5t36 -35.5l51 87h179q-6 -12 -16 -35t-20.5 -51t-19.5 -58.5t-14 -57.5l-146 -760q-12 -62 -30 -112.5t-42 -92.5t-53.5 -76t-64.5 -63q-42 -35 -83.5 -63t-85 -48.5
t-90.5 -31.5t-99 -11zM593 1105q-122 0 -181.5 79.5t-59.5 254.5l52 9q7 -51 18.5 -92t34 -69.5t59.5 -43.5t95 -15q57 0 98 14.5t72.5 42.5t55.5 69t47 94l48 -9q-51 -176 -134 -255t-205 -79z" />
    <glyph glyph-name="gdotaccent" unicode="&#x121;" horiz-adv-x="1043" 
d="M454 111q22 0 50.5 5.5t59 18.5t60.5 32.5t56 48.5l128 637q-19 11 -49 18.5t-62 12.5t-61.5 7.5t-46.5 2.5q-60 0 -110 -21.5t-90 -58t-69.5 -85t-49.5 -103t-30 -112t-10 -110.5q0 -61 12 -114.5t39 -93t69.5 -62.5t103.5 -23zM267 -471q-53 0 -91.5 4t-67 11
t-49.5 15.5t-37 16.5l65 153h19q18 -12 41.5 -24.5t50.5 -23t57 -16.5t60 -5q51 1 88.5 5t66.5 12.5t50 21t39 31.5q15 15 26.5 45t21 70t18.5 86t19 93l30 141v0q-52 -59 -100.5 -92.5t-90.5 -49.5t-75.5 -19.5t-55.5 -3.5q-75 0 -132 28.5t-95.5 78.5t-58 118t-19.5 148
q0 78 17 154.5t49.5 145.5t79.5 128.5t106 103t130 68t151 24.5q41 0 75 -8t61.5 -21t48.5 -30.5t36 -35.5l51 87h179q-6 -12 -16 -35t-20.5 -51t-19.5 -58.5t-14 -57.5l-146 -760q-12 -62 -30 -112.5t-42 -92.5t-53.5 -76t-64.5 -63q-42 -35 -83.5 -63t-85 -48.5
t-90.5 -31.5t-99 -11zM589 1132q-24 0 -45.5 9t-37 24.5t-24.5 37t-9 46.5q0 24 9 45.5t24.5 37t37 24.5t45.5 9q25 0 46.5 -9t37.5 -24.5t25.5 -37t9.5 -45.5q0 -25 -9.5 -46.5t-25.5 -37t-37.5 -24.5t-46.5 -9z" />
    <glyph glyph-name="uni0123" unicode="&#x123;" horiz-adv-x="1043" 
d="M454 111q22 0 50.5 5.5t59 18.5t60.5 32.5t56 48.5l128 637q-19 11 -49 18.5t-62 12.5t-61.5 7.5t-46.5 2.5q-60 0 -110 -21.5t-90 -58t-69.5 -85t-49.5 -103t-30 -112t-10 -110.5q0 -61 12 -114.5t39 -93t69.5 -62.5t103.5 -23zM267 -471q-53 0 -91.5 4t-67 11
t-49.5 15.5t-37 16.5l65 153h19q18 -12 41.5 -24.5t50.5 -23t57 -16.5t60 -5q51 1 88.5 5t66.5 12.5t50 21t39 31.5q15 15 26.5 45t21 70t18.5 86t19 93l30 141v0q-52 -59 -100.5 -92.5t-90.5 -49.5t-75.5 -19.5t-55.5 -3.5q-75 0 -132 28.5t-95.5 78.5t-58 118t-19.5 148
q0 78 17 154.5t49.5 145.5t79.5 128.5t106 103t130 68t151 24.5q41 0 75 -8t61.5 -21t48.5 -30.5t36 -35.5l51 87h179q-6 -12 -16 -35t-20.5 -51t-19.5 -58.5t-14 -57.5l-146 -760q-12 -62 -30 -112.5t-42 -92.5t-53.5 -76t-64.5 -63q-42 -35 -83.5 -63t-85 -48.5
t-90.5 -31.5t-99 -11zM752 1428q-29 -23 -48.5 -41t-33 -35t-22.5 -33.5t-18 -34.5q24 -15 39.5 -27t24.5 -23t12 -22t3 -25q0 -20 -10.5 -38t-27.5 -31.5t-38.5 -21t-44.5 -7.5q-29 0 -46.5 9.5t-27 23.5t-12.5 30t-3 28q0 57 23 103t57.5 81.5t73.5 60.5t71 41z" />
    <glyph glyph-name="hcircumflex" unicode="&#x125;" horiz-adv-x="1074" 
d="M819 -14q-35 0 -62.5 11.5t-47 30t-30 41t-10.5 45.5q0 11 1.5 27.5t4.5 36t6.5 39.5t7.5 38l85 365q8 36 13.5 70t5.5 57q0 33 -10 58t-31 42t-53.5 26t-77.5 9q-28 0 -59.5 -5t-63 -16.5t-62 -29.5t-56.5 -45l-133 -600q-5 -24 -7.5 -51t-3.5 -52.5t-1 -47v-35.5h-194
l289 1300q6 27 -4 44.5t-41 29.5l-84 33v27l340 77l-121 -546l-28 -128q51 53 96 84.5t85.5 48.5t78.5 22t74 5q41 0 83 -10.5t76.5 -36t56 -69t22.5 -108.5q0 -12 -2 -34.5t-10 -65.5l-77 -332q-7 -30 -13 -60.5t-10.5 -56.5t-7 -45.5t-2.5 -27.5q0 -10 6 -23t17.5 -25
t29.5 -20t42 -8q6 0 19 2t28 6t30.5 9t27.5 11h15v-45q-24 -15 -56.5 -28t-66.5 -22.5t-65 -15.5t-50 -6zM450 1816l-302 -259l-33 27l237 293q14 18 27 33t26.5 26t28 17t32.5 6q35 0 55 -21.5t37 -59.5l134 -294l-41 -27z" />
    <glyph glyph-name="hbar" unicode="&#x127;" horiz-adv-x="1074" 
d="M819 -14q-35 0 -62.5 11.5t-47 30t-30 41t-10.5 45.5q0 11 1.5 27.5t4.5 36t6.5 39.5t7.5 38l85 365q8 36 13.5 70t5.5 57q0 33 -10 58t-31 42t-53.5 26t-77.5 9q-28 0 -59.5 -5t-63 -16.5t-62 -29.5t-56.5 -45l-133 -600q-5 -24 -7.5 -51t-3.5 -52.5t-1 -47v-35.5h-194
l251 1128h-152v75h168l22 97q6 27 -4 44.5t-41 29.5l-84 33v27l340 77l-69 -308h395v-75h-411l-36 -163l-28 -128q51 53 96 84.5t85.5 48.5t78.5 22t74 5q41 0 83 -10.5t76.5 -36t56 -69t22.5 -108.5q0 -12 -2 -34.5t-10 -65.5l-77 -332q-7 -30 -13 -60.5t-10.5 -56.5
t-7 -45.5t-2.5 -27.5q0 -10 6 -23t17.5 -25t29.5 -20t42 -8q6 0 19 2t28 6t30.5 9t27.5 11h15v-45q-24 -15 -56.5 -28t-66.5 -22.5t-65 -15.5t-50 -6z" />
    <glyph glyph-name="igrave" unicode="&#xec;" horiz-adv-x="550" 
d="M272 -14q-36 0 -64.5 11.5t-48.5 30t-30.5 41t-10.5 45.5q0 34 6 69t14 74l114 524q6 28 -4 47.5t-41 31.5l-84 33v27l340 69l-129 -590q-4 -22 -9 -46t-10 -49t-10 -48.5t-8.5 -43.5t-5.5 -36t-2 -25q0 -10 6 -22.5t18.5 -24t30.5 -19.5t42 -8q6 0 21 2.5t33 7t36 9.5
t30 10h15v-45q-24 -15 -56.5 -28.5t-67.5 -24t-68 -16.5t-57 -6zM544 1103l-38 -29l-272 230q-16 14 -28.5 27.5t-20.5 26t-12.5 24.5t-4.5 23q0 19 7 33t17.5 22.5t23.5 12.5t24 4q17 0 31.5 -3.5t28 -12.5t27.5 -24.5t30 -39.5z" />
    <glyph glyph-name="iacute" unicode="&#xed;" horiz-adv-x="550" 
d="M272 -14q-36 0 -64.5 11.5t-48.5 30t-30.5 41t-10.5 45.5q0 34 6 69t14 74l114 524q6 28 -4 47.5t-41 31.5l-84 33v27l340 69l-129 -590q-4 -22 -9 -46t-10 -49t-10 -48.5t-8.5 -43.5t-5.5 -36t-2 -25q0 -10 6 -22.5t18.5 -24t30.5 -19.5t42 -8q6 0 21 2.5t33 7t36 9.5
t30 10h15v-45q-24 -15 -56.5 -28.5t-67.5 -24t-68 -16.5t-57 -6zM256 1074l-36 29q50 71 89 126.5t69 97t53.5 70t44 46.5t39.5 26t40 8q15 0 27 -5.5t21 -14.5t13.5 -21t4.5 -24q0 -17 -4.5 -30.5t-14 -25.5t-23 -24.5t-31.5 -27.5z" />
    <glyph glyph-name="icircumflex" unicode="&#xee;" horiz-adv-x="550" 
d="M272 -14q-36 0 -64.5 11.5t-48.5 30t-30.5 41t-10.5 45.5q0 34 6 69t14 74l114 524v0v0q6 28 -4 47.5t-41 31.5l-84 33v27l340 69l-142 -649q-6 -29 -12 -59t-10.5 -56t-7 -45.5t-2.5 -28.5q0 -10 6 -22.5t18.5 -24t30.5 -19.5t42 -8q6 0 21 2.5t33 7t36 9.5t30 10h15
v-45q-24 -15 -56.5 -28.5t-67.5 -24t-68 -16.5t-57 -6zM415 1333l-292 -260l-33 27l227 293q28 36 53.5 59t60.5 23t55.5 -21.5t36.5 -59.5l124 -294l-41 -27z" />
    <glyph glyph-name="itilde" unicode="&#x129;" horiz-adv-x="550" 
d="M272 -14q-36 0 -64.5 11.5t-48.5 30t-30.5 41t-10.5 45.5q0 34 6 69t14 74l114 524q6 28 -4 47.5t-41 31.5l-84 33v27l340 69l-129 -590q-4 -22 -9 -46t-10 -49t-10 -48.5t-8.5 -43.5t-5.5 -36t-2 -25q0 -10 6 -22.5t18.5 -24t30.5 -19.5t42 -8q6 0 21 2.5t33 7t36 9.5
t30 10h15v-45q-24 -15 -56.5 -28.5t-67.5 -24t-68 -16.5t-57 -6zM112 1132h-54q13 43 36.5 81.5t54 68t66 47t71.5 17.5q35 0 67 -14t62 -30.5t58 -30t55 -13.5q23 0 41.5 8.5t33.5 23t25.5 32.5t17.5 37h56q-14 -42 -36.5 -80.5t-51.5 -68t-63.5 -47t-71.5 -17.5
q-35 0 -66.5 14t-61.5 31t-58 31t-56 14q-23 0 -42.5 -9t-35.5 -24t-28 -33.5t-19 -37.5z" />
    <glyph glyph-name="idieresis" unicode="&#xef;" horiz-adv-x="550" 
d="M272 -14q-36 0 -64.5 11.5t-48.5 30t-30.5 41t-10.5 45.5q0 34 6 69t14 74l114 524v0v0q6 28 -4 47.5t-41 31.5l-84 33v27l340 69l-142 -649q-6 -29 -12 -59t-10.5 -56t-7 -45.5t-2.5 -28.5q0 -10 6 -22.5t18.5 -24t30.5 -19.5t42 -8q6 0 21 2.5t33 7t36 9.5t30 10h15
v-45q-24 -15 -56.5 -28.5t-67.5 -24t-68 -16.5t-57 -6zM194 1132q-22 0 -41.5 8.5t-33.5 22.5t-22.5 33.5t-8.5 42.5q0 22 8 41.5t22.5 34t33.5 22.5t42 8q22 0 42 -8.5t35 -22.5t23.5 -33.5t8.5 -41.5q0 -23 -8.5 -42.5t-23.5 -33.5t-35 -22.5t-42 -8.5zM575 1132
q-22 0 -41.5 8.5t-33.5 22.5t-22.5 33.5t-8.5 42.5q0 22 8 41.5t22.5 34t33.5 22.5t42 8q22 0 42 -8.5t35 -22.5t23.5 -33.5t8.5 -41.5q0 -23 -8.5 -42.5t-23.5 -33.5t-35 -22.5t-42 -8.5z" />
    <glyph glyph-name="imacron" unicode="&#x12b;" horiz-adv-x="550" 
d="M272 -14q-36 0 -64.5 11.5t-48.5 30t-30.5 41t-10.5 45.5q0 34 6 69t14 74l114 524q6 28 -4 47.5t-41 31.5l-84 33v27l340 69l-129 -590q-4 -22 -9 -46t-10 -49t-10 -48.5t-8.5 -43.5t-5.5 -36t-2 -25q0 -10 6 -22.5t18.5 -24t30.5 -19.5t42 -8q6 0 21 2.5t33 7t36 9.5
t30 10h15v-45q-24 -15 -56.5 -28.5t-67.5 -24t-68 -16.5t-57 -6zM669 1189h-624l24 106h624z" />
    <glyph glyph-name="ibreve" unicode="&#x12d;" horiz-adv-x="550" 
d="M272 -14q-36 0 -64.5 11.5t-48.5 30t-30.5 41t-10.5 45.5q0 34 6 69t14 74l114 524q6 28 -4 47.5t-41 31.5l-84 33v27l340 69l-129 -590q-4 -22 -9 -46t-10 -49t-10 -48.5t-8.5 -43.5t-5.5 -36t-2 -25q0 -10 6 -22.5t18.5 -24t30.5 -19.5t42 -8q6 0 21 2.5t33 7t36 9.5
t30 10h15v-45q-24 -15 -56.5 -28.5t-67.5 -24t-68 -16.5t-57 -6zM344 1105q-122 0 -181.5 79.5t-59.5 254.5l52 9q7 -51 18.5 -92t34 -69.5t59.5 -43.5t95 -15q57 0 98 14.5t72.5 42.5t55.5 69t47 94l48 -9q-51 -176 -134 -255t-205 -79z" />
    <glyph glyph-name="uni1EC9" unicode="&#x1ec9;" horiz-adv-x="550" 
d="M272 -14q-36 0 -64.5 11.5t-48.5 30t-30.5 41t-10.5 45.5q0 34 6 69t14 74l114 524q6 28 -4 47.5t-41 31.5l-84 33v27l340 69l-129 -590q-4 -22 -9 -46t-10 -49t-10 -48.5t-8.5 -43.5t-5.5 -36t-2 -25q0 -10 6 -22.5t18.5 -24t30.5 -19.5t42 -8q6 0 21 2.5t33 7t36 9.5
t30 10h15v-45q-24 -15 -56.5 -28.5t-67.5 -24t-68 -16.5t-57 -6zM428 1541q82 0 126 -32t44 -87q0 -37 -13.5 -65.5t-34 -52.5t-45 -46t-47.5 -45t-41.5 -49.5t-25.5 -59.5l-6 -31h-101l8 39q8 37 24.5 65.5t37 51.5t42.5 43t40 40t29.5 42t11.5 50q0 12 -3.5 23.5t-13 21.5
t-25.5 16t-41 6q-26 0 -47.5 -7t-40 -18t-35 -24.5t-32.5 -27.5h-27l21 101q12 6 31 13.5t44 15t55 12.5t65 5z" />
    </font>
</defs>
</svg>
