<?xml version="1.0" encoding="utf-8"?>
<!-- Generator: Adobe Illustrator 21.1.0, SVG Export Plug-In . SVG Version: 6.00 Build 0)  -->
<svg xmlns="http://www.w3.org/2000/svg" xmlns:xlink="http://www.w3.org/1999/xlink" version="1.1" id="Слой_1" x="0px" y="0px" viewBox="0 0 739 716" style="enable-background:new 0 0 739 716;" xml:space="preserve">
<style type="text/css">
	.st0{fill:none;stroke:#010101;stroke-miterlimit:10;}
	.st1{fill:#010101;}
</style>
<path class="st0" d="M603.8,540.9H133.6c-8.3,0-15-6.7-15-15V277.6c0-8.3,6.7-15,15-15h470.2c8.3,0,15,6.7,15,15v248.3  C618.8,534.2,612.1,540.9,603.8,540.9z"/>
<g>
	<path class="st1" d="M345.9,391.5l-0.8,1.1c-1.2-1-2.2-1.4-3.7-1.4c-3.2,0-5.8,2.2-5.8,8c0,5.5,2.5,8,5.7,8c1.9,0,3-0.7,4-1.5   l0.8,1c-1.1,1-2.7,1.9-4.9,1.9c-4.2,0-7.3-3.3-7.3-9.4c0-6.2,3.3-9.4,7.3-9.4C343.4,389.8,344.6,390.4,345.9,391.5z"/>
	<path class="st1" d="M360.6,407v5.1h-1.2l-0.3-3.8h-10v-13.9h1.5V407h6.7v-12.6h1.5V407H360.6z"/>
	<path class="st1" d="M373.9,401.9h-9.3c0.2,3.8,1.9,5.3,4.3,5.3c1.5,0,2.5-0.5,3.7-1.4l0.7,1c-1.3,1.1-2.7,1.7-4.5,1.7   c-3.7,0-5.9-2.7-5.9-7.1c0-4.4,2.1-7.3,5.5-7.3c3.6,0,5.4,2.6,5.4,6.7C373.9,401.3,373.9,401.7,373.9,401.9z M372.4,400.4   c0-3-1.2-5-3.8-5c-2.2,0-3.8,1.6-3.9,5.4h7.8V400.4z"/>
	<path class="st1" d="M386.7,401.8h-6.9v6.5h-1.5v-13.9h1.5v6h6.9v-6h1.5v13.9h-1.5V401.8z"/>
	<path class="st1" d="M403.7,407.5l-0.3,1.1c-1.2-0.2-1.9-0.8-2.1-2.3c-1,1.6-2.5,2.3-4.3,2.3c-2.7,0-4.3-1.7-4.3-4.1   c0-2.9,2.2-4.5,5.8-4.5h2.7v-1.4c0-2.2-0.9-3.2-3.2-3.2c-1.1,0-2.4,0.3-3.8,0.8l-0.4-1.2c1.5-0.6,2.9-0.9,4.4-0.9   c3.2,0,4.5,1.6,4.5,4.4v6.7C402.5,406.7,402.9,407.2,403.7,407.5z M401,404.9v-3.8h-2.4c-2.8,0-4.3,1.1-4.3,3.3c0,1.9,1.1,3,2.9,3   C398.9,407.3,400.1,406.5,401,404.9z"/>
</g>
<g>
	<path class="st1" d="M660.8,0.6l-4.1,10.1l-1.4-0.5l4-9.5h-4.9v-1.2h6.4V0.6z"/>
</g>
<g>
	<path class="st1" d="M662.1,36.6c0,2.4-1.6,4-3.5,4c-2.7,0-3.7-2.2-3.7-5.4c0-3.6,1.6-6,4.2-6c0.9,0,1.6,0.2,2.3,0.7l-0.6,1   c-0.5-0.3-1.1-0.5-1.7-0.5c-1.6,0-2.6,1.7-2.6,4.2c0.7-1,1.6-1.5,2.7-1.5C660.7,33.1,662.1,34.2,662.1,36.6z M660.6,36.6   c0-1.8-0.7-2.4-1.8-2.4c-1,0-1.8,0.6-2.4,1.5c0.1,2.4,0.7,3.5,2.2,3.5C659.9,39.3,660.6,38.3,660.6,36.6z"/>
</g>
<g>
	<path class="st1" d="M660.9,60.3h-4.3v3.3c0.6-0.3,1.2-0.4,1.8-0.4c1.9,0,3.1,1.3,3.1,3.5c0,2.2-1.5,3.7-3.8,3.7   c-1.4,0-2.4-0.5-3.3-1.4l0.9-0.9c0.7,0.7,1.4,1,2.4,1c1.4,0,2.3-0.9,2.3-2.5c0-1.7-0.9-2.3-2-2.3c-0.6,0-1,0.1-1.6,0.4h-1.2v-5.6h6   L660.9,60.3z"/>
</g>
<g>
	<path class="st1" d="M662.3,97.2h-1.4v2.7h-1.5v-2.7h-4.7v-1.1l3.3-7.4l1.3,0.5l-3,6.8h3.1l0.1-3h1.3v3h1.4V97.2z"/>
</g>
<g>
	<path class="st1" d="M661,121.4c0,1.4-0.9,2.3-2.2,2.5c1.4,0.1,2.5,1,2.5,2.7c0,1.9-1.5,3.4-3.8,3.4c-1.3,0-2.5-0.5-3.3-1.5   l0.9-0.8c0.7,0.8,1.5,1.1,2.4,1.1c1.4,0,2.2-0.9,2.2-2.2c0-1.5-0.9-2-2.2-2h-0.8l0.2-1.2h0.6c1.1,0,2-0.7,2-2c0-1-0.7-1.7-1.8-1.7   c-0.9,0-1.5,0.3-2.3,1l-0.8-0.9c0.9-0.9,2-1.3,3.2-1.3C659.8,118.5,661,119.9,661,121.4z"/>
</g>
<g>
	<path class="st1" d="M661.1,151.4c0,2.1-1.3,3.5-4.7,6.9h5l-0.2,1.3h-6.5v-1.2c3.9-4.1,4.9-5.1,4.9-6.9c0-1.2-0.7-1.8-1.8-1.8   c-0.9,0-1.5,0.4-2.3,1.2l-1-0.8c0.9-1.1,2-1.7,3.4-1.7C659.8,148.4,661.1,149.7,661.1,151.4z"/>
</g>
<g>
	<path class="st1" d="M659.3,189.4h-1.5V180l-2.6,1.6l-0.7-1.1l3.4-2.1h1.3V189.4z"/>
</g>
<g>
	<path class="st1" d="M4.2,582.1c2.1,0,3.5,1.3,6.9,4.7v-5l1.3,0.2v6.5h-1.2c-4.1-3.9-5.1-4.9-6.9-4.9c-1.2,0-1.8,0.7-1.8,1.8   c0,0.9,0.4,1.5,1.2,2.3l-0.8,1c-1.1-0.9-1.7-2-1.7-3.4C1.2,583.3,2.5,582.1,4.2,582.1z"/>
</g>
<g>
	<path class="st1" d="M42.2,583.8v1.5h-9.5l1.6,2.6l-1.1,0.7l-2.1-3.4v-1.3H42.2z"/>
</g>
<g>
	<path class="st1" d="M734.6,586.3c-2.1,0-3.5-1.3-6.9-4.7v5l-1.3-0.2v-6.5h1.2c4.1,3.9,5.1,4.9,6.9,4.9c1.2,0,1.8-0.7,1.8-1.8   c0-0.9-0.4-1.5-1.2-2.3l0.8-1c1.1,0.9,1.7,2,1.7,3.4C737.7,585,736.3,586.3,734.6,586.3z"/>
</g>
<g>
	<path class="st1" d="M696.6,584.6V583h9.5l-1.6-2.6l1.1-0.7l2.1,3.4v1.3H696.6z"/>
</g>
<g>
	<path class="st1" d="M474.8,623.4h-1.5v-9.5l-2.6,1.6l-0.7-1.1l3.4-2.1h1.3V623.4z"/>
</g>
<g>
	<path class="st1" d="M581.6,645c0,2.1-1.3,3.5-4.7,6.9h5l-0.2,1.3h-6.5V652c3.9-4.1,4.9-5.1,4.9-6.9c0-1.2-0.7-1.8-1.8-1.8   c-0.9,0-1.5,0.4-2.3,1.2l-1-0.8c0.9-1.1,2-1.7,3.4-1.7C580.3,641.9,581.6,643.2,581.6,645z"/>
</g>
<g>
	<path class="st1" d="M581.5,674.6c0,1.4-0.9,2.3-2.2,2.5c1.4,0.1,2.5,1,2.5,2.7c0,1.9-1.5,3.4-3.8,3.4c-1.3,0-2.5-0.5-3.3-1.5   l0.9-0.8c0.7,0.8,1.5,1.1,2.4,1.1c1.4,0,2.2-0.9,2.2-2.2c0-1.5-0.9-2-2.2-2h-0.8l0.2-1.2h0.6c1.1,0,2-0.7,2-2c0-1-0.7-1.7-1.8-1.7   c-0.9,0-1.5,0.3-2.3,1l-0.8-0.9c0.9-0.9,2-1.3,3.2-1.3C580.3,671.7,581.5,673.1,581.5,674.6z"/>
</g>
<g>
	<path class="st1" d="M692.8,710.1h-1.4v2.7h-1.5v-2.7h-4.7V709l3.3-7.4l1.3,0.5l-3,6.8h3.1l0.1-3h1.3v3h1.4V710.1z"/>
</g>
<g>
	<path class="st1" d="M344,225.5l-0.5,0.7c-0.8-0.6-1.4-0.9-2.3-0.9c-2,0-3.6,1.4-3.6,5c0,3.4,1.6,5,3.6,5c1.2,0,1.9-0.4,2.5-0.9   l0.5,0.6c-0.7,0.6-1.7,1.2-3.1,1.2c-2.6,0-4.6-2-4.6-5.9c0-3.9,2.1-5.8,4.6-5.8C342.5,224.5,343.2,224.9,344,225.5z"/>
	<path class="st1" d="M352.1,232.1h-5.8c0.1,2.4,1.2,3.3,2.7,3.3c0.9,0,1.6-0.3,2.3-0.9l0.4,0.6c-0.8,0.7-1.7,1.1-2.8,1.1   c-2.3,0-3.7-1.7-3.7-4.4c0-2.8,1.3-4.6,3.5-4.6c2.3,0,3.4,1.6,3.4,4.2C352.1,231.6,352.1,231.9,352.1,232.1z M351.2,231.1   c0-1.9-0.8-3.1-2.4-3.1c-1.4,0-2.4,1-2.5,3.3h4.9V231.1z"/>
	<path class="st1" d="M357.9,231.4l3.1,4.7h-1.1l-2.8-4.2h-1.3v4.2h-1v-8.7h1v3.7h1.3l2.5-3.7h1.1L357.9,231.4z"/>
	<path class="st1" d="M368.3,228.2h-2.9v7.8h-1v-7.8h-3v-0.8h6.9L368.3,228.2z"/>
	<path class="st1" d="M376.5,231.7c0,2.8-1.4,4.5-3.7,4.5c-2.3,0-3.7-1.7-3.7-4.5c0-2.8,1.4-4.5,3.7-4.5   C375.1,227.2,376.5,228.8,376.5,231.7z M370.2,231.7c0,2.4,1,3.7,2.6,3.7c1.7,0,2.7-1.2,2.7-3.7c0-2.4-1-3.7-2.6-3.7   C371.2,228,370.2,229.2,370.2,231.7z"/>
	<path class="st1" d="M386,231.7c0,2.7-1.1,4.6-3.3,4.6c-1.1,0-1.9-0.5-2.5-1.2v4.3l-1,0.1v-12.1h0.8l0.1,1.3   c0.6-0.9,1.6-1.4,2.7-1.4C385,227.2,386,228.9,386,231.7z M385,231.7c0-2.5-0.8-3.7-2.3-3.7c-1.1,0-1.8,0.7-2.4,1.5v4.6   c0.5,0.8,1.3,1.3,2.3,1.3C384.2,235.4,385,234.1,385,231.7z"/>
	<path class="st1" d="M398.8,232.9h-4.8l-1,3.1h-1l3.8-11.3h1.2l3.8,11.3h-1L398.8,232.9z M398.6,232.1l-2.1-6.6l-2.1,6.6H398.6z"/>
</g>
<g>
	<path class="st1" d="M347.3,566.7l-0.5,0.7c-0.8-0.6-1.4-0.9-2.3-0.9c-2,0-3.6,1.4-3.6,5c0,3.4,1.6,5,3.6,5c1.2,0,1.9-0.4,2.5-0.9   l0.5,0.6c-0.7,0.6-1.7,1.2-3.1,1.2c-2.6,0-4.6-2-4.6-5.9c0-3.9,2.1-5.8,4.6-5.8C345.8,565.7,346.5,566.1,347.3,566.7z"/>
	<path class="st1" d="M355.4,573.3h-5.8c0.1,2.4,1.2,3.3,2.7,3.3c0.9,0,1.6-0.3,2.3-0.9l0.4,0.6c-0.8,0.7-1.7,1.1-2.8,1.1   c-2.3,0-3.7-1.7-3.7-4.4c0-2.8,1.3-4.6,3.5-4.6c2.3,0,3.4,1.6,3.4,4.2C355.4,572.8,355.4,573.1,355.4,573.3z M354.5,572.3   c0-1.9-0.8-3.1-2.4-3.1c-1.4,0-2.4,1-2.5,3.3h4.9V572.3z"/>
	<path class="st1" d="M361.2,572.6l3.1,4.7h-1.1l-2.8-4.2h-1.3v4.2h-1v-8.7h1v3.7h1.3l2.5-3.7h1.1L361.2,572.6z"/>
	<path class="st1" d="M371.6,569.4h-2.9v7.8h-1v-7.8h-3v-0.8h6.9L371.6,569.4z"/>
	<path class="st1" d="M379.8,572.9c0,2.8-1.4,4.5-3.7,4.5c-2.3,0-3.7-1.7-3.7-4.5c0-2.8,1.4-4.5,3.7-4.5   C378.5,568.4,379.8,570,379.8,572.9z M373.5,572.9c0,2.4,1,3.7,2.6,3.7c1.7,0,2.7-1.2,2.7-3.7c0-2.4-1-3.7-2.6-3.7   C374.5,569.2,373.5,570.4,373.5,572.9z"/>
	<path class="st1" d="M389.4,572.9c0,2.7-1.1,4.6-3.3,4.6c-1.1,0-1.9-0.5-2.5-1.2v4.3l-1,0.1v-12.1h0.8l0.1,1.3   c0.6-0.9,1.6-1.4,2.7-1.4C388.3,568.4,389.4,570.1,389.4,572.9z M388.3,572.9c0-2.5-0.8-3.7-2.3-3.7c-1.1,0-1.8,0.7-2.4,1.5v4.6   c0.5,0.8,1.3,1.3,2.3,1.3C387.5,576.6,388.3,575.3,388.3,572.9z"/>
	<path class="st1" d="M404.1,574.1c0,2.2-1.6,3.1-4.1,3.1H397v-11.3h2.5c2.6,0,4.1,0.9,4.1,2.8c0,1.5-0.9,2.3-2.1,2.5   C402.9,571.4,404.1,572.1,404.1,574.1z M398,566.7v4.2h2.3c1.4,0,2.4-0.8,2.4-2.1c0-1.5-1.1-2.1-3-2.1H398z M403.1,574.1   c0-1.7-1.2-2.4-2.7-2.4H398v4.7h2.1C401.9,576.4,403.1,575.8,403.1,574.1z"/>
</g>
<g>
	<path class="st1" d="M76.5,432.8l0.7,0.5c-0.6,0.8-0.9,1.4-0.9,2.3c0,2,1.4,3.6,5,3.6c3.4,0,5-1.6,5-3.6c0-1.2-0.4-1.9-0.9-2.5   l0.6-0.5c0.6,0.7,1.2,1.7,1.2,3.1c0,2.6-2,4.6-5.9,4.6c-3.9,0-5.8-2.1-5.8-4.6C75.5,434.4,75.8,433.6,76.5,432.8z"/>
	<path class="st1" d="M83,424.8v5.8c2.4-0.1,3.3-1.2,3.3-2.7c0-0.9-0.3-1.6-0.9-2.3l0.6-0.4c0.7,0.8,1.1,1.7,1.1,2.8   c0,2.3-1.7,3.7-4.4,3.7c-2.8,0-4.6-1.3-4.6-3.5c0-2.3,1.6-3.4,4.2-3.4C82.6,424.7,82.9,424.7,83,424.8z M82,425.7   c-1.9,0-3.1,0.8-3.1,2.4c0,1.4,1,2.4,3.3,2.5v-4.9H82z"/>
	<path class="st1" d="M82.3,418.9l4.7-3.1v1.1l-4.2,2.8v1.3H87v1h-8.7v-1H82v-1.3l-3.7-2.4v-1.1L82.3,418.9z"/>
	<path class="st1" d="M79.2,408.5v2.9H87v1h-7.8v3h-0.8v-6.9L79.2,408.5z"/>
	<path class="st1" d="M82.6,400.3c2.8,0,4.5,1.4,4.5,3.7c0,2.3-1.7,3.7-4.5,3.7c-2.8,0-4.5-1.4-4.5-3.7   C78.1,401.7,79.8,400.3,82.6,400.3z M82.7,406.6c2.4,0,3.7-1,3.7-2.6c0-1.7-1.2-2.7-3.7-2.7c-2.4,0-3.7,1-3.7,2.6   C79,405.6,80.2,406.6,82.7,406.6z"/>
	<path class="st1" d="M82.6,390.8c2.7,0,4.6,1.1,4.6,3.3c0,1.1-0.5,1.9-1.2,2.5h4.3l0.1,1H78.3v-0.8l1.3-0.1   c-0.9-0.6-1.4-1.6-1.4-2.7C78.1,391.8,79.8,390.8,82.6,390.8z M82.6,391.8c-2.5,0-3.7,0.8-3.7,2.3c0,1.1,0.7,1.8,1.5,2.4H85   c0.8-0.5,1.3-1.3,1.3-2.3C86.4,392.7,85.1,391.8,82.6,391.8z"/>
	<path class="st1" d="M76.5,376.9v5.3H87v1H75.6v-6.4L76.5,376.9z"/>
</g>
<g>
	<path class="st1" d="M660.6,383.7l-0.7-0.5c0.6-0.8,0.9-1.4,0.9-2.3c0-2-1.4-3.6-5-3.6c-3.4,0-5,1.6-5,3.6c0,1.2,0.4,1.9,0.9,2.5   l-0.6,0.5c-0.6-0.7-1.2-1.7-1.2-3.1c0-2.6,2-4.6,5.9-4.6c3.9,0,5.8,2.1,5.8,4.6C661.6,382.2,661.3,382.9,660.6,383.7z"/>
	<path class="st1" d="M654.1,391.8V386c-2.4,0.1-3.3,1.2-3.3,2.7c0,0.9,0.3,1.6,0.9,2.3l-0.6,0.4c-0.7-0.8-1.1-1.7-1.1-2.8   c0-2.3,1.7-3.7,4.4-3.7c2.8,0,4.6,1.3,4.6,3.5c0,2.3-1.6,3.4-4.2,3.4C654.5,391.8,654.2,391.8,654.1,391.8z M655.1,390.9   c1.9,0,3.1-0.8,3.1-2.4c0-1.4-1-2.4-3.3-2.5v4.9H655.1z"/>
	<path class="st1" d="M654.8,397.6l-4.7,3.1v-1.1l4.2-2.8v-1.3h-4.2v-1h8.7v1h-3.7v1.3l3.7,2.4v1.1L654.8,397.6z"/>
	<path class="st1" d="M658,408v-2.9h-7.8v-1h7.8v-3h0.8v6.9L658,408z"/>
	<path class="st1" d="M654.5,416.2c-2.8,0-4.5-1.4-4.5-3.7c0-2.3,1.7-3.7,4.5-3.7c2.8,0,4.5,1.4,4.5,3.7   C659,414.9,657.3,416.2,654.5,416.2z M654.4,409.9c-2.4,0-3.7,1-3.7,2.6c0,1.7,1.2,2.7,3.7,2.7c2.4,0,3.7-1,3.7-2.6   C658.2,410.9,656.9,409.9,654.4,409.9z"/>
	<path class="st1" d="M654.5,425.8c-2.7,0-4.6-1.1-4.6-3.3c0-1.1,0.5-1.9,1.2-2.5h-4.3l-0.1-1h12.1v0.8l-1.3,0.1   c0.9,0.6,1.4,1.6,1.4,2.7C659,424.8,657.3,425.8,654.5,425.8z M654.5,424.7c2.5,0,3.7-0.8,3.7-2.3c0-1.1-0.7-1.8-1.5-2.4h-4.6   c-0.8,0.5-1.3,1.3-1.3,2.3C650.8,423.9,652,424.7,654.5,424.7z"/>
	<path class="st1" d="M653.7,440.2c-2.5,0-3.6-1.7-3.6-4.1v-2.8h11.3v5.7l-0.8-0.1v-4.6H657v1.8C657,438.7,655.9,440.2,653.7,440.2z    M653.7,439.2c1.8,0,2.5-1.1,2.5-3v-1.9h-5.3v1.9C650.9,438,651.6,439.2,653.7,439.2z"/>
</g>
<g sector="Сектор А" row="7">
	<g sector="Сектор А" row="7" seat="1">
		<path class="st1" d="M118.4,12.4h-11.1c-0.6,0-1-0.4-1-1v-9c0-0.6,0.4-1,1-1h11.1c0.6,0,1,0.4,1,1v9    C119.4,11.9,118.9,12.4,118.4,12.4z"/>
		<path class="st1" d="M120.2,12.4h-14.8c-0.6,0-1-0.4-1-1v-1.1c0-0.6,0.4-1,1-1h14.8c0.6,0,1,0.4,1,1v1.1    C121.2,11.9,120.8,12.4,120.2,12.4z"/>
	</g>
	<g sector="Сектор А" row="7" seat="2">
		<path class="st1" d="M145.4,12.4h-11.1c-0.6,0-1-0.4-1-1v-9c0-0.6,0.4-1,1-1h11.1c0.6,0,1,0.4,1,1v9    C146.4,11.9,145.9,12.4,145.4,12.4z"/>
		<path class="st1" d="M147.2,12.4h-14.8c-0.6,0-1-0.4-1-1v-1.1c0-0.6,0.4-1,1-1h14.8c0.6,0,1,0.4,1,1v1.1    C148.2,11.9,147.8,12.4,147.2,12.4z"/>
	</g>
	<g sector="Сектор А" row="7" seat="3">
		<path class="st1" d="M172.4,12.4h-11.1c-0.6,0-1-0.4-1-1v-9c0-0.6,0.4-1,1-1h11.1c0.6,0,1,0.4,1,1v9    C173.4,11.9,172.9,12.4,172.4,12.4z"/>
		<path class="st1" d="M174.2,12.4h-14.8c-0.6,0-1-0.4-1-1v-1.1c0-0.6,0.4-1,1-1h14.8c0.6,0,1,0.4,1,1v1.1    C175.2,11.9,174.8,12.4,174.2,12.4z"/>
	</g>
	<g sector="Сектор А" row="7" seat="4">
		<path class="st1" d="M199.4,12.4h-11.1c-0.6,0-1-0.4-1-1v-9c0-0.6,0.4-1,1-1h11.1c0.6,0,1,0.4,1,1v9    C200.4,11.9,199.9,12.4,199.4,12.4z"/>
		<path class="st1" d="M201.2,12.4h-14.8c-0.6,0-1-0.4-1-1v-1.1c0-0.6,0.4-1,1-1h14.8c0.6,0,1,0.4,1,1v1.1    C202.2,11.9,201.8,12.4,201.2,12.4z"/>
	</g>
	<g sector="Сектор А" row="7" seat="5">
		<path class="st1" d="M226.4,12.4h-11.1c-0.6,0-1-0.4-1-1v-9c0-0.6,0.4-1,1-1h11.1c0.6,0,1,0.4,1,1v9    C227.4,11.9,226.9,12.4,226.4,12.4z"/>
		<path class="st1" d="M228.2,12.4h-14.8c-0.6,0-1-0.4-1-1v-1.1c0-0.6,0.4-1,1-1h14.8c0.6,0,1,0.4,1,1v1.1    C229.2,11.9,228.8,12.4,228.2,12.4z"/>
	</g>
	<g sector="Сектор А" row="7" seat="6">
		<path class="st1" d="M253.4,12.4h-11.1c-0.6,0-1-0.4-1-1v-9c0-0.6,0.4-1,1-1h11.1c0.6,0,1,0.4,1,1v9    C254.4,11.9,253.9,12.4,253.4,12.4z"/>
		<path class="st1" d="M255.2,12.4h-14.8c-0.6,0-1-0.4-1-1v-1.1c0-0.6,0.4-1,1-1h14.8c0.6,0,1,0.4,1,1v1.1    C256.2,11.9,255.8,12.4,255.2,12.4z"/>
	</g>
	<g sector="Сектор А" row="7" seat="7">
		<path class="st1" d="M280.4,12.4h-11.1c-0.6,0-1-0.4-1-1v-9c0-0.6,0.4-1,1-1h11.1c0.6,0,1,0.4,1,1v9    C281.4,11.9,280.9,12.4,280.4,12.4z"/>
		<path class="st1" d="M282.2,12.4h-14.8c-0.6,0-1-0.4-1-1v-1.1c0-0.6,0.4-1,1-1h14.8c0.6,0,1,0.4,1,1v1.1    C283.2,11.9,282.8,12.4,282.2,12.4z"/>
	</g>
	<g sector="Сектор А" row="7" seat="8">
		<path class="st1" d="M307.4,12.4h-11.1c-0.6,0-1-0.4-1-1v-9c0-0.6,0.4-1,1-1h11.1c0.6,0,1,0.4,1,1v9    C308.4,11.9,307.9,12.4,307.4,12.4z"/>
		<path class="st1" d="M309.2,12.4h-14.8c-0.6,0-1-0.4-1-1v-1.1c0-0.6,0.4-1,1-1h14.8c0.6,0,1,0.4,1,1v1.1    C310.2,11.9,309.8,12.4,309.2,12.4z"/>
	</g>
	<g sector="Сектор А" row="7" seat="9">
		<path class="st1" d="M333.4,12.4h-11.1c-0.6,0-1-0.4-1-1v-9c0-0.6,0.4-1,1-1h11.1c0.6,0,1,0.4,1,1v9    C334.4,11.9,333.9,12.4,333.4,12.4z"/>
		<path class="st1" d="M335.2,12.4h-14.8c-0.6,0-1-0.4-1-1v-1.1c0-0.6,0.4-1,1-1h14.8c0.6,0,1,0.4,1,1v1.1    C336.2,11.9,335.8,12.4,335.2,12.4z"/>
	</g>
	<g sector="Сектор А" row="7" seat="10">
		<path class="st1" d="M361.4,12.4h-11.1c-0.6,0-1-0.4-1-1v-9c0-0.6,0.4-1,1-1h11.1c0.6,0,1,0.4,1,1v9    C362.4,11.9,361.9,12.4,361.4,12.4z"/>
		<path class="st1" d="M363.2,12.4h-14.8c-0.6,0-1-0.4-1-1v-1.1c0-0.6,0.4-1,1-1h14.8c0.6,0,1,0.4,1,1v1.1    C364.2,11.9,363.8,12.4,363.2,12.4z"/>
	</g>
	<g sector="Сектор А" row="7" seat="11">
		<path class="st1" d="M387.4,12.4h-11.1c-0.6,0-1-0.4-1-1v-9c0-0.6,0.4-1,1-1h11.1c0.6,0,1,0.4,1,1v9    C388.4,11.9,387.9,12.4,387.4,12.4z"/>
		<path class="st1" d="M389.2,12.4h-14.8c-0.6,0-1-0.4-1-1v-1.1c0-0.6,0.4-1,1-1h14.8c0.6,0,1,0.4,1,1v1.1    C390.2,11.9,389.8,12.4,389.2,12.4z"/>
	</g>
	<g sector="Сектор А" row="7" seat="12">
		<path class="st1" d="M414.4,12.4h-11.1c-0.6,0-1-0.4-1-1v-9c0-0.6,0.4-1,1-1h11.1c0.6,0,1,0.4,1,1v9    C415.4,11.9,414.9,12.4,414.4,12.4z"/>
		<path class="st1" d="M416.2,12.4h-14.8c-0.6,0-1-0.4-1-1v-1.1c0-0.6,0.4-1,1-1h14.8c0.6,0,1,0.4,1,1v1.1    C417.2,11.9,416.8,12.4,416.2,12.4z"/>
	</g>
	<g sector="Сектор А" row="7" seat="13">
		<path class="st1" d="M441.4,12.4h-11.1c-0.6,0-1-0.4-1-1v-9c0-0.6,0.4-1,1-1h11.1c0.6,0,1,0.4,1,1v9    C442.4,11.9,441.9,12.4,441.4,12.4z"/>
		<path class="st1" d="M443.2,12.4h-14.8c-0.6,0-1-0.4-1-1v-1.1c0-0.6,0.4-1,1-1h14.8c0.6,0,1,0.4,1,1v1.1    C444.2,11.9,443.8,12.4,443.2,12.4z"/>
	</g>
	<g sector="Сектор А" row="7" seat="14">
		<path class="st1" d="M468.4,12.4h-11.1c-0.6,0-1-0.4-1-1v-9c0-0.6,0.4-1,1-1h11.1c0.6,0,1,0.4,1,1v9    C469.4,11.9,468.9,12.4,468.4,12.4z"/>
		<path class="st1" d="M470.2,12.4h-14.8c-0.6,0-1-0.4-1-1v-1.1c0-0.6,0.4-1,1-1h14.8c0.6,0,1,0.4,1,1v1.1    C471.2,11.9,470.8,12.4,470.2,12.4z"/>
	</g>
	<g sector="Сектор А" row="7" seat="15">
		<path class="st1" d="M495.4,12.4h-11.1c-0.6,0-1-0.4-1-1v-9c0-0.6,0.4-1,1-1h11.1c0.6,0,1,0.4,1,1v9    C496.4,11.9,495.9,12.4,495.4,12.4z"/>
		<path class="st1" d="M497.2,12.4h-14.8c-0.6,0-1-0.4-1-1v-1.1c0-0.6,0.4-1,1-1h14.8c0.6,0,1,0.4,1,1v1.1    C498.2,11.9,497.8,12.4,497.2,12.4z"/>
	</g>
	<g sector="Сектор А" row="7" seat="16">
		<path class="st1" d="M522.4,12.4h-11.1c-0.6,0-1-0.4-1-1v-9c0-0.6,0.4-1,1-1h11.1c0.6,0,1,0.4,1,1v9    C523.4,11.9,522.9,12.4,522.4,12.4z"/>
		<path class="st1" d="M524.2,12.4h-14.8c-0.6,0-1-0.4-1-1v-1.1c0-0.6,0.4-1,1-1h14.8c0.6,0,1,0.4,1,1v1.1    C525.2,11.9,524.8,12.4,524.2,12.4z"/>
	</g>
	<g sector="Сектор А" row="7" seat="17">
		<path class="st1" d="M549.4,12.4h-11.1c-0.6,0-1-0.4-1-1v-9c0-0.6,0.4-1,1-1h11.1c0.6,0,1,0.4,1,1v9    C550.4,11.9,549.9,12.4,549.4,12.4z"/>
		<path class="st1" d="M551.2,12.4h-14.8c-0.6,0-1-0.4-1-1v-1.1c0-0.6,0.4-1,1-1h14.8c0.6,0,1,0.4,1,1v1.1    C552.2,11.9,551.8,12.4,551.2,12.4z"/>
	</g>
	<g sector="Сектор А" row="7" seat="18">
		<path class="st1" d="M576.4,12.4h-11.1c-0.6,0-1-0.4-1-1v-9c0-0.6,0.4-1,1-1h11.1c0.6,0,1,0.4,1,1v9    C577.4,11.9,576.9,12.4,576.4,12.4z"/>
		<path class="st1" d="M578.2,12.4h-14.8c-0.6,0-1-0.4-1-1v-1.1c0-0.6,0.4-1,1-1h14.8c0.6,0,1,0.4,1,1v1.1    C579.2,11.9,578.8,12.4,578.2,12.4z"/>
	</g>
	<g sector="Сектор А" row="7" seat="19">
		<path class="st1" d="M603.4,12.4h-11.1c-0.6,0-1-0.4-1-1v-9c0-0.6,0.4-1,1-1h11.1c0.6,0,1,0.4,1,1v9    C604.4,11.9,603.9,12.4,603.4,12.4z"/>
		<path class="st1" d="M605.2,12.4h-14.8c-0.6,0-1-0.4-1-1v-1.1c0-0.6,0.4-1,1-1h14.8c0.6,0,1,0.4,1,1v1.1    C606.2,11.9,605.8,12.4,605.2,12.4z"/>
	</g>
	<g sector="Сектор А" row="7" seat="20">
		<path class="st1" d="M630.4,12.4h-11.1c-0.6,0-1-0.4-1-1v-9c0-0.6,0.4-1,1-1h11.1c0.6,0,1,0.4,1,1v9    C631.4,11.9,630.9,12.4,630.4,12.4z"/>
		<path class="st1" d="M632.2,12.4h-14.8c-0.6,0-1-0.4-1-1v-1.1c0-0.6,0.4-1,1-1h14.8c0.6,0,1,0.4,1,1v1.1    C633.2,11.9,632.8,12.4,632.2,12.4z"/>
	</g>
</g>
<g sector="Сектор А" row="6">
	<g sector="Сектор А" row="6" seat="1">
		<path class="st1" d="M118.4,41.4h-11.1c-0.6,0-1-0.4-1-1v-9c0-0.6,0.4-1,1-1h11.1c0.6,0,1,0.4,1,1v9    C119.4,40.9,118.9,41.4,118.4,41.4z"/>
		<path class="st1" d="M120.2,41.4h-14.8c-0.6,0-1-0.4-1-1v-1.1c0-0.6,0.4-1,1-1h14.8c0.6,0,1,0.4,1,1v1.1    C121.2,40.9,120.8,41.4,120.2,41.4z"/>
	</g>
	<g sector="Сектор А" row="6" seat="2">
		<path class="st1" d="M145.4,41.4h-11.1c-0.6,0-1-0.4-1-1v-9c0-0.6,0.4-1,1-1h11.1c0.6,0,1,0.4,1,1v9    C146.4,40.9,145.9,41.4,145.4,41.4z"/>
		<path class="st1" d="M147.2,41.4h-14.8c-0.6,0-1-0.4-1-1v-1.1c0-0.6,0.4-1,1-1h14.8c0.6,0,1,0.4,1,1v1.1    C148.2,40.9,147.8,41.4,147.2,41.4z"/>
	</g>
	<g sector="Сектор А" row="6" seat="3">
		<path class="st1" d="M172.4,41.4h-11.1c-0.6,0-1-0.4-1-1v-9c0-0.6,0.4-1,1-1h11.1c0.6,0,1,0.4,1,1v9    C173.4,40.9,172.9,41.4,172.4,41.4z"/>
		<path class="st1" d="M174.2,41.4h-14.8c-0.6,0-1-0.4-1-1v-1.1c0-0.6,0.4-1,1-1h14.8c0.6,0,1,0.4,1,1v1.1    C175.2,40.9,174.8,41.4,174.2,41.4z"/>
	</g>
	<g sector="Сектор А" row="6" seat="4">
		<path class="st1" d="M199.4,41.4h-11.1c-0.6,0-1-0.4-1-1v-9c0-0.6,0.4-1,1-1h11.1c0.6,0,1,0.4,1,1v9    C200.4,40.9,199.9,41.4,199.4,41.4z"/>
		<path class="st1" d="M201.2,41.4h-14.8c-0.6,0-1-0.4-1-1v-1.1c0-0.6,0.4-1,1-1h14.8c0.6,0,1,0.4,1,1v1.1    C202.2,40.9,201.8,41.4,201.2,41.4z"/>
	</g>
	<g sector="Сектор А" row="6" seat="5">
		<path class="st1" d="M226.4,41.4h-11.1c-0.6,0-1-0.4-1-1v-9c0-0.6,0.4-1,1-1h11.1c0.6,0,1,0.4,1,1v9    C227.4,40.9,226.9,41.4,226.4,41.4z"/>
		<path class="st1" d="M228.2,41.4h-14.8c-0.6,0-1-0.4-1-1v-1.1c0-0.6,0.4-1,1-1h14.8c0.6,0,1,0.4,1,1v1.1    C229.2,40.9,228.8,41.4,228.2,41.4z"/>
	</g>
	<g sector="Сектор А" row="6" seat="6">
		<path class="st1" d="M253.4,41.4h-11.1c-0.6,0-1-0.4-1-1v-9c0-0.6,0.4-1,1-1h11.1c0.6,0,1,0.4,1,1v9    C254.4,40.9,253.9,41.4,253.4,41.4z"/>
		<path class="st1" d="M255.2,41.4h-14.8c-0.6,0-1-0.4-1-1v-1.1c0-0.6,0.4-1,1-1h14.8c0.6,0,1,0.4,1,1v1.1    C256.2,40.9,255.8,41.4,255.2,41.4z"/>
	</g>
	<g sector="Сектор А" row="6" seat="7">
		<path class="st1" d="M280.4,41.4h-11.1c-0.6,0-1-0.4-1-1v-9c0-0.6,0.4-1,1-1h11.1c0.6,0,1,0.4,1,1v9    C281.4,40.9,280.9,41.4,280.4,41.4z"/>
		<path class="st1" d="M282.2,41.4h-14.8c-0.6,0-1-0.4-1-1v-1.1c0-0.6,0.4-1,1-1h14.8c0.6,0,1,0.4,1,1v1.1    C283.2,40.9,282.8,41.4,282.2,41.4z"/>
	</g>
	<g sector="Сектор А" row="6" seat="8">
		<path class="st1" d="M307.4,41.4h-11.1c-0.6,0-1-0.4-1-1v-9c0-0.6,0.4-1,1-1h11.1c0.6,0,1,0.4,1,1v9    C308.4,40.9,307.9,41.4,307.4,41.4z"/>
		<path class="st1" d="M309.2,41.4h-14.8c-0.6,0-1-0.4-1-1v-1.1c0-0.6,0.4-1,1-1h14.8c0.6,0,1,0.4,1,1v1.1    C310.2,40.9,309.8,41.4,309.2,41.4z"/>
	</g>
	<g sector="Сектор А" row="6" seat="9">
		<path class="st1" d="M333.4,41.4h-11.1c-0.6,0-1-0.4-1-1v-9c0-0.6,0.4-1,1-1h11.1c0.6,0,1,0.4,1,1v9    C334.4,40.9,333.9,41.4,333.4,41.4z"/>
		<path class="st1" d="M335.2,41.4h-14.8c-0.6,0-1-0.4-1-1v-1.1c0-0.6,0.4-1,1-1h14.8c0.6,0,1,0.4,1,1v1.1    C336.2,40.9,335.8,41.4,335.2,41.4z"/>
	</g>
	<g sector="Сектор А" row="6" seat="10">
		<path class="st1" d="M361.4,41.4h-11.1c-0.6,0-1-0.4-1-1v-9c0-0.6,0.4-1,1-1h11.1c0.6,0,1,0.4,1,1v9    C362.4,40.9,361.9,41.4,361.4,41.4z"/>
		<path class="st1" d="M363.2,41.4h-14.8c-0.6,0-1-0.4-1-1v-1.1c0-0.6,0.4-1,1-1h14.8c0.6,0,1,0.4,1,1v1.1    C364.2,40.9,363.8,41.4,363.2,41.4z"/>
	</g>
	<g sector="Сектор А" row="6" seat="11">
		<path class="st1" d="M387.4,41.4h-11.1c-0.6,0-1-0.4-1-1v-9c0-0.6,0.4-1,1-1h11.1c0.6,0,1,0.4,1,1v9    C388.4,40.9,387.9,41.4,387.4,41.4z"/>
		<path class="st1" d="M389.2,41.4h-14.8c-0.6,0-1-0.4-1-1v-1.1c0-0.6,0.4-1,1-1h14.8c0.6,0,1,0.4,1,1v1.1    C390.2,40.9,389.8,41.4,389.2,41.4z"/>
	</g>
	<g sector="Сектор А" row="6" seat="12">
		<path class="st1" d="M414.4,41.4h-11.1c-0.6,0-1-0.4-1-1v-9c0-0.6,0.4-1,1-1h11.1c0.6,0,1,0.4,1,1v9    C415.4,40.9,414.9,41.4,414.4,41.4z"/>
		<path class="st1" d="M416.2,41.4h-14.8c-0.6,0-1-0.4-1-1v-1.1c0-0.6,0.4-1,1-1h14.8c0.6,0,1,0.4,1,1v1.1    C417.2,40.9,416.8,41.4,416.2,41.4z"/>
	</g>
	<g sector="Сектор А" row="6" seat="13">
		<path class="st1" d="M441.4,41.4h-11.1c-0.6,0-1-0.4-1-1v-9c0-0.6,0.4-1,1-1h11.1c0.6,0,1,0.4,1,1v9    C442.4,40.9,441.9,41.4,441.4,41.4z"/>
		<path class="st1" d="M443.2,41.4h-14.8c-0.6,0-1-0.4-1-1v-1.1c0-0.6,0.4-1,1-1h14.8c0.6,0,1,0.4,1,1v1.1    C444.2,40.9,443.8,41.4,443.2,41.4z"/>
	</g>
	<g sector="Сектор А" row="6" seat="14">
		<path class="st1" d="M468.4,41.4h-11.1c-0.6,0-1-0.4-1-1v-9c0-0.6,0.4-1,1-1h11.1c0.6,0,1,0.4,1,1v9    C469.4,40.9,468.9,41.4,468.4,41.4z"/>
		<path class="st1" d="M470.2,41.4h-14.8c-0.6,0-1-0.4-1-1v-1.1c0-0.6,0.4-1,1-1h14.8c0.6,0,1,0.4,1,1v1.1    C471.2,40.9,470.8,41.4,470.2,41.4z"/>
	</g>
	<g sector="Сектор А" row="6" seat="15">
		<path class="st1" d="M495.4,41.4h-11.1c-0.6,0-1-0.4-1-1v-9c0-0.6,0.4-1,1-1h11.1c0.6,0,1,0.4,1,1v9    C496.4,40.9,495.9,41.4,495.4,41.4z"/>
		<path class="st1" d="M497.2,41.4h-14.8c-0.6,0-1-0.4-1-1v-1.1c0-0.6,0.4-1,1-1h14.8c0.6,0,1,0.4,1,1v1.1    C498.2,40.9,497.8,41.4,497.2,41.4z"/>
	</g>
	<g sector="Сектор А" row="6" seat="16">
		<path class="st1" d="M522.4,41.4h-11.1c-0.6,0-1-0.4-1-1v-9c0-0.6,0.4-1,1-1h11.1c0.6,0,1,0.4,1,1v9    C523.4,40.9,522.9,41.4,522.4,41.4z"/>
		<path class="st1" d="M524.2,41.4h-14.8c-0.6,0-1-0.4-1-1v-1.1c0-0.6,0.4-1,1-1h14.8c0.6,0,1,0.4,1,1v1.1    C525.2,40.9,524.8,41.4,524.2,41.4z"/>
	</g>
	<g sector="Сектор А" row="6" seat="17">
		<path class="st1" d="M549.4,41.4h-11.1c-0.6,0-1-0.4-1-1v-9c0-0.6,0.4-1,1-1h11.1c0.6,0,1,0.4,1,1v9    C550.4,40.9,549.9,41.4,549.4,41.4z"/>
		<path class="st1" d="M551.2,41.4h-14.8c-0.6,0-1-0.4-1-1v-1.1c0-0.6,0.4-1,1-1h14.8c0.6,0,1,0.4,1,1v1.1    C552.2,40.9,551.8,41.4,551.2,41.4z"/>
	</g>
	<g sector="Сектор А" row="6" seat="18">
		<path class="st1" d="M576.4,41.4h-11.1c-0.6,0-1-0.4-1-1v-9c0-0.6,0.4-1,1-1h11.1c0.6,0,1,0.4,1,1v9    C577.4,40.9,576.9,41.4,576.4,41.4z"/>
		<path class="st1" d="M578.2,41.4h-14.8c-0.6,0-1-0.4-1-1v-1.1c0-0.6,0.4-1,1-1h14.8c0.6,0,1,0.4,1,1v1.1    C579.2,40.9,578.8,41.4,578.2,41.4z"/>
	</g>
	<g sector="Сектор А" row="6" seat="19">
		<path class="st1" d="M603.4,41.4h-11.1c-0.6,0-1-0.4-1-1v-9c0-0.6,0.4-1,1-1h11.1c0.6,0,1,0.4,1,1v9    C604.4,40.9,603.9,41.4,603.4,41.4z"/>
		<path class="st1" d="M605.2,41.4h-14.8c-0.6,0-1-0.4-1-1v-1.1c0-0.6,0.4-1,1-1h14.8c0.6,0,1,0.4,1,1v1.1    C606.2,40.9,605.8,41.4,605.2,41.4z"/>
	</g>
	<g sector="Сектор А" row="6" seat="20">
		<path class="st1" d="M630.4,41.4h-11.1c-0.6,0-1-0.4-1-1v-9c0-0.6,0.4-1,1-1h11.1c0.6,0,1,0.4,1,1v9    C631.4,40.9,630.9,41.4,630.4,41.4z"/>
		<path class="st1" d="M632.2,41.4h-14.8c-0.6,0-1-0.4-1-1v-1.1c0-0.6,0.4-1,1-1h14.8c0.6,0,1,0.4,1,1v1.1    C633.2,40.9,632.8,41.4,632.2,41.4z"/>
	</g>
</g>
<g sector="Сектор А" row="5">
	<g sector="Сектор А" row="5" seat="1">
		<path class="st1" d="M118.4,71.4h-11.1c-0.6,0-1-0.4-1-1v-9c0-0.6,0.4-1,1-1h11.1c0.6,0,1,0.4,1,1v9    C119.4,70.9,118.9,71.4,118.4,71.4z"/>
		<path class="st1" d="M120.2,71.4h-14.8c-0.6,0-1-0.4-1-1v-1.1c0-0.6,0.4-1,1-1h14.8c0.6,0,1,0.4,1,1v1.1    C121.2,70.9,120.8,71.4,120.2,71.4z"/>
	</g>
	<g sector="Сектор А" row="5" seat="2">
		<path class="st1" d="M145.4,71.4h-11.1c-0.6,0-1-0.4-1-1v-9c0-0.6,0.4-1,1-1h11.1c0.6,0,1,0.4,1,1v9    C146.4,70.9,145.9,71.4,145.4,71.4z"/>
		<path class="st1" d="M147.2,71.4h-14.8c-0.6,0-1-0.4-1-1v-1.1c0-0.6,0.4-1,1-1h14.8c0.6,0,1,0.4,1,1v1.1    C148.2,70.9,147.8,71.4,147.2,71.4z"/>
	</g>
	<g sector="Сектор А" row="5" seat="3">
		<path class="st1" d="M172.4,71.4h-11.1c-0.6,0-1-0.4-1-1v-9c0-0.6,0.4-1,1-1h11.1c0.6,0,1,0.4,1,1v9    C173.4,70.9,172.9,71.4,172.4,71.4z"/>
		<path class="st1" d="M174.2,71.4h-14.8c-0.6,0-1-0.4-1-1v-1.1c0-0.6,0.4-1,1-1h14.8c0.6,0,1,0.4,1,1v1.1    C175.2,70.9,174.8,71.4,174.2,71.4z"/>
	</g>
	<g sector="Сектор А" row="5" seat="4">
		<path class="st1" d="M199.4,71.4h-11.1c-0.6,0-1-0.4-1-1v-9c0-0.6,0.4-1,1-1h11.1c0.6,0,1,0.4,1,1v9    C200.4,70.9,199.9,71.4,199.4,71.4z"/>
		<path class="st1" d="M201.2,71.4h-14.8c-0.6,0-1-0.4-1-1v-1.1c0-0.6,0.4-1,1-1h14.8c0.6,0,1,0.4,1,1v1.1    C202.2,70.9,201.8,71.4,201.2,71.4z"/>
	</g>
	<g sector="Сектор А" row="5" seat="5">
		<path class="st1" d="M226.4,71.4h-11.1c-0.6,0-1-0.4-1-1v-9c0-0.6,0.4-1,1-1h11.1c0.6,0,1,0.4,1,1v9    C227.4,70.9,226.9,71.4,226.4,71.4z"/>
		<path class="st1" d="M228.2,71.4h-14.8c-0.6,0-1-0.4-1-1v-1.1c0-0.6,0.4-1,1-1h14.8c0.6,0,1,0.4,1,1v1.1    C229.2,70.9,228.8,71.4,228.2,71.4z"/>
	</g>
	<g sector="Сектор А" row="5" seat="6">
		<path class="st1" d="M253.4,71.4h-11.1c-0.6,0-1-0.4-1-1v-9c0-0.6,0.4-1,1-1h11.1c0.6,0,1,0.4,1,1v9    C254.4,70.9,253.9,71.4,253.4,71.4z"/>
		<path class="st1" d="M255.2,71.4h-14.8c-0.6,0-1-0.4-1-1v-1.1c0-0.6,0.4-1,1-1h14.8c0.6,0,1,0.4,1,1v1.1    C256.2,70.9,255.8,71.4,255.2,71.4z"/>
	</g>
	<g sector="Сектор А" row="5" seat="7">
		<path class="st1" d="M280.4,71.4h-11.1c-0.6,0-1-0.4-1-1v-9c0-0.6,0.4-1,1-1h11.1c0.6,0,1,0.4,1,1v9    C281.4,70.9,280.9,71.4,280.4,71.4z"/>
		<path class="st1" d="M282.2,71.4h-14.8c-0.6,0-1-0.4-1-1v-1.1c0-0.6,0.4-1,1-1h14.8c0.6,0,1,0.4,1,1v1.1    C283.2,70.9,282.8,71.4,282.2,71.4z"/>
	</g>
	<g sector="Сектор А" row="5" seat="8">
		<path class="st1" d="M307.4,71.4h-11.1c-0.6,0-1-0.4-1-1v-9c0-0.6,0.4-1,1-1h11.1c0.6,0,1,0.4,1,1v9    C308.4,70.9,307.9,71.4,307.4,71.4z"/>
		<path class="st1" d="M309.2,71.4h-14.8c-0.6,0-1-0.4-1-1v-1.1c0-0.6,0.4-1,1-1h14.8c0.6,0,1,0.4,1,1v1.1    C310.2,70.9,309.8,71.4,309.2,71.4z"/>
	</g>
	<g sector="Сектор А" row="5" seat="9">
		<path class="st1" d="M333.4,71.4h-11.1c-0.6,0-1-0.4-1-1v-9c0-0.6,0.4-1,1-1h11.1c0.6,0,1,0.4,1,1v9    C334.4,70.9,333.9,71.4,333.4,71.4z"/>
		<path class="st1" d="M335.2,71.4h-14.8c-0.6,0-1-0.4-1-1v-1.1c0-0.6,0.4-1,1-1h14.8c0.6,0,1,0.4,1,1v1.1    C336.2,70.9,335.8,71.4,335.2,71.4z"/>
	</g>
	<g sector="Сектор А" row="5" seat="10">
		<path class="st1" d="M361.4,71.4h-11.1c-0.6,0-1-0.4-1-1v-9c0-0.6,0.4-1,1-1h11.1c0.6,0,1,0.4,1,1v9    C362.4,70.9,361.9,71.4,361.4,71.4z"/>
		<path class="st1" d="M363.2,71.4h-14.8c-0.6,0-1-0.4-1-1v-1.1c0-0.6,0.4-1,1-1h14.8c0.6,0,1,0.4,1,1v1.1    C364.2,70.9,363.8,71.4,363.2,71.4z"/>
	</g>
	<g sector="Сектор А" row="5" seat="11">
		<path class="st1" d="M387.4,71.4h-11.1c-0.6,0-1-0.4-1-1v-9c0-0.6,0.4-1,1-1h11.1c0.6,0,1,0.4,1,1v9    C388.4,70.9,387.9,71.4,387.4,71.4z"/>
		<path class="st1" d="M389.2,71.4h-14.8c-0.6,0-1-0.4-1-1v-1.1c0-0.6,0.4-1,1-1h14.8c0.6,0,1,0.4,1,1v1.1    C390.2,70.9,389.8,71.4,389.2,71.4z"/>
	</g>
	<g sector="Сектор А" row="5" seat="12">
		<path class="st1" d="M414.4,71.4h-11.1c-0.6,0-1-0.4-1-1v-9c0-0.6,0.4-1,1-1h11.1c0.6,0,1,0.4,1,1v9    C415.4,70.9,414.9,71.4,414.4,71.4z"/>
		<path class="st1" d="M416.2,71.4h-14.8c-0.6,0-1-0.4-1-1v-1.1c0-0.6,0.4-1,1-1h14.8c0.6,0,1,0.4,1,1v1.1    C417.2,70.9,416.8,71.4,416.2,71.4z"/>
	</g>
	<g sector="Сектор А" row="5" seat="13">
		<path class="st1" d="M441.4,71.4h-11.1c-0.6,0-1-0.4-1-1v-9c0-0.6,0.4-1,1-1h11.1c0.6,0,1,0.4,1,1v9    C442.4,70.9,441.9,71.4,441.4,71.4z"/>
		<path class="st1" d="M443.2,71.4h-14.8c-0.6,0-1-0.4-1-1v-1.1c0-0.6,0.4-1,1-1h14.8c0.6,0,1,0.4,1,1v1.1    C444.2,70.9,443.8,71.4,443.2,71.4z"/>
	</g>
	<g sector="Сектор А" row="5" seat="14">
		<path class="st1" d="M468.4,71.4h-11.1c-0.6,0-1-0.4-1-1v-9c0-0.6,0.4-1,1-1h11.1c0.6,0,1,0.4,1,1v9    C469.4,70.9,468.9,71.4,468.4,71.4z"/>
		<path class="st1" d="M470.2,71.4h-14.8c-0.6,0-1-0.4-1-1v-1.1c0-0.6,0.4-1,1-1h14.8c0.6,0,1,0.4,1,1v1.1    C471.2,70.9,470.8,71.4,470.2,71.4z"/>
	</g>
	<g sector="Сектор А" row="5" seat="15">
		<path class="st1" d="M495.4,71.4h-11.1c-0.6,0-1-0.4-1-1v-9c0-0.6,0.4-1,1-1h11.1c0.6,0,1,0.4,1,1v9    C496.4,70.9,495.9,71.4,495.4,71.4z"/>
		<path class="st1" d="M497.2,71.4h-14.8c-0.6,0-1-0.4-1-1v-1.1c0-0.6,0.4-1,1-1h14.8c0.6,0,1,0.4,1,1v1.1    C498.2,70.9,497.8,71.4,497.2,71.4z"/>
	</g>
	<g sector="Сектор А" row="5" seat="16">
		<path class="st1" d="M522.4,71.4h-11.1c-0.6,0-1-0.4-1-1v-9c0-0.6,0.4-1,1-1h11.1c0.6,0,1,0.4,1,1v9    C523.4,70.9,522.9,71.4,522.4,71.4z"/>
		<path class="st1" d="M524.2,71.4h-14.8c-0.6,0-1-0.4-1-1v-1.1c0-0.6,0.4-1,1-1h14.8c0.6,0,1,0.4,1,1v1.1    C525.2,70.9,524.8,71.4,524.2,71.4z"/>
	</g>
	<g sector="Сектор А" row="5" seat="17">
		<path class="st1" d="M549.4,71.4h-11.1c-0.6,0-1-0.4-1-1v-9c0-0.6,0.4-1,1-1h11.1c0.6,0,1,0.4,1,1v9    C550.4,70.9,549.9,71.4,549.4,71.4z"/>
		<path class="st1" d="M551.2,71.4h-14.8c-0.6,0-1-0.4-1-1v-1.1c0-0.6,0.4-1,1-1h14.8c0.6,0,1,0.4,1,1v1.1    C552.2,70.9,551.8,71.4,551.2,71.4z"/>
	</g>
	<g sector="Сектор А" row="5" seat="18">
		<path class="st1" d="M576.4,71.4h-11.1c-0.6,0-1-0.4-1-1v-9c0-0.6,0.4-1,1-1h11.1c0.6,0,1,0.4,1,1v9    C577.4,70.9,576.9,71.4,576.4,71.4z"/>
		<path class="st1" d="M578.2,71.4h-14.8c-0.6,0-1-0.4-1-1v-1.1c0-0.6,0.4-1,1-1h14.8c0.6,0,1,0.4,1,1v1.1    C579.2,70.9,578.8,71.4,578.2,71.4z"/>
	</g>
	<g sector="Сектор А" row="5" seat="19">
		<path class="st1" d="M603.4,71.4h-11.1c-0.6,0-1-0.4-1-1v-9c0-0.6,0.4-1,1-1h11.1c0.6,0,1,0.4,1,1v9    C604.4,70.9,603.9,71.4,603.4,71.4z"/>
		<path class="st1" d="M605.2,71.4h-14.8c-0.6,0-1-0.4-1-1v-1.1c0-0.6,0.4-1,1-1h14.8c0.6,0,1,0.4,1,1v1.1    C606.2,70.9,605.8,71.4,605.2,71.4z"/>
	</g>
	<g sector="Сектор А" row="5" seat="20">
		<path class="st1" d="M630.4,71.4h-11.1c-0.6,0-1-0.4-1-1v-9c0-0.6,0.4-1,1-1h11.1c0.6,0,1,0.4,1,1v9    C631.4,70.9,630.9,71.4,630.4,71.4z"/>
		<path class="st1" d="M632.2,71.4h-14.8c-0.6,0-1-0.4-1-1v-1.1c0-0.6,0.4-1,1-1h14.8c0.6,0,1,0.4,1,1v1.1    C633.2,70.9,632.8,71.4,632.2,71.4z"/>
	</g>
</g>
<g sector="Сектор А" row="4">
	<g sector="Сектор А" row="4" seat="1">
		<path class="st1" d="M118.4,101.4h-11.1c-0.6,0-1-0.4-1-1v-9c0-0.6,0.4-1,1-1h11.1c0.6,0,1,0.4,1,1v9    C119.4,100.9,118.9,101.4,118.4,101.4z"/>
		<path class="st1" d="M120.2,101.4h-14.8c-0.6,0-1-0.4-1-1v-1.1c0-0.6,0.4-1,1-1h14.8c0.6,0,1,0.4,1,1v1.1    C121.2,100.9,120.8,101.4,120.2,101.4z"/>
	</g>
	<g sector="Сектор А" row="4" seat="2">
		<path class="st1" d="M145.4,101.4h-11.1c-0.6,0-1-0.4-1-1v-9c0-0.6,0.4-1,1-1h11.1c0.6,0,1,0.4,1,1v9    C146.4,100.9,145.9,101.4,145.4,101.4z"/>
		<path class="st1" d="M147.2,101.4h-14.8c-0.6,0-1-0.4-1-1v-1.1c0-0.6,0.4-1,1-1h14.8c0.6,0,1,0.4,1,1v1.1    C148.2,100.9,147.8,101.4,147.2,101.4z"/>
	</g>
	<g sector="Сектор А" row="4" seat="3">
		<path class="st1" d="M172.4,101.4h-11.1c-0.6,0-1-0.4-1-1v-9c0-0.6,0.4-1,1-1h11.1c0.6,0,1,0.4,1,1v9    C173.4,100.9,172.9,101.4,172.4,101.4z"/>
		<path class="st1" d="M174.2,101.4h-14.8c-0.6,0-1-0.4-1-1v-1.1c0-0.6,0.4-1,1-1h14.8c0.6,0,1,0.4,1,1v1.1    C175.2,100.9,174.8,101.4,174.2,101.4z"/>
	</g>
	<g sector="Сектор А" row="4" seat="4">
		<path class="st1" d="M199.4,101.4h-11.1c-0.6,0-1-0.4-1-1v-9c0-0.6,0.4-1,1-1h11.1c0.6,0,1,0.4,1,1v9    C200.4,100.9,199.9,101.4,199.4,101.4z"/>
		<path class="st1" d="M201.2,101.4h-14.8c-0.6,0-1-0.4-1-1v-1.1c0-0.6,0.4-1,1-1h14.8c0.6,0,1,0.4,1,1v1.1    C202.2,100.9,201.8,101.4,201.2,101.4z"/>
	</g>
	<g sector="Сектор А" row="4" seat="5">
		<path class="st1" d="M226.4,101.4h-11.1c-0.6,0-1-0.4-1-1v-9c0-0.6,0.4-1,1-1h11.1c0.6,0,1,0.4,1,1v9    C227.4,100.9,226.9,101.4,226.4,101.4z"/>
		<path class="st1" d="M228.2,101.4h-14.8c-0.6,0-1-0.4-1-1v-1.1c0-0.6,0.4-1,1-1h14.8c0.6,0,1,0.4,1,1v1.1    C229.2,100.9,228.8,101.4,228.2,101.4z"/>
	</g>
	<g sector="Сектор А" row="4" seat="6">
		<path class="st1" d="M253.4,101.4h-11.1c-0.6,0-1-0.4-1-1v-9c0-0.6,0.4-1,1-1h11.1c0.6,0,1,0.4,1,1v9    C254.4,100.9,253.9,101.4,253.4,101.4z"/>
		<path class="st1" d="M255.2,101.4h-14.8c-0.6,0-1-0.4-1-1v-1.1c0-0.6,0.4-1,1-1h14.8c0.6,0,1,0.4,1,1v1.1    C256.2,100.9,255.8,101.4,255.2,101.4z"/>
	</g>
	<g sector="Сектор А" row="4" seat="7">
		<path class="st1" d="M280.4,101.4h-11.1c-0.6,0-1-0.4-1-1v-9c0-0.6,0.4-1,1-1h11.1c0.6,0,1,0.4,1,1v9    C281.4,100.9,280.9,101.4,280.4,101.4z"/>
		<path class="st1" d="M282.2,101.4h-14.8c-0.6,0-1-0.4-1-1v-1.1c0-0.6,0.4-1,1-1h14.8c0.6,0,1,0.4,1,1v1.1    C283.2,100.9,282.8,101.4,282.2,101.4z"/>
	</g>
	<g sector="Сектор А" row="4" seat="8">
		<path class="st1" d="M307.4,101.4h-11.1c-0.6,0-1-0.4-1-1v-9c0-0.6,0.4-1,1-1h11.1c0.6,0,1,0.4,1,1v9    C308.4,100.9,307.9,101.4,307.4,101.4z"/>
		<path class="st1" d="M309.2,101.4h-14.8c-0.6,0-1-0.4-1-1v-1.1c0-0.6,0.4-1,1-1h14.8c0.6,0,1,0.4,1,1v1.1    C310.2,100.9,309.8,101.4,309.2,101.4z"/>
	</g>
	<g sector="Сектор А" row="4" seat="9">
		<path class="st1" d="M333.4,101.4h-11.1c-0.6,0-1-0.4-1-1v-9c0-0.6,0.4-1,1-1h11.1c0.6,0,1,0.4,1,1v9    C334.4,100.9,333.9,101.4,333.4,101.4z"/>
		<path class="st1" d="M335.2,101.4h-14.8c-0.6,0-1-0.4-1-1v-1.1c0-0.6,0.4-1,1-1h14.8c0.6,0,1,0.4,1,1v1.1    C336.2,100.9,335.8,101.4,335.2,101.4z"/>
	</g>
	<g sector="Сектор А" row="4" seat="10">
		<path class="st1" d="M361.4,101.4h-11.1c-0.6,0-1-0.4-1-1v-9c0-0.6,0.4-1,1-1h11.1c0.6,0,1,0.4,1,1v9    C362.4,100.9,361.9,101.4,361.4,101.4z"/>
		<path class="st1" d="M363.2,101.4h-14.8c-0.6,0-1-0.4-1-1v-1.1c0-0.6,0.4-1,1-1h14.8c0.6,0,1,0.4,1,1v1.1    C364.2,100.9,363.8,101.4,363.2,101.4z"/>
	</g>
	<g sector="Сектор А" row="4" seat="11">
		<path class="st1" d="M387.4,101.4h-11.1c-0.6,0-1-0.4-1-1v-9c0-0.6,0.4-1,1-1h11.1c0.6,0,1,0.4,1,1v9    C388.4,100.9,387.9,101.4,387.4,101.4z"/>
		<path class="st1" d="M389.2,101.4h-14.8c-0.6,0-1-0.4-1-1v-1.1c0-0.6,0.4-1,1-1h14.8c0.6,0,1,0.4,1,1v1.1    C390.2,100.9,389.8,101.4,389.2,101.4z"/>
	</g>
	<g sector="Сектор А" row="4" seat="12">
		<path class="st1" d="M414.4,101.4h-11.1c-0.6,0-1-0.4-1-1v-9c0-0.6,0.4-1,1-1h11.1c0.6,0,1,0.4,1,1v9    C415.4,100.9,414.9,101.4,414.4,101.4z"/>
		<path class="st1" d="M416.2,101.4h-14.8c-0.6,0-1-0.4-1-1v-1.1c0-0.6,0.4-1,1-1h14.8c0.6,0,1,0.4,1,1v1.1    C417.2,100.9,416.8,101.4,416.2,101.4z"/>
	</g>
	<g sector="Сектор А" row="4" seat="13">
		<path class="st1" d="M441.4,101.4h-11.1c-0.6,0-1-0.4-1-1v-9c0-0.6,0.4-1,1-1h11.1c0.6,0,1,0.4,1,1v9    C442.4,100.9,441.9,101.4,441.4,101.4z"/>
		<path class="st1" d="M443.2,101.4h-14.8c-0.6,0-1-0.4-1-1v-1.1c0-0.6,0.4-1,1-1h14.8c0.6,0,1,0.4,1,1v1.1    C444.2,100.9,443.8,101.4,443.2,101.4z"/>
	</g>
	<g sector="Сектор А" row="4" seat="14">
		<path class="st1" d="M468.4,101.4h-11.1c-0.6,0-1-0.4-1-1v-9c0-0.6,0.4-1,1-1h11.1c0.6,0,1,0.4,1,1v9    C469.4,100.9,468.9,101.4,468.4,101.4z"/>
		<path class="st1" d="M470.2,101.4h-14.8c-0.6,0-1-0.4-1-1v-1.1c0-0.6,0.4-1,1-1h14.8c0.6,0,1,0.4,1,1v1.1    C471.2,100.9,470.8,101.4,470.2,101.4z"/>
	</g>
	<g sector="Сектор А" row="4" seat="15">
		<path class="st1" d="M495.4,101.4h-11.1c-0.6,0-1-0.4-1-1v-9c0-0.6,0.4-1,1-1h11.1c0.6,0,1,0.4,1,1v9    C496.4,100.9,495.9,101.4,495.4,101.4z"/>
		<path class="st1" d="M497.2,101.4h-14.8c-0.6,0-1-0.4-1-1v-1.1c0-0.6,0.4-1,1-1h14.8c0.6,0,1,0.4,1,1v1.1    C498.2,100.9,497.8,101.4,497.2,101.4z"/>
	</g>
	<g sector="Сектор А" row="4" seat="16">
		<path class="st1" d="M522.4,101.4h-11.1c-0.6,0-1-0.4-1-1v-9c0-0.6,0.4-1,1-1h11.1c0.6,0,1,0.4,1,1v9    C523.4,100.9,522.9,101.4,522.4,101.4z"/>
		<path class="st1" d="M524.2,101.4h-14.8c-0.6,0-1-0.4-1-1v-1.1c0-0.6,0.4-1,1-1h14.8c0.6,0,1,0.4,1,1v1.1    C525.2,100.9,524.8,101.4,524.2,101.4z"/>
	</g>
	<g sector="Сектор А" row="4" seat="17">
		<path class="st1" d="M549.4,101.4h-11.1c-0.6,0-1-0.4-1-1v-9c0-0.6,0.4-1,1-1h11.1c0.6,0,1,0.4,1,1v9    C550.4,100.9,549.9,101.4,549.4,101.4z"/>
		<path class="st1" d="M551.2,101.4h-14.8c-0.6,0-1-0.4-1-1v-1.1c0-0.6,0.4-1,1-1h14.8c0.6,0,1,0.4,1,1v1.1    C552.2,100.9,551.8,101.4,551.2,101.4z"/>
	</g>
	<g sector="Сектор А" row="4" seat="18">
		<path class="st1" d="M576.4,101.4h-11.1c-0.6,0-1-0.4-1-1v-9c0-0.6,0.4-1,1-1h11.1c0.6,0,1,0.4,1,1v9    C577.4,100.9,576.9,101.4,576.4,101.4z"/>
		<path class="st1" d="M578.2,101.4h-14.8c-0.6,0-1-0.4-1-1v-1.1c0-0.6,0.4-1,1-1h14.8c0.6,0,1,0.4,1,1v1.1    C579.2,100.9,578.8,101.4,578.2,101.4z"/>
	</g>
	<g sector="Сектор А" row="4" seat="19">
		<path class="st1" d="M603.4,101.4h-11.1c-0.6,0-1-0.4-1-1v-9c0-0.6,0.4-1,1-1h11.1c0.6,0,1,0.4,1,1v9    C604.4,100.9,603.9,101.4,603.4,101.4z"/>
		<path class="st1" d="M605.2,101.4h-14.8c-0.6,0-1-0.4-1-1v-1.1c0-0.6,0.4-1,1-1h14.8c0.6,0,1,0.4,1,1v1.1    C606.2,100.9,605.8,101.4,605.2,101.4z"/>
	</g>
	<g sector="Сектор А" row="4" seat="20">
		<path class="st1" d="M630.4,101.4h-11.1c-0.6,0-1-0.4-1-1v-9c0-0.6,0.4-1,1-1h11.1c0.6,0,1,0.4,1,1v9    C631.4,100.9,630.9,101.4,630.4,101.4z"/>
		<path class="st1" d="M632.2,101.4h-14.8c-0.6,0-1-0.4-1-1v-1.1c0-0.6,0.4-1,1-1h14.8c0.6,0,1,0.4,1,1v1.1    C633.2,100.9,632.8,101.4,632.2,101.4z"/>
	</g>
</g>
<g sector="Сектор А" row="3">
	<g sector="Сектор А" row="3" seat="1">
		<path class="st1" d="M118.4,131.4h-11.1c-0.6,0-1-0.4-1-1v-9c0-0.6,0.4-1,1-1h11.1c0.6,0,1,0.4,1,1v9    C119.4,130.9,118.9,131.4,118.4,131.4z"/>
		<path class="st1" d="M120.2,131.4h-14.8c-0.6,0-1-0.4-1-1v-1.1c0-0.6,0.4-1,1-1h14.8c0.6,0,1,0.4,1,1v1.1    C121.2,130.9,120.8,131.4,120.2,131.4z"/>
	</g>
	<g sector="Сектор А" row="3" seat="2">
		<path class="st1" d="M145.4,131.4h-11.1c-0.6,0-1-0.4-1-1v-9c0-0.6,0.4-1,1-1h11.1c0.6,0,1,0.4,1,1v9    C146.4,130.9,145.9,131.4,145.4,131.4z"/>
		<path class="st1" d="M147.2,131.4h-14.8c-0.6,0-1-0.4-1-1v-1.1c0-0.6,0.4-1,1-1h14.8c0.6,0,1,0.4,1,1v1.1    C148.2,130.9,147.8,131.4,147.2,131.4z"/>
	</g>
	<g sector="Сектор А" row="3" seat="3">
		<path class="st1" d="M172.4,131.4h-11.1c-0.6,0-1-0.4-1-1v-9c0-0.6,0.4-1,1-1h11.1c0.6,0,1,0.4,1,1v9    C173.4,130.9,172.9,131.4,172.4,131.4z"/>
		<path class="st1" d="M174.2,131.4h-14.8c-0.6,0-1-0.4-1-1v-1.1c0-0.6,0.4-1,1-1h14.8c0.6,0,1,0.4,1,1v1.1    C175.2,130.9,174.8,131.4,174.2,131.4z"/>
	</g>
	<g sector="Сектор А" row="3" seat="4">
		<path class="st1" d="M199.4,131.4h-11.1c-0.6,0-1-0.4-1-1v-9c0-0.6,0.4-1,1-1h11.1c0.6,0,1,0.4,1,1v9    C200.4,130.9,199.9,131.4,199.4,131.4z"/>
		<path class="st1" d="M201.2,131.4h-14.8c-0.6,0-1-0.4-1-1v-1.1c0-0.6,0.4-1,1-1h14.8c0.6,0,1,0.4,1,1v1.1    C202.2,130.9,201.8,131.4,201.2,131.4z"/>
	</g>
	<g sector="Сектор А" row="3" seat="5">
		<path class="st1" d="M226.4,131.4h-11.1c-0.6,0-1-0.4-1-1v-9c0-0.6,0.4-1,1-1h11.1c0.6,0,1,0.4,1,1v9    C227.4,130.9,226.9,131.4,226.4,131.4z"/>
		<path class="st1" d="M228.2,131.4h-14.8c-0.6,0-1-0.4-1-1v-1.1c0-0.6,0.4-1,1-1h14.8c0.6,0,1,0.4,1,1v1.1    C229.2,130.9,228.8,131.4,228.2,131.4z"/>
	</g>
	<g sector="Сектор А" row="3" seat="6">
		<path class="st1" d="M253.4,131.4h-11.1c-0.6,0-1-0.4-1-1v-9c0-0.6,0.4-1,1-1h11.1c0.6,0,1,0.4,1,1v9    C254.4,130.9,253.9,131.4,253.4,131.4z"/>
		<path class="st1" d="M255.2,131.4h-14.8c-0.6,0-1-0.4-1-1v-1.1c0-0.6,0.4-1,1-1h14.8c0.6,0,1,0.4,1,1v1.1    C256.2,130.9,255.8,131.4,255.2,131.4z"/>
	</g>
	<g sector="Сектор А" row="3" seat="7">
		<path class="st1" d="M280.4,131.4h-11.1c-0.6,0-1-0.4-1-1v-9c0-0.6,0.4-1,1-1h11.1c0.6,0,1,0.4,1,1v9    C281.4,130.9,280.9,131.4,280.4,131.4z"/>
		<path class="st1" d="M282.2,131.4h-14.8c-0.6,0-1-0.4-1-1v-1.1c0-0.6,0.4-1,1-1h14.8c0.6,0,1,0.4,1,1v1.1    C283.2,130.9,282.8,131.4,282.2,131.4z"/>
	</g>
	<g sector="Сектор А" row="3" seat="8">
		<path class="st1" d="M307.4,131.4h-11.1c-0.6,0-1-0.4-1-1v-9c0-0.6,0.4-1,1-1h11.1c0.6,0,1,0.4,1,1v9    C308.4,130.9,307.9,131.4,307.4,131.4z"/>
		<path class="st1" d="M309.2,131.4h-14.8c-0.6,0-1-0.4-1-1v-1.1c0-0.6,0.4-1,1-1h14.8c0.6,0,1,0.4,1,1v1.1    C310.2,130.9,309.8,131.4,309.2,131.4z"/>
	</g>
	<g sector="Сектор А" row="3" seat="9">
		<path class="st1" d="M333.4,131.4h-11.1c-0.6,0-1-0.4-1-1v-9c0-0.6,0.4-1,1-1h11.1c0.6,0,1,0.4,1,1v9    C334.4,130.9,333.9,131.4,333.4,131.4z"/>
		<path class="st1" d="M335.2,131.4h-14.8c-0.6,0-1-0.4-1-1v-1.1c0-0.6,0.4-1,1-1h14.8c0.6,0,1,0.4,1,1v1.1    C336.2,130.9,335.8,131.4,335.2,131.4z"/>
	</g>
	<g sector="Сектор А" row="3" seat="10">
		<path class="st1" d="M361.4,131.4h-11.1c-0.6,0-1-0.4-1-1v-9c0-0.6,0.4-1,1-1h11.1c0.6,0,1,0.4,1,1v9    C362.4,130.9,361.9,131.4,361.4,131.4z"/>
		<path class="st1" d="M363.2,131.4h-14.8c-0.6,0-1-0.4-1-1v-1.1c0-0.6,0.4-1,1-1h14.8c0.6,0,1,0.4,1,1v1.1    C364.2,130.9,363.8,131.4,363.2,131.4z"/>
	</g>
	<g sector="Сектор А" row="3" seat="11">
		<path class="st1" d="M387.4,131.4h-11.1c-0.6,0-1-0.4-1-1v-9c0-0.6,0.4-1,1-1h11.1c0.6,0,1,0.4,1,1v9    C388.4,130.9,387.9,131.4,387.4,131.4z"/>
		<path class="st1" d="M389.2,131.4h-14.8c-0.6,0-1-0.4-1-1v-1.1c0-0.6,0.4-1,1-1h14.8c0.6,0,1,0.4,1,1v1.1    C390.2,130.9,389.8,131.4,389.2,131.4z"/>
	</g>
	<g sector="Сектор А" row="3" seat="12">
		<path class="st1" d="M414.4,131.4h-11.1c-0.6,0-1-0.4-1-1v-9c0-0.6,0.4-1,1-1h11.1c0.6,0,1,0.4,1,1v9    C415.4,130.9,414.9,131.4,414.4,131.4z"/>
		<path class="st1" d="M416.2,131.4h-14.8c-0.6,0-1-0.4-1-1v-1.1c0-0.6,0.4-1,1-1h14.8c0.6,0,1,0.4,1,1v1.1    C417.2,130.9,416.8,131.4,416.2,131.4z"/>
	</g>
	<g sector="Сектор А" row="3" seat="13">
		<path class="st1" d="M441.4,131.4h-11.1c-0.6,0-1-0.4-1-1v-9c0-0.6,0.4-1,1-1h11.1c0.6,0,1,0.4,1,1v9    C442.4,130.9,441.9,131.4,441.4,131.4z"/>
		<path class="st1" d="M443.2,131.4h-14.8c-0.6,0-1-0.4-1-1v-1.1c0-0.6,0.4-1,1-1h14.8c0.6,0,1,0.4,1,1v1.1    C444.2,130.9,443.8,131.4,443.2,131.4z"/>
	</g>
	<g sector="Сектор А" row="3" seat="14">
		<path class="st1" d="M468.4,131.4h-11.1c-0.6,0-1-0.4-1-1v-9c0-0.6,0.4-1,1-1h11.1c0.6,0,1,0.4,1,1v9    C469.4,130.9,468.9,131.4,468.4,131.4z"/>
		<path class="st1" d="M470.2,131.4h-14.8c-0.6,0-1-0.4-1-1v-1.1c0-0.6,0.4-1,1-1h14.8c0.6,0,1,0.4,1,1v1.1    C471.2,130.9,470.8,131.4,470.2,131.4z"/>
	</g>
	<g sector="Сектор А" row="3" seat="15">
		<path class="st1" d="M495.4,131.4h-11.1c-0.6,0-1-0.4-1-1v-9c0-0.6,0.4-1,1-1h11.1c0.6,0,1,0.4,1,1v9    C496.4,130.9,495.9,131.4,495.4,131.4z"/>
		<path class="st1" d="M497.2,131.4h-14.8c-0.6,0-1-0.4-1-1v-1.1c0-0.6,0.4-1,1-1h14.8c0.6,0,1,0.4,1,1v1.1    C498.2,130.9,497.8,131.4,497.2,131.4z"/>
	</g>
	<g sector="Сектор А" row="3" seat="16">
		<path class="st1" d="M522.4,131.4h-11.1c-0.6,0-1-0.4-1-1v-9c0-0.6,0.4-1,1-1h11.1c0.6,0,1,0.4,1,1v9    C523.4,130.9,522.9,131.4,522.4,131.4z"/>
		<path class="st1" d="M524.2,131.4h-14.8c-0.6,0-1-0.4-1-1v-1.1c0-0.6,0.4-1,1-1h14.8c0.6,0,1,0.4,1,1v1.1    C525.2,130.9,524.8,131.4,524.2,131.4z"/>
	</g>
	<g sector="Сектор А" row="3" seat="17">
		<path class="st1" d="M549.4,131.4h-11.1c-0.6,0-1-0.4-1-1v-9c0-0.6,0.4-1,1-1h11.1c0.6,0,1,0.4,1,1v9    C550.4,130.9,549.9,131.4,549.4,131.4z"/>
		<path class="st1" d="M551.2,131.4h-14.8c-0.6,0-1-0.4-1-1v-1.1c0-0.6,0.4-1,1-1h14.8c0.6,0,1,0.4,1,1v1.1    C552.2,130.9,551.8,131.4,551.2,131.4z"/>
	</g>
	<g sector="Сектор А" row="3" seat="18">
		<path class="st1" d="M576.4,131.4h-11.1c-0.6,0-1-0.4-1-1v-9c0-0.6,0.4-1,1-1h11.1c0.6,0,1,0.4,1,1v9    C577.4,130.9,576.9,131.4,576.4,131.4z"/>
		<path class="st1" d="M578.2,131.4h-14.8c-0.6,0-1-0.4-1-1v-1.1c0-0.6,0.4-1,1-1h14.8c0.6,0,1,0.4,1,1v1.1    C579.2,130.9,578.8,131.4,578.2,131.4z"/>
	</g>
	<g sector="Сектор А" row="3" seat="19">
		<path class="st1" d="M603.4,131.4h-11.1c-0.6,0-1-0.4-1-1v-9c0-0.6,0.4-1,1-1h11.1c0.6,0,1,0.4,1,1v9    C604.4,130.9,603.9,131.4,603.4,131.4z"/>
		<path class="st1" d="M605.2,131.4h-14.8c-0.6,0-1-0.4-1-1v-1.1c0-0.6,0.4-1,1-1h14.8c0.6,0,1,0.4,1,1v1.1    C606.2,130.9,605.8,131.4,605.2,131.4z"/>
	</g>
	<g sector="Сектор А" row="3" seat="20">
		<path class="st1" d="M630.4,131.4h-11.1c-0.6,0-1-0.4-1-1v-9c0-0.6,0.4-1,1-1h11.1c0.6,0,1,0.4,1,1v9    C631.4,130.9,630.9,131.4,630.4,131.4z"/>
		<path class="st1" d="M632.2,131.4h-14.8c-0.6,0-1-0.4-1-1v-1.1c0-0.6,0.4-1,1-1h14.8c0.6,0,1,0.4,1,1v1.1    C633.2,130.9,632.8,131.4,632.2,131.4z"/>
	</g>
</g>
<g sector="Сектор А" row="2">
	<g sector="Сектор А" row="2" seat="1">
		<path class="st1" d="M118.4,161.4h-11.1c-0.6,0-1-0.4-1-1v-9c0-0.6,0.4-1,1-1h11.1c0.6,0,1,0.4,1,1v9    C119.4,160.9,118.9,161.4,118.4,161.4z"/>
		<path class="st1" d="M120.2,161.4h-14.8c-0.6,0-1-0.4-1-1v-1.1c0-0.6,0.4-1,1-1h14.8c0.6,0,1,0.4,1,1v1.1    C121.2,160.9,120.8,161.4,120.2,161.4z"/>
	</g>
	<g sector="Сектор А" row="2" seat="2">
		<path class="st1" d="M145.4,161.4h-11.1c-0.6,0-1-0.4-1-1v-9c0-0.6,0.4-1,1-1h11.1c0.6,0,1,0.4,1,1v9    C146.4,160.9,145.9,161.4,145.4,161.4z"/>
		<path class="st1" d="M147.2,161.4h-14.8c-0.6,0-1-0.4-1-1v-1.1c0-0.6,0.4-1,1-1h14.8c0.6,0,1,0.4,1,1v1.1    C148.2,160.9,147.8,161.4,147.2,161.4z"/>
	</g>
	<g sector="Сектор А" row="2" seat="3">
		<path class="st1" d="M172.4,161.4h-11.1c-0.6,0-1-0.4-1-1v-9c0-0.6,0.4-1,1-1h11.1c0.6,0,1,0.4,1,1v9    C173.4,160.9,172.9,161.4,172.4,161.4z"/>
		<path class="st1" d="M174.2,161.4h-14.8c-0.6,0-1-0.4-1-1v-1.1c0-0.6,0.4-1,1-1h14.8c0.6,0,1,0.4,1,1v1.1    C175.2,160.9,174.8,161.4,174.2,161.4z"/>
	</g>
	<g sector="Сектор А" row="2" seat="4">
		<path class="st1" d="M199.4,161.4h-11.1c-0.6,0-1-0.4-1-1v-9c0-0.6,0.4-1,1-1h11.1c0.6,0,1,0.4,1,1v9    C200.4,160.9,199.9,161.4,199.4,161.4z"/>
		<path class="st1" d="M201.2,161.4h-14.8c-0.6,0-1-0.4-1-1v-1.1c0-0.6,0.4-1,1-1h14.8c0.6,0,1,0.4,1,1v1.1    C202.2,160.9,201.8,161.4,201.2,161.4z"/>
	</g>
	<g sector="Сектор А" row="2" seat="5">
		<path class="st1" d="M226.4,161.4h-11.1c-0.6,0-1-0.4-1-1v-9c0-0.6,0.4-1,1-1h11.1c0.6,0,1,0.4,1,1v9    C227.4,160.9,226.9,161.4,226.4,161.4z"/>
		<path class="st1" d="M228.2,161.4h-14.8c-0.6,0-1-0.4-1-1v-1.1c0-0.6,0.4-1,1-1h14.8c0.6,0,1,0.4,1,1v1.1    C229.2,160.9,228.8,161.4,228.2,161.4z"/>
	</g>
	<g sector="Сектор А" row="2" seat="6">
		<path class="st1" d="M253.4,161.4h-11.1c-0.6,0-1-0.4-1-1v-9c0-0.6,0.4-1,1-1h11.1c0.6,0,1,0.4,1,1v9    C254.4,160.9,253.9,161.4,253.4,161.4z"/>
		<path class="st1" d="M255.2,161.4h-14.8c-0.6,0-1-0.4-1-1v-1.1c0-0.6,0.4-1,1-1h14.8c0.6,0,1,0.4,1,1v1.1    C256.2,160.9,255.8,161.4,255.2,161.4z"/>
	</g>
	<g sector="Сектор А" row="2" seat="7">
		<path class="st1" d="M280.4,161.4h-11.1c-0.6,0-1-0.4-1-1v-9c0-0.6,0.4-1,1-1h11.1c0.6,0,1,0.4,1,1v9    C281.4,160.9,280.9,161.4,280.4,161.4z"/>
		<path class="st1" d="M282.2,161.4h-14.8c-0.6,0-1-0.4-1-1v-1.1c0-0.6,0.4-1,1-1h14.8c0.6,0,1,0.4,1,1v1.1    C283.2,160.9,282.8,161.4,282.2,161.4z"/>
	</g>
	<g sector="Сектор А" row="2" seat="8">
		<path class="st1" d="M307.4,161.4h-11.1c-0.6,0-1-0.4-1-1v-9c0-0.6,0.4-1,1-1h11.1c0.6,0,1,0.4,1,1v9    C308.4,160.9,307.9,161.4,307.4,161.4z"/>
		<path class="st1" d="M309.2,161.4h-14.8c-0.6,0-1-0.4-1-1v-1.1c0-0.6,0.4-1,1-1h14.8c0.6,0,1,0.4,1,1v1.1    C310.2,160.9,309.8,161.4,309.2,161.4z"/>
	</g>
	<g sector="Сектор А" row="2" seat="9">
		<path class="st1" d="M333.4,161.4h-11.1c-0.6,0-1-0.4-1-1v-9c0-0.6,0.4-1,1-1h11.1c0.6,0,1,0.4,1,1v9    C334.4,160.9,333.9,161.4,333.4,161.4z"/>
		<path class="st1" d="M335.2,161.4h-14.8c-0.6,0-1-0.4-1-1v-1.1c0-0.6,0.4-1,1-1h14.8c0.6,0,1,0.4,1,1v1.1    C336.2,160.9,335.8,161.4,335.2,161.4z"/>
	</g>
	<g sector="Сектор А" row="2" seat="10">
		<path class="st1" d="M361.4,161.4h-11.1c-0.6,0-1-0.4-1-1v-9c0-0.6,0.4-1,1-1h11.1c0.6,0,1,0.4,1,1v9    C362.4,160.9,361.9,161.4,361.4,161.4z"/>
		<path class="st1" d="M363.2,161.4h-14.8c-0.6,0-1-0.4-1-1v-1.1c0-0.6,0.4-1,1-1h14.8c0.6,0,1,0.4,1,1v1.1    C364.2,160.9,363.8,161.4,363.2,161.4z"/>
	</g>
	<g sector="Сектор А" row="2" seat="11">
		<path class="st1" d="M387.4,161.4h-11.1c-0.6,0-1-0.4-1-1v-9c0-0.6,0.4-1,1-1h11.1c0.6,0,1,0.4,1,1v9    C388.4,160.9,387.9,161.4,387.4,161.4z"/>
		<path class="st1" d="M389.2,161.4h-14.8c-0.6,0-1-0.4-1-1v-1.1c0-0.6,0.4-1,1-1h14.8c0.6,0,1,0.4,1,1v1.1    C390.2,160.9,389.8,161.4,389.2,161.4z"/>
	</g>
	<g sector="Сектор А" row="2" seat="12">
		<path class="st1" d="M414.4,161.4h-11.1c-0.6,0-1-0.4-1-1v-9c0-0.6,0.4-1,1-1h11.1c0.6,0,1,0.4,1,1v9    C415.4,160.9,414.9,161.4,414.4,161.4z"/>
		<path class="st1" d="M416.2,161.4h-14.8c-0.6,0-1-0.4-1-1v-1.1c0-0.6,0.4-1,1-1h14.8c0.6,0,1,0.4,1,1v1.1    C417.2,160.9,416.8,161.4,416.2,161.4z"/>
	</g>
	<g sector="Сектор А" row="2" seat="13">
		<path class="st1" d="M441.4,161.4h-11.1c-0.6,0-1-0.4-1-1v-9c0-0.6,0.4-1,1-1h11.1c0.6,0,1,0.4,1,1v9    C442.4,160.9,441.9,161.4,441.4,161.4z"/>
		<path class="st1" d="M443.2,161.4h-14.8c-0.6,0-1-0.4-1-1v-1.1c0-0.6,0.4-1,1-1h14.8c0.6,0,1,0.4,1,1v1.1    C444.2,160.9,443.8,161.4,443.2,161.4z"/>
	</g>
	<g sector="Сектор А" row="2" seat="14">
		<path class="st1" d="M468.4,161.4h-11.1c-0.6,0-1-0.4-1-1v-9c0-0.6,0.4-1,1-1h11.1c0.6,0,1,0.4,1,1v9    C469.4,160.9,468.9,161.4,468.4,161.4z"/>
		<path class="st1" d="M470.2,161.4h-14.8c-0.6,0-1-0.4-1-1v-1.1c0-0.6,0.4-1,1-1h14.8c0.6,0,1,0.4,1,1v1.1    C471.2,160.9,470.8,161.4,470.2,161.4z"/>
	</g>
	<g sector="Сектор А" row="2" seat="15">
		<path class="st1" d="M495.4,161.4h-11.1c-0.6,0-1-0.4-1-1v-9c0-0.6,0.4-1,1-1h11.1c0.6,0,1,0.4,1,1v9    C496.4,160.9,495.9,161.4,495.4,161.4z"/>
		<path class="st1" d="M497.2,161.4h-14.8c-0.6,0-1-0.4-1-1v-1.1c0-0.6,0.4-1,1-1h14.8c0.6,0,1,0.4,1,1v1.1    C498.2,160.9,497.8,161.4,497.2,161.4z"/>
	</g>
	<g sector="Сектор А" row="2" seat="16">
		<path class="st1" d="M522.4,161.4h-11.1c-0.6,0-1-0.4-1-1v-9c0-0.6,0.4-1,1-1h11.1c0.6,0,1,0.4,1,1v9    C523.4,160.9,522.9,161.4,522.4,161.4z"/>
		<path class="st1" d="M524.2,161.4h-14.8c-0.6,0-1-0.4-1-1v-1.1c0-0.6,0.4-1,1-1h14.8c0.6,0,1,0.4,1,1v1.1    C525.2,160.9,524.8,161.4,524.2,161.4z"/>
	</g>
	<g sector="Сектор А" row="2" seat="17">
		<path class="st1" d="M549.4,161.4h-11.1c-0.6,0-1-0.4-1-1v-9c0-0.6,0.4-1,1-1h11.1c0.6,0,1,0.4,1,1v9    C550.4,160.9,549.9,161.4,549.4,161.4z"/>
		<path class="st1" d="M551.2,161.4h-14.8c-0.6,0-1-0.4-1-1v-1.1c0-0.6,0.4-1,1-1h14.8c0.6,0,1,0.4,1,1v1.1    C552.2,160.9,551.8,161.4,551.2,161.4z"/>
	</g>
	<g sector="Сектор А" row="2" seat="18">
		<path class="st1" d="M576.4,161.4h-11.1c-0.6,0-1-0.4-1-1v-9c0-0.6,0.4-1,1-1h11.1c0.6,0,1,0.4,1,1v9    C577.4,160.9,576.9,161.4,576.4,161.4z"/>
		<path class="st1" d="M578.2,161.4h-14.8c-0.6,0-1-0.4-1-1v-1.1c0-0.6,0.4-1,1-1h14.8c0.6,0,1,0.4,1,1v1.1    C579.2,160.9,578.8,161.4,578.2,161.4z"/>
	</g>
	<g sector="Сектор А" row="2" seat="19">
		<path class="st1" d="M603.4,161.4h-11.1c-0.6,0-1-0.4-1-1v-9c0-0.6,0.4-1,1-1h11.1c0.6,0,1,0.4,1,1v9    C604.4,160.9,603.9,161.4,603.4,161.4z"/>
		<path class="st1" d="M605.2,161.4h-14.8c-0.6,0-1-0.4-1-1v-1.1c0-0.6,0.4-1,1-1h14.8c0.6,0,1,0.4,1,1v1.1    C606.2,160.9,605.8,161.4,605.2,161.4z"/>
	</g>
	<g sector="Сектор А" row="2" seat="20">
		<path class="st1" d="M630.4,161.4h-11.1c-0.6,0-1-0.4-1-1v-9c0-0.6,0.4-1,1-1h11.1c0.6,0,1,0.4,1,1v9    C631.4,160.9,630.9,161.4,630.4,161.4z"/>
		<path class="st1" d="M632.2,161.4h-14.8c-0.6,0-1-0.4-1-1v-1.1c0-0.6,0.4-1,1-1h14.8c0.6,0,1,0.4,1,1v1.1    C633.2,160.9,632.8,161.4,632.2,161.4z"/>
	</g>
</g>
<g sector="Сектор А" row="1">
	<g sector="Сектор А" row="1" seat="1">
		<path class="st1" d="M226.4,191.4h-11.1c-0.6,0-1-0.4-1-1v-9c0-0.6,0.4-1,1-1h11.1c0.6,0,1,0.4,1,1v9    C227.4,190.9,226.9,191.4,226.4,191.4z"/>
		<path class="st1" d="M228.2,191.4h-14.8c-0.6,0-1-0.4-1-1v-1.1c0-0.6,0.4-1,1-1h14.8c0.6,0,1,0.4,1,1v1.1    C229.2,190.9,228.8,191.4,228.2,191.4z"/>
	</g>
	<g sector="Сектор А" row="1" seat="2">
		<path class="st1" d="M253.4,191.4h-11.1c-0.6,0-1-0.4-1-1v-9c0-0.6,0.4-1,1-1h11.1c0.6,0,1,0.4,1,1v9    C254.4,190.9,253.9,191.4,253.4,191.4z"/>
		<path class="st1" d="M255.2,191.4h-14.8c-0.6,0-1-0.4-1-1v-1.1c0-0.6,0.4-1,1-1h14.8c0.6,0,1,0.4,1,1v1.1    C256.2,190.9,255.8,191.4,255.2,191.4z"/>
	</g>
	<g sector="Сектор А" row="1" seat="3">
		<path class="st1" d="M280.4,191.4h-11.1c-0.6,0-1-0.4-1-1v-9c0-0.6,0.4-1,1-1h11.1c0.6,0,1,0.4,1,1v9    C281.4,190.9,280.9,191.4,280.4,191.4z"/>
		<path class="st1" d="M282.2,191.4h-14.8c-0.6,0-1-0.4-1-1v-1.1c0-0.6,0.4-1,1-1h14.8c0.6,0,1,0.4,1,1v1.1    C283.2,190.9,282.8,191.4,282.2,191.4z"/>
	</g>
	<g sector="Сектор А" row="1" seat="4">
		<path class="st1" d="M307.4,191.4h-11.1c-0.6,0-1-0.4-1-1v-9c0-0.6,0.4-1,1-1h11.1c0.6,0,1,0.4,1,1v9    C308.4,190.9,307.9,191.4,307.4,191.4z"/>
		<path class="st1" d="M309.2,191.4h-14.8c-0.6,0-1-0.4-1-1v-1.1c0-0.6,0.4-1,1-1h14.8c0.6,0,1,0.4,1,1v1.1    C310.2,190.9,309.8,191.4,309.2,191.4z"/>
	</g>
	<g sector="Сектор А" row="1" seat="5">
		<path class="st1" d="M334.4,191.4h-11.1c-0.6,0-1-0.4-1-1v-9c0-0.6,0.4-1,1-1h11.1c0.6,0,1,0.4,1,1v9    C335.4,190.9,334.9,191.4,334.4,191.4z"/>
		<path class="st1" d="M336.2,191.4h-14.8c-0.6,0-1-0.4-1-1v-1.1c0-0.6,0.4-1,1-1h14.8c0.6,0,1,0.4,1,1v1.1    C337.2,190.9,336.8,191.4,336.2,191.4z"/>
	</g>
	<g sector="Сектор А" row="1" seat="6">
		<path class="st1" d="M361.4,191.4h-11.1c-0.6,0-1-0.4-1-1v-9c0-0.6,0.4-1,1-1h11.1c0.6,0,1,0.4,1,1v9    C362.4,190.9,361.9,191.4,361.4,191.4z"/>
		<path class="st1" d="M363.2,191.4h-14.8c-0.6,0-1-0.4-1-1v-1.1c0-0.6,0.4-1,1-1h14.8c0.6,0,1,0.4,1,1v1.1    C364.2,190.9,363.8,191.4,363.2,191.4z"/>
	</g>
	<g sector="Сектор А" row="1" seat="7">
		<path class="st1" d="M388.4,191.4h-11.1c-0.6,0-1-0.4-1-1v-9c0-0.6,0.4-1,1-1h11.1c0.6,0,1,0.4,1,1v9    C389.4,190.9,388.9,191.4,388.4,191.4z"/>
		<path class="st1" d="M390.2,191.4h-14.8c-0.6,0-1-0.4-1-1v-1.1c0-0.6,0.4-1,1-1h14.8c0.6,0,1,0.4,1,1v1.1    C391.2,190.9,390.8,191.4,390.2,191.4z"/>
	</g>
	<g sector="Сектор А" row="1" seat="8">
		<path class="st1" d="M415.4,191.4h-11.1c-0.6,0-1-0.4-1-1v-9c0-0.6,0.4-1,1-1h11.1c0.6,0,1,0.4,1,1v9    C416.4,190.9,415.9,191.4,415.4,191.4z"/>
		<path class="st1" d="M417.2,191.4h-14.8c-0.6,0-1-0.4-1-1v-1.1c0-0.6,0.4-1,1-1h14.8c0.6,0,1,0.4,1,1v1.1    C418.2,190.9,417.8,191.4,417.2,191.4z"/>
	</g>
	<g sector="Сектор А" row="1" seat="9">
		<path class="st1" d="M441.4,191.4h-11.1c-0.6,0-1-0.4-1-1v-9c0-0.6,0.4-1,1-1h11.1c0.6,0,1,0.4,1,1v9    C442.4,190.9,441.9,191.4,441.4,191.4z"/>
		<path class="st1" d="M443.2,191.4h-14.8c-0.6,0-1-0.4-1-1v-1.1c0-0.6,0.4-1,1-1h14.8c0.6,0,1,0.4,1,1v1.1    C444.2,190.9,443.8,191.4,443.2,191.4z"/>
	</g>
	<g sector="Сектор А" row="1" seat="10">
		<path class="st1" d="M469.4,191.4h-11.1c-0.6,0-1-0.4-1-1v-9c0-0.6,0.4-1,1-1h11.1c0.6,0,1,0.4,1,1v9    C470.4,190.9,469.9,191.4,469.4,191.4z"/>
		<path class="st1" d="M471.2,191.4h-14.8c-0.6,0-1-0.4-1-1v-1.1c0-0.6,0.4-1,1-1h14.8c0.6,0,1,0.4,1,1v1.1    C472.2,190.9,471.8,191.4,471.2,191.4z"/>
	</g>
	<g sector="Сектор А" row="1" seat="11">
		<path class="st1" d="M495.4,191.4h-11.1c-0.6,0-1-0.4-1-1v-9c0-0.6,0.4-1,1-1h11.1c0.6,0,1,0.4,1,1v9    C496.4,190.9,495.9,191.4,495.4,191.4z"/>
		<path class="st1" d="M497.2,191.4h-14.8c-0.6,0-1-0.4-1-1v-1.1c0-0.6,0.4-1,1-1h14.8c0.6,0,1,0.4,1,1v1.1    C498.2,190.9,497.8,191.4,497.2,191.4z"/>
	</g>
	<g sector="Сектор А" row="1" seat="12">
		<path class="st1" d="M522.4,191.4h-11.1c-0.6,0-1-0.4-1-1v-9c0-0.6,0.4-1,1-1h11.1c0.6,0,1,0.4,1,1v9    C523.4,190.9,522.9,191.4,522.4,191.4z"/>
		<path class="st1" d="M524.2,191.4h-14.8c-0.6,0-1-0.4-1-1v-1.1c0-0.6,0.4-1,1-1h14.8c0.6,0,1,0.4,1,1v1.1    C525.2,190.9,524.8,191.4,524.2,191.4z"/>
	</g>
	<g sector="Сектор А" row="1" seat="13">
		<path class="st1" d="M549.4,191.4h-11.1c-0.6,0-1-0.4-1-1v-9c0-0.6,0.4-1,1-1h11.1c0.6,0,1,0.4,1,1v9    C550.4,190.9,549.9,191.4,549.4,191.4z"/>
		<path class="st1" d="M551.2,191.4h-14.8c-0.6,0-1-0.4-1-1v-1.1c0-0.6,0.4-1,1-1h14.8c0.6,0,1,0.4,1,1v1.1    C552.2,190.9,551.8,191.4,551.2,191.4z"/>
	</g>
	<g sector="Сектор А" row="1" seat="14">
		<path class="st1" d="M576.4,191.4h-11.1c-0.6,0-1-0.4-1-1v-9c0-0.6,0.4-1,1-1h11.1c0.6,0,1,0.4,1,1v9    C577.4,190.9,576.9,191.4,576.4,191.4z"/>
		<path class="st1" d="M578.2,191.4h-14.8c-0.6,0-1-0.4-1-1v-1.1c0-0.6,0.4-1,1-1h14.8c0.6,0,1,0.4,1,1v1.1    C579.2,190.9,578.8,191.4,578.2,191.4z"/>
	</g>
	<g sector="Сектор А" row="1" seat="15">
		<path class="st1" d="M603.4,191.4h-11.1c-0.6,0-1-0.4-1-1v-9c0-0.6,0.4-1,1-1h11.1c0.6,0,1,0.4,1,1v9    C604.4,190.9,603.9,191.4,603.4,191.4z"/>
		<path class="st1" d="M605.2,191.4h-14.8c-0.6,0-1-0.4-1-1v-1.1c0-0.6,0.4-1,1-1h14.8c0.6,0,1,0.4,1,1v1.1    C606.2,190.9,605.8,191.4,605.2,191.4z"/>
	</g>
	<g sector="Сектор А" row="1" seat="16">
		<path class="st1" d="M630.4,191.4h-11.1c-0.6,0-1-0.4-1-1v-9c0-0.6,0.4-1,1-1h11.1c0.6,0,1,0.4,1,1v9    C631.4,190.9,630.9,191.4,630.4,191.4z"/>
		<path class="st1" d="M632.2,191.4h-14.8c-0.6,0-1-0.4-1-1v-1.1c0-0.6,0.4-1,1-1h14.8c0.6,0,1,0.4,1,1v1.1    C633.2,190.9,632.8,191.4,632.2,191.4z"/>
	</g>
</g>
<g sector="Сектор Г" row="2" seat="1">
	<path class="st1" d="M12.3,547.3v11.1c0,0.6-0.4,1-1,1h-9c-0.6,0-1-0.4-1-1v-11.1c0-0.6,0.4-1,1-1h9   C11.9,546.3,12.3,546.8,12.3,547.3z"/>
	<path class="st1" d="M12.3,545.5v14.8c0,0.6-0.4,1-1,1h-1.1c-0.6,0-1-0.4-1-1v-14.8c0-0.6,0.4-1,1-1h1.1   C11.9,544.5,12.3,545,12.3,545.5z"/>
</g>
<g sector="Сектор Г" row="2" seat="2">
	<path class="st1" d="M12.3,520.3v11.1c0,0.6-0.4,1-1,1h-9c-0.6,0-1-0.4-1-1v-11.1c0-0.6,0.4-1,1-1h9   C11.9,519.3,12.3,519.8,12.3,520.3z"/>
	<path class="st1" d="M12.3,518.5v14.8c0,0.6-0.4,1-1,1h-1.1c-0.6,0-1-0.4-1-1v-14.8c0-0.6,0.4-1,1-1h1.1   C11.9,517.5,12.3,518,12.3,518.5z"/>
</g>
<g sector="Сектор Г" row="2" seat="3">
	<path class="st1" d="M12.3,493.3v11.1c0,0.6-0.4,1-1,1h-9c-0.6,0-1-0.4-1-1v-11.1c0-0.6,0.4-1,1-1h9   C11.9,492.3,12.3,492.8,12.3,493.3z"/>
	<path class="st1" d="M12.3,491.5v14.8c0,0.6-0.4,1-1,1h-1.1c-0.6,0-1-0.4-1-1v-14.8c0-0.6,0.4-1,1-1h1.1   C11.9,490.5,12.3,491,12.3,491.5z"/>
</g>
<g sector="Сектор Г" row="2" seat="4">
	<path class="st1" d="M12.3,466.3v11.1c0,0.6-0.4,1-1,1h-9c-0.6,0-1-0.4-1-1v-11.1c0-0.6,0.4-1,1-1h9   C11.9,465.3,12.3,465.8,12.3,466.3z"/>
	<path class="st1" d="M12.3,464.5v14.8c0,0.6-0.4,1-1,1h-1.1c-0.6,0-1-0.4-1-1v-14.8c0-0.6,0.4-1,1-1h1.1   C11.9,463.5,12.3,464,12.3,464.5z"/>
</g>
<g sector="Сектор Г" row="2" seat="5">
	<path class="st1" d="M12.3,439.3v11.1c0,0.6-0.4,1-1,1h-9c-0.6,0-1-0.4-1-1v-11.1c0-0.6,0.4-1,1-1h9   C11.9,438.3,12.3,438.8,12.3,439.3z"/>
	<path class="st1" d="M12.3,437.5v14.8c0,0.6-0.4,1-1,1h-1.1c-0.6,0-1-0.4-1-1v-14.8c0-0.6,0.4-1,1-1h1.1   C11.9,436.5,12.3,437,12.3,437.5z"/>
</g>
<g sector="Сектор Г" row="2" seat="6">
	<path class="st1" d="M12.3,412.3v11.1c0,0.6-0.4,1-1,1h-9c-0.6,0-1-0.4-1-1v-11.1c0-0.6,0.4-1,1-1h9   C11.9,411.3,12.3,411.8,12.3,412.3z"/>
	<path class="st1" d="M12.3,410.5v14.8c0,0.6-0.4,1-1,1h-1.1c-0.6,0-1-0.4-1-1v-14.8c0-0.6,0.4-1,1-1h1.1   C11.9,409.5,12.3,410,12.3,410.5z"/>
</g>
<g sector="Сектор Г" row="2" seat="7">
	<path class="st1" d="M12.3,385.3v11.1c0,0.6-0.4,1-1,1h-9c-0.6,0-1-0.4-1-1v-11.1c0-0.6,0.4-1,1-1h9   C11.9,384.3,12.3,384.8,12.3,385.3z"/>
	<path class="st1" d="M12.3,383.5v14.8c0,0.6-0.4,1-1,1h-1.1c-0.6,0-1-0.4-1-1v-14.8c0-0.6,0.4-1,1-1h1.1   C11.9,382.5,12.3,383,12.3,383.5z"/>
</g>
<g sector="Сектор Г" row="2" seat="8">
	<path class="st1" d="M12.3,358.3v11.1c0,0.6-0.4,1-1,1h-9c-0.6,0-1-0.4-1-1v-11.1c0-0.6,0.4-1,1-1h9   C11.9,357.3,12.3,357.8,12.3,358.3z"/>
	<path class="st1" d="M12.3,356.5v14.8c0,0.6-0.4,1-1,1h-1.1c-0.6,0-1-0.4-1-1v-14.8c0-0.6,0.4-1,1-1h1.1   C11.9,355.5,12.3,356,12.3,356.5z"/>
</g>
<g sector="Сектор Г" row="2" seat="9">
	<path class="st1" d="M12.3,332.3v11.1c0,0.6-0.4,1-1,1h-9c-0.6,0-1-0.4-1-1v-11.1c0-0.6,0.4-1,1-1h9   C11.9,331.3,12.3,331.8,12.3,332.3z"/>
	<path class="st1" d="M12.3,330.5v14.8c0,0.6-0.4,1-1,1h-1.1c-0.6,0-1-0.4-1-1v-14.8c0-0.6,0.4-1,1-1h1.1   C11.9,329.5,12.3,330,12.3,330.5z"/>
</g>
<g sector="Сектор Г" row="2" seat="10">
	<path class="st1" d="M12.3,304.3v11.1c0,0.6-0.4,1-1,1h-9c-0.6,0-1-0.4-1-1v-11.1c0-0.6,0.4-1,1-1h9   C11.9,303.3,12.3,303.8,12.3,304.3z"/>
	<path class="st1" d="M12.3,302.5v14.8c0,0.6-0.4,1-1,1h-1.1c-0.6,0-1-0.4-1-1v-14.8c0-0.6,0.4-1,1-1h1.1   C11.9,301.5,12.3,302,12.3,302.5z"/>
</g>
<g sector="Сектор Г" row="2" seat="11">
	<path class="st1" d="M12.3,278.3v11.1c0,0.6-0.4,1-1,1h-9c-0.6,0-1-0.4-1-1v-11.1c0-0.6,0.4-1,1-1h9   C11.9,277.3,12.3,277.8,12.3,278.3z"/>
	<path class="st1" d="M12.3,276.5v14.8c0,0.6-0.4,1-1,1h-1.1c-0.6,0-1-0.4-1-1v-14.8c0-0.6,0.4-1,1-1h1.1   C11.9,275.5,12.3,276,12.3,276.5z"/>
</g>
<g sector="Сектор Г" row="2" seat="12">
	<path class="st1" d="M12.3,251.3v11.1c0,0.6-0.4,1-1,1h-9c-0.6,0-1-0.4-1-1v-11.1c0-0.6,0.4-1,1-1h9   C11.9,250.3,12.3,250.8,12.3,251.3z"/>
	<path class="st1" d="M12.3,249.5v14.8c0,0.6-0.4,1-1,1h-1.1c-0.6,0-1-0.4-1-1v-14.8c0-0.6,0.4-1,1-1h1.1   C11.9,248.5,12.3,249,12.3,249.5z"/>
</g>
<g sector="Сектор Г" row="1" seat="1">
	<path class="st1" d="M41.3,547.3v11.1c0,0.6-0.4,1-1,1h-9c-0.6,0-1-0.4-1-1v-11.1c0-0.6,0.4-1,1-1h9   C40.9,546.3,41.3,546.8,41.3,547.3z"/>
	<path class="st1" d="M41.3,545.5v14.8c0,0.6-0.4,1-1,1h-1.1c-0.6,0-1-0.4-1-1v-14.8c0-0.6,0.4-1,1-1h1.1   C40.9,544.5,41.3,545,41.3,545.5z"/>
</g>
<g sector="Сектор Г" row="1" seat="2">
	<path class="st1" d="M41.3,520.3v11.1c0,0.6-0.4,1-1,1h-9c-0.6,0-1-0.4-1-1v-11.1c0-0.6,0.4-1,1-1h9   C40.9,519.3,41.3,519.8,41.3,520.3z"/>
	<path class="st1" d="M41.3,518.5v14.8c0,0.6-0.4,1-1,1h-1.1c-0.6,0-1-0.4-1-1v-14.8c0-0.6,0.4-1,1-1h1.1   C40.9,517.5,41.3,518,41.3,518.5z"/>
</g>
<g sector="Сектор Г" row="1" seat="3">
	<path class="st1" d="M41.3,493.3v11.1c0,0.6-0.4,1-1,1h-9c-0.6,0-1-0.4-1-1v-11.1c0-0.6,0.4-1,1-1h9   C40.9,492.3,41.3,492.8,41.3,493.3z"/>
	<path class="st1" d="M41.3,491.5v14.8c0,0.6-0.4,1-1,1h-1.1c-0.6,0-1-0.4-1-1v-14.8c0-0.6,0.4-1,1-1h1.1   C40.9,490.5,41.3,491,41.3,491.5z"/>
</g>
<g sector="Сектор Г" row="1" seat="4">
	<path class="st1" d="M41.3,466.3v11.1c0,0.6-0.4,1-1,1h-9c-0.6,0-1-0.4-1-1v-11.1c0-0.6,0.4-1,1-1h9   C40.9,465.3,41.3,465.8,41.3,466.3z"/>
	<path class="st1" d="M41.3,464.5v14.8c0,0.6-0.4,1-1,1h-1.1c-0.6,0-1-0.4-1-1v-14.8c0-0.6,0.4-1,1-1h1.1   C40.9,463.5,41.3,464,41.3,464.5z"/>
</g>
<g sector="Сектор Г" row="1" seat="5">
	<path class="st1" d="M41.3,439.3v11.1c0,0.6-0.4,1-1,1h-9c-0.6,0-1-0.4-1-1v-11.1c0-0.6,0.4-1,1-1h9   C40.9,438.3,41.3,438.8,41.3,439.3z"/>
	<path class="st1" d="M41.3,437.5v14.8c0,0.6-0.4,1-1,1h-1.1c-0.6,0-1-0.4-1-1v-14.8c0-0.6,0.4-1,1-1h1.1   C40.9,436.5,41.3,437,41.3,437.5z"/>
</g>
<g sector="Сектор Г" row="1" seat="6">
	<path class="st1" d="M41.3,412.3v11.1c0,0.6-0.4,1-1,1h-9c-0.6,0-1-0.4-1-1v-11.1c0-0.6,0.4-1,1-1h9   C40.9,411.3,41.3,411.8,41.3,412.3z"/>
	<path class="st1" d="M41.3,410.5v14.8c0,0.6-0.4,1-1,1h-1.1c-0.6,0-1-0.4-1-1v-14.8c0-0.6,0.4-1,1-1h1.1   C40.9,409.5,41.3,410,41.3,410.5z"/>
</g>
<g sector="Сектор Г" row="1" seat="7">
	<path class="st1" d="M41.3,385.3v11.1c0,0.6-0.4,1-1,1h-9c-0.6,0-1-0.4-1-1v-11.1c0-0.6,0.4-1,1-1h9   C40.9,384.3,41.3,384.8,41.3,385.3z"/>
	<path class="st1" d="M41.3,383.5v14.8c0,0.6-0.4,1-1,1h-1.1c-0.6,0-1-0.4-1-1v-14.8c0-0.6,0.4-1,1-1h1.1   C40.9,382.5,41.3,383,41.3,383.5z"/>
</g>
<g sector="Сектор Г" row="1" seat="8">
	<path class="st1" d="M41.3,358.3v11.1c0,0.6-0.4,1-1,1h-9c-0.6,0-1-0.4-1-1v-11.1c0-0.6,0.4-1,1-1h9   C40.9,357.3,41.3,357.8,41.3,358.3z"/>
	<path class="st1" d="M41.3,356.5v14.8c0,0.6-0.4,1-1,1h-1.1c-0.6,0-1-0.4-1-1v-14.8c0-0.6,0.4-1,1-1h1.1   C40.9,355.5,41.3,356,41.3,356.5z"/>
</g>
<g sector="Сектор Г" row="1" seat="9">
	<path class="st1" d="M41.3,332.3v11.1c0,0.6-0.4,1-1,1h-9c-0.6,0-1-0.4-1-1v-11.1c0-0.6,0.4-1,1-1h9   C40.9,331.3,41.3,331.8,41.3,332.3z"/>
	<path class="st1" d="M41.3,330.5v14.8c0,0.6-0.4,1-1,1h-1.1c-0.6,0-1-0.4-1-1v-14.8c0-0.6,0.4-1,1-1h1.1   C40.9,329.5,41.3,330,41.3,330.5z"/>
</g>
<g sector="Сектор Г" row="1" seat="10">
	<path class="st1" d="M41.3,304.3v11.1c0,0.6-0.4,1-1,1h-9c-0.6,0-1-0.4-1-1v-11.1c0-0.6,0.4-1,1-1h9   C40.9,303.3,41.3,303.8,41.3,304.3z"/>
	<path class="st1" d="M41.3,302.5v14.8c0,0.6-0.4,1-1,1h-1.1c-0.6,0-1-0.4-1-1v-14.8c0-0.6,0.4-1,1-1h1.1   C40.9,301.5,41.3,302,41.3,302.5z"/>
</g>
<g sector="Сектор Г" row="1" seat="11">
	<path class="st1" d="M41.3,278.3v11.1c0,0.6-0.4,1-1,1h-9c-0.6,0-1-0.4-1-1v-11.1c0-0.6,0.4-1,1-1h9   C40.9,277.3,41.3,277.8,41.3,278.3z"/>
	<path class="st1" d="M41.3,276.5v14.8c0,0.6-0.4,1-1,1h-1.1c-0.6,0-1-0.4-1-1v-14.8c0-0.6,0.4-1,1-1h1.1   C40.9,275.5,41.3,276,41.3,276.5z"/>
</g>
<g sector="Сектор Г" row="1" seat="12">
	<path class="st1" d="M41.3,251.3v11.1c0,0.6-0.4,1-1,1h-9c-0.6,0-1-0.4-1-1v-11.1c0-0.6,0.4-1,1-1h9   C40.9,250.3,41.3,250.8,41.3,251.3z"/>
	<path class="st1" d="M41.3,249.5v14.8c0,0.6-0.4,1-1,1h-1.1c-0.6,0-1-0.4-1-1v-14.8c0-0.6,0.4-1,1-1h1.1   C40.9,248.5,41.3,249,41.3,249.5z"/>
</g>
<g>
	<g sector="Сектор Б" row="2" seat="1">
		<path class="st1" d="M726.3,262.4v-11.1c0-0.6,0.4-1,1-1h9c0.6,0,1,0.4,1,1v11.1c0,0.6-0.4,1-1,1h-9    C726.8,263.4,726.3,263,726.3,262.4z"/>
		<path class="st1" d="M726.3,264.3v-14.8c0-0.6,0.4-1,1-1h1.1c0.6,0,1,0.4,1,1v14.8c0,0.6-0.4,1-1,1h-1.1    C726.8,265.3,726.3,264.8,726.3,264.3z"/>
	</g>
	<g sector="Сектор Б" row="2" seat="2">
		<path class="st1" d="M726.3,289.4v-11.1c0-0.6,0.4-1,1-1h9c0.6,0,1,0.4,1,1v11.1c0,0.6-0.4,1-1,1h-9    C726.8,290.4,726.3,290,726.3,289.4z"/>
		<path class="st1" d="M726.3,291.3v-14.8c0-0.6,0.4-1,1-1h1.1c0.6,0,1,0.4,1,1v14.8c0,0.6-0.4,1-1,1h-1.1    C726.8,292.3,726.3,291.8,726.3,291.3z"/>
	</g>
	<g sector="Сектор Б" row="2" seat="3">
		<path class="st1" d="M726.3,316.4v-11.1c0-0.6,0.4-1,1-1h9c0.6,0,1,0.4,1,1v11.1c0,0.6-0.4,1-1,1h-9    C726.8,317.4,726.3,317,726.3,316.4z"/>
		<path class="st1" d="M726.3,318.3v-14.8c0-0.6,0.4-1,1-1h1.1c0.6,0,1,0.4,1,1v14.8c0,0.6-0.4,1-1,1h-1.1    C726.8,319.3,726.3,318.8,726.3,318.3z"/>
	</g>
	<g sector="Сектор Б" row="2" seat="4">
		<path class="st1" d="M726.3,343.4v-11.1c0-0.6,0.4-1,1-1h9c0.6,0,1,0.4,1,1v11.1c0,0.6-0.4,1-1,1h-9    C726.8,344.4,726.3,344,726.3,343.4z"/>
		<path class="st1" d="M726.3,345.3v-14.8c0-0.6,0.4-1,1-1h1.1c0.6,0,1,0.4,1,1v14.8c0,0.6-0.4,1-1,1h-1.1    C726.8,346.3,726.3,345.8,726.3,345.3z"/>
	</g>
	<g sector="Сектор Б" row="2" seat="5">
		<path class="st1" d="M726.3,370.4v-11.1c0-0.6,0.4-1,1-1h9c0.6,0,1,0.4,1,1v11.1c0,0.6-0.4,1-1,1h-9    C726.8,371.4,726.3,371,726.3,370.4z"/>
		<path class="st1" d="M726.3,372.3v-14.8c0-0.6,0.4-1,1-1h1.1c0.6,0,1,0.4,1,1v14.8c0,0.6-0.4,1-1,1h-1.1    C726.8,373.3,726.3,372.8,726.3,372.3z"/>
	</g>
	<g sector="Сектор Б" row="2" seat="6">
		<path class="st1" d="M726.3,397.4v-11.1c0-0.6,0.4-1,1-1h9c0.6,0,1,0.4,1,1v11.1c0,0.6-0.4,1-1,1h-9    C726.8,398.4,726.3,398,726.3,397.4z"/>
		<path class="st1" d="M726.3,399.3v-14.8c0-0.6,0.4-1,1-1h1.1c0.6,0,1,0.4,1,1v14.8c0,0.6-0.4,1-1,1h-1.1    C726.8,400.3,726.3,399.8,726.3,399.3z"/>
	</g>
	<g sector="Сектор Б" row="2" seat="7">
		<path class="st1" d="M726.3,424.4v-11.1c0-0.6,0.4-1,1-1h9c0.6,0,1,0.4,1,1v11.1c0,0.6-0.4,1-1,1h-9    C726.8,425.4,726.3,425,726.3,424.4z"/>
		<path class="st1" d="M726.3,426.3v-14.8c0-0.6,0.4-1,1-1h1.1c0.6,0,1,0.4,1,1v14.8c0,0.6-0.4,1-1,1h-1.1    C726.8,427.3,726.3,426.8,726.3,426.3z"/>
	</g>
	<g sector="Сектор Б" row="2" seat="8">
		<path class="st1" d="M726.3,451.4v-11.1c0-0.6,0.4-1,1-1h9c0.6,0,1,0.4,1,1v11.1c0,0.6-0.4,1-1,1h-9    C726.8,452.4,726.3,452,726.3,451.4z"/>
		<path class="st1" d="M726.3,453.3v-14.8c0-0.6,0.4-1,1-1h1.1c0.6,0,1,0.4,1,1v14.8c0,0.6-0.4,1-1,1h-1.1    C726.8,454.3,726.3,453.8,726.3,453.3z"/>
	</g>
	<g sector="Сектор Б" row="2" seat="9">
		<path class="st1" d="M726.3,477.4v-11.1c0-0.6,0.4-1,1-1h9c0.6,0,1,0.4,1,1v11.1c0,0.6-0.4,1-1,1h-9    C726.8,478.4,726.3,478,726.3,477.4z"/>
		<path class="st1" d="M726.3,479.3v-14.8c0-0.6,0.4-1,1-1h1.1c0.6,0,1,0.4,1,1v14.8c0,0.6-0.4,1-1,1h-1.1    C726.8,480.3,726.3,479.8,726.3,479.3z"/>
	</g>
	<g sector="Сектор Б" row="2" seat="10">
		<path class="st1" d="M726.3,505.4v-11.1c0-0.6,0.4-1,1-1h9c0.6,0,1,0.4,1,1v11.1c0,0.6-0.4,1-1,1h-9    C726.8,506.4,726.3,506,726.3,505.4z"/>
		<path class="st1" d="M726.3,507.3v-14.8c0-0.6,0.4-1,1-1h1.1c0.6,0,1,0.4,1,1v14.8c0,0.6-0.4,1-1,1h-1.1    C726.8,508.3,726.3,507.8,726.3,507.3z"/>
	</g>
	<g sector="Сектор Б" row="2" seat="11">
		<path class="st1" d="M726.3,531.4v-11.1c0-0.6,0.4-1,1-1h9c0.6,0,1,0.4,1,1v11.1c0,0.6-0.4,1-1,1h-9    C726.8,532.4,726.3,532,726.3,531.4z"/>
		<path class="st1" d="M726.3,533.3v-14.8c0-0.6,0.4-1,1-1h1.1c0.6,0,1,0.4,1,1v14.8c0,0.6-0.4,1-1,1h-1.1    C726.8,534.3,726.3,533.8,726.3,533.3z"/>
	</g>
	<g sector="Сектор Б" row="2" seat="12">
		<path class="st1" d="M726.3,558.4v-11.1c0-0.6,0.4-1,1-1h9c0.6,0,1,0.4,1,1v11.1c0,0.6-0.4,1-1,1h-9    C726.8,559.4,726.3,559,726.3,558.4z"/>
		<path class="st1" d="M726.3,560.3v-14.8c0-0.6,0.4-1,1-1h1.1c0.6,0,1,0.4,1,1v14.8c0,0.6-0.4,1-1,1h-1.1    C726.8,561.3,726.3,560.8,726.3,560.3z"/>
	</g>
	<g sector="Сектор Б" row="1" seat="1">
		<path class="st1" d="M697.3,262.4v-11.1c0-0.6,0.4-1,1-1h9c0.6,0,1,0.4,1,1v11.1c0,0.6-0.4,1-1,1h-9    C697.8,263.4,697.3,263,697.3,262.4z"/>
		<path class="st1" d="M697.3,264.3v-14.8c0-0.6,0.4-1,1-1h1.1c0.6,0,1,0.4,1,1v14.8c0,0.6-0.4,1-1,1h-1.1    C697.8,265.3,697.3,264.8,697.3,264.3z"/>
	</g>
	<g sector="Сектор Б" row="1" seat="2">
		<path class="st1" d="M697.3,289.4v-11.1c0-0.6,0.4-1,1-1h9c0.6,0,1,0.4,1,1v11.1c0,0.6-0.4,1-1,1h-9    C697.8,290.4,697.3,290,697.3,289.4z"/>
		<path class="st1" d="M697.3,291.3v-14.8c0-0.6,0.4-1,1-1h1.1c0.6,0,1,0.4,1,1v14.8c0,0.6-0.4,1-1,1h-1.1    C697.8,292.3,697.3,291.8,697.3,291.3z"/>
	</g>
	<g sector="Сектор Б" row="1" seat="3">
		<path class="st1" d="M697.3,316.4v-11.1c0-0.6,0.4-1,1-1h9c0.6,0,1,0.4,1,1v11.1c0,0.6-0.4,1-1,1h-9    C697.8,317.4,697.3,317,697.3,316.4z"/>
		<path class="st1" d="M697.3,318.3v-14.8c0-0.6,0.4-1,1-1h1.1c0.6,0,1,0.4,1,1v14.8c0,0.6-0.4,1-1,1h-1.1    C697.8,319.3,697.3,318.8,697.3,318.3z"/>
	</g>
	<g sector="Сектор Б" row="1" seat="4">
		<path class="st1" d="M697.3,343.4v-11.1c0-0.6,0.4-1,1-1h9c0.6,0,1,0.4,1,1v11.1c0,0.6-0.4,1-1,1h-9    C697.8,344.4,697.3,344,697.3,343.4z"/>
		<path class="st1" d="M697.3,345.3v-14.8c0-0.6,0.4-1,1-1h1.1c0.6,0,1,0.4,1,1v14.8c0,0.6-0.4,1-1,1h-1.1    C697.8,346.3,697.3,345.8,697.3,345.3z"/>
	</g>
	<g sector="Сектор Б" row="1" seat="5">
		<path class="st1" d="M697.3,370.4v-11.1c0-0.6,0.4-1,1-1h9c0.6,0,1,0.4,1,1v11.1c0,0.6-0.4,1-1,1h-9    C697.8,371.4,697.3,371,697.3,370.4z"/>
		<path class="st1" d="M697.3,372.3v-14.8c0-0.6,0.4-1,1-1h1.1c0.6,0,1,0.4,1,1v14.8c0,0.6-0.4,1-1,1h-1.1    C697.8,373.3,697.3,372.8,697.3,372.3z"/>
	</g>
	<g sector="Сектор Б" row="1" seat="6">
		<path class="st1" d="M697.3,397.4v-11.1c0-0.6,0.4-1,1-1h9c0.6,0,1,0.4,1,1v11.1c0,0.6-0.4,1-1,1h-9    C697.8,398.4,697.3,398,697.3,397.4z"/>
		<path class="st1" d="M697.3,399.3v-14.8c0-0.6,0.4-1,1-1h1.1c0.6,0,1,0.4,1,1v14.8c0,0.6-0.4,1-1,1h-1.1    C697.8,400.3,697.3,399.8,697.3,399.3z"/>
	</g>
	<g sector="Сектор Б" row="1" seat="7">
		<path class="st1" d="M697.3,424.4v-11.1c0-0.6,0.4-1,1-1h9c0.6,0,1,0.4,1,1v11.1c0,0.6-0.4,1-1,1h-9    C697.8,425.4,697.3,425,697.3,424.4z"/>
		<path class="st1" d="M697.3,426.3v-14.8c0-0.6,0.4-1,1-1h1.1c0.6,0,1,0.4,1,1v14.8c0,0.6-0.4,1-1,1h-1.1    C697.8,427.3,697.3,426.8,697.3,426.3z"/>
	</g>
	<g sector="Сектор Б" row="1" seat="8">
		<path class="st1" d="M697.3,451.4v-11.1c0-0.6,0.4-1,1-1h9c0.6,0,1,0.4,1,1v11.1c0,0.6-0.4,1-1,1h-9    C697.8,452.4,697.3,452,697.3,451.4z"/>
		<path class="st1" d="M697.3,453.3v-14.8c0-0.6,0.4-1,1-1h1.1c0.6,0,1,0.4,1,1v14.8c0,0.6-0.4,1-1,1h-1.1    C697.8,454.3,697.3,453.8,697.3,453.3z"/>
	</g>
	<g sector="Сектор Б" row="1" seat="9">
		<path class="st1" d="M697.3,477.4v-11.1c0-0.6,0.4-1,1-1h9c0.6,0,1,0.4,1,1v11.1c0,0.6-0.4,1-1,1h-9    C697.8,478.4,697.3,478,697.3,477.4z"/>
		<path class="st1" d="M697.3,479.3v-14.8c0-0.6,0.4-1,1-1h1.1c0.6,0,1,0.4,1,1v14.8c0,0.6-0.4,1-1,1h-1.1    C697.8,480.3,697.3,479.8,697.3,479.3z"/>
	</g>
	<g sector="Сектор Б" row="1" seat="10">
		<path class="st1" d="M697.3,505.4v-11.1c0-0.6,0.4-1,1-1h9c0.6,0,1,0.4,1,1v11.1c0,0.6-0.4,1-1,1h-9    C697.8,506.4,697.3,506,697.3,505.4z"/>
		<path class="st1" d="M697.3,507.3v-14.8c0-0.6,0.4-1,1-1h1.1c0.6,0,1,0.4,1,1v14.8c0,0.6-0.4,1-1,1h-1.1    C697.8,508.3,697.3,507.8,697.3,507.3z"/>
	</g>
	<g sector="Сектор Б" row="1" seat="11">
		<path class="st1" d="M697.3,531.4v-11.1c0-0.6,0.4-1,1-1h9c0.6,0,1,0.4,1,1v11.1c0,0.6-0.4,1-1,1h-9    C697.8,532.4,697.3,532,697.3,531.4z"/>
		<path class="st1" d="M697.3,533.3v-14.8c0-0.6,0.4-1,1-1h1.1c0.6,0,1,0.4,1,1v14.8c0,0.6-0.4,1-1,1h-1.1    C697.8,534.3,697.3,533.8,697.3,533.3z"/>
	</g>
	<g sector="Сектор Б" row="1" seat="12">
		<path class="st1" d="M697.3,558.4v-11.1c0-0.6,0.4-1,1-1h9c0.6,0,1,0.4,1,1v11.1c0,0.6-0.4,1-1,1h-9    C697.8,559.4,697.3,559,697.3,558.4z"/>
		<path class="st1" d="M697.3,560.3v-14.8c0-0.6,0.4-1,1-1h1.1c0.6,0,1,0.4,1,1v14.8c0,0.6-0.4,1-1,1h-1.1    C697.8,561.3,697.3,560.8,697.3,560.3z"/>
	</g>
</g>
<g sector="Сектор В" row="1" seat="1">
	<path class="st1" d="M307.4,624.4h-11.1c-0.6,0-1-0.4-1-1v-9c0-0.6,0.4-1,1-1h11.1c0.6,0,1,0.4,1,1v9   C308.4,623.9,307.9,624.4,307.4,624.4z"/>
	<path class="st1" d="M309.2,624.4h-14.8c-0.6,0-1-0.4-1-1v-1.1c0-0.6,0.4-1,1-1h14.8c0.6,0,1,0.4,1,1v1.1   C310.2,623.9,309.8,624.4,309.2,624.4z"/>
</g>
<g sector="Сектор В" row="1" seat="2">
	<path class="st1" d="M334.4,624.4h-11.1c-0.6,0-1-0.4-1-1v-9c0-0.6,0.4-1,1-1h11.1c0.6,0,1,0.4,1,1v9   C335.4,623.9,334.9,624.4,334.4,624.4z"/>
	<path class="st1" d="M336.2,624.4h-14.8c-0.6,0-1-0.4-1-1v-1.1c0-0.6,0.4-1,1-1h14.8c0.6,0,1,0.4,1,1v1.1   C337.2,623.9,336.8,624.4,336.2,624.4z"/>
</g>
<g sector="Сектор В" row="1" seat="3">
	<path class="st1" d="M361.4,624.4h-11.1c-0.6,0-1-0.4-1-1v-9c0-0.6,0.4-1,1-1h11.1c0.6,0,1,0.4,1,1v9   C362.4,623.9,361.9,624.4,361.4,624.4z"/>
	<path class="st1" d="M363.2,624.4h-14.8c-0.6,0-1-0.4-1-1v-1.1c0-0.6,0.4-1,1-1h14.8c0.6,0,1,0.4,1,1v1.1   C364.2,623.9,363.8,624.4,363.2,624.4z"/>
</g>
<g sector="Сектор В" row="1" seat="5">
	<path class="st1" d="M388.4,624.4h-11.1c-0.6,0-1-0.4-1-1v-9c0-0.6,0.4-1,1-1h11.1c0.6,0,1,0.4,1,1v9   C389.4,623.9,388.9,624.4,388.4,624.4z"/>
	<path class="st1" d="M390.2,624.4h-14.8c-0.6,0-1-0.4-1-1v-1.1c0-0.6,0.4-1,1-1h14.8c0.6,0,1,0.4,1,1v1.1   C391.2,623.9,390.8,624.4,390.2,624.4z"/>
</g>
<g sector="Сектор В" row="1" seat="6">
	<path class="st1" d="M415.4,624.4h-11.1c-0.6,0-1-0.4-1-1v-9c0-0.6,0.4-1,1-1h11.1c0.6,0,1,0.4,1,1v9   C416.4,623.9,415.9,624.4,415.4,624.4z"/>
	<path class="st1" d="M417.2,624.4h-14.8c-0.6,0-1-0.4-1-1v-1.1c0-0.6,0.4-1,1-1h14.8c0.6,0,1,0.4,1,1v1.1   C418.2,623.9,417.8,624.4,417.2,624.4z"/>
</g>
<g sector="Сектор В" row="1" seat="7">
	<path class="st1" d="M442.4,624.4h-11.1c-0.6,0-1-0.4-1-1v-9c0-0.6,0.4-1,1-1h11.1c0.6,0,1,0.4,1,1v9   C443.4,623.9,442.9,624.4,442.4,624.4z"/>
	<path class="st1" d="M444.2,624.4h-14.8c-0.6,0-1-0.4-1-1v-1.1c0-0.6,0.4-1,1-1h14.8c0.6,0,1,0.4,1,1v1.1   C445.2,623.9,444.8,624.4,444.2,624.4z"/>
</g>
<g sector="Сектор В" row="2" seat="1">
	<path class="st1" d="M199.4,654.4h-11.1c-0.6,0-1-0.4-1-1v-9c0-0.6,0.4-1,1-1h11.1c0.6,0,1,0.4,1,1v9   C200.4,653.9,199.9,654.4,199.4,654.4z"/>
	<path class="st1" d="M201.2,654.4h-14.8c-0.6,0-1-0.4-1-1v-1.1c0-0.6,0.4-1,1-1h14.8c0.6,0,1,0.4,1,1v1.1   C202.2,653.9,201.8,654.4,201.2,654.4z"/>
</g>
<g sector="Сектор В" row="2" seat="2">
	<path class="st1" d="M226.4,654.4h-11.1c-0.6,0-1-0.4-1-1v-9c0-0.6,0.4-1,1-1h11.1c0.6,0,1,0.4,1,1v9   C227.4,653.9,226.9,654.4,226.4,654.4z"/>
	<path class="st1" d="M228.2,654.4h-14.8c-0.6,0-1-0.4-1-1v-1.1c0-0.6,0.4-1,1-1h14.8c0.6,0,1,0.4,1,1v1.1   C229.2,653.9,228.8,654.4,228.2,654.4z"/>
</g>
<g sector="Сектор В" row="2" seat="3">
	<path class="st1" d="M253.4,654.4h-11.1c-0.6,0-1-0.4-1-1v-9c0-0.6,0.4-1,1-1h11.1c0.6,0,1,0.4,1,1v9   C254.4,653.9,253.9,654.4,253.4,654.4z"/>
	<path class="st1" d="M255.2,654.4h-14.8c-0.6,0-1-0.4-1-1v-1.1c0-0.6,0.4-1,1-1h14.8c0.6,0,1,0.4,1,1v1.1   C256.2,653.9,255.8,654.4,255.2,654.4z"/>
</g>
<g sector="Сектор В" row="2" seat="4">
	<path class="st1" d="M280.4,654.4h-11.1c-0.6,0-1-0.4-1-1v-9c0-0.6,0.4-1,1-1h11.1c0.6,0,1,0.4,1,1v9   C281.4,653.9,280.9,654.4,280.4,654.4z"/>
	<path class="st1" d="M282.2,654.4h-14.8c-0.6,0-1-0.4-1-1v-1.1c0-0.6,0.4-1,1-1h14.8c0.6,0,1,0.4,1,1v1.1   C283.2,653.9,282.8,654.4,282.2,654.4z"/>
</g>
<g sector="Сектор В" row="2" seat="5">
	<path class="st1" d="M307.4,654.4h-11.1c-0.6,0-1-0.4-1-1v-9c0-0.6,0.4-1,1-1h11.1c0.6,0,1,0.4,1,1v9   C308.4,653.9,307.9,654.4,307.4,654.4z"/>
	<path class="st1" d="M309.2,654.4h-14.8c-0.6,0-1-0.4-1-1v-1.1c0-0.6,0.4-1,1-1h14.8c0.6,0,1,0.4,1,1v1.1   C310.2,653.9,309.8,654.4,309.2,654.4z"/>
</g>
<g sector="Сектор В" row="2" seat="6">
	<path class="st1" d="M334.4,654.4h-11.1c-0.6,0-1-0.4-1-1v-9c0-0.6,0.4-1,1-1h11.1c0.6,0,1,0.4,1,1v9   C335.4,653.9,334.9,654.4,334.4,654.4z"/>
	<path class="st1" d="M336.2,654.4h-14.8c-0.6,0-1-0.4-1-1v-1.1c0-0.6,0.4-1,1-1h14.8c0.6,0,1,0.4,1,1v1.1   C337.2,653.9,336.8,654.4,336.2,654.4z"/>
</g>
<g sector="Сектор В" row="2" seat="7">
	<path class="st1" d="M361.4,654.4h-11.1c-0.6,0-1-0.4-1-1v-9c0-0.6,0.4-1,1-1h11.1c0.6,0,1,0.4,1,1v9   C362.4,653.9,361.9,654.4,361.4,654.4z"/>
	<path class="st1" d="M363.2,654.4h-14.8c-0.6,0-1-0.4-1-1v-1.1c0-0.6,0.4-1,1-1h14.8c0.6,0,1,0.4,1,1v1.1   C364.2,653.9,363.8,654.4,363.2,654.4z"/>
</g>
<g sector="Сектор В" row="2" seat="8">
	<path class="st1" d="M388.4,654.4h-11.1c-0.6,0-1-0.4-1-1v-9c0-0.6,0.4-1,1-1h11.1c0.6,0,1,0.4,1,1v9   C389.4,653.9,388.9,654.4,388.4,654.4z"/>
	<path class="st1" d="M390.2,654.4h-14.8c-0.6,0-1-0.4-1-1v-1.1c0-0.6,0.4-1,1-1h14.8c0.6,0,1,0.4,1,1v1.1   C391.2,653.9,390.8,654.4,390.2,654.4z"/>
</g>
<g sector="Сектор В" row="2" seat="9">
	<path class="st1" d="M414.4,654.4h-11.1c-0.6,0-1-0.4-1-1v-9c0-0.6,0.4-1,1-1h11.1c0.6,0,1,0.4,1,1v9   C415.4,653.9,414.9,654.4,414.4,654.4z"/>
	<path class="st1" d="M416.2,654.4h-14.8c-0.6,0-1-0.4-1-1v-1.1c0-0.6,0.4-1,1-1h14.8c0.6,0,1,0.4,1,1v1.1   C417.2,653.9,416.8,654.4,416.2,654.4z"/>
</g>
<g sector="Сектор В" row="2" seat="10">
	<path class="st1" d="M442.4,654.4h-11.1c-0.6,0-1-0.4-1-1v-9c0-0.6,0.4-1,1-1h11.1c0.6,0,1,0.4,1,1v9   C443.4,653.9,442.9,654.4,442.4,654.4z"/>
	<path class="st1" d="M444.2,654.4h-14.8c-0.6,0-1-0.4-1-1v-1.1c0-0.6,0.4-1,1-1h14.8c0.6,0,1,0.4,1,1v1.1   C445.2,653.9,444.8,654.4,444.2,654.4z"/>
</g>
<g sector="Сектор В" row="2" seat="11">
	<path class="st1" d="M468.4,654.4h-11.1c-0.6,0-1-0.4-1-1v-9c0-0.6,0.4-1,1-1h11.1c0.6,0,1,0.4,1,1v9   C469.4,653.9,468.9,654.4,468.4,654.4z"/>
	<path class="st1" d="M470.2,654.4h-14.8c-0.6,0-1-0.4-1-1v-1.1c0-0.6,0.4-1,1-1h14.8c0.6,0,1,0.4,1,1v1.1   C471.2,653.9,470.8,654.4,470.2,654.4z"/>
</g>
<g sector="Сектор В" row="2" seat="12">
	<path class="st1" d="M495.4,654.4h-11.1c-0.6,0-1-0.4-1-1v-9c0-0.6,0.4-1,1-1h11.1c0.6,0,1,0.4,1,1v9   C496.4,653.9,495.9,654.4,495.4,654.4z"/>
	<path class="st1" d="M497.2,654.4h-14.8c-0.6,0-1-0.4-1-1v-1.1c0-0.6,0.4-1,1-1h14.8c0.6,0,1,0.4,1,1v1.1   C498.2,653.9,497.8,654.4,497.2,654.4z"/>
</g>
<g sector="Сектор В" row="2" seat="13">
	<path class="st1" d="M522.4,654.4h-11.1c-0.6,0-1-0.4-1-1v-9c0-0.6,0.4-1,1-1h11.1c0.6,0,1,0.4,1,1v9   C523.4,653.9,522.9,654.4,522.4,654.4z"/>
	<path class="st1" d="M524.2,654.4h-14.8c-0.6,0-1-0.4-1-1v-1.1c0-0.6,0.4-1,1-1h14.8c0.6,0,1,0.4,1,1v1.1   C525.2,653.9,524.8,654.4,524.2,654.4z"/>
</g>
<g sector="Сектор В" row="2" seat="14">
	<path class="st1" d="M549.4,654.4h-11.1c-0.6,0-1-0.4-1-1v-9c0-0.6,0.4-1,1-1h11.1c0.6,0,1,0.4,1,1v9   C550.4,653.9,549.9,654.4,549.4,654.4z"/>
	<path class="st1" d="M551.2,654.4h-14.8c-0.6,0-1-0.4-1-1v-1.1c0-0.6,0.4-1,1-1h14.8c0.6,0,1,0.4,1,1v1.1   C552.2,653.9,551.8,654.4,551.2,654.4z"/>
</g>

<g sector="Сектор В" row="3" seat="1">
	<path class="st1" d="M199.4,684.4h-11.1c-0.6,0-1-0.4-1-1v-9c0-0.6,0.4-1,1-1h11.1c0.6,0,1,0.4,1,1v9   C200.4,683.9,199.9,684.4,199.4,684.4z"/>
	<path class="st1" d="M201.2,684.4h-14.8c-0.6,0-1-0.4-1-1v-1.1c0-0.6,0.4-1,1-1h14.8c0.6,0,1,0.4,1,1v1.1   C202.2,683.9,201.8,684.4,201.2,684.4z"/>
</g>
<g sector="Сектор В" row="3" seat="2">
	<path class="st1" d="M226.4,684.4h-11.1c-0.6,0-1-0.4-1-1v-9c0-0.6,0.4-1,1-1h11.1c0.6,0,1,0.4,1,1v9   C227.4,683.9,226.9,684.4,226.4,684.4z"/>
	<path class="st1" d="M228.2,684.4h-14.8c-0.6,0-1-0.4-1-1v-1.1c0-0.6,0.4-1,1-1h14.8c0.6,0,1,0.4,1,1v1.1   C229.2,683.9,228.8,684.4,228.2,684.4z"/>
</g>
<g sector="Сектор В" row="3" seat="3">
	<path class="st1" d="M253.4,684.4h-11.1c-0.6,0-1-0.4-1-1v-9c0-0.6,0.4-1,1-1h11.1c0.6,0,1,0.4,1,1v9   C254.4,683.9,253.9,684.4,253.4,684.4z"/>
	<path class="st1" d="M255.2,684.4h-14.8c-0.6,0-1-0.4-1-1v-1.1c0-0.6,0.4-1,1-1h14.8c0.6,0,1,0.4,1,1v1.1   C256.2,683.9,255.8,684.4,255.2,684.4z"/>
</g>
<g sector="Сектор В" row="3" seat="4">
	<path class="st1" d="M280.4,684.4h-11.1c-0.6,0-1-0.4-1-1v-9c0-0.6,0.4-1,1-1h11.1c0.6,0,1,0.4,1,1v9   C281.4,683.9,280.9,684.4,280.4,684.4z"/>
	<path class="st1" d="M282.2,684.4h-14.8c-0.6,0-1-0.4-1-1v-1.1c0-0.6,0.4-1,1-1h14.8c0.6,0,1,0.4,1,1v1.1   C283.2,683.9,282.8,684.4,282.2,684.4z"/>
</g>
<g sector="Сектор В" row="3" seat="5">
	<path class="st1" d="M307.4,684.4h-11.1c-0.6,0-1-0.4-1-1v-9c0-0.6,0.4-1,1-1h11.1c0.6,0,1,0.4,1,1v9   C308.4,683.9,307.9,684.4,307.4,684.4z"/>
	<path class="st1" d="M309.2,684.4h-14.8c-0.6,0-1-0.4-1-1v-1.1c0-0.6,0.4-1,1-1h14.8c0.6,0,1,0.4,1,1v1.1   C310.2,683.9,309.8,684.4,309.2,684.4z"/>
</g>
<g sector="Сектор В" row="3" seat="6">
	<path class="st1" d="M334.4,684.4h-11.1c-0.6,0-1-0.4-1-1v-9c0-0.6,0.4-1,1-1h11.1c0.6,0,1,0.4,1,1v9   C335.4,683.9,334.9,684.4,334.4,684.4z"/>
	<path class="st1" d="M336.2,684.4h-14.8c-0.6,0-1-0.4-1-1v-1.1c0-0.6,0.4-1,1-1h14.8c0.6,0,1,0.4,1,1v1.1   C337.2,683.9,336.8,684.4,336.2,684.4z"/>
</g>
<g sector="Сектор В" row="3" seat="7">
	<path class="st1" d="M361.4,684.4h-11.1c-0.6,0-1-0.4-1-1v-9c0-0.6,0.4-1,1-1h11.1c0.6,0,1,0.4,1,1v9   C362.4,683.9,361.9,684.4,361.4,684.4z"/>
	<path class="st1" d="M363.2,684.4h-14.8c-0.6,0-1-0.4-1-1v-1.1c0-0.6,0.4-1,1-1h14.8c0.6,0,1,0.4,1,1v1.1   C364.2,683.9,363.8,684.4,363.2,684.4z"/>
</g>
<g sector="Сектор В" row="3" seat="8">
	<path class="st1" d="M388.4,684.4h-11.1c-0.6,0-1-0.4-1-1v-9c0-0.6,0.4-1,1-1h11.1c0.6,0,1,0.4,1,1v9   C389.4,683.9,388.9,684.4,388.4,684.4z"/>
	<path class="st1" d="M390.2,684.4h-14.8c-0.6,0-1-0.4-1-1v-1.1c0-0.6,0.4-1,1-1h14.8c0.6,0,1,0.4,1,1v1.1   C391.2,683.9,390.8,684.4,390.2,684.4z"/>
</g>
<g sector="Сектор В" row="3" seat="9">
	<path class="st1" d="M414.4,684.4h-11.1c-0.6,0-1-0.4-1-1v-9c0-0.6,0.4-1,1-1h11.1c0.6,0,1,0.4,1,1v9   C415.4,683.9,414.9,684.4,414.4,684.4z"/>
	<path class="st1" d="M416.2,684.4h-14.8c-0.6,0-1-0.4-1-1v-1.1c0-0.6,0.4-1,1-1h14.8c0.6,0,1,0.4,1,1v1.1   C417.2,683.9,416.8,684.4,416.2,684.4z"/>
</g>
<g sector="Сектор В" row="3" seat="10">
	<path class="st1" d="M442.4,684.4h-11.1c-0.6,0-1-0.4-1-1v-9c0-0.6,0.4-1,1-1h11.1c0.6,0,1,0.4,1,1v9   C443.4,683.9,442.9,684.4,442.4,684.4z"/>
	<path class="st1" d="M444.2,684.4h-14.8c-0.6,0-1-0.4-1-1v-1.1c0-0.6,0.4-1,1-1h14.8c0.6,0,1,0.4,1,1v1.1   C445.2,683.9,444.8,684.4,444.2,684.4z"/>
</g>
<g sector="Сектор В" row="3" seat="11">
	<path class="st1" d="M468.4,684.4h-11.1c-0.6,0-1-0.4-1-1v-9c0-0.6,0.4-1,1-1h11.1c0.6,0,1,0.4,1,1v9   C469.4,683.9,468.9,684.4,468.4,684.4z"/>
	<path class="st1" d="M470.2,684.4h-14.8c-0.6,0-1-0.4-1-1v-1.1c0-0.6,0.4-1,1-1h14.8c0.6,0,1,0.4,1,1v1.1   C471.2,683.9,470.8,684.4,470.2,684.4z"/>
</g>
<g sector="Сектор В" row="3" seat="12">
	<path class="st1" d="M495.4,684.4h-11.1c-0.6,0-1-0.4-1-1v-9c0-0.6,0.4-1,1-1h11.1c0.6,0,1,0.4,1,1v9   C496.4,683.9,495.9,684.4,495.4,684.4z"/>
	<path class="st1" d="M497.2,684.4h-14.8c-0.6,0-1-0.4-1-1v-1.1c0-0.6,0.4-1,1-1h14.8c0.6,0,1,0.4,1,1v1.1   C498.2,683.9,497.8,684.4,497.2,684.4z"/>
</g>
<g sector="Сектор В" row="3" seat="13">
	<path class="st1" d="M522.4,684.4h-11.1c-0.6,0-1-0.4-1-1v-9c0-0.6,0.4-1,1-1h11.1c0.6,0,1,0.4,1,1v9   C523.4,683.9,522.9,684.4,522.4,684.4z"/>
	<path class="st1" d="M524.2,684.4h-14.8c-0.6,0-1-0.4-1-1v-1.1c0-0.6,0.4-1,1-1h14.8c0.6,0,1,0.4,1,1v1.1   C525.2,683.9,524.8,684.4,524.2,684.4z"/>
</g>
<g sector="Сектор В" row="3" seat="14">
	<path class="st1" d="M549.4,684.4h-11.1c-0.6,0-1-0.4-1-1v-9c0-0.6,0.4-1,1-1h11.1c0.6,0,1,0.4,1,1v9   C550.4,683.9,549.9,684.4,549.4,684.4z"/>
	<path class="st1" d="M551.2,684.4h-14.8c-0.6,0-1-0.4-1-1v-1.1c0-0.6,0.4-1,1-1h14.8c0.6,0,1,0.4,1,1v1.1   C552.2,683.9,551.8,684.4,551.2,684.4z"/>
</g>

<g sector="Сектор В" row="4" seat="1">
	<path class="st1" d="M92.4,714.4H81.3c-0.6,0-1-0.4-1-1v-9c0-0.6,0.4-1,1-1h11.1c0.6,0,1,0.4,1,1v9   C93.4,713.9,92.9,714.4,92.4,714.4z"/>
	<path class="st1" d="M94.2,714.4H79.5c-0.6,0-1-0.4-1-1v-1.1c0-0.6,0.4-1,1-1h14.8c0.6,0,1,0.4,1,1v1.1   C95.2,713.9,94.8,714.4,94.2,714.4z"/>
</g>
<g sector="Сектор В" row="4" seat="2">
	<path class="st1" d="M119.4,714.4h-11.1c-0.6,0-1-0.4-1-1v-9c0-0.6,0.4-1,1-1h11.1c0.6,0,1,0.4,1,1v9   C120.4,713.9,119.9,714.4,119.4,714.4z"/>
	<path class="st1" d="M121.2,714.4h-14.8c-0.6,0-1-0.4-1-1v-1.1c0-0.6,0.4-1,1-1h14.8c0.6,0,1,0.4,1,1v1.1   C122.2,713.9,121.8,714.4,121.2,714.4z"/>
</g>
<g sector="Сектор В" row="4" seat="3">
	<path class="st1" d="M146.4,714.4h-11.1c-0.6,0-1-0.4-1-1v-9c0-0.6,0.4-1,1-1h11.1c0.6,0,1,0.4,1,1v9   C147.4,713.9,146.9,714.4,146.4,714.4z"/>
	<path class="st1" d="M148.2,714.4h-14.8c-0.6,0-1-0.4-1-1v-1.1c0-0.6,0.4-1,1-1h14.8c0.6,0,1,0.4,1,1v1.1   C149.2,713.9,148.8,714.4,148.2,714.4z"/>
</g>
<g sector="Сектор В" row="4" seat="4">
	<path class="st1" d="M173.4,714.4h-11.1c-0.6,0-1-0.4-1-1v-9c0-0.6,0.4-1,1-1h11.1c0.6,0,1,0.4,1,1v9   C174.4,713.9,173.9,714.4,173.4,714.4z"/>
	<path class="st1" d="M175.2,714.4h-14.8c-0.6,0-1-0.4-1-1v-1.1c0-0.6,0.4-1,1-1h14.8c0.6,0,1,0.4,1,1v1.1   C176.2,713.9,175.8,714.4,175.2,714.4z"/>
</g>
<g sector="Сектор В" row="4" seat="5">
	<path class="st1" d="M200.4,714.4h-11.1c-0.6,0-1-0.4-1-1v-9c0-0.6,0.4-1,1-1h11.1c0.6,0,1,0.4,1,1v9   C201.4,713.9,200.9,714.4,200.4,714.4z"/>
	<path class="st1" d="M202.2,714.4h-14.8c-0.6,0-1-0.4-1-1v-1.1c0-0.6,0.4-1,1-1h14.8c0.6,0,1,0.4,1,1v1.1   C203.2,713.9,202.8,714.4,202.2,714.4z"/>
</g>
<g sector="Сектор В" row="4" seat="6">
	<path class="st1" d="M227.4,714.4h-11.1c-0.6,0-1-0.4-1-1v-9c0-0.6,0.4-1,1-1h11.1c0.6,0,1,0.4,1,1v9   C228.4,713.9,227.9,714.4,227.4,714.4z"/>
	<path class="st1" d="M229.2,714.4h-14.8c-0.6,0-1-0.4-1-1v-1.1c0-0.6,0.4-1,1-1h14.8c0.6,0,1,0.4,1,1v1.1   C230.2,713.9,229.8,714.4,229.2,714.4z"/>
</g>
<g sector="Сектор В" row="4" seat="7">
	<path class="st1" d="M254.4,714.4h-11.1c-0.6,0-1-0.4-1-1v-9c0-0.6,0.4-1,1-1h11.1c0.6,0,1,0.4,1,1v9   C255.4,713.9,254.9,714.4,254.4,714.4z"/>
	<path class="st1" d="M256.2,714.4h-14.8c-0.6,0-1-0.4-1-1v-1.1c0-0.6,0.4-1,1-1h14.8c0.6,0,1,0.4,1,1v1.1   C257.2,713.9,256.8,714.4,256.2,714.4z"/>
</g>
<g sector="Сектор В" row="4" seat="8">
	<path class="st1" d="M281.4,714.4h-11.1c-0.6,0-1-0.4-1-1v-9c0-0.6,0.4-1,1-1h11.1c0.6,0,1,0.4,1,1v9   C282.4,713.9,281.9,714.4,281.4,714.4z"/>
	<path class="st1" d="M283.2,714.4h-14.8c-0.6,0-1-0.4-1-1v-1.1c0-0.6,0.4-1,1-1h14.8c0.6,0,1,0.4,1,1v1.1   C284.2,713.9,283.8,714.4,283.2,714.4z"/>
</g>
<g sector="Сектор В" row="4" seat="9">
	<path class="st1" d="M307.4,714.4h-11.1c-0.6,0-1-0.4-1-1v-9c0-0.6,0.4-1,1-1h11.1c0.6,0,1,0.4,1,1v9   C308.4,713.9,307.9,714.4,307.4,714.4z"/>
	<path class="st1" d="M309.2,714.4h-14.8c-0.6,0-1-0.4-1-1v-1.1c0-0.6,0.4-1,1-1h14.8c0.6,0,1,0.4,1,1v1.1   C310.2,713.9,309.8,714.4,309.2,714.4z"/>
</g>
<g sector="Сектор В" row="4" seat="10">
	<path class="st1" d="M333.4,714.4h-11.1c-0.6,0-1-0.4-1-1v-9c0-0.6,0.4-1,1-1h11.1c0.6,0,1,0.4,1,1v9   C334.4,713.9,333.9,714.4,333.4,714.4z"/>
	<path class="st1" d="M335.2,714.4h-14.8c-0.6,0-1-0.4-1-1v-1.1c0-0.6,0.4-1,1-1h14.8c0.6,0,1,0.4,1,1v1.1   C336.2,713.9,335.8,714.4,335.2,714.4z"/>
</g>
<g sector="Сектор В" row="4" seat="11">
	<path class="st1" d="M359.4,714.4h-11.1c-0.6,0-1-0.4-1-1v-9c0-0.6,0.4-1,1-1h11.1c0.6,0,1,0.4,1,1v9   C360.4,713.9,359.9,714.4,359.4,714.4z"/>
	<path class="st1" d="M361.2,714.4h-14.8c-0.6,0-1-0.4-1-1v-1.1c0-0.6,0.4-1,1-1h14.8c0.6,0,1,0.4,1,1v1.1   C362.2,713.9,361.8,714.4,361.2,714.4z"/>
</g>
<g sector="Сектор В" row="4" seat="12">
	<path class="st1" d="M386.4,714.4h-11.1c-0.6,0-1-0.4-1-1v-9c0-0.6,0.4-1,1-1h11.1c0.6,0,1,0.4,1,1v9   C387.4,713.9,386.9,714.4,386.4,714.4z"/>
	<path class="st1" d="M388.2,714.4h-14.8c-0.6,0-1-0.4-1-1v-1.1c0-0.6,0.4-1,1-1h14.8c0.6,0,1,0.4,1,1v1.1   C389.2,713.9,388.8,714.4,388.2,714.4z"/>
</g>
<g sector="Сектор В" row="4" seat="13">
	<path class="st1" d="M413.4,714.4h-11.1c-0.6,0-1-0.4-1-1v-9c0-0.6,0.4-1,1-1h11.1c0.6,0,1,0.4,1,1v9   C414.4,713.9,413.9,714.4,413.4,714.4z"/>
	<path class="st1" d="M415.2,714.4h-14.8c-0.6,0-1-0.4-1-1v-1.1c0-0.6,0.4-1,1-1h14.8c0.6,0,1,0.4,1,1v1.1   C416.2,713.9,415.8,714.4,415.2,714.4z"/>
</g>
<g sector="Сектор В" row="4" seat="14">
	<path class="st1" d="M440.4,714.4h-11.1c-0.6,0-1-0.4-1-1v-9c0-0.6,0.4-1,1-1h11.1c0.6,0,1,0.4,1,1v9   C441.4,713.9,440.9,714.4,440.4,714.4z"/>
	<path class="st1" d="M442.2,714.4h-14.8c-0.6,0-1-0.4-1-1v-1.1c0-0.6,0.4-1,1-1h14.8c0.6,0,1,0.4,1,1v1.1   C443.2,713.9,442.8,714.4,442.2,714.4z"/>
</g>
<g sector="Сектор В" row="4" seat="15">
	<path class="st1" d="M467.4,714.4h-11.1c-0.6,0-1-0.4-1-1v-9c0-0.6,0.4-1,1-1h11.1c0.6,0,1,0.4,1,1v9   C468.4,713.9,467.9,714.4,467.4,714.4z"/>
	<path class="st1" d="M469.2,714.4h-14.8c-0.6,0-1-0.4-1-1v-1.1c0-0.6,0.4-1,1-1h14.8c0.6,0,1,0.4,1,1v1.1   C470.2,713.9,469.8,714.4,469.2,714.4z"/>
</g>
<g sector="Сектор В" row="4" seat="16">
	<path class="st1" d="M494.4,714.4h-11.1c-0.6,0-1-0.4-1-1v-9c0-0.6,0.4-1,1-1h11.1c0.6,0,1,0.4,1,1v9   C495.4,713.9,494.9,714.4,494.4,714.4z"/>
	<path class="st1" d="M496.2,714.4h-14.8c-0.6,0-1-0.4-1-1v-1.1c0-0.6,0.4-1,1-1h14.8c0.6,0,1,0.4,1,1v1.1   C497.2,713.9,496.8,714.4,496.2,714.4z"/>
</g>
<g sector="Сектор В" row="4" seat="17">
	<path class="st1" d="M521.4,714.4h-11.1c-0.6,0-1-0.4-1-1v-9c0-0.6,0.4-1,1-1h11.1c0.6,0,1,0.4,1,1v9   C522.4,713.9,521.9,714.4,521.4,714.4z"/>
	<path class="st1" d="M523.2,714.4h-14.8c-0.6,0-1-0.4-1-1v-1.1c0-0.6,0.4-1,1-1h14.8c0.6,0,1,0.4,1,1v1.1   C524.2,713.9,523.8,714.4,523.2,714.4z"/>
</g>
<g sector="Сектор В" row="4" seat="18">
	<path class="st1" d="M548.4,714.4h-11.1c-0.6,0-1-0.4-1-1v-9c0-0.6,0.4-1,1-1h11.1c0.6,0,1,0.4,1,1v9   C549.4,713.9,548.9,714.4,548.4,714.4z"/>
	<path class="st1" d="M550.2,714.4h-14.8c-0.6,0-1-0.4-1-1v-1.1c0-0.6,0.4-1,1-1h14.8c0.6,0,1,0.4,1,1v1.1   C551.2,713.9,550.8,714.4,550.2,714.4z"/>
</g>
<g sector="Сектор В" row="4" seat="19">
	<path class="st1" d="M575.4,714.4h-11.1c-0.6,0-1-0.4-1-1v-9c0-0.6,0.4-1,1-1h11.1c0.6,0,1,0.4,1,1v9   C576.4,713.9,575.9,714.4,575.4,714.4z"/>
	<path class="st1" d="M577.2,714.4h-14.8c-0.6,0-1-0.4-1-1v-1.1c0-0.6,0.4-1,1-1h14.8c0.6,0,1,0.4,1,1v1.1   C578.2,713.9,577.8,714.4,577.2,714.4z"/>
</g>
<g sector="Сектор В" row="4" seat="20">
	<path class="st1" d="M602.4,714.4h-11.1c-0.6,0-1-0.4-1-1v-9c0-0.6,0.4-1,1-1h11.1c0.6,0,1,0.4,1,1v9   C603.4,713.9,602.9,714.4,602.4,714.4z"/>
	<path class="st1" d="M604.2,714.4h-14.8c-0.6,0-1-0.4-1-1v-1.1c0-0.6,0.4-1,1-1h14.8c0.6,0,1,0.4,1,1v1.1   C605.2,713.9,604.8,714.4,604.2,714.4z"/>
</g>
<g sector="Сектор В" row="4" seat="21">
	<path class="st1" d="M629.4,714.4h-11.1c-0.6,0-1-0.4-1-1v-9c0-0.6,0.4-1,1-1h11.1c0.6,0,1,0.4,1,1v9   C630.4,713.9,629.9,714.4,629.4,714.4z"/>
	<path class="st1" d="M631.2,714.4h-14.8c-0.6,0-1-0.4-1-1v-1.1c0-0.6,0.4-1,1-1h14.8c0.6,0,1,0.4,1,1v1.1   C632.2,713.9,631.8,714.4,631.2,714.4z"/>
</g>
<g sector="Сектор В" row="4" seat="22">
	<path class="st1" d="M658.4,714.4h-11.1c-0.6,0-1-0.4-1-1v-9c0-0.6,0.4-1,1-1h11.1c0.6,0,1,0.4,1,1v9   C659.4,713.9,658.9,714.4,658.4,714.4z"/>
	<path class="st1" d="M660.2,714.4h-14.8c-0.6,0-1-0.4-1-1v-1.1c0-0.6,0.4-1,1-1h14.8c0.6,0,1,0.4,1,1v1.1   C661.2,713.9,660.8,714.4,660.2,714.4z"/>
</g>
</svg>